M48
; DRILL file {KiCad (5.1.2)-1} date 10/8/2019 3:51:21 PM
; FORMAT={-:-/ absolute / inch / decimal}
; #@! TF.CreationDate,2019-10-08T15:51:21-07:00
; #@! TF.GenerationSoftware,Kicad,Pcbnew,(5.1.2)-1
; #@! TF.FileFunction,Plated,1,2,PTH
FMAT,2
INCH
T1C0.0157
T2C0.0295
T3C0.0315
T4C0.0354
T5C0.0394
T6C0.0630
T7C0.0787
%
G90
G05
T1
X1.9685Y-3.7402
X1.9685Y-6.4567
X1.9882Y-6.6535
X1.9913Y-3.6055
X2.2982Y-4.5128
X2.3268Y-4.1535
X2.3425Y-5.0787
X2.3472Y-3.9024
X2.3524Y-6.0728
X2.3819Y-3.5039
X2.4016Y-6.122
X2.4321Y-3.4144
X2.4606Y-3.7598
X2.4606Y-6.4961
X2.4803Y-4.7244
X2.4803Y-5.0394
X2.4803Y-5.0787
X2.5Y-3.7008
X2.5591Y-3.9567
X2.5787Y-3.622
X2.5984Y-5.0394
X2.6197Y-4.5685
X2.6339Y-3.5518
X2.6575Y-4.7244
X2.6969Y-5.9055
X2.7756Y-5.7874
X2.8445Y-4.6555
X2.8937Y-5.0984
X2.9134Y-5.7874
X2.9331Y-6.122
X2.9528Y-3.7402
X2.9528Y-4.4685
X3.0315Y-4.3898
X3.2677Y-5.0984
X3.435Y-6.2795
T2
X2.8921Y-5.9843
X2.9421Y-5.9843
X2.9921Y-5.9843
T3
X3.189Y-4.1929
X3.189Y-4.3898
X2.7559Y-4.4685
X2.7559Y-4.5685
X2.7559Y-4.6685
X2.7559Y-4.7685
X3.0559Y-4.4685
X3.0559Y-4.5685
X3.0559Y-4.6685
X3.0559Y-4.7685
X2.0425Y-5.6299
X2.3425Y-5.6299
X2.6315Y-5.3937
X3.0315Y-5.3937
X2.4803Y-6.0433
X2.6772Y-6.0433
X2.6772Y-4.1732
X3.0772Y-4.1732
X2.6315Y-5.1772
X3.0315Y-5.1772
X2.9528Y-3.2874
X3.1496Y-3.2874
X2.6378Y-4.9803
X3.0378Y-4.9803
X2.1063Y-2.8346
X2.2441Y-2.8346
X2.8346Y-3.5827
X3.0315Y-3.5827
X2.7362Y-3.7402
X2.7362Y-3.8402
X2.7362Y-3.9402
X2.7362Y-4.0402
X3.0362Y-3.7402
X3.0362Y-3.8402
X3.0362Y-3.9402
X3.0362Y-4.0402
X2.789Y-3.4449
X3.189Y-3.4449
X2.6315Y-5.7874
X3.0315Y-5.7874
X2.0425Y-5.315
X2.3425Y-5.315
X2.9921Y-2.8346
X3.1299Y-2.8346
X2.6378Y-4.4622
X2.6378Y-4.8622
X3.189Y-3.6354
X3.189Y-4.0354
X2.5591Y-3.878
X2.5591Y-4.0748
X2.6575Y-3.4252
X2.6575Y-3.622
X2.0472Y-5.1575
X2.3472Y-5.1575
X2.5591Y-2.8346
X2.6969Y-2.8346
X2.4803Y-4.4587
X2.4803Y-4.8587
X2.6315Y-5.6102
X3.0315Y-5.6102
X2.185Y-6.211
X2.185Y-6.811
X2.285Y-6.211
X2.285Y-6.811
X2.385Y-6.211
X2.385Y-6.811
X2.485Y-6.211
X2.485Y-6.811
X2.585Y-6.211
X2.585Y-6.811
X2.685Y-6.211
X2.685Y-6.811
X2.785Y-6.211
X2.785Y-6.811
X2.885Y-6.211
X2.885Y-6.811
X2.985Y-6.211
X2.985Y-6.811
X3.085Y-6.211
X3.085Y-6.811
X3.185Y-6.211
X3.185Y-6.811
X3.285Y-6.211
X3.285Y-6.811
X3.385Y-6.211
X3.385Y-6.811
X3.485Y-6.211
X3.485Y-6.811
X3.585Y-6.211
X3.585Y-6.811
X2.0472Y-5.4724
X2.3472Y-5.4724
T4
X3.4941Y-5.9236
X3.4941Y-6.0236
T5
X2.1063Y-3.4055
X2.1063Y-3.5055
X2.1063Y-3.6055
X2.1063Y-3.7055
X2.1063Y-3.8055
X2.2063Y-3.4055
X2.2063Y-3.5055
X2.2063Y-3.6055
X2.2063Y-3.7055
X2.2063Y-3.8055
X2.1047Y-6.0728
X2.2047Y-6.0728
X2.6378Y-4.311
X2.7378Y-4.311
X3.5433Y-3.5236
X3.5433Y-3.622
X3.5433Y-3.7205
X2.1047Y-4.1622
X2.1047Y-4.2622
X2.1047Y-4.3622
X2.1047Y-4.4622
X2.1047Y-4.5622
X2.1047Y-4.6622
X2.1047Y-4.7622
X2.1047Y-4.8622
X2.2047Y-4.1622
X2.2047Y-4.2622
X2.2047Y-4.3622
X2.2047Y-4.4622
X2.2047Y-4.5622
X2.2047Y-4.6622
X2.2047Y-4.7622
X2.2047Y-4.8622
X2.4803Y-5.2937
X2.4803Y-5.3937
X3.5433Y-4.1929
X3.5433Y-4.2913
X3.5433Y-4.3898
X3.5433Y-2.8346
X3.5433Y-2.9331
X3.5433Y-3.0315
T6
X2.0276Y-3.0512
T7
X3.3504Y-4.8622
X3.5669Y-4.8622
X3.6614Y-4.7835
X3.3504Y-5.7087
X3.5669Y-5.7087
X3.6614Y-5.6299
X3.3504Y-5.2953
X3.5669Y-5.2953
X3.6614Y-5.2165
T0
M30
