G04 #@! TF.GenerationSoftware,KiCad,Pcbnew,(5.1.2)-1*
G04 #@! TF.CreationDate,2019-10-08T15:51:24-07:00*
G04 #@! TF.ProjectId,sputterizer,73707574-7465-4726-997a-65722e6b6963,rev?*
G04 #@! TF.SameCoordinates,Original*
G04 #@! TF.FileFunction,Soldermask,Top*
G04 #@! TF.FilePolarity,Negative*
%FSLAX46Y46*%
G04 Gerber Fmt 4.6, Leading zero omitted, Abs format (unit mm)*
G04 Created by KiCad (PCBNEW (5.1.2)-1) date 2019-10-08 15:51:24*
%MOMM*%
%LPD*%
G04 APERTURE LIST*
%ADD10C,0.100000*%
G04 APERTURE END LIST*
D10*
G36*
X91226823Y-172161313D02*
G01*
X91387242Y-172209976D01*
X91519906Y-172280886D01*
X91535078Y-172288996D01*
X91664659Y-172395341D01*
X91771004Y-172524922D01*
X91771005Y-172524924D01*
X91850024Y-172672758D01*
X91898687Y-172833177D01*
X91915117Y-173000000D01*
X91898687Y-173166823D01*
X91850024Y-173327242D01*
X91779114Y-173459906D01*
X91771004Y-173475078D01*
X91664659Y-173604659D01*
X91535078Y-173711004D01*
X91535076Y-173711005D01*
X91387242Y-173790024D01*
X91226823Y-173838687D01*
X91101804Y-173851000D01*
X91018196Y-173851000D01*
X90893177Y-173838687D01*
X90732758Y-173790024D01*
X90584924Y-173711005D01*
X90584922Y-173711004D01*
X90455341Y-173604659D01*
X90348996Y-173475078D01*
X90340886Y-173459906D01*
X90269976Y-173327242D01*
X90221313Y-173166823D01*
X90204883Y-173000000D01*
X90221313Y-172833177D01*
X90269976Y-172672758D01*
X90348995Y-172524924D01*
X90348996Y-172524922D01*
X90455341Y-172395341D01*
X90584922Y-172288996D01*
X90600094Y-172280886D01*
X90732758Y-172209976D01*
X90893177Y-172161313D01*
X91018196Y-172149000D01*
X91101804Y-172149000D01*
X91226823Y-172161313D01*
X91226823Y-172161313D01*
G37*
G36*
X88686823Y-172161313D02*
G01*
X88847242Y-172209976D01*
X88979906Y-172280886D01*
X88995078Y-172288996D01*
X89124659Y-172395341D01*
X89231004Y-172524922D01*
X89231005Y-172524924D01*
X89310024Y-172672758D01*
X89358687Y-172833177D01*
X89375117Y-173000000D01*
X89358687Y-173166823D01*
X89310024Y-173327242D01*
X89239114Y-173459906D01*
X89231004Y-173475078D01*
X89124659Y-173604659D01*
X88995078Y-173711004D01*
X88995076Y-173711005D01*
X88847242Y-173790024D01*
X88686823Y-173838687D01*
X88561804Y-173851000D01*
X88478196Y-173851000D01*
X88353177Y-173838687D01*
X88192758Y-173790024D01*
X88044924Y-173711005D01*
X88044922Y-173711004D01*
X87915341Y-173604659D01*
X87808996Y-173475078D01*
X87800886Y-173459906D01*
X87729976Y-173327242D01*
X87681313Y-173166823D01*
X87664883Y-173000000D01*
X87681313Y-172833177D01*
X87729976Y-172672758D01*
X87808995Y-172524924D01*
X87808996Y-172524922D01*
X87915341Y-172395341D01*
X88044922Y-172288996D01*
X88060094Y-172280886D01*
X88192758Y-172209976D01*
X88353177Y-172161313D01*
X88478196Y-172149000D01*
X88561804Y-172149000D01*
X88686823Y-172161313D01*
X88686823Y-172161313D01*
G37*
G36*
X63286823Y-172161313D02*
G01*
X63447242Y-172209976D01*
X63579906Y-172280886D01*
X63595078Y-172288996D01*
X63724659Y-172395341D01*
X63831004Y-172524922D01*
X63831005Y-172524924D01*
X63910024Y-172672758D01*
X63958687Y-172833177D01*
X63975117Y-173000000D01*
X63958687Y-173166823D01*
X63910024Y-173327242D01*
X63839114Y-173459906D01*
X63831004Y-173475078D01*
X63724659Y-173604659D01*
X63595078Y-173711004D01*
X63595076Y-173711005D01*
X63447242Y-173790024D01*
X63286823Y-173838687D01*
X63161804Y-173851000D01*
X63078196Y-173851000D01*
X62953177Y-173838687D01*
X62792758Y-173790024D01*
X62644924Y-173711005D01*
X62644922Y-173711004D01*
X62515341Y-173604659D01*
X62408996Y-173475078D01*
X62400886Y-173459906D01*
X62329976Y-173327242D01*
X62281313Y-173166823D01*
X62264883Y-173000000D01*
X62281313Y-172833177D01*
X62329976Y-172672758D01*
X62408995Y-172524924D01*
X62408996Y-172524922D01*
X62515341Y-172395341D01*
X62644922Y-172288996D01*
X62660094Y-172280886D01*
X62792758Y-172209976D01*
X62953177Y-172161313D01*
X63078196Y-172149000D01*
X63161804Y-172149000D01*
X63286823Y-172161313D01*
X63286823Y-172161313D01*
G37*
G36*
X65826823Y-172161313D02*
G01*
X65987242Y-172209976D01*
X66119906Y-172280886D01*
X66135078Y-172288996D01*
X66264659Y-172395341D01*
X66371004Y-172524922D01*
X66371005Y-172524924D01*
X66450024Y-172672758D01*
X66498687Y-172833177D01*
X66515117Y-173000000D01*
X66498687Y-173166823D01*
X66450024Y-173327242D01*
X66379114Y-173459906D01*
X66371004Y-173475078D01*
X66264659Y-173604659D01*
X66135078Y-173711004D01*
X66135076Y-173711005D01*
X65987242Y-173790024D01*
X65826823Y-173838687D01*
X65701804Y-173851000D01*
X65618196Y-173851000D01*
X65493177Y-173838687D01*
X65332758Y-173790024D01*
X65184924Y-173711005D01*
X65184922Y-173711004D01*
X65055341Y-173604659D01*
X64948996Y-173475078D01*
X64940886Y-173459906D01*
X64869976Y-173327242D01*
X64821313Y-173166823D01*
X64804883Y-173000000D01*
X64821313Y-172833177D01*
X64869976Y-172672758D01*
X64948995Y-172524924D01*
X64948996Y-172524922D01*
X65055341Y-172395341D01*
X65184922Y-172288996D01*
X65200094Y-172280886D01*
X65332758Y-172209976D01*
X65493177Y-172161313D01*
X65618196Y-172149000D01*
X65701804Y-172149000D01*
X65826823Y-172161313D01*
X65826823Y-172161313D01*
G37*
G36*
X68366823Y-172161313D02*
G01*
X68527242Y-172209976D01*
X68659906Y-172280886D01*
X68675078Y-172288996D01*
X68804659Y-172395341D01*
X68911004Y-172524922D01*
X68911005Y-172524924D01*
X68990024Y-172672758D01*
X69038687Y-172833177D01*
X69055117Y-173000000D01*
X69038687Y-173166823D01*
X68990024Y-173327242D01*
X68919114Y-173459906D01*
X68911004Y-173475078D01*
X68804659Y-173604659D01*
X68675078Y-173711004D01*
X68675076Y-173711005D01*
X68527242Y-173790024D01*
X68366823Y-173838687D01*
X68241804Y-173851000D01*
X68158196Y-173851000D01*
X68033177Y-173838687D01*
X67872758Y-173790024D01*
X67724924Y-173711005D01*
X67724922Y-173711004D01*
X67595341Y-173604659D01*
X67488996Y-173475078D01*
X67480886Y-173459906D01*
X67409976Y-173327242D01*
X67361313Y-173166823D01*
X67344883Y-173000000D01*
X67361313Y-172833177D01*
X67409976Y-172672758D01*
X67488995Y-172524924D01*
X67488996Y-172524922D01*
X67595341Y-172395341D01*
X67724922Y-172288996D01*
X67740094Y-172280886D01*
X67872758Y-172209976D01*
X68033177Y-172161313D01*
X68158196Y-172149000D01*
X68241804Y-172149000D01*
X68366823Y-172161313D01*
X68366823Y-172161313D01*
G37*
G36*
X70906823Y-172161313D02*
G01*
X71067242Y-172209976D01*
X71199906Y-172280886D01*
X71215078Y-172288996D01*
X71344659Y-172395341D01*
X71451004Y-172524922D01*
X71451005Y-172524924D01*
X71530024Y-172672758D01*
X71578687Y-172833177D01*
X71595117Y-173000000D01*
X71578687Y-173166823D01*
X71530024Y-173327242D01*
X71459114Y-173459906D01*
X71451004Y-173475078D01*
X71344659Y-173604659D01*
X71215078Y-173711004D01*
X71215076Y-173711005D01*
X71067242Y-173790024D01*
X70906823Y-173838687D01*
X70781804Y-173851000D01*
X70698196Y-173851000D01*
X70573177Y-173838687D01*
X70412758Y-173790024D01*
X70264924Y-173711005D01*
X70264922Y-173711004D01*
X70135341Y-173604659D01*
X70028996Y-173475078D01*
X70020886Y-173459906D01*
X69949976Y-173327242D01*
X69901313Y-173166823D01*
X69884883Y-173000000D01*
X69901313Y-172833177D01*
X69949976Y-172672758D01*
X70028995Y-172524924D01*
X70028996Y-172524922D01*
X70135341Y-172395341D01*
X70264922Y-172288996D01*
X70280094Y-172280886D01*
X70412758Y-172209976D01*
X70573177Y-172161313D01*
X70698196Y-172149000D01*
X70781804Y-172149000D01*
X70906823Y-172161313D01*
X70906823Y-172161313D01*
G37*
G36*
X73446823Y-172161313D02*
G01*
X73607242Y-172209976D01*
X73739906Y-172280886D01*
X73755078Y-172288996D01*
X73884659Y-172395341D01*
X73991004Y-172524922D01*
X73991005Y-172524924D01*
X74070024Y-172672758D01*
X74118687Y-172833177D01*
X74135117Y-173000000D01*
X74118687Y-173166823D01*
X74070024Y-173327242D01*
X73999114Y-173459906D01*
X73991004Y-173475078D01*
X73884659Y-173604659D01*
X73755078Y-173711004D01*
X73755076Y-173711005D01*
X73607242Y-173790024D01*
X73446823Y-173838687D01*
X73321804Y-173851000D01*
X73238196Y-173851000D01*
X73113177Y-173838687D01*
X72952758Y-173790024D01*
X72804924Y-173711005D01*
X72804922Y-173711004D01*
X72675341Y-173604659D01*
X72568996Y-173475078D01*
X72560886Y-173459906D01*
X72489976Y-173327242D01*
X72441313Y-173166823D01*
X72424883Y-173000000D01*
X72441313Y-172833177D01*
X72489976Y-172672758D01*
X72568995Y-172524924D01*
X72568996Y-172524922D01*
X72675341Y-172395341D01*
X72804922Y-172288996D01*
X72820094Y-172280886D01*
X72952758Y-172209976D01*
X73113177Y-172161313D01*
X73238196Y-172149000D01*
X73321804Y-172149000D01*
X73446823Y-172161313D01*
X73446823Y-172161313D01*
G37*
G36*
X75986823Y-172161313D02*
G01*
X76147242Y-172209976D01*
X76279906Y-172280886D01*
X76295078Y-172288996D01*
X76424659Y-172395341D01*
X76531004Y-172524922D01*
X76531005Y-172524924D01*
X76610024Y-172672758D01*
X76658687Y-172833177D01*
X76675117Y-173000000D01*
X76658687Y-173166823D01*
X76610024Y-173327242D01*
X76539114Y-173459906D01*
X76531004Y-173475078D01*
X76424659Y-173604659D01*
X76295078Y-173711004D01*
X76295076Y-173711005D01*
X76147242Y-173790024D01*
X75986823Y-173838687D01*
X75861804Y-173851000D01*
X75778196Y-173851000D01*
X75653177Y-173838687D01*
X75492758Y-173790024D01*
X75344924Y-173711005D01*
X75344922Y-173711004D01*
X75215341Y-173604659D01*
X75108996Y-173475078D01*
X75100886Y-173459906D01*
X75029976Y-173327242D01*
X74981313Y-173166823D01*
X74964883Y-173000000D01*
X74981313Y-172833177D01*
X75029976Y-172672758D01*
X75108995Y-172524924D01*
X75108996Y-172524922D01*
X75215341Y-172395341D01*
X75344922Y-172288996D01*
X75360094Y-172280886D01*
X75492758Y-172209976D01*
X75653177Y-172161313D01*
X75778196Y-172149000D01*
X75861804Y-172149000D01*
X75986823Y-172161313D01*
X75986823Y-172161313D01*
G37*
G36*
X78526823Y-172161313D02*
G01*
X78687242Y-172209976D01*
X78819906Y-172280886D01*
X78835078Y-172288996D01*
X78964659Y-172395341D01*
X79071004Y-172524922D01*
X79071005Y-172524924D01*
X79150024Y-172672758D01*
X79198687Y-172833177D01*
X79215117Y-173000000D01*
X79198687Y-173166823D01*
X79150024Y-173327242D01*
X79079114Y-173459906D01*
X79071004Y-173475078D01*
X78964659Y-173604659D01*
X78835078Y-173711004D01*
X78835076Y-173711005D01*
X78687242Y-173790024D01*
X78526823Y-173838687D01*
X78401804Y-173851000D01*
X78318196Y-173851000D01*
X78193177Y-173838687D01*
X78032758Y-173790024D01*
X77884924Y-173711005D01*
X77884922Y-173711004D01*
X77755341Y-173604659D01*
X77648996Y-173475078D01*
X77640886Y-173459906D01*
X77569976Y-173327242D01*
X77521313Y-173166823D01*
X77504883Y-173000000D01*
X77521313Y-172833177D01*
X77569976Y-172672758D01*
X77648995Y-172524924D01*
X77648996Y-172524922D01*
X77755341Y-172395341D01*
X77884922Y-172288996D01*
X77900094Y-172280886D01*
X78032758Y-172209976D01*
X78193177Y-172161313D01*
X78318196Y-172149000D01*
X78401804Y-172149000D01*
X78526823Y-172161313D01*
X78526823Y-172161313D01*
G37*
G36*
X81066823Y-172161313D02*
G01*
X81227242Y-172209976D01*
X81359906Y-172280886D01*
X81375078Y-172288996D01*
X81504659Y-172395341D01*
X81611004Y-172524922D01*
X81611005Y-172524924D01*
X81690024Y-172672758D01*
X81738687Y-172833177D01*
X81755117Y-173000000D01*
X81738687Y-173166823D01*
X81690024Y-173327242D01*
X81619114Y-173459906D01*
X81611004Y-173475078D01*
X81504659Y-173604659D01*
X81375078Y-173711004D01*
X81375076Y-173711005D01*
X81227242Y-173790024D01*
X81066823Y-173838687D01*
X80941804Y-173851000D01*
X80858196Y-173851000D01*
X80733177Y-173838687D01*
X80572758Y-173790024D01*
X80424924Y-173711005D01*
X80424922Y-173711004D01*
X80295341Y-173604659D01*
X80188996Y-173475078D01*
X80180886Y-173459906D01*
X80109976Y-173327242D01*
X80061313Y-173166823D01*
X80044883Y-173000000D01*
X80061313Y-172833177D01*
X80109976Y-172672758D01*
X80188995Y-172524924D01*
X80188996Y-172524922D01*
X80295341Y-172395341D01*
X80424922Y-172288996D01*
X80440094Y-172280886D01*
X80572758Y-172209976D01*
X80733177Y-172161313D01*
X80858196Y-172149000D01*
X80941804Y-172149000D01*
X81066823Y-172161313D01*
X81066823Y-172161313D01*
G37*
G36*
X83606823Y-172161313D02*
G01*
X83767242Y-172209976D01*
X83899906Y-172280886D01*
X83915078Y-172288996D01*
X84044659Y-172395341D01*
X84151004Y-172524922D01*
X84151005Y-172524924D01*
X84230024Y-172672758D01*
X84278687Y-172833177D01*
X84295117Y-173000000D01*
X84278687Y-173166823D01*
X84230024Y-173327242D01*
X84159114Y-173459906D01*
X84151004Y-173475078D01*
X84044659Y-173604659D01*
X83915078Y-173711004D01*
X83915076Y-173711005D01*
X83767242Y-173790024D01*
X83606823Y-173838687D01*
X83481804Y-173851000D01*
X83398196Y-173851000D01*
X83273177Y-173838687D01*
X83112758Y-173790024D01*
X82964924Y-173711005D01*
X82964922Y-173711004D01*
X82835341Y-173604659D01*
X82728996Y-173475078D01*
X82720886Y-173459906D01*
X82649976Y-173327242D01*
X82601313Y-173166823D01*
X82584883Y-173000000D01*
X82601313Y-172833177D01*
X82649976Y-172672758D01*
X82728995Y-172524924D01*
X82728996Y-172524922D01*
X82835341Y-172395341D01*
X82964922Y-172288996D01*
X82980094Y-172280886D01*
X83112758Y-172209976D01*
X83273177Y-172161313D01*
X83398196Y-172149000D01*
X83481804Y-172149000D01*
X83606823Y-172161313D01*
X83606823Y-172161313D01*
G37*
G36*
X86146823Y-172161313D02*
G01*
X86307242Y-172209976D01*
X86439906Y-172280886D01*
X86455078Y-172288996D01*
X86584659Y-172395341D01*
X86691004Y-172524922D01*
X86691005Y-172524924D01*
X86770024Y-172672758D01*
X86818687Y-172833177D01*
X86835117Y-173000000D01*
X86818687Y-173166823D01*
X86770024Y-173327242D01*
X86699114Y-173459906D01*
X86691004Y-173475078D01*
X86584659Y-173604659D01*
X86455078Y-173711004D01*
X86455076Y-173711005D01*
X86307242Y-173790024D01*
X86146823Y-173838687D01*
X86021804Y-173851000D01*
X85938196Y-173851000D01*
X85813177Y-173838687D01*
X85652758Y-173790024D01*
X85504924Y-173711005D01*
X85504922Y-173711004D01*
X85375341Y-173604659D01*
X85268996Y-173475078D01*
X85260886Y-173459906D01*
X85189976Y-173327242D01*
X85141313Y-173166823D01*
X85124883Y-173000000D01*
X85141313Y-172833177D01*
X85189976Y-172672758D01*
X85268995Y-172524924D01*
X85268996Y-172524922D01*
X85375341Y-172395341D01*
X85504922Y-172288996D01*
X85520094Y-172280886D01*
X85652758Y-172209976D01*
X85813177Y-172161313D01*
X85938196Y-172149000D01*
X86021804Y-172149000D01*
X86146823Y-172161313D01*
X86146823Y-172161313D01*
G37*
G36*
X60746823Y-172161313D02*
G01*
X60907242Y-172209976D01*
X61039906Y-172280886D01*
X61055078Y-172288996D01*
X61184659Y-172395341D01*
X61291004Y-172524922D01*
X61291005Y-172524924D01*
X61370024Y-172672758D01*
X61418687Y-172833177D01*
X61435117Y-173000000D01*
X61418687Y-173166823D01*
X61370024Y-173327242D01*
X61299114Y-173459906D01*
X61291004Y-173475078D01*
X61184659Y-173604659D01*
X61055078Y-173711004D01*
X61055076Y-173711005D01*
X60907242Y-173790024D01*
X60746823Y-173838687D01*
X60621804Y-173851000D01*
X60538196Y-173851000D01*
X60413177Y-173838687D01*
X60252758Y-173790024D01*
X60104924Y-173711005D01*
X60104922Y-173711004D01*
X59975341Y-173604659D01*
X59868996Y-173475078D01*
X59860886Y-173459906D01*
X59789976Y-173327242D01*
X59741313Y-173166823D01*
X59724883Y-173000000D01*
X59741313Y-172833177D01*
X59789976Y-172672758D01*
X59868995Y-172524924D01*
X59868996Y-172524922D01*
X59975341Y-172395341D01*
X60104922Y-172288996D01*
X60120094Y-172280886D01*
X60252758Y-172209976D01*
X60413177Y-172161313D01*
X60538196Y-172149000D01*
X60621804Y-172149000D01*
X60746823Y-172161313D01*
X60746823Y-172161313D01*
G37*
G36*
X58206823Y-172161313D02*
G01*
X58367242Y-172209976D01*
X58499906Y-172280886D01*
X58515078Y-172288996D01*
X58644659Y-172395341D01*
X58751004Y-172524922D01*
X58751005Y-172524924D01*
X58830024Y-172672758D01*
X58878687Y-172833177D01*
X58895117Y-173000000D01*
X58878687Y-173166823D01*
X58830024Y-173327242D01*
X58759114Y-173459906D01*
X58751004Y-173475078D01*
X58644659Y-173604659D01*
X58515078Y-173711004D01*
X58515076Y-173711005D01*
X58367242Y-173790024D01*
X58206823Y-173838687D01*
X58081804Y-173851000D01*
X57998196Y-173851000D01*
X57873177Y-173838687D01*
X57712758Y-173790024D01*
X57564924Y-173711005D01*
X57564922Y-173711004D01*
X57435341Y-173604659D01*
X57328996Y-173475078D01*
X57320886Y-173459906D01*
X57249976Y-173327242D01*
X57201313Y-173166823D01*
X57184883Y-173000000D01*
X57201313Y-172833177D01*
X57249976Y-172672758D01*
X57328995Y-172524924D01*
X57328996Y-172524922D01*
X57435341Y-172395341D01*
X57564922Y-172288996D01*
X57580094Y-172280886D01*
X57712758Y-172209976D01*
X57873177Y-172161313D01*
X57998196Y-172149000D01*
X58081804Y-172149000D01*
X58206823Y-172161313D01*
X58206823Y-172161313D01*
G37*
G36*
X56351000Y-173851000D02*
G01*
X54649000Y-173851000D01*
X54649000Y-172149000D01*
X56351000Y-172149000D01*
X56351000Y-173851000D01*
X56351000Y-173851000D01*
G37*
G36*
X81066823Y-156921313D02*
G01*
X81227242Y-156969976D01*
X81359906Y-157040886D01*
X81375078Y-157048996D01*
X81504659Y-157155341D01*
X81611004Y-157284922D01*
X81611005Y-157284924D01*
X81690024Y-157432758D01*
X81738687Y-157593177D01*
X81755117Y-157760000D01*
X81738687Y-157926823D01*
X81690024Y-158087242D01*
X81619114Y-158219906D01*
X81611004Y-158235078D01*
X81504659Y-158364659D01*
X81375078Y-158471004D01*
X81375076Y-158471005D01*
X81227242Y-158550024D01*
X81066823Y-158598687D01*
X80941804Y-158611000D01*
X80858196Y-158611000D01*
X80733177Y-158598687D01*
X80572758Y-158550024D01*
X80424924Y-158471005D01*
X80424922Y-158471004D01*
X80295341Y-158364659D01*
X80188996Y-158235078D01*
X80180886Y-158219906D01*
X80109976Y-158087242D01*
X80061313Y-157926823D01*
X80044883Y-157760000D01*
X80061313Y-157593177D01*
X80109976Y-157432758D01*
X80188995Y-157284924D01*
X80188996Y-157284922D01*
X80295341Y-157155341D01*
X80424922Y-157048996D01*
X80440094Y-157040886D01*
X80572758Y-156969976D01*
X80733177Y-156921313D01*
X80858196Y-156909000D01*
X80941804Y-156909000D01*
X81066823Y-156921313D01*
X81066823Y-156921313D01*
G37*
G36*
X78526823Y-156921313D02*
G01*
X78687242Y-156969976D01*
X78819906Y-157040886D01*
X78835078Y-157048996D01*
X78964659Y-157155341D01*
X79071004Y-157284922D01*
X79071005Y-157284924D01*
X79150024Y-157432758D01*
X79198687Y-157593177D01*
X79215117Y-157760000D01*
X79198687Y-157926823D01*
X79150024Y-158087242D01*
X79079114Y-158219906D01*
X79071004Y-158235078D01*
X78964659Y-158364659D01*
X78835078Y-158471004D01*
X78835076Y-158471005D01*
X78687242Y-158550024D01*
X78526823Y-158598687D01*
X78401804Y-158611000D01*
X78318196Y-158611000D01*
X78193177Y-158598687D01*
X78032758Y-158550024D01*
X77884924Y-158471005D01*
X77884922Y-158471004D01*
X77755341Y-158364659D01*
X77648996Y-158235078D01*
X77640886Y-158219906D01*
X77569976Y-158087242D01*
X77521313Y-157926823D01*
X77504883Y-157760000D01*
X77521313Y-157593177D01*
X77569976Y-157432758D01*
X77648995Y-157284924D01*
X77648996Y-157284922D01*
X77755341Y-157155341D01*
X77884922Y-157048996D01*
X77900094Y-157040886D01*
X78032758Y-156969976D01*
X78193177Y-156921313D01*
X78318196Y-156909000D01*
X78401804Y-156909000D01*
X78526823Y-156921313D01*
X78526823Y-156921313D01*
G37*
G36*
X75986823Y-156921313D02*
G01*
X76147242Y-156969976D01*
X76279906Y-157040886D01*
X76295078Y-157048996D01*
X76424659Y-157155341D01*
X76531004Y-157284922D01*
X76531005Y-157284924D01*
X76610024Y-157432758D01*
X76658687Y-157593177D01*
X76675117Y-157760000D01*
X76658687Y-157926823D01*
X76610024Y-158087242D01*
X76539114Y-158219906D01*
X76531004Y-158235078D01*
X76424659Y-158364659D01*
X76295078Y-158471004D01*
X76295076Y-158471005D01*
X76147242Y-158550024D01*
X75986823Y-158598687D01*
X75861804Y-158611000D01*
X75778196Y-158611000D01*
X75653177Y-158598687D01*
X75492758Y-158550024D01*
X75344924Y-158471005D01*
X75344922Y-158471004D01*
X75215341Y-158364659D01*
X75108996Y-158235078D01*
X75100886Y-158219906D01*
X75029976Y-158087242D01*
X74981313Y-157926823D01*
X74964883Y-157760000D01*
X74981313Y-157593177D01*
X75029976Y-157432758D01*
X75108995Y-157284924D01*
X75108996Y-157284922D01*
X75215341Y-157155341D01*
X75344922Y-157048996D01*
X75360094Y-157040886D01*
X75492758Y-156969976D01*
X75653177Y-156921313D01*
X75778196Y-156909000D01*
X75861804Y-156909000D01*
X75986823Y-156921313D01*
X75986823Y-156921313D01*
G37*
G36*
X73446823Y-156921313D02*
G01*
X73607242Y-156969976D01*
X73739906Y-157040886D01*
X73755078Y-157048996D01*
X73884659Y-157155341D01*
X73991004Y-157284922D01*
X73991005Y-157284924D01*
X74070024Y-157432758D01*
X74118687Y-157593177D01*
X74135117Y-157760000D01*
X74118687Y-157926823D01*
X74070024Y-158087242D01*
X73999114Y-158219906D01*
X73991004Y-158235078D01*
X73884659Y-158364659D01*
X73755078Y-158471004D01*
X73755076Y-158471005D01*
X73607242Y-158550024D01*
X73446823Y-158598687D01*
X73321804Y-158611000D01*
X73238196Y-158611000D01*
X73113177Y-158598687D01*
X72952758Y-158550024D01*
X72804924Y-158471005D01*
X72804922Y-158471004D01*
X72675341Y-158364659D01*
X72568996Y-158235078D01*
X72560886Y-158219906D01*
X72489976Y-158087242D01*
X72441313Y-157926823D01*
X72424883Y-157760000D01*
X72441313Y-157593177D01*
X72489976Y-157432758D01*
X72568995Y-157284924D01*
X72568996Y-157284922D01*
X72675341Y-157155341D01*
X72804922Y-157048996D01*
X72820094Y-157040886D01*
X72952758Y-156969976D01*
X73113177Y-156921313D01*
X73238196Y-156909000D01*
X73321804Y-156909000D01*
X73446823Y-156921313D01*
X73446823Y-156921313D01*
G37*
G36*
X70906823Y-156921313D02*
G01*
X71067242Y-156969976D01*
X71199906Y-157040886D01*
X71215078Y-157048996D01*
X71344659Y-157155341D01*
X71451004Y-157284922D01*
X71451005Y-157284924D01*
X71530024Y-157432758D01*
X71578687Y-157593177D01*
X71595117Y-157760000D01*
X71578687Y-157926823D01*
X71530024Y-158087242D01*
X71459114Y-158219906D01*
X71451004Y-158235078D01*
X71344659Y-158364659D01*
X71215078Y-158471004D01*
X71215076Y-158471005D01*
X71067242Y-158550024D01*
X70906823Y-158598687D01*
X70781804Y-158611000D01*
X70698196Y-158611000D01*
X70573177Y-158598687D01*
X70412758Y-158550024D01*
X70264924Y-158471005D01*
X70264922Y-158471004D01*
X70135341Y-158364659D01*
X70028996Y-158235078D01*
X70020886Y-158219906D01*
X69949976Y-158087242D01*
X69901313Y-157926823D01*
X69884883Y-157760000D01*
X69901313Y-157593177D01*
X69949976Y-157432758D01*
X70028995Y-157284924D01*
X70028996Y-157284922D01*
X70135341Y-157155341D01*
X70264922Y-157048996D01*
X70280094Y-157040886D01*
X70412758Y-156969976D01*
X70573177Y-156921313D01*
X70698196Y-156909000D01*
X70781804Y-156909000D01*
X70906823Y-156921313D01*
X70906823Y-156921313D01*
G37*
G36*
X68366823Y-156921313D02*
G01*
X68527242Y-156969976D01*
X68659906Y-157040886D01*
X68675078Y-157048996D01*
X68804659Y-157155341D01*
X68911004Y-157284922D01*
X68911005Y-157284924D01*
X68990024Y-157432758D01*
X69038687Y-157593177D01*
X69055117Y-157760000D01*
X69038687Y-157926823D01*
X68990024Y-158087242D01*
X68919114Y-158219906D01*
X68911004Y-158235078D01*
X68804659Y-158364659D01*
X68675078Y-158471004D01*
X68675076Y-158471005D01*
X68527242Y-158550024D01*
X68366823Y-158598687D01*
X68241804Y-158611000D01*
X68158196Y-158611000D01*
X68033177Y-158598687D01*
X67872758Y-158550024D01*
X67724924Y-158471005D01*
X67724922Y-158471004D01*
X67595341Y-158364659D01*
X67488996Y-158235078D01*
X67480886Y-158219906D01*
X67409976Y-158087242D01*
X67361313Y-157926823D01*
X67344883Y-157760000D01*
X67361313Y-157593177D01*
X67409976Y-157432758D01*
X67488995Y-157284924D01*
X67488996Y-157284922D01*
X67595341Y-157155341D01*
X67724922Y-157048996D01*
X67740094Y-157040886D01*
X67872758Y-156969976D01*
X68033177Y-156921313D01*
X68158196Y-156909000D01*
X68241804Y-156909000D01*
X68366823Y-156921313D01*
X68366823Y-156921313D01*
G37*
G36*
X65826823Y-156921313D02*
G01*
X65987242Y-156969976D01*
X66119906Y-157040886D01*
X66135078Y-157048996D01*
X66264659Y-157155341D01*
X66371004Y-157284922D01*
X66371005Y-157284924D01*
X66450024Y-157432758D01*
X66498687Y-157593177D01*
X66515117Y-157760000D01*
X66498687Y-157926823D01*
X66450024Y-158087242D01*
X66379114Y-158219906D01*
X66371004Y-158235078D01*
X66264659Y-158364659D01*
X66135078Y-158471004D01*
X66135076Y-158471005D01*
X65987242Y-158550024D01*
X65826823Y-158598687D01*
X65701804Y-158611000D01*
X65618196Y-158611000D01*
X65493177Y-158598687D01*
X65332758Y-158550024D01*
X65184924Y-158471005D01*
X65184922Y-158471004D01*
X65055341Y-158364659D01*
X64948996Y-158235078D01*
X64940886Y-158219906D01*
X64869976Y-158087242D01*
X64821313Y-157926823D01*
X64804883Y-157760000D01*
X64821313Y-157593177D01*
X64869976Y-157432758D01*
X64948995Y-157284924D01*
X64948996Y-157284922D01*
X65055341Y-157155341D01*
X65184922Y-157048996D01*
X65200094Y-157040886D01*
X65332758Y-156969976D01*
X65493177Y-156921313D01*
X65618196Y-156909000D01*
X65701804Y-156909000D01*
X65826823Y-156921313D01*
X65826823Y-156921313D01*
G37*
G36*
X63286823Y-156921313D02*
G01*
X63447242Y-156969976D01*
X63579906Y-157040886D01*
X63595078Y-157048996D01*
X63724659Y-157155341D01*
X63831004Y-157284922D01*
X63831005Y-157284924D01*
X63910024Y-157432758D01*
X63958687Y-157593177D01*
X63975117Y-157760000D01*
X63958687Y-157926823D01*
X63910024Y-158087242D01*
X63839114Y-158219906D01*
X63831004Y-158235078D01*
X63724659Y-158364659D01*
X63595078Y-158471004D01*
X63595076Y-158471005D01*
X63447242Y-158550024D01*
X63286823Y-158598687D01*
X63161804Y-158611000D01*
X63078196Y-158611000D01*
X62953177Y-158598687D01*
X62792758Y-158550024D01*
X62644924Y-158471005D01*
X62644922Y-158471004D01*
X62515341Y-158364659D01*
X62408996Y-158235078D01*
X62400886Y-158219906D01*
X62329976Y-158087242D01*
X62281313Y-157926823D01*
X62264883Y-157760000D01*
X62281313Y-157593177D01*
X62329976Y-157432758D01*
X62408995Y-157284924D01*
X62408996Y-157284922D01*
X62515341Y-157155341D01*
X62644922Y-157048996D01*
X62660094Y-157040886D01*
X62792758Y-156969976D01*
X62953177Y-156921313D01*
X63078196Y-156909000D01*
X63161804Y-156909000D01*
X63286823Y-156921313D01*
X63286823Y-156921313D01*
G37*
G36*
X60746823Y-156921313D02*
G01*
X60907242Y-156969976D01*
X61039906Y-157040886D01*
X61055078Y-157048996D01*
X61184659Y-157155341D01*
X61291004Y-157284922D01*
X61291005Y-157284924D01*
X61370024Y-157432758D01*
X61418687Y-157593177D01*
X61435117Y-157760000D01*
X61418687Y-157926823D01*
X61370024Y-158087242D01*
X61299114Y-158219906D01*
X61291004Y-158235078D01*
X61184659Y-158364659D01*
X61055078Y-158471004D01*
X61055076Y-158471005D01*
X60907242Y-158550024D01*
X60746823Y-158598687D01*
X60621804Y-158611000D01*
X60538196Y-158611000D01*
X60413177Y-158598687D01*
X60252758Y-158550024D01*
X60104924Y-158471005D01*
X60104922Y-158471004D01*
X59975341Y-158364659D01*
X59868996Y-158235078D01*
X59860886Y-158219906D01*
X59789976Y-158087242D01*
X59741313Y-157926823D01*
X59724883Y-157760000D01*
X59741313Y-157593177D01*
X59789976Y-157432758D01*
X59868995Y-157284924D01*
X59868996Y-157284922D01*
X59975341Y-157155341D01*
X60104922Y-157048996D01*
X60120094Y-157040886D01*
X60252758Y-156969976D01*
X60413177Y-156921313D01*
X60538196Y-156909000D01*
X60621804Y-156909000D01*
X60746823Y-156921313D01*
X60746823Y-156921313D01*
G37*
G36*
X58206823Y-156921313D02*
G01*
X58367242Y-156969976D01*
X58499906Y-157040886D01*
X58515078Y-157048996D01*
X58644659Y-157155341D01*
X58751004Y-157284922D01*
X58751005Y-157284924D01*
X58830024Y-157432758D01*
X58878687Y-157593177D01*
X58895117Y-157760000D01*
X58878687Y-157926823D01*
X58830024Y-158087242D01*
X58759114Y-158219906D01*
X58751004Y-158235078D01*
X58644659Y-158364659D01*
X58515078Y-158471004D01*
X58515076Y-158471005D01*
X58367242Y-158550024D01*
X58206823Y-158598687D01*
X58081804Y-158611000D01*
X57998196Y-158611000D01*
X57873177Y-158598687D01*
X57712758Y-158550024D01*
X57564924Y-158471005D01*
X57564922Y-158471004D01*
X57435341Y-158364659D01*
X57328996Y-158235078D01*
X57320886Y-158219906D01*
X57249976Y-158087242D01*
X57201313Y-157926823D01*
X57184883Y-157760000D01*
X57201313Y-157593177D01*
X57249976Y-157432758D01*
X57328995Y-157284924D01*
X57328996Y-157284922D01*
X57435341Y-157155341D01*
X57564922Y-157048996D01*
X57580094Y-157040886D01*
X57712758Y-156969976D01*
X57873177Y-156921313D01*
X57998196Y-156909000D01*
X58081804Y-156909000D01*
X58206823Y-156921313D01*
X58206823Y-156921313D01*
G37*
G36*
X83606823Y-156921313D02*
G01*
X83767242Y-156969976D01*
X83899906Y-157040886D01*
X83915078Y-157048996D01*
X84044659Y-157155341D01*
X84151004Y-157284922D01*
X84151005Y-157284924D01*
X84230024Y-157432758D01*
X84278687Y-157593177D01*
X84295117Y-157760000D01*
X84278687Y-157926823D01*
X84230024Y-158087242D01*
X84159114Y-158219906D01*
X84151004Y-158235078D01*
X84044659Y-158364659D01*
X83915078Y-158471004D01*
X83915076Y-158471005D01*
X83767242Y-158550024D01*
X83606823Y-158598687D01*
X83481804Y-158611000D01*
X83398196Y-158611000D01*
X83273177Y-158598687D01*
X83112758Y-158550024D01*
X82964924Y-158471005D01*
X82964922Y-158471004D01*
X82835341Y-158364659D01*
X82728996Y-158235078D01*
X82720886Y-158219906D01*
X82649976Y-158087242D01*
X82601313Y-157926823D01*
X82584883Y-157760000D01*
X82601313Y-157593177D01*
X82649976Y-157432758D01*
X82728995Y-157284924D01*
X82728996Y-157284922D01*
X82835341Y-157155341D01*
X82964922Y-157048996D01*
X82980094Y-157040886D01*
X83112758Y-156969976D01*
X83273177Y-156921313D01*
X83398196Y-156909000D01*
X83481804Y-156909000D01*
X83606823Y-156921313D01*
X83606823Y-156921313D01*
G37*
G36*
X55666823Y-156921313D02*
G01*
X55827242Y-156969976D01*
X55959906Y-157040886D01*
X55975078Y-157048996D01*
X56104659Y-157155341D01*
X56211004Y-157284922D01*
X56211005Y-157284924D01*
X56290024Y-157432758D01*
X56338687Y-157593177D01*
X56355117Y-157760000D01*
X56338687Y-157926823D01*
X56290024Y-158087242D01*
X56219114Y-158219906D01*
X56211004Y-158235078D01*
X56104659Y-158364659D01*
X55975078Y-158471004D01*
X55975076Y-158471005D01*
X55827242Y-158550024D01*
X55666823Y-158598687D01*
X55541804Y-158611000D01*
X55458196Y-158611000D01*
X55333177Y-158598687D01*
X55172758Y-158550024D01*
X55024924Y-158471005D01*
X55024922Y-158471004D01*
X54895341Y-158364659D01*
X54788996Y-158235078D01*
X54780886Y-158219906D01*
X54709976Y-158087242D01*
X54661313Y-157926823D01*
X54644883Y-157760000D01*
X54661313Y-157593177D01*
X54709976Y-157432758D01*
X54788995Y-157284924D01*
X54788996Y-157284922D01*
X54895341Y-157155341D01*
X55024922Y-157048996D01*
X55040094Y-157040886D01*
X55172758Y-156969976D01*
X55333177Y-156921313D01*
X55458196Y-156909000D01*
X55541804Y-156909000D01*
X55666823Y-156921313D01*
X55666823Y-156921313D01*
G37*
G36*
X91226823Y-156921313D02*
G01*
X91387242Y-156969976D01*
X91519906Y-157040886D01*
X91535078Y-157048996D01*
X91664659Y-157155341D01*
X91771004Y-157284922D01*
X91771005Y-157284924D01*
X91850024Y-157432758D01*
X91898687Y-157593177D01*
X91915117Y-157760000D01*
X91898687Y-157926823D01*
X91850024Y-158087242D01*
X91779114Y-158219906D01*
X91771004Y-158235078D01*
X91664659Y-158364659D01*
X91535078Y-158471004D01*
X91535076Y-158471005D01*
X91387242Y-158550024D01*
X91226823Y-158598687D01*
X91101804Y-158611000D01*
X91018196Y-158611000D01*
X90893177Y-158598687D01*
X90732758Y-158550024D01*
X90584924Y-158471005D01*
X90584922Y-158471004D01*
X90455341Y-158364659D01*
X90348996Y-158235078D01*
X90340886Y-158219906D01*
X90269976Y-158087242D01*
X90221313Y-157926823D01*
X90204883Y-157760000D01*
X90221313Y-157593177D01*
X90269976Y-157432758D01*
X90348995Y-157284924D01*
X90348996Y-157284922D01*
X90455341Y-157155341D01*
X90584922Y-157048996D01*
X90600094Y-157040886D01*
X90732758Y-156969976D01*
X90893177Y-156921313D01*
X91018196Y-156909000D01*
X91101804Y-156909000D01*
X91226823Y-156921313D01*
X91226823Y-156921313D01*
G37*
G36*
X88686823Y-156921313D02*
G01*
X88847242Y-156969976D01*
X88979906Y-157040886D01*
X88995078Y-157048996D01*
X89124659Y-157155341D01*
X89231004Y-157284922D01*
X89231005Y-157284924D01*
X89310024Y-157432758D01*
X89358687Y-157593177D01*
X89375117Y-157760000D01*
X89358687Y-157926823D01*
X89310024Y-158087242D01*
X89239114Y-158219906D01*
X89231004Y-158235078D01*
X89124659Y-158364659D01*
X88995078Y-158471004D01*
X88995076Y-158471005D01*
X88847242Y-158550024D01*
X88686823Y-158598687D01*
X88561804Y-158611000D01*
X88478196Y-158611000D01*
X88353177Y-158598687D01*
X88192758Y-158550024D01*
X88044924Y-158471005D01*
X88044922Y-158471004D01*
X87915341Y-158364659D01*
X87808996Y-158235078D01*
X87800886Y-158219906D01*
X87729976Y-158087242D01*
X87681313Y-157926823D01*
X87664883Y-157760000D01*
X87681313Y-157593177D01*
X87729976Y-157432758D01*
X87808995Y-157284924D01*
X87808996Y-157284922D01*
X87915341Y-157155341D01*
X88044922Y-157048996D01*
X88060094Y-157040886D01*
X88192758Y-156969976D01*
X88353177Y-156921313D01*
X88478196Y-156909000D01*
X88561804Y-156909000D01*
X88686823Y-156921313D01*
X88686823Y-156921313D01*
G37*
G36*
X86146823Y-156921313D02*
G01*
X86307242Y-156969976D01*
X86439906Y-157040886D01*
X86455078Y-157048996D01*
X86584659Y-157155341D01*
X86691004Y-157284922D01*
X86691005Y-157284924D01*
X86770024Y-157432758D01*
X86818687Y-157593177D01*
X86835117Y-157760000D01*
X86818687Y-157926823D01*
X86770024Y-158087242D01*
X86699114Y-158219906D01*
X86691004Y-158235078D01*
X86584659Y-158364659D01*
X86455078Y-158471004D01*
X86455076Y-158471005D01*
X86307242Y-158550024D01*
X86146823Y-158598687D01*
X86021804Y-158611000D01*
X85938196Y-158611000D01*
X85813177Y-158598687D01*
X85652758Y-158550024D01*
X85504924Y-158471005D01*
X85504922Y-158471004D01*
X85375341Y-158364659D01*
X85268996Y-158235078D01*
X85260886Y-158219906D01*
X85189976Y-158087242D01*
X85141313Y-157926823D01*
X85124883Y-157760000D01*
X85141313Y-157593177D01*
X85189976Y-157432758D01*
X85268995Y-157284924D01*
X85268996Y-157284922D01*
X85375341Y-157155341D01*
X85504922Y-157048996D01*
X85520094Y-157040886D01*
X85652758Y-156969976D01*
X85813177Y-156921313D01*
X85938196Y-156909000D01*
X86021804Y-156909000D01*
X86146823Y-156921313D01*
X86146823Y-156921313D01*
G37*
G36*
X53570443Y-153355519D02*
G01*
X53636627Y-153362037D01*
X53806466Y-153413557D01*
X53962991Y-153497222D01*
X53998729Y-153526552D01*
X54100186Y-153609814D01*
X54183448Y-153711271D01*
X54212778Y-153747009D01*
X54296443Y-153903534D01*
X54347963Y-154073373D01*
X54365359Y-154250000D01*
X54347963Y-154426627D01*
X54296443Y-154596466D01*
X54212778Y-154752991D01*
X54183448Y-154788729D01*
X54100186Y-154890186D01*
X53998729Y-154973448D01*
X53962991Y-155002778D01*
X53806466Y-155086443D01*
X53636627Y-155137963D01*
X53570442Y-155144482D01*
X53504260Y-155151000D01*
X53415740Y-155151000D01*
X53349558Y-155144482D01*
X53283373Y-155137963D01*
X53113534Y-155086443D01*
X52957009Y-155002778D01*
X52921271Y-154973448D01*
X52819814Y-154890186D01*
X52736552Y-154788729D01*
X52707222Y-154752991D01*
X52623557Y-154596466D01*
X52572037Y-154426627D01*
X52554641Y-154250000D01*
X52572037Y-154073373D01*
X52623557Y-153903534D01*
X52707222Y-153747009D01*
X52736552Y-153711271D01*
X52819814Y-153609814D01*
X52921271Y-153526552D01*
X52957009Y-153497222D01*
X53113534Y-153413557D01*
X53283373Y-153362037D01*
X53349557Y-153355519D01*
X53415740Y-153349000D01*
X53504260Y-153349000D01*
X53570443Y-153355519D01*
X53570443Y-153355519D01*
G37*
G36*
X56901000Y-155151000D02*
G01*
X55099000Y-155151000D01*
X55099000Y-153349000D01*
X56901000Y-153349000D01*
X56901000Y-155151000D01*
X56901000Y-155151000D01*
G37*
G36*
X68248228Y-152681703D02*
G01*
X68403100Y-152745853D01*
X68542481Y-152838985D01*
X68661015Y-152957519D01*
X68754147Y-153096900D01*
X68818297Y-153251772D01*
X68851000Y-153416184D01*
X68851000Y-153583816D01*
X68818297Y-153748228D01*
X68754147Y-153903100D01*
X68661015Y-154042481D01*
X68542481Y-154161015D01*
X68403100Y-154254147D01*
X68248228Y-154318297D01*
X68083816Y-154351000D01*
X67916184Y-154351000D01*
X67751772Y-154318297D01*
X67596900Y-154254147D01*
X67457519Y-154161015D01*
X67338985Y-154042481D01*
X67245853Y-153903100D01*
X67181703Y-153748228D01*
X67149000Y-153583816D01*
X67149000Y-153416184D01*
X67181703Y-153251772D01*
X67245853Y-153096900D01*
X67338985Y-152957519D01*
X67457519Y-152838985D01*
X67596900Y-152745853D01*
X67751772Y-152681703D01*
X67916184Y-152649000D01*
X68083816Y-152649000D01*
X68248228Y-152681703D01*
X68248228Y-152681703D01*
G37*
G36*
X63248228Y-152681703D02*
G01*
X63403100Y-152745853D01*
X63542481Y-152838985D01*
X63661015Y-152957519D01*
X63754147Y-153096900D01*
X63818297Y-153251772D01*
X63851000Y-153416184D01*
X63851000Y-153583816D01*
X63818297Y-153748228D01*
X63754147Y-153903100D01*
X63661015Y-154042481D01*
X63542481Y-154161015D01*
X63403100Y-154254147D01*
X63248228Y-154318297D01*
X63083816Y-154351000D01*
X62916184Y-154351000D01*
X62751772Y-154318297D01*
X62596900Y-154254147D01*
X62457519Y-154161015D01*
X62338985Y-154042481D01*
X62245853Y-153903100D01*
X62181703Y-153748228D01*
X62149000Y-153583816D01*
X62149000Y-153416184D01*
X62181703Y-153251772D01*
X62245853Y-153096900D01*
X62338985Y-152957519D01*
X62457519Y-152838985D01*
X62596900Y-152745853D01*
X62751772Y-152681703D01*
X62916184Y-152649000D01*
X63083816Y-152649000D01*
X63248228Y-152681703D01*
X63248228Y-152681703D01*
G37*
G36*
X89701000Y-153951000D02*
G01*
X87799000Y-153951000D01*
X87799000Y-152049000D01*
X89701000Y-152049000D01*
X89701000Y-153951000D01*
X89701000Y-153951000D01*
G37*
G36*
X74842916Y-151207334D02*
G01*
X74951492Y-151240271D01*
X74951495Y-151240272D01*
X74987601Y-151259571D01*
X75051557Y-151293756D01*
X75139264Y-151365736D01*
X75202383Y-151442646D01*
X75219702Y-151459965D01*
X75240077Y-151473579D01*
X75262716Y-151482957D01*
X75286749Y-151487737D01*
X75311253Y-151487737D01*
X75335286Y-151482957D01*
X75357925Y-151473579D01*
X75378299Y-151459966D01*
X75395626Y-151442639D01*
X75409240Y-151422264D01*
X75418618Y-151399625D01*
X75423398Y-151375592D01*
X75424000Y-151363340D01*
X75424000Y-151199000D01*
X76576000Y-151199000D01*
X76576000Y-152801000D01*
X75424000Y-152801000D01*
X75424000Y-152636660D01*
X75421598Y-152612274D01*
X75414485Y-152588825D01*
X75402934Y-152567214D01*
X75387389Y-152548272D01*
X75368447Y-152532727D01*
X75346836Y-152521176D01*
X75323387Y-152514063D01*
X75299001Y-152511661D01*
X75274615Y-152514063D01*
X75251166Y-152521176D01*
X75229555Y-152532727D01*
X75202381Y-152557356D01*
X75139264Y-152634264D01*
X75051556Y-152706244D01*
X74987600Y-152740429D01*
X74951494Y-152759728D01*
X74951491Y-152759729D01*
X74842915Y-152792666D01*
X74730000Y-152803787D01*
X74617084Y-152792666D01*
X74508508Y-152759729D01*
X74508505Y-152759728D01*
X74472399Y-152740429D01*
X74408443Y-152706244D01*
X74320736Y-152634264D01*
X74248756Y-152546556D01*
X74205239Y-152465140D01*
X74191625Y-152444766D01*
X74174298Y-152427439D01*
X74153924Y-152413825D01*
X74131285Y-152404448D01*
X74107251Y-152399668D01*
X74082747Y-152399668D01*
X74058714Y-152404449D01*
X74036075Y-152413826D01*
X74015701Y-152427440D01*
X73998374Y-152444767D01*
X73984762Y-152465140D01*
X73941244Y-152546557D01*
X73869264Y-152634264D01*
X73781556Y-152706244D01*
X73717600Y-152740429D01*
X73681494Y-152759728D01*
X73681491Y-152759729D01*
X73572915Y-152792666D01*
X73460000Y-152803787D01*
X73347084Y-152792666D01*
X73238508Y-152759729D01*
X73238505Y-152759728D01*
X73202399Y-152740429D01*
X73138443Y-152706244D01*
X73050736Y-152634264D01*
X72978756Y-152546556D01*
X72935239Y-152465140D01*
X72925272Y-152446494D01*
X72919492Y-152427440D01*
X72892334Y-152337915D01*
X72884000Y-152253297D01*
X72884000Y-151746702D01*
X72892334Y-151662084D01*
X72925271Y-151553508D01*
X72925272Y-151553505D01*
X72978756Y-151453445D01*
X72978757Y-151453443D01*
X73050737Y-151365736D01*
X73138444Y-151293756D01*
X73202400Y-151259571D01*
X73238506Y-151240272D01*
X73238509Y-151240271D01*
X73347085Y-151207334D01*
X73460000Y-151196213D01*
X73572916Y-151207334D01*
X73681492Y-151240271D01*
X73681495Y-151240272D01*
X73717601Y-151259571D01*
X73781557Y-151293756D01*
X73869264Y-151365736D01*
X73941244Y-151453443D01*
X73957019Y-151482957D01*
X73984761Y-151534859D01*
X73998375Y-151555234D01*
X74015702Y-151572561D01*
X74036076Y-151586174D01*
X74058715Y-151595552D01*
X74082748Y-151600332D01*
X74107252Y-151600332D01*
X74131285Y-151595552D01*
X74153924Y-151586174D01*
X74174299Y-151572560D01*
X74191626Y-151555233D01*
X74205239Y-151534859D01*
X74248756Y-151453445D01*
X74248757Y-151453443D01*
X74320737Y-151365736D01*
X74408444Y-151293756D01*
X74472400Y-151259571D01*
X74508506Y-151240272D01*
X74508509Y-151240271D01*
X74617085Y-151207334D01*
X74730000Y-151196213D01*
X74842916Y-151207334D01*
X74842916Y-151207334D01*
G37*
G36*
X89027395Y-149545546D02*
G01*
X89200466Y-149617234D01*
X89200467Y-149617235D01*
X89356227Y-149721310D01*
X89488690Y-149853773D01*
X89488691Y-149853775D01*
X89592766Y-150009534D01*
X89664454Y-150182605D01*
X89701000Y-150366333D01*
X89701000Y-150553667D01*
X89664454Y-150737395D01*
X89592766Y-150910466D01*
X89592765Y-150910467D01*
X89488690Y-151066227D01*
X89356227Y-151198690D01*
X89293996Y-151240271D01*
X89200466Y-151302766D01*
X89027395Y-151374454D01*
X88843667Y-151411000D01*
X88656333Y-151411000D01*
X88472605Y-151374454D01*
X88299534Y-151302766D01*
X88206004Y-151240271D01*
X88143773Y-151198690D01*
X88011310Y-151066227D01*
X87907235Y-150910467D01*
X87907234Y-150910466D01*
X87835546Y-150737395D01*
X87799000Y-150553667D01*
X87799000Y-150366333D01*
X87835546Y-150182605D01*
X87907234Y-150009534D01*
X88011309Y-149853775D01*
X88011310Y-149853773D01*
X88143773Y-149721310D01*
X88299533Y-149617235D01*
X88299534Y-149617234D01*
X88472605Y-149545546D01*
X88656333Y-149509000D01*
X88843667Y-149509000D01*
X89027395Y-149545546D01*
X89027395Y-149545546D01*
G37*
G36*
X77248228Y-146181703D02*
G01*
X77403100Y-146245853D01*
X77542481Y-146338985D01*
X77661015Y-146457519D01*
X77754147Y-146596900D01*
X77818297Y-146751772D01*
X77851000Y-146916184D01*
X77851000Y-147083816D01*
X77818297Y-147248228D01*
X77754147Y-147403100D01*
X77661015Y-147542481D01*
X77542481Y-147661015D01*
X77403100Y-147754147D01*
X77248228Y-147818297D01*
X77083816Y-147851000D01*
X76916184Y-147851000D01*
X76751772Y-147818297D01*
X76596900Y-147754147D01*
X76457519Y-147661015D01*
X76338985Y-147542481D01*
X76245853Y-147403100D01*
X76181703Y-147248228D01*
X76149000Y-147083816D01*
X76149000Y-146916184D01*
X76181703Y-146751772D01*
X76245853Y-146596900D01*
X76338985Y-146457519D01*
X76457519Y-146338985D01*
X76596900Y-146245853D01*
X76751772Y-146181703D01*
X76916184Y-146149000D01*
X77083816Y-146149000D01*
X77248228Y-146181703D01*
X77248228Y-146181703D01*
G37*
G36*
X67006823Y-146161313D02*
G01*
X67167242Y-146209976D01*
X67234361Y-146245852D01*
X67315078Y-146288996D01*
X67444659Y-146395341D01*
X67551004Y-146524922D01*
X67551005Y-146524924D01*
X67630024Y-146672758D01*
X67678687Y-146833177D01*
X67695117Y-147000000D01*
X67678687Y-147166823D01*
X67630024Y-147327242D01*
X67589477Y-147403100D01*
X67551004Y-147475078D01*
X67444659Y-147604659D01*
X67315078Y-147711004D01*
X67315076Y-147711005D01*
X67167242Y-147790024D01*
X67006823Y-147838687D01*
X66881804Y-147851000D01*
X66798196Y-147851000D01*
X66673177Y-147838687D01*
X66512758Y-147790024D01*
X66364924Y-147711005D01*
X66364922Y-147711004D01*
X66235341Y-147604659D01*
X66128996Y-147475078D01*
X66090523Y-147403100D01*
X66049976Y-147327242D01*
X66001313Y-147166823D01*
X65984883Y-147000000D01*
X66001313Y-146833177D01*
X66049976Y-146672758D01*
X66128995Y-146524924D01*
X66128996Y-146524922D01*
X66235341Y-146395341D01*
X66364922Y-146288996D01*
X66445639Y-146245852D01*
X66512758Y-146209976D01*
X66673177Y-146161313D01*
X66798196Y-146149000D01*
X66881804Y-146149000D01*
X67006823Y-146161313D01*
X67006823Y-146161313D01*
G37*
G36*
X93423241Y-141604760D02*
G01*
X93687305Y-141714139D01*
X93924958Y-141872934D01*
X94127066Y-142075042D01*
X94285861Y-142312695D01*
X94395240Y-142576759D01*
X94451000Y-142857088D01*
X94451000Y-143142912D01*
X94395240Y-143423241D01*
X94285861Y-143687305D01*
X94127066Y-143924958D01*
X93924958Y-144127066D01*
X93687305Y-144285861D01*
X93423241Y-144395240D01*
X93142912Y-144451000D01*
X92857088Y-144451000D01*
X92576759Y-144395240D01*
X92312695Y-144285861D01*
X92075042Y-144127066D01*
X92028535Y-144080559D01*
X92009593Y-144065014D01*
X91987982Y-144053463D01*
X91964533Y-144046350D01*
X91940147Y-144043948D01*
X91915761Y-144046350D01*
X91892312Y-144053463D01*
X91870701Y-144065014D01*
X91851759Y-144080559D01*
X91836214Y-144099501D01*
X91824663Y-144121112D01*
X91817550Y-144144561D01*
X91815148Y-144168947D01*
X91817550Y-144193333D01*
X91824663Y-144216782D01*
X91836214Y-144238393D01*
X91885861Y-144312695D01*
X91995240Y-144576759D01*
X92051000Y-144857088D01*
X92051000Y-145142912D01*
X91995240Y-145423241D01*
X91885861Y-145687305D01*
X91727066Y-145924958D01*
X91524958Y-146127066D01*
X91287305Y-146285861D01*
X91023241Y-146395240D01*
X90742912Y-146451000D01*
X90457088Y-146451000D01*
X90176759Y-146395240D01*
X89912695Y-146285861D01*
X89675042Y-146127066D01*
X89472934Y-145924958D01*
X89314139Y-145687305D01*
X89204760Y-145423241D01*
X89149000Y-145142912D01*
X89149000Y-144857088D01*
X89204760Y-144576759D01*
X89314139Y-144312695D01*
X89472934Y-144075042D01*
X89675042Y-143872934D01*
X89912695Y-143714139D01*
X90176759Y-143604760D01*
X90457088Y-143549000D01*
X90742912Y-143549000D01*
X91023241Y-143604760D01*
X91287305Y-143714139D01*
X91524958Y-143872934D01*
X91571465Y-143919441D01*
X91590407Y-143934986D01*
X91612018Y-143946537D01*
X91635467Y-143953650D01*
X91659853Y-143956052D01*
X91684239Y-143953650D01*
X91707688Y-143946537D01*
X91729299Y-143934986D01*
X91748241Y-143919441D01*
X91763786Y-143900499D01*
X91775337Y-143878888D01*
X91782450Y-143855439D01*
X91784852Y-143831053D01*
X91782450Y-143806667D01*
X91775337Y-143783218D01*
X91763786Y-143761607D01*
X91714139Y-143687305D01*
X91604760Y-143423241D01*
X91549000Y-143142912D01*
X91549000Y-142857088D01*
X91604760Y-142576759D01*
X91714139Y-142312695D01*
X91872934Y-142075042D01*
X92075042Y-141872934D01*
X92312695Y-141714139D01*
X92576759Y-141604760D01*
X92857088Y-141549000D01*
X93142912Y-141549000D01*
X93423241Y-141604760D01*
X93423241Y-141604760D01*
G37*
G36*
X85523241Y-143604760D02*
G01*
X85787305Y-143714139D01*
X86024958Y-143872934D01*
X86227066Y-144075042D01*
X86385861Y-144312695D01*
X86495240Y-144576759D01*
X86551000Y-144857088D01*
X86551000Y-145142912D01*
X86495240Y-145423241D01*
X86385861Y-145687305D01*
X86227066Y-145924958D01*
X86024958Y-146127066D01*
X85787305Y-146285861D01*
X85523241Y-146395240D01*
X85242912Y-146451000D01*
X84957088Y-146451000D01*
X84676759Y-146395240D01*
X84412695Y-146285861D01*
X84175042Y-146127066D01*
X83972934Y-145924958D01*
X83814139Y-145687305D01*
X83704760Y-145423241D01*
X83649000Y-145142912D01*
X83649000Y-144857088D01*
X83704760Y-144576759D01*
X83814139Y-144312695D01*
X83972934Y-144075042D01*
X84175042Y-143872934D01*
X84412695Y-143714139D01*
X84676759Y-143604760D01*
X84957088Y-143549000D01*
X85242912Y-143549000D01*
X85523241Y-143604760D01*
X85523241Y-143604760D01*
G37*
G36*
X60351000Y-143851000D02*
G01*
X58649000Y-143851000D01*
X58649000Y-142149000D01*
X60351000Y-142149000D01*
X60351000Y-143851000D01*
X60351000Y-143851000D01*
G37*
G36*
X52046823Y-142161313D02*
G01*
X52207242Y-142209976D01*
X52339906Y-142280886D01*
X52355078Y-142288996D01*
X52484659Y-142395341D01*
X52591004Y-142524922D01*
X52591005Y-142524924D01*
X52670024Y-142672758D01*
X52718687Y-142833177D01*
X52735117Y-143000000D01*
X52718687Y-143166823D01*
X52705284Y-143211005D01*
X52672738Y-143318297D01*
X52670024Y-143327242D01*
X52657325Y-143351000D01*
X52591004Y-143475078D01*
X52484659Y-143604659D01*
X52355078Y-143711004D01*
X52355076Y-143711005D01*
X52207242Y-143790024D01*
X52046823Y-143838687D01*
X51921804Y-143851000D01*
X51838196Y-143851000D01*
X51713177Y-143838687D01*
X51552758Y-143790024D01*
X51404924Y-143711005D01*
X51404922Y-143711004D01*
X51275341Y-143604659D01*
X51168996Y-143475078D01*
X51102675Y-143351000D01*
X51089976Y-143327242D01*
X51087263Y-143318297D01*
X51054716Y-143211005D01*
X51041313Y-143166823D01*
X51024883Y-143000000D01*
X51041313Y-142833177D01*
X51089976Y-142672758D01*
X51168995Y-142524924D01*
X51168996Y-142524922D01*
X51275341Y-142395341D01*
X51404922Y-142288996D01*
X51420094Y-142280886D01*
X51552758Y-142209976D01*
X51713177Y-142161313D01*
X51838196Y-142149000D01*
X51921804Y-142149000D01*
X52046823Y-142161313D01*
X52046823Y-142161313D01*
G37*
G36*
X67006823Y-141661313D02*
G01*
X67167242Y-141709976D01*
X67234361Y-141745852D01*
X67315078Y-141788996D01*
X67444659Y-141895341D01*
X67551004Y-142024922D01*
X67551005Y-142024924D01*
X67630024Y-142172758D01*
X67678687Y-142333177D01*
X67695117Y-142500000D01*
X67678687Y-142666823D01*
X67630024Y-142827242D01*
X67589477Y-142903100D01*
X67551004Y-142975078D01*
X67444659Y-143104659D01*
X67315078Y-143211004D01*
X67315076Y-143211005D01*
X67167242Y-143290024D01*
X67006823Y-143338687D01*
X66881804Y-143351000D01*
X66798196Y-143351000D01*
X66673177Y-143338687D01*
X66512758Y-143290024D01*
X66364924Y-143211005D01*
X66364922Y-143211004D01*
X66235341Y-143104659D01*
X66128996Y-142975078D01*
X66090523Y-142903100D01*
X66049976Y-142827242D01*
X66001313Y-142666823D01*
X65984883Y-142500000D01*
X66001313Y-142333177D01*
X66049976Y-142172758D01*
X66128995Y-142024924D01*
X66128996Y-142024922D01*
X66235341Y-141895341D01*
X66364922Y-141788996D01*
X66445639Y-141745852D01*
X66512758Y-141709976D01*
X66673177Y-141661313D01*
X66798196Y-141649000D01*
X66881804Y-141649000D01*
X67006823Y-141661313D01*
X67006823Y-141661313D01*
G37*
G36*
X77248228Y-141681703D02*
G01*
X77403100Y-141745853D01*
X77542481Y-141838985D01*
X77661015Y-141957519D01*
X77754147Y-142096900D01*
X77818297Y-142251772D01*
X77851000Y-142416184D01*
X77851000Y-142583816D01*
X77818297Y-142748228D01*
X77754147Y-142903100D01*
X77661015Y-143042481D01*
X77542481Y-143161015D01*
X77403100Y-143254147D01*
X77248228Y-143318297D01*
X77083816Y-143351000D01*
X76916184Y-143351000D01*
X76751772Y-143318297D01*
X76596900Y-143254147D01*
X76457519Y-143161015D01*
X76338985Y-143042481D01*
X76245853Y-142903100D01*
X76181703Y-142748228D01*
X76149000Y-142583816D01*
X76149000Y-142416184D01*
X76181703Y-142251772D01*
X76245853Y-142096900D01*
X76338985Y-141957519D01*
X76457519Y-141838985D01*
X76596900Y-141745853D01*
X76751772Y-141681703D01*
X76916184Y-141649000D01*
X77083816Y-141649000D01*
X77248228Y-141681703D01*
X77248228Y-141681703D01*
G37*
G36*
X52851000Y-139851000D02*
G01*
X51149000Y-139851000D01*
X51149000Y-138149000D01*
X52851000Y-138149000D01*
X52851000Y-139851000D01*
X52851000Y-139851000D01*
G37*
G36*
X59786823Y-138161313D02*
G01*
X59947242Y-138209976D01*
X60079906Y-138280886D01*
X60095078Y-138288996D01*
X60224659Y-138395341D01*
X60331004Y-138524922D01*
X60331005Y-138524924D01*
X60410024Y-138672758D01*
X60458687Y-138833177D01*
X60475117Y-139000000D01*
X60458687Y-139166823D01*
X60410024Y-139327242D01*
X60339114Y-139459906D01*
X60331004Y-139475078D01*
X60224659Y-139604659D01*
X60095078Y-139711004D01*
X60095076Y-139711005D01*
X59947242Y-139790024D01*
X59786823Y-139838687D01*
X59661804Y-139851000D01*
X59578196Y-139851000D01*
X59453177Y-139838687D01*
X59292758Y-139790024D01*
X59144924Y-139711005D01*
X59144922Y-139711004D01*
X59015341Y-139604659D01*
X58908996Y-139475078D01*
X58900886Y-139459906D01*
X58829976Y-139327242D01*
X58781313Y-139166823D01*
X58764883Y-139000000D01*
X58781313Y-138833177D01*
X58829976Y-138672758D01*
X58908995Y-138524924D01*
X58908996Y-138524922D01*
X59015341Y-138395341D01*
X59144922Y-138288996D01*
X59160094Y-138280886D01*
X59292758Y-138209976D01*
X59453177Y-138161313D01*
X59578196Y-138149000D01*
X59661804Y-138149000D01*
X59786823Y-138161313D01*
X59786823Y-138161313D01*
G37*
G36*
X63901000Y-137901000D02*
G01*
X62099000Y-137901000D01*
X62099000Y-136099000D01*
X63901000Y-136099000D01*
X63901000Y-137901000D01*
X63901000Y-137901000D01*
G37*
G36*
X77248228Y-136181703D02*
G01*
X77403100Y-136245853D01*
X77542481Y-136338985D01*
X77661015Y-136457519D01*
X77754147Y-136596900D01*
X77818297Y-136751772D01*
X77851000Y-136916184D01*
X77851000Y-137083816D01*
X77818297Y-137248228D01*
X77754147Y-137403100D01*
X77661015Y-137542481D01*
X77542481Y-137661015D01*
X77403100Y-137754147D01*
X77248228Y-137818297D01*
X77083816Y-137851000D01*
X76916184Y-137851000D01*
X76751772Y-137818297D01*
X76596900Y-137754147D01*
X76457519Y-137661015D01*
X76338985Y-137542481D01*
X76245853Y-137403100D01*
X76181703Y-137248228D01*
X76149000Y-137083816D01*
X76149000Y-136916184D01*
X76181703Y-136751772D01*
X76245853Y-136596900D01*
X76338985Y-136457519D01*
X76457519Y-136338985D01*
X76596900Y-136245853D01*
X76751772Y-136181703D01*
X76916184Y-136149000D01*
X77083816Y-136149000D01*
X77248228Y-136181703D01*
X77248228Y-136181703D01*
G37*
G36*
X67006823Y-136161313D02*
G01*
X67167242Y-136209976D01*
X67234361Y-136245852D01*
X67315078Y-136288996D01*
X67444659Y-136395341D01*
X67551004Y-136524922D01*
X67551005Y-136524924D01*
X67630024Y-136672758D01*
X67678687Y-136833177D01*
X67695117Y-137000000D01*
X67678687Y-137166823D01*
X67630024Y-137327242D01*
X67589477Y-137403100D01*
X67551004Y-137475078D01*
X67444659Y-137604659D01*
X67315078Y-137711004D01*
X67315076Y-137711005D01*
X67167242Y-137790024D01*
X67006823Y-137838687D01*
X66881804Y-137851000D01*
X66798196Y-137851000D01*
X66673177Y-137838687D01*
X66512758Y-137790024D01*
X66364924Y-137711005D01*
X66364922Y-137711004D01*
X66235341Y-137604659D01*
X66128996Y-137475078D01*
X66090523Y-137403100D01*
X66049976Y-137327242D01*
X66001313Y-137166823D01*
X65984883Y-137000000D01*
X66001313Y-136833177D01*
X66049976Y-136672758D01*
X66128995Y-136524924D01*
X66128996Y-136524922D01*
X66235341Y-136395341D01*
X66364922Y-136288996D01*
X66445639Y-136245852D01*
X66512758Y-136209976D01*
X66673177Y-136161313D01*
X66798196Y-136149000D01*
X66881804Y-136149000D01*
X67006823Y-136161313D01*
X67006823Y-136161313D01*
G37*
G36*
X85523241Y-133104760D02*
G01*
X85787305Y-133214139D01*
X86024958Y-133372934D01*
X86227066Y-133575042D01*
X86385861Y-133812695D01*
X86495240Y-134076759D01*
X86551000Y-134357088D01*
X86551000Y-134642912D01*
X86495240Y-134923241D01*
X86385861Y-135187305D01*
X86227066Y-135424958D01*
X86024958Y-135627066D01*
X85787305Y-135785861D01*
X85523241Y-135895240D01*
X85242912Y-135951000D01*
X84957088Y-135951000D01*
X84676759Y-135895240D01*
X84412695Y-135785861D01*
X84175042Y-135627066D01*
X83972934Y-135424958D01*
X83814139Y-135187305D01*
X83704760Y-134923241D01*
X83649000Y-134642912D01*
X83649000Y-134357088D01*
X83704760Y-134076759D01*
X83814139Y-133812695D01*
X83972934Y-133575042D01*
X84175042Y-133372934D01*
X84412695Y-133214139D01*
X84676759Y-133104760D01*
X84957088Y-133049000D01*
X85242912Y-133049000D01*
X85523241Y-133104760D01*
X85523241Y-133104760D01*
G37*
G36*
X93423241Y-131104760D02*
G01*
X93687305Y-131214139D01*
X93924958Y-131372934D01*
X94127066Y-131575042D01*
X94285861Y-131812695D01*
X94395240Y-132076759D01*
X94451000Y-132357088D01*
X94451000Y-132642912D01*
X94395240Y-132923241D01*
X94285861Y-133187305D01*
X94127066Y-133424958D01*
X93924958Y-133627066D01*
X93687305Y-133785861D01*
X93423241Y-133895240D01*
X93142912Y-133951000D01*
X92857088Y-133951000D01*
X92576759Y-133895240D01*
X92312695Y-133785861D01*
X92075042Y-133627066D01*
X92028535Y-133580559D01*
X92009593Y-133565014D01*
X91987982Y-133553463D01*
X91964533Y-133546350D01*
X91940147Y-133543948D01*
X91915761Y-133546350D01*
X91892312Y-133553463D01*
X91870701Y-133565014D01*
X91851759Y-133580559D01*
X91836214Y-133599501D01*
X91824663Y-133621112D01*
X91817550Y-133644561D01*
X91815148Y-133668947D01*
X91817550Y-133693333D01*
X91824663Y-133716782D01*
X91836214Y-133738393D01*
X91885861Y-133812695D01*
X91995240Y-134076759D01*
X92051000Y-134357088D01*
X92051000Y-134642912D01*
X91995240Y-134923241D01*
X91885861Y-135187305D01*
X91727066Y-135424958D01*
X91524958Y-135627066D01*
X91287305Y-135785861D01*
X91023241Y-135895240D01*
X90742912Y-135951000D01*
X90457088Y-135951000D01*
X90176759Y-135895240D01*
X89912695Y-135785861D01*
X89675042Y-135627066D01*
X89472934Y-135424958D01*
X89314139Y-135187305D01*
X89204760Y-134923241D01*
X89149000Y-134642912D01*
X89149000Y-134357088D01*
X89204760Y-134076759D01*
X89314139Y-133812695D01*
X89472934Y-133575042D01*
X89675042Y-133372934D01*
X89912695Y-133214139D01*
X90176759Y-133104760D01*
X90457088Y-133049000D01*
X90742912Y-133049000D01*
X91023241Y-133104760D01*
X91287305Y-133214139D01*
X91524958Y-133372934D01*
X91571465Y-133419441D01*
X91590407Y-133434986D01*
X91612018Y-133446537D01*
X91635467Y-133453650D01*
X91659853Y-133456052D01*
X91684239Y-133453650D01*
X91707688Y-133446537D01*
X91729299Y-133434986D01*
X91748241Y-133419441D01*
X91763786Y-133400499D01*
X91775337Y-133378888D01*
X91782450Y-133355439D01*
X91784852Y-133331053D01*
X91782450Y-133306667D01*
X91775337Y-133283218D01*
X91763786Y-133261607D01*
X91714139Y-133187305D01*
X91604760Y-132923241D01*
X91549000Y-132642912D01*
X91549000Y-132357088D01*
X91604760Y-132076759D01*
X91714139Y-131812695D01*
X91872934Y-131575042D01*
X92075042Y-131372934D01*
X92312695Y-131214139D01*
X92576759Y-131104760D01*
X92857088Y-131049000D01*
X93142912Y-131049000D01*
X93423241Y-131104760D01*
X93423241Y-131104760D01*
G37*
G36*
X60351000Y-135851000D02*
G01*
X58649000Y-135851000D01*
X58649000Y-134149000D01*
X60351000Y-134149000D01*
X60351000Y-135851000D01*
X60351000Y-135851000D01*
G37*
G36*
X52046823Y-134161313D02*
G01*
X52207242Y-134209976D01*
X52339906Y-134280886D01*
X52355078Y-134288996D01*
X52484659Y-134395341D01*
X52591004Y-134524922D01*
X52591005Y-134524924D01*
X52670024Y-134672758D01*
X52718687Y-134833177D01*
X52735117Y-135000000D01*
X52718687Y-135166823D01*
X52670024Y-135327242D01*
X52617793Y-135424959D01*
X52591004Y-135475078D01*
X52484659Y-135604659D01*
X52355078Y-135711004D01*
X52355076Y-135711005D01*
X52207242Y-135790024D01*
X52046823Y-135838687D01*
X51921804Y-135851000D01*
X51838196Y-135851000D01*
X51713177Y-135838687D01*
X51552758Y-135790024D01*
X51404924Y-135711005D01*
X51404922Y-135711004D01*
X51275341Y-135604659D01*
X51168996Y-135475078D01*
X51142207Y-135424959D01*
X51089976Y-135327242D01*
X51041313Y-135166823D01*
X51024883Y-135000000D01*
X51041313Y-134833177D01*
X51089976Y-134672758D01*
X51168995Y-134524924D01*
X51168996Y-134524922D01*
X51275341Y-134395341D01*
X51404922Y-134288996D01*
X51420094Y-134280886D01*
X51552758Y-134209976D01*
X51713177Y-134161313D01*
X51838196Y-134149000D01*
X51921804Y-134149000D01*
X52046823Y-134161313D01*
X52046823Y-134161313D01*
G37*
G36*
X63105320Y-133565014D02*
G01*
X63176627Y-133572037D01*
X63346466Y-133623557D01*
X63502991Y-133707222D01*
X63538729Y-133736552D01*
X63640186Y-133819814D01*
X63723448Y-133921271D01*
X63752778Y-133957009D01*
X63836443Y-134113534D01*
X63887963Y-134283373D01*
X63905359Y-134460000D01*
X63887963Y-134636627D01*
X63836443Y-134806466D01*
X63752778Y-134962991D01*
X63723448Y-134998729D01*
X63640186Y-135100186D01*
X63538729Y-135183448D01*
X63502991Y-135212778D01*
X63346466Y-135296443D01*
X63176627Y-135347963D01*
X63110443Y-135354481D01*
X63044260Y-135361000D01*
X62955740Y-135361000D01*
X62889557Y-135354481D01*
X62823373Y-135347963D01*
X62653534Y-135296443D01*
X62497009Y-135212778D01*
X62461271Y-135183448D01*
X62359814Y-135100186D01*
X62276552Y-134998729D01*
X62247222Y-134962991D01*
X62163557Y-134806466D01*
X62112037Y-134636627D01*
X62094641Y-134460000D01*
X62112037Y-134283373D01*
X62163557Y-134113534D01*
X62247222Y-133957009D01*
X62276552Y-133921271D01*
X62359814Y-133819814D01*
X62461271Y-133736552D01*
X62497009Y-133707222D01*
X62653534Y-133623557D01*
X62823373Y-133572037D01*
X62894680Y-133565014D01*
X62955740Y-133559000D01*
X63044260Y-133559000D01*
X63105320Y-133565014D01*
X63105320Y-133565014D01*
G37*
G36*
X67006823Y-130661313D02*
G01*
X67167242Y-130709976D01*
X67234361Y-130745852D01*
X67315078Y-130788996D01*
X67444659Y-130895341D01*
X67551004Y-131024922D01*
X67551005Y-131024924D01*
X67630024Y-131172758D01*
X67678687Y-131333177D01*
X67695117Y-131500000D01*
X67678687Y-131666823D01*
X67630024Y-131827242D01*
X67589477Y-131903100D01*
X67551004Y-131975078D01*
X67444659Y-132104659D01*
X67315078Y-132211004D01*
X67315076Y-132211005D01*
X67167242Y-132290024D01*
X67006823Y-132338687D01*
X66881804Y-132351000D01*
X66798196Y-132351000D01*
X66673177Y-132338687D01*
X66512758Y-132290024D01*
X66364924Y-132211005D01*
X66364922Y-132211004D01*
X66235341Y-132104659D01*
X66128996Y-131975078D01*
X66090523Y-131903100D01*
X66049976Y-131827242D01*
X66001313Y-131666823D01*
X65984883Y-131500000D01*
X66001313Y-131333177D01*
X66049976Y-131172758D01*
X66128995Y-131024924D01*
X66128996Y-131024922D01*
X66235341Y-130895341D01*
X66364922Y-130788996D01*
X66445639Y-130745852D01*
X66512758Y-130709976D01*
X66673177Y-130661313D01*
X66798196Y-130649000D01*
X66881804Y-130649000D01*
X67006823Y-130661313D01*
X67006823Y-130661313D01*
G37*
G36*
X77248228Y-130681703D02*
G01*
X77403100Y-130745853D01*
X77542481Y-130838985D01*
X77661015Y-130957519D01*
X77754147Y-131096900D01*
X77818297Y-131251772D01*
X77851000Y-131416184D01*
X77851000Y-131583816D01*
X77818297Y-131748228D01*
X77754147Y-131903100D01*
X77661015Y-132042481D01*
X77542481Y-132161015D01*
X77403100Y-132254147D01*
X77248228Y-132318297D01*
X77083816Y-132351000D01*
X76916184Y-132351000D01*
X76751772Y-132318297D01*
X76596900Y-132254147D01*
X76457519Y-132161015D01*
X76338985Y-132042481D01*
X76245853Y-131903100D01*
X76181703Y-131748228D01*
X76149000Y-131583816D01*
X76149000Y-131416184D01*
X76181703Y-131251772D01*
X76245853Y-131096900D01*
X76338985Y-130957519D01*
X76457519Y-130838985D01*
X76596900Y-130745853D01*
X76751772Y-130681703D01*
X76916184Y-130649000D01*
X77083816Y-130649000D01*
X77248228Y-130681703D01*
X77248228Y-130681703D01*
G37*
G36*
X59786823Y-130161313D02*
G01*
X59947242Y-130209976D01*
X60079906Y-130280886D01*
X60095078Y-130288996D01*
X60224659Y-130395341D01*
X60331004Y-130524922D01*
X60331005Y-130524924D01*
X60410024Y-130672758D01*
X60410025Y-130672761D01*
X60412738Y-130681705D01*
X60458687Y-130833177D01*
X60475117Y-131000000D01*
X60458687Y-131166823D01*
X60410024Y-131327242D01*
X60362483Y-131416184D01*
X60331004Y-131475078D01*
X60224659Y-131604659D01*
X60095078Y-131711004D01*
X60095076Y-131711005D01*
X59947242Y-131790024D01*
X59786823Y-131838687D01*
X59661804Y-131851000D01*
X59578196Y-131851000D01*
X59453177Y-131838687D01*
X59292758Y-131790024D01*
X59144924Y-131711005D01*
X59144922Y-131711004D01*
X59015341Y-131604659D01*
X58908996Y-131475078D01*
X58877517Y-131416184D01*
X58829976Y-131327242D01*
X58781313Y-131166823D01*
X58764883Y-131000000D01*
X58781313Y-130833177D01*
X58827262Y-130681705D01*
X58829975Y-130672761D01*
X58829976Y-130672758D01*
X58908995Y-130524924D01*
X58908996Y-130524922D01*
X59015341Y-130395341D01*
X59144922Y-130288996D01*
X59160094Y-130280886D01*
X59292758Y-130209976D01*
X59453177Y-130161313D01*
X59578196Y-130149000D01*
X59661804Y-130149000D01*
X59786823Y-130161313D01*
X59786823Y-130161313D01*
G37*
G36*
X52851000Y-131851000D02*
G01*
X51149000Y-131851000D01*
X51149000Y-130149000D01*
X52851000Y-130149000D01*
X52851000Y-131851000D01*
X52851000Y-131851000D01*
G37*
G36*
X77326823Y-125661313D02*
G01*
X77487242Y-125709976D01*
X77554361Y-125745852D01*
X77635078Y-125788996D01*
X77764659Y-125895341D01*
X77871004Y-126024922D01*
X77871005Y-126024924D01*
X77950024Y-126172758D01*
X77998687Y-126333177D01*
X78015117Y-126500000D01*
X77998687Y-126666823D01*
X77950024Y-126827242D01*
X77909477Y-126903100D01*
X77871004Y-126975078D01*
X77764659Y-127104659D01*
X77635078Y-127211004D01*
X77635076Y-127211005D01*
X77487242Y-127290024D01*
X77326823Y-127338687D01*
X77201804Y-127351000D01*
X77118196Y-127351000D01*
X76993177Y-127338687D01*
X76832758Y-127290024D01*
X76684924Y-127211005D01*
X76684922Y-127211004D01*
X76555341Y-127104659D01*
X76448996Y-126975078D01*
X76410523Y-126903100D01*
X76369976Y-126827242D01*
X76321313Y-126666823D01*
X76304883Y-126500000D01*
X76321313Y-126333177D01*
X76369976Y-126172758D01*
X76448995Y-126024924D01*
X76448996Y-126024922D01*
X76555341Y-125895341D01*
X76684922Y-125788996D01*
X76765639Y-125745852D01*
X76832758Y-125709976D01*
X76993177Y-125661313D01*
X77118196Y-125649000D01*
X77201804Y-125649000D01*
X77326823Y-125661313D01*
X77326823Y-125661313D01*
G37*
G36*
X67248228Y-125681703D02*
G01*
X67403100Y-125745853D01*
X67542481Y-125838985D01*
X67661015Y-125957519D01*
X67754147Y-126096900D01*
X67818297Y-126251772D01*
X67851000Y-126416184D01*
X67851000Y-126583816D01*
X67818297Y-126748228D01*
X67754147Y-126903100D01*
X67661015Y-127042481D01*
X67542481Y-127161015D01*
X67403100Y-127254147D01*
X67248228Y-127318297D01*
X67083816Y-127351000D01*
X66916184Y-127351000D01*
X66751772Y-127318297D01*
X66596900Y-127254147D01*
X66457519Y-127161015D01*
X66338985Y-127042481D01*
X66245853Y-126903100D01*
X66181703Y-126748228D01*
X66149000Y-126583816D01*
X66149000Y-126416184D01*
X66181703Y-126251772D01*
X66245853Y-126096900D01*
X66338985Y-125957519D01*
X66457519Y-125838985D01*
X66596900Y-125745853D01*
X66751772Y-125681703D01*
X66916184Y-125649000D01*
X67083816Y-125649000D01*
X67248228Y-125681703D01*
X67248228Y-125681703D01*
G37*
G36*
X85523241Y-122104760D02*
G01*
X85787305Y-122214139D01*
X86024958Y-122372934D01*
X86227066Y-122575042D01*
X86385861Y-122812695D01*
X86495240Y-123076759D01*
X86551000Y-123357088D01*
X86551000Y-123642912D01*
X86495240Y-123923241D01*
X86385861Y-124187305D01*
X86227066Y-124424958D01*
X86024958Y-124627066D01*
X85787305Y-124785861D01*
X85523241Y-124895240D01*
X85242912Y-124951000D01*
X84957088Y-124951000D01*
X84676759Y-124895240D01*
X84412695Y-124785861D01*
X84175042Y-124627066D01*
X83972934Y-124424958D01*
X83814139Y-124187305D01*
X83704760Y-123923241D01*
X83649000Y-123642912D01*
X83649000Y-123357088D01*
X83704760Y-123076759D01*
X83814139Y-122812695D01*
X83972934Y-122575042D01*
X84175042Y-122372934D01*
X84412695Y-122214139D01*
X84676759Y-122104760D01*
X84957088Y-122049000D01*
X85242912Y-122049000D01*
X85523241Y-122104760D01*
X85523241Y-122104760D01*
G37*
G36*
X93423241Y-120104760D02*
G01*
X93687305Y-120214139D01*
X93924958Y-120372934D01*
X94127066Y-120575042D01*
X94285861Y-120812695D01*
X94395240Y-121076759D01*
X94451000Y-121357088D01*
X94451000Y-121642912D01*
X94395240Y-121923241D01*
X94285861Y-122187305D01*
X94127066Y-122424958D01*
X93924958Y-122627066D01*
X93687305Y-122785861D01*
X93423241Y-122895240D01*
X93142912Y-122951000D01*
X92857088Y-122951000D01*
X92576759Y-122895240D01*
X92312695Y-122785861D01*
X92075042Y-122627066D01*
X92028535Y-122580559D01*
X92009593Y-122565014D01*
X91987982Y-122553463D01*
X91964533Y-122546350D01*
X91940147Y-122543948D01*
X91915761Y-122546350D01*
X91892312Y-122553463D01*
X91870701Y-122565014D01*
X91851759Y-122580559D01*
X91836214Y-122599501D01*
X91824663Y-122621112D01*
X91817550Y-122644561D01*
X91815148Y-122668947D01*
X91817550Y-122693333D01*
X91824663Y-122716782D01*
X91836214Y-122738393D01*
X91885861Y-122812695D01*
X91995240Y-123076759D01*
X92051000Y-123357088D01*
X92051000Y-123642912D01*
X91995240Y-123923241D01*
X91885861Y-124187305D01*
X91727066Y-124424958D01*
X91524958Y-124627066D01*
X91287305Y-124785861D01*
X91023241Y-124895240D01*
X90742912Y-124951000D01*
X90457088Y-124951000D01*
X90176759Y-124895240D01*
X89912695Y-124785861D01*
X89675042Y-124627066D01*
X89472934Y-124424958D01*
X89314139Y-124187305D01*
X89204760Y-123923241D01*
X89149000Y-123642912D01*
X89149000Y-123357088D01*
X89204760Y-123076759D01*
X89314139Y-122812695D01*
X89472934Y-122575042D01*
X89675042Y-122372934D01*
X89912695Y-122214139D01*
X90176759Y-122104760D01*
X90457088Y-122049000D01*
X90742912Y-122049000D01*
X91023241Y-122104760D01*
X91287305Y-122214139D01*
X91524958Y-122372934D01*
X91571465Y-122419441D01*
X91590407Y-122434986D01*
X91612018Y-122446537D01*
X91635467Y-122453650D01*
X91659853Y-122456052D01*
X91684239Y-122453650D01*
X91707688Y-122446537D01*
X91729299Y-122434986D01*
X91748241Y-122419441D01*
X91763786Y-122400499D01*
X91775337Y-122378888D01*
X91782450Y-122355439D01*
X91784852Y-122331053D01*
X91782450Y-122306667D01*
X91775337Y-122283218D01*
X91763786Y-122261607D01*
X91714139Y-122187305D01*
X91604760Y-121923241D01*
X91549000Y-121642912D01*
X91549000Y-121357088D01*
X91604760Y-121076759D01*
X91714139Y-120812695D01*
X91872934Y-120575042D01*
X92075042Y-120372934D01*
X92312695Y-120214139D01*
X92576759Y-120104760D01*
X92857088Y-120049000D01*
X93142912Y-120049000D01*
X93423241Y-120104760D01*
X93423241Y-120104760D01*
G37*
G36*
X56901000Y-124401000D02*
G01*
X55099000Y-124401000D01*
X55099000Y-122599000D01*
X56901000Y-122599000D01*
X56901000Y-124401000D01*
X56901000Y-124401000D01*
G37*
G36*
X53570442Y-122605518D02*
G01*
X53636627Y-122612037D01*
X53806466Y-122663557D01*
X53962991Y-122747222D01*
X53998729Y-122776552D01*
X54100186Y-122859814D01*
X54161826Y-122934924D01*
X54212778Y-122997009D01*
X54296443Y-123153534D01*
X54347963Y-123323373D01*
X54365359Y-123500000D01*
X54347963Y-123676627D01*
X54296443Y-123846466D01*
X54212778Y-124002991D01*
X54203202Y-124014659D01*
X54100186Y-124140186D01*
X53998729Y-124223448D01*
X53962991Y-124252778D01*
X53806466Y-124336443D01*
X53636627Y-124387963D01*
X53570443Y-124394481D01*
X53504260Y-124401000D01*
X53415740Y-124401000D01*
X53349557Y-124394481D01*
X53283373Y-124387963D01*
X53113534Y-124336443D01*
X52957009Y-124252778D01*
X52921271Y-124223448D01*
X52819814Y-124140186D01*
X52716798Y-124014659D01*
X52707222Y-124002991D01*
X52623557Y-123846466D01*
X52572037Y-123676627D01*
X52554641Y-123500000D01*
X52572037Y-123323373D01*
X52623557Y-123153534D01*
X52707222Y-122997009D01*
X52758174Y-122934924D01*
X52819814Y-122859814D01*
X52921271Y-122776552D01*
X52957009Y-122747222D01*
X53113534Y-122663557D01*
X53283373Y-122612037D01*
X53349558Y-122605518D01*
X53415740Y-122599000D01*
X53504260Y-122599000D01*
X53570442Y-122605518D01*
X53570442Y-122605518D01*
G37*
G36*
X67248228Y-122681703D02*
G01*
X67403100Y-122745853D01*
X67542481Y-122838985D01*
X67661015Y-122957519D01*
X67754147Y-123096900D01*
X67818297Y-123251772D01*
X67851000Y-123416184D01*
X67851000Y-123583816D01*
X67818297Y-123748228D01*
X67754147Y-123903100D01*
X67661015Y-124042481D01*
X67542481Y-124161015D01*
X67403100Y-124254147D01*
X67248228Y-124318297D01*
X67083816Y-124351000D01*
X66916184Y-124351000D01*
X66751772Y-124318297D01*
X66596900Y-124254147D01*
X66457519Y-124161015D01*
X66338985Y-124042481D01*
X66245853Y-123903100D01*
X66181703Y-123748228D01*
X66149000Y-123583816D01*
X66149000Y-123416184D01*
X66181703Y-123251772D01*
X66245853Y-123096900D01*
X66338985Y-122957519D01*
X66457519Y-122838985D01*
X66596900Y-122745853D01*
X66751772Y-122681703D01*
X66916184Y-122649000D01*
X67083816Y-122649000D01*
X67248228Y-122681703D01*
X67248228Y-122681703D01*
G37*
G36*
X63166823Y-122571313D02*
G01*
X63327242Y-122619976D01*
X63408776Y-122663557D01*
X63475078Y-122698996D01*
X63604659Y-122805341D01*
X63711004Y-122934922D01*
X63711005Y-122934924D01*
X63790024Y-123082758D01*
X63838687Y-123243177D01*
X63855117Y-123410000D01*
X63838687Y-123576823D01*
X63790024Y-123737242D01*
X63784151Y-123748229D01*
X63711004Y-123885078D01*
X63604659Y-124014659D01*
X63475078Y-124121004D01*
X63475076Y-124121005D01*
X63327242Y-124200024D01*
X63166823Y-124248687D01*
X63041804Y-124261000D01*
X62958196Y-124261000D01*
X62833177Y-124248687D01*
X62672758Y-124200024D01*
X62524924Y-124121005D01*
X62524922Y-124121004D01*
X62395341Y-124014659D01*
X62288996Y-123885078D01*
X62215849Y-123748229D01*
X62209976Y-123737242D01*
X62161313Y-123576823D01*
X62144883Y-123410000D01*
X62161313Y-123243177D01*
X62209976Y-123082758D01*
X62288995Y-122934924D01*
X62288996Y-122934922D01*
X62395341Y-122805341D01*
X62524922Y-122698996D01*
X62591224Y-122663557D01*
X62672758Y-122619976D01*
X62833177Y-122571313D01*
X62958196Y-122559000D01*
X63041804Y-122559000D01*
X63166823Y-122571313D01*
X63166823Y-122571313D01*
G37*
G36*
X77786823Y-120281313D02*
G01*
X77947242Y-120329976D01*
X78079906Y-120400886D01*
X78095078Y-120408996D01*
X78224659Y-120515341D01*
X78331004Y-120644922D01*
X78331005Y-120644924D01*
X78410024Y-120792758D01*
X78458687Y-120953177D01*
X78475117Y-121120000D01*
X78458687Y-121286823D01*
X78410024Y-121447242D01*
X78339114Y-121579906D01*
X78331004Y-121595078D01*
X78224659Y-121724659D01*
X78095078Y-121831004D01*
X78095076Y-121831005D01*
X77947242Y-121910024D01*
X77786823Y-121958687D01*
X77661804Y-121971000D01*
X77578196Y-121971000D01*
X77453177Y-121958687D01*
X77292758Y-121910024D01*
X77144924Y-121831005D01*
X77144922Y-121831004D01*
X77015341Y-121724659D01*
X76908996Y-121595078D01*
X76900886Y-121579906D01*
X76829976Y-121447242D01*
X76781313Y-121286823D01*
X76764883Y-121120000D01*
X76781313Y-120953177D01*
X76829976Y-120792758D01*
X76908995Y-120644924D01*
X76908996Y-120644922D01*
X77015341Y-120515341D01*
X77144922Y-120408996D01*
X77160094Y-120400886D01*
X77292758Y-120329976D01*
X77453177Y-120281313D01*
X77578196Y-120269000D01*
X77661804Y-120269000D01*
X77786823Y-120281313D01*
X77786823Y-120281313D01*
G37*
G36*
X70166823Y-120281313D02*
G01*
X70327242Y-120329976D01*
X70459906Y-120400886D01*
X70475078Y-120408996D01*
X70604659Y-120515341D01*
X70711004Y-120644922D01*
X70711005Y-120644924D01*
X70790024Y-120792758D01*
X70838687Y-120953177D01*
X70855117Y-121120000D01*
X70838687Y-121286823D01*
X70790024Y-121447242D01*
X70719114Y-121579906D01*
X70711004Y-121595078D01*
X70604659Y-121724659D01*
X70475078Y-121831004D01*
X70475076Y-121831005D01*
X70327242Y-121910024D01*
X70166823Y-121958687D01*
X70041804Y-121971000D01*
X69958196Y-121971000D01*
X69833177Y-121958687D01*
X69672758Y-121910024D01*
X69524924Y-121831005D01*
X69524922Y-121831004D01*
X69395341Y-121724659D01*
X69288996Y-121595078D01*
X69280886Y-121579906D01*
X69209976Y-121447242D01*
X69161313Y-121286823D01*
X69144883Y-121120000D01*
X69161313Y-120953177D01*
X69209976Y-120792758D01*
X69288995Y-120644924D01*
X69288996Y-120644922D01*
X69395341Y-120515341D01*
X69524922Y-120408996D01*
X69540094Y-120400886D01*
X69672758Y-120329976D01*
X69833177Y-120281313D01*
X69958196Y-120269000D01*
X70041804Y-120269000D01*
X70166823Y-120281313D01*
X70166823Y-120281313D01*
G37*
G36*
X53570443Y-120065519D02*
G01*
X53636627Y-120072037D01*
X53806466Y-120123557D01*
X53962991Y-120207222D01*
X53998729Y-120236552D01*
X54100186Y-120319814D01*
X54183448Y-120421271D01*
X54212778Y-120457009D01*
X54296443Y-120613534D01*
X54347963Y-120783373D01*
X54365359Y-120960000D01*
X54347963Y-121136627D01*
X54296443Y-121306466D01*
X54212778Y-121462991D01*
X54183448Y-121498729D01*
X54100186Y-121600186D01*
X53998729Y-121683448D01*
X53962991Y-121712778D01*
X53806466Y-121796443D01*
X53636627Y-121847963D01*
X53570443Y-121854481D01*
X53504260Y-121861000D01*
X53415740Y-121861000D01*
X53349557Y-121854481D01*
X53283373Y-121847963D01*
X53113534Y-121796443D01*
X52957009Y-121712778D01*
X52921271Y-121683448D01*
X52819814Y-121600186D01*
X52736552Y-121498729D01*
X52707222Y-121462991D01*
X52623557Y-121306466D01*
X52572037Y-121136627D01*
X52554641Y-120960000D01*
X52572037Y-120783373D01*
X52623557Y-120613534D01*
X52707222Y-120457009D01*
X52736552Y-120421271D01*
X52819814Y-120319814D01*
X52921271Y-120236552D01*
X52957009Y-120207222D01*
X53113534Y-120123557D01*
X53283373Y-120072037D01*
X53349557Y-120065519D01*
X53415740Y-120059000D01*
X53504260Y-120059000D01*
X53570443Y-120065519D01*
X53570443Y-120065519D01*
G37*
G36*
X56110443Y-120065519D02*
G01*
X56176627Y-120072037D01*
X56346466Y-120123557D01*
X56502991Y-120207222D01*
X56538729Y-120236552D01*
X56640186Y-120319814D01*
X56723448Y-120421271D01*
X56752778Y-120457009D01*
X56836443Y-120613534D01*
X56887963Y-120783373D01*
X56905359Y-120960000D01*
X56887963Y-121136627D01*
X56836443Y-121306466D01*
X56752778Y-121462991D01*
X56723448Y-121498729D01*
X56640186Y-121600186D01*
X56538729Y-121683448D01*
X56502991Y-121712778D01*
X56346466Y-121796443D01*
X56176627Y-121847963D01*
X56110443Y-121854481D01*
X56044260Y-121861000D01*
X55955740Y-121861000D01*
X55889557Y-121854481D01*
X55823373Y-121847963D01*
X55653534Y-121796443D01*
X55497009Y-121712778D01*
X55461271Y-121683448D01*
X55359814Y-121600186D01*
X55276552Y-121498729D01*
X55247222Y-121462991D01*
X55163557Y-121306466D01*
X55112037Y-121136627D01*
X55094641Y-120960000D01*
X55112037Y-120783373D01*
X55163557Y-120613534D01*
X55247222Y-120457009D01*
X55276552Y-120421271D01*
X55359814Y-120319814D01*
X55461271Y-120236552D01*
X55497009Y-120207222D01*
X55653534Y-120123557D01*
X55823373Y-120072037D01*
X55889557Y-120065519D01*
X55955740Y-120059000D01*
X56044260Y-120059000D01*
X56110443Y-120065519D01*
X56110443Y-120065519D01*
G37*
G36*
X77786823Y-117741313D02*
G01*
X77947242Y-117789976D01*
X78079906Y-117860886D01*
X78095078Y-117868996D01*
X78224659Y-117975341D01*
X78331004Y-118104922D01*
X78331005Y-118104924D01*
X78410024Y-118252758D01*
X78458687Y-118413177D01*
X78475117Y-118580000D01*
X78458687Y-118746823D01*
X78410024Y-118907242D01*
X78339114Y-119039906D01*
X78331004Y-119055078D01*
X78224659Y-119184659D01*
X78095078Y-119291004D01*
X78095076Y-119291005D01*
X77947242Y-119370024D01*
X77786823Y-119418687D01*
X77661804Y-119431000D01*
X77578196Y-119431000D01*
X77453177Y-119418687D01*
X77292758Y-119370024D01*
X77144924Y-119291005D01*
X77144922Y-119291004D01*
X77015341Y-119184659D01*
X76908996Y-119055078D01*
X76900886Y-119039906D01*
X76829976Y-118907242D01*
X76781313Y-118746823D01*
X76764883Y-118580000D01*
X76781313Y-118413177D01*
X76829976Y-118252758D01*
X76908995Y-118104924D01*
X76908996Y-118104922D01*
X77015341Y-117975341D01*
X77144922Y-117868996D01*
X77160094Y-117860886D01*
X77292758Y-117789976D01*
X77453177Y-117741313D01*
X77578196Y-117729000D01*
X77661804Y-117729000D01*
X77786823Y-117741313D01*
X77786823Y-117741313D01*
G37*
G36*
X70166823Y-117741313D02*
G01*
X70327242Y-117789976D01*
X70459906Y-117860886D01*
X70475078Y-117868996D01*
X70604659Y-117975341D01*
X70711004Y-118104922D01*
X70711005Y-118104924D01*
X70790024Y-118252758D01*
X70838687Y-118413177D01*
X70855117Y-118580000D01*
X70838687Y-118746823D01*
X70790024Y-118907242D01*
X70719114Y-119039906D01*
X70711004Y-119055078D01*
X70604659Y-119184659D01*
X70475078Y-119291004D01*
X70475076Y-119291005D01*
X70327242Y-119370024D01*
X70166823Y-119418687D01*
X70041804Y-119431000D01*
X69958196Y-119431000D01*
X69833177Y-119418687D01*
X69672758Y-119370024D01*
X69524924Y-119291005D01*
X69524922Y-119291004D01*
X69395341Y-119184659D01*
X69288996Y-119055078D01*
X69280886Y-119039906D01*
X69209976Y-118907242D01*
X69161313Y-118746823D01*
X69144883Y-118580000D01*
X69161313Y-118413177D01*
X69209976Y-118252758D01*
X69288995Y-118104924D01*
X69288996Y-118104922D01*
X69395341Y-117975341D01*
X69524922Y-117868996D01*
X69540094Y-117860886D01*
X69672758Y-117789976D01*
X69833177Y-117741313D01*
X69958196Y-117729000D01*
X70041804Y-117729000D01*
X70166823Y-117741313D01*
X70166823Y-117741313D01*
G37*
G36*
X53570442Y-117525518D02*
G01*
X53636627Y-117532037D01*
X53806466Y-117583557D01*
X53962991Y-117667222D01*
X53998729Y-117696552D01*
X54100186Y-117779814D01*
X54183448Y-117881271D01*
X54212778Y-117917009D01*
X54296443Y-118073534D01*
X54347963Y-118243373D01*
X54365359Y-118420000D01*
X54347963Y-118596627D01*
X54296443Y-118766466D01*
X54212778Y-118922991D01*
X54183448Y-118958729D01*
X54100186Y-119060186D01*
X53998729Y-119143448D01*
X53962991Y-119172778D01*
X53806466Y-119256443D01*
X53636627Y-119307963D01*
X53570443Y-119314481D01*
X53504260Y-119321000D01*
X53415740Y-119321000D01*
X53349557Y-119314481D01*
X53283373Y-119307963D01*
X53113534Y-119256443D01*
X52957009Y-119172778D01*
X52921271Y-119143448D01*
X52819814Y-119060186D01*
X52736552Y-118958729D01*
X52707222Y-118922991D01*
X52623557Y-118766466D01*
X52572037Y-118596627D01*
X52554641Y-118420000D01*
X52572037Y-118243373D01*
X52623557Y-118073534D01*
X52707222Y-117917009D01*
X52736552Y-117881271D01*
X52819814Y-117779814D01*
X52921271Y-117696552D01*
X52957009Y-117667222D01*
X53113534Y-117583557D01*
X53283373Y-117532037D01*
X53349558Y-117525518D01*
X53415740Y-117519000D01*
X53504260Y-117519000D01*
X53570442Y-117525518D01*
X53570442Y-117525518D01*
G37*
G36*
X56110442Y-117525518D02*
G01*
X56176627Y-117532037D01*
X56346466Y-117583557D01*
X56502991Y-117667222D01*
X56538729Y-117696552D01*
X56640186Y-117779814D01*
X56723448Y-117881271D01*
X56752778Y-117917009D01*
X56836443Y-118073534D01*
X56887963Y-118243373D01*
X56905359Y-118420000D01*
X56887963Y-118596627D01*
X56836443Y-118766466D01*
X56752778Y-118922991D01*
X56723448Y-118958729D01*
X56640186Y-119060186D01*
X56538729Y-119143448D01*
X56502991Y-119172778D01*
X56346466Y-119256443D01*
X56176627Y-119307963D01*
X56110443Y-119314481D01*
X56044260Y-119321000D01*
X55955740Y-119321000D01*
X55889557Y-119314481D01*
X55823373Y-119307963D01*
X55653534Y-119256443D01*
X55497009Y-119172778D01*
X55461271Y-119143448D01*
X55359814Y-119060186D01*
X55276552Y-118958729D01*
X55247222Y-118922991D01*
X55163557Y-118766466D01*
X55112037Y-118596627D01*
X55094641Y-118420000D01*
X55112037Y-118243373D01*
X55163557Y-118073534D01*
X55247222Y-117917009D01*
X55276552Y-117881271D01*
X55359814Y-117779814D01*
X55461271Y-117696552D01*
X55497009Y-117667222D01*
X55653534Y-117583557D01*
X55823373Y-117532037D01*
X55889558Y-117525518D01*
X55955740Y-117519000D01*
X56044260Y-117519000D01*
X56110442Y-117525518D01*
X56110442Y-117525518D01*
G37*
G36*
X77786823Y-115201313D02*
G01*
X77947242Y-115249976D01*
X78079906Y-115320886D01*
X78095078Y-115328996D01*
X78224659Y-115435341D01*
X78331004Y-115564922D01*
X78331005Y-115564924D01*
X78410024Y-115712758D01*
X78458687Y-115873177D01*
X78475117Y-116040000D01*
X78458687Y-116206823D01*
X78410024Y-116367242D01*
X78339114Y-116499906D01*
X78331004Y-116515078D01*
X78224659Y-116644659D01*
X78095078Y-116751004D01*
X78095076Y-116751005D01*
X77947242Y-116830024D01*
X77786823Y-116878687D01*
X77661804Y-116891000D01*
X77578196Y-116891000D01*
X77453177Y-116878687D01*
X77292758Y-116830024D01*
X77144924Y-116751005D01*
X77144922Y-116751004D01*
X77015341Y-116644659D01*
X76908996Y-116515078D01*
X76900886Y-116499906D01*
X76829976Y-116367242D01*
X76781313Y-116206823D01*
X76764883Y-116040000D01*
X76781313Y-115873177D01*
X76829976Y-115712758D01*
X76908995Y-115564924D01*
X76908996Y-115564922D01*
X77015341Y-115435341D01*
X77144922Y-115328996D01*
X77160094Y-115320886D01*
X77292758Y-115249976D01*
X77453177Y-115201313D01*
X77578196Y-115189000D01*
X77661804Y-115189000D01*
X77786823Y-115201313D01*
X77786823Y-115201313D01*
G37*
G36*
X70166823Y-115201313D02*
G01*
X70327242Y-115249976D01*
X70459906Y-115320886D01*
X70475078Y-115328996D01*
X70604659Y-115435341D01*
X70711004Y-115564922D01*
X70711005Y-115564924D01*
X70790024Y-115712758D01*
X70838687Y-115873177D01*
X70855117Y-116040000D01*
X70838687Y-116206823D01*
X70790024Y-116367242D01*
X70719114Y-116499906D01*
X70711004Y-116515078D01*
X70604659Y-116644659D01*
X70475078Y-116751004D01*
X70475076Y-116751005D01*
X70327242Y-116830024D01*
X70166823Y-116878687D01*
X70041804Y-116891000D01*
X69958196Y-116891000D01*
X69833177Y-116878687D01*
X69672758Y-116830024D01*
X69524924Y-116751005D01*
X69524922Y-116751004D01*
X69395341Y-116644659D01*
X69288996Y-116515078D01*
X69280886Y-116499906D01*
X69209976Y-116367242D01*
X69161313Y-116206823D01*
X69144883Y-116040000D01*
X69161313Y-115873177D01*
X69209976Y-115712758D01*
X69288995Y-115564924D01*
X69288996Y-115564922D01*
X69395341Y-115435341D01*
X69524922Y-115328996D01*
X69540094Y-115320886D01*
X69672758Y-115249976D01*
X69833177Y-115201313D01*
X69958196Y-115189000D01*
X70041804Y-115189000D01*
X70166823Y-115201313D01*
X70166823Y-115201313D01*
G37*
G36*
X56110442Y-114985518D02*
G01*
X56176627Y-114992037D01*
X56346466Y-115043557D01*
X56502991Y-115127222D01*
X56538729Y-115156552D01*
X56640186Y-115239814D01*
X56723448Y-115341271D01*
X56752778Y-115377009D01*
X56836443Y-115533534D01*
X56887963Y-115703373D01*
X56905359Y-115880000D01*
X56887963Y-116056627D01*
X56836443Y-116226466D01*
X56752778Y-116382991D01*
X56723448Y-116418729D01*
X56640186Y-116520186D01*
X56538729Y-116603448D01*
X56502991Y-116632778D01*
X56346466Y-116716443D01*
X56176627Y-116767963D01*
X56110442Y-116774482D01*
X56044260Y-116781000D01*
X55955740Y-116781000D01*
X55889558Y-116774482D01*
X55823373Y-116767963D01*
X55653534Y-116716443D01*
X55497009Y-116632778D01*
X55461271Y-116603448D01*
X55359814Y-116520186D01*
X55276552Y-116418729D01*
X55247222Y-116382991D01*
X55163557Y-116226466D01*
X55112037Y-116056627D01*
X55094641Y-115880000D01*
X55112037Y-115703373D01*
X55163557Y-115533534D01*
X55247222Y-115377009D01*
X55276552Y-115341271D01*
X55359814Y-115239814D01*
X55461271Y-115156552D01*
X55497009Y-115127222D01*
X55653534Y-115043557D01*
X55823373Y-114992037D01*
X55889558Y-114985518D01*
X55955740Y-114979000D01*
X56044260Y-114979000D01*
X56110442Y-114985518D01*
X56110442Y-114985518D01*
G37*
G36*
X53570442Y-114985518D02*
G01*
X53636627Y-114992037D01*
X53806466Y-115043557D01*
X53962991Y-115127222D01*
X53998729Y-115156552D01*
X54100186Y-115239814D01*
X54183448Y-115341271D01*
X54212778Y-115377009D01*
X54296443Y-115533534D01*
X54347963Y-115703373D01*
X54365359Y-115880000D01*
X54347963Y-116056627D01*
X54296443Y-116226466D01*
X54212778Y-116382991D01*
X54183448Y-116418729D01*
X54100186Y-116520186D01*
X53998729Y-116603448D01*
X53962991Y-116632778D01*
X53806466Y-116716443D01*
X53636627Y-116767963D01*
X53570442Y-116774482D01*
X53504260Y-116781000D01*
X53415740Y-116781000D01*
X53349558Y-116774482D01*
X53283373Y-116767963D01*
X53113534Y-116716443D01*
X52957009Y-116632778D01*
X52921271Y-116603448D01*
X52819814Y-116520186D01*
X52736552Y-116418729D01*
X52707222Y-116382991D01*
X52623557Y-116226466D01*
X52572037Y-116056627D01*
X52554641Y-115880000D01*
X52572037Y-115703373D01*
X52623557Y-115533534D01*
X52707222Y-115377009D01*
X52736552Y-115341271D01*
X52819814Y-115239814D01*
X52921271Y-115156552D01*
X52957009Y-115127222D01*
X53113534Y-115043557D01*
X53283373Y-114992037D01*
X53349558Y-114985518D01*
X53415740Y-114979000D01*
X53504260Y-114979000D01*
X53570442Y-114985518D01*
X53570442Y-114985518D01*
G37*
G36*
X77786823Y-112661313D02*
G01*
X77913743Y-112699814D01*
X77939143Y-112707519D01*
X77947242Y-112709976D01*
X78079906Y-112780886D01*
X78095078Y-112788996D01*
X78224659Y-112895341D01*
X78331004Y-113024922D01*
X78331005Y-113024924D01*
X78410024Y-113172758D01*
X78410025Y-113172761D01*
X78410151Y-113173177D01*
X78458687Y-113333177D01*
X78475117Y-113500000D01*
X78458687Y-113666823D01*
X78410024Y-113827242D01*
X78365246Y-113911015D01*
X78331004Y-113975078D01*
X78224659Y-114104659D01*
X78095078Y-114211004D01*
X78095076Y-114211005D01*
X77947242Y-114290024D01*
X77786823Y-114338687D01*
X77661804Y-114351000D01*
X77578196Y-114351000D01*
X77453177Y-114338687D01*
X77292758Y-114290024D01*
X77144924Y-114211005D01*
X77144922Y-114211004D01*
X77015341Y-114104659D01*
X76908996Y-113975078D01*
X76874754Y-113911015D01*
X76829976Y-113827242D01*
X76781313Y-113666823D01*
X76764883Y-113500000D01*
X76781313Y-113333177D01*
X76829849Y-113173177D01*
X76829975Y-113172761D01*
X76829976Y-113172758D01*
X76908995Y-113024924D01*
X76908996Y-113024922D01*
X77015341Y-112895341D01*
X77144922Y-112788996D01*
X77160094Y-112780886D01*
X77292758Y-112709976D01*
X77300858Y-112707519D01*
X77326257Y-112699814D01*
X77453177Y-112661313D01*
X77578196Y-112649000D01*
X77661804Y-112649000D01*
X77786823Y-112661313D01*
X77786823Y-112661313D01*
G37*
G36*
X70851000Y-114351000D02*
G01*
X69149000Y-114351000D01*
X69149000Y-112649000D01*
X70851000Y-112649000D01*
X70851000Y-114351000D01*
X70851000Y-114351000D01*
G37*
G36*
X53570443Y-112445519D02*
G01*
X53636627Y-112452037D01*
X53806466Y-112503557D01*
X53962991Y-112587222D01*
X53998729Y-112616552D01*
X54100186Y-112699814D01*
X54183448Y-112801271D01*
X54212778Y-112837009D01*
X54296443Y-112993534D01*
X54347963Y-113163373D01*
X54365359Y-113340000D01*
X54347963Y-113516627D01*
X54296443Y-113686466D01*
X54212778Y-113842991D01*
X54183448Y-113878729D01*
X54100186Y-113980186D01*
X53998729Y-114063448D01*
X53962991Y-114092778D01*
X53806466Y-114176443D01*
X53636627Y-114227963D01*
X53570443Y-114234481D01*
X53504260Y-114241000D01*
X53415740Y-114241000D01*
X53349557Y-114234481D01*
X53283373Y-114227963D01*
X53113534Y-114176443D01*
X52957009Y-114092778D01*
X52921271Y-114063448D01*
X52819814Y-113980186D01*
X52736552Y-113878729D01*
X52707222Y-113842991D01*
X52623557Y-113686466D01*
X52572037Y-113516627D01*
X52554641Y-113340000D01*
X52572037Y-113163373D01*
X52623557Y-112993534D01*
X52707222Y-112837009D01*
X52736552Y-112801271D01*
X52819814Y-112699814D01*
X52921271Y-112616552D01*
X52957009Y-112587222D01*
X53113534Y-112503557D01*
X53283373Y-112452037D01*
X53349557Y-112445519D01*
X53415740Y-112439000D01*
X53504260Y-112439000D01*
X53570443Y-112445519D01*
X53570443Y-112445519D01*
G37*
G36*
X56110443Y-112445519D02*
G01*
X56176627Y-112452037D01*
X56346466Y-112503557D01*
X56502991Y-112587222D01*
X56538729Y-112616552D01*
X56640186Y-112699814D01*
X56723448Y-112801271D01*
X56752778Y-112837009D01*
X56836443Y-112993534D01*
X56887963Y-113163373D01*
X56905359Y-113340000D01*
X56887963Y-113516627D01*
X56836443Y-113686466D01*
X56752778Y-113842991D01*
X56723448Y-113878729D01*
X56640186Y-113980186D01*
X56538729Y-114063448D01*
X56502991Y-114092778D01*
X56346466Y-114176443D01*
X56176627Y-114227963D01*
X56110443Y-114234481D01*
X56044260Y-114241000D01*
X55955740Y-114241000D01*
X55889557Y-114234481D01*
X55823373Y-114227963D01*
X55653534Y-114176443D01*
X55497009Y-114092778D01*
X55461271Y-114063448D01*
X55359814Y-113980186D01*
X55276552Y-113878729D01*
X55247222Y-113842991D01*
X55163557Y-113686466D01*
X55112037Y-113516627D01*
X55094641Y-113340000D01*
X55112037Y-113163373D01*
X55163557Y-112993534D01*
X55247222Y-112837009D01*
X55276552Y-112801271D01*
X55359814Y-112699814D01*
X55461271Y-112616552D01*
X55497009Y-112587222D01*
X55653534Y-112503557D01*
X55823373Y-112452037D01*
X55889557Y-112445519D01*
X55955740Y-112439000D01*
X56044260Y-112439000D01*
X56110443Y-112445519D01*
X56110443Y-112445519D01*
G37*
G36*
X67166823Y-112501313D02*
G01*
X67327242Y-112549976D01*
X67459906Y-112620886D01*
X67475078Y-112628996D01*
X67604659Y-112735341D01*
X67711004Y-112864922D01*
X67711005Y-112864924D01*
X67790024Y-113012758D01*
X67838687Y-113173177D01*
X67855117Y-113340000D01*
X67838687Y-113506823D01*
X67835713Y-113516627D01*
X67790151Y-113666825D01*
X67790024Y-113667242D01*
X67779747Y-113686468D01*
X67711004Y-113815078D01*
X67604659Y-113944659D01*
X67475078Y-114051004D01*
X67475076Y-114051005D01*
X67327242Y-114130024D01*
X67166823Y-114178687D01*
X67041804Y-114191000D01*
X66958196Y-114191000D01*
X66833177Y-114178687D01*
X66672758Y-114130024D01*
X66524924Y-114051005D01*
X66524922Y-114051004D01*
X66395341Y-113944659D01*
X66288996Y-113815078D01*
X66220253Y-113686468D01*
X66209976Y-113667242D01*
X66209850Y-113666825D01*
X66164287Y-113516627D01*
X66161313Y-113506823D01*
X66144883Y-113340000D01*
X66161313Y-113173177D01*
X66209976Y-113012758D01*
X66288995Y-112864924D01*
X66288996Y-112864922D01*
X66395341Y-112735341D01*
X66524922Y-112628996D01*
X66540094Y-112620886D01*
X66672758Y-112549976D01*
X66833177Y-112501313D01*
X66958196Y-112489000D01*
X67041804Y-112489000D01*
X67166823Y-112501313D01*
X67166823Y-112501313D01*
G37*
G36*
X63248228Y-112431703D02*
G01*
X63403100Y-112495853D01*
X63542481Y-112588985D01*
X63661015Y-112707519D01*
X63754147Y-112846900D01*
X63818297Y-113001772D01*
X63851000Y-113166184D01*
X63851000Y-113333816D01*
X63818297Y-113498228D01*
X63754147Y-113653100D01*
X63661015Y-113792481D01*
X63542481Y-113911015D01*
X63403100Y-114004147D01*
X63248228Y-114068297D01*
X63083816Y-114101000D01*
X62916184Y-114101000D01*
X62751772Y-114068297D01*
X62596900Y-114004147D01*
X62457519Y-113911015D01*
X62338985Y-113792481D01*
X62245853Y-113653100D01*
X62181703Y-113498228D01*
X62149000Y-113333816D01*
X62149000Y-113166184D01*
X62181703Y-113001772D01*
X62245853Y-112846900D01*
X62338985Y-112707519D01*
X62457519Y-112588985D01*
X62596900Y-112495853D01*
X62751772Y-112431703D01*
X62916184Y-112399000D01*
X63083816Y-112399000D01*
X63248228Y-112431703D01*
X63248228Y-112431703D01*
G37*
G36*
X90277395Y-110585546D02*
G01*
X90450466Y-110657234D01*
X90450467Y-110657235D01*
X90606227Y-110761310D01*
X90738690Y-110893773D01*
X90781284Y-110957520D01*
X90842766Y-111049534D01*
X90914454Y-111222605D01*
X90951000Y-111406333D01*
X90951000Y-111593667D01*
X90914454Y-111777395D01*
X90842766Y-111950466D01*
X90842765Y-111950467D01*
X90738690Y-112106227D01*
X90606227Y-112238690D01*
X90583092Y-112254148D01*
X90450466Y-112342766D01*
X90277395Y-112414454D01*
X90093667Y-112451000D01*
X89906333Y-112451000D01*
X89722605Y-112414454D01*
X89549534Y-112342766D01*
X89416908Y-112254148D01*
X89393773Y-112238690D01*
X89261310Y-112106227D01*
X89157235Y-111950467D01*
X89157234Y-111950466D01*
X89085546Y-111777395D01*
X89049000Y-111593667D01*
X89049000Y-111406333D01*
X89085546Y-111222605D01*
X89157234Y-111049534D01*
X89218716Y-110957520D01*
X89261310Y-110893773D01*
X89393773Y-110761310D01*
X89549533Y-110657235D01*
X89549534Y-110657234D01*
X89722605Y-110585546D01*
X89906333Y-110549000D01*
X90093667Y-110549000D01*
X90277395Y-110585546D01*
X90277395Y-110585546D01*
G37*
G36*
X81248228Y-110681703D02*
G01*
X81403100Y-110745853D01*
X81542481Y-110838985D01*
X81661015Y-110957519D01*
X81754147Y-111096900D01*
X81818297Y-111251772D01*
X81851000Y-111416184D01*
X81851000Y-111583816D01*
X81818297Y-111748228D01*
X81754147Y-111903100D01*
X81661015Y-112042481D01*
X81542481Y-112161015D01*
X81403100Y-112254147D01*
X81248228Y-112318297D01*
X81083816Y-112351000D01*
X80916184Y-112351000D01*
X80751772Y-112318297D01*
X80596900Y-112254147D01*
X80457519Y-112161015D01*
X80338985Y-112042481D01*
X80245853Y-111903100D01*
X80181703Y-111748228D01*
X80149000Y-111583816D01*
X80149000Y-111416184D01*
X80181703Y-111251772D01*
X80245853Y-111096900D01*
X80338985Y-110957519D01*
X80457519Y-110838985D01*
X80596900Y-110745853D01*
X80751772Y-110681703D01*
X80916184Y-110649000D01*
X81083816Y-110649000D01*
X81248228Y-110681703D01*
X81248228Y-110681703D01*
G37*
G36*
X56110442Y-109905518D02*
G01*
X56176627Y-109912037D01*
X56346466Y-109963557D01*
X56502991Y-110047222D01*
X56538729Y-110076552D01*
X56640186Y-110159814D01*
X56716478Y-110252778D01*
X56752778Y-110297009D01*
X56836443Y-110453534D01*
X56887963Y-110623373D01*
X56905359Y-110800000D01*
X56887963Y-110976627D01*
X56836443Y-111146466D01*
X56752778Y-111302991D01*
X56723448Y-111338729D01*
X56640186Y-111440186D01*
X56538729Y-111523448D01*
X56502991Y-111552778D01*
X56346466Y-111636443D01*
X56176627Y-111687963D01*
X56110442Y-111694482D01*
X56044260Y-111701000D01*
X55955740Y-111701000D01*
X55889558Y-111694482D01*
X55823373Y-111687963D01*
X55653534Y-111636443D01*
X55497009Y-111552778D01*
X55461271Y-111523448D01*
X55359814Y-111440186D01*
X55276552Y-111338729D01*
X55247222Y-111302991D01*
X55163557Y-111146466D01*
X55112037Y-110976627D01*
X55094641Y-110800000D01*
X55112037Y-110623373D01*
X55163557Y-110453534D01*
X55247222Y-110297009D01*
X55283522Y-110252778D01*
X55359814Y-110159814D01*
X55461271Y-110076552D01*
X55497009Y-110047222D01*
X55653534Y-109963557D01*
X55823373Y-109912037D01*
X55889558Y-109905518D01*
X55955740Y-109899000D01*
X56044260Y-109899000D01*
X56110442Y-109905518D01*
X56110442Y-109905518D01*
G37*
G36*
X53570442Y-109905518D02*
G01*
X53636627Y-109912037D01*
X53806466Y-109963557D01*
X53962991Y-110047222D01*
X53998729Y-110076552D01*
X54100186Y-110159814D01*
X54176478Y-110252778D01*
X54212778Y-110297009D01*
X54296443Y-110453534D01*
X54347963Y-110623373D01*
X54365359Y-110800000D01*
X54347963Y-110976627D01*
X54296443Y-111146466D01*
X54212778Y-111302991D01*
X54183448Y-111338729D01*
X54100186Y-111440186D01*
X53998729Y-111523448D01*
X53962991Y-111552778D01*
X53806466Y-111636443D01*
X53636627Y-111687963D01*
X53570442Y-111694482D01*
X53504260Y-111701000D01*
X53415740Y-111701000D01*
X53349558Y-111694482D01*
X53283373Y-111687963D01*
X53113534Y-111636443D01*
X52957009Y-111552778D01*
X52921271Y-111523448D01*
X52819814Y-111440186D01*
X52736552Y-111338729D01*
X52707222Y-111302991D01*
X52623557Y-111146466D01*
X52572037Y-110976627D01*
X52554641Y-110800000D01*
X52572037Y-110623373D01*
X52623557Y-110453534D01*
X52707222Y-110297009D01*
X52743522Y-110252778D01*
X52819814Y-110159814D01*
X52921271Y-110076552D01*
X52957009Y-110047222D01*
X53113534Y-109963557D01*
X53283373Y-109912037D01*
X53349558Y-109905518D01*
X53415740Y-109899000D01*
X53504260Y-109899000D01*
X53570442Y-109905518D01*
X53570442Y-109905518D01*
G37*
G36*
X69650442Y-108605518D02*
G01*
X69716627Y-108612037D01*
X69886466Y-108663557D01*
X70042991Y-108747222D01*
X70062203Y-108762989D01*
X70180186Y-108859814D01*
X70263448Y-108961271D01*
X70292778Y-108997009D01*
X70376443Y-109153534D01*
X70427963Y-109323373D01*
X70445359Y-109500000D01*
X70427963Y-109676627D01*
X70376443Y-109846466D01*
X70292778Y-110002991D01*
X70263448Y-110038729D01*
X70180186Y-110140186D01*
X70078729Y-110223448D01*
X70042991Y-110252778D01*
X69886466Y-110336443D01*
X69716627Y-110387963D01*
X69650442Y-110394482D01*
X69584260Y-110401000D01*
X69495740Y-110401000D01*
X69429558Y-110394482D01*
X69363373Y-110387963D01*
X69193534Y-110336443D01*
X69037009Y-110252778D01*
X69001271Y-110223448D01*
X68899814Y-110140186D01*
X68816552Y-110038729D01*
X68787222Y-110002991D01*
X68703557Y-109846466D01*
X68652037Y-109676627D01*
X68634641Y-109500000D01*
X68652037Y-109323373D01*
X68703557Y-109153534D01*
X68787222Y-108997009D01*
X68816552Y-108961271D01*
X68899814Y-108859814D01*
X69017797Y-108762989D01*
X69037009Y-108747222D01*
X69193534Y-108663557D01*
X69363373Y-108612037D01*
X69429558Y-108605518D01*
X69495740Y-108599000D01*
X69584260Y-108599000D01*
X69650442Y-108605518D01*
X69650442Y-108605518D01*
G37*
G36*
X67901000Y-110401000D02*
G01*
X66099000Y-110401000D01*
X66099000Y-108599000D01*
X67901000Y-108599000D01*
X67901000Y-110401000D01*
X67901000Y-110401000D01*
G37*
G36*
X90277395Y-108085546D02*
G01*
X90450466Y-108157234D01*
X90450467Y-108157235D01*
X90606227Y-108261310D01*
X90738690Y-108393773D01*
X90767324Y-108436627D01*
X90842766Y-108549534D01*
X90914454Y-108722605D01*
X90951000Y-108906333D01*
X90951000Y-109093667D01*
X90914454Y-109277395D01*
X90842766Y-109450466D01*
X90842765Y-109450467D01*
X90738690Y-109606227D01*
X90606227Y-109738690D01*
X90527818Y-109791081D01*
X90450466Y-109842766D01*
X90277395Y-109914454D01*
X90093667Y-109951000D01*
X89906333Y-109951000D01*
X89722605Y-109914454D01*
X89549534Y-109842766D01*
X89472182Y-109791081D01*
X89393773Y-109738690D01*
X89261310Y-109606227D01*
X89157235Y-109450467D01*
X89157234Y-109450466D01*
X89085546Y-109277395D01*
X89049000Y-109093667D01*
X89049000Y-108906333D01*
X89085546Y-108722605D01*
X89157234Y-108549534D01*
X89232676Y-108436627D01*
X89261310Y-108393773D01*
X89393773Y-108261310D01*
X89549533Y-108157235D01*
X89549534Y-108157234D01*
X89722605Y-108085546D01*
X89906333Y-108049000D01*
X90093667Y-108049000D01*
X90277395Y-108085546D01*
X90277395Y-108085546D01*
G37*
G36*
X53570442Y-107365518D02*
G01*
X53636627Y-107372037D01*
X53806466Y-107423557D01*
X53962991Y-107507222D01*
X53998729Y-107536552D01*
X54100186Y-107619814D01*
X54183448Y-107721271D01*
X54212778Y-107757009D01*
X54296443Y-107913534D01*
X54347963Y-108083373D01*
X54365359Y-108260000D01*
X54347963Y-108436627D01*
X54296443Y-108606466D01*
X54212778Y-108762991D01*
X54183448Y-108798729D01*
X54100186Y-108900186D01*
X53998729Y-108983448D01*
X53962991Y-109012778D01*
X53962989Y-109012779D01*
X53811660Y-109093667D01*
X53806466Y-109096443D01*
X53636627Y-109147963D01*
X53570442Y-109154482D01*
X53504260Y-109161000D01*
X53415740Y-109161000D01*
X53349558Y-109154482D01*
X53283373Y-109147963D01*
X53113534Y-109096443D01*
X53108341Y-109093667D01*
X52957011Y-109012779D01*
X52957009Y-109012778D01*
X52921271Y-108983448D01*
X52819814Y-108900186D01*
X52736552Y-108798729D01*
X52707222Y-108762991D01*
X52623557Y-108606466D01*
X52572037Y-108436627D01*
X52554641Y-108260000D01*
X52572037Y-108083373D01*
X52623557Y-107913534D01*
X52707222Y-107757009D01*
X52736552Y-107721271D01*
X52819814Y-107619814D01*
X52921271Y-107536552D01*
X52957009Y-107507222D01*
X53113534Y-107423557D01*
X53283373Y-107372037D01*
X53349558Y-107365518D01*
X53415740Y-107359000D01*
X53504260Y-107359000D01*
X53570442Y-107365518D01*
X53570442Y-107365518D01*
G37*
G36*
X56110442Y-107365518D02*
G01*
X56176627Y-107372037D01*
X56346466Y-107423557D01*
X56502991Y-107507222D01*
X56538729Y-107536552D01*
X56640186Y-107619814D01*
X56723448Y-107721271D01*
X56752778Y-107757009D01*
X56836443Y-107913534D01*
X56887963Y-108083373D01*
X56905359Y-108260000D01*
X56887963Y-108436627D01*
X56836443Y-108606466D01*
X56752778Y-108762991D01*
X56723448Y-108798729D01*
X56640186Y-108900186D01*
X56538729Y-108983448D01*
X56502991Y-109012778D01*
X56502989Y-109012779D01*
X56351660Y-109093667D01*
X56346466Y-109096443D01*
X56176627Y-109147963D01*
X56110442Y-109154482D01*
X56044260Y-109161000D01*
X55955740Y-109161000D01*
X55889558Y-109154482D01*
X55823373Y-109147963D01*
X55653534Y-109096443D01*
X55648341Y-109093667D01*
X55497011Y-109012779D01*
X55497009Y-109012778D01*
X55461271Y-108983448D01*
X55359814Y-108900186D01*
X55276552Y-108798729D01*
X55247222Y-108762991D01*
X55163557Y-108606466D01*
X55112037Y-108436627D01*
X55094641Y-108260000D01*
X55112037Y-108083373D01*
X55163557Y-107913534D01*
X55247222Y-107757009D01*
X55276552Y-107721271D01*
X55359814Y-107619814D01*
X55461271Y-107536552D01*
X55497009Y-107507222D01*
X55653534Y-107423557D01*
X55823373Y-107372037D01*
X55889558Y-107365518D01*
X55955740Y-107359000D01*
X56044260Y-107359000D01*
X56110442Y-107365518D01*
X56110442Y-107365518D01*
G37*
G36*
X90277395Y-105585546D02*
G01*
X90450466Y-105657234D01*
X90487086Y-105681703D01*
X90606227Y-105761310D01*
X90738690Y-105893773D01*
X90781284Y-105957520D01*
X90842766Y-106049534D01*
X90914454Y-106222605D01*
X90951000Y-106406333D01*
X90951000Y-106593667D01*
X90914454Y-106777395D01*
X90842766Y-106950466D01*
X90842765Y-106950467D01*
X90738690Y-107106227D01*
X90606227Y-107238690D01*
X90583092Y-107254148D01*
X90450466Y-107342766D01*
X90277395Y-107414454D01*
X90093667Y-107451000D01*
X89906333Y-107451000D01*
X89722605Y-107414454D01*
X89549534Y-107342766D01*
X89416908Y-107254148D01*
X89393773Y-107238690D01*
X89261310Y-107106227D01*
X89157235Y-106950467D01*
X89157234Y-106950466D01*
X89085546Y-106777395D01*
X89049000Y-106593667D01*
X89049000Y-106406333D01*
X89085546Y-106222605D01*
X89157234Y-106049534D01*
X89218716Y-105957520D01*
X89261310Y-105893773D01*
X89393773Y-105761310D01*
X89512914Y-105681703D01*
X89549534Y-105657234D01*
X89722605Y-105585546D01*
X89906333Y-105549000D01*
X90093667Y-105549000D01*
X90277395Y-105585546D01*
X90277395Y-105585546D01*
G37*
G36*
X81248228Y-105681703D02*
G01*
X81403100Y-105745853D01*
X81542481Y-105838985D01*
X81661015Y-105957519D01*
X81754147Y-106096900D01*
X81818297Y-106251772D01*
X81851000Y-106416184D01*
X81851000Y-106583816D01*
X81818297Y-106748228D01*
X81754147Y-106903100D01*
X81661015Y-107042481D01*
X81542481Y-107161015D01*
X81403100Y-107254147D01*
X81248228Y-107318297D01*
X81083816Y-107351000D01*
X80916184Y-107351000D01*
X80751772Y-107318297D01*
X80596900Y-107254147D01*
X80457519Y-107161015D01*
X80338985Y-107042481D01*
X80245853Y-106903100D01*
X80181703Y-106748228D01*
X80149000Y-106583816D01*
X80149000Y-106416184D01*
X80181703Y-106251772D01*
X80245853Y-106096900D01*
X80338985Y-105957519D01*
X80457519Y-105838985D01*
X80596900Y-105745853D01*
X80751772Y-105681703D01*
X80916184Y-105649000D01*
X81083816Y-105649000D01*
X81248228Y-105681703D01*
X81248228Y-105681703D01*
G37*
G36*
X78326823Y-105161313D02*
G01*
X78487242Y-105209976D01*
X78554361Y-105245852D01*
X78635078Y-105288996D01*
X78764659Y-105395341D01*
X78871004Y-105524922D01*
X78871005Y-105524924D01*
X78950024Y-105672758D01*
X78950025Y-105672761D01*
X78952738Y-105681705D01*
X78998687Y-105833177D01*
X79015117Y-106000000D01*
X78998687Y-106166823D01*
X78950024Y-106327242D01*
X78909477Y-106403100D01*
X78871004Y-106475078D01*
X78764659Y-106604659D01*
X78635078Y-106711004D01*
X78635076Y-106711005D01*
X78487242Y-106790024D01*
X78326823Y-106838687D01*
X78201804Y-106851000D01*
X78118196Y-106851000D01*
X77993177Y-106838687D01*
X77832758Y-106790024D01*
X77684924Y-106711005D01*
X77684922Y-106711004D01*
X77555341Y-106604659D01*
X77448996Y-106475078D01*
X77410523Y-106403100D01*
X77369976Y-106327242D01*
X77321313Y-106166823D01*
X77304883Y-106000000D01*
X77321313Y-105833177D01*
X77367262Y-105681705D01*
X77369975Y-105672761D01*
X77369976Y-105672758D01*
X77448995Y-105524924D01*
X77448996Y-105524922D01*
X77555341Y-105395341D01*
X77684922Y-105288996D01*
X77765639Y-105245852D01*
X77832758Y-105209976D01*
X77993177Y-105161313D01*
X78118196Y-105149000D01*
X78201804Y-105149000D01*
X78326823Y-105161313D01*
X78326823Y-105161313D01*
G37*
G36*
X68248228Y-105181703D02*
G01*
X68403100Y-105245853D01*
X68542481Y-105338985D01*
X68661015Y-105457519D01*
X68754147Y-105596900D01*
X68818297Y-105751772D01*
X68851000Y-105916184D01*
X68851000Y-106083816D01*
X68818297Y-106248228D01*
X68754147Y-106403100D01*
X68661015Y-106542481D01*
X68542481Y-106661015D01*
X68403100Y-106754147D01*
X68248228Y-106818297D01*
X68083816Y-106851000D01*
X67916184Y-106851000D01*
X67751772Y-106818297D01*
X67596900Y-106754147D01*
X67457519Y-106661015D01*
X67338985Y-106542481D01*
X67245853Y-106403100D01*
X67181703Y-106248228D01*
X67149000Y-106083816D01*
X67149000Y-105916184D01*
X67181703Y-105751772D01*
X67245853Y-105596900D01*
X67338985Y-105457519D01*
X67457519Y-105338985D01*
X67596900Y-105245853D01*
X67751772Y-105181703D01*
X67916184Y-105149000D01*
X68083816Y-105149000D01*
X68248228Y-105181703D01*
X68248228Y-105181703D01*
G37*
G36*
X56110443Y-104825519D02*
G01*
X56176627Y-104832037D01*
X56346466Y-104883557D01*
X56502991Y-104967222D01*
X56538729Y-104996552D01*
X56640186Y-105079814D01*
X56707070Y-105161314D01*
X56752778Y-105217009D01*
X56836443Y-105373534D01*
X56887963Y-105543373D01*
X56905359Y-105720000D01*
X56887963Y-105896627D01*
X56836443Y-106066466D01*
X56752778Y-106222991D01*
X56729159Y-106251771D01*
X56640186Y-106360186D01*
X56538729Y-106443448D01*
X56502991Y-106472778D01*
X56346466Y-106556443D01*
X56176627Y-106607963D01*
X56110442Y-106614482D01*
X56044260Y-106621000D01*
X55955740Y-106621000D01*
X55889558Y-106614482D01*
X55823373Y-106607963D01*
X55653534Y-106556443D01*
X55497009Y-106472778D01*
X55461271Y-106443448D01*
X55359814Y-106360186D01*
X55270841Y-106251771D01*
X55247222Y-106222991D01*
X55163557Y-106066466D01*
X55112037Y-105896627D01*
X55094641Y-105720000D01*
X55112037Y-105543373D01*
X55163557Y-105373534D01*
X55247222Y-105217009D01*
X55292930Y-105161314D01*
X55359814Y-105079814D01*
X55461271Y-104996552D01*
X55497009Y-104967222D01*
X55653534Y-104883557D01*
X55823373Y-104832037D01*
X55889557Y-104825519D01*
X55955740Y-104819000D01*
X56044260Y-104819000D01*
X56110443Y-104825519D01*
X56110443Y-104825519D01*
G37*
G36*
X53570443Y-104825519D02*
G01*
X53636627Y-104832037D01*
X53806466Y-104883557D01*
X53962991Y-104967222D01*
X53998729Y-104996552D01*
X54100186Y-105079814D01*
X54167070Y-105161314D01*
X54212778Y-105217009D01*
X54296443Y-105373534D01*
X54347963Y-105543373D01*
X54365359Y-105720000D01*
X54347963Y-105896627D01*
X54296443Y-106066466D01*
X54212778Y-106222991D01*
X54189159Y-106251771D01*
X54100186Y-106360186D01*
X53998729Y-106443448D01*
X53962991Y-106472778D01*
X53806466Y-106556443D01*
X53636627Y-106607963D01*
X53570442Y-106614482D01*
X53504260Y-106621000D01*
X53415740Y-106621000D01*
X53349558Y-106614482D01*
X53283373Y-106607963D01*
X53113534Y-106556443D01*
X52957009Y-106472778D01*
X52921271Y-106443448D01*
X52819814Y-106360186D01*
X52730841Y-106251771D01*
X52707222Y-106222991D01*
X52623557Y-106066466D01*
X52572037Y-105896627D01*
X52554641Y-105720000D01*
X52572037Y-105543373D01*
X52623557Y-105373534D01*
X52707222Y-105217009D01*
X52752930Y-105161314D01*
X52819814Y-105079814D01*
X52921271Y-104996552D01*
X52957009Y-104967222D01*
X53113534Y-104883557D01*
X53283373Y-104832037D01*
X53349557Y-104825519D01*
X53415740Y-104819000D01*
X53504260Y-104819000D01*
X53570443Y-104825519D01*
X53570443Y-104825519D01*
G37*
G36*
X65248228Y-102681703D02*
G01*
X65403100Y-102745853D01*
X65542481Y-102838985D01*
X65661015Y-102957519D01*
X65754147Y-103096900D01*
X65818297Y-103251772D01*
X65851000Y-103416184D01*
X65851000Y-103583816D01*
X65818297Y-103748228D01*
X65754147Y-103903100D01*
X65661015Y-104042481D01*
X65542481Y-104161015D01*
X65403100Y-104254147D01*
X65248228Y-104318297D01*
X65083816Y-104351000D01*
X64916184Y-104351000D01*
X64751772Y-104318297D01*
X64596900Y-104254147D01*
X64457519Y-104161015D01*
X64338985Y-104042481D01*
X64245853Y-103903100D01*
X64181703Y-103748228D01*
X64149000Y-103583816D01*
X64149000Y-103416184D01*
X64181703Y-103251772D01*
X64245853Y-103096900D01*
X64338985Y-102957519D01*
X64457519Y-102838985D01*
X64596900Y-102745853D01*
X64751772Y-102681703D01*
X64916184Y-102649000D01*
X65083816Y-102649000D01*
X65248228Y-102681703D01*
X65248228Y-102681703D01*
G37*
G36*
X77286823Y-101781313D02*
G01*
X77447242Y-101829976D01*
X77579906Y-101900886D01*
X77595078Y-101908996D01*
X77724659Y-102015341D01*
X77831004Y-102144922D01*
X77831005Y-102144924D01*
X77910024Y-102292758D01*
X77958687Y-102453177D01*
X77975117Y-102620000D01*
X77958687Y-102786823D01*
X77910024Y-102947242D01*
X77839114Y-103079906D01*
X77831004Y-103095078D01*
X77724659Y-103224659D01*
X77595078Y-103331004D01*
X77595076Y-103331005D01*
X77447242Y-103410024D01*
X77286823Y-103458687D01*
X77161804Y-103471000D01*
X77078196Y-103471000D01*
X76953177Y-103458687D01*
X76792758Y-103410024D01*
X76644924Y-103331005D01*
X76644922Y-103331004D01*
X76515341Y-103224659D01*
X76408996Y-103095078D01*
X76400886Y-103079906D01*
X76329976Y-102947242D01*
X76281313Y-102786823D01*
X76264883Y-102620000D01*
X76281313Y-102453177D01*
X76329976Y-102292758D01*
X76408995Y-102144924D01*
X76408996Y-102144922D01*
X76515341Y-102015341D01*
X76644922Y-101908996D01*
X76660094Y-101900886D01*
X76792758Y-101829976D01*
X76953177Y-101781313D01*
X77078196Y-101769000D01*
X77161804Y-101769000D01*
X77286823Y-101781313D01*
X77286823Y-101781313D01*
G37*
G36*
X69666823Y-101781313D02*
G01*
X69827242Y-101829976D01*
X69959906Y-101900886D01*
X69975078Y-101908996D01*
X70104659Y-102015341D01*
X70211004Y-102144922D01*
X70211005Y-102144924D01*
X70290024Y-102292758D01*
X70338687Y-102453177D01*
X70355117Y-102620000D01*
X70338687Y-102786823D01*
X70290024Y-102947242D01*
X70219114Y-103079906D01*
X70211004Y-103095078D01*
X70104659Y-103224659D01*
X69975078Y-103331004D01*
X69975076Y-103331005D01*
X69827242Y-103410024D01*
X69666823Y-103458687D01*
X69541804Y-103471000D01*
X69458196Y-103471000D01*
X69333177Y-103458687D01*
X69172758Y-103410024D01*
X69024924Y-103331005D01*
X69024922Y-103331004D01*
X68895341Y-103224659D01*
X68788996Y-103095078D01*
X68780886Y-103079906D01*
X68709976Y-102947242D01*
X68661313Y-102786823D01*
X68644883Y-102620000D01*
X68661313Y-102453177D01*
X68709976Y-102292758D01*
X68788995Y-102144924D01*
X68788996Y-102144922D01*
X68895341Y-102015341D01*
X69024922Y-101908996D01*
X69040094Y-101900886D01*
X69172758Y-101829976D01*
X69333177Y-101781313D01*
X69458196Y-101769000D01*
X69541804Y-101769000D01*
X69666823Y-101781313D01*
X69666823Y-101781313D01*
G37*
G36*
X81248228Y-101681703D02*
G01*
X81403100Y-101745853D01*
X81542481Y-101838985D01*
X81661015Y-101957519D01*
X81754147Y-102096900D01*
X81818297Y-102251772D01*
X81851000Y-102416184D01*
X81851000Y-102583816D01*
X81818297Y-102748228D01*
X81754147Y-102903100D01*
X81661015Y-103042481D01*
X81542481Y-103161015D01*
X81403100Y-103254147D01*
X81248228Y-103318297D01*
X81083816Y-103351000D01*
X80916184Y-103351000D01*
X80751772Y-103318297D01*
X80596900Y-103254147D01*
X80457519Y-103161015D01*
X80338985Y-103042481D01*
X80245853Y-102903100D01*
X80181703Y-102748228D01*
X80149000Y-102583816D01*
X80149000Y-102416184D01*
X80181703Y-102251772D01*
X80245853Y-102096900D01*
X80338985Y-101957519D01*
X80457519Y-101838985D01*
X80596900Y-101745853D01*
X80751772Y-101681703D01*
X80916184Y-101649000D01*
X81083816Y-101649000D01*
X81248228Y-101681703D01*
X81248228Y-101681703D01*
G37*
G36*
X77286823Y-99241313D02*
G01*
X77447242Y-99289976D01*
X77561410Y-99351000D01*
X77595078Y-99368996D01*
X77724659Y-99475341D01*
X77831004Y-99604922D01*
X77831005Y-99604924D01*
X77910024Y-99752758D01*
X77958687Y-99913177D01*
X77975117Y-100080000D01*
X77958687Y-100246823D01*
X77910024Y-100407242D01*
X77839114Y-100539906D01*
X77831004Y-100555078D01*
X77724659Y-100684659D01*
X77595078Y-100791004D01*
X77595076Y-100791005D01*
X77447242Y-100870024D01*
X77286823Y-100918687D01*
X77161804Y-100931000D01*
X77078196Y-100931000D01*
X76953177Y-100918687D01*
X76792758Y-100870024D01*
X76644924Y-100791005D01*
X76644922Y-100791004D01*
X76515341Y-100684659D01*
X76408996Y-100555078D01*
X76400886Y-100539906D01*
X76329976Y-100407242D01*
X76281313Y-100246823D01*
X76264883Y-100080000D01*
X76281313Y-99913177D01*
X76329976Y-99752758D01*
X76408995Y-99604924D01*
X76408996Y-99604922D01*
X76515341Y-99475341D01*
X76644922Y-99368996D01*
X76678590Y-99351000D01*
X76792758Y-99289976D01*
X76953177Y-99241313D01*
X77078196Y-99229000D01*
X77161804Y-99229000D01*
X77286823Y-99241313D01*
X77286823Y-99241313D01*
G37*
G36*
X69666823Y-99241313D02*
G01*
X69827242Y-99289976D01*
X69941410Y-99351000D01*
X69975078Y-99368996D01*
X70104659Y-99475341D01*
X70211004Y-99604922D01*
X70211005Y-99604924D01*
X70290024Y-99752758D01*
X70338687Y-99913177D01*
X70355117Y-100080000D01*
X70338687Y-100246823D01*
X70290024Y-100407242D01*
X70219114Y-100539906D01*
X70211004Y-100555078D01*
X70104659Y-100684659D01*
X69975078Y-100791004D01*
X69975076Y-100791005D01*
X69827242Y-100870024D01*
X69666823Y-100918687D01*
X69541804Y-100931000D01*
X69458196Y-100931000D01*
X69333177Y-100918687D01*
X69172758Y-100870024D01*
X69024924Y-100791005D01*
X69024922Y-100791004D01*
X68895341Y-100684659D01*
X68788996Y-100555078D01*
X68780886Y-100539906D01*
X68709976Y-100407242D01*
X68661313Y-100246823D01*
X68644883Y-100080000D01*
X68661313Y-99913177D01*
X68709976Y-99752758D01*
X68788995Y-99604924D01*
X68788996Y-99604922D01*
X68895341Y-99475341D01*
X69024922Y-99368996D01*
X69058590Y-99351000D01*
X69172758Y-99289976D01*
X69333177Y-99241313D01*
X69458196Y-99229000D01*
X69541804Y-99229000D01*
X69666823Y-99241313D01*
X69666823Y-99241313D01*
G37*
G36*
X65248228Y-97681703D02*
G01*
X65403100Y-97745853D01*
X65542481Y-97838985D01*
X65661015Y-97957519D01*
X65754147Y-98096900D01*
X65818297Y-98251772D01*
X65851000Y-98416184D01*
X65851000Y-98583816D01*
X65818297Y-98748228D01*
X65754147Y-98903100D01*
X65661015Y-99042481D01*
X65542481Y-99161015D01*
X65403100Y-99254147D01*
X65248228Y-99318297D01*
X65083816Y-99351000D01*
X64916184Y-99351000D01*
X64751772Y-99318297D01*
X64596900Y-99254147D01*
X64457519Y-99161015D01*
X64338985Y-99042481D01*
X64245853Y-98903100D01*
X64181703Y-98748228D01*
X64149000Y-98583816D01*
X64149000Y-98416184D01*
X64181703Y-98251772D01*
X64245853Y-98096900D01*
X64338985Y-97957519D01*
X64457519Y-97838985D01*
X64596900Y-97745853D01*
X64751772Y-97681703D01*
X64916184Y-97649000D01*
X65083816Y-97649000D01*
X65248228Y-97681703D01*
X65248228Y-97681703D01*
G37*
G36*
X69666823Y-96701313D02*
G01*
X69827242Y-96749976D01*
X69959906Y-96820886D01*
X69975078Y-96828996D01*
X70104659Y-96935341D01*
X70211004Y-97064922D01*
X70211005Y-97064924D01*
X70290024Y-97212758D01*
X70338687Y-97373177D01*
X70355117Y-97540000D01*
X70338687Y-97706823D01*
X70290024Y-97867242D01*
X70241770Y-97957519D01*
X70211004Y-98015078D01*
X70104659Y-98144659D01*
X69975078Y-98251004D01*
X69975076Y-98251005D01*
X69827242Y-98330024D01*
X69666823Y-98378687D01*
X69541804Y-98391000D01*
X69458196Y-98391000D01*
X69333177Y-98378687D01*
X69172758Y-98330024D01*
X69024924Y-98251005D01*
X69024922Y-98251004D01*
X68895341Y-98144659D01*
X68788996Y-98015078D01*
X68758230Y-97957519D01*
X68709976Y-97867242D01*
X68661313Y-97706823D01*
X68644883Y-97540000D01*
X68661313Y-97373177D01*
X68709976Y-97212758D01*
X68788995Y-97064924D01*
X68788996Y-97064922D01*
X68895341Y-96935341D01*
X69024922Y-96828996D01*
X69040094Y-96820886D01*
X69172758Y-96749976D01*
X69333177Y-96701313D01*
X69458196Y-96689000D01*
X69541804Y-96689000D01*
X69666823Y-96701313D01*
X69666823Y-96701313D01*
G37*
G36*
X77286823Y-96701313D02*
G01*
X77447242Y-96749976D01*
X77579906Y-96820886D01*
X77595078Y-96828996D01*
X77724659Y-96935341D01*
X77831004Y-97064922D01*
X77831005Y-97064924D01*
X77910024Y-97212758D01*
X77958687Y-97373177D01*
X77975117Y-97540000D01*
X77958687Y-97706823D01*
X77910024Y-97867242D01*
X77861770Y-97957519D01*
X77831004Y-98015078D01*
X77724659Y-98144659D01*
X77595078Y-98251004D01*
X77595076Y-98251005D01*
X77447242Y-98330024D01*
X77286823Y-98378687D01*
X77161804Y-98391000D01*
X77078196Y-98391000D01*
X76953177Y-98378687D01*
X76792758Y-98330024D01*
X76644924Y-98251005D01*
X76644922Y-98251004D01*
X76515341Y-98144659D01*
X76408996Y-98015078D01*
X76378230Y-97957519D01*
X76329976Y-97867242D01*
X76281313Y-97706823D01*
X76264883Y-97540000D01*
X76281313Y-97373177D01*
X76329976Y-97212758D01*
X76408995Y-97064924D01*
X76408996Y-97064922D01*
X76515341Y-96935341D01*
X76644922Y-96828996D01*
X76660094Y-96820886D01*
X76792758Y-96749976D01*
X76953177Y-96701313D01*
X77078196Y-96689000D01*
X77161804Y-96689000D01*
X77286823Y-96701313D01*
X77286823Y-96701313D01*
G37*
G36*
X56150443Y-95765519D02*
G01*
X56216627Y-95772037D01*
X56386466Y-95823557D01*
X56542991Y-95907222D01*
X56578729Y-95936552D01*
X56680186Y-96019814D01*
X56763448Y-96121271D01*
X56792778Y-96157009D01*
X56876443Y-96313534D01*
X56927963Y-96483373D01*
X56945359Y-96660000D01*
X56927963Y-96836627D01*
X56876443Y-97006466D01*
X56792778Y-97162991D01*
X56763448Y-97198729D01*
X56680186Y-97300186D01*
X56591247Y-97373175D01*
X56542991Y-97412778D01*
X56386466Y-97496443D01*
X56216627Y-97547963D01*
X56150443Y-97554481D01*
X56084260Y-97561000D01*
X55995740Y-97561000D01*
X55929557Y-97554481D01*
X55863373Y-97547963D01*
X55693534Y-97496443D01*
X55537009Y-97412778D01*
X55488753Y-97373175D01*
X55399814Y-97300186D01*
X55316552Y-97198729D01*
X55287222Y-97162991D01*
X55203557Y-97006466D01*
X55152037Y-96836627D01*
X55134641Y-96660000D01*
X55152037Y-96483373D01*
X55203557Y-96313534D01*
X55287222Y-96157009D01*
X55316552Y-96121271D01*
X55399814Y-96019814D01*
X55501271Y-95936552D01*
X55537009Y-95907222D01*
X55693534Y-95823557D01*
X55863373Y-95772037D01*
X55929557Y-95765519D01*
X55995740Y-95759000D01*
X56084260Y-95759000D01*
X56150443Y-95765519D01*
X56150443Y-95765519D01*
G37*
G36*
X53610443Y-95765519D02*
G01*
X53676627Y-95772037D01*
X53846466Y-95823557D01*
X54002991Y-95907222D01*
X54038729Y-95936552D01*
X54140186Y-96019814D01*
X54223448Y-96121271D01*
X54252778Y-96157009D01*
X54336443Y-96313534D01*
X54387963Y-96483373D01*
X54405359Y-96660000D01*
X54387963Y-96836627D01*
X54336443Y-97006466D01*
X54252778Y-97162991D01*
X54223448Y-97198729D01*
X54140186Y-97300186D01*
X54051247Y-97373175D01*
X54002991Y-97412778D01*
X53846466Y-97496443D01*
X53676627Y-97547963D01*
X53610443Y-97554481D01*
X53544260Y-97561000D01*
X53455740Y-97561000D01*
X53389557Y-97554481D01*
X53323373Y-97547963D01*
X53153534Y-97496443D01*
X52997009Y-97412778D01*
X52948753Y-97373175D01*
X52859814Y-97300186D01*
X52776552Y-97198729D01*
X52747222Y-97162991D01*
X52663557Y-97006466D01*
X52612037Y-96836627D01*
X52594641Y-96660000D01*
X52612037Y-96483373D01*
X52663557Y-96313534D01*
X52747222Y-96157009D01*
X52776552Y-96121271D01*
X52859814Y-96019814D01*
X52961271Y-95936552D01*
X52997009Y-95907222D01*
X53153534Y-95823557D01*
X53323373Y-95772037D01*
X53389557Y-95765519D01*
X53455740Y-95759000D01*
X53544260Y-95759000D01*
X53610443Y-95765519D01*
X53610443Y-95765519D01*
G37*
G36*
X77286823Y-94161313D02*
G01*
X77447242Y-94209976D01*
X77579906Y-94280886D01*
X77595078Y-94288996D01*
X77724659Y-94395341D01*
X77831004Y-94524922D01*
X77831005Y-94524924D01*
X77910024Y-94672758D01*
X77958687Y-94833177D01*
X77975117Y-95000000D01*
X77958687Y-95166823D01*
X77910024Y-95327242D01*
X77863408Y-95414454D01*
X77831004Y-95475078D01*
X77724659Y-95604659D01*
X77595078Y-95711004D01*
X77595076Y-95711005D01*
X77447242Y-95790024D01*
X77286823Y-95838687D01*
X77161804Y-95851000D01*
X77078196Y-95851000D01*
X76953177Y-95838687D01*
X76792758Y-95790024D01*
X76644924Y-95711005D01*
X76644922Y-95711004D01*
X76515341Y-95604659D01*
X76408996Y-95475078D01*
X76376592Y-95414454D01*
X76329976Y-95327242D01*
X76281313Y-95166823D01*
X76264883Y-95000000D01*
X76281313Y-94833177D01*
X76329976Y-94672758D01*
X76408995Y-94524924D01*
X76408996Y-94524922D01*
X76515341Y-94395341D01*
X76644922Y-94288996D01*
X76660094Y-94280886D01*
X76792758Y-94209976D01*
X76953177Y-94161313D01*
X77078196Y-94149000D01*
X77161804Y-94149000D01*
X77286823Y-94161313D01*
X77286823Y-94161313D01*
G37*
G36*
X70351000Y-95851000D02*
G01*
X68649000Y-95851000D01*
X68649000Y-94149000D01*
X70351000Y-94149000D01*
X70351000Y-95851000D01*
X70351000Y-95851000D01*
G37*
G36*
X90277395Y-93585546D02*
G01*
X90450466Y-93657234D01*
X90450467Y-93657235D01*
X90606227Y-93761310D01*
X90738690Y-93893773D01*
X90738691Y-93893775D01*
X90842766Y-94049534D01*
X90914454Y-94222605D01*
X90951000Y-94406333D01*
X90951000Y-94593667D01*
X90914454Y-94777395D01*
X90842766Y-94950466D01*
X90842765Y-94950467D01*
X90738690Y-95106227D01*
X90606227Y-95238690D01*
X90527818Y-95291081D01*
X90450466Y-95342766D01*
X90277395Y-95414454D01*
X90093667Y-95451000D01*
X89906333Y-95451000D01*
X89722605Y-95414454D01*
X89549534Y-95342766D01*
X89472182Y-95291081D01*
X89393773Y-95238690D01*
X89261310Y-95106227D01*
X89157235Y-94950467D01*
X89157234Y-94950466D01*
X89085546Y-94777395D01*
X89049000Y-94593667D01*
X89049000Y-94406333D01*
X89085546Y-94222605D01*
X89157234Y-94049534D01*
X89261309Y-93893775D01*
X89261310Y-93893773D01*
X89393773Y-93761310D01*
X89549533Y-93657235D01*
X89549534Y-93657234D01*
X89722605Y-93585546D01*
X89906333Y-93549000D01*
X90093667Y-93549000D01*
X90277395Y-93585546D01*
X90277395Y-93585546D01*
G37*
G36*
X56150443Y-93225519D02*
G01*
X56216627Y-93232037D01*
X56386466Y-93283557D01*
X56542991Y-93367222D01*
X56578729Y-93396552D01*
X56680186Y-93479814D01*
X56763448Y-93581271D01*
X56792778Y-93617009D01*
X56876443Y-93773534D01*
X56927963Y-93943373D01*
X56945359Y-94120000D01*
X56927963Y-94296627D01*
X56876443Y-94466466D01*
X56792778Y-94622991D01*
X56763448Y-94658729D01*
X56680186Y-94760186D01*
X56591247Y-94833175D01*
X56542991Y-94872778D01*
X56386466Y-94956443D01*
X56216627Y-95007963D01*
X56150443Y-95014481D01*
X56084260Y-95021000D01*
X55995740Y-95021000D01*
X55929557Y-95014481D01*
X55863373Y-95007963D01*
X55693534Y-94956443D01*
X55537009Y-94872778D01*
X55488753Y-94833175D01*
X55399814Y-94760186D01*
X55316552Y-94658729D01*
X55287222Y-94622991D01*
X55203557Y-94466466D01*
X55152037Y-94296627D01*
X55134641Y-94120000D01*
X55152037Y-93943373D01*
X55203557Y-93773534D01*
X55287222Y-93617009D01*
X55316552Y-93581271D01*
X55399814Y-93479814D01*
X55501271Y-93396552D01*
X55537009Y-93367222D01*
X55693534Y-93283557D01*
X55863373Y-93232037D01*
X55929557Y-93225519D01*
X55995740Y-93219000D01*
X56084260Y-93219000D01*
X56150443Y-93225519D01*
X56150443Y-93225519D01*
G37*
G36*
X53610443Y-93225519D02*
G01*
X53676627Y-93232037D01*
X53846466Y-93283557D01*
X54002991Y-93367222D01*
X54038729Y-93396552D01*
X54140186Y-93479814D01*
X54223448Y-93581271D01*
X54252778Y-93617009D01*
X54336443Y-93773534D01*
X54387963Y-93943373D01*
X54405359Y-94120000D01*
X54387963Y-94296627D01*
X54336443Y-94466466D01*
X54252778Y-94622991D01*
X54223448Y-94658729D01*
X54140186Y-94760186D01*
X54051247Y-94833175D01*
X54002991Y-94872778D01*
X53846466Y-94956443D01*
X53676627Y-95007963D01*
X53610443Y-95014481D01*
X53544260Y-95021000D01*
X53455740Y-95021000D01*
X53389557Y-95014481D01*
X53323373Y-95007963D01*
X53153534Y-94956443D01*
X52997009Y-94872778D01*
X52948753Y-94833175D01*
X52859814Y-94760186D01*
X52776552Y-94658729D01*
X52747222Y-94622991D01*
X52663557Y-94466466D01*
X52612037Y-94296627D01*
X52594641Y-94120000D01*
X52612037Y-93943373D01*
X52663557Y-93773534D01*
X52747222Y-93617009D01*
X52776552Y-93581271D01*
X52859814Y-93479814D01*
X52961271Y-93396552D01*
X52997009Y-93367222D01*
X53153534Y-93283557D01*
X53323373Y-93232037D01*
X53389557Y-93225519D01*
X53455740Y-93219000D01*
X53544260Y-93219000D01*
X53610443Y-93225519D01*
X53610443Y-93225519D01*
G37*
G36*
X81166823Y-91501313D02*
G01*
X81327242Y-91549976D01*
X81415036Y-91596903D01*
X81475078Y-91628996D01*
X81604659Y-91735341D01*
X81711004Y-91864922D01*
X81711005Y-91864924D01*
X81790024Y-92012758D01*
X81838687Y-92173177D01*
X81855117Y-92340000D01*
X81838687Y-92506823D01*
X81790024Y-92667242D01*
X81743572Y-92754147D01*
X81711004Y-92815078D01*
X81604659Y-92944659D01*
X81475078Y-93051004D01*
X81475076Y-93051005D01*
X81327242Y-93130024D01*
X81166823Y-93178687D01*
X81041804Y-93191000D01*
X80958196Y-93191000D01*
X80833177Y-93178687D01*
X80672758Y-93130024D01*
X80524924Y-93051005D01*
X80524922Y-93051004D01*
X80395341Y-92944659D01*
X80288996Y-92815078D01*
X80256428Y-92754147D01*
X80209976Y-92667242D01*
X80161313Y-92506823D01*
X80144883Y-92340000D01*
X80161313Y-92173177D01*
X80209976Y-92012758D01*
X80288995Y-91864924D01*
X80288996Y-91864922D01*
X80395341Y-91735341D01*
X80524922Y-91628996D01*
X80584964Y-91596903D01*
X80672758Y-91549976D01*
X80833177Y-91501313D01*
X80958196Y-91489000D01*
X81041804Y-91489000D01*
X81166823Y-91501313D01*
X81166823Y-91501313D01*
G37*
G36*
X90277395Y-91085546D02*
G01*
X90450466Y-91157234D01*
X90450467Y-91157235D01*
X90606227Y-91261310D01*
X90738690Y-91393773D01*
X90781284Y-91457520D01*
X90842766Y-91549534D01*
X90914454Y-91722605D01*
X90951000Y-91906333D01*
X90951000Y-92093667D01*
X90914454Y-92277395D01*
X90842766Y-92450466D01*
X90842765Y-92450467D01*
X90738690Y-92606227D01*
X90606227Y-92738690D01*
X90583092Y-92754148D01*
X90450466Y-92842766D01*
X90277395Y-92914454D01*
X90093667Y-92951000D01*
X89906333Y-92951000D01*
X89722605Y-92914454D01*
X89549534Y-92842766D01*
X89416908Y-92754148D01*
X89393773Y-92738690D01*
X89261310Y-92606227D01*
X89157235Y-92450467D01*
X89157234Y-92450466D01*
X89085546Y-92277395D01*
X89049000Y-92093667D01*
X89049000Y-91906333D01*
X89085546Y-91722605D01*
X89157234Y-91549534D01*
X89218716Y-91457520D01*
X89261310Y-91393773D01*
X89393773Y-91261310D01*
X89549533Y-91157235D01*
X89549534Y-91157234D01*
X89722605Y-91085546D01*
X89906333Y-91049000D01*
X90093667Y-91049000D01*
X90277395Y-91085546D01*
X90277395Y-91085546D01*
G37*
G36*
X67748228Y-91181703D02*
G01*
X67903100Y-91245853D01*
X68042481Y-91338985D01*
X68161015Y-91457519D01*
X68254147Y-91596900D01*
X68318297Y-91751772D01*
X68351000Y-91916184D01*
X68351000Y-92083816D01*
X68318297Y-92248228D01*
X68254147Y-92403100D01*
X68161015Y-92542481D01*
X68042481Y-92661015D01*
X67903100Y-92754147D01*
X67748228Y-92818297D01*
X67583816Y-92851000D01*
X67416184Y-92851000D01*
X67251772Y-92818297D01*
X67096900Y-92754147D01*
X66957519Y-92661015D01*
X66838985Y-92542481D01*
X66745853Y-92403100D01*
X66681703Y-92248228D01*
X66649000Y-92083816D01*
X66649000Y-91916184D01*
X66681703Y-91751772D01*
X66745853Y-91596900D01*
X66838985Y-91457519D01*
X66957519Y-91338985D01*
X67096900Y-91245853D01*
X67251772Y-91181703D01*
X67416184Y-91149000D01*
X67583816Y-91149000D01*
X67748228Y-91181703D01*
X67748228Y-91181703D01*
G37*
G36*
X53610443Y-90685519D02*
G01*
X53676627Y-90692037D01*
X53846466Y-90743557D01*
X54002991Y-90827222D01*
X54038729Y-90856552D01*
X54140186Y-90939814D01*
X54223448Y-91041271D01*
X54252778Y-91077009D01*
X54336443Y-91233534D01*
X54387963Y-91403373D01*
X54405359Y-91580000D01*
X54387963Y-91756627D01*
X54336443Y-91926466D01*
X54252778Y-92082991D01*
X54244018Y-92093665D01*
X54140186Y-92220186D01*
X54070474Y-92277396D01*
X54002991Y-92332778D01*
X54002989Y-92332779D01*
X53871435Y-92403097D01*
X53846466Y-92416443D01*
X53676627Y-92467963D01*
X53610443Y-92474481D01*
X53544260Y-92481000D01*
X53455740Y-92481000D01*
X53389557Y-92474481D01*
X53323373Y-92467963D01*
X53153534Y-92416443D01*
X53128566Y-92403097D01*
X52997011Y-92332779D01*
X52997009Y-92332778D01*
X52929526Y-92277396D01*
X52859814Y-92220186D01*
X52755982Y-92093665D01*
X52747222Y-92082991D01*
X52663557Y-91926466D01*
X52612037Y-91756627D01*
X52594641Y-91580000D01*
X52612037Y-91403373D01*
X52663557Y-91233534D01*
X52747222Y-91077009D01*
X52776552Y-91041271D01*
X52859814Y-90939814D01*
X52961271Y-90856552D01*
X52997009Y-90827222D01*
X53153534Y-90743557D01*
X53323373Y-90692037D01*
X53389557Y-90685519D01*
X53455740Y-90679000D01*
X53544260Y-90679000D01*
X53610443Y-90685519D01*
X53610443Y-90685519D01*
G37*
G36*
X56150443Y-90685519D02*
G01*
X56216627Y-90692037D01*
X56386466Y-90743557D01*
X56542991Y-90827222D01*
X56578729Y-90856552D01*
X56680186Y-90939814D01*
X56763448Y-91041271D01*
X56792778Y-91077009D01*
X56876443Y-91233534D01*
X56927963Y-91403373D01*
X56945359Y-91580000D01*
X56927963Y-91756627D01*
X56876443Y-91926466D01*
X56792778Y-92082991D01*
X56784018Y-92093665D01*
X56680186Y-92220186D01*
X56610474Y-92277396D01*
X56542991Y-92332778D01*
X56542989Y-92332779D01*
X56411435Y-92403097D01*
X56386466Y-92416443D01*
X56216627Y-92467963D01*
X56150443Y-92474481D01*
X56084260Y-92481000D01*
X55995740Y-92481000D01*
X55929557Y-92474481D01*
X55863373Y-92467963D01*
X55693534Y-92416443D01*
X55668566Y-92403097D01*
X55537011Y-92332779D01*
X55537009Y-92332778D01*
X55469526Y-92277396D01*
X55399814Y-92220186D01*
X55295982Y-92093665D01*
X55287222Y-92082991D01*
X55203557Y-91926466D01*
X55152037Y-91756627D01*
X55134641Y-91580000D01*
X55152037Y-91403373D01*
X55203557Y-91233534D01*
X55287222Y-91077009D01*
X55316552Y-91041271D01*
X55399814Y-90939814D01*
X55501271Y-90856552D01*
X55537009Y-90827222D01*
X55693534Y-90743557D01*
X55863373Y-90692037D01*
X55929557Y-90685519D01*
X55995740Y-90679000D01*
X56084260Y-90679000D01*
X56150443Y-90685519D01*
X56150443Y-90685519D01*
G37*
G36*
X77248228Y-90181703D02*
G01*
X77403100Y-90245853D01*
X77542481Y-90338985D01*
X77661015Y-90457519D01*
X77754147Y-90596900D01*
X77818297Y-90751772D01*
X77851000Y-90916184D01*
X77851000Y-91083816D01*
X77818297Y-91248228D01*
X77754147Y-91403100D01*
X77661015Y-91542481D01*
X77542481Y-91661015D01*
X77403100Y-91754147D01*
X77248228Y-91818297D01*
X77083816Y-91851000D01*
X76916184Y-91851000D01*
X76751772Y-91818297D01*
X76596900Y-91754147D01*
X76457519Y-91661015D01*
X76338985Y-91542481D01*
X76245853Y-91403100D01*
X76181703Y-91248228D01*
X76149000Y-91083816D01*
X76149000Y-90916184D01*
X76181703Y-90751772D01*
X76245853Y-90596900D01*
X76338985Y-90457519D01*
X76457519Y-90338985D01*
X76596900Y-90245853D01*
X76751772Y-90181703D01*
X76916184Y-90149000D01*
X77083816Y-90149000D01*
X77248228Y-90181703D01*
X77248228Y-90181703D01*
G37*
G36*
X72248228Y-90181703D02*
G01*
X72403100Y-90245853D01*
X72542481Y-90338985D01*
X72661015Y-90457519D01*
X72754147Y-90596900D01*
X72818297Y-90751772D01*
X72851000Y-90916184D01*
X72851000Y-91083816D01*
X72818297Y-91248228D01*
X72754147Y-91403100D01*
X72661015Y-91542481D01*
X72542481Y-91661015D01*
X72403100Y-91754147D01*
X72248228Y-91818297D01*
X72083816Y-91851000D01*
X71916184Y-91851000D01*
X71751772Y-91818297D01*
X71596900Y-91754147D01*
X71457519Y-91661015D01*
X71338985Y-91542481D01*
X71245853Y-91403100D01*
X71181703Y-91248228D01*
X71149000Y-91083816D01*
X71149000Y-90916184D01*
X71181703Y-90751772D01*
X71245853Y-90596900D01*
X71338985Y-90457519D01*
X71457519Y-90338985D01*
X71596900Y-90245853D01*
X71751772Y-90181703D01*
X71916184Y-90149000D01*
X72083816Y-90149000D01*
X72248228Y-90181703D01*
X72248228Y-90181703D01*
G37*
G36*
X90277395Y-88585546D02*
G01*
X90450466Y-88657234D01*
X90450467Y-88657235D01*
X90606227Y-88761310D01*
X90738690Y-88893773D01*
X90738691Y-88893775D01*
X90842766Y-89049534D01*
X90914454Y-89222605D01*
X90951000Y-89406333D01*
X90951000Y-89593667D01*
X90914454Y-89777395D01*
X90842766Y-89950466D01*
X90842765Y-89950467D01*
X90738690Y-90106227D01*
X90606227Y-90238690D01*
X90527818Y-90291081D01*
X90450466Y-90342766D01*
X90277395Y-90414454D01*
X90093667Y-90451000D01*
X89906333Y-90451000D01*
X89722605Y-90414454D01*
X89549534Y-90342766D01*
X89472182Y-90291081D01*
X89393773Y-90238690D01*
X89261310Y-90106227D01*
X89157235Y-89950467D01*
X89157234Y-89950466D01*
X89085546Y-89777395D01*
X89049000Y-89593667D01*
X89049000Y-89406333D01*
X89085546Y-89222605D01*
X89157234Y-89049534D01*
X89261309Y-88893775D01*
X89261310Y-88893773D01*
X89393773Y-88761310D01*
X89549533Y-88657235D01*
X89549534Y-88657234D01*
X89722605Y-88585546D01*
X89906333Y-88549000D01*
X90093667Y-88549000D01*
X90277395Y-88585546D01*
X90277395Y-88585546D01*
G37*
G36*
X56150442Y-88145518D02*
G01*
X56216627Y-88152037D01*
X56386466Y-88203557D01*
X56542991Y-88287222D01*
X56546405Y-88290024D01*
X56680186Y-88399814D01*
X56763448Y-88501271D01*
X56792778Y-88537009D01*
X56876443Y-88693534D01*
X56927963Y-88863373D01*
X56945359Y-89040000D01*
X56927963Y-89216627D01*
X56876443Y-89386466D01*
X56792778Y-89542991D01*
X56763448Y-89578729D01*
X56680186Y-89680186D01*
X56578729Y-89763448D01*
X56542991Y-89792778D01*
X56386466Y-89876443D01*
X56216627Y-89927963D01*
X56150442Y-89934482D01*
X56084260Y-89941000D01*
X55995740Y-89941000D01*
X55929558Y-89934482D01*
X55863373Y-89927963D01*
X55693534Y-89876443D01*
X55537009Y-89792778D01*
X55501271Y-89763448D01*
X55399814Y-89680186D01*
X55316552Y-89578729D01*
X55287222Y-89542991D01*
X55203557Y-89386466D01*
X55152037Y-89216627D01*
X55134641Y-89040000D01*
X55152037Y-88863373D01*
X55203557Y-88693534D01*
X55287222Y-88537009D01*
X55316552Y-88501271D01*
X55399814Y-88399814D01*
X55533595Y-88290024D01*
X55537009Y-88287222D01*
X55693534Y-88203557D01*
X55863373Y-88152037D01*
X55929558Y-88145518D01*
X55995740Y-88139000D01*
X56084260Y-88139000D01*
X56150442Y-88145518D01*
X56150442Y-88145518D01*
G37*
G36*
X53610442Y-88145518D02*
G01*
X53676627Y-88152037D01*
X53846466Y-88203557D01*
X54002991Y-88287222D01*
X54006405Y-88290024D01*
X54140186Y-88399814D01*
X54223448Y-88501271D01*
X54252778Y-88537009D01*
X54336443Y-88693534D01*
X54387963Y-88863373D01*
X54405359Y-89040000D01*
X54387963Y-89216627D01*
X54336443Y-89386466D01*
X54252778Y-89542991D01*
X54223448Y-89578729D01*
X54140186Y-89680186D01*
X54038729Y-89763448D01*
X54002991Y-89792778D01*
X53846466Y-89876443D01*
X53676627Y-89927963D01*
X53610442Y-89934482D01*
X53544260Y-89941000D01*
X53455740Y-89941000D01*
X53389558Y-89934482D01*
X53323373Y-89927963D01*
X53153534Y-89876443D01*
X52997009Y-89792778D01*
X52961271Y-89763448D01*
X52859814Y-89680186D01*
X52776552Y-89578729D01*
X52747222Y-89542991D01*
X52663557Y-89386466D01*
X52612037Y-89216627D01*
X52594641Y-89040000D01*
X52612037Y-88863373D01*
X52663557Y-88693534D01*
X52747222Y-88537009D01*
X52776552Y-88501271D01*
X52859814Y-88399814D01*
X52993595Y-88290024D01*
X52997009Y-88287222D01*
X53153534Y-88203557D01*
X53323373Y-88152037D01*
X53389558Y-88145518D01*
X53455740Y-88139000D01*
X53544260Y-88139000D01*
X53610442Y-88145518D01*
X53610442Y-88145518D01*
G37*
G36*
X71006823Y-86661313D02*
G01*
X71167242Y-86709976D01*
X71299906Y-86780886D01*
X71315078Y-86788996D01*
X71444659Y-86895341D01*
X71551004Y-87024922D01*
X71551005Y-87024924D01*
X71630024Y-87172758D01*
X71678687Y-87333177D01*
X71695117Y-87500000D01*
X71678687Y-87666823D01*
X71652197Y-87754147D01*
X71632738Y-87818297D01*
X71630024Y-87827242D01*
X71589477Y-87903100D01*
X71551004Y-87975078D01*
X71444659Y-88104659D01*
X71315078Y-88211004D01*
X71315076Y-88211005D01*
X71167242Y-88290024D01*
X71006823Y-88338687D01*
X70881804Y-88351000D01*
X70798196Y-88351000D01*
X70673177Y-88338687D01*
X70512758Y-88290024D01*
X70364924Y-88211005D01*
X70364922Y-88211004D01*
X70235341Y-88104659D01*
X70128996Y-87975078D01*
X70090523Y-87903100D01*
X70049976Y-87827242D01*
X70047263Y-87818297D01*
X70027803Y-87754147D01*
X70001313Y-87666823D01*
X69984883Y-87500000D01*
X70001313Y-87333177D01*
X70049976Y-87172758D01*
X70128995Y-87024924D01*
X70128996Y-87024922D01*
X70235341Y-86895341D01*
X70364922Y-86788996D01*
X70380094Y-86780886D01*
X70512758Y-86709976D01*
X70673177Y-86661313D01*
X70798196Y-86649000D01*
X70881804Y-86649000D01*
X71006823Y-86661313D01*
X71006823Y-86661313D01*
G37*
G36*
X81248228Y-86681703D02*
G01*
X81403100Y-86745853D01*
X81542481Y-86838985D01*
X81661015Y-86957519D01*
X81754147Y-87096900D01*
X81818297Y-87251772D01*
X81851000Y-87416184D01*
X81851000Y-87583816D01*
X81818297Y-87748228D01*
X81754147Y-87903100D01*
X81661015Y-88042481D01*
X81542481Y-88161015D01*
X81403100Y-88254147D01*
X81248228Y-88318297D01*
X81083816Y-88351000D01*
X80916184Y-88351000D01*
X80751772Y-88318297D01*
X80596900Y-88254147D01*
X80457519Y-88161015D01*
X80338985Y-88042481D01*
X80245853Y-87903100D01*
X80181703Y-87748228D01*
X80149000Y-87583816D01*
X80149000Y-87416184D01*
X80181703Y-87251772D01*
X80245853Y-87096900D01*
X80338985Y-86957519D01*
X80457519Y-86838985D01*
X80596900Y-86745853D01*
X80751772Y-86681703D01*
X80916184Y-86649000D01*
X81083816Y-86649000D01*
X81248228Y-86681703D01*
X81248228Y-86681703D01*
G37*
G36*
X67748228Y-86181703D02*
G01*
X67903100Y-86245853D01*
X68042481Y-86338985D01*
X68161015Y-86457519D01*
X68254147Y-86596900D01*
X68318297Y-86751772D01*
X68351000Y-86916184D01*
X68351000Y-87083816D01*
X68318297Y-87248228D01*
X68254147Y-87403100D01*
X68161015Y-87542481D01*
X68042481Y-87661015D01*
X67903100Y-87754147D01*
X67748228Y-87818297D01*
X67583816Y-87851000D01*
X67416184Y-87851000D01*
X67251772Y-87818297D01*
X67096900Y-87754147D01*
X66957519Y-87661015D01*
X66838985Y-87542481D01*
X66745853Y-87403100D01*
X66681703Y-87248228D01*
X66649000Y-87083816D01*
X66649000Y-86916184D01*
X66681703Y-86751772D01*
X66745853Y-86596900D01*
X66838985Y-86457519D01*
X66957519Y-86338985D01*
X67096900Y-86245853D01*
X67251772Y-86181703D01*
X67416184Y-86149000D01*
X67583816Y-86149000D01*
X67748228Y-86181703D01*
X67748228Y-86181703D01*
G37*
G36*
X56150443Y-85605519D02*
G01*
X56216627Y-85612037D01*
X56386466Y-85663557D01*
X56542991Y-85747222D01*
X56578729Y-85776552D01*
X56680186Y-85859814D01*
X56763448Y-85961271D01*
X56792778Y-85997009D01*
X56876443Y-86153534D01*
X56927963Y-86323373D01*
X56945359Y-86500000D01*
X56927963Y-86676627D01*
X56876443Y-86846466D01*
X56792778Y-87002991D01*
X56774778Y-87024924D01*
X56680186Y-87140186D01*
X56578729Y-87223448D01*
X56542991Y-87252778D01*
X56386466Y-87336443D01*
X56216627Y-87387963D01*
X56150442Y-87394482D01*
X56084260Y-87401000D01*
X55995740Y-87401000D01*
X55929558Y-87394482D01*
X55863373Y-87387963D01*
X55693534Y-87336443D01*
X55537009Y-87252778D01*
X55501271Y-87223448D01*
X55399814Y-87140186D01*
X55305222Y-87024924D01*
X55287222Y-87002991D01*
X55203557Y-86846466D01*
X55152037Y-86676627D01*
X55134641Y-86500000D01*
X55152037Y-86323373D01*
X55203557Y-86153534D01*
X55287222Y-85997009D01*
X55316552Y-85961271D01*
X55399814Y-85859814D01*
X55501271Y-85776552D01*
X55537009Y-85747222D01*
X55693534Y-85663557D01*
X55863373Y-85612037D01*
X55929557Y-85605519D01*
X55995740Y-85599000D01*
X56084260Y-85599000D01*
X56150443Y-85605519D01*
X56150443Y-85605519D01*
G37*
G36*
X54401000Y-87401000D02*
G01*
X52599000Y-87401000D01*
X52599000Y-85599000D01*
X54401000Y-85599000D01*
X54401000Y-87401000D01*
X54401000Y-87401000D01*
G37*
G36*
X80248228Y-82681703D02*
G01*
X80403100Y-82745853D01*
X80542481Y-82838985D01*
X80661015Y-82957519D01*
X80754147Y-83096900D01*
X80818297Y-83251772D01*
X80851000Y-83416184D01*
X80851000Y-83583816D01*
X80818297Y-83748228D01*
X80754147Y-83903100D01*
X80661015Y-84042481D01*
X80542481Y-84161015D01*
X80403100Y-84254147D01*
X80248228Y-84318297D01*
X80083816Y-84351000D01*
X79916184Y-84351000D01*
X79751772Y-84318297D01*
X79596900Y-84254147D01*
X79457519Y-84161015D01*
X79338985Y-84042481D01*
X79245853Y-83903100D01*
X79181703Y-83748228D01*
X79149000Y-83583816D01*
X79149000Y-83416184D01*
X79181703Y-83251772D01*
X79245853Y-83096900D01*
X79338985Y-82957519D01*
X79457519Y-82838985D01*
X79596900Y-82745853D01*
X79751772Y-82681703D01*
X79916184Y-82649000D01*
X80083816Y-82649000D01*
X80248228Y-82681703D01*
X80248228Y-82681703D01*
G37*
G36*
X75248228Y-82681703D02*
G01*
X75403100Y-82745853D01*
X75542481Y-82838985D01*
X75661015Y-82957519D01*
X75754147Y-83096900D01*
X75818297Y-83251772D01*
X75851000Y-83416184D01*
X75851000Y-83583816D01*
X75818297Y-83748228D01*
X75754147Y-83903100D01*
X75661015Y-84042481D01*
X75542481Y-84161015D01*
X75403100Y-84254147D01*
X75248228Y-84318297D01*
X75083816Y-84351000D01*
X74916184Y-84351000D01*
X74751772Y-84318297D01*
X74596900Y-84254147D01*
X74457519Y-84161015D01*
X74338985Y-84042481D01*
X74245853Y-83903100D01*
X74181703Y-83748228D01*
X74149000Y-83583816D01*
X74149000Y-83416184D01*
X74181703Y-83251772D01*
X74245853Y-83096900D01*
X74338985Y-82957519D01*
X74457519Y-82838985D01*
X74596900Y-82745853D01*
X74751772Y-82681703D01*
X74916184Y-82649000D01*
X75083816Y-82649000D01*
X75248228Y-82681703D01*
X75248228Y-82681703D01*
G37*
G36*
X51923241Y-76104760D02*
G01*
X52187305Y-76214139D01*
X52424958Y-76372934D01*
X52627066Y-76575042D01*
X52785861Y-76812695D01*
X52895240Y-77076759D01*
X52951000Y-77357088D01*
X52951000Y-77642912D01*
X52895240Y-77923241D01*
X52785861Y-78187305D01*
X52627066Y-78424958D01*
X52424958Y-78627066D01*
X52187305Y-78785861D01*
X51923241Y-78895240D01*
X51642912Y-78951000D01*
X51357088Y-78951000D01*
X51076759Y-78895240D01*
X50812695Y-78785861D01*
X50575042Y-78627066D01*
X50372934Y-78424958D01*
X50214139Y-78187305D01*
X50104760Y-77923241D01*
X50049000Y-77642912D01*
X50049000Y-77357088D01*
X50104760Y-77076759D01*
X50214139Y-76812695D01*
X50372934Y-76575042D01*
X50575042Y-76372934D01*
X50812695Y-76214139D01*
X51076759Y-76104760D01*
X51357088Y-76049000D01*
X51642912Y-76049000D01*
X51923241Y-76104760D01*
X51923241Y-76104760D01*
G37*
G36*
X90277395Y-76085546D02*
G01*
X90450466Y-76157234D01*
X90450467Y-76157235D01*
X90606227Y-76261310D01*
X90738690Y-76393773D01*
X90738691Y-76393775D01*
X90842766Y-76549534D01*
X90914454Y-76722605D01*
X90951000Y-76906333D01*
X90951000Y-77093667D01*
X90914454Y-77277395D01*
X90842766Y-77450466D01*
X90842765Y-77450467D01*
X90738690Y-77606227D01*
X90606227Y-77738690D01*
X90527818Y-77791081D01*
X90450466Y-77842766D01*
X90277395Y-77914454D01*
X90093667Y-77951000D01*
X89906333Y-77951000D01*
X89722605Y-77914454D01*
X89549534Y-77842766D01*
X89472182Y-77791081D01*
X89393773Y-77738690D01*
X89261310Y-77606227D01*
X89157235Y-77450467D01*
X89157234Y-77450466D01*
X89085546Y-77277395D01*
X89049000Y-77093667D01*
X89049000Y-76906333D01*
X89085546Y-76722605D01*
X89157234Y-76549534D01*
X89261309Y-76393775D01*
X89261310Y-76393773D01*
X89393773Y-76261310D01*
X89549533Y-76157235D01*
X89549534Y-76157234D01*
X89722605Y-76085546D01*
X89906333Y-76049000D01*
X90093667Y-76049000D01*
X90277395Y-76085546D01*
X90277395Y-76085546D01*
G37*
G36*
X90277395Y-73585546D02*
G01*
X90450466Y-73657234D01*
X90450467Y-73657235D01*
X90606227Y-73761310D01*
X90738690Y-73893773D01*
X90738691Y-73893775D01*
X90842766Y-74049534D01*
X90914454Y-74222605D01*
X90951000Y-74406333D01*
X90951000Y-74593667D01*
X90914454Y-74777395D01*
X90842766Y-74950466D01*
X90842765Y-74950467D01*
X90738690Y-75106227D01*
X90606227Y-75238690D01*
X90527818Y-75291081D01*
X90450466Y-75342766D01*
X90277395Y-75414454D01*
X90093667Y-75451000D01*
X89906333Y-75451000D01*
X89722605Y-75414454D01*
X89549534Y-75342766D01*
X89472182Y-75291081D01*
X89393773Y-75238690D01*
X89261310Y-75106227D01*
X89157235Y-74950467D01*
X89157234Y-74950466D01*
X89085546Y-74777395D01*
X89049000Y-74593667D01*
X89049000Y-74406333D01*
X89085546Y-74222605D01*
X89157234Y-74049534D01*
X89261309Y-73893775D01*
X89261310Y-73893773D01*
X89393773Y-73761310D01*
X89549533Y-73657235D01*
X89549534Y-73657234D01*
X89722605Y-73585546D01*
X89906333Y-73549000D01*
X90093667Y-73549000D01*
X90277395Y-73585546D01*
X90277395Y-73585546D01*
G37*
G36*
X90277395Y-71085546D02*
G01*
X90450466Y-71157234D01*
X90450467Y-71157235D01*
X90606227Y-71261310D01*
X90738690Y-71393773D01*
X90781284Y-71457520D01*
X90842766Y-71549534D01*
X90914454Y-71722605D01*
X90951000Y-71906333D01*
X90951000Y-72093667D01*
X90914454Y-72277395D01*
X90842766Y-72450466D01*
X90842765Y-72450467D01*
X90738690Y-72606227D01*
X90606227Y-72738690D01*
X90583092Y-72754148D01*
X90450466Y-72842766D01*
X90277395Y-72914454D01*
X90093667Y-72951000D01*
X89906333Y-72951000D01*
X89722605Y-72914454D01*
X89549534Y-72842766D01*
X89416908Y-72754148D01*
X89393773Y-72738690D01*
X89261310Y-72606227D01*
X89157235Y-72450467D01*
X89157234Y-72450466D01*
X89085546Y-72277395D01*
X89049000Y-72093667D01*
X89049000Y-71906333D01*
X89085546Y-71722605D01*
X89157234Y-71549534D01*
X89218716Y-71457520D01*
X89261310Y-71393773D01*
X89393773Y-71261310D01*
X89549533Y-71157235D01*
X89549534Y-71157234D01*
X89722605Y-71085546D01*
X89906333Y-71049000D01*
X90093667Y-71049000D01*
X90277395Y-71085546D01*
X90277395Y-71085546D01*
G37*
G36*
X54351000Y-72851000D02*
G01*
X52649000Y-72851000D01*
X52649000Y-71149000D01*
X54351000Y-71149000D01*
X54351000Y-72851000D01*
X54351000Y-72851000D01*
G37*
G36*
X68748228Y-71181703D02*
G01*
X68903100Y-71245853D01*
X69042481Y-71338985D01*
X69161015Y-71457519D01*
X69254147Y-71596900D01*
X69318297Y-71751772D01*
X69351000Y-71916184D01*
X69351000Y-72083816D01*
X69318297Y-72248228D01*
X69254147Y-72403100D01*
X69161015Y-72542481D01*
X69042481Y-72661015D01*
X68903100Y-72754147D01*
X68748228Y-72818297D01*
X68583816Y-72851000D01*
X68416184Y-72851000D01*
X68251772Y-72818297D01*
X68096900Y-72754147D01*
X67957519Y-72661015D01*
X67838985Y-72542481D01*
X67745853Y-72403100D01*
X67681703Y-72248228D01*
X67649000Y-72083816D01*
X67649000Y-71916184D01*
X67681703Y-71751772D01*
X67745853Y-71596900D01*
X67838985Y-71457519D01*
X67957519Y-71338985D01*
X68096900Y-71245853D01*
X68251772Y-71181703D01*
X68416184Y-71149000D01*
X68583816Y-71149000D01*
X68748228Y-71181703D01*
X68748228Y-71181703D01*
G37*
G36*
X57248228Y-71181703D02*
G01*
X57403100Y-71245853D01*
X57542481Y-71338985D01*
X57661015Y-71457519D01*
X57754147Y-71596900D01*
X57818297Y-71751772D01*
X57851000Y-71916184D01*
X57851000Y-72083816D01*
X57818297Y-72248228D01*
X57754147Y-72403100D01*
X57661015Y-72542481D01*
X57542481Y-72661015D01*
X57403100Y-72754147D01*
X57248228Y-72818297D01*
X57083816Y-72851000D01*
X56916184Y-72851000D01*
X56751772Y-72818297D01*
X56596900Y-72754147D01*
X56457519Y-72661015D01*
X56338985Y-72542481D01*
X56245853Y-72403100D01*
X56181703Y-72248228D01*
X56149000Y-72083816D01*
X56149000Y-71916184D01*
X56181703Y-71751772D01*
X56245853Y-71596900D01*
X56338985Y-71457519D01*
X56457519Y-71338985D01*
X56596900Y-71245853D01*
X56751772Y-71181703D01*
X56916184Y-71149000D01*
X57083816Y-71149000D01*
X57248228Y-71181703D01*
X57248228Y-71181703D01*
G37*
G36*
X76851000Y-72851000D02*
G01*
X75149000Y-72851000D01*
X75149000Y-71149000D01*
X76851000Y-71149000D01*
X76851000Y-72851000D01*
X76851000Y-72851000D01*
G37*
G36*
X79748228Y-71181703D02*
G01*
X79903100Y-71245853D01*
X80042481Y-71338985D01*
X80161015Y-71457519D01*
X80254147Y-71596900D01*
X80318297Y-71751772D01*
X80351000Y-71916184D01*
X80351000Y-72083816D01*
X80318297Y-72248228D01*
X80254147Y-72403100D01*
X80161015Y-72542481D01*
X80042481Y-72661015D01*
X79903100Y-72754147D01*
X79748228Y-72818297D01*
X79583816Y-72851000D01*
X79416184Y-72851000D01*
X79251772Y-72818297D01*
X79096900Y-72754147D01*
X78957519Y-72661015D01*
X78838985Y-72542481D01*
X78745853Y-72403100D01*
X78681703Y-72248228D01*
X78649000Y-72083816D01*
X78649000Y-71916184D01*
X78681703Y-71751772D01*
X78745853Y-71596900D01*
X78838985Y-71457519D01*
X78957519Y-71338985D01*
X79096900Y-71245853D01*
X79251772Y-71181703D01*
X79416184Y-71149000D01*
X79583816Y-71149000D01*
X79748228Y-71181703D01*
X79748228Y-71181703D01*
G37*
G36*
X65851000Y-72851000D02*
G01*
X64149000Y-72851000D01*
X64149000Y-71149000D01*
X65851000Y-71149000D01*
X65851000Y-72851000D01*
X65851000Y-72851000D01*
G37*
M02*
