G04 #@! TF.GenerationSoftware,KiCad,Pcbnew,(5.1.2)-1*
G04 #@! TF.CreationDate,2019-06-10T14:27:57-07:00*
G04 #@! TF.ProjectId,sputterer,73707574-7465-4726-9572-2e6b69636164,rev?*
G04 #@! TF.SameCoordinates,Original*
G04 #@! TF.FileFunction,Other,Fab,Top*
%FSLAX46Y46*%
G04 Gerber Fmt 4.6, Leading zero omitted, Abs format (unit mm)*
G04 Created by KiCad (PCBNEW (5.1.2)-1) date 2019-06-10 14:27:57*
%MOMM*%
%LPD*%
G04 APERTURE LIST*
%ADD10C,0.100000*%
%ADD11C,0.150000*%
%ADD12C,0.120000*%
%ADD13C,0.090000*%
G04 APERTURE END LIST*
D10*
X53500000Y-85230000D02*
X57310000Y-85230000D01*
X57310000Y-85230000D02*
X57310000Y-97930000D01*
X57310000Y-97930000D02*
X52230000Y-97930000D01*
X52230000Y-97930000D02*
X52230000Y-86500000D01*
X52230000Y-86500000D02*
X53500000Y-85230000D01*
X87250000Y-169190000D02*
X87250000Y-161570000D01*
X87250000Y-161570000D02*
X97410000Y-161570000D01*
X97410000Y-161570000D02*
X97410000Y-169190000D01*
X97410000Y-169190000D02*
X87250000Y-169190000D01*
X94870000Y-156490000D02*
X94870000Y-174270000D01*
X94870000Y-174270000D02*
X52960000Y-174270000D01*
X52960000Y-174270000D02*
X51690000Y-173000000D01*
X51690000Y-173000000D02*
X51690000Y-156490000D01*
X51690000Y-156490000D02*
X94870000Y-156490000D01*
X74723241Y-69852500D02*
X74723241Y-70652500D01*
X74323241Y-70252500D02*
X75123241Y-70252500D01*
X81750000Y-72000000D02*
G75*
G03X81750000Y-72000000I-4000000J0D01*
G01*
X74000000Y-81750000D02*
X74000000Y-85250000D01*
X74000000Y-85250000D02*
X81000000Y-85250000D01*
X81000000Y-85250000D02*
X81000000Y-81750000D01*
X81000000Y-81750000D02*
X74000000Y-81750000D01*
X59250000Y-72000000D02*
G75*
G03X59250000Y-72000000I-4000000J0D01*
G01*
X51823241Y-70252500D02*
X52623241Y-70252500D01*
X52223241Y-69852500D02*
X52223241Y-70652500D01*
X69250000Y-86000000D02*
X65750000Y-86000000D01*
X65750000Y-86000000D02*
X65750000Y-93000000D01*
X65750000Y-93000000D02*
X69250000Y-93000000D01*
X69250000Y-93000000D02*
X69250000Y-86000000D01*
X69000000Y-151750000D02*
X62000000Y-151750000D01*
X69000000Y-155250000D02*
X69000000Y-151750000D01*
X62000000Y-155250000D02*
X69000000Y-155250000D01*
X62000000Y-151750000D02*
X62000000Y-155250000D01*
X70750000Y-72000000D02*
G75*
G03X70750000Y-72000000I-4000000J0D01*
G01*
X63323241Y-70252500D02*
X64123241Y-70252500D01*
X63723241Y-69852500D02*
X63723241Y-70652500D01*
X82250000Y-105400000D02*
X79750000Y-105400000D01*
X79750000Y-105400000D02*
X79750000Y-112600000D01*
X79750000Y-112600000D02*
X82250000Y-112600000D01*
X82250000Y-112600000D02*
X82250000Y-105400000D01*
X63750000Y-97400000D02*
X63750000Y-104600000D01*
X66250000Y-97400000D02*
X63750000Y-97400000D01*
X66250000Y-104600000D02*
X66250000Y-97400000D01*
X63750000Y-104600000D02*
X66250000Y-104600000D01*
X70900000Y-89750000D02*
X70900000Y-92250000D01*
X70900000Y-92250000D02*
X78100000Y-92250000D01*
X78100000Y-92250000D02*
X78100000Y-89750000D01*
X78100000Y-89750000D02*
X70900000Y-89750000D01*
X54310000Y-130000000D02*
X54310000Y-132000000D01*
X54510000Y-130000000D02*
X54510000Y-132000000D01*
X54410000Y-130000000D02*
X54410000Y-132000000D01*
X59620000Y-131000000D02*
X57810000Y-131000000D01*
X52000000Y-131000000D02*
X53810000Y-131000000D01*
X57810000Y-130000000D02*
X53810000Y-130000000D01*
X57810000Y-132000000D02*
X57810000Y-130000000D01*
X53810000Y-132000000D02*
X57810000Y-132000000D01*
X53810000Y-130000000D02*
X53810000Y-132000000D01*
X57690000Y-136000000D02*
X57690000Y-134000000D01*
X57690000Y-134000000D02*
X53690000Y-134000000D01*
X53690000Y-134000000D02*
X53690000Y-136000000D01*
X53690000Y-136000000D02*
X57690000Y-136000000D01*
X59500000Y-135000000D02*
X57690000Y-135000000D01*
X51880000Y-135000000D02*
X53690000Y-135000000D01*
X57090000Y-136000000D02*
X57090000Y-134000000D01*
X56990000Y-136000000D02*
X56990000Y-134000000D01*
X57190000Y-136000000D02*
X57190000Y-134000000D01*
X53810000Y-138000000D02*
X53810000Y-140000000D01*
X53810000Y-140000000D02*
X57810000Y-140000000D01*
X57810000Y-140000000D02*
X57810000Y-138000000D01*
X57810000Y-138000000D02*
X53810000Y-138000000D01*
X52000000Y-139000000D02*
X53810000Y-139000000D01*
X59620000Y-139000000D02*
X57810000Y-139000000D01*
X54410000Y-138000000D02*
X54410000Y-140000000D01*
X54510000Y-138000000D02*
X54510000Y-140000000D01*
X54310000Y-138000000D02*
X54310000Y-140000000D01*
X57190000Y-144000000D02*
X57190000Y-142000000D01*
X56990000Y-144000000D02*
X56990000Y-142000000D01*
X57090000Y-144000000D02*
X57090000Y-142000000D01*
X51880000Y-143000000D02*
X53690000Y-143000000D01*
X59500000Y-143000000D02*
X57690000Y-143000000D01*
X53690000Y-144000000D02*
X57690000Y-144000000D01*
X53690000Y-142000000D02*
X53690000Y-144000000D01*
X57690000Y-142000000D02*
X53690000Y-142000000D01*
X57690000Y-144000000D02*
X57690000Y-142000000D01*
X54310000Y-146000000D02*
X54310000Y-148000000D01*
X54510000Y-146000000D02*
X54510000Y-148000000D01*
X54410000Y-146000000D02*
X54410000Y-148000000D01*
X59620000Y-147000000D02*
X57810000Y-147000000D01*
X52000000Y-147000000D02*
X53810000Y-147000000D01*
X57810000Y-146000000D02*
X53810000Y-146000000D01*
X57810000Y-148000000D02*
X57810000Y-146000000D01*
X53810000Y-148000000D02*
X57810000Y-148000000D01*
X53810000Y-146000000D02*
X53810000Y-148000000D01*
X57690000Y-152000000D02*
X57690000Y-150000000D01*
X57690000Y-150000000D02*
X53690000Y-150000000D01*
X53690000Y-150000000D02*
X53690000Y-152000000D01*
X53690000Y-152000000D02*
X57690000Y-152000000D01*
X59500000Y-151000000D02*
X57690000Y-151000000D01*
X51880000Y-151000000D02*
X53690000Y-151000000D01*
X57090000Y-152000000D02*
X57090000Y-150000000D01*
X56990000Y-152000000D02*
X56990000Y-150000000D01*
X57190000Y-152000000D02*
X57190000Y-150000000D01*
X79144445Y-153165476D02*
G75*
G03X79145000Y-150833810I1500555J1165476D01*
G01*
X82145000Y-152000000D02*
G75*
G03X82145000Y-152000000I-1500000J0D01*
G01*
X79145000Y-150833810D02*
X79145000Y-153166190D01*
X98200000Y-119400000D02*
X98200000Y-125400000D01*
X98200000Y-125400000D02*
X94200000Y-125400000D01*
X94200000Y-125400000D02*
X94200000Y-125700000D01*
X94200000Y-125700000D02*
X80200000Y-125700000D01*
X80200000Y-125700000D02*
X80200000Y-117500000D01*
X80200000Y-117500000D02*
X94200000Y-117500000D01*
X94200000Y-117500000D02*
X94200000Y-119400000D01*
X94200000Y-119400000D02*
X98200000Y-119400000D01*
X98200000Y-130400000D02*
X98200000Y-136400000D01*
X98200000Y-136400000D02*
X94200000Y-136400000D01*
X94200000Y-136400000D02*
X94200000Y-136700000D01*
X94200000Y-136700000D02*
X80200000Y-136700000D01*
X80200000Y-136700000D02*
X80200000Y-128500000D01*
X80200000Y-128500000D02*
X94200000Y-128500000D01*
X94200000Y-128500000D02*
X94200000Y-130400000D01*
X94200000Y-130400000D02*
X98200000Y-130400000D01*
X94200000Y-140900000D02*
X98200000Y-140900000D01*
X94200000Y-139000000D02*
X94200000Y-140900000D01*
X80200000Y-139000000D02*
X94200000Y-139000000D01*
X80200000Y-147200000D02*
X80200000Y-139000000D01*
X94200000Y-147200000D02*
X80200000Y-147200000D01*
X94200000Y-146900000D02*
X94200000Y-147200000D01*
X98200000Y-146900000D02*
X94200000Y-146900000D01*
X98200000Y-140900000D02*
X98200000Y-146900000D01*
X53500000Y-104230000D02*
X57310000Y-104230000D01*
X57310000Y-104230000D02*
X57310000Y-124550000D01*
X57310000Y-124550000D02*
X52230000Y-124550000D01*
X52230000Y-124550000D02*
X52230000Y-105500000D01*
X52230000Y-105500000D02*
X53500000Y-104230000D01*
X76500000Y-150250000D02*
X73000000Y-150250000D01*
X72976375Y-150246375D02*
G75*
G03X74730000Y-154480000I1753625J-1753625D01*
G01*
X76483625Y-150246375D02*
G75*
G02X74730000Y-154480000I-1753625J-1753625D01*
G01*
X68930000Y-125250000D02*
X68930000Y-127750000D01*
X68930000Y-127750000D02*
X75230000Y-127750000D01*
X75230000Y-127750000D02*
X75230000Y-125250000D01*
X75230000Y-125250000D02*
X68930000Y-125250000D01*
X67000000Y-126500000D02*
X68930000Y-126500000D01*
X77160000Y-126500000D02*
X75230000Y-126500000D01*
X66840000Y-137000000D02*
X68770000Y-137000000D01*
X77000000Y-137000000D02*
X75070000Y-137000000D01*
X68770000Y-138250000D02*
X75070000Y-138250000D01*
X68770000Y-135750000D02*
X68770000Y-138250000D01*
X75070000Y-135750000D02*
X68770000Y-135750000D01*
X75070000Y-138250000D02*
X75070000Y-135750000D01*
X75070000Y-143750000D02*
X75070000Y-141250000D01*
X75070000Y-141250000D02*
X68770000Y-141250000D01*
X68770000Y-141250000D02*
X68770000Y-143750000D01*
X68770000Y-143750000D02*
X75070000Y-143750000D01*
X77000000Y-142500000D02*
X75070000Y-142500000D01*
X66840000Y-142500000D02*
X68770000Y-142500000D01*
X79070000Y-88750000D02*
X79070000Y-86250000D01*
X79070000Y-86250000D02*
X72770000Y-86250000D01*
X72770000Y-86250000D02*
X72770000Y-88750000D01*
X72770000Y-88750000D02*
X79070000Y-88750000D01*
X81000000Y-87500000D02*
X79070000Y-87500000D01*
X70840000Y-87500000D02*
X72770000Y-87500000D01*
X81000000Y-92340000D02*
X81000000Y-94270000D01*
X81000000Y-102500000D02*
X81000000Y-100570000D01*
X79750000Y-94270000D02*
X79750000Y-100570000D01*
X82250000Y-94270000D02*
X79750000Y-94270000D01*
X82250000Y-100570000D02*
X82250000Y-94270000D01*
X79750000Y-100570000D02*
X82250000Y-100570000D01*
X77160000Y-107500000D02*
X75230000Y-107500000D01*
X67000000Y-107500000D02*
X68930000Y-107500000D01*
X75230000Y-106250000D02*
X68930000Y-106250000D01*
X75230000Y-108750000D02*
X75230000Y-106250000D01*
X68930000Y-108750000D02*
X75230000Y-108750000D01*
X68930000Y-106250000D02*
X68930000Y-108750000D01*
X66840000Y-147000000D02*
X68770000Y-147000000D01*
X77000000Y-147000000D02*
X75070000Y-147000000D01*
X68770000Y-148250000D02*
X75070000Y-148250000D01*
X68770000Y-145750000D02*
X68770000Y-148250000D01*
X75070000Y-145750000D02*
X68770000Y-145750000D01*
X75070000Y-148250000D02*
X75070000Y-145750000D01*
X75070000Y-132750000D02*
X75070000Y-130250000D01*
X75070000Y-130250000D02*
X68770000Y-130250000D01*
X68770000Y-130250000D02*
X68770000Y-132750000D01*
X68770000Y-132750000D02*
X75070000Y-132750000D01*
X77000000Y-131500000D02*
X75070000Y-131500000D01*
X66840000Y-131500000D02*
X68770000Y-131500000D01*
X88500000Y-69650000D02*
X88500000Y-79350000D01*
X88500000Y-79350000D02*
X93500000Y-79350000D01*
X93500000Y-79350000D02*
X93500000Y-69650000D01*
X93500000Y-69650000D02*
X88500000Y-69650000D01*
X93500000Y-71100000D02*
X93500000Y-77900000D01*
X93500000Y-77900000D02*
X94300000Y-77900000D01*
X94300000Y-77900000D02*
X94300000Y-71100000D01*
X94300000Y-71100000D02*
X93500000Y-71100000D01*
X94300000Y-71500000D02*
X94300000Y-77500000D01*
X94300000Y-77500000D02*
X103500000Y-77500000D01*
X103500000Y-77500000D02*
X103500000Y-71500000D01*
X103500000Y-71500000D02*
X94300000Y-71500000D01*
X103500000Y-89000000D02*
X94300000Y-89000000D01*
X103500000Y-95000000D02*
X103500000Y-89000000D01*
X94300000Y-95000000D02*
X103500000Y-95000000D01*
X94300000Y-89000000D02*
X94300000Y-95000000D01*
X94300000Y-88600000D02*
X93500000Y-88600000D01*
X94300000Y-95400000D02*
X94300000Y-88600000D01*
X93500000Y-95400000D02*
X94300000Y-95400000D01*
X93500000Y-88600000D02*
X93500000Y-95400000D01*
X93500000Y-87150000D02*
X88500000Y-87150000D01*
X93500000Y-96850000D02*
X93500000Y-87150000D01*
X88500000Y-96850000D02*
X93500000Y-96850000D01*
X88500000Y-87150000D02*
X88500000Y-96850000D01*
X88500000Y-104150000D02*
X88500000Y-113850000D01*
X88500000Y-113850000D02*
X93500000Y-113850000D01*
X93500000Y-113850000D02*
X93500000Y-104150000D01*
X93500000Y-104150000D02*
X88500000Y-104150000D01*
X93500000Y-105600000D02*
X93500000Y-112400000D01*
X93500000Y-112400000D02*
X94300000Y-112400000D01*
X94300000Y-112400000D02*
X94300000Y-105600000D01*
X94300000Y-105600000D02*
X93500000Y-105600000D01*
X94300000Y-106000000D02*
X94300000Y-112000000D01*
X94300000Y-112000000D02*
X103500000Y-112000000D01*
X103500000Y-112000000D02*
X103500000Y-106000000D01*
X103500000Y-106000000D02*
X94300000Y-106000000D01*
X71135000Y-93730000D02*
X76485000Y-93730000D01*
X76485000Y-93730000D02*
X76485000Y-103890000D01*
X76485000Y-103890000D02*
X70135000Y-103890000D01*
X70135000Y-103890000D02*
X70135000Y-94730000D01*
X70135000Y-94730000D02*
X71135000Y-93730000D01*
X63635000Y-133770000D02*
X61730000Y-133770000D01*
X61730000Y-133770000D02*
X61730000Y-128690000D01*
X61730000Y-128690000D02*
X64270000Y-128690000D01*
X64270000Y-128690000D02*
X64270000Y-133135000D01*
X64270000Y-133135000D02*
X63635000Y-133770000D01*
X61730000Y-136365000D02*
X62365000Y-135730000D01*
X61730000Y-140810000D02*
X61730000Y-136365000D01*
X64270000Y-140810000D02*
X61730000Y-140810000D01*
X64270000Y-135730000D02*
X64270000Y-140810000D01*
X62365000Y-135730000D02*
X64270000Y-135730000D01*
X65750000Y-121570000D02*
X68250000Y-121570000D01*
X68250000Y-121570000D02*
X68250000Y-115270000D01*
X68250000Y-115270000D02*
X65750000Y-115270000D01*
X65750000Y-115270000D02*
X65750000Y-121570000D01*
X67000000Y-123500000D02*
X67000000Y-121570000D01*
X67000000Y-113340000D02*
X67000000Y-115270000D01*
X63000000Y-123410000D02*
X63000000Y-121480000D01*
X63000000Y-113250000D02*
X63000000Y-115180000D01*
X64250000Y-121480000D02*
X64250000Y-115180000D01*
X61750000Y-121480000D02*
X64250000Y-121480000D01*
X61750000Y-115180000D02*
X61750000Y-121480000D01*
X64250000Y-115180000D02*
X61750000Y-115180000D01*
X71635000Y-112230000D02*
X76985000Y-112230000D01*
X76985000Y-112230000D02*
X76985000Y-122390000D01*
X76985000Y-122390000D02*
X70635000Y-122390000D01*
X70635000Y-122390000D02*
X70635000Y-113230000D01*
X70635000Y-113230000D02*
X71635000Y-112230000D01*
D11*
X50250000Y-77100000D02*
X52750000Y-77100000D01*
X52750000Y-77100000D02*
X52750000Y-77900000D01*
X52750000Y-77900000D02*
X50250000Y-77900000D01*
X50250000Y-77900000D02*
X50250000Y-77100000D01*
X53100000Y-77500000D02*
G75*
G03X53100000Y-77500000I-1600000J0D01*
G01*
X47127142Y-99347142D02*
X47079523Y-99394761D01*
X46936666Y-99442380D01*
X46841428Y-99442380D01*
X46698571Y-99394761D01*
X46603333Y-99299523D01*
X46555714Y-99204285D01*
X46508095Y-99013809D01*
X46508095Y-98870952D01*
X46555714Y-98680476D01*
X46603333Y-98585238D01*
X46698571Y-98490000D01*
X46841428Y-98442380D01*
X46936666Y-98442380D01*
X47079523Y-98490000D01*
X47127142Y-98537619D01*
X47698571Y-99442380D02*
X47603333Y-99394761D01*
X47555714Y-99347142D01*
X47508095Y-99251904D01*
X47508095Y-98966190D01*
X47555714Y-98870952D01*
X47603333Y-98823333D01*
X47698571Y-98775714D01*
X47841428Y-98775714D01*
X47936666Y-98823333D01*
X47984285Y-98870952D01*
X48031904Y-98966190D01*
X48031904Y-99251904D01*
X47984285Y-99347142D01*
X47936666Y-99394761D01*
X47841428Y-99442380D01*
X47698571Y-99442380D01*
X48460476Y-98775714D02*
X48460476Y-99442380D01*
X48460476Y-98870952D02*
X48508095Y-98823333D01*
X48603333Y-98775714D01*
X48746190Y-98775714D01*
X48841428Y-98823333D01*
X48889047Y-98918571D01*
X48889047Y-99442380D01*
X49365238Y-98775714D02*
X49365238Y-99442380D01*
X49365238Y-98870952D02*
X49412857Y-98823333D01*
X49508095Y-98775714D01*
X49650952Y-98775714D01*
X49746190Y-98823333D01*
X49793809Y-98918571D01*
X49793809Y-99442380D01*
X50031904Y-99537619D02*
X50793809Y-99537619D01*
X51222380Y-98442380D02*
X51317619Y-98442380D01*
X51412857Y-98490000D01*
X51460476Y-98537619D01*
X51508095Y-98632857D01*
X51555714Y-98823333D01*
X51555714Y-99061428D01*
X51508095Y-99251904D01*
X51460476Y-99347142D01*
X51412857Y-99394761D01*
X51317619Y-99442380D01*
X51222380Y-99442380D01*
X51127142Y-99394761D01*
X51079523Y-99347142D01*
X51031904Y-99251904D01*
X50984285Y-99061428D01*
X50984285Y-98823333D01*
X51031904Y-98632857D01*
X51079523Y-98537619D01*
X51127142Y-98490000D01*
X51222380Y-98442380D01*
X51936666Y-98537619D02*
X51984285Y-98490000D01*
X52079523Y-98442380D01*
X52317619Y-98442380D01*
X52412857Y-98490000D01*
X52460476Y-98537619D01*
X52508095Y-98632857D01*
X52508095Y-98728095D01*
X52460476Y-98870952D01*
X51889047Y-99442380D01*
X52508095Y-99442380D01*
X52841428Y-99442380D02*
X53365238Y-98775714D01*
X52841428Y-98775714D02*
X53365238Y-99442380D01*
X53936666Y-98442380D02*
X54031904Y-98442380D01*
X54127142Y-98490000D01*
X54174761Y-98537619D01*
X54222380Y-98632857D01*
X54270000Y-98823333D01*
X54270000Y-99061428D01*
X54222380Y-99251904D01*
X54174761Y-99347142D01*
X54127142Y-99394761D01*
X54031904Y-99442380D01*
X53936666Y-99442380D01*
X53841428Y-99394761D01*
X53793809Y-99347142D01*
X53746190Y-99251904D01*
X53698571Y-99061428D01*
X53698571Y-98823333D01*
X53746190Y-98632857D01*
X53793809Y-98537619D01*
X53841428Y-98490000D01*
X53936666Y-98442380D01*
X55174761Y-98442380D02*
X54698571Y-98442380D01*
X54650952Y-98918571D01*
X54698571Y-98870952D01*
X54793809Y-98823333D01*
X55031904Y-98823333D01*
X55127142Y-98870952D01*
X55174761Y-98918571D01*
X55222380Y-99013809D01*
X55222380Y-99251904D01*
X55174761Y-99347142D01*
X55127142Y-99394761D01*
X55031904Y-99442380D01*
X54793809Y-99442380D01*
X54698571Y-99394761D01*
X54650952Y-99347142D01*
X55412857Y-99537619D02*
X56174761Y-99537619D01*
X56603333Y-98442380D02*
X56793809Y-98442380D01*
X56889047Y-98490000D01*
X56984285Y-98585238D01*
X57031904Y-98775714D01*
X57031904Y-99109047D01*
X56984285Y-99299523D01*
X56889047Y-99394761D01*
X56793809Y-99442380D01*
X56603333Y-99442380D01*
X56508095Y-99394761D01*
X56412857Y-99299523D01*
X56365238Y-99109047D01*
X56365238Y-98775714D01*
X56412857Y-98585238D01*
X56508095Y-98490000D01*
X56603333Y-98442380D01*
X57889047Y-99442380D02*
X57889047Y-98442380D01*
X57889047Y-99394761D02*
X57793809Y-99442380D01*
X57603333Y-99442380D01*
X57508095Y-99394761D01*
X57460476Y-99347142D01*
X57412857Y-99251904D01*
X57412857Y-98966190D01*
X57460476Y-98870952D01*
X57508095Y-98823333D01*
X57603333Y-98775714D01*
X57793809Y-98775714D01*
X57889047Y-98823333D01*
X58793809Y-99442380D02*
X58793809Y-98442380D01*
X58793809Y-99394761D02*
X58698571Y-99442380D01*
X58508095Y-99442380D01*
X58412857Y-99394761D01*
X58365238Y-99347142D01*
X58317619Y-99251904D01*
X58317619Y-98966190D01*
X58365238Y-98870952D01*
X58412857Y-98823333D01*
X58508095Y-98775714D01*
X58698571Y-98775714D01*
X58793809Y-98823333D01*
X59031904Y-99537619D02*
X59793809Y-99537619D01*
X60031904Y-98918571D02*
X60365238Y-98918571D01*
X60508095Y-99442380D02*
X60031904Y-99442380D01*
X60031904Y-98442380D01*
X60508095Y-98442380D01*
X60841428Y-98775714D02*
X61079523Y-99442380D01*
X61317619Y-98775714D01*
X62079523Y-99394761D02*
X61984285Y-99442380D01*
X61793809Y-99442380D01*
X61698571Y-99394761D01*
X61650952Y-99299523D01*
X61650952Y-98918571D01*
X61698571Y-98823333D01*
X61793809Y-98775714D01*
X61984285Y-98775714D01*
X62079523Y-98823333D01*
X62127142Y-98918571D01*
X62127142Y-99013809D01*
X61650952Y-99109047D01*
X62555714Y-98775714D02*
X62555714Y-99442380D01*
X62555714Y-98870952D02*
X62603333Y-98823333D01*
X62698571Y-98775714D01*
X62841428Y-98775714D01*
X62936666Y-98823333D01*
X62984285Y-98918571D01*
X62984285Y-99442380D01*
X54222380Y-91913333D02*
X54936666Y-91913333D01*
X55079523Y-91960952D01*
X55174761Y-92056190D01*
X55222380Y-92199047D01*
X55222380Y-92294285D01*
X54222380Y-90960952D02*
X54222380Y-91437142D01*
X54698571Y-91484761D01*
X54650952Y-91437142D01*
X54603333Y-91341904D01*
X54603333Y-91103809D01*
X54650952Y-91008571D01*
X54698571Y-90960952D01*
X54793809Y-90913333D01*
X55031904Y-90913333D01*
X55127142Y-90960952D01*
X55174761Y-91008571D01*
X55222380Y-91103809D01*
X55222380Y-91341904D01*
X55174761Y-91437142D01*
X55127142Y-91484761D01*
X67811904Y-164276666D02*
X68288095Y-164276666D01*
X67716666Y-164562380D02*
X68050000Y-163562380D01*
X68383333Y-164562380D01*
X68716666Y-164562380D02*
X68716666Y-163895714D01*
X68716666Y-164086190D02*
X68764285Y-163990952D01*
X68811904Y-163943333D01*
X68907142Y-163895714D01*
X69002380Y-163895714D01*
X69764285Y-164562380D02*
X69764285Y-163562380D01*
X69764285Y-164514761D02*
X69669047Y-164562380D01*
X69478571Y-164562380D01*
X69383333Y-164514761D01*
X69335714Y-164467142D01*
X69288095Y-164371904D01*
X69288095Y-164086190D01*
X69335714Y-163990952D01*
X69383333Y-163943333D01*
X69478571Y-163895714D01*
X69669047Y-163895714D01*
X69764285Y-163943333D01*
X70669047Y-163895714D02*
X70669047Y-164562380D01*
X70240476Y-163895714D02*
X70240476Y-164419523D01*
X70288095Y-164514761D01*
X70383333Y-164562380D01*
X70526190Y-164562380D01*
X70621428Y-164514761D01*
X70669047Y-164467142D01*
X71145238Y-164562380D02*
X71145238Y-163895714D01*
X71145238Y-163562380D02*
X71097619Y-163610000D01*
X71145238Y-163657619D01*
X71192857Y-163610000D01*
X71145238Y-163562380D01*
X71145238Y-163657619D01*
X71621428Y-163895714D02*
X71621428Y-164562380D01*
X71621428Y-163990952D02*
X71669047Y-163943333D01*
X71764285Y-163895714D01*
X71907142Y-163895714D01*
X72002380Y-163943333D01*
X72050000Y-164038571D01*
X72050000Y-164562380D01*
X72669047Y-164562380D02*
X72573809Y-164514761D01*
X72526190Y-164467142D01*
X72478571Y-164371904D01*
X72478571Y-164086190D01*
X72526190Y-163990952D01*
X72573809Y-163943333D01*
X72669047Y-163895714D01*
X72811904Y-163895714D01*
X72907142Y-163943333D01*
X72954761Y-163990952D01*
X73002380Y-164086190D01*
X73002380Y-164371904D01*
X72954761Y-164467142D01*
X72907142Y-164514761D01*
X72811904Y-164562380D01*
X72669047Y-164562380D01*
X73192857Y-164657619D02*
X73954761Y-164657619D01*
X74192857Y-164562380D02*
X74192857Y-163562380D01*
X74764285Y-164562380D01*
X74764285Y-163562380D01*
X75669047Y-164562380D02*
X75669047Y-164038571D01*
X75621428Y-163943333D01*
X75526190Y-163895714D01*
X75335714Y-163895714D01*
X75240476Y-163943333D01*
X75669047Y-164514761D02*
X75573809Y-164562380D01*
X75335714Y-164562380D01*
X75240476Y-164514761D01*
X75192857Y-164419523D01*
X75192857Y-164324285D01*
X75240476Y-164229047D01*
X75335714Y-164181428D01*
X75573809Y-164181428D01*
X75669047Y-164133809D01*
X76145238Y-163895714D02*
X76145238Y-164562380D01*
X76145238Y-163990952D02*
X76192857Y-163943333D01*
X76288095Y-163895714D01*
X76430952Y-163895714D01*
X76526190Y-163943333D01*
X76573809Y-164038571D01*
X76573809Y-164562380D01*
X77192857Y-164562380D02*
X77097619Y-164514761D01*
X77050000Y-164467142D01*
X77002380Y-164371904D01*
X77002380Y-164086190D01*
X77050000Y-163990952D01*
X77097619Y-163943333D01*
X77192857Y-163895714D01*
X77335714Y-163895714D01*
X77430952Y-163943333D01*
X77478571Y-163990952D01*
X77526190Y-164086190D01*
X77526190Y-164371904D01*
X77478571Y-164467142D01*
X77430952Y-164514761D01*
X77335714Y-164562380D01*
X77192857Y-164562380D01*
X77716666Y-164657619D02*
X78478571Y-164657619D01*
X78621428Y-163895714D02*
X78859523Y-164562380D01*
X79097619Y-163895714D01*
X79383333Y-163562380D02*
X80002380Y-163562380D01*
X79669047Y-163943333D01*
X79811904Y-163943333D01*
X79907142Y-163990952D01*
X79954761Y-164038571D01*
X80002380Y-164133809D01*
X80002380Y-164371904D01*
X79954761Y-164467142D01*
X79907142Y-164514761D01*
X79811904Y-164562380D01*
X79526190Y-164562380D01*
X79430952Y-164514761D01*
X79383333Y-164467142D01*
X80430952Y-164467142D02*
X80478571Y-164514761D01*
X80430952Y-164562380D01*
X80383333Y-164514761D01*
X80430952Y-164467142D01*
X80430952Y-164562380D01*
X80811904Y-164562380D02*
X81335714Y-163895714D01*
X80811904Y-163895714D02*
X81335714Y-164562380D01*
X73835714Y-166816666D02*
X74311904Y-166816666D01*
X73740476Y-167102380D02*
X74073809Y-166102380D01*
X74407142Y-167102380D01*
X75264285Y-167102380D02*
X74692857Y-167102380D01*
X74978571Y-167102380D02*
X74978571Y-166102380D01*
X74883333Y-166245238D01*
X74788095Y-166340476D01*
X74692857Y-166388095D01*
X76202380Y-77702380D02*
X75630952Y-77702380D01*
X75916666Y-77702380D02*
X75916666Y-76702380D01*
X75821428Y-76845238D01*
X75726190Y-76940476D01*
X75630952Y-76988095D01*
X76821428Y-76702380D02*
X76916666Y-76702380D01*
X77011904Y-76750000D01*
X77059523Y-76797619D01*
X77107142Y-76892857D01*
X77154761Y-77083333D01*
X77154761Y-77321428D01*
X77107142Y-77511904D01*
X77059523Y-77607142D01*
X77011904Y-77654761D01*
X76916666Y-77702380D01*
X76821428Y-77702380D01*
X76726190Y-77654761D01*
X76678571Y-77607142D01*
X76630952Y-77511904D01*
X76583333Y-77321428D01*
X76583333Y-77083333D01*
X76630952Y-76892857D01*
X76678571Y-76797619D01*
X76726190Y-76750000D01*
X76821428Y-76702380D01*
X77773809Y-76702380D02*
X77869047Y-76702380D01*
X77964285Y-76750000D01*
X78011904Y-76797619D01*
X78059523Y-76892857D01*
X78107142Y-77083333D01*
X78107142Y-77321428D01*
X78059523Y-77511904D01*
X78011904Y-77607142D01*
X77964285Y-77654761D01*
X77869047Y-77702380D01*
X77773809Y-77702380D01*
X77678571Y-77654761D01*
X77630952Y-77607142D01*
X77583333Y-77511904D01*
X77535714Y-77321428D01*
X77535714Y-77083333D01*
X77583333Y-76892857D01*
X77630952Y-76797619D01*
X77678571Y-76750000D01*
X77773809Y-76702380D01*
X78964285Y-77035714D02*
X78964285Y-77702380D01*
X78535714Y-77035714D02*
X78535714Y-77559523D01*
X78583333Y-77654761D01*
X78678571Y-77702380D01*
X78821428Y-77702380D01*
X78916666Y-77654761D01*
X78964285Y-77607142D01*
X79773809Y-77178571D02*
X79440476Y-77178571D01*
X79440476Y-77702380D02*
X79440476Y-76702380D01*
X79916666Y-76702380D01*
X77583333Y-72357142D02*
X77535714Y-72404761D01*
X77392857Y-72452380D01*
X77297619Y-72452380D01*
X77154761Y-72404761D01*
X77059523Y-72309523D01*
X77011904Y-72214285D01*
X76964285Y-72023809D01*
X76964285Y-71880952D01*
X77011904Y-71690476D01*
X77059523Y-71595238D01*
X77154761Y-71500000D01*
X77297619Y-71452380D01*
X77392857Y-71452380D01*
X77535714Y-71500000D01*
X77583333Y-71547619D01*
X78535714Y-72452380D02*
X77964285Y-72452380D01*
X78250000Y-72452380D02*
X78250000Y-71452380D01*
X78154761Y-71595238D01*
X78059523Y-71690476D01*
X77964285Y-71738095D01*
X75952380Y-86952380D02*
X75380952Y-86952380D01*
X75666666Y-86952380D02*
X75666666Y-85952380D01*
X75571428Y-86095238D01*
X75476190Y-86190476D01*
X75380952Y-86238095D01*
X76571428Y-85952380D02*
X76666666Y-85952380D01*
X76761904Y-86000000D01*
X76809523Y-86047619D01*
X76857142Y-86142857D01*
X76904761Y-86333333D01*
X76904761Y-86571428D01*
X76857142Y-86761904D01*
X76809523Y-86857142D01*
X76761904Y-86904761D01*
X76666666Y-86952380D01*
X76571428Y-86952380D01*
X76476190Y-86904761D01*
X76428571Y-86857142D01*
X76380952Y-86761904D01*
X76333333Y-86571428D01*
X76333333Y-86333333D01*
X76380952Y-86142857D01*
X76428571Y-86047619D01*
X76476190Y-86000000D01*
X76571428Y-85952380D01*
X77523809Y-85952380D02*
X77619047Y-85952380D01*
X77714285Y-86000000D01*
X77761904Y-86047619D01*
X77809523Y-86142857D01*
X77857142Y-86333333D01*
X77857142Y-86571428D01*
X77809523Y-86761904D01*
X77761904Y-86857142D01*
X77714285Y-86904761D01*
X77619047Y-86952380D01*
X77523809Y-86952380D01*
X77428571Y-86904761D01*
X77380952Y-86857142D01*
X77333333Y-86761904D01*
X77285714Y-86571428D01*
X77285714Y-86333333D01*
X77333333Y-86142857D01*
X77380952Y-86047619D01*
X77428571Y-86000000D01*
X77523809Y-85952380D01*
X78285714Y-86285714D02*
X78285714Y-86952380D01*
X78285714Y-86380952D02*
X78333333Y-86333333D01*
X78428571Y-86285714D01*
X78571428Y-86285714D01*
X78666666Y-86333333D01*
X78714285Y-86428571D01*
X78714285Y-86952380D01*
X79523809Y-86428571D02*
X79190476Y-86428571D01*
X79190476Y-86952380D02*
X79190476Y-85952380D01*
X79666666Y-85952380D01*
X77333333Y-83857142D02*
X77285714Y-83904761D01*
X77142857Y-83952380D01*
X77047619Y-83952380D01*
X76904761Y-83904761D01*
X76809523Y-83809523D01*
X76761904Y-83714285D01*
X76714285Y-83523809D01*
X76714285Y-83380952D01*
X76761904Y-83190476D01*
X76809523Y-83095238D01*
X76904761Y-83000000D01*
X77047619Y-82952380D01*
X77142857Y-82952380D01*
X77285714Y-83000000D01*
X77333333Y-83047619D01*
X77714285Y-83047619D02*
X77761904Y-83000000D01*
X77857142Y-82952380D01*
X78095238Y-82952380D01*
X78190476Y-83000000D01*
X78238095Y-83047619D01*
X78285714Y-83142857D01*
X78285714Y-83238095D01*
X78238095Y-83380952D01*
X77666666Y-83952380D01*
X78285714Y-83952380D01*
X53702380Y-77702380D02*
X53130952Y-77702380D01*
X53416666Y-77702380D02*
X53416666Y-76702380D01*
X53321428Y-76845238D01*
X53226190Y-76940476D01*
X53130952Y-76988095D01*
X54321428Y-76702380D02*
X54416666Y-76702380D01*
X54511904Y-76750000D01*
X54559523Y-76797619D01*
X54607142Y-76892857D01*
X54654761Y-77083333D01*
X54654761Y-77321428D01*
X54607142Y-77511904D01*
X54559523Y-77607142D01*
X54511904Y-77654761D01*
X54416666Y-77702380D01*
X54321428Y-77702380D01*
X54226190Y-77654761D01*
X54178571Y-77607142D01*
X54130952Y-77511904D01*
X54083333Y-77321428D01*
X54083333Y-77083333D01*
X54130952Y-76892857D01*
X54178571Y-76797619D01*
X54226190Y-76750000D01*
X54321428Y-76702380D01*
X55273809Y-76702380D02*
X55369047Y-76702380D01*
X55464285Y-76750000D01*
X55511904Y-76797619D01*
X55559523Y-76892857D01*
X55607142Y-77083333D01*
X55607142Y-77321428D01*
X55559523Y-77511904D01*
X55511904Y-77607142D01*
X55464285Y-77654761D01*
X55369047Y-77702380D01*
X55273809Y-77702380D01*
X55178571Y-77654761D01*
X55130952Y-77607142D01*
X55083333Y-77511904D01*
X55035714Y-77321428D01*
X55035714Y-77083333D01*
X55083333Y-76892857D01*
X55130952Y-76797619D01*
X55178571Y-76750000D01*
X55273809Y-76702380D01*
X56464285Y-77035714D02*
X56464285Y-77702380D01*
X56035714Y-77035714D02*
X56035714Y-77559523D01*
X56083333Y-77654761D01*
X56178571Y-77702380D01*
X56321428Y-77702380D01*
X56416666Y-77654761D01*
X56464285Y-77607142D01*
X57273809Y-77178571D02*
X56940476Y-77178571D01*
X56940476Y-77702380D02*
X56940476Y-76702380D01*
X57416666Y-76702380D01*
X55083333Y-72357142D02*
X55035714Y-72404761D01*
X54892857Y-72452380D01*
X54797619Y-72452380D01*
X54654761Y-72404761D01*
X54559523Y-72309523D01*
X54511904Y-72214285D01*
X54464285Y-72023809D01*
X54464285Y-71880952D01*
X54511904Y-71690476D01*
X54559523Y-71595238D01*
X54654761Y-71500000D01*
X54797619Y-71452380D01*
X54892857Y-71452380D01*
X55035714Y-71500000D01*
X55083333Y-71547619D01*
X55416666Y-71452380D02*
X56035714Y-71452380D01*
X55702380Y-71833333D01*
X55845238Y-71833333D01*
X55940476Y-71880952D01*
X55988095Y-71928571D01*
X56035714Y-72023809D01*
X56035714Y-72261904D01*
X55988095Y-72357142D01*
X55940476Y-72404761D01*
X55845238Y-72452380D01*
X55559523Y-72452380D01*
X55464285Y-72404761D01*
X55416666Y-72357142D01*
X64952380Y-91047619D02*
X64952380Y-91619047D01*
X64952380Y-91333333D02*
X63952380Y-91333333D01*
X64095238Y-91428571D01*
X64190476Y-91523809D01*
X64238095Y-91619047D01*
X63952380Y-90428571D02*
X63952380Y-90333333D01*
X64000000Y-90238095D01*
X64047619Y-90190476D01*
X64142857Y-90142857D01*
X64333333Y-90095238D01*
X64571428Y-90095238D01*
X64761904Y-90142857D01*
X64857142Y-90190476D01*
X64904761Y-90238095D01*
X64952380Y-90333333D01*
X64952380Y-90428571D01*
X64904761Y-90523809D01*
X64857142Y-90571428D01*
X64761904Y-90619047D01*
X64571428Y-90666666D01*
X64333333Y-90666666D01*
X64142857Y-90619047D01*
X64047619Y-90571428D01*
X64000000Y-90523809D01*
X63952380Y-90428571D01*
X63952380Y-89476190D02*
X63952380Y-89380952D01*
X64000000Y-89285714D01*
X64047619Y-89238095D01*
X64142857Y-89190476D01*
X64333333Y-89142857D01*
X64571428Y-89142857D01*
X64761904Y-89190476D01*
X64857142Y-89238095D01*
X64904761Y-89285714D01*
X64952380Y-89380952D01*
X64952380Y-89476190D01*
X64904761Y-89571428D01*
X64857142Y-89619047D01*
X64761904Y-89666666D01*
X64571428Y-89714285D01*
X64333333Y-89714285D01*
X64142857Y-89666666D01*
X64047619Y-89619047D01*
X64000000Y-89571428D01*
X63952380Y-89476190D01*
X64285714Y-88714285D02*
X64952380Y-88714285D01*
X64380952Y-88714285D02*
X64333333Y-88666666D01*
X64285714Y-88571428D01*
X64285714Y-88428571D01*
X64333333Y-88333333D01*
X64428571Y-88285714D01*
X64952380Y-88285714D01*
X64428571Y-87476190D02*
X64428571Y-87809523D01*
X64952380Y-87809523D02*
X63952380Y-87809523D01*
X63952380Y-87333333D01*
X67857142Y-89666666D02*
X67904761Y-89714285D01*
X67952380Y-89857142D01*
X67952380Y-89952380D01*
X67904761Y-90095238D01*
X67809523Y-90190476D01*
X67714285Y-90238095D01*
X67523809Y-90285714D01*
X67380952Y-90285714D01*
X67190476Y-90238095D01*
X67095238Y-90190476D01*
X67000000Y-90095238D01*
X66952380Y-89952380D01*
X66952380Y-89857142D01*
X67000000Y-89714285D01*
X67047619Y-89666666D01*
X67285714Y-88809523D02*
X67952380Y-88809523D01*
X66904761Y-89047619D02*
X67619047Y-89285714D01*
X67619047Y-88666666D01*
X63952380Y-156952380D02*
X63380952Y-156952380D01*
X63666666Y-156952380D02*
X63666666Y-155952380D01*
X63571428Y-156095238D01*
X63476190Y-156190476D01*
X63380952Y-156238095D01*
X64571428Y-155952380D02*
X64666666Y-155952380D01*
X64761904Y-156000000D01*
X64809523Y-156047619D01*
X64857142Y-156142857D01*
X64904761Y-156333333D01*
X64904761Y-156571428D01*
X64857142Y-156761904D01*
X64809523Y-156857142D01*
X64761904Y-156904761D01*
X64666666Y-156952380D01*
X64571428Y-156952380D01*
X64476190Y-156904761D01*
X64428571Y-156857142D01*
X64380952Y-156761904D01*
X64333333Y-156571428D01*
X64333333Y-156333333D01*
X64380952Y-156142857D01*
X64428571Y-156047619D01*
X64476190Y-156000000D01*
X64571428Y-155952380D01*
X65523809Y-155952380D02*
X65619047Y-155952380D01*
X65714285Y-156000000D01*
X65761904Y-156047619D01*
X65809523Y-156142857D01*
X65857142Y-156333333D01*
X65857142Y-156571428D01*
X65809523Y-156761904D01*
X65761904Y-156857142D01*
X65714285Y-156904761D01*
X65619047Y-156952380D01*
X65523809Y-156952380D01*
X65428571Y-156904761D01*
X65380952Y-156857142D01*
X65333333Y-156761904D01*
X65285714Y-156571428D01*
X65285714Y-156333333D01*
X65333333Y-156142857D01*
X65380952Y-156047619D01*
X65428571Y-156000000D01*
X65523809Y-155952380D01*
X66285714Y-156285714D02*
X66285714Y-156952380D01*
X66285714Y-156380952D02*
X66333333Y-156333333D01*
X66428571Y-156285714D01*
X66571428Y-156285714D01*
X66666666Y-156333333D01*
X66714285Y-156428571D01*
X66714285Y-156952380D01*
X67523809Y-156428571D02*
X67190476Y-156428571D01*
X67190476Y-156952380D02*
X67190476Y-155952380D01*
X67666666Y-155952380D01*
X65333333Y-153857142D02*
X65285714Y-153904761D01*
X65142857Y-153952380D01*
X65047619Y-153952380D01*
X64904761Y-153904761D01*
X64809523Y-153809523D01*
X64761904Y-153714285D01*
X64714285Y-153523809D01*
X64714285Y-153380952D01*
X64761904Y-153190476D01*
X64809523Y-153095238D01*
X64904761Y-153000000D01*
X65047619Y-152952380D01*
X65142857Y-152952380D01*
X65285714Y-153000000D01*
X65333333Y-153047619D01*
X66238095Y-152952380D02*
X65761904Y-152952380D01*
X65714285Y-153428571D01*
X65761904Y-153380952D01*
X65857142Y-153333333D01*
X66095238Y-153333333D01*
X66190476Y-153380952D01*
X66238095Y-153428571D01*
X66285714Y-153523809D01*
X66285714Y-153761904D01*
X66238095Y-153857142D01*
X66190476Y-153904761D01*
X66095238Y-153952380D01*
X65857142Y-153952380D01*
X65761904Y-153904761D01*
X65714285Y-153857142D01*
X65202380Y-77702380D02*
X64630952Y-77702380D01*
X64916666Y-77702380D02*
X64916666Y-76702380D01*
X64821428Y-76845238D01*
X64726190Y-76940476D01*
X64630952Y-76988095D01*
X65821428Y-76702380D02*
X65916666Y-76702380D01*
X66011904Y-76750000D01*
X66059523Y-76797619D01*
X66107142Y-76892857D01*
X66154761Y-77083333D01*
X66154761Y-77321428D01*
X66107142Y-77511904D01*
X66059523Y-77607142D01*
X66011904Y-77654761D01*
X65916666Y-77702380D01*
X65821428Y-77702380D01*
X65726190Y-77654761D01*
X65678571Y-77607142D01*
X65630952Y-77511904D01*
X65583333Y-77321428D01*
X65583333Y-77083333D01*
X65630952Y-76892857D01*
X65678571Y-76797619D01*
X65726190Y-76750000D01*
X65821428Y-76702380D01*
X66773809Y-76702380D02*
X66869047Y-76702380D01*
X66964285Y-76750000D01*
X67011904Y-76797619D01*
X67059523Y-76892857D01*
X67107142Y-77083333D01*
X67107142Y-77321428D01*
X67059523Y-77511904D01*
X67011904Y-77607142D01*
X66964285Y-77654761D01*
X66869047Y-77702380D01*
X66773809Y-77702380D01*
X66678571Y-77654761D01*
X66630952Y-77607142D01*
X66583333Y-77511904D01*
X66535714Y-77321428D01*
X66535714Y-77083333D01*
X66583333Y-76892857D01*
X66630952Y-76797619D01*
X66678571Y-76750000D01*
X66773809Y-76702380D01*
X67964285Y-77035714D02*
X67964285Y-77702380D01*
X67535714Y-77035714D02*
X67535714Y-77559523D01*
X67583333Y-77654761D01*
X67678571Y-77702380D01*
X67821428Y-77702380D01*
X67916666Y-77654761D01*
X67964285Y-77607142D01*
X68773809Y-77178571D02*
X68440476Y-77178571D01*
X68440476Y-77702380D02*
X68440476Y-76702380D01*
X68916666Y-76702380D01*
X66583333Y-72357142D02*
X66535714Y-72404761D01*
X66392857Y-72452380D01*
X66297619Y-72452380D01*
X66154761Y-72404761D01*
X66059523Y-72309523D01*
X66011904Y-72214285D01*
X65964285Y-72023809D01*
X65964285Y-71880952D01*
X66011904Y-71690476D01*
X66059523Y-71595238D01*
X66154761Y-71500000D01*
X66297619Y-71452380D01*
X66392857Y-71452380D01*
X66535714Y-71500000D01*
X66583333Y-71547619D01*
X67440476Y-71452380D02*
X67250000Y-71452380D01*
X67154761Y-71500000D01*
X67107142Y-71547619D01*
X67011904Y-71690476D01*
X66964285Y-71880952D01*
X66964285Y-72261904D01*
X67011904Y-72357142D01*
X67059523Y-72404761D01*
X67154761Y-72452380D01*
X67345238Y-72452380D01*
X67440476Y-72404761D01*
X67488095Y-72357142D01*
X67535714Y-72261904D01*
X67535714Y-72023809D01*
X67488095Y-71928571D01*
X67440476Y-71880952D01*
X67345238Y-71833333D01*
X67154761Y-71833333D01*
X67059523Y-71880952D01*
X67011904Y-71928571D01*
X66964285Y-72023809D01*
X78952380Y-110071428D02*
X78952380Y-110642857D01*
X78952380Y-110357142D02*
X77952380Y-110357142D01*
X78095238Y-110452380D01*
X78190476Y-110547619D01*
X78238095Y-110642857D01*
X77952380Y-109452380D02*
X77952380Y-109357142D01*
X78000000Y-109261904D01*
X78047619Y-109214285D01*
X78142857Y-109166666D01*
X78333333Y-109119047D01*
X78571428Y-109119047D01*
X78761904Y-109166666D01*
X78857142Y-109214285D01*
X78904761Y-109261904D01*
X78952380Y-109357142D01*
X78952380Y-109452380D01*
X78904761Y-109547619D01*
X78857142Y-109595238D01*
X78761904Y-109642857D01*
X78571428Y-109690476D01*
X78333333Y-109690476D01*
X78142857Y-109642857D01*
X78047619Y-109595238D01*
X78000000Y-109547619D01*
X77952380Y-109452380D01*
X78285714Y-108690476D02*
X78952380Y-108690476D01*
X78380952Y-108690476D02*
X78333333Y-108642857D01*
X78285714Y-108547619D01*
X78285714Y-108404761D01*
X78333333Y-108309523D01*
X78428571Y-108261904D01*
X78952380Y-108261904D01*
X78428571Y-107452380D02*
X78428571Y-107785714D01*
X78952380Y-107785714D02*
X77952380Y-107785714D01*
X77952380Y-107309523D01*
X81357142Y-109166666D02*
X81404761Y-109214285D01*
X81452380Y-109357142D01*
X81452380Y-109452380D01*
X81404761Y-109595238D01*
X81309523Y-109690476D01*
X81214285Y-109738095D01*
X81023809Y-109785714D01*
X80880952Y-109785714D01*
X80690476Y-109738095D01*
X80595238Y-109690476D01*
X80500000Y-109595238D01*
X80452380Y-109452380D01*
X80452380Y-109357142D01*
X80500000Y-109214285D01*
X80547619Y-109166666D01*
X80452380Y-108833333D02*
X80452380Y-108166666D01*
X81452380Y-108595238D01*
X67952380Y-102547619D02*
X67952380Y-103119047D01*
X67952380Y-102833333D02*
X66952380Y-102833333D01*
X67095238Y-102928571D01*
X67190476Y-103023809D01*
X67238095Y-103119047D01*
X66952380Y-101928571D02*
X66952380Y-101833333D01*
X67000000Y-101738095D01*
X67047619Y-101690476D01*
X67142857Y-101642857D01*
X67333333Y-101595238D01*
X67571428Y-101595238D01*
X67761904Y-101642857D01*
X67857142Y-101690476D01*
X67904761Y-101738095D01*
X67952380Y-101833333D01*
X67952380Y-101928571D01*
X67904761Y-102023809D01*
X67857142Y-102071428D01*
X67761904Y-102119047D01*
X67571428Y-102166666D01*
X67333333Y-102166666D01*
X67142857Y-102119047D01*
X67047619Y-102071428D01*
X67000000Y-102023809D01*
X66952380Y-101928571D01*
X66952380Y-100976190D02*
X66952380Y-100880952D01*
X67000000Y-100785714D01*
X67047619Y-100738095D01*
X67142857Y-100690476D01*
X67333333Y-100642857D01*
X67571428Y-100642857D01*
X67761904Y-100690476D01*
X67857142Y-100738095D01*
X67904761Y-100785714D01*
X67952380Y-100880952D01*
X67952380Y-100976190D01*
X67904761Y-101071428D01*
X67857142Y-101119047D01*
X67761904Y-101166666D01*
X67571428Y-101214285D01*
X67333333Y-101214285D01*
X67142857Y-101166666D01*
X67047619Y-101119047D01*
X67000000Y-101071428D01*
X66952380Y-100976190D01*
X67285714Y-100214285D02*
X67952380Y-100214285D01*
X67380952Y-100214285D02*
X67333333Y-100166666D01*
X67285714Y-100071428D01*
X67285714Y-99928571D01*
X67333333Y-99833333D01*
X67428571Y-99785714D01*
X67952380Y-99785714D01*
X67428571Y-98976190D02*
X67428571Y-99309523D01*
X67952380Y-99309523D02*
X66952380Y-99309523D01*
X66952380Y-98833333D01*
X65357142Y-101166666D02*
X65404761Y-101214285D01*
X65452380Y-101357142D01*
X65452380Y-101452380D01*
X65404761Y-101595238D01*
X65309523Y-101690476D01*
X65214285Y-101738095D01*
X65023809Y-101785714D01*
X64880952Y-101785714D01*
X64690476Y-101738095D01*
X64595238Y-101690476D01*
X64500000Y-101595238D01*
X64452380Y-101452380D01*
X64452380Y-101357142D01*
X64500000Y-101214285D01*
X64547619Y-101166666D01*
X64880952Y-100595238D02*
X64833333Y-100690476D01*
X64785714Y-100738095D01*
X64690476Y-100785714D01*
X64642857Y-100785714D01*
X64547619Y-100738095D01*
X64500000Y-100690476D01*
X64452380Y-100595238D01*
X64452380Y-100404761D01*
X64500000Y-100309523D01*
X64547619Y-100261904D01*
X64642857Y-100214285D01*
X64690476Y-100214285D01*
X64785714Y-100261904D01*
X64833333Y-100309523D01*
X64880952Y-100404761D01*
X64880952Y-100595238D01*
X64928571Y-100690476D01*
X64976190Y-100738095D01*
X65071428Y-100785714D01*
X65261904Y-100785714D01*
X65357142Y-100738095D01*
X65404761Y-100690476D01*
X65452380Y-100595238D01*
X65452380Y-100404761D01*
X65404761Y-100309523D01*
X65357142Y-100261904D01*
X65261904Y-100214285D01*
X65071428Y-100214285D01*
X64976190Y-100261904D01*
X64928571Y-100309523D01*
X64880952Y-100404761D01*
X72952380Y-93952380D02*
X72380952Y-93952380D01*
X72666666Y-93952380D02*
X72666666Y-92952380D01*
X72571428Y-93095238D01*
X72476190Y-93190476D01*
X72380952Y-93238095D01*
X73571428Y-92952380D02*
X73666666Y-92952380D01*
X73761904Y-93000000D01*
X73809523Y-93047619D01*
X73857142Y-93142857D01*
X73904761Y-93333333D01*
X73904761Y-93571428D01*
X73857142Y-93761904D01*
X73809523Y-93857142D01*
X73761904Y-93904761D01*
X73666666Y-93952380D01*
X73571428Y-93952380D01*
X73476190Y-93904761D01*
X73428571Y-93857142D01*
X73380952Y-93761904D01*
X73333333Y-93571428D01*
X73333333Y-93333333D01*
X73380952Y-93142857D01*
X73428571Y-93047619D01*
X73476190Y-93000000D01*
X73571428Y-92952380D01*
X74523809Y-92952380D02*
X74619047Y-92952380D01*
X74714285Y-93000000D01*
X74761904Y-93047619D01*
X74809523Y-93142857D01*
X74857142Y-93333333D01*
X74857142Y-93571428D01*
X74809523Y-93761904D01*
X74761904Y-93857142D01*
X74714285Y-93904761D01*
X74619047Y-93952380D01*
X74523809Y-93952380D01*
X74428571Y-93904761D01*
X74380952Y-93857142D01*
X74333333Y-93761904D01*
X74285714Y-93571428D01*
X74285714Y-93333333D01*
X74333333Y-93142857D01*
X74380952Y-93047619D01*
X74428571Y-93000000D01*
X74523809Y-92952380D01*
X75285714Y-93285714D02*
X75285714Y-93952380D01*
X75285714Y-93380952D02*
X75333333Y-93333333D01*
X75428571Y-93285714D01*
X75571428Y-93285714D01*
X75666666Y-93333333D01*
X75714285Y-93428571D01*
X75714285Y-93952380D01*
X76523809Y-93428571D02*
X76190476Y-93428571D01*
X76190476Y-93952380D02*
X76190476Y-92952380D01*
X76666666Y-92952380D01*
X74333333Y-91357142D02*
X74285714Y-91404761D01*
X74142857Y-91452380D01*
X74047619Y-91452380D01*
X73904761Y-91404761D01*
X73809523Y-91309523D01*
X73761904Y-91214285D01*
X73714285Y-91023809D01*
X73714285Y-90880952D01*
X73761904Y-90690476D01*
X73809523Y-90595238D01*
X73904761Y-90500000D01*
X74047619Y-90452380D01*
X74142857Y-90452380D01*
X74285714Y-90500000D01*
X74333333Y-90547619D01*
X74809523Y-91452380D02*
X75000000Y-91452380D01*
X75095238Y-91404761D01*
X75142857Y-91357142D01*
X75238095Y-91214285D01*
X75285714Y-91023809D01*
X75285714Y-90642857D01*
X75238095Y-90547619D01*
X75190476Y-90500000D01*
X75095238Y-90452380D01*
X74904761Y-90452380D01*
X74809523Y-90500000D01*
X74761904Y-90547619D01*
X74714285Y-90642857D01*
X74714285Y-90880952D01*
X74761904Y-90976190D01*
X74809523Y-91023809D01*
X74904761Y-91071428D01*
X75095238Y-91071428D01*
X75190476Y-91023809D01*
X75238095Y-90976190D01*
X75285714Y-90880952D01*
X53667142Y-133572380D02*
X53095714Y-133572380D01*
X53381428Y-133572380D02*
X53381428Y-132572380D01*
X53286190Y-132715238D01*
X53190952Y-132810476D01*
X53095714Y-132858095D01*
X54095714Y-133572380D02*
X54095714Y-132572380D01*
X54667142Y-133572380D01*
X54667142Y-132572380D01*
X55571904Y-132905714D02*
X55571904Y-133572380D01*
X55333809Y-132524761D02*
X55095714Y-133239047D01*
X55714761Y-133239047D01*
X56619523Y-133572380D02*
X56048095Y-133572380D01*
X56333809Y-133572380D02*
X56333809Y-132572380D01*
X56238571Y-132715238D01*
X56143333Y-132810476D01*
X56048095Y-132858095D01*
X57476666Y-132905714D02*
X57476666Y-133572380D01*
X57238571Y-132524761D02*
X57000476Y-133239047D01*
X57619523Y-133239047D01*
X58143333Y-133000952D02*
X58048095Y-132953333D01*
X58000476Y-132905714D01*
X57952857Y-132810476D01*
X57952857Y-132762857D01*
X58000476Y-132667619D01*
X58048095Y-132620000D01*
X58143333Y-132572380D01*
X58333809Y-132572380D01*
X58429047Y-132620000D01*
X58476666Y-132667619D01*
X58524285Y-132762857D01*
X58524285Y-132810476D01*
X58476666Y-132905714D01*
X58429047Y-132953333D01*
X58333809Y-133000952D01*
X58143333Y-133000952D01*
X58048095Y-133048571D01*
X58000476Y-133096190D01*
X57952857Y-133191428D01*
X57952857Y-133381904D01*
X58000476Y-133477142D01*
X58048095Y-133524761D01*
X58143333Y-133572380D01*
X58333809Y-133572380D01*
X58429047Y-133524761D01*
X58476666Y-133477142D01*
X58524285Y-133381904D01*
X58524285Y-133191428D01*
X58476666Y-133096190D01*
X58429047Y-133048571D01*
X58333809Y-133000952D01*
X51738095Y-129652380D02*
X51738095Y-128652380D01*
X52309523Y-129652380D02*
X51880952Y-129080952D01*
X52309523Y-128652380D02*
X51738095Y-129223809D01*
D12*
X55519523Y-131361904D02*
X55519523Y-130561904D01*
X55710000Y-130561904D01*
X55824285Y-130600000D01*
X55900476Y-130676190D01*
X55938571Y-130752380D01*
X55976666Y-130904761D01*
X55976666Y-131019047D01*
X55938571Y-131171428D01*
X55900476Y-131247619D01*
X55824285Y-131323809D01*
X55710000Y-131361904D01*
X55519523Y-131361904D01*
X56738571Y-131361904D02*
X56281428Y-131361904D01*
X56510000Y-131361904D02*
X56510000Y-130561904D01*
X56433809Y-130676190D01*
X56357619Y-130752380D01*
X56281428Y-130790476D01*
D11*
X53547142Y-133332380D02*
X52975714Y-133332380D01*
X53261428Y-133332380D02*
X53261428Y-132332380D01*
X53166190Y-132475238D01*
X53070952Y-132570476D01*
X52975714Y-132618095D01*
X53975714Y-133332380D02*
X53975714Y-132332380D01*
X54547142Y-133332380D01*
X54547142Y-132332380D01*
X55451904Y-132665714D02*
X55451904Y-133332380D01*
X55213809Y-132284761D02*
X54975714Y-132999047D01*
X55594761Y-132999047D01*
X56499523Y-133332380D02*
X55928095Y-133332380D01*
X56213809Y-133332380D02*
X56213809Y-132332380D01*
X56118571Y-132475238D01*
X56023333Y-132570476D01*
X55928095Y-132618095D01*
X57356666Y-132665714D02*
X57356666Y-133332380D01*
X57118571Y-132284761D02*
X56880476Y-132999047D01*
X57499523Y-132999047D01*
X58023333Y-132760952D02*
X57928095Y-132713333D01*
X57880476Y-132665714D01*
X57832857Y-132570476D01*
X57832857Y-132522857D01*
X57880476Y-132427619D01*
X57928095Y-132380000D01*
X58023333Y-132332380D01*
X58213809Y-132332380D01*
X58309047Y-132380000D01*
X58356666Y-132427619D01*
X58404285Y-132522857D01*
X58404285Y-132570476D01*
X58356666Y-132665714D01*
X58309047Y-132713333D01*
X58213809Y-132760952D01*
X58023333Y-132760952D01*
X57928095Y-132808571D01*
X57880476Y-132856190D01*
X57832857Y-132951428D01*
X57832857Y-133141904D01*
X57880476Y-133237142D01*
X57928095Y-133284761D01*
X58023333Y-133332380D01*
X58213809Y-133332380D01*
X58309047Y-133284761D01*
X58356666Y-133237142D01*
X58404285Y-133141904D01*
X58404285Y-132951428D01*
X58356666Y-132856190D01*
X58309047Y-132808571D01*
X58213809Y-132760952D01*
D12*
X54799523Y-135361904D02*
X54799523Y-134561904D01*
X54990000Y-134561904D01*
X55104285Y-134600000D01*
X55180476Y-134676190D01*
X55218571Y-134752380D01*
X55256666Y-134904761D01*
X55256666Y-135019047D01*
X55218571Y-135171428D01*
X55180476Y-135247619D01*
X55104285Y-135323809D01*
X54990000Y-135361904D01*
X54799523Y-135361904D01*
X55561428Y-134638095D02*
X55599523Y-134600000D01*
X55675714Y-134561904D01*
X55866190Y-134561904D01*
X55942380Y-134600000D01*
X55980476Y-134638095D01*
X56018571Y-134714285D01*
X56018571Y-134790476D01*
X55980476Y-134904761D01*
X55523333Y-135361904D01*
X56018571Y-135361904D01*
D11*
X59238095Y-137252380D02*
X59238095Y-136252380D01*
X59809523Y-137252380D02*
X59380952Y-136680952D01*
X59809523Y-136252380D02*
X59238095Y-136823809D01*
X53667142Y-141572380D02*
X53095714Y-141572380D01*
X53381428Y-141572380D02*
X53381428Y-140572380D01*
X53286190Y-140715238D01*
X53190952Y-140810476D01*
X53095714Y-140858095D01*
X54095714Y-141572380D02*
X54095714Y-140572380D01*
X54667142Y-141572380D01*
X54667142Y-140572380D01*
X55571904Y-140905714D02*
X55571904Y-141572380D01*
X55333809Y-140524761D02*
X55095714Y-141239047D01*
X55714761Y-141239047D01*
X56619523Y-141572380D02*
X56048095Y-141572380D01*
X56333809Y-141572380D02*
X56333809Y-140572380D01*
X56238571Y-140715238D01*
X56143333Y-140810476D01*
X56048095Y-140858095D01*
X57476666Y-140905714D02*
X57476666Y-141572380D01*
X57238571Y-140524761D02*
X57000476Y-141239047D01*
X57619523Y-141239047D01*
X58143333Y-141000952D02*
X58048095Y-140953333D01*
X58000476Y-140905714D01*
X57952857Y-140810476D01*
X57952857Y-140762857D01*
X58000476Y-140667619D01*
X58048095Y-140620000D01*
X58143333Y-140572380D01*
X58333809Y-140572380D01*
X58429047Y-140620000D01*
X58476666Y-140667619D01*
X58524285Y-140762857D01*
X58524285Y-140810476D01*
X58476666Y-140905714D01*
X58429047Y-140953333D01*
X58333809Y-141000952D01*
X58143333Y-141000952D01*
X58048095Y-141048571D01*
X58000476Y-141096190D01*
X57952857Y-141191428D01*
X57952857Y-141381904D01*
X58000476Y-141477142D01*
X58048095Y-141524761D01*
X58143333Y-141572380D01*
X58333809Y-141572380D01*
X58429047Y-141524761D01*
X58476666Y-141477142D01*
X58524285Y-141381904D01*
X58524285Y-141191428D01*
X58476666Y-141096190D01*
X58429047Y-141048571D01*
X58333809Y-141000952D01*
D12*
X55519523Y-139361904D02*
X55519523Y-138561904D01*
X55710000Y-138561904D01*
X55824285Y-138600000D01*
X55900476Y-138676190D01*
X55938571Y-138752380D01*
X55976666Y-138904761D01*
X55976666Y-139019047D01*
X55938571Y-139171428D01*
X55900476Y-139247619D01*
X55824285Y-139323809D01*
X55710000Y-139361904D01*
X55519523Y-139361904D01*
X56243333Y-138561904D02*
X56738571Y-138561904D01*
X56471904Y-138866666D01*
X56586190Y-138866666D01*
X56662380Y-138904761D01*
X56700476Y-138942857D01*
X56738571Y-139019047D01*
X56738571Y-139209523D01*
X56700476Y-139285714D01*
X56662380Y-139323809D01*
X56586190Y-139361904D01*
X56357619Y-139361904D01*
X56281428Y-139323809D01*
X56243333Y-139285714D01*
D11*
X51738095Y-137652380D02*
X51738095Y-136652380D01*
X52309523Y-137652380D02*
X51880952Y-137080952D01*
X52309523Y-136652380D02*
X51738095Y-137223809D01*
X53547142Y-141332380D02*
X52975714Y-141332380D01*
X53261428Y-141332380D02*
X53261428Y-140332380D01*
X53166190Y-140475238D01*
X53070952Y-140570476D01*
X52975714Y-140618095D01*
X53975714Y-141332380D02*
X53975714Y-140332380D01*
X54547142Y-141332380D01*
X54547142Y-140332380D01*
X55451904Y-140665714D02*
X55451904Y-141332380D01*
X55213809Y-140284761D02*
X54975714Y-140999047D01*
X55594761Y-140999047D01*
X56499523Y-141332380D02*
X55928095Y-141332380D01*
X56213809Y-141332380D02*
X56213809Y-140332380D01*
X56118571Y-140475238D01*
X56023333Y-140570476D01*
X55928095Y-140618095D01*
X57356666Y-140665714D02*
X57356666Y-141332380D01*
X57118571Y-140284761D02*
X56880476Y-140999047D01*
X57499523Y-140999047D01*
X58023333Y-140760952D02*
X57928095Y-140713333D01*
X57880476Y-140665714D01*
X57832857Y-140570476D01*
X57832857Y-140522857D01*
X57880476Y-140427619D01*
X57928095Y-140380000D01*
X58023333Y-140332380D01*
X58213809Y-140332380D01*
X58309047Y-140380000D01*
X58356666Y-140427619D01*
X58404285Y-140522857D01*
X58404285Y-140570476D01*
X58356666Y-140665714D01*
X58309047Y-140713333D01*
X58213809Y-140760952D01*
X58023333Y-140760952D01*
X57928095Y-140808571D01*
X57880476Y-140856190D01*
X57832857Y-140951428D01*
X57832857Y-141141904D01*
X57880476Y-141237142D01*
X57928095Y-141284761D01*
X58023333Y-141332380D01*
X58213809Y-141332380D01*
X58309047Y-141284761D01*
X58356666Y-141237142D01*
X58404285Y-141141904D01*
X58404285Y-140951428D01*
X58356666Y-140856190D01*
X58309047Y-140808571D01*
X58213809Y-140760952D01*
X59238095Y-145252380D02*
X59238095Y-144252380D01*
X59809523Y-145252380D02*
X59380952Y-144680952D01*
X59809523Y-144252380D02*
X59238095Y-144823809D01*
D12*
X54799523Y-143361904D02*
X54799523Y-142561904D01*
X54990000Y-142561904D01*
X55104285Y-142600000D01*
X55180476Y-142676190D01*
X55218571Y-142752380D01*
X55256666Y-142904761D01*
X55256666Y-143019047D01*
X55218571Y-143171428D01*
X55180476Y-143247619D01*
X55104285Y-143323809D01*
X54990000Y-143361904D01*
X54799523Y-143361904D01*
X55942380Y-142828571D02*
X55942380Y-143361904D01*
X55751904Y-142523809D02*
X55561428Y-143095238D01*
X56056666Y-143095238D01*
D11*
X53667142Y-149572380D02*
X53095714Y-149572380D01*
X53381428Y-149572380D02*
X53381428Y-148572380D01*
X53286190Y-148715238D01*
X53190952Y-148810476D01*
X53095714Y-148858095D01*
X54095714Y-149572380D02*
X54095714Y-148572380D01*
X54667142Y-149572380D01*
X54667142Y-148572380D01*
X55571904Y-148905714D02*
X55571904Y-149572380D01*
X55333809Y-148524761D02*
X55095714Y-149239047D01*
X55714761Y-149239047D01*
X56619523Y-149572380D02*
X56048095Y-149572380D01*
X56333809Y-149572380D02*
X56333809Y-148572380D01*
X56238571Y-148715238D01*
X56143333Y-148810476D01*
X56048095Y-148858095D01*
X57476666Y-148905714D02*
X57476666Y-149572380D01*
X57238571Y-148524761D02*
X57000476Y-149239047D01*
X57619523Y-149239047D01*
X58143333Y-149000952D02*
X58048095Y-148953333D01*
X58000476Y-148905714D01*
X57952857Y-148810476D01*
X57952857Y-148762857D01*
X58000476Y-148667619D01*
X58048095Y-148620000D01*
X58143333Y-148572380D01*
X58333809Y-148572380D01*
X58429047Y-148620000D01*
X58476666Y-148667619D01*
X58524285Y-148762857D01*
X58524285Y-148810476D01*
X58476666Y-148905714D01*
X58429047Y-148953333D01*
X58333809Y-149000952D01*
X58143333Y-149000952D01*
X58048095Y-149048571D01*
X58000476Y-149096190D01*
X57952857Y-149191428D01*
X57952857Y-149381904D01*
X58000476Y-149477142D01*
X58048095Y-149524761D01*
X58143333Y-149572380D01*
X58333809Y-149572380D01*
X58429047Y-149524761D01*
X58476666Y-149477142D01*
X58524285Y-149381904D01*
X58524285Y-149191428D01*
X58476666Y-149096190D01*
X58429047Y-149048571D01*
X58333809Y-149000952D01*
X51738095Y-145652380D02*
X51738095Y-144652380D01*
X52309523Y-145652380D02*
X51880952Y-145080952D01*
X52309523Y-144652380D02*
X51738095Y-145223809D01*
D12*
X55519523Y-147361904D02*
X55519523Y-146561904D01*
X55710000Y-146561904D01*
X55824285Y-146600000D01*
X55900476Y-146676190D01*
X55938571Y-146752380D01*
X55976666Y-146904761D01*
X55976666Y-147019047D01*
X55938571Y-147171428D01*
X55900476Y-147247619D01*
X55824285Y-147323809D01*
X55710000Y-147361904D01*
X55519523Y-147361904D01*
X56700476Y-146561904D02*
X56319523Y-146561904D01*
X56281428Y-146942857D01*
X56319523Y-146904761D01*
X56395714Y-146866666D01*
X56586190Y-146866666D01*
X56662380Y-146904761D01*
X56700476Y-146942857D01*
X56738571Y-147019047D01*
X56738571Y-147209523D01*
X56700476Y-147285714D01*
X56662380Y-147323809D01*
X56586190Y-147361904D01*
X56395714Y-147361904D01*
X56319523Y-147323809D01*
X56281428Y-147285714D01*
D11*
X53547142Y-149332380D02*
X52975714Y-149332380D01*
X53261428Y-149332380D02*
X53261428Y-148332380D01*
X53166190Y-148475238D01*
X53070952Y-148570476D01*
X52975714Y-148618095D01*
X53975714Y-149332380D02*
X53975714Y-148332380D01*
X54547142Y-149332380D01*
X54547142Y-148332380D01*
X55451904Y-148665714D02*
X55451904Y-149332380D01*
X55213809Y-148284761D02*
X54975714Y-148999047D01*
X55594761Y-148999047D01*
X56499523Y-149332380D02*
X55928095Y-149332380D01*
X56213809Y-149332380D02*
X56213809Y-148332380D01*
X56118571Y-148475238D01*
X56023333Y-148570476D01*
X55928095Y-148618095D01*
X57356666Y-148665714D02*
X57356666Y-149332380D01*
X57118571Y-148284761D02*
X56880476Y-148999047D01*
X57499523Y-148999047D01*
X58023333Y-148760952D02*
X57928095Y-148713333D01*
X57880476Y-148665714D01*
X57832857Y-148570476D01*
X57832857Y-148522857D01*
X57880476Y-148427619D01*
X57928095Y-148380000D01*
X58023333Y-148332380D01*
X58213809Y-148332380D01*
X58309047Y-148380000D01*
X58356666Y-148427619D01*
X58404285Y-148522857D01*
X58404285Y-148570476D01*
X58356666Y-148665714D01*
X58309047Y-148713333D01*
X58213809Y-148760952D01*
X58023333Y-148760952D01*
X57928095Y-148808571D01*
X57880476Y-148856190D01*
X57832857Y-148951428D01*
X57832857Y-149141904D01*
X57880476Y-149237142D01*
X57928095Y-149284761D01*
X58023333Y-149332380D01*
X58213809Y-149332380D01*
X58309047Y-149284761D01*
X58356666Y-149237142D01*
X58404285Y-149141904D01*
X58404285Y-148951428D01*
X58356666Y-148856190D01*
X58309047Y-148808571D01*
X58213809Y-148760952D01*
D12*
X54799523Y-151361904D02*
X54799523Y-150561904D01*
X54990000Y-150561904D01*
X55104285Y-150600000D01*
X55180476Y-150676190D01*
X55218571Y-150752380D01*
X55256666Y-150904761D01*
X55256666Y-151019047D01*
X55218571Y-151171428D01*
X55180476Y-151247619D01*
X55104285Y-151323809D01*
X54990000Y-151361904D01*
X54799523Y-151361904D01*
X55942380Y-150561904D02*
X55790000Y-150561904D01*
X55713809Y-150600000D01*
X55675714Y-150638095D01*
X55599523Y-150752380D01*
X55561428Y-150904761D01*
X55561428Y-151209523D01*
X55599523Y-151285714D01*
X55637619Y-151323809D01*
X55713809Y-151361904D01*
X55866190Y-151361904D01*
X55942380Y-151323809D01*
X55980476Y-151285714D01*
X56018571Y-151209523D01*
X56018571Y-151019047D01*
X55980476Y-150942857D01*
X55942380Y-150904761D01*
X55866190Y-150866666D01*
X55713809Y-150866666D01*
X55637619Y-150904761D01*
X55599523Y-150942857D01*
X55561428Y-151019047D01*
D11*
X59238095Y-153252380D02*
X59238095Y-152252380D01*
X59809523Y-153252380D02*
X59380952Y-152680952D01*
X59809523Y-152252380D02*
X59238095Y-152823809D01*
X80002142Y-155412380D02*
X79525952Y-155412380D01*
X79525952Y-154412380D01*
X80335476Y-154888571D02*
X80668809Y-154888571D01*
X80811666Y-155412380D02*
X80335476Y-155412380D01*
X80335476Y-154412380D01*
X80811666Y-154412380D01*
X81240238Y-155412380D02*
X81240238Y-154412380D01*
X81478333Y-154412380D01*
X81621190Y-154460000D01*
X81716428Y-154555238D01*
X81764047Y-154650476D01*
X81811666Y-154840952D01*
X81811666Y-154983809D01*
X81764047Y-155174285D01*
X81716428Y-155269523D01*
X81621190Y-155364761D01*
X81478333Y-155412380D01*
X81240238Y-155412380D01*
X79116666Y-125576190D02*
X79116666Y-125100000D01*
X79402380Y-125671428D02*
X78402380Y-125338095D01*
X79402380Y-125004761D01*
X78735714Y-124242857D02*
X79402380Y-124242857D01*
X78735714Y-124671428D02*
X79259523Y-124671428D01*
X79354761Y-124623809D01*
X79402380Y-124528571D01*
X79402380Y-124385714D01*
X79354761Y-124290476D01*
X79307142Y-124242857D01*
X79402380Y-123338095D02*
X78402380Y-123338095D01*
X79354761Y-123338095D02*
X79402380Y-123433333D01*
X79402380Y-123623809D01*
X79354761Y-123719047D01*
X79307142Y-123766666D01*
X79211904Y-123814285D01*
X78926190Y-123814285D01*
X78830952Y-123766666D01*
X78783333Y-123719047D01*
X78735714Y-123623809D01*
X78735714Y-123433333D01*
X78783333Y-123338095D01*
X79402380Y-122861904D02*
X78735714Y-122861904D01*
X78402380Y-122861904D02*
X78450000Y-122909523D01*
X78497619Y-122861904D01*
X78450000Y-122814285D01*
X78402380Y-122861904D01*
X78497619Y-122861904D01*
X79402380Y-122242857D02*
X79354761Y-122338095D01*
X79307142Y-122385714D01*
X79211904Y-122433333D01*
X78926190Y-122433333D01*
X78830952Y-122385714D01*
X78783333Y-122338095D01*
X78735714Y-122242857D01*
X78735714Y-122100000D01*
X78783333Y-122004761D01*
X78830952Y-121957142D01*
X78926190Y-121909523D01*
X79211904Y-121909523D01*
X79307142Y-121957142D01*
X79354761Y-122004761D01*
X79402380Y-122100000D01*
X79402380Y-122242857D01*
X78402380Y-121195238D02*
X79116666Y-121195238D01*
X79259523Y-121242857D01*
X79354761Y-121338095D01*
X79402380Y-121480952D01*
X79402380Y-121576190D01*
X79402380Y-120290476D02*
X78878571Y-120290476D01*
X78783333Y-120338095D01*
X78735714Y-120433333D01*
X78735714Y-120623809D01*
X78783333Y-120719047D01*
X79354761Y-120290476D02*
X79402380Y-120385714D01*
X79402380Y-120623809D01*
X79354761Y-120719047D01*
X79259523Y-120766666D01*
X79164285Y-120766666D01*
X79069047Y-120719047D01*
X79021428Y-120623809D01*
X79021428Y-120385714D01*
X78973809Y-120290476D01*
X79354761Y-119385714D02*
X79402380Y-119480952D01*
X79402380Y-119671428D01*
X79354761Y-119766666D01*
X79307142Y-119814285D01*
X79211904Y-119861904D01*
X78926190Y-119861904D01*
X78830952Y-119814285D01*
X78783333Y-119766666D01*
X78735714Y-119671428D01*
X78735714Y-119480952D01*
X78783333Y-119385714D01*
X79402380Y-118957142D02*
X78402380Y-118957142D01*
X79021428Y-118861904D02*
X79402380Y-118576190D01*
X78735714Y-118576190D02*
X79116666Y-118957142D01*
X78497619Y-118195238D02*
X78450000Y-118147619D01*
X78402380Y-118052380D01*
X78402380Y-117814285D01*
X78450000Y-117719047D01*
X78497619Y-117671428D01*
X78592857Y-117623809D01*
X78688095Y-117623809D01*
X78830952Y-117671428D01*
X79402380Y-118242857D01*
X79402380Y-117623809D01*
X88652380Y-121933333D02*
X89366666Y-121933333D01*
X89509523Y-121980952D01*
X89604761Y-122076190D01*
X89652380Y-122219047D01*
X89652380Y-122314285D01*
X89652380Y-120933333D02*
X89652380Y-121504761D01*
X89652380Y-121219047D02*
X88652380Y-121219047D01*
X88795238Y-121314285D01*
X88890476Y-121409523D01*
X88938095Y-121504761D01*
X79116666Y-136576190D02*
X79116666Y-136100000D01*
X79402380Y-136671428D02*
X78402380Y-136338095D01*
X79402380Y-136004761D01*
X78735714Y-135242857D02*
X79402380Y-135242857D01*
X78735714Y-135671428D02*
X79259523Y-135671428D01*
X79354761Y-135623809D01*
X79402380Y-135528571D01*
X79402380Y-135385714D01*
X79354761Y-135290476D01*
X79307142Y-135242857D01*
X79402380Y-134338095D02*
X78402380Y-134338095D01*
X79354761Y-134338095D02*
X79402380Y-134433333D01*
X79402380Y-134623809D01*
X79354761Y-134719047D01*
X79307142Y-134766666D01*
X79211904Y-134814285D01*
X78926190Y-134814285D01*
X78830952Y-134766666D01*
X78783333Y-134719047D01*
X78735714Y-134623809D01*
X78735714Y-134433333D01*
X78783333Y-134338095D01*
X79402380Y-133861904D02*
X78735714Y-133861904D01*
X78402380Y-133861904D02*
X78450000Y-133909523D01*
X78497619Y-133861904D01*
X78450000Y-133814285D01*
X78402380Y-133861904D01*
X78497619Y-133861904D01*
X79402380Y-133242857D02*
X79354761Y-133338095D01*
X79307142Y-133385714D01*
X79211904Y-133433333D01*
X78926190Y-133433333D01*
X78830952Y-133385714D01*
X78783333Y-133338095D01*
X78735714Y-133242857D01*
X78735714Y-133100000D01*
X78783333Y-133004761D01*
X78830952Y-132957142D01*
X78926190Y-132909523D01*
X79211904Y-132909523D01*
X79307142Y-132957142D01*
X79354761Y-133004761D01*
X79402380Y-133100000D01*
X79402380Y-133242857D01*
X78402380Y-132195238D02*
X79116666Y-132195238D01*
X79259523Y-132242857D01*
X79354761Y-132338095D01*
X79402380Y-132480952D01*
X79402380Y-132576190D01*
X79402380Y-131290476D02*
X78878571Y-131290476D01*
X78783333Y-131338095D01*
X78735714Y-131433333D01*
X78735714Y-131623809D01*
X78783333Y-131719047D01*
X79354761Y-131290476D02*
X79402380Y-131385714D01*
X79402380Y-131623809D01*
X79354761Y-131719047D01*
X79259523Y-131766666D01*
X79164285Y-131766666D01*
X79069047Y-131719047D01*
X79021428Y-131623809D01*
X79021428Y-131385714D01*
X78973809Y-131290476D01*
X79354761Y-130385714D02*
X79402380Y-130480952D01*
X79402380Y-130671428D01*
X79354761Y-130766666D01*
X79307142Y-130814285D01*
X79211904Y-130861904D01*
X78926190Y-130861904D01*
X78830952Y-130814285D01*
X78783333Y-130766666D01*
X78735714Y-130671428D01*
X78735714Y-130480952D01*
X78783333Y-130385714D01*
X79402380Y-129957142D02*
X78402380Y-129957142D01*
X79021428Y-129861904D02*
X79402380Y-129576190D01*
X78735714Y-129576190D02*
X79116666Y-129957142D01*
X78497619Y-129195238D02*
X78450000Y-129147619D01*
X78402380Y-129052380D01*
X78402380Y-128814285D01*
X78450000Y-128719047D01*
X78497619Y-128671428D01*
X78592857Y-128623809D01*
X78688095Y-128623809D01*
X78830952Y-128671428D01*
X79402380Y-129242857D01*
X79402380Y-128623809D01*
X88652380Y-132933333D02*
X89366666Y-132933333D01*
X89509523Y-132980952D01*
X89604761Y-133076190D01*
X89652380Y-133219047D01*
X89652380Y-133314285D01*
X88747619Y-132504761D02*
X88700000Y-132457142D01*
X88652380Y-132361904D01*
X88652380Y-132123809D01*
X88700000Y-132028571D01*
X88747619Y-131980952D01*
X88842857Y-131933333D01*
X88938095Y-131933333D01*
X89080952Y-131980952D01*
X89652380Y-132552380D01*
X89652380Y-131933333D01*
X79116666Y-147076190D02*
X79116666Y-146600000D01*
X79402380Y-147171428D02*
X78402380Y-146838095D01*
X79402380Y-146504761D01*
X78735714Y-145742857D02*
X79402380Y-145742857D01*
X78735714Y-146171428D02*
X79259523Y-146171428D01*
X79354761Y-146123809D01*
X79402380Y-146028571D01*
X79402380Y-145885714D01*
X79354761Y-145790476D01*
X79307142Y-145742857D01*
X79402380Y-144838095D02*
X78402380Y-144838095D01*
X79354761Y-144838095D02*
X79402380Y-144933333D01*
X79402380Y-145123809D01*
X79354761Y-145219047D01*
X79307142Y-145266666D01*
X79211904Y-145314285D01*
X78926190Y-145314285D01*
X78830952Y-145266666D01*
X78783333Y-145219047D01*
X78735714Y-145123809D01*
X78735714Y-144933333D01*
X78783333Y-144838095D01*
X79402380Y-144361904D02*
X78735714Y-144361904D01*
X78402380Y-144361904D02*
X78450000Y-144409523D01*
X78497619Y-144361904D01*
X78450000Y-144314285D01*
X78402380Y-144361904D01*
X78497619Y-144361904D01*
X79402380Y-143742857D02*
X79354761Y-143838095D01*
X79307142Y-143885714D01*
X79211904Y-143933333D01*
X78926190Y-143933333D01*
X78830952Y-143885714D01*
X78783333Y-143838095D01*
X78735714Y-143742857D01*
X78735714Y-143600000D01*
X78783333Y-143504761D01*
X78830952Y-143457142D01*
X78926190Y-143409523D01*
X79211904Y-143409523D01*
X79307142Y-143457142D01*
X79354761Y-143504761D01*
X79402380Y-143600000D01*
X79402380Y-143742857D01*
X78402380Y-142695238D02*
X79116666Y-142695238D01*
X79259523Y-142742857D01*
X79354761Y-142838095D01*
X79402380Y-142980952D01*
X79402380Y-143076190D01*
X79402380Y-141790476D02*
X78878571Y-141790476D01*
X78783333Y-141838095D01*
X78735714Y-141933333D01*
X78735714Y-142123809D01*
X78783333Y-142219047D01*
X79354761Y-141790476D02*
X79402380Y-141885714D01*
X79402380Y-142123809D01*
X79354761Y-142219047D01*
X79259523Y-142266666D01*
X79164285Y-142266666D01*
X79069047Y-142219047D01*
X79021428Y-142123809D01*
X79021428Y-141885714D01*
X78973809Y-141790476D01*
X79354761Y-140885714D02*
X79402380Y-140980952D01*
X79402380Y-141171428D01*
X79354761Y-141266666D01*
X79307142Y-141314285D01*
X79211904Y-141361904D01*
X78926190Y-141361904D01*
X78830952Y-141314285D01*
X78783333Y-141266666D01*
X78735714Y-141171428D01*
X78735714Y-140980952D01*
X78783333Y-140885714D01*
X79402380Y-140457142D02*
X78402380Y-140457142D01*
X79021428Y-140361904D02*
X79402380Y-140076190D01*
X78735714Y-140076190D02*
X79116666Y-140457142D01*
X78497619Y-139695238D02*
X78450000Y-139647619D01*
X78402380Y-139552380D01*
X78402380Y-139314285D01*
X78450000Y-139219047D01*
X78497619Y-139171428D01*
X78592857Y-139123809D01*
X78688095Y-139123809D01*
X78830952Y-139171428D01*
X79402380Y-139742857D01*
X79402380Y-139123809D01*
X88652380Y-143433333D02*
X89366666Y-143433333D01*
X89509523Y-143480952D01*
X89604761Y-143576190D01*
X89652380Y-143719047D01*
X89652380Y-143814285D01*
X88652380Y-143052380D02*
X88652380Y-142433333D01*
X89033333Y-142766666D01*
X89033333Y-142623809D01*
X89080952Y-142528571D01*
X89128571Y-142480952D01*
X89223809Y-142433333D01*
X89461904Y-142433333D01*
X89557142Y-142480952D01*
X89604761Y-142528571D01*
X89652380Y-142623809D01*
X89652380Y-142909523D01*
X89604761Y-143004761D01*
X89557142Y-143052380D01*
X50555714Y-125157619D02*
X50603333Y-125110000D01*
X50698571Y-125062380D01*
X50936666Y-125062380D01*
X51031904Y-125110000D01*
X51079523Y-125157619D01*
X51127142Y-125252857D01*
X51127142Y-125348095D01*
X51079523Y-125490952D01*
X50508095Y-126062380D01*
X51127142Y-126062380D01*
X51460476Y-125062380D02*
X52127142Y-126062380D01*
X52127142Y-125062380D02*
X51460476Y-126062380D01*
X52650952Y-125490952D02*
X52555714Y-125443333D01*
X52508095Y-125395714D01*
X52460476Y-125300476D01*
X52460476Y-125252857D01*
X52508095Y-125157619D01*
X52555714Y-125110000D01*
X52650952Y-125062380D01*
X52841428Y-125062380D01*
X52936666Y-125110000D01*
X52984285Y-125157619D01*
X53031904Y-125252857D01*
X53031904Y-125300476D01*
X52984285Y-125395714D01*
X52936666Y-125443333D01*
X52841428Y-125490952D01*
X52650952Y-125490952D01*
X52555714Y-125538571D01*
X52508095Y-125586190D01*
X52460476Y-125681428D01*
X52460476Y-125871904D01*
X52508095Y-125967142D01*
X52555714Y-126014761D01*
X52650952Y-126062380D01*
X52841428Y-126062380D01*
X52936666Y-126014761D01*
X52984285Y-125967142D01*
X53031904Y-125871904D01*
X53031904Y-125681428D01*
X52984285Y-125586190D01*
X52936666Y-125538571D01*
X52841428Y-125490952D01*
X54222380Y-126062380D02*
X54222380Y-125062380D01*
X54222380Y-125538571D02*
X54793809Y-125538571D01*
X54793809Y-126062380D02*
X54793809Y-125062380D01*
X55650952Y-126014761D02*
X55555714Y-126062380D01*
X55365238Y-126062380D01*
X55270000Y-126014761D01*
X55222380Y-125919523D01*
X55222380Y-125538571D01*
X55270000Y-125443333D01*
X55365238Y-125395714D01*
X55555714Y-125395714D01*
X55650952Y-125443333D01*
X55698571Y-125538571D01*
X55698571Y-125633809D01*
X55222380Y-125729047D01*
X56555714Y-126062380D02*
X56555714Y-125538571D01*
X56508095Y-125443333D01*
X56412857Y-125395714D01*
X56222380Y-125395714D01*
X56127142Y-125443333D01*
X56555714Y-126014761D02*
X56460476Y-126062380D01*
X56222380Y-126062380D01*
X56127142Y-126014761D01*
X56079523Y-125919523D01*
X56079523Y-125824285D01*
X56127142Y-125729047D01*
X56222380Y-125681428D01*
X56460476Y-125681428D01*
X56555714Y-125633809D01*
X57460476Y-126062380D02*
X57460476Y-125062380D01*
X57460476Y-126014761D02*
X57365238Y-126062380D01*
X57174761Y-126062380D01*
X57079523Y-126014761D01*
X57031904Y-125967142D01*
X56984285Y-125871904D01*
X56984285Y-125586190D01*
X57031904Y-125490952D01*
X57079523Y-125443333D01*
X57174761Y-125395714D01*
X57365238Y-125395714D01*
X57460476Y-125443333D01*
X58317619Y-126014761D02*
X58222380Y-126062380D01*
X58031904Y-126062380D01*
X57936666Y-126014761D01*
X57889047Y-125919523D01*
X57889047Y-125538571D01*
X57936666Y-125443333D01*
X58031904Y-125395714D01*
X58222380Y-125395714D01*
X58317619Y-125443333D01*
X58365238Y-125538571D01*
X58365238Y-125633809D01*
X57889047Y-125729047D01*
X58793809Y-126062380D02*
X58793809Y-125395714D01*
X58793809Y-125586190D02*
X58841428Y-125490952D01*
X58889047Y-125443333D01*
X58984285Y-125395714D01*
X59079523Y-125395714D01*
X54222380Y-114723333D02*
X54936666Y-114723333D01*
X55079523Y-114770952D01*
X55174761Y-114866190D01*
X55222380Y-115009047D01*
X55222380Y-115104285D01*
X54555714Y-113818571D02*
X55222380Y-113818571D01*
X54174761Y-114056666D02*
X54889047Y-114294761D01*
X54889047Y-113675714D01*
X72896666Y-149138571D02*
X73039523Y-149186190D01*
X73087142Y-149233809D01*
X73134761Y-149329047D01*
X73134761Y-149471904D01*
X73087142Y-149567142D01*
X73039523Y-149614761D01*
X72944285Y-149662380D01*
X72563333Y-149662380D01*
X72563333Y-148662380D01*
X72896666Y-148662380D01*
X72991904Y-148710000D01*
X73039523Y-148757619D01*
X73087142Y-148852857D01*
X73087142Y-148948095D01*
X73039523Y-149043333D01*
X72991904Y-149090952D01*
X72896666Y-149138571D01*
X72563333Y-149138571D01*
X73515714Y-149614761D02*
X73658571Y-149662380D01*
X73896666Y-149662380D01*
X73991904Y-149614761D01*
X74039523Y-149567142D01*
X74087142Y-149471904D01*
X74087142Y-149376666D01*
X74039523Y-149281428D01*
X73991904Y-149233809D01*
X73896666Y-149186190D01*
X73706190Y-149138571D01*
X73610952Y-149090952D01*
X73563333Y-149043333D01*
X73515714Y-148948095D01*
X73515714Y-148852857D01*
X73563333Y-148757619D01*
X73610952Y-148710000D01*
X73706190Y-148662380D01*
X73944285Y-148662380D01*
X74087142Y-148710000D01*
X75039523Y-149662380D02*
X74468095Y-149662380D01*
X74753809Y-149662380D02*
X74753809Y-148662380D01*
X74658571Y-148805238D01*
X74563333Y-148900476D01*
X74468095Y-148948095D01*
X75372857Y-148662380D02*
X76039523Y-148662380D01*
X75610952Y-149662380D01*
X76610952Y-148662380D02*
X76706190Y-148662380D01*
X76801428Y-148710000D01*
X76849047Y-148757619D01*
X76896666Y-148852857D01*
X76944285Y-149043333D01*
X76944285Y-149281428D01*
X76896666Y-149471904D01*
X76849047Y-149567142D01*
X76801428Y-149614761D01*
X76706190Y-149662380D01*
X76610952Y-149662380D01*
X76515714Y-149614761D01*
X76468095Y-149567142D01*
X76420476Y-149471904D01*
X76372857Y-149281428D01*
X76372857Y-149043333D01*
X76420476Y-148852857D01*
X76468095Y-148757619D01*
X76515714Y-148710000D01*
X76610952Y-148662380D01*
X74634761Y-156107619D02*
X74539523Y-156060000D01*
X74444285Y-155964761D01*
X74301428Y-155821904D01*
X74206190Y-155774285D01*
X74110952Y-155774285D01*
X74158571Y-156012380D02*
X74063333Y-155964761D01*
X73968095Y-155869523D01*
X73920476Y-155679047D01*
X73920476Y-155345714D01*
X73968095Y-155155238D01*
X74063333Y-155060000D01*
X74158571Y-155012380D01*
X74349047Y-155012380D01*
X74444285Y-155060000D01*
X74539523Y-155155238D01*
X74587142Y-155345714D01*
X74587142Y-155679047D01*
X74539523Y-155869523D01*
X74444285Y-155964761D01*
X74349047Y-156012380D01*
X74158571Y-156012380D01*
X75539523Y-156012380D02*
X74968095Y-156012380D01*
X75253809Y-156012380D02*
X75253809Y-155012380D01*
X75158571Y-155155238D01*
X75063333Y-155250476D01*
X74968095Y-155298095D01*
X71318095Y-128655714D02*
X71318095Y-129322380D01*
X71080000Y-128274761D02*
X70841904Y-128989047D01*
X71460952Y-128989047D01*
X71746666Y-128322380D02*
X72413333Y-128322380D01*
X71984761Y-129322380D01*
X72984761Y-128322380D02*
X73080000Y-128322380D01*
X73175238Y-128370000D01*
X73222857Y-128417619D01*
X73270476Y-128512857D01*
X73318095Y-128703333D01*
X73318095Y-128941428D01*
X73270476Y-129131904D01*
X73222857Y-129227142D01*
X73175238Y-129274761D01*
X73080000Y-129322380D01*
X72984761Y-129322380D01*
X72889523Y-129274761D01*
X72841904Y-129227142D01*
X72794285Y-129131904D01*
X72746666Y-128941428D01*
X72746666Y-128703333D01*
X72794285Y-128512857D01*
X72841904Y-128417619D01*
X72889523Y-128370000D01*
X72984761Y-128322380D01*
X71913333Y-126952380D02*
X71580000Y-126476190D01*
X71341904Y-126952380D02*
X71341904Y-125952380D01*
X71722857Y-125952380D01*
X71818095Y-126000000D01*
X71865714Y-126047619D01*
X71913333Y-126142857D01*
X71913333Y-126285714D01*
X71865714Y-126380952D01*
X71818095Y-126428571D01*
X71722857Y-126476190D01*
X71341904Y-126476190D01*
X72865714Y-126952380D02*
X72294285Y-126952380D01*
X72580000Y-126952380D02*
X72580000Y-125952380D01*
X72484761Y-126095238D01*
X72389523Y-126190476D01*
X72294285Y-126238095D01*
X71158095Y-134415714D02*
X71158095Y-135082380D01*
X70920000Y-134034761D02*
X70681904Y-134749047D01*
X71300952Y-134749047D01*
X71586666Y-134082380D02*
X72253333Y-134082380D01*
X71824761Y-135082380D01*
X72824761Y-134082380D02*
X72920000Y-134082380D01*
X73015238Y-134130000D01*
X73062857Y-134177619D01*
X73110476Y-134272857D01*
X73158095Y-134463333D01*
X73158095Y-134701428D01*
X73110476Y-134891904D01*
X73062857Y-134987142D01*
X73015238Y-135034761D01*
X72920000Y-135082380D01*
X72824761Y-135082380D01*
X72729523Y-135034761D01*
X72681904Y-134987142D01*
X72634285Y-134891904D01*
X72586666Y-134701428D01*
X72586666Y-134463333D01*
X72634285Y-134272857D01*
X72681904Y-134177619D01*
X72729523Y-134130000D01*
X72824761Y-134082380D01*
X71753333Y-137452380D02*
X71420000Y-136976190D01*
X71181904Y-137452380D02*
X71181904Y-136452380D01*
X71562857Y-136452380D01*
X71658095Y-136500000D01*
X71705714Y-136547619D01*
X71753333Y-136642857D01*
X71753333Y-136785714D01*
X71705714Y-136880952D01*
X71658095Y-136928571D01*
X71562857Y-136976190D01*
X71181904Y-136976190D01*
X72134285Y-136547619D02*
X72181904Y-136500000D01*
X72277142Y-136452380D01*
X72515238Y-136452380D01*
X72610476Y-136500000D01*
X72658095Y-136547619D01*
X72705714Y-136642857D01*
X72705714Y-136738095D01*
X72658095Y-136880952D01*
X72086666Y-137452380D01*
X72705714Y-137452380D01*
X71158095Y-139915714D02*
X71158095Y-140582380D01*
X70920000Y-139534761D02*
X70681904Y-140249047D01*
X71300952Y-140249047D01*
X71586666Y-139582380D02*
X72253333Y-139582380D01*
X71824761Y-140582380D01*
X72824761Y-139582380D02*
X72920000Y-139582380D01*
X73015238Y-139630000D01*
X73062857Y-139677619D01*
X73110476Y-139772857D01*
X73158095Y-139963333D01*
X73158095Y-140201428D01*
X73110476Y-140391904D01*
X73062857Y-140487142D01*
X73015238Y-140534761D01*
X72920000Y-140582380D01*
X72824761Y-140582380D01*
X72729523Y-140534761D01*
X72681904Y-140487142D01*
X72634285Y-140391904D01*
X72586666Y-140201428D01*
X72586666Y-139963333D01*
X72634285Y-139772857D01*
X72681904Y-139677619D01*
X72729523Y-139630000D01*
X72824761Y-139582380D01*
X71753333Y-142952380D02*
X71420000Y-142476190D01*
X71181904Y-142952380D02*
X71181904Y-141952380D01*
X71562857Y-141952380D01*
X71658095Y-142000000D01*
X71705714Y-142047619D01*
X71753333Y-142142857D01*
X71753333Y-142285714D01*
X71705714Y-142380952D01*
X71658095Y-142428571D01*
X71562857Y-142476190D01*
X71181904Y-142476190D01*
X72086666Y-141952380D02*
X72705714Y-141952380D01*
X72372380Y-142333333D01*
X72515238Y-142333333D01*
X72610476Y-142380952D01*
X72658095Y-142428571D01*
X72705714Y-142523809D01*
X72705714Y-142761904D01*
X72658095Y-142857142D01*
X72610476Y-142904761D01*
X72515238Y-142952380D01*
X72229523Y-142952380D01*
X72134285Y-142904761D01*
X72086666Y-142857142D01*
X74515238Y-85582380D02*
X73943809Y-85582380D01*
X74229523Y-85582380D02*
X74229523Y-84582380D01*
X74134285Y-84725238D01*
X74039047Y-84820476D01*
X73943809Y-84868095D01*
X74848571Y-84582380D02*
X75515238Y-84582380D01*
X75086666Y-85582380D01*
X75896190Y-85487142D02*
X75943809Y-85534761D01*
X75896190Y-85582380D01*
X75848571Y-85534761D01*
X75896190Y-85487142D01*
X75896190Y-85582380D01*
X76515238Y-85010952D02*
X76420000Y-84963333D01*
X76372380Y-84915714D01*
X76324761Y-84820476D01*
X76324761Y-84772857D01*
X76372380Y-84677619D01*
X76420000Y-84630000D01*
X76515238Y-84582380D01*
X76705714Y-84582380D01*
X76800952Y-84630000D01*
X76848571Y-84677619D01*
X76896190Y-84772857D01*
X76896190Y-84820476D01*
X76848571Y-84915714D01*
X76800952Y-84963333D01*
X76705714Y-85010952D01*
X76515238Y-85010952D01*
X76420000Y-85058571D01*
X76372380Y-85106190D01*
X76324761Y-85201428D01*
X76324761Y-85391904D01*
X76372380Y-85487142D01*
X76420000Y-85534761D01*
X76515238Y-85582380D01*
X76705714Y-85582380D01*
X76800952Y-85534761D01*
X76848571Y-85487142D01*
X76896190Y-85391904D01*
X76896190Y-85201428D01*
X76848571Y-85106190D01*
X76800952Y-85058571D01*
X76705714Y-85010952D01*
X77324761Y-85582380D02*
X77324761Y-84582380D01*
X77896190Y-85582380D02*
X77467619Y-85010952D01*
X77896190Y-84582380D02*
X77324761Y-85153809D01*
X75753333Y-87952380D02*
X75420000Y-87476190D01*
X75181904Y-87952380D02*
X75181904Y-86952380D01*
X75562857Y-86952380D01*
X75658095Y-87000000D01*
X75705714Y-87047619D01*
X75753333Y-87142857D01*
X75753333Y-87285714D01*
X75705714Y-87380952D01*
X75658095Y-87428571D01*
X75562857Y-87476190D01*
X75181904Y-87476190D01*
X76610476Y-87285714D02*
X76610476Y-87952380D01*
X76372380Y-86904761D02*
X76134285Y-87619047D01*
X76753333Y-87619047D01*
X83822380Y-98586666D02*
X83822380Y-99158095D01*
X83822380Y-98872380D02*
X82822380Y-98872380D01*
X82965238Y-98967619D01*
X83060476Y-99062857D01*
X83108095Y-99158095D01*
X83155714Y-97729523D02*
X83822380Y-97729523D01*
X82774761Y-97967619D02*
X83489047Y-98205714D01*
X83489047Y-97586666D01*
X82822380Y-97015238D02*
X82822380Y-96920000D01*
X82870000Y-96824761D01*
X82917619Y-96777142D01*
X83012857Y-96729523D01*
X83203333Y-96681904D01*
X83441428Y-96681904D01*
X83631904Y-96729523D01*
X83727142Y-96777142D01*
X83774761Y-96824761D01*
X83822380Y-96920000D01*
X83822380Y-97015238D01*
X83774761Y-97110476D01*
X83727142Y-97158095D01*
X83631904Y-97205714D01*
X83441428Y-97253333D01*
X83203333Y-97253333D01*
X83012857Y-97205714D01*
X82917619Y-97158095D01*
X82870000Y-97110476D01*
X82822380Y-97015238D01*
X83822380Y-96253333D02*
X82822380Y-96253333D01*
X83822380Y-95681904D02*
X83250952Y-96110476D01*
X82822380Y-95681904D02*
X83393809Y-96253333D01*
X81452380Y-97586666D02*
X80976190Y-97920000D01*
X81452380Y-98158095D02*
X80452380Y-98158095D01*
X80452380Y-97777142D01*
X80500000Y-97681904D01*
X80547619Y-97634285D01*
X80642857Y-97586666D01*
X80785714Y-97586666D01*
X80880952Y-97634285D01*
X80928571Y-97681904D01*
X80976190Y-97777142D01*
X80976190Y-98158095D01*
X80452380Y-96681904D02*
X80452380Y-97158095D01*
X80928571Y-97205714D01*
X80880952Y-97158095D01*
X80833333Y-97062857D01*
X80833333Y-96824761D01*
X80880952Y-96729523D01*
X80928571Y-96681904D01*
X81023809Y-96634285D01*
X81261904Y-96634285D01*
X81357142Y-96681904D01*
X81404761Y-96729523D01*
X81452380Y-96824761D01*
X81452380Y-97062857D01*
X81404761Y-97158095D01*
X81357142Y-97205714D01*
X70675238Y-110322380D02*
X70103809Y-110322380D01*
X70389523Y-110322380D02*
X70389523Y-109322380D01*
X70294285Y-109465238D01*
X70199047Y-109560476D01*
X70103809Y-109608095D01*
X71580000Y-109322380D02*
X71103809Y-109322380D01*
X71056190Y-109798571D01*
X71103809Y-109750952D01*
X71199047Y-109703333D01*
X71437142Y-109703333D01*
X71532380Y-109750952D01*
X71580000Y-109798571D01*
X71627619Y-109893809D01*
X71627619Y-110131904D01*
X71580000Y-110227142D01*
X71532380Y-110274761D01*
X71437142Y-110322380D01*
X71199047Y-110322380D01*
X71103809Y-110274761D01*
X71056190Y-110227142D01*
X72056190Y-110227142D02*
X72103809Y-110274761D01*
X72056190Y-110322380D01*
X72008571Y-110274761D01*
X72056190Y-110227142D01*
X72056190Y-110322380D01*
X72675238Y-109750952D02*
X72580000Y-109703333D01*
X72532380Y-109655714D01*
X72484761Y-109560476D01*
X72484761Y-109512857D01*
X72532380Y-109417619D01*
X72580000Y-109370000D01*
X72675238Y-109322380D01*
X72865714Y-109322380D01*
X72960952Y-109370000D01*
X73008571Y-109417619D01*
X73056190Y-109512857D01*
X73056190Y-109560476D01*
X73008571Y-109655714D01*
X72960952Y-109703333D01*
X72865714Y-109750952D01*
X72675238Y-109750952D01*
X72580000Y-109798571D01*
X72532380Y-109846190D01*
X72484761Y-109941428D01*
X72484761Y-110131904D01*
X72532380Y-110227142D01*
X72580000Y-110274761D01*
X72675238Y-110322380D01*
X72865714Y-110322380D01*
X72960952Y-110274761D01*
X73008571Y-110227142D01*
X73056190Y-110131904D01*
X73056190Y-109941428D01*
X73008571Y-109846190D01*
X72960952Y-109798571D01*
X72865714Y-109750952D01*
X73484761Y-110322380D02*
X73484761Y-109322380D01*
X74056190Y-110322380D02*
X73627619Y-109750952D01*
X74056190Y-109322380D02*
X73484761Y-109893809D01*
X71913333Y-107952380D02*
X71580000Y-107476190D01*
X71341904Y-107952380D02*
X71341904Y-106952380D01*
X71722857Y-106952380D01*
X71818095Y-107000000D01*
X71865714Y-107047619D01*
X71913333Y-107142857D01*
X71913333Y-107285714D01*
X71865714Y-107380952D01*
X71818095Y-107428571D01*
X71722857Y-107476190D01*
X71341904Y-107476190D01*
X72770476Y-106952380D02*
X72580000Y-106952380D01*
X72484761Y-107000000D01*
X72437142Y-107047619D01*
X72341904Y-107190476D01*
X72294285Y-107380952D01*
X72294285Y-107761904D01*
X72341904Y-107857142D01*
X72389523Y-107904761D01*
X72484761Y-107952380D01*
X72675238Y-107952380D01*
X72770476Y-107904761D01*
X72818095Y-107857142D01*
X72865714Y-107761904D01*
X72865714Y-107523809D01*
X72818095Y-107428571D01*
X72770476Y-107380952D01*
X72675238Y-107333333D01*
X72484761Y-107333333D01*
X72389523Y-107380952D01*
X72341904Y-107428571D01*
X72294285Y-107523809D01*
X71705714Y-145082380D02*
X71134285Y-145082380D01*
X71420000Y-145082380D02*
X71420000Y-144082380D01*
X71324761Y-144225238D01*
X71229523Y-144320476D01*
X71134285Y-144368095D01*
X72134285Y-145082380D02*
X72134285Y-144082380D01*
X72705714Y-145082380D02*
X72277142Y-144510952D01*
X72705714Y-144082380D02*
X72134285Y-144653809D01*
X71753333Y-147452380D02*
X71420000Y-146976190D01*
X71181904Y-147452380D02*
X71181904Y-146452380D01*
X71562857Y-146452380D01*
X71658095Y-146500000D01*
X71705714Y-146547619D01*
X71753333Y-146642857D01*
X71753333Y-146785714D01*
X71705714Y-146880952D01*
X71658095Y-146928571D01*
X71562857Y-146976190D01*
X71181904Y-146976190D01*
X72086666Y-146452380D02*
X72753333Y-146452380D01*
X72324761Y-147452380D01*
X71229523Y-129582380D02*
X70658095Y-129582380D01*
X70943809Y-129582380D02*
X70943809Y-128582380D01*
X70848571Y-128725238D01*
X70753333Y-128820476D01*
X70658095Y-128868095D01*
X71848571Y-128582380D02*
X71943809Y-128582380D01*
X72039047Y-128630000D01*
X72086666Y-128677619D01*
X72134285Y-128772857D01*
X72181904Y-128963333D01*
X72181904Y-129201428D01*
X72134285Y-129391904D01*
X72086666Y-129487142D01*
X72039047Y-129534761D01*
X71943809Y-129582380D01*
X71848571Y-129582380D01*
X71753333Y-129534761D01*
X71705714Y-129487142D01*
X71658095Y-129391904D01*
X71610476Y-129201428D01*
X71610476Y-128963333D01*
X71658095Y-128772857D01*
X71705714Y-128677619D01*
X71753333Y-128630000D01*
X71848571Y-128582380D01*
X72610476Y-129582380D02*
X72610476Y-128582380D01*
X73181904Y-129582380D02*
X72753333Y-129010952D01*
X73181904Y-128582380D02*
X72610476Y-129153809D01*
X71753333Y-131952380D02*
X71420000Y-131476190D01*
X71181904Y-131952380D02*
X71181904Y-130952380D01*
X71562857Y-130952380D01*
X71658095Y-131000000D01*
X71705714Y-131047619D01*
X71753333Y-131142857D01*
X71753333Y-131285714D01*
X71705714Y-131380952D01*
X71658095Y-131428571D01*
X71562857Y-131476190D01*
X71181904Y-131476190D01*
X72324761Y-131380952D02*
X72229523Y-131333333D01*
X72181904Y-131285714D01*
X72134285Y-131190476D01*
X72134285Y-131142857D01*
X72181904Y-131047619D01*
X72229523Y-131000000D01*
X72324761Y-130952380D01*
X72515238Y-130952380D01*
X72610476Y-131000000D01*
X72658095Y-131047619D01*
X72705714Y-131142857D01*
X72705714Y-131190476D01*
X72658095Y-131285714D01*
X72610476Y-131333333D01*
X72515238Y-131380952D01*
X72324761Y-131380952D01*
X72229523Y-131428571D01*
X72181904Y-131476190D01*
X72134285Y-131571428D01*
X72134285Y-131761904D01*
X72181904Y-131857142D01*
X72229523Y-131904761D01*
X72324761Y-131952380D01*
X72515238Y-131952380D01*
X72610476Y-131904761D01*
X72658095Y-131857142D01*
X72705714Y-131761904D01*
X72705714Y-131571428D01*
X72658095Y-131476190D01*
X72610476Y-131428571D01*
X72515238Y-131380952D01*
X89309523Y-83502380D02*
X88738095Y-83502380D01*
X89023809Y-83502380D02*
X89023809Y-82502380D01*
X88928571Y-82645238D01*
X88833333Y-82740476D01*
X88738095Y-82788095D01*
X89928571Y-82502380D02*
X90023809Y-82502380D01*
X90119047Y-82550000D01*
X90166666Y-82597619D01*
X90214285Y-82692857D01*
X90261904Y-82883333D01*
X90261904Y-83121428D01*
X90214285Y-83311904D01*
X90166666Y-83407142D01*
X90119047Y-83454761D01*
X90023809Y-83502380D01*
X89928571Y-83502380D01*
X89833333Y-83454761D01*
X89785714Y-83407142D01*
X89738095Y-83311904D01*
X89690476Y-83121428D01*
X89690476Y-82883333D01*
X89738095Y-82692857D01*
X89785714Y-82597619D01*
X89833333Y-82550000D01*
X89928571Y-82502380D01*
X90690476Y-83502380D02*
X90690476Y-82502380D01*
X91261904Y-83502380D02*
X90833333Y-82930952D01*
X91261904Y-82502380D02*
X90690476Y-83073809D01*
X90404761Y-74952380D02*
X90071428Y-74476190D01*
X89833333Y-74952380D02*
X89833333Y-73952380D01*
X90214285Y-73952380D01*
X90309523Y-74000000D01*
X90357142Y-74047619D01*
X90404761Y-74142857D01*
X90404761Y-74285714D01*
X90357142Y-74380952D01*
X90309523Y-74428571D01*
X90214285Y-74476190D01*
X89833333Y-74476190D01*
X90690476Y-73952380D02*
X91023809Y-74952380D01*
X91357142Y-73952380D01*
X92214285Y-74952380D02*
X91642857Y-74952380D01*
X91928571Y-74952380D02*
X91928571Y-73952380D01*
X91833333Y-74095238D01*
X91738095Y-74190476D01*
X91642857Y-74238095D01*
X89309523Y-101002380D02*
X88738095Y-101002380D01*
X89023809Y-101002380D02*
X89023809Y-100002380D01*
X88928571Y-100145238D01*
X88833333Y-100240476D01*
X88738095Y-100288095D01*
X89928571Y-100002380D02*
X90023809Y-100002380D01*
X90119047Y-100050000D01*
X90166666Y-100097619D01*
X90214285Y-100192857D01*
X90261904Y-100383333D01*
X90261904Y-100621428D01*
X90214285Y-100811904D01*
X90166666Y-100907142D01*
X90119047Y-100954761D01*
X90023809Y-101002380D01*
X89928571Y-101002380D01*
X89833333Y-100954761D01*
X89785714Y-100907142D01*
X89738095Y-100811904D01*
X89690476Y-100621428D01*
X89690476Y-100383333D01*
X89738095Y-100192857D01*
X89785714Y-100097619D01*
X89833333Y-100050000D01*
X89928571Y-100002380D01*
X90690476Y-101002380D02*
X90690476Y-100002380D01*
X91261904Y-101002380D02*
X90833333Y-100430952D01*
X91261904Y-100002380D02*
X90690476Y-100573809D01*
X90404761Y-92452380D02*
X90071428Y-91976190D01*
X89833333Y-92452380D02*
X89833333Y-91452380D01*
X90214285Y-91452380D01*
X90309523Y-91500000D01*
X90357142Y-91547619D01*
X90404761Y-91642857D01*
X90404761Y-91785714D01*
X90357142Y-91880952D01*
X90309523Y-91928571D01*
X90214285Y-91976190D01*
X89833333Y-91976190D01*
X90690476Y-91452380D02*
X91023809Y-92452380D01*
X91357142Y-91452380D01*
X91642857Y-91547619D02*
X91690476Y-91500000D01*
X91785714Y-91452380D01*
X92023809Y-91452380D01*
X92119047Y-91500000D01*
X92166666Y-91547619D01*
X92214285Y-91642857D01*
X92214285Y-91738095D01*
X92166666Y-91880952D01*
X91595238Y-92452380D01*
X92214285Y-92452380D01*
X89309523Y-118002380D02*
X88738095Y-118002380D01*
X89023809Y-118002380D02*
X89023809Y-117002380D01*
X88928571Y-117145238D01*
X88833333Y-117240476D01*
X88738095Y-117288095D01*
X89928571Y-117002380D02*
X90023809Y-117002380D01*
X90119047Y-117050000D01*
X90166666Y-117097619D01*
X90214285Y-117192857D01*
X90261904Y-117383333D01*
X90261904Y-117621428D01*
X90214285Y-117811904D01*
X90166666Y-117907142D01*
X90119047Y-117954761D01*
X90023809Y-118002380D01*
X89928571Y-118002380D01*
X89833333Y-117954761D01*
X89785714Y-117907142D01*
X89738095Y-117811904D01*
X89690476Y-117621428D01*
X89690476Y-117383333D01*
X89738095Y-117192857D01*
X89785714Y-117097619D01*
X89833333Y-117050000D01*
X89928571Y-117002380D01*
X90690476Y-118002380D02*
X90690476Y-117002380D01*
X91261904Y-118002380D02*
X90833333Y-117430952D01*
X91261904Y-117002380D02*
X90690476Y-117573809D01*
X90404761Y-109452380D02*
X90071428Y-108976190D01*
X89833333Y-109452380D02*
X89833333Y-108452380D01*
X90214285Y-108452380D01*
X90309523Y-108500000D01*
X90357142Y-108547619D01*
X90404761Y-108642857D01*
X90404761Y-108785714D01*
X90357142Y-108880952D01*
X90309523Y-108928571D01*
X90214285Y-108976190D01*
X89833333Y-108976190D01*
X90690476Y-108452380D02*
X91023809Y-109452380D01*
X91357142Y-108452380D01*
X91595238Y-108452380D02*
X92214285Y-108452380D01*
X91880952Y-108833333D01*
X92023809Y-108833333D01*
X92119047Y-108880952D01*
X92166666Y-108928571D01*
X92214285Y-109023809D01*
X92214285Y-109261904D01*
X92166666Y-109357142D01*
X92119047Y-109404761D01*
X92023809Y-109452380D01*
X91738095Y-109452380D01*
X91642857Y-109404761D01*
X91595238Y-109357142D01*
X84761904Y-149987380D02*
X84285714Y-149987380D01*
X84285714Y-148987380D01*
X85095238Y-149987380D02*
X85095238Y-149320714D01*
X85095238Y-148987380D02*
X85047619Y-149035000D01*
X85095238Y-149082619D01*
X85142857Y-149035000D01*
X85095238Y-148987380D01*
X85095238Y-149082619D01*
X86000000Y-149320714D02*
X86000000Y-150130238D01*
X85952380Y-150225476D01*
X85904761Y-150273095D01*
X85809523Y-150320714D01*
X85666666Y-150320714D01*
X85571428Y-150273095D01*
X86000000Y-149939761D02*
X85904761Y-149987380D01*
X85714285Y-149987380D01*
X85619047Y-149939761D01*
X85571428Y-149892142D01*
X85523809Y-149796904D01*
X85523809Y-149511190D01*
X85571428Y-149415952D01*
X85619047Y-149368333D01*
X85714285Y-149320714D01*
X85904761Y-149320714D01*
X86000000Y-149368333D01*
X86476190Y-149987380D02*
X86476190Y-148987380D01*
X86904761Y-149987380D02*
X86904761Y-149463571D01*
X86857142Y-149368333D01*
X86761904Y-149320714D01*
X86619047Y-149320714D01*
X86523809Y-149368333D01*
X86476190Y-149415952D01*
X87238095Y-149320714D02*
X87619047Y-149320714D01*
X87380952Y-148987380D02*
X87380952Y-149844523D01*
X87428571Y-149939761D01*
X87523809Y-149987380D01*
X87619047Y-149987380D01*
X87952380Y-149987380D02*
X87952380Y-148987380D01*
X88333333Y-148987380D01*
X88428571Y-149035000D01*
X88476190Y-149082619D01*
X88523809Y-149177857D01*
X88523809Y-149320714D01*
X88476190Y-149415952D01*
X88428571Y-149463571D01*
X88333333Y-149511190D01*
X87952380Y-149511190D01*
X88952380Y-149987380D02*
X88952380Y-149320714D01*
X88952380Y-148987380D02*
X88904761Y-149035000D01*
X88952380Y-149082619D01*
X89000000Y-149035000D01*
X88952380Y-148987380D01*
X88952380Y-149082619D01*
X89428571Y-149320714D02*
X89428571Y-150320714D01*
X89428571Y-149368333D02*
X89523809Y-149320714D01*
X89714285Y-149320714D01*
X89809523Y-149368333D01*
X89857142Y-149415952D01*
X89904761Y-149511190D01*
X89904761Y-149796904D01*
X89857142Y-149892142D01*
X89809523Y-149939761D01*
X89714285Y-149987380D01*
X89523809Y-149987380D01*
X89428571Y-149939761D01*
X90714285Y-149939761D02*
X90619047Y-149987380D01*
X90428571Y-149987380D01*
X90333333Y-149939761D01*
X90285714Y-149844523D01*
X90285714Y-149463571D01*
X90333333Y-149368333D01*
X90428571Y-149320714D01*
X90619047Y-149320714D01*
X90714285Y-149368333D01*
X90761904Y-149463571D01*
X90761904Y-149558809D01*
X90285714Y-149654047D01*
X70667142Y-105402380D02*
X70667142Y-104402380D01*
X71238571Y-105402380D01*
X71238571Y-104402380D01*
X71714761Y-104878571D02*
X72048095Y-104878571D01*
X72190952Y-105402380D02*
X71714761Y-105402380D01*
X71714761Y-104402380D01*
X72190952Y-104402380D01*
X73095714Y-104402380D02*
X72619523Y-104402380D01*
X72571904Y-104878571D01*
X72619523Y-104830952D01*
X72714761Y-104783333D01*
X72952857Y-104783333D01*
X73048095Y-104830952D01*
X73095714Y-104878571D01*
X73143333Y-104973809D01*
X73143333Y-105211904D01*
X73095714Y-105307142D01*
X73048095Y-105354761D01*
X72952857Y-105402380D01*
X72714761Y-105402380D01*
X72619523Y-105354761D01*
X72571904Y-105307142D01*
X74048095Y-104402380D02*
X73571904Y-104402380D01*
X73524285Y-104878571D01*
X73571904Y-104830952D01*
X73667142Y-104783333D01*
X73905238Y-104783333D01*
X74000476Y-104830952D01*
X74048095Y-104878571D01*
X74095714Y-104973809D01*
X74095714Y-105211904D01*
X74048095Y-105307142D01*
X74000476Y-105354761D01*
X73905238Y-105402380D01*
X73667142Y-105402380D01*
X73571904Y-105354761D01*
X73524285Y-105307142D01*
X74429047Y-104402380D02*
X75048095Y-104402380D01*
X74714761Y-104783333D01*
X74857619Y-104783333D01*
X74952857Y-104830952D01*
X75000476Y-104878571D01*
X75048095Y-104973809D01*
X75048095Y-105211904D01*
X75000476Y-105307142D01*
X74952857Y-105354761D01*
X74857619Y-105402380D01*
X74571904Y-105402380D01*
X74476666Y-105354761D01*
X74429047Y-105307142D01*
X75429047Y-104497619D02*
X75476666Y-104450000D01*
X75571904Y-104402380D01*
X75810000Y-104402380D01*
X75905238Y-104450000D01*
X75952857Y-104497619D01*
X76000476Y-104592857D01*
X76000476Y-104688095D01*
X75952857Y-104830952D01*
X75381428Y-105402380D01*
X76000476Y-105402380D01*
X72548095Y-98262380D02*
X72548095Y-99071904D01*
X72595714Y-99167142D01*
X72643333Y-99214761D01*
X72738571Y-99262380D01*
X72929047Y-99262380D01*
X73024285Y-99214761D01*
X73071904Y-99167142D01*
X73119523Y-99071904D01*
X73119523Y-98262380D01*
X74119523Y-99262380D02*
X73548095Y-99262380D01*
X73833809Y-99262380D02*
X73833809Y-98262380D01*
X73738571Y-98405238D01*
X73643333Y-98500476D01*
X73548095Y-98548095D01*
X57166666Y-127987142D02*
X57119047Y-128034761D01*
X56976190Y-128082380D01*
X56880952Y-128082380D01*
X56738095Y-128034761D01*
X56642857Y-127939523D01*
X56595238Y-127844285D01*
X56547619Y-127653809D01*
X56547619Y-127510952D01*
X56595238Y-127320476D01*
X56642857Y-127225238D01*
X56738095Y-127130000D01*
X56880952Y-127082380D01*
X56976190Y-127082380D01*
X57119047Y-127130000D01*
X57166666Y-127177619D01*
X57738095Y-128082380D02*
X57642857Y-128034761D01*
X57595238Y-127987142D01*
X57547619Y-127891904D01*
X57547619Y-127606190D01*
X57595238Y-127510952D01*
X57642857Y-127463333D01*
X57738095Y-127415714D01*
X57880952Y-127415714D01*
X57976190Y-127463333D01*
X58023809Y-127510952D01*
X58071428Y-127606190D01*
X58071428Y-127891904D01*
X58023809Y-127987142D01*
X57976190Y-128034761D01*
X57880952Y-128082380D01*
X57738095Y-128082380D01*
X58500000Y-127415714D02*
X58500000Y-128082380D01*
X58500000Y-127510952D02*
X58547619Y-127463333D01*
X58642857Y-127415714D01*
X58785714Y-127415714D01*
X58880952Y-127463333D01*
X58928571Y-127558571D01*
X58928571Y-128082380D01*
X59404761Y-127415714D02*
X59404761Y-128082380D01*
X59404761Y-127510952D02*
X59452380Y-127463333D01*
X59547619Y-127415714D01*
X59690476Y-127415714D01*
X59785714Y-127463333D01*
X59833333Y-127558571D01*
X59833333Y-128082380D01*
X60071428Y-128177619D02*
X60833333Y-128177619D01*
X61261904Y-127082380D02*
X61357142Y-127082380D01*
X61452380Y-127130000D01*
X61500000Y-127177619D01*
X61547619Y-127272857D01*
X61595238Y-127463333D01*
X61595238Y-127701428D01*
X61547619Y-127891904D01*
X61500000Y-127987142D01*
X61452380Y-128034761D01*
X61357142Y-128082380D01*
X61261904Y-128082380D01*
X61166666Y-128034761D01*
X61119047Y-127987142D01*
X61071428Y-127891904D01*
X61023809Y-127701428D01*
X61023809Y-127463333D01*
X61071428Y-127272857D01*
X61119047Y-127177619D01*
X61166666Y-127130000D01*
X61261904Y-127082380D01*
X62547619Y-128082380D02*
X61976190Y-128082380D01*
X62261904Y-128082380D02*
X62261904Y-127082380D01*
X62166666Y-127225238D01*
X62071428Y-127320476D01*
X61976190Y-127368095D01*
X62880952Y-128082380D02*
X63404761Y-127415714D01*
X62880952Y-127415714D02*
X63404761Y-128082380D01*
X63976190Y-127082380D02*
X64071428Y-127082380D01*
X64166666Y-127130000D01*
X64214285Y-127177619D01*
X64261904Y-127272857D01*
X64309523Y-127463333D01*
X64309523Y-127701428D01*
X64261904Y-127891904D01*
X64214285Y-127987142D01*
X64166666Y-128034761D01*
X64071428Y-128082380D01*
X63976190Y-128082380D01*
X63880952Y-128034761D01*
X63833333Y-127987142D01*
X63785714Y-127891904D01*
X63738095Y-127701428D01*
X63738095Y-127463333D01*
X63785714Y-127272857D01*
X63833333Y-127177619D01*
X63880952Y-127130000D01*
X63976190Y-127082380D01*
X64690476Y-127177619D02*
X64738095Y-127130000D01*
X64833333Y-127082380D01*
X65071428Y-127082380D01*
X65166666Y-127130000D01*
X65214285Y-127177619D01*
X65261904Y-127272857D01*
X65261904Y-127368095D01*
X65214285Y-127510952D01*
X64642857Y-128082380D01*
X65261904Y-128082380D01*
X65452380Y-128177619D02*
X66214285Y-128177619D01*
X66452380Y-128082380D02*
X66452380Y-127082380D01*
X66785714Y-127796666D01*
X67119047Y-127082380D01*
X67119047Y-128082380D01*
X68023809Y-128082380D02*
X68023809Y-127558571D01*
X67976190Y-127463333D01*
X67880952Y-127415714D01*
X67690476Y-127415714D01*
X67595238Y-127463333D01*
X68023809Y-128034761D02*
X67928571Y-128082380D01*
X67690476Y-128082380D01*
X67595238Y-128034761D01*
X67547619Y-127939523D01*
X67547619Y-127844285D01*
X67595238Y-127749047D01*
X67690476Y-127701428D01*
X67928571Y-127701428D01*
X68023809Y-127653809D01*
X68642857Y-128082380D02*
X68547619Y-128034761D01*
X68500000Y-127939523D01*
X68500000Y-127082380D01*
X69404761Y-128034761D02*
X69309523Y-128082380D01*
X69119047Y-128082380D01*
X69023809Y-128034761D01*
X68976190Y-127939523D01*
X68976190Y-127558571D01*
X69023809Y-127463333D01*
X69119047Y-127415714D01*
X69309523Y-127415714D01*
X69404761Y-127463333D01*
X69452380Y-127558571D01*
X69452380Y-127653809D01*
X68976190Y-127749047D01*
X62452380Y-132063333D02*
X63166666Y-132063333D01*
X63309523Y-132110952D01*
X63404761Y-132206190D01*
X63452380Y-132349047D01*
X63452380Y-132444285D01*
X63452380Y-131587142D02*
X62452380Y-131587142D01*
X62452380Y-131206190D01*
X62500000Y-131110952D01*
X62547619Y-131063333D01*
X62642857Y-131015714D01*
X62785714Y-131015714D01*
X62880952Y-131063333D01*
X62928571Y-131110952D01*
X62976190Y-131206190D01*
X62976190Y-131587142D01*
X63452380Y-130063333D02*
X63452380Y-130634761D01*
X63452380Y-130349047D02*
X62452380Y-130349047D01*
X62595238Y-130444285D01*
X62690476Y-130539523D01*
X62738095Y-130634761D01*
X57166666Y-142227142D02*
X57119047Y-142274761D01*
X56976190Y-142322380D01*
X56880952Y-142322380D01*
X56738095Y-142274761D01*
X56642857Y-142179523D01*
X56595238Y-142084285D01*
X56547619Y-141893809D01*
X56547619Y-141750952D01*
X56595238Y-141560476D01*
X56642857Y-141465238D01*
X56738095Y-141370000D01*
X56880952Y-141322380D01*
X56976190Y-141322380D01*
X57119047Y-141370000D01*
X57166666Y-141417619D01*
X57738095Y-142322380D02*
X57642857Y-142274761D01*
X57595238Y-142227142D01*
X57547619Y-142131904D01*
X57547619Y-141846190D01*
X57595238Y-141750952D01*
X57642857Y-141703333D01*
X57738095Y-141655714D01*
X57880952Y-141655714D01*
X57976190Y-141703333D01*
X58023809Y-141750952D01*
X58071428Y-141846190D01*
X58071428Y-142131904D01*
X58023809Y-142227142D01*
X57976190Y-142274761D01*
X57880952Y-142322380D01*
X57738095Y-142322380D01*
X58500000Y-141655714D02*
X58500000Y-142322380D01*
X58500000Y-141750952D02*
X58547619Y-141703333D01*
X58642857Y-141655714D01*
X58785714Y-141655714D01*
X58880952Y-141703333D01*
X58928571Y-141798571D01*
X58928571Y-142322380D01*
X59404761Y-141655714D02*
X59404761Y-142322380D01*
X59404761Y-141750952D02*
X59452380Y-141703333D01*
X59547619Y-141655714D01*
X59690476Y-141655714D01*
X59785714Y-141703333D01*
X59833333Y-141798571D01*
X59833333Y-142322380D01*
X60071428Y-142417619D02*
X60833333Y-142417619D01*
X61261904Y-141322380D02*
X61357142Y-141322380D01*
X61452380Y-141370000D01*
X61500000Y-141417619D01*
X61547619Y-141512857D01*
X61595238Y-141703333D01*
X61595238Y-141941428D01*
X61547619Y-142131904D01*
X61500000Y-142227142D01*
X61452380Y-142274761D01*
X61357142Y-142322380D01*
X61261904Y-142322380D01*
X61166666Y-142274761D01*
X61119047Y-142227142D01*
X61071428Y-142131904D01*
X61023809Y-141941428D01*
X61023809Y-141703333D01*
X61071428Y-141512857D01*
X61119047Y-141417619D01*
X61166666Y-141370000D01*
X61261904Y-141322380D01*
X62547619Y-142322380D02*
X61976190Y-142322380D01*
X62261904Y-142322380D02*
X62261904Y-141322380D01*
X62166666Y-141465238D01*
X62071428Y-141560476D01*
X61976190Y-141608095D01*
X62880952Y-142322380D02*
X63404761Y-141655714D01*
X62880952Y-141655714D02*
X63404761Y-142322380D01*
X63976190Y-141322380D02*
X64071428Y-141322380D01*
X64166666Y-141370000D01*
X64214285Y-141417619D01*
X64261904Y-141512857D01*
X64309523Y-141703333D01*
X64309523Y-141941428D01*
X64261904Y-142131904D01*
X64214285Y-142227142D01*
X64166666Y-142274761D01*
X64071428Y-142322380D01*
X63976190Y-142322380D01*
X63880952Y-142274761D01*
X63833333Y-142227142D01*
X63785714Y-142131904D01*
X63738095Y-141941428D01*
X63738095Y-141703333D01*
X63785714Y-141512857D01*
X63833333Y-141417619D01*
X63880952Y-141370000D01*
X63976190Y-141322380D01*
X64690476Y-141417619D02*
X64738095Y-141370000D01*
X64833333Y-141322380D01*
X65071428Y-141322380D01*
X65166666Y-141370000D01*
X65214285Y-141417619D01*
X65261904Y-141512857D01*
X65261904Y-141608095D01*
X65214285Y-141750952D01*
X64642857Y-142322380D01*
X65261904Y-142322380D01*
X65452380Y-142417619D02*
X66214285Y-142417619D01*
X66452380Y-142322380D02*
X66452380Y-141322380D01*
X66785714Y-142036666D01*
X67119047Y-141322380D01*
X67119047Y-142322380D01*
X68023809Y-142322380D02*
X68023809Y-141798571D01*
X67976190Y-141703333D01*
X67880952Y-141655714D01*
X67690476Y-141655714D01*
X67595238Y-141703333D01*
X68023809Y-142274761D02*
X67928571Y-142322380D01*
X67690476Y-142322380D01*
X67595238Y-142274761D01*
X67547619Y-142179523D01*
X67547619Y-142084285D01*
X67595238Y-141989047D01*
X67690476Y-141941428D01*
X67928571Y-141941428D01*
X68023809Y-141893809D01*
X68642857Y-142322380D02*
X68547619Y-142274761D01*
X68500000Y-142179523D01*
X68500000Y-141322380D01*
X69404761Y-142274761D02*
X69309523Y-142322380D01*
X69119047Y-142322380D01*
X69023809Y-142274761D01*
X68976190Y-142179523D01*
X68976190Y-141798571D01*
X69023809Y-141703333D01*
X69119047Y-141655714D01*
X69309523Y-141655714D01*
X69404761Y-141703333D01*
X69452380Y-141798571D01*
X69452380Y-141893809D01*
X68976190Y-141989047D01*
X62452380Y-139103333D02*
X63166666Y-139103333D01*
X63309523Y-139150952D01*
X63404761Y-139246190D01*
X63452380Y-139389047D01*
X63452380Y-139484285D01*
X63452380Y-138627142D02*
X62452380Y-138627142D01*
X62452380Y-138246190D01*
X62500000Y-138150952D01*
X62547619Y-138103333D01*
X62642857Y-138055714D01*
X62785714Y-138055714D01*
X62880952Y-138103333D01*
X62928571Y-138150952D01*
X62976190Y-138246190D01*
X62976190Y-138627142D01*
X62547619Y-137674761D02*
X62500000Y-137627142D01*
X62452380Y-137531904D01*
X62452380Y-137293809D01*
X62500000Y-137198571D01*
X62547619Y-137150952D01*
X62642857Y-137103333D01*
X62738095Y-137103333D01*
X62880952Y-137150952D01*
X63452380Y-137722380D01*
X63452380Y-137103333D01*
X69822380Y-119824761D02*
X69822380Y-120396190D01*
X69822380Y-120110476D02*
X68822380Y-120110476D01*
X68965238Y-120205714D01*
X69060476Y-120300952D01*
X69108095Y-120396190D01*
X68822380Y-119205714D02*
X68822380Y-119110476D01*
X68870000Y-119015238D01*
X68917619Y-118967619D01*
X69012857Y-118920000D01*
X69203333Y-118872380D01*
X69441428Y-118872380D01*
X69631904Y-118920000D01*
X69727142Y-118967619D01*
X69774761Y-119015238D01*
X69822380Y-119110476D01*
X69822380Y-119205714D01*
X69774761Y-119300952D01*
X69727142Y-119348571D01*
X69631904Y-119396190D01*
X69441428Y-119443809D01*
X69203333Y-119443809D01*
X69012857Y-119396190D01*
X68917619Y-119348571D01*
X68870000Y-119300952D01*
X68822380Y-119205714D01*
X69727142Y-118443809D02*
X69774761Y-118396190D01*
X69822380Y-118443809D01*
X69774761Y-118491428D01*
X69727142Y-118443809D01*
X69822380Y-118443809D01*
X68822380Y-117777142D02*
X68822380Y-117681904D01*
X68870000Y-117586666D01*
X68917619Y-117539047D01*
X69012857Y-117491428D01*
X69203333Y-117443809D01*
X69441428Y-117443809D01*
X69631904Y-117491428D01*
X69727142Y-117539047D01*
X69774761Y-117586666D01*
X69822380Y-117681904D01*
X69822380Y-117777142D01*
X69774761Y-117872380D01*
X69727142Y-117920000D01*
X69631904Y-117967619D01*
X69441428Y-118015238D01*
X69203333Y-118015238D01*
X69012857Y-117967619D01*
X68917619Y-117920000D01*
X68870000Y-117872380D01*
X68822380Y-117777142D01*
X69822380Y-117015238D02*
X68822380Y-117015238D01*
X69822380Y-116443809D02*
X69250952Y-116872380D01*
X68822380Y-116443809D02*
X69393809Y-117015238D01*
X67452380Y-118586666D02*
X66976190Y-118920000D01*
X67452380Y-119158095D02*
X66452380Y-119158095D01*
X66452380Y-118777142D01*
X66500000Y-118681904D01*
X66547619Y-118634285D01*
X66642857Y-118586666D01*
X66785714Y-118586666D01*
X66880952Y-118634285D01*
X66928571Y-118681904D01*
X66976190Y-118777142D01*
X66976190Y-119158095D01*
X67452380Y-118110476D02*
X67452380Y-117920000D01*
X67404761Y-117824761D01*
X67357142Y-117777142D01*
X67214285Y-117681904D01*
X67023809Y-117634285D01*
X66642857Y-117634285D01*
X66547619Y-117681904D01*
X66500000Y-117729523D01*
X66452380Y-117824761D01*
X66452380Y-118015238D01*
X66500000Y-118110476D01*
X66547619Y-118158095D01*
X66642857Y-118205714D01*
X66880952Y-118205714D01*
X66976190Y-118158095D01*
X67023809Y-118110476D01*
X67071428Y-118015238D01*
X67071428Y-117824761D01*
X67023809Y-117729523D01*
X66976190Y-117681904D01*
X66880952Y-117634285D01*
X61082380Y-119734761D02*
X61082380Y-120306190D01*
X61082380Y-120020476D02*
X60082380Y-120020476D01*
X60225238Y-120115714D01*
X60320476Y-120210952D01*
X60368095Y-120306190D01*
X60082380Y-119115714D02*
X60082380Y-119020476D01*
X60130000Y-118925238D01*
X60177619Y-118877619D01*
X60272857Y-118830000D01*
X60463333Y-118782380D01*
X60701428Y-118782380D01*
X60891904Y-118830000D01*
X60987142Y-118877619D01*
X61034761Y-118925238D01*
X61082380Y-119020476D01*
X61082380Y-119115714D01*
X61034761Y-119210952D01*
X60987142Y-119258571D01*
X60891904Y-119306190D01*
X60701428Y-119353809D01*
X60463333Y-119353809D01*
X60272857Y-119306190D01*
X60177619Y-119258571D01*
X60130000Y-119210952D01*
X60082380Y-119115714D01*
X60987142Y-118353809D02*
X61034761Y-118306190D01*
X61082380Y-118353809D01*
X61034761Y-118401428D01*
X60987142Y-118353809D01*
X61082380Y-118353809D01*
X60082380Y-117687142D02*
X60082380Y-117591904D01*
X60130000Y-117496666D01*
X60177619Y-117449047D01*
X60272857Y-117401428D01*
X60463333Y-117353809D01*
X60701428Y-117353809D01*
X60891904Y-117401428D01*
X60987142Y-117449047D01*
X61034761Y-117496666D01*
X61082380Y-117591904D01*
X61082380Y-117687142D01*
X61034761Y-117782380D01*
X60987142Y-117830000D01*
X60891904Y-117877619D01*
X60701428Y-117925238D01*
X60463333Y-117925238D01*
X60272857Y-117877619D01*
X60177619Y-117830000D01*
X60130000Y-117782380D01*
X60082380Y-117687142D01*
X61082380Y-116925238D02*
X60082380Y-116925238D01*
X61082380Y-116353809D02*
X60510952Y-116782380D01*
X60082380Y-116353809D02*
X60653809Y-116925238D01*
X63452380Y-118972857D02*
X62976190Y-119306190D01*
X63452380Y-119544285D02*
X62452380Y-119544285D01*
X62452380Y-119163333D01*
X62500000Y-119068095D01*
X62547619Y-119020476D01*
X62642857Y-118972857D01*
X62785714Y-118972857D01*
X62880952Y-119020476D01*
X62928571Y-119068095D01*
X62976190Y-119163333D01*
X62976190Y-119544285D01*
X63452380Y-118020476D02*
X63452380Y-118591904D01*
X63452380Y-118306190D02*
X62452380Y-118306190D01*
X62595238Y-118401428D01*
X62690476Y-118496666D01*
X62738095Y-118591904D01*
X62452380Y-117401428D02*
X62452380Y-117306190D01*
X62500000Y-117210952D01*
X62547619Y-117163333D01*
X62642857Y-117115714D01*
X62833333Y-117068095D01*
X63071428Y-117068095D01*
X63261904Y-117115714D01*
X63357142Y-117163333D01*
X63404761Y-117210952D01*
X63452380Y-117306190D01*
X63452380Y-117401428D01*
X63404761Y-117496666D01*
X63357142Y-117544285D01*
X63261904Y-117591904D01*
X63071428Y-117639523D01*
X62833333Y-117639523D01*
X62642857Y-117591904D01*
X62547619Y-117544285D01*
X62500000Y-117496666D01*
X62452380Y-117401428D01*
X71167142Y-123902380D02*
X71167142Y-122902380D01*
X71738571Y-123902380D01*
X71738571Y-122902380D01*
X72214761Y-123378571D02*
X72548095Y-123378571D01*
X72690952Y-123902380D02*
X72214761Y-123902380D01*
X72214761Y-122902380D01*
X72690952Y-122902380D01*
X73595714Y-122902380D02*
X73119523Y-122902380D01*
X73071904Y-123378571D01*
X73119523Y-123330952D01*
X73214761Y-123283333D01*
X73452857Y-123283333D01*
X73548095Y-123330952D01*
X73595714Y-123378571D01*
X73643333Y-123473809D01*
X73643333Y-123711904D01*
X73595714Y-123807142D01*
X73548095Y-123854761D01*
X73452857Y-123902380D01*
X73214761Y-123902380D01*
X73119523Y-123854761D01*
X73071904Y-123807142D01*
X74548095Y-122902380D02*
X74071904Y-122902380D01*
X74024285Y-123378571D01*
X74071904Y-123330952D01*
X74167142Y-123283333D01*
X74405238Y-123283333D01*
X74500476Y-123330952D01*
X74548095Y-123378571D01*
X74595714Y-123473809D01*
X74595714Y-123711904D01*
X74548095Y-123807142D01*
X74500476Y-123854761D01*
X74405238Y-123902380D01*
X74167142Y-123902380D01*
X74071904Y-123854761D01*
X74024285Y-123807142D01*
X74929047Y-122902380D02*
X75548095Y-122902380D01*
X75214761Y-123283333D01*
X75357619Y-123283333D01*
X75452857Y-123330952D01*
X75500476Y-123378571D01*
X75548095Y-123473809D01*
X75548095Y-123711904D01*
X75500476Y-123807142D01*
X75452857Y-123854761D01*
X75357619Y-123902380D01*
X75071904Y-123902380D01*
X74976666Y-123854761D01*
X74929047Y-123807142D01*
X75929047Y-122997619D02*
X75976666Y-122950000D01*
X76071904Y-122902380D01*
X76310000Y-122902380D01*
X76405238Y-122950000D01*
X76452857Y-122997619D01*
X76500476Y-123092857D01*
X76500476Y-123188095D01*
X76452857Y-123330952D01*
X75881428Y-123902380D01*
X76500476Y-123902380D01*
X73048095Y-116762380D02*
X73048095Y-117571904D01*
X73095714Y-117667142D01*
X73143333Y-117714761D01*
X73238571Y-117762380D01*
X73429047Y-117762380D01*
X73524285Y-117714761D01*
X73571904Y-117667142D01*
X73619523Y-117571904D01*
X73619523Y-116762380D01*
X74048095Y-116857619D02*
X74095714Y-116810000D01*
X74190952Y-116762380D01*
X74429047Y-116762380D01*
X74524285Y-116810000D01*
X74571904Y-116857619D01*
X74619523Y-116952857D01*
X74619523Y-117048095D01*
X74571904Y-117190952D01*
X74000476Y-117762380D01*
X74619523Y-117762380D01*
X48166666Y-79702380D02*
X48738095Y-79702380D01*
X48452380Y-80702380D02*
X48452380Y-79702380D01*
X49452380Y-80654761D02*
X49357142Y-80702380D01*
X49166666Y-80702380D01*
X49071428Y-80654761D01*
X49023809Y-80559523D01*
X49023809Y-80178571D01*
X49071428Y-80083333D01*
X49166666Y-80035714D01*
X49357142Y-80035714D01*
X49452380Y-80083333D01*
X49500000Y-80178571D01*
X49500000Y-80273809D01*
X49023809Y-80369047D01*
X49880952Y-80654761D02*
X49976190Y-80702380D01*
X50166666Y-80702380D01*
X50261904Y-80654761D01*
X50309523Y-80559523D01*
X50309523Y-80511904D01*
X50261904Y-80416666D01*
X50166666Y-80369047D01*
X50023809Y-80369047D01*
X49928571Y-80321428D01*
X49880952Y-80226190D01*
X49880952Y-80178571D01*
X49928571Y-80083333D01*
X50023809Y-80035714D01*
X50166666Y-80035714D01*
X50261904Y-80083333D01*
X50595238Y-80035714D02*
X50976190Y-80035714D01*
X50738095Y-79702380D02*
X50738095Y-80559523D01*
X50785714Y-80654761D01*
X50880952Y-80702380D01*
X50976190Y-80702380D01*
X51309523Y-80702380D02*
X51309523Y-79702380D01*
X51690476Y-79702380D01*
X51785714Y-79750000D01*
X51833333Y-79797619D01*
X51880952Y-79892857D01*
X51880952Y-80035714D01*
X51833333Y-80130952D01*
X51785714Y-80178571D01*
X51690476Y-80226190D01*
X51309523Y-80226190D01*
X52452380Y-80702380D02*
X52357142Y-80654761D01*
X52309523Y-80607142D01*
X52261904Y-80511904D01*
X52261904Y-80226190D01*
X52309523Y-80130952D01*
X52357142Y-80083333D01*
X52452380Y-80035714D01*
X52595238Y-80035714D01*
X52690476Y-80083333D01*
X52738095Y-80130952D01*
X52785714Y-80226190D01*
X52785714Y-80511904D01*
X52738095Y-80607142D01*
X52690476Y-80654761D01*
X52595238Y-80702380D01*
X52452380Y-80702380D01*
X53214285Y-80702380D02*
X53214285Y-80035714D01*
X53214285Y-79702380D02*
X53166666Y-79750000D01*
X53214285Y-79797619D01*
X53261904Y-79750000D01*
X53214285Y-79702380D01*
X53214285Y-79797619D01*
X53690476Y-80035714D02*
X53690476Y-80702380D01*
X53690476Y-80130952D02*
X53738095Y-80083333D01*
X53833333Y-80035714D01*
X53976190Y-80035714D01*
X54071428Y-80083333D01*
X54119047Y-80178571D01*
X54119047Y-80702380D01*
X54452380Y-80035714D02*
X54833333Y-80035714D01*
X54595238Y-79702380D02*
X54595238Y-80559523D01*
X54642857Y-80654761D01*
X54738095Y-80702380D01*
X54833333Y-80702380D01*
D13*
X50742857Y-77171428D02*
X51085714Y-77171428D01*
X50914285Y-77771428D02*
X50914285Y-77171428D01*
X51285714Y-77771428D02*
X51285714Y-77171428D01*
X51514285Y-77171428D01*
X51571428Y-77200000D01*
X51600000Y-77228571D01*
X51628571Y-77285714D01*
X51628571Y-77371428D01*
X51600000Y-77428571D01*
X51571428Y-77457142D01*
X51514285Y-77485714D01*
X51285714Y-77485714D01*
X52200000Y-77771428D02*
X51857142Y-77771428D01*
X52028571Y-77771428D02*
X52028571Y-77171428D01*
X51971428Y-77257142D01*
X51914285Y-77314285D01*
X51857142Y-77342857D01*
M02*
