%FSLAX45Y45*%
G04 Gerber Fmt 4.5, Leading zero omitted, Abs format (unit mm)*
G04 Created by KiCad (PCBNEW (5.1.2)-1) date 2019-06-10 14:27:45*
%MOMM*%
%LPD*%
G04 APERTURE LIST*
%ADD10C,0.100000*%
%ADD11C,0.200000*%
%ADD12C,0.300000*%
G04 APERTURE END LIST*
D10*
X9500000Y-17500000D02*
X4900000Y-17500000D01*
X9500000Y-6500000D02*
X9500000Y-17500000D01*
X4900000Y-6500000D02*
X9500000Y-6500000D01*
X4900000Y-17500000D02*
X4900000Y-6500000D01*
D11*
D12*
X5181428Y-17970714D02*
X5181428Y-17670714D01*
X5252857Y-17670714D01*
X5295714Y-17685000D01*
X5324286Y-17713572D01*
X5338571Y-17742143D01*
X5352857Y-17799286D01*
X5352857Y-17842143D01*
X5338571Y-17899286D01*
X5324286Y-17927857D01*
X5295714Y-17956429D01*
X5252857Y-17970714D01*
X5181428Y-17970714D01*
X5481428Y-17970714D02*
X5481428Y-17770714D01*
X5481428Y-17827857D02*
X5495714Y-17799286D01*
X5510000Y-17785000D01*
X5538571Y-17770714D01*
X5567143Y-17770714D01*
X5667143Y-17970714D02*
X5667143Y-17770714D01*
X5667143Y-17670714D02*
X5652857Y-17685000D01*
X5667143Y-17699286D01*
X5681428Y-17685000D01*
X5667143Y-17670714D01*
X5667143Y-17699286D01*
X5852857Y-17970714D02*
X5824286Y-17956429D01*
X5810000Y-17927857D01*
X5810000Y-17670714D01*
X6010000Y-17970714D02*
X5981428Y-17956429D01*
X5967143Y-17927857D01*
X5967143Y-17670714D01*
X6352857Y-17970714D02*
X6352857Y-17670714D01*
X6452857Y-17885000D01*
X6552857Y-17670714D01*
X6552857Y-17970714D01*
X6824286Y-17970714D02*
X6824286Y-17813572D01*
X6810000Y-17785000D01*
X6781428Y-17770714D01*
X6724286Y-17770714D01*
X6695714Y-17785000D01*
X6824286Y-17956429D02*
X6795714Y-17970714D01*
X6724286Y-17970714D01*
X6695714Y-17956429D01*
X6681428Y-17927857D01*
X6681428Y-17899286D01*
X6695714Y-17870714D01*
X6724286Y-17856429D01*
X6795714Y-17856429D01*
X6824286Y-17842143D01*
X6967143Y-17770714D02*
X6967143Y-18070714D01*
X6967143Y-17785000D02*
X6995714Y-17770714D01*
X7052857Y-17770714D01*
X7081428Y-17785000D01*
X7095714Y-17799286D01*
X7110000Y-17827857D01*
X7110000Y-17913572D01*
X7095714Y-17942143D01*
X7081428Y-17956429D01*
X7052857Y-17970714D01*
X6995714Y-17970714D01*
X6967143Y-17956429D01*
X7238571Y-17942143D02*
X7252857Y-17956429D01*
X7238571Y-17970714D01*
X7224286Y-17956429D01*
X7238571Y-17942143D01*
X7238571Y-17970714D01*
X7238571Y-17785000D02*
X7252857Y-17799286D01*
X7238571Y-17813572D01*
X7224286Y-17799286D01*
X7238571Y-17785000D01*
X7238571Y-17813572D01*
M02*
