G04 #@! TF.GenerationSoftware,KiCad,Pcbnew,(5.1.2)-1*
G04 #@! TF.CreationDate,2019-06-02T06:02:59-07:00*
G04 #@! TF.ProjectId,sputterer,73707574-7465-4726-9572-2e6b69636164,rev?*
G04 #@! TF.SameCoordinates,Original*
G04 #@! TF.FileFunction,Copper,L2,Bot*
G04 #@! TF.FilePolarity,Positive*
%FSLAX46Y46*%
G04 Gerber Fmt 4.6, Leading zero omitted, Abs format (unit mm)*
G04 Created by KiCad (PCBNEW (5.1.2)-1) date 2019-06-02 06:02:59*
%MOMM*%
%LPD*%
G04 APERTURE LIST*
%ADD10R,1.700000X1.700000*%
%ADD11O,1.700000X1.700000*%
%ADD12R,1.600000X1.600000*%
%ADD13O,1.600000X1.600000*%
%ADD14C,1.600000*%
%ADD15R,1.800000X1.800000*%
%ADD16C,1.800000*%
%ADD17C,2.800000*%
%ADD18O,1.050000X1.500000*%
%ADD19R,1.050000X1.500000*%
%ADD20C,4.600000*%
%ADD21C,1.930000*%
%ADD22C,0.800000*%
%ADD23C,0.250000*%
%ADD24C,0.254000*%
G04 APERTURE END LIST*
D10*
X53500000Y-86500000D03*
D11*
X56040000Y-86500000D03*
X53500000Y-89040000D03*
X56040000Y-89040000D03*
X53500000Y-91580000D03*
X56040000Y-91580000D03*
X53500000Y-94120000D03*
X56040000Y-94120000D03*
X53500000Y-96660000D03*
X56040000Y-96660000D03*
D12*
X55500000Y-173000000D03*
D13*
X88520000Y-157760000D03*
X58040000Y-173000000D03*
X85980000Y-157760000D03*
X60580000Y-173000000D03*
X83440000Y-157760000D03*
X63120000Y-173000000D03*
X80900000Y-157760000D03*
X65660000Y-173000000D03*
X78360000Y-157760000D03*
X68200000Y-173000000D03*
X75820000Y-157760000D03*
X70740000Y-173000000D03*
X73280000Y-157760000D03*
X73280000Y-173000000D03*
X70740000Y-157760000D03*
X75820000Y-173000000D03*
X68200000Y-157760000D03*
X78360000Y-173000000D03*
X65660000Y-157760000D03*
X80900000Y-173000000D03*
X63120000Y-157760000D03*
X83440000Y-173000000D03*
X60580000Y-157760000D03*
X85980000Y-173000000D03*
X58040000Y-157760000D03*
X88520000Y-173000000D03*
X55500000Y-157760000D03*
X91060000Y-173000000D03*
X91060000Y-157760000D03*
D14*
X79500000Y-72000000D03*
D12*
X76000000Y-72000000D03*
D14*
X75000000Y-83500000D03*
X80000000Y-83500000D03*
D12*
X53500000Y-72000000D03*
D14*
X57000000Y-72000000D03*
X67500000Y-87000000D03*
X67500000Y-92000000D03*
X68000000Y-153500000D03*
X63000000Y-153500000D03*
D12*
X65000000Y-72000000D03*
D14*
X68500000Y-72000000D03*
X81000000Y-106500000D03*
X81000000Y-111500000D03*
X65000000Y-98500000D03*
X65000000Y-103500000D03*
X72000000Y-91000000D03*
X77000000Y-91000000D03*
D13*
X59620000Y-131000000D03*
D12*
X52000000Y-131000000D03*
X59500000Y-135000000D03*
D13*
X51880000Y-135000000D03*
D12*
X52000000Y-139000000D03*
D13*
X59620000Y-139000000D03*
X51880000Y-143000000D03*
D12*
X59500000Y-143000000D03*
D13*
X59620000Y-147000000D03*
D12*
X52000000Y-147000000D03*
X59500000Y-151000000D03*
D13*
X51880000Y-151000000D03*
D15*
X79375000Y-152000000D03*
D16*
X81915000Y-152000000D03*
D17*
X93000000Y-121500000D03*
X90600000Y-123500000D03*
X85100000Y-123500000D03*
X93000000Y-132500000D03*
X90600000Y-134500000D03*
X85100000Y-134500000D03*
X85100000Y-145000000D03*
X90600000Y-145000000D03*
X93000000Y-143000000D03*
D10*
X53500000Y-105500000D03*
D11*
X56040000Y-105500000D03*
X53500000Y-108040000D03*
X56040000Y-108040000D03*
X53500000Y-110580000D03*
X56040000Y-110580000D03*
X53500000Y-113120000D03*
X56040000Y-113120000D03*
X53500000Y-115660000D03*
X56040000Y-115660000D03*
X53500000Y-118200000D03*
X56040000Y-118200000D03*
X53500000Y-120740000D03*
X56040000Y-120740000D03*
X53500000Y-123280000D03*
X56040000Y-123280000D03*
D18*
X74730000Y-152000000D03*
X73460000Y-152000000D03*
D19*
X76000000Y-152000000D03*
D14*
X67000000Y-126500000D03*
D13*
X77160000Y-126500000D03*
X66840000Y-137000000D03*
D14*
X77000000Y-137000000D03*
X77000000Y-142500000D03*
D13*
X66840000Y-142500000D03*
D14*
X81000000Y-87500000D03*
D13*
X70840000Y-87500000D03*
X81000000Y-92340000D03*
D14*
X81000000Y-102500000D03*
D13*
X77160000Y-107500000D03*
D14*
X67000000Y-107500000D03*
D13*
X66840000Y-147000000D03*
D14*
X77000000Y-147000000D03*
X77000000Y-131500000D03*
D13*
X66840000Y-131500000D03*
D16*
X90000000Y-72000000D03*
X90000000Y-74500000D03*
X90000000Y-77000000D03*
D20*
X86700000Y-69500000D03*
X86700000Y-79500000D03*
X86700000Y-97000000D03*
X86700000Y-87000000D03*
D16*
X90000000Y-94500000D03*
X90000000Y-92000000D03*
X90000000Y-89500000D03*
X90000000Y-106500000D03*
X90000000Y-109000000D03*
X90000000Y-111500000D03*
D20*
X86700000Y-104000000D03*
X86700000Y-114000000D03*
D21*
X86015000Y-152000000D03*
X88985000Y-152000000D03*
D12*
X69500000Y-95000000D03*
D13*
X77120000Y-102620000D03*
X69500000Y-97540000D03*
X77120000Y-100080000D03*
X69500000Y-100080000D03*
X77120000Y-97540000D03*
X69500000Y-102620000D03*
X77120000Y-95000000D03*
D10*
X63000000Y-132500000D03*
D11*
X63000000Y-129960000D03*
X63000000Y-139540000D03*
D10*
X63000000Y-137000000D03*
D14*
X67000000Y-123500000D03*
D13*
X67000000Y-113340000D03*
X63000000Y-123410000D03*
D14*
X63000000Y-113250000D03*
D12*
X70000000Y-113500000D03*
D13*
X77620000Y-121120000D03*
X70000000Y-116040000D03*
X77620000Y-118580000D03*
X70000000Y-118580000D03*
X77620000Y-116040000D03*
X70000000Y-121120000D03*
X77620000Y-113500000D03*
D17*
X51500000Y-77500000D03*
D22*
X62500000Y-95500000D03*
X63500000Y-94000000D03*
X59620000Y-99120000D03*
X87000000Y-159500000D03*
X50500000Y-169000000D03*
X77000000Y-111500000D03*
X74000000Y-147000000D03*
X70500000Y-147000000D03*
X66900003Y-90215001D03*
X62500000Y-165000000D03*
X61774999Y-86725001D03*
X74500000Y-155500000D03*
X61000000Y-155500000D03*
X60500000Y-89000000D03*
X50000000Y-95000000D03*
X50000000Y-164000000D03*
X83000000Y-129500000D03*
X73500000Y-129500000D03*
X68500000Y-150000000D03*
X75000000Y-113500000D03*
X75000000Y-95000000D03*
X65500000Y-92000000D03*
X65000000Y-100500000D03*
X66000000Y-129500000D03*
X70625001Y-142374999D03*
X63000000Y-120000000D03*
X67500000Y-120000000D03*
X56750000Y-130750000D03*
X56000000Y-139500000D03*
X66540000Y-116040000D03*
X72250000Y-118250000D03*
D23*
X86000000Y-74500000D02*
X83000000Y-77500000D01*
X90000000Y-74500000D02*
X86000000Y-74500000D01*
X83000000Y-77500000D02*
X83000000Y-127000000D01*
X83440000Y-151586998D02*
X82500000Y-150646998D01*
X83440000Y-157760000D02*
X83440000Y-151586998D01*
X82500000Y-150646998D02*
X82500000Y-131000000D01*
X82500000Y-131000000D02*
X81500000Y-130000000D01*
X81500000Y-130000000D02*
X81500000Y-129000000D01*
X81500000Y-129000000D02*
X83000000Y-127500000D01*
X83000000Y-127500000D02*
X83000000Y-127000000D01*
X64534999Y-171874999D02*
X64534999Y-107034999D01*
X65660000Y-173000000D02*
X64534999Y-171874999D01*
X64534999Y-107034999D02*
X64534999Y-106034999D01*
X64534999Y-106034999D02*
X62500000Y-104000000D01*
X62500000Y-104000000D02*
X62500000Y-95500000D01*
X62500000Y-95500000D02*
X62500000Y-95500000D01*
X67074999Y-171874999D02*
X67074999Y-154574999D01*
X68200000Y-173000000D02*
X67074999Y-171874999D01*
X64985009Y-152485009D02*
X64985009Y-105150011D01*
X67074999Y-154574999D02*
X64985009Y-152485009D01*
X64985009Y-105150011D02*
X63500000Y-103665002D01*
X63500000Y-103665002D02*
X63500000Y-94000000D01*
X63500000Y-94000000D02*
X63500000Y-94000000D01*
X70740000Y-159425002D02*
X69500000Y-158185002D01*
X70740000Y-173000000D02*
X70740000Y-159425002D01*
X69500000Y-158185002D02*
X69500000Y-135000000D01*
X69500000Y-135000000D02*
X69500000Y-135000000D01*
X59500000Y-131120000D02*
X59620000Y-131000000D01*
X59500000Y-135000000D02*
X59500000Y-131120000D01*
X67639999Y-133139999D02*
X69500000Y-135000000D01*
X67639999Y-132299999D02*
X67639999Y-133139999D01*
X66840000Y-131500000D02*
X67639999Y-132299999D01*
X66840000Y-126660000D02*
X67000000Y-126500000D01*
X66840000Y-131500000D02*
X66840000Y-126660000D01*
X59620000Y-99120000D02*
X59620000Y-99120000D01*
X60549990Y-130070010D02*
X59620000Y-131000000D01*
X59620000Y-99120000D02*
X60549990Y-100049990D01*
X60549990Y-100049990D02*
X60549990Y-130070010D01*
X91225001Y-93225001D02*
X91225001Y-118774999D01*
X90000000Y-92000000D02*
X91225001Y-93225001D01*
X91225001Y-118774999D02*
X87500000Y-122500000D01*
X87105001Y-157394999D02*
X87105001Y-158894999D01*
X87500000Y-122500000D02*
X87500000Y-157000000D01*
X87500000Y-157000000D02*
X87105001Y-157394999D01*
X87105001Y-158894999D02*
X87000000Y-159000000D01*
X87000000Y-159000000D02*
X87000000Y-159500000D01*
X87000000Y-159500000D02*
X87000000Y-159500000D01*
X53500000Y-91580000D02*
X51225001Y-93854999D01*
X51225001Y-93854999D02*
X51225001Y-127725001D01*
X50500000Y-168434315D02*
X50500000Y-169000000D01*
X50754999Y-168179316D02*
X50500000Y-168434315D01*
X50754999Y-128195003D02*
X50754999Y-168179316D01*
X51225001Y-127725001D02*
X50754999Y-128195003D01*
X75874999Y-112625001D02*
X75874999Y-145125001D01*
X77000000Y-111500000D02*
X75874999Y-112625001D01*
X75874999Y-145125001D02*
X74000000Y-147000000D01*
X74000000Y-147000000D02*
X74000000Y-147000000D01*
X70740000Y-147240000D02*
X70500000Y-147000000D01*
X70740000Y-157760000D02*
X70740000Y-147240000D01*
X66900003Y-90215001D02*
X66900003Y-90215001D01*
X67715001Y-90215001D02*
X66900003Y-90215001D01*
X73000000Y-95500000D02*
X67715001Y-90215001D01*
X73000000Y-123230002D02*
X73000000Y-95500000D01*
X71865001Y-124365001D02*
X73000000Y-123230002D01*
X75820000Y-173000000D02*
X71865001Y-169045001D01*
X71865001Y-169045001D02*
X71865001Y-124365001D01*
X61774999Y-86725001D02*
X61774999Y-86725001D01*
X61994999Y-164494999D02*
X62500000Y-165000000D01*
X61774999Y-86725001D02*
X61774999Y-164274999D01*
X61774999Y-164274999D02*
X61994999Y-164494999D01*
X80900000Y-171868630D02*
X74500000Y-165468630D01*
X80900000Y-173000000D02*
X80900000Y-171868630D01*
X74500000Y-165468630D02*
X74500000Y-155500000D01*
X74500000Y-155500000D02*
X74500000Y-155500000D01*
X61000000Y-155500000D02*
X61000000Y-108000000D01*
X61000000Y-108000000D02*
X61000000Y-108000000D01*
X61000000Y-92500000D02*
X60500000Y-92000000D01*
X61000000Y-108000000D02*
X61000000Y-92500000D01*
X60500000Y-92000000D02*
X60500000Y-89000000D01*
X60500000Y-89000000D02*
X60500000Y-89000000D01*
X50000000Y-164000000D02*
X50000000Y-95000000D01*
X73500000Y-89000000D02*
X73500000Y-109000000D01*
X70840000Y-87500000D02*
X72000000Y-87500000D01*
X72000000Y-87500000D02*
X73500000Y-89000000D01*
X73500000Y-109000000D02*
X73500000Y-129500000D01*
X84724999Y-169204999D02*
X88520000Y-173000000D01*
X84724999Y-150224999D02*
X84724999Y-169204999D01*
X83000000Y-129500000D02*
X83000000Y-148500000D01*
X83000000Y-148500000D02*
X84724999Y-150224999D01*
X59620000Y-142880000D02*
X59500000Y-143000000D01*
X59620000Y-139000000D02*
X59620000Y-142880000D01*
X66840000Y-137000000D02*
X68500000Y-138660000D01*
X68500000Y-138660000D02*
X68500000Y-150000000D01*
X68500000Y-150000000D02*
X68500000Y-150000000D01*
X75000000Y-80000000D02*
X75000000Y-95000000D01*
X75000000Y-92500000D02*
X75000000Y-113500000D01*
X76000000Y-79000000D02*
X75000000Y-80000000D01*
X76000000Y-72000000D02*
X76000000Y-79000000D01*
X58000000Y-73000000D02*
X57000000Y-72000000D01*
X58000000Y-80000000D02*
X58000000Y-73000000D01*
X58000000Y-80000000D02*
X65500000Y-87500000D01*
X65500000Y-87500000D02*
X65500000Y-92000000D01*
X65500000Y-95500000D02*
X67500000Y-97500000D01*
X68368630Y-102620000D02*
X67500000Y-101751370D01*
X69500000Y-102620000D02*
X68368630Y-102620000D01*
X67500000Y-101751370D02*
X67500000Y-97500000D01*
X69500000Y-102620000D02*
X71500000Y-104620000D01*
X71500000Y-119620000D02*
X70000000Y-121120000D01*
X71500000Y-104620000D02*
X71500000Y-119620000D01*
X65500000Y-92000000D02*
X65500000Y-95500000D01*
X67000000Y-105500000D02*
X65000000Y-103500000D01*
X67000000Y-107500000D02*
X67000000Y-105500000D01*
X65000000Y-103500000D02*
X65000000Y-100500000D01*
X65000000Y-100500000D02*
X65000000Y-100500000D01*
X77120000Y-100080000D02*
X77120000Y-97540000D01*
X76360001Y-106700001D02*
X77160000Y-107500000D01*
X75994999Y-106334999D02*
X76360001Y-106700001D01*
X75994999Y-101205001D02*
X75994999Y-106334999D01*
X77120000Y-100080000D02*
X75994999Y-101205001D01*
X81000000Y-87500000D02*
X81000000Y-92340000D01*
X59620000Y-150880000D02*
X59500000Y-151000000D01*
X59620000Y-147000000D02*
X59620000Y-150880000D01*
X70625001Y-142374999D02*
X70625001Y-142374999D01*
X70040000Y-113460000D02*
X70000000Y-113500000D01*
X63000000Y-124541370D02*
X63000000Y-129960000D01*
X63000000Y-123410000D02*
X63000000Y-124541370D01*
X63000000Y-120000000D02*
X63000000Y-123410000D01*
X67500000Y-116000000D02*
X67500000Y-120000000D01*
X70000000Y-113500000D02*
X68950000Y-113500000D01*
X68950000Y-113500000D02*
X67500000Y-116000000D01*
X66040001Y-141700001D02*
X66840000Y-142500000D01*
X65600001Y-141260001D02*
X66040001Y-141700001D01*
X65600001Y-129899999D02*
X65600001Y-141260001D01*
X66000000Y-129500000D02*
X65600001Y-129899999D01*
X56889999Y-122089999D02*
X56040000Y-121240000D01*
X57215001Y-122415001D02*
X56889999Y-122089999D01*
X57215001Y-124344001D02*
X57215001Y-122415001D01*
X56750000Y-124809002D02*
X57215001Y-124344001D01*
X56750000Y-130750000D02*
X56750000Y-124809002D01*
X56040000Y-124482081D02*
X56000000Y-124522081D01*
X56040000Y-123280000D02*
X56040000Y-124482081D01*
X56000000Y-124522081D02*
X56000000Y-139500000D01*
X56000000Y-139500000D02*
X56000000Y-139500000D01*
X66540000Y-113800000D02*
X67000000Y-113340000D01*
X66540000Y-116040000D02*
X66540000Y-113800000D01*
X69500000Y-97540000D02*
X69500000Y-95000000D01*
X69500000Y-97540000D02*
X72500000Y-100540000D01*
X72500000Y-100540000D02*
X72500000Y-116080000D01*
X72500000Y-116080000D02*
X72500000Y-118000000D01*
X72500000Y-118000000D02*
X72250000Y-118250000D01*
X77620000Y-118580000D02*
X77620000Y-116040000D01*
D24*
G36*
X94315001Y-120005391D02*
G01*
X94240841Y-120079551D01*
X94096865Y-119774230D01*
X93739108Y-119593403D01*
X93352947Y-119485845D01*
X92953223Y-119455690D01*
X92555296Y-119504096D01*
X92174460Y-119629205D01*
X91903135Y-119774230D01*
X91759158Y-120079553D01*
X93000000Y-121320395D01*
X93014143Y-121306253D01*
X93193748Y-121485858D01*
X93179605Y-121500000D01*
X93193748Y-121514143D01*
X93014143Y-121693748D01*
X93000000Y-121679605D01*
X92985858Y-121693748D01*
X92806253Y-121514143D01*
X92820395Y-121500000D01*
X91579553Y-120259158D01*
X91274230Y-120403135D01*
X91093403Y-120760892D01*
X90985845Y-121147053D01*
X90959473Y-121496636D01*
X90800430Y-121465000D01*
X90399570Y-121465000D01*
X90006413Y-121543204D01*
X89636066Y-121696607D01*
X89302763Y-121919313D01*
X89019313Y-122202763D01*
X88796607Y-122536066D01*
X88643204Y-122906413D01*
X88565000Y-123299570D01*
X88565000Y-123700430D01*
X88643204Y-124093587D01*
X88796607Y-124463934D01*
X89019313Y-124797237D01*
X89302763Y-125080687D01*
X89636066Y-125303393D01*
X90006413Y-125456796D01*
X90399570Y-125535000D01*
X90800430Y-125535000D01*
X91193587Y-125456796D01*
X91563934Y-125303393D01*
X91897237Y-125080687D01*
X92180687Y-124797237D01*
X92403393Y-124463934D01*
X92556796Y-124093587D01*
X92635000Y-123700430D01*
X92635000Y-123510798D01*
X92647053Y-123514155D01*
X93046777Y-123544310D01*
X93444704Y-123495904D01*
X93825540Y-123370795D01*
X94096865Y-123225770D01*
X94240841Y-122920449D01*
X94315001Y-122994609D01*
X94315001Y-131005391D01*
X94240841Y-131079551D01*
X94096865Y-130774230D01*
X93739108Y-130593403D01*
X93352947Y-130485845D01*
X92953223Y-130455690D01*
X92555296Y-130504096D01*
X92174460Y-130629205D01*
X91903135Y-130774230D01*
X91759158Y-131079553D01*
X93000000Y-132320395D01*
X93014143Y-132306253D01*
X93193748Y-132485858D01*
X93179605Y-132500000D01*
X93193748Y-132514143D01*
X93014143Y-132693748D01*
X93000000Y-132679605D01*
X92985858Y-132693748D01*
X92806253Y-132514143D01*
X92820395Y-132500000D01*
X91579553Y-131259158D01*
X91274230Y-131403135D01*
X91093403Y-131760892D01*
X90985845Y-132147053D01*
X90959473Y-132496636D01*
X90800430Y-132465000D01*
X90399570Y-132465000D01*
X90006413Y-132543204D01*
X89636066Y-132696607D01*
X89302763Y-132919313D01*
X89019313Y-133202763D01*
X88796607Y-133536066D01*
X88643204Y-133906413D01*
X88565000Y-134299570D01*
X88565000Y-134700430D01*
X88643204Y-135093587D01*
X88796607Y-135463934D01*
X89019313Y-135797237D01*
X89302763Y-136080687D01*
X89636066Y-136303393D01*
X90006413Y-136456796D01*
X90399570Y-136535000D01*
X90800430Y-136535000D01*
X91193587Y-136456796D01*
X91563934Y-136303393D01*
X91897237Y-136080687D01*
X92180687Y-135797237D01*
X92403393Y-135463934D01*
X92556796Y-135093587D01*
X92635000Y-134700430D01*
X92635000Y-134510798D01*
X92647053Y-134514155D01*
X93046777Y-134544310D01*
X93444704Y-134495904D01*
X93825540Y-134370795D01*
X94096865Y-134225770D01*
X94240841Y-133920449D01*
X94315001Y-133994609D01*
X94315001Y-141505391D01*
X94240841Y-141579551D01*
X94096865Y-141274230D01*
X93739108Y-141093403D01*
X93352947Y-140985845D01*
X92953223Y-140955690D01*
X92555296Y-141004096D01*
X92174460Y-141129205D01*
X91903135Y-141274230D01*
X91759158Y-141579553D01*
X93000000Y-142820395D01*
X93014143Y-142806253D01*
X93193748Y-142985858D01*
X93179605Y-143000000D01*
X93193748Y-143014143D01*
X93014143Y-143193748D01*
X93000000Y-143179605D01*
X92985858Y-143193748D01*
X92806253Y-143014143D01*
X92820395Y-143000000D01*
X91579553Y-141759158D01*
X91274230Y-141903135D01*
X91093403Y-142260892D01*
X90985845Y-142647053D01*
X90959473Y-142996636D01*
X90800430Y-142965000D01*
X90399570Y-142965000D01*
X90006413Y-143043204D01*
X89636066Y-143196607D01*
X89302763Y-143419313D01*
X89019313Y-143702763D01*
X88796607Y-144036066D01*
X88643204Y-144406413D01*
X88565000Y-144799570D01*
X88565000Y-145200430D01*
X88643204Y-145593587D01*
X88796607Y-145963934D01*
X89019313Y-146297237D01*
X89302763Y-146580687D01*
X89636066Y-146803393D01*
X90006413Y-146956796D01*
X90399570Y-147035000D01*
X90800430Y-147035000D01*
X91193587Y-146956796D01*
X91563934Y-146803393D01*
X91897237Y-146580687D01*
X92180687Y-146297237D01*
X92403393Y-145963934D01*
X92556796Y-145593587D01*
X92635000Y-145200430D01*
X92635000Y-145010798D01*
X92647053Y-145014155D01*
X93046777Y-145044310D01*
X93444704Y-144995904D01*
X93825540Y-144870795D01*
X94096865Y-144725770D01*
X94240841Y-144420449D01*
X94315001Y-144494609D01*
X94315001Y-174315000D01*
X91643953Y-174315000D01*
X91861101Y-174198932D01*
X92079608Y-174019608D01*
X92258932Y-173801101D01*
X92392182Y-173551808D01*
X92474236Y-173281309D01*
X92501943Y-173000000D01*
X92474236Y-172718691D01*
X92392182Y-172448192D01*
X92258932Y-172198899D01*
X92079608Y-171980392D01*
X91861101Y-171801068D01*
X91611808Y-171667818D01*
X91341309Y-171585764D01*
X91130492Y-171565000D01*
X90989508Y-171565000D01*
X90778691Y-171585764D01*
X90508192Y-171667818D01*
X90258899Y-171801068D01*
X90040392Y-171980392D01*
X89861068Y-172198899D01*
X89790000Y-172331858D01*
X89718932Y-172198899D01*
X89539608Y-171980392D01*
X89321101Y-171801068D01*
X89071808Y-171667818D01*
X88801309Y-171585764D01*
X88590492Y-171565000D01*
X88449508Y-171565000D01*
X88238691Y-171585764D01*
X88194094Y-171599292D01*
X85484999Y-168890198D01*
X85484999Y-159109414D01*
X85698691Y-159174236D01*
X85909508Y-159195000D01*
X86006059Y-159195000D01*
X86004774Y-159198102D01*
X85965000Y-159398061D01*
X85965000Y-159601939D01*
X86004774Y-159801898D01*
X86082795Y-159990256D01*
X86196063Y-160159774D01*
X86340226Y-160303937D01*
X86509744Y-160417205D01*
X86698102Y-160495226D01*
X86898061Y-160535000D01*
X87101939Y-160535000D01*
X87301898Y-160495226D01*
X87490256Y-160417205D01*
X87659774Y-160303937D01*
X87803937Y-160159774D01*
X87917205Y-159990256D01*
X87995226Y-159801898D01*
X88035000Y-159601939D01*
X88035000Y-159398061D01*
X87995226Y-159198102D01*
X87946564Y-159080621D01*
X87968192Y-159092182D01*
X88238691Y-159174236D01*
X88449508Y-159195000D01*
X88590492Y-159195000D01*
X88801309Y-159174236D01*
X89071808Y-159092182D01*
X89321101Y-158958932D01*
X89539608Y-158779608D01*
X89718932Y-158561101D01*
X89790000Y-158428142D01*
X89861068Y-158561101D01*
X90040392Y-158779608D01*
X90258899Y-158958932D01*
X90508192Y-159092182D01*
X90778691Y-159174236D01*
X90989508Y-159195000D01*
X91130492Y-159195000D01*
X91341309Y-159174236D01*
X91611808Y-159092182D01*
X91861101Y-158958932D01*
X92079608Y-158779608D01*
X92258932Y-158561101D01*
X92392182Y-158311808D01*
X92474236Y-158041309D01*
X92501943Y-157760000D01*
X92474236Y-157478691D01*
X92392182Y-157208192D01*
X92258932Y-156958899D01*
X92079608Y-156740392D01*
X91861101Y-156561068D01*
X91611808Y-156427818D01*
X91341309Y-156345764D01*
X91130492Y-156325000D01*
X90989508Y-156325000D01*
X90778691Y-156345764D01*
X90508192Y-156427818D01*
X90258899Y-156561068D01*
X90040392Y-156740392D01*
X89861068Y-156958899D01*
X89790000Y-157091858D01*
X89718932Y-156958899D01*
X89539608Y-156740392D01*
X89321101Y-156561068D01*
X89071808Y-156427818D01*
X88801309Y-156345764D01*
X88590492Y-156325000D01*
X88449508Y-156325000D01*
X88260000Y-156343665D01*
X88260000Y-153431523D01*
X88518297Y-153538513D01*
X88827414Y-153600000D01*
X89142586Y-153600000D01*
X89451703Y-153538513D01*
X89742884Y-153417902D01*
X90004941Y-153242801D01*
X90227801Y-153019941D01*
X90402902Y-152757884D01*
X90523513Y-152466703D01*
X90585000Y-152157586D01*
X90585000Y-151842414D01*
X90523513Y-151533297D01*
X90402902Y-151242116D01*
X90227801Y-150980059D01*
X90004941Y-150757199D01*
X89742884Y-150582098D01*
X89451703Y-150461487D01*
X89142586Y-150400000D01*
X88827414Y-150400000D01*
X88518297Y-150461487D01*
X88260000Y-150568477D01*
X88260000Y-122814801D01*
X91736004Y-119338798D01*
X91765002Y-119315000D01*
X91829571Y-119236323D01*
X91859975Y-119199276D01*
X91930547Y-119067246D01*
X91949648Y-119004276D01*
X91974004Y-118923985D01*
X91985001Y-118812332D01*
X91985001Y-118812322D01*
X91988677Y-118774999D01*
X91985001Y-118737676D01*
X91985001Y-93262323D01*
X91988677Y-93225000D01*
X91985001Y-93187677D01*
X91985001Y-93187668D01*
X91974004Y-93076015D01*
X91930547Y-92932754D01*
X91901972Y-92879294D01*
X91859975Y-92800724D01*
X91788800Y-92713998D01*
X91765002Y-92685000D01*
X91736005Y-92661203D01*
X91483731Y-92408930D01*
X91535000Y-92151184D01*
X91535000Y-91848816D01*
X91476011Y-91552257D01*
X91360299Y-91272905D01*
X91192312Y-91021495D01*
X90978505Y-90807688D01*
X90892169Y-90750000D01*
X90978505Y-90692312D01*
X91192312Y-90478505D01*
X91360299Y-90227095D01*
X91476011Y-89947743D01*
X91535000Y-89651184D01*
X91535000Y-89348816D01*
X91476011Y-89052257D01*
X91360299Y-88772905D01*
X91192312Y-88521495D01*
X90978505Y-88307688D01*
X90727095Y-88139701D01*
X90447743Y-88023989D01*
X90151184Y-87965000D01*
X89848816Y-87965000D01*
X89552257Y-88023989D01*
X89432045Y-88073783D01*
X89522209Y-87856108D01*
X89635000Y-87289072D01*
X89635000Y-86710928D01*
X89522209Y-86143892D01*
X89300963Y-85609756D01*
X88979763Y-85129047D01*
X88570953Y-84720237D01*
X88090244Y-84399037D01*
X87556108Y-84177791D01*
X86989072Y-84065000D01*
X86410928Y-84065000D01*
X85843892Y-84177791D01*
X85309756Y-84399037D01*
X84829047Y-84720237D01*
X84420237Y-85129047D01*
X84099037Y-85609756D01*
X83877791Y-86143892D01*
X83765000Y-86710928D01*
X83765000Y-87289072D01*
X83877791Y-87856108D01*
X84099037Y-88390244D01*
X84420237Y-88870953D01*
X84829047Y-89279763D01*
X85309756Y-89600963D01*
X85843892Y-89822209D01*
X86410928Y-89935000D01*
X86989072Y-89935000D01*
X87556108Y-89822209D01*
X88090244Y-89600963D01*
X88465000Y-89350559D01*
X88465000Y-89651184D01*
X88523989Y-89947743D01*
X88639701Y-90227095D01*
X88807688Y-90478505D01*
X89021495Y-90692312D01*
X89107831Y-90750000D01*
X89021495Y-90807688D01*
X88807688Y-91021495D01*
X88639701Y-91272905D01*
X88523989Y-91552257D01*
X88465000Y-91848816D01*
X88465000Y-92151184D01*
X88523989Y-92447743D01*
X88639701Y-92727095D01*
X88807688Y-92978505D01*
X89021495Y-93192312D01*
X89164310Y-93287738D01*
X89115525Y-93435920D01*
X90000000Y-94320395D01*
X90014143Y-94306253D01*
X90193748Y-94485858D01*
X90179605Y-94500000D01*
X90193748Y-94514143D01*
X90014143Y-94693748D01*
X90000000Y-94679605D01*
X89985858Y-94693748D01*
X89806253Y-94514143D01*
X89820395Y-94500000D01*
X88935920Y-93615525D01*
X88681739Y-93699208D01*
X88550842Y-93971775D01*
X88475635Y-94264642D01*
X88459009Y-94566553D01*
X88471413Y-94653726D01*
X88090244Y-94399037D01*
X87556108Y-94177791D01*
X86989072Y-94065000D01*
X86410928Y-94065000D01*
X85843892Y-94177791D01*
X85309756Y-94399037D01*
X84829047Y-94720237D01*
X84420237Y-95129047D01*
X84099037Y-95609756D01*
X83877791Y-96143892D01*
X83765000Y-96710928D01*
X83765000Y-97289072D01*
X83877791Y-97856108D01*
X84099037Y-98390244D01*
X84420237Y-98870953D01*
X84829047Y-99279763D01*
X85309756Y-99600963D01*
X85843892Y-99822209D01*
X86410928Y-99935000D01*
X86989072Y-99935000D01*
X87556108Y-99822209D01*
X88090244Y-99600963D01*
X88570953Y-99279763D01*
X88979763Y-98870953D01*
X89300963Y-98390244D01*
X89522209Y-97856108D01*
X89635000Y-97289072D01*
X89635000Y-96710928D01*
X89522209Y-96143892D01*
X89434042Y-95931037D01*
X89471775Y-95949158D01*
X89764642Y-96024365D01*
X90066553Y-96040991D01*
X90365907Y-95998397D01*
X90465001Y-95963602D01*
X90465001Y-105031138D01*
X90447743Y-105023989D01*
X90151184Y-104965000D01*
X89848816Y-104965000D01*
X89552257Y-105023989D01*
X89432045Y-105073783D01*
X89522209Y-104856108D01*
X89635000Y-104289072D01*
X89635000Y-103710928D01*
X89522209Y-103143892D01*
X89300963Y-102609756D01*
X88979763Y-102129047D01*
X88570953Y-101720237D01*
X88090244Y-101399037D01*
X87556108Y-101177791D01*
X86989072Y-101065000D01*
X86410928Y-101065000D01*
X85843892Y-101177791D01*
X85309756Y-101399037D01*
X84829047Y-101720237D01*
X84420237Y-102129047D01*
X84099037Y-102609756D01*
X83877791Y-103143892D01*
X83765000Y-103710928D01*
X83765000Y-104289072D01*
X83877791Y-104856108D01*
X84099037Y-105390244D01*
X84420237Y-105870953D01*
X84829047Y-106279763D01*
X85309756Y-106600963D01*
X85843892Y-106822209D01*
X86410928Y-106935000D01*
X86989072Y-106935000D01*
X87556108Y-106822209D01*
X88090244Y-106600963D01*
X88465000Y-106350559D01*
X88465000Y-106651184D01*
X88523989Y-106947743D01*
X88639701Y-107227095D01*
X88807688Y-107478505D01*
X89021495Y-107692312D01*
X89107831Y-107750000D01*
X89021495Y-107807688D01*
X88807688Y-108021495D01*
X88639701Y-108272905D01*
X88523989Y-108552257D01*
X88465000Y-108848816D01*
X88465000Y-109151184D01*
X88523989Y-109447743D01*
X88639701Y-109727095D01*
X88807688Y-109978505D01*
X89021495Y-110192312D01*
X89164310Y-110287738D01*
X89115525Y-110435920D01*
X90000000Y-111320395D01*
X90014143Y-111306253D01*
X90193748Y-111485858D01*
X90179605Y-111500000D01*
X90193748Y-111514143D01*
X90014143Y-111693748D01*
X90000000Y-111679605D01*
X89985858Y-111693748D01*
X89806253Y-111514143D01*
X89820395Y-111500000D01*
X88935920Y-110615525D01*
X88681739Y-110699208D01*
X88550842Y-110971775D01*
X88475635Y-111264642D01*
X88459009Y-111566553D01*
X88471413Y-111653726D01*
X88090244Y-111399037D01*
X87556108Y-111177791D01*
X86989072Y-111065000D01*
X86410928Y-111065000D01*
X85843892Y-111177791D01*
X85309756Y-111399037D01*
X84829047Y-111720237D01*
X84420237Y-112129047D01*
X84099037Y-112609756D01*
X83877791Y-113143892D01*
X83765000Y-113710928D01*
X83765000Y-114289072D01*
X83877791Y-114856108D01*
X84099037Y-115390244D01*
X84420237Y-115870953D01*
X84829047Y-116279763D01*
X85309756Y-116600963D01*
X85843892Y-116822209D01*
X86410928Y-116935000D01*
X86989072Y-116935000D01*
X87556108Y-116822209D01*
X88090244Y-116600963D01*
X88570953Y-116279763D01*
X88979763Y-115870953D01*
X89300963Y-115390244D01*
X89522209Y-114856108D01*
X89635000Y-114289072D01*
X89635000Y-113710928D01*
X89522209Y-113143892D01*
X89434042Y-112931037D01*
X89471775Y-112949158D01*
X89764642Y-113024365D01*
X90066553Y-113040991D01*
X90365907Y-112998397D01*
X90465002Y-112963602D01*
X90465002Y-118460196D01*
X86989003Y-121936196D01*
X86959999Y-121959999D01*
X86930648Y-121995764D01*
X86865026Y-122075724D01*
X86839888Y-122122754D01*
X86794454Y-122207754D01*
X86759973Y-122321423D01*
X86680687Y-122202763D01*
X86397237Y-121919313D01*
X86063934Y-121696607D01*
X85693587Y-121543204D01*
X85300430Y-121465000D01*
X84899570Y-121465000D01*
X84506413Y-121543204D01*
X84136066Y-121696607D01*
X83802763Y-121919313D01*
X83760000Y-121962076D01*
X83760000Y-79210928D01*
X83765000Y-79210928D01*
X83765000Y-79789072D01*
X83877791Y-80356108D01*
X84099037Y-80890244D01*
X84420237Y-81370953D01*
X84829047Y-81779763D01*
X85309756Y-82100963D01*
X85843892Y-82322209D01*
X86410928Y-82435000D01*
X86989072Y-82435000D01*
X87556108Y-82322209D01*
X88090244Y-82100963D01*
X88570953Y-81779763D01*
X88979763Y-81370953D01*
X89300963Y-80890244D01*
X89522209Y-80356108D01*
X89635000Y-79789072D01*
X89635000Y-79210928D01*
X89522209Y-78643892D01*
X89434042Y-78431037D01*
X89471775Y-78449158D01*
X89764642Y-78524365D01*
X90066553Y-78540991D01*
X90365907Y-78498397D01*
X90651199Y-78398222D01*
X90800792Y-78318261D01*
X90884475Y-78064080D01*
X90000000Y-77179605D01*
X89985858Y-77193748D01*
X89806253Y-77014143D01*
X89820395Y-77000000D01*
X90179605Y-77000000D01*
X91064080Y-77884475D01*
X91318261Y-77800792D01*
X91449158Y-77528225D01*
X91524365Y-77235358D01*
X91540991Y-76933447D01*
X91498397Y-76634093D01*
X91398222Y-76348801D01*
X91318261Y-76199208D01*
X91064080Y-76115525D01*
X90179605Y-77000000D01*
X89820395Y-77000000D01*
X88935920Y-76115525D01*
X88681739Y-76199208D01*
X88550842Y-76471775D01*
X88475635Y-76764642D01*
X88459009Y-77066553D01*
X88471413Y-77153726D01*
X88090244Y-76899037D01*
X87556108Y-76677791D01*
X86989072Y-76565000D01*
X86410928Y-76565000D01*
X85843892Y-76677791D01*
X85309756Y-76899037D01*
X84829047Y-77220237D01*
X84420237Y-77629047D01*
X84099037Y-78109756D01*
X83877791Y-78643892D01*
X83765000Y-79210928D01*
X83760000Y-79210928D01*
X83760000Y-77814801D01*
X86314802Y-75260000D01*
X88661687Y-75260000D01*
X88807688Y-75478505D01*
X89021495Y-75692312D01*
X89164310Y-75787738D01*
X89115525Y-75935920D01*
X90000000Y-76820395D01*
X90884475Y-75935920D01*
X90835690Y-75787738D01*
X90978505Y-75692312D01*
X91192312Y-75478505D01*
X91360299Y-75227095D01*
X91476011Y-74947743D01*
X91535000Y-74651184D01*
X91535000Y-74348816D01*
X91476011Y-74052257D01*
X91360299Y-73772905D01*
X91192312Y-73521495D01*
X90978505Y-73307688D01*
X90892169Y-73250000D01*
X90978505Y-73192312D01*
X91192312Y-72978505D01*
X91360299Y-72727095D01*
X91476011Y-72447743D01*
X91535000Y-72151184D01*
X91535000Y-71848816D01*
X91476011Y-71552257D01*
X91360299Y-71272905D01*
X91192312Y-71021495D01*
X90978505Y-70807688D01*
X90727095Y-70639701D01*
X90447743Y-70523989D01*
X90151184Y-70465000D01*
X89848816Y-70465000D01*
X89552257Y-70523989D01*
X89432045Y-70573783D01*
X89522209Y-70356108D01*
X89635000Y-69789072D01*
X89635000Y-69210928D01*
X89522209Y-68643892D01*
X89300963Y-68109756D01*
X88979763Y-67629047D01*
X88570953Y-67220237D01*
X88090244Y-66899037D01*
X87556108Y-66677791D01*
X86989072Y-66565000D01*
X86410928Y-66565000D01*
X85843892Y-66677791D01*
X85309756Y-66899037D01*
X84829047Y-67220237D01*
X84420237Y-67629047D01*
X84099037Y-68109756D01*
X83877791Y-68643892D01*
X83765000Y-69210928D01*
X83765000Y-69789072D01*
X83877791Y-70356108D01*
X84099037Y-70890244D01*
X84420237Y-71370953D01*
X84829047Y-71779763D01*
X85309756Y-72100963D01*
X85843892Y-72322209D01*
X86410928Y-72435000D01*
X86989072Y-72435000D01*
X87556108Y-72322209D01*
X88090244Y-72100963D01*
X88465000Y-71850559D01*
X88465000Y-72151184D01*
X88523989Y-72447743D01*
X88639701Y-72727095D01*
X88807688Y-72978505D01*
X89021495Y-73192312D01*
X89107831Y-73250000D01*
X89021495Y-73307688D01*
X88807688Y-73521495D01*
X88661687Y-73740000D01*
X86037325Y-73740000D01*
X86000000Y-73736324D01*
X85962675Y-73740000D01*
X85962667Y-73740000D01*
X85851014Y-73750997D01*
X85707753Y-73794454D01*
X85575724Y-73865026D01*
X85459999Y-73959999D01*
X85436201Y-73988997D01*
X82489003Y-76936196D01*
X82459999Y-76959999D01*
X82404871Y-77027174D01*
X82365026Y-77075724D01*
X82326900Y-77147053D01*
X82294454Y-77207754D01*
X82250997Y-77351015D01*
X82240000Y-77462668D01*
X82240000Y-77462678D01*
X82236324Y-77500000D01*
X82240000Y-77537322D01*
X82240000Y-86772861D01*
X82114637Y-86585241D01*
X81914759Y-86385363D01*
X81679727Y-86228320D01*
X81418574Y-86120147D01*
X81141335Y-86065000D01*
X80858665Y-86065000D01*
X80581426Y-86120147D01*
X80320273Y-86228320D01*
X80085241Y-86385363D01*
X79885363Y-86585241D01*
X79728320Y-86820273D01*
X79620147Y-87081426D01*
X79565000Y-87358665D01*
X79565000Y-87641335D01*
X79620147Y-87918574D01*
X79728320Y-88179727D01*
X79885363Y-88414759D01*
X80085241Y-88614637D01*
X80240000Y-88718044D01*
X80240001Y-91119099D01*
X80198899Y-91141068D01*
X79980392Y-91320392D01*
X79801068Y-91538899D01*
X79667818Y-91788192D01*
X79585764Y-92058691D01*
X79558057Y-92340000D01*
X79585764Y-92621309D01*
X79667818Y-92891808D01*
X79801068Y-93141101D01*
X79980392Y-93359608D01*
X80198899Y-93538932D01*
X80448192Y-93672182D01*
X80718691Y-93754236D01*
X80929508Y-93775000D01*
X81070492Y-93775000D01*
X81281309Y-93754236D01*
X81551808Y-93672182D01*
X81801101Y-93538932D01*
X82019608Y-93359608D01*
X82198932Y-93141101D01*
X82240000Y-93064268D01*
X82240000Y-101772861D01*
X82114637Y-101585241D01*
X81914759Y-101385363D01*
X81679727Y-101228320D01*
X81418574Y-101120147D01*
X81141335Y-101065000D01*
X80858665Y-101065000D01*
X80581426Y-101120147D01*
X80320273Y-101228320D01*
X80085241Y-101385363D01*
X79885363Y-101585241D01*
X79728320Y-101820273D01*
X79620147Y-102081426D01*
X79565000Y-102358665D01*
X79565000Y-102641335D01*
X79620147Y-102918574D01*
X79728320Y-103179727D01*
X79885363Y-103414759D01*
X80085241Y-103614637D01*
X80320273Y-103771680D01*
X80581426Y-103879853D01*
X80858665Y-103935000D01*
X81141335Y-103935000D01*
X81418574Y-103879853D01*
X81679727Y-103771680D01*
X81914759Y-103614637D01*
X82114637Y-103414759D01*
X82240001Y-103227139D01*
X82240001Y-105772861D01*
X82114637Y-105585241D01*
X81914759Y-105385363D01*
X81679727Y-105228320D01*
X81418574Y-105120147D01*
X81141335Y-105065000D01*
X80858665Y-105065000D01*
X80581426Y-105120147D01*
X80320273Y-105228320D01*
X80085241Y-105385363D01*
X79885363Y-105585241D01*
X79728320Y-105820273D01*
X79620147Y-106081426D01*
X79565000Y-106358665D01*
X79565000Y-106641335D01*
X79620147Y-106918574D01*
X79728320Y-107179727D01*
X79885363Y-107414759D01*
X80085241Y-107614637D01*
X80320273Y-107771680D01*
X80581426Y-107879853D01*
X80858665Y-107935000D01*
X81141335Y-107935000D01*
X81418574Y-107879853D01*
X81679727Y-107771680D01*
X81914759Y-107614637D01*
X82114637Y-107414759D01*
X82240001Y-107227139D01*
X82240001Y-110764715D01*
X82236671Y-110758486D01*
X81992702Y-110686903D01*
X81179605Y-111500000D01*
X81992702Y-112313097D01*
X82236671Y-112241514D01*
X82240001Y-112234477D01*
X82240001Y-126962657D01*
X82240000Y-126962667D01*
X82240000Y-127185198D01*
X80988998Y-128436201D01*
X80960000Y-128459999D01*
X80936202Y-128488997D01*
X80936201Y-128488998D01*
X80865026Y-128575724D01*
X80794454Y-128707754D01*
X80768155Y-128794454D01*
X80754271Y-128840226D01*
X80750998Y-128851015D01*
X80736324Y-129000000D01*
X80740001Y-129037332D01*
X80740000Y-129962677D01*
X80736324Y-130000000D01*
X80740000Y-130037322D01*
X80740000Y-130037332D01*
X80750997Y-130148985D01*
X80781976Y-130251111D01*
X80794454Y-130292246D01*
X80865026Y-130424276D01*
X80897461Y-130463798D01*
X80959999Y-130540001D01*
X80989002Y-130563804D01*
X81740001Y-131314803D01*
X81740000Y-150469737D01*
X81467257Y-150523989D01*
X81187905Y-150639701D01*
X80936495Y-150807688D01*
X80870056Y-150874127D01*
X80864502Y-150855820D01*
X80805537Y-150745506D01*
X80726185Y-150648815D01*
X80629494Y-150569463D01*
X80519180Y-150510498D01*
X80399482Y-150474188D01*
X80275000Y-150461928D01*
X78475000Y-150461928D01*
X78350518Y-150474188D01*
X78230820Y-150510498D01*
X78120506Y-150569463D01*
X78023815Y-150648815D01*
X77944463Y-150745506D01*
X77885498Y-150855820D01*
X77849188Y-150975518D01*
X77836928Y-151100000D01*
X77836928Y-152900000D01*
X77849188Y-153024482D01*
X77885498Y-153144180D01*
X77944463Y-153254494D01*
X78023815Y-153351185D01*
X78120506Y-153430537D01*
X78230820Y-153489502D01*
X78350518Y-153525812D01*
X78475000Y-153538072D01*
X80275000Y-153538072D01*
X80399482Y-153525812D01*
X80519180Y-153489502D01*
X80629494Y-153430537D01*
X80726185Y-153351185D01*
X80805537Y-153254494D01*
X80864502Y-153144180D01*
X80870056Y-153125873D01*
X80936495Y-153192312D01*
X81187905Y-153360299D01*
X81467257Y-153476011D01*
X81763816Y-153535000D01*
X82066184Y-153535000D01*
X82362743Y-153476011D01*
X82642095Y-153360299D01*
X82680001Y-153334971D01*
X82680000Y-156539099D01*
X82638899Y-156561068D01*
X82420392Y-156740392D01*
X82241068Y-156958899D01*
X82170000Y-157091858D01*
X82098932Y-156958899D01*
X81919608Y-156740392D01*
X81701101Y-156561068D01*
X81451808Y-156427818D01*
X81181309Y-156345764D01*
X80970492Y-156325000D01*
X80829508Y-156325000D01*
X80618691Y-156345764D01*
X80348192Y-156427818D01*
X80098899Y-156561068D01*
X79880392Y-156740392D01*
X79701068Y-156958899D01*
X79630000Y-157091858D01*
X79558932Y-156958899D01*
X79379608Y-156740392D01*
X79161101Y-156561068D01*
X78911808Y-156427818D01*
X78641309Y-156345764D01*
X78430492Y-156325000D01*
X78289508Y-156325000D01*
X78078691Y-156345764D01*
X77808192Y-156427818D01*
X77558899Y-156561068D01*
X77340392Y-156740392D01*
X77161068Y-156958899D01*
X77090000Y-157091858D01*
X77018932Y-156958899D01*
X76839608Y-156740392D01*
X76621101Y-156561068D01*
X76371808Y-156427818D01*
X76101309Y-156345764D01*
X75890492Y-156325000D01*
X75749508Y-156325000D01*
X75538691Y-156345764D01*
X75268192Y-156427818D01*
X75260000Y-156432197D01*
X75260000Y-156203711D01*
X75303937Y-156159774D01*
X75417205Y-155990256D01*
X75495226Y-155801898D01*
X75535000Y-155601939D01*
X75535000Y-155398061D01*
X75495226Y-155198102D01*
X75417205Y-155009744D01*
X75303937Y-154840226D01*
X75159774Y-154696063D01*
X74990256Y-154582795D01*
X74801898Y-154504774D01*
X74601939Y-154465000D01*
X74398061Y-154465000D01*
X74198102Y-154504774D01*
X74009744Y-154582795D01*
X73840226Y-154696063D01*
X73696063Y-154840226D01*
X73582795Y-155009744D01*
X73504774Y-155198102D01*
X73465000Y-155398061D01*
X73465000Y-155601939D01*
X73504774Y-155801898D01*
X73582795Y-155990256D01*
X73696063Y-156159774D01*
X73740001Y-156203712D01*
X73740001Y-156399969D01*
X73561309Y-156345764D01*
X73350492Y-156325000D01*
X73209508Y-156325000D01*
X72998691Y-156345764D01*
X72728192Y-156427818D01*
X72625001Y-156482975D01*
X72625001Y-153035816D01*
X72695742Y-153110184D01*
X72883118Y-153242275D01*
X73092663Y-153335272D01*
X73154190Y-153343964D01*
X73333000Y-153218163D01*
X73333000Y-152127000D01*
X73313000Y-152127000D01*
X73313000Y-151873000D01*
X73333000Y-151873000D01*
X73333000Y-151718021D01*
X73570000Y-151718021D01*
X73570000Y-152281978D01*
X73586785Y-152452399D01*
X73587000Y-152453108D01*
X73587000Y-153218163D01*
X73765810Y-153343964D01*
X73827337Y-153335272D01*
X74036882Y-153242275D01*
X74095331Y-153201071D01*
X74283940Y-153301885D01*
X74502600Y-153368215D01*
X74730000Y-153390612D01*
X74957399Y-153368215D01*
X75166098Y-153304907D01*
X75230820Y-153339502D01*
X75350518Y-153375812D01*
X75475000Y-153388072D01*
X76525000Y-153388072D01*
X76649482Y-153375812D01*
X76769180Y-153339502D01*
X76879494Y-153280537D01*
X76976185Y-153201185D01*
X77055537Y-153104494D01*
X77114502Y-152994180D01*
X77150812Y-152874482D01*
X77163072Y-152750000D01*
X77163072Y-151250000D01*
X77150812Y-151125518D01*
X77114502Y-151005820D01*
X77055537Y-150895506D01*
X76976185Y-150798815D01*
X76879494Y-150719463D01*
X76769180Y-150660498D01*
X76649482Y-150624188D01*
X76525000Y-150611928D01*
X75475000Y-150611928D01*
X75350518Y-150624188D01*
X75230820Y-150660498D01*
X75166098Y-150695093D01*
X74957400Y-150631785D01*
X74730000Y-150609388D01*
X74502601Y-150631785D01*
X74283941Y-150698115D01*
X74095331Y-150798929D01*
X74036882Y-150757725D01*
X73827337Y-150664728D01*
X73765810Y-150656036D01*
X73587000Y-150781837D01*
X73587000Y-151546891D01*
X73586785Y-151547600D01*
X73570000Y-151718021D01*
X73333000Y-151718021D01*
X73333000Y-150781837D01*
X73154190Y-150656036D01*
X73092663Y-150664728D01*
X72883118Y-150757725D01*
X72695742Y-150889816D01*
X72625001Y-150964184D01*
X72625001Y-130053422D01*
X72696063Y-130159774D01*
X72840226Y-130303937D01*
X73009744Y-130417205D01*
X73198102Y-130495226D01*
X73398061Y-130535000D01*
X73601939Y-130535000D01*
X73801898Y-130495226D01*
X73990256Y-130417205D01*
X74159774Y-130303937D01*
X74303937Y-130159774D01*
X74417205Y-129990256D01*
X74495226Y-129801898D01*
X74535000Y-129601939D01*
X74535000Y-129398061D01*
X74495226Y-129198102D01*
X74417205Y-129009744D01*
X74303937Y-128840226D01*
X74260000Y-128796289D01*
X74260000Y-114223711D01*
X74340226Y-114303937D01*
X74509744Y-114417205D01*
X74698102Y-114495226D01*
X74898061Y-114535000D01*
X75101939Y-114535000D01*
X75114999Y-114532402D01*
X75115000Y-144810198D01*
X73960199Y-145965000D01*
X73898061Y-145965000D01*
X73698102Y-146004774D01*
X73509744Y-146082795D01*
X73340226Y-146196063D01*
X73196063Y-146340226D01*
X73082795Y-146509744D01*
X73004774Y-146698102D01*
X72965000Y-146898061D01*
X72965000Y-147101939D01*
X73004774Y-147301898D01*
X73082795Y-147490256D01*
X73196063Y-147659774D01*
X73340226Y-147803937D01*
X73509744Y-147917205D01*
X73698102Y-147995226D01*
X73898061Y-148035000D01*
X74101939Y-148035000D01*
X74301898Y-147995226D01*
X74490256Y-147917205D01*
X74659774Y-147803937D01*
X74803937Y-147659774D01*
X74917205Y-147490256D01*
X74995226Y-147301898D01*
X75035000Y-147101939D01*
X75035000Y-147039801D01*
X75709788Y-146365014D01*
X75620147Y-146581426D01*
X75565000Y-146858665D01*
X75565000Y-147141335D01*
X75620147Y-147418574D01*
X75728320Y-147679727D01*
X75885363Y-147914759D01*
X76085241Y-148114637D01*
X76320273Y-148271680D01*
X76581426Y-148379853D01*
X76858665Y-148435000D01*
X77141335Y-148435000D01*
X77418574Y-148379853D01*
X77679727Y-148271680D01*
X77914759Y-148114637D01*
X78114637Y-147914759D01*
X78271680Y-147679727D01*
X78379853Y-147418574D01*
X78435000Y-147141335D01*
X78435000Y-146858665D01*
X78379853Y-146581426D01*
X78271680Y-146320273D01*
X78114637Y-146085241D01*
X77914759Y-145885363D01*
X77679727Y-145728320D01*
X77418574Y-145620147D01*
X77141335Y-145565000D01*
X76858665Y-145565000D01*
X76581426Y-145620147D01*
X76365014Y-145709787D01*
X76386002Y-145688800D01*
X76415000Y-145665002D01*
X76480029Y-145585764D01*
X76509973Y-145549278D01*
X76580545Y-145417248D01*
X76624002Y-145273987D01*
X76634999Y-145162334D01*
X76634999Y-145162324D01*
X76638675Y-145125002D01*
X76634999Y-145087679D01*
X76634999Y-143890509D01*
X76858665Y-143935000D01*
X77141335Y-143935000D01*
X77418574Y-143879853D01*
X77679727Y-143771680D01*
X77914759Y-143614637D01*
X78114637Y-143414759D01*
X78271680Y-143179727D01*
X78379853Y-142918574D01*
X78435000Y-142641335D01*
X78435000Y-142358665D01*
X78379853Y-142081426D01*
X78271680Y-141820273D01*
X78114637Y-141585241D01*
X77914759Y-141385363D01*
X77679727Y-141228320D01*
X77418574Y-141120147D01*
X77141335Y-141065000D01*
X76858665Y-141065000D01*
X76634999Y-141109491D01*
X76634999Y-138390509D01*
X76858665Y-138435000D01*
X77141335Y-138435000D01*
X77418574Y-138379853D01*
X77679727Y-138271680D01*
X77914759Y-138114637D01*
X78114637Y-137914759D01*
X78271680Y-137679727D01*
X78379853Y-137418574D01*
X78435000Y-137141335D01*
X78435000Y-136858665D01*
X78379853Y-136581426D01*
X78271680Y-136320273D01*
X78114637Y-136085241D01*
X77914759Y-135885363D01*
X77679727Y-135728320D01*
X77418574Y-135620147D01*
X77141335Y-135565000D01*
X76858665Y-135565000D01*
X76634999Y-135609491D01*
X76634999Y-132887902D01*
X76788184Y-132926300D01*
X77070512Y-132940217D01*
X77350130Y-132898787D01*
X77616292Y-132803603D01*
X77741514Y-132736671D01*
X77813097Y-132492702D01*
X77000000Y-131679605D01*
X76985858Y-131693748D01*
X76806253Y-131514143D01*
X76820395Y-131500000D01*
X77179605Y-131500000D01*
X77992702Y-132313097D01*
X78236671Y-132241514D01*
X78357571Y-131986004D01*
X78426300Y-131711816D01*
X78440217Y-131429488D01*
X78398787Y-131149870D01*
X78303603Y-130883708D01*
X78236671Y-130758486D01*
X77992702Y-130686903D01*
X77179605Y-131500000D01*
X76820395Y-131500000D01*
X76806253Y-131485858D01*
X76985858Y-131306253D01*
X77000000Y-131320395D01*
X77813097Y-130507298D01*
X77741514Y-130263329D01*
X77486004Y-130142429D01*
X77211816Y-130073700D01*
X76929488Y-130059783D01*
X76649870Y-130101213D01*
X76634999Y-130106531D01*
X76634999Y-127840314D01*
X76878691Y-127914236D01*
X77089508Y-127935000D01*
X77230492Y-127935000D01*
X77441309Y-127914236D01*
X77711808Y-127832182D01*
X77961101Y-127698932D01*
X78179608Y-127519608D01*
X78358932Y-127301101D01*
X78492182Y-127051808D01*
X78574236Y-126781309D01*
X78601943Y-126500000D01*
X78574236Y-126218691D01*
X78492182Y-125948192D01*
X78358932Y-125698899D01*
X78179608Y-125480392D01*
X77961101Y-125301068D01*
X77711808Y-125167818D01*
X77441309Y-125085764D01*
X77230492Y-125065000D01*
X77089508Y-125065000D01*
X76878691Y-125085764D01*
X76634999Y-125159686D01*
X76634999Y-122154616D01*
X76764869Y-122272385D01*
X77006119Y-122417070D01*
X77270960Y-122511909D01*
X77493000Y-122390624D01*
X77493000Y-121247000D01*
X77747000Y-121247000D01*
X77747000Y-122390624D01*
X77969040Y-122511909D01*
X78233881Y-122417070D01*
X78475131Y-122272385D01*
X78683519Y-122083414D01*
X78851037Y-121857420D01*
X78971246Y-121603087D01*
X79011904Y-121469039D01*
X78889915Y-121247000D01*
X77747000Y-121247000D01*
X77493000Y-121247000D01*
X77473000Y-121247000D01*
X77473000Y-120993000D01*
X77493000Y-120993000D01*
X77493000Y-120973000D01*
X77747000Y-120973000D01*
X77747000Y-120993000D01*
X78889915Y-120993000D01*
X79011904Y-120770961D01*
X78971246Y-120636913D01*
X78851037Y-120382580D01*
X78683519Y-120156586D01*
X78475131Y-119967615D01*
X78283318Y-119852579D01*
X78421101Y-119778932D01*
X78639608Y-119599608D01*
X78818932Y-119381101D01*
X78952182Y-119131808D01*
X79034236Y-118861309D01*
X79061943Y-118580000D01*
X79034236Y-118298691D01*
X78952182Y-118028192D01*
X78818932Y-117778899D01*
X78639608Y-117560392D01*
X78421101Y-117381068D01*
X78380000Y-117359099D01*
X78380000Y-117260901D01*
X78421101Y-117238932D01*
X78639608Y-117059608D01*
X78818932Y-116841101D01*
X78952182Y-116591808D01*
X79034236Y-116321309D01*
X79061943Y-116040000D01*
X79034236Y-115758691D01*
X78952182Y-115488192D01*
X78818932Y-115238899D01*
X78639608Y-115020392D01*
X78421101Y-114841068D01*
X78288142Y-114770000D01*
X78421101Y-114698932D01*
X78639608Y-114519608D01*
X78818932Y-114301101D01*
X78952182Y-114051808D01*
X79034236Y-113781309D01*
X79061943Y-113500000D01*
X79034236Y-113218691D01*
X78952182Y-112948192D01*
X78818932Y-112698899D01*
X78649711Y-112492702D01*
X80186903Y-112492702D01*
X80258486Y-112736671D01*
X80513996Y-112857571D01*
X80788184Y-112926300D01*
X81070512Y-112940217D01*
X81350130Y-112898787D01*
X81616292Y-112803603D01*
X81741514Y-112736671D01*
X81813097Y-112492702D01*
X81000000Y-111679605D01*
X80186903Y-112492702D01*
X78649711Y-112492702D01*
X78639608Y-112480392D01*
X78421101Y-112301068D01*
X78171808Y-112167818D01*
X77901309Y-112085764D01*
X77856348Y-112081336D01*
X77917205Y-111990256D01*
X77995226Y-111801898D01*
X78035000Y-111601939D01*
X78035000Y-111570512D01*
X79559783Y-111570512D01*
X79601213Y-111850130D01*
X79696397Y-112116292D01*
X79763329Y-112241514D01*
X80007298Y-112313097D01*
X80820395Y-111500000D01*
X80007298Y-110686903D01*
X79763329Y-110758486D01*
X79642429Y-111013996D01*
X79573700Y-111288184D01*
X79559783Y-111570512D01*
X78035000Y-111570512D01*
X78035000Y-111398061D01*
X77995226Y-111198102D01*
X77917205Y-111009744D01*
X77803937Y-110840226D01*
X77659774Y-110696063D01*
X77490256Y-110582795D01*
X77307992Y-110507298D01*
X80186903Y-110507298D01*
X81000000Y-111320395D01*
X81813097Y-110507298D01*
X81741514Y-110263329D01*
X81486004Y-110142429D01*
X81211816Y-110073700D01*
X80929488Y-110059783D01*
X80649870Y-110101213D01*
X80383708Y-110196397D01*
X80258486Y-110263329D01*
X80186903Y-110507298D01*
X77307992Y-110507298D01*
X77301898Y-110504774D01*
X77101939Y-110465000D01*
X76898061Y-110465000D01*
X76698102Y-110504774D01*
X76509744Y-110582795D01*
X76340226Y-110696063D01*
X76196063Y-110840226D01*
X76082795Y-111009744D01*
X76004774Y-111198102D01*
X75965000Y-111398061D01*
X75965000Y-111460198D01*
X75760000Y-111665199D01*
X75760000Y-107828239D01*
X75827818Y-108051808D01*
X75961068Y-108301101D01*
X76140392Y-108519608D01*
X76358899Y-108698932D01*
X76608192Y-108832182D01*
X76878691Y-108914236D01*
X77089508Y-108935000D01*
X77230492Y-108935000D01*
X77441309Y-108914236D01*
X77711808Y-108832182D01*
X77961101Y-108698932D01*
X78179608Y-108519608D01*
X78358932Y-108301101D01*
X78492182Y-108051808D01*
X78574236Y-107781309D01*
X78601943Y-107500000D01*
X78574236Y-107218691D01*
X78492182Y-106948192D01*
X78358932Y-106698899D01*
X78179608Y-106480392D01*
X77961101Y-106301068D01*
X77711808Y-106167818D01*
X77441309Y-106085764D01*
X77230492Y-106065000D01*
X77089508Y-106065000D01*
X76878691Y-106085764D01*
X76834093Y-106099292D01*
X76754999Y-106020198D01*
X76754999Y-104008849D01*
X76838691Y-104034236D01*
X77049508Y-104055000D01*
X77190492Y-104055000D01*
X77401309Y-104034236D01*
X77671808Y-103952182D01*
X77921101Y-103818932D01*
X78139608Y-103639608D01*
X78318932Y-103421101D01*
X78452182Y-103171808D01*
X78534236Y-102901309D01*
X78561943Y-102620000D01*
X78534236Y-102338691D01*
X78452182Y-102068192D01*
X78318932Y-101818899D01*
X78139608Y-101600392D01*
X77921101Y-101421068D01*
X77788142Y-101350000D01*
X77921101Y-101278932D01*
X78139608Y-101099608D01*
X78318932Y-100881101D01*
X78452182Y-100631808D01*
X78534236Y-100361309D01*
X78561943Y-100080000D01*
X78534236Y-99798691D01*
X78452182Y-99528192D01*
X78318932Y-99278899D01*
X78139608Y-99060392D01*
X77921101Y-98881068D01*
X77880000Y-98859099D01*
X77880000Y-98760901D01*
X77921101Y-98738932D01*
X78139608Y-98559608D01*
X78318932Y-98341101D01*
X78452182Y-98091808D01*
X78534236Y-97821309D01*
X78561943Y-97540000D01*
X78534236Y-97258691D01*
X78452182Y-96988192D01*
X78318932Y-96738899D01*
X78139608Y-96520392D01*
X77921101Y-96341068D01*
X77788142Y-96270000D01*
X77921101Y-96198932D01*
X78139608Y-96019608D01*
X78318932Y-95801101D01*
X78452182Y-95551808D01*
X78534236Y-95281309D01*
X78561943Y-95000000D01*
X78534236Y-94718691D01*
X78452182Y-94448192D01*
X78318932Y-94198899D01*
X78139608Y-93980392D01*
X77921101Y-93801068D01*
X77671808Y-93667818D01*
X77401309Y-93585764D01*
X77190492Y-93565000D01*
X77049508Y-93565000D01*
X76838691Y-93585764D01*
X76568192Y-93667818D01*
X76318899Y-93801068D01*
X76100392Y-93980392D01*
X75921068Y-94198899D01*
X75827043Y-94374807D01*
X75803937Y-94340226D01*
X75760000Y-94296289D01*
X75760000Y-91727140D01*
X75885363Y-91914759D01*
X76085241Y-92114637D01*
X76320273Y-92271680D01*
X76581426Y-92379853D01*
X76858665Y-92435000D01*
X77141335Y-92435000D01*
X77418574Y-92379853D01*
X77679727Y-92271680D01*
X77914759Y-92114637D01*
X78114637Y-91914759D01*
X78271680Y-91679727D01*
X78379853Y-91418574D01*
X78435000Y-91141335D01*
X78435000Y-90858665D01*
X78379853Y-90581426D01*
X78271680Y-90320273D01*
X78114637Y-90085241D01*
X77914759Y-89885363D01*
X77679727Y-89728320D01*
X77418574Y-89620147D01*
X77141335Y-89565000D01*
X76858665Y-89565000D01*
X76581426Y-89620147D01*
X76320273Y-89728320D01*
X76085241Y-89885363D01*
X75885363Y-90085241D01*
X75760000Y-90272860D01*
X75760000Y-84718043D01*
X75914759Y-84614637D01*
X76036694Y-84492702D01*
X79186903Y-84492702D01*
X79258486Y-84736671D01*
X79513996Y-84857571D01*
X79788184Y-84926300D01*
X80070512Y-84940217D01*
X80350130Y-84898787D01*
X80616292Y-84803603D01*
X80741514Y-84736671D01*
X80813097Y-84492702D01*
X80000000Y-83679605D01*
X79186903Y-84492702D01*
X76036694Y-84492702D01*
X76114637Y-84414759D01*
X76271680Y-84179727D01*
X76379853Y-83918574D01*
X76435000Y-83641335D01*
X76435000Y-83570512D01*
X78559783Y-83570512D01*
X78601213Y-83850130D01*
X78696397Y-84116292D01*
X78763329Y-84241514D01*
X79007298Y-84313097D01*
X79820395Y-83500000D01*
X80179605Y-83500000D01*
X80992702Y-84313097D01*
X81236671Y-84241514D01*
X81357571Y-83986004D01*
X81426300Y-83711816D01*
X81440217Y-83429488D01*
X81398787Y-83149870D01*
X81303603Y-82883708D01*
X81236671Y-82758486D01*
X80992702Y-82686903D01*
X80179605Y-83500000D01*
X79820395Y-83500000D01*
X79007298Y-82686903D01*
X78763329Y-82758486D01*
X78642429Y-83013996D01*
X78573700Y-83288184D01*
X78559783Y-83570512D01*
X76435000Y-83570512D01*
X76435000Y-83358665D01*
X76379853Y-83081426D01*
X76271680Y-82820273D01*
X76114637Y-82585241D01*
X76036694Y-82507298D01*
X79186903Y-82507298D01*
X80000000Y-83320395D01*
X80813097Y-82507298D01*
X80741514Y-82263329D01*
X80486004Y-82142429D01*
X80211816Y-82073700D01*
X79929488Y-82059783D01*
X79649870Y-82101213D01*
X79383708Y-82196397D01*
X79258486Y-82263329D01*
X79186903Y-82507298D01*
X76036694Y-82507298D01*
X75914759Y-82385363D01*
X75760000Y-82281957D01*
X75760000Y-80314801D01*
X76511003Y-79563799D01*
X76540001Y-79540001D01*
X76634974Y-79424276D01*
X76705546Y-79292247D01*
X76749003Y-79148986D01*
X76760000Y-79037333D01*
X76763677Y-79000000D01*
X76760000Y-78962667D01*
X76760000Y-73438072D01*
X76800000Y-73438072D01*
X76924482Y-73425812D01*
X77044180Y-73389502D01*
X77154494Y-73330537D01*
X77251185Y-73251185D01*
X77330537Y-73154494D01*
X77389502Y-73044180D01*
X77405117Y-72992702D01*
X78686903Y-72992702D01*
X78758486Y-73236671D01*
X79013996Y-73357571D01*
X79288184Y-73426300D01*
X79570512Y-73440217D01*
X79850130Y-73398787D01*
X80116292Y-73303603D01*
X80241514Y-73236671D01*
X80313097Y-72992702D01*
X79500000Y-72179605D01*
X78686903Y-72992702D01*
X77405117Y-72992702D01*
X77425812Y-72924482D01*
X77438072Y-72800000D01*
X77438072Y-72070512D01*
X78059783Y-72070512D01*
X78101213Y-72350130D01*
X78196397Y-72616292D01*
X78263329Y-72741514D01*
X78507298Y-72813097D01*
X79320395Y-72000000D01*
X79679605Y-72000000D01*
X80492702Y-72813097D01*
X80736671Y-72741514D01*
X80857571Y-72486004D01*
X80926300Y-72211816D01*
X80940217Y-71929488D01*
X80898787Y-71649870D01*
X80803603Y-71383708D01*
X80736671Y-71258486D01*
X80492702Y-71186903D01*
X79679605Y-72000000D01*
X79320395Y-72000000D01*
X78507298Y-71186903D01*
X78263329Y-71258486D01*
X78142429Y-71513996D01*
X78073700Y-71788184D01*
X78059783Y-72070512D01*
X77438072Y-72070512D01*
X77438072Y-71200000D01*
X77425812Y-71075518D01*
X77405118Y-71007298D01*
X78686903Y-71007298D01*
X79500000Y-71820395D01*
X80313097Y-71007298D01*
X80241514Y-70763329D01*
X79986004Y-70642429D01*
X79711816Y-70573700D01*
X79429488Y-70559783D01*
X79149870Y-70601213D01*
X78883708Y-70696397D01*
X78758486Y-70763329D01*
X78686903Y-71007298D01*
X77405118Y-71007298D01*
X77389502Y-70955820D01*
X77330537Y-70845506D01*
X77251185Y-70748815D01*
X77154494Y-70669463D01*
X77044180Y-70610498D01*
X76924482Y-70574188D01*
X76800000Y-70561928D01*
X75200000Y-70561928D01*
X75075518Y-70574188D01*
X74955820Y-70610498D01*
X74845506Y-70669463D01*
X74748815Y-70748815D01*
X74669463Y-70845506D01*
X74610498Y-70955820D01*
X74574188Y-71075518D01*
X74561928Y-71200000D01*
X74561928Y-72800000D01*
X74574188Y-72924482D01*
X74610498Y-73044180D01*
X74669463Y-73154494D01*
X74748815Y-73251185D01*
X74845506Y-73330537D01*
X74955820Y-73389502D01*
X75075518Y-73425812D01*
X75200000Y-73438072D01*
X75240000Y-73438072D01*
X75240001Y-78685197D01*
X74489002Y-79436196D01*
X74459999Y-79459999D01*
X74415555Y-79514155D01*
X74365026Y-79575724D01*
X74333356Y-79634974D01*
X74294454Y-79707754D01*
X74250997Y-79851015D01*
X74240000Y-79962668D01*
X74240000Y-79962678D01*
X74236324Y-80000000D01*
X74240000Y-80037322D01*
X74240000Y-82281956D01*
X74085241Y-82385363D01*
X73885363Y-82585241D01*
X73728320Y-82820273D01*
X73620147Y-83081426D01*
X73565000Y-83358665D01*
X73565000Y-83641335D01*
X73620147Y-83918574D01*
X73728320Y-84179727D01*
X73885363Y-84414759D01*
X74085241Y-84614637D01*
X74240000Y-84718044D01*
X74240001Y-88821337D01*
X74205546Y-88707753D01*
X74134974Y-88575724D01*
X74040001Y-88459999D01*
X74011004Y-88436202D01*
X72563804Y-86989003D01*
X72540001Y-86959999D01*
X72424276Y-86865026D01*
X72292247Y-86794454D01*
X72148986Y-86750997D01*
X72062211Y-86742450D01*
X72038932Y-86698899D01*
X71859608Y-86480392D01*
X71641101Y-86301068D01*
X71391808Y-86167818D01*
X71121309Y-86085764D01*
X70910492Y-86065000D01*
X70769508Y-86065000D01*
X70558691Y-86085764D01*
X70288192Y-86167818D01*
X70038899Y-86301068D01*
X69820392Y-86480392D01*
X69641068Y-86698899D01*
X69507818Y-86948192D01*
X69425764Y-87218691D01*
X69398057Y-87500000D01*
X69425764Y-87781309D01*
X69507818Y-88051808D01*
X69641068Y-88301101D01*
X69820392Y-88519608D01*
X70038899Y-88698932D01*
X70288192Y-88832182D01*
X70558691Y-88914236D01*
X70769508Y-88935000D01*
X70910492Y-88935000D01*
X71121309Y-88914236D01*
X71391808Y-88832182D01*
X71641101Y-88698932D01*
X71859608Y-88519608D01*
X71898012Y-88472813D01*
X72740000Y-89314802D01*
X72740000Y-89768593D01*
X72679727Y-89728320D01*
X72418574Y-89620147D01*
X72141335Y-89565000D01*
X71858665Y-89565000D01*
X71581426Y-89620147D01*
X71320273Y-89728320D01*
X71085241Y-89885363D01*
X70885363Y-90085241D01*
X70728320Y-90320273D01*
X70620147Y-90581426D01*
X70565000Y-90858665D01*
X70565000Y-91141335D01*
X70620147Y-91418574D01*
X70728320Y-91679727D01*
X70885363Y-91914759D01*
X71085241Y-92114637D01*
X71320273Y-92271680D01*
X71581426Y-92379853D01*
X71858665Y-92435000D01*
X72141335Y-92435000D01*
X72418574Y-92379853D01*
X72679727Y-92271680D01*
X72740000Y-92231407D01*
X72740000Y-94165198D01*
X68278805Y-89704004D01*
X68255002Y-89675000D01*
X68139277Y-89580027D01*
X68007248Y-89509455D01*
X67863987Y-89465998D01*
X67752334Y-89455001D01*
X67752323Y-89455001D01*
X67715001Y-89451325D01*
X67677679Y-89455001D01*
X67603714Y-89455001D01*
X67559777Y-89411064D01*
X67390259Y-89297796D01*
X67201901Y-89219775D01*
X67001942Y-89180001D01*
X66798064Y-89180001D01*
X66598105Y-89219775D01*
X66409747Y-89297796D01*
X66260000Y-89397853D01*
X66260000Y-87992702D01*
X66686903Y-87992702D01*
X66758486Y-88236671D01*
X67013996Y-88357571D01*
X67288184Y-88426300D01*
X67570512Y-88440217D01*
X67850130Y-88398787D01*
X68116292Y-88303603D01*
X68241514Y-88236671D01*
X68313097Y-87992702D01*
X67500000Y-87179605D01*
X66686903Y-87992702D01*
X66260000Y-87992702D01*
X66260000Y-87735286D01*
X66263329Y-87741514D01*
X66507298Y-87813097D01*
X67320395Y-87000000D01*
X67679605Y-87000000D01*
X68492702Y-87813097D01*
X68736671Y-87741514D01*
X68857571Y-87486004D01*
X68926300Y-87211816D01*
X68940217Y-86929488D01*
X68898787Y-86649870D01*
X68803603Y-86383708D01*
X68736671Y-86258486D01*
X68492702Y-86186903D01*
X67679605Y-87000000D01*
X67320395Y-87000000D01*
X66507298Y-86186903D01*
X66263329Y-86258486D01*
X66142429Y-86513996D01*
X66073700Y-86788184D01*
X66063801Y-86988999D01*
X66040001Y-86959999D01*
X66011003Y-86936201D01*
X65082100Y-86007298D01*
X66686903Y-86007298D01*
X67500000Y-86820395D01*
X68313097Y-86007298D01*
X68241514Y-85763329D01*
X67986004Y-85642429D01*
X67711816Y-85573700D01*
X67429488Y-85559783D01*
X67149870Y-85601213D01*
X66883708Y-85696397D01*
X66758486Y-85763329D01*
X66686903Y-86007298D01*
X65082100Y-86007298D01*
X58760000Y-79685199D01*
X58760000Y-73037333D01*
X58763677Y-73000000D01*
X58749003Y-72851014D01*
X58705546Y-72707753D01*
X58634974Y-72575724D01*
X58563799Y-72488997D01*
X58540001Y-72459999D01*
X58511003Y-72436201D01*
X58398688Y-72323886D01*
X58435000Y-72141335D01*
X58435000Y-71858665D01*
X58379853Y-71581426D01*
X58271680Y-71320273D01*
X58191317Y-71200000D01*
X63561928Y-71200000D01*
X63561928Y-72800000D01*
X63574188Y-72924482D01*
X63610498Y-73044180D01*
X63669463Y-73154494D01*
X63748815Y-73251185D01*
X63845506Y-73330537D01*
X63955820Y-73389502D01*
X64075518Y-73425812D01*
X64200000Y-73438072D01*
X65800000Y-73438072D01*
X65924482Y-73425812D01*
X66044180Y-73389502D01*
X66154494Y-73330537D01*
X66251185Y-73251185D01*
X66330537Y-73154494D01*
X66389502Y-73044180D01*
X66405117Y-72992702D01*
X67686903Y-72992702D01*
X67758486Y-73236671D01*
X68013996Y-73357571D01*
X68288184Y-73426300D01*
X68570512Y-73440217D01*
X68850130Y-73398787D01*
X69116292Y-73303603D01*
X69241514Y-73236671D01*
X69313097Y-72992702D01*
X68500000Y-72179605D01*
X67686903Y-72992702D01*
X66405117Y-72992702D01*
X66425812Y-72924482D01*
X66438072Y-72800000D01*
X66438072Y-72070512D01*
X67059783Y-72070512D01*
X67101213Y-72350130D01*
X67196397Y-72616292D01*
X67263329Y-72741514D01*
X67507298Y-72813097D01*
X68320395Y-72000000D01*
X68679605Y-72000000D01*
X69492702Y-72813097D01*
X69736671Y-72741514D01*
X69857571Y-72486004D01*
X69926300Y-72211816D01*
X69940217Y-71929488D01*
X69898787Y-71649870D01*
X69803603Y-71383708D01*
X69736671Y-71258486D01*
X69492702Y-71186903D01*
X68679605Y-72000000D01*
X68320395Y-72000000D01*
X67507298Y-71186903D01*
X67263329Y-71258486D01*
X67142429Y-71513996D01*
X67073700Y-71788184D01*
X67059783Y-72070512D01*
X66438072Y-72070512D01*
X66438072Y-71200000D01*
X66425812Y-71075518D01*
X66405118Y-71007298D01*
X67686903Y-71007298D01*
X68500000Y-71820395D01*
X69313097Y-71007298D01*
X69241514Y-70763329D01*
X68986004Y-70642429D01*
X68711816Y-70573700D01*
X68429488Y-70559783D01*
X68149870Y-70601213D01*
X67883708Y-70696397D01*
X67758486Y-70763329D01*
X67686903Y-71007298D01*
X66405118Y-71007298D01*
X66389502Y-70955820D01*
X66330537Y-70845506D01*
X66251185Y-70748815D01*
X66154494Y-70669463D01*
X66044180Y-70610498D01*
X65924482Y-70574188D01*
X65800000Y-70561928D01*
X64200000Y-70561928D01*
X64075518Y-70574188D01*
X63955820Y-70610498D01*
X63845506Y-70669463D01*
X63748815Y-70748815D01*
X63669463Y-70845506D01*
X63610498Y-70955820D01*
X63574188Y-71075518D01*
X63561928Y-71200000D01*
X58191317Y-71200000D01*
X58114637Y-71085241D01*
X57914759Y-70885363D01*
X57679727Y-70728320D01*
X57418574Y-70620147D01*
X57141335Y-70565000D01*
X56858665Y-70565000D01*
X56581426Y-70620147D01*
X56320273Y-70728320D01*
X56085241Y-70885363D01*
X55885363Y-71085241D01*
X55728320Y-71320273D01*
X55620147Y-71581426D01*
X55565000Y-71858665D01*
X55565000Y-72141335D01*
X55620147Y-72418574D01*
X55728320Y-72679727D01*
X55885363Y-72914759D01*
X56085241Y-73114637D01*
X56320273Y-73271680D01*
X56581426Y-73379853D01*
X56858665Y-73435000D01*
X57141335Y-73435000D01*
X57240001Y-73415374D01*
X57240000Y-79962677D01*
X57236324Y-80000000D01*
X57240000Y-80037322D01*
X57240000Y-80037332D01*
X57250997Y-80148985D01*
X57294454Y-80292246D01*
X57365026Y-80424276D01*
X57404871Y-80472826D01*
X57459999Y-80540001D01*
X57489003Y-80563804D01*
X64740000Y-87814802D01*
X64740001Y-91296288D01*
X64696063Y-91340226D01*
X64582795Y-91509744D01*
X64504774Y-91698102D01*
X64465000Y-91898061D01*
X64465000Y-92101939D01*
X64504774Y-92301898D01*
X64582795Y-92490256D01*
X64696063Y-92659774D01*
X64740000Y-92703711D01*
X64740001Y-95462667D01*
X64736324Y-95500000D01*
X64740001Y-95537333D01*
X64750998Y-95648986D01*
X64764180Y-95692442D01*
X64794454Y-95792246D01*
X64865026Y-95924276D01*
X64919175Y-95990256D01*
X64960000Y-96040001D01*
X64988998Y-96063799D01*
X66740001Y-97814803D01*
X66740000Y-101714047D01*
X66736324Y-101751370D01*
X66740000Y-101788692D01*
X66740000Y-101788702D01*
X66750997Y-101900355D01*
X66794454Y-102043616D01*
X66865026Y-102175646D01*
X66881503Y-102195723D01*
X66959999Y-102291371D01*
X66989002Y-102315173D01*
X67804830Y-103131002D01*
X67828629Y-103160001D01*
X67944354Y-103254974D01*
X68076383Y-103325546D01*
X68219644Y-103369003D01*
X68276198Y-103374573D01*
X68301068Y-103421101D01*
X68480392Y-103639608D01*
X68698899Y-103818932D01*
X68948192Y-103952182D01*
X69218691Y-104034236D01*
X69429508Y-104055000D01*
X69570492Y-104055000D01*
X69781309Y-104034236D01*
X69825906Y-104020708D01*
X70740000Y-104934802D01*
X70740000Y-112061928D01*
X69200000Y-112061928D01*
X69075518Y-112074188D01*
X68955820Y-112110498D01*
X68845506Y-112169463D01*
X68748815Y-112248815D01*
X68669463Y-112345506D01*
X68610498Y-112455820D01*
X68574188Y-112575518D01*
X68561928Y-112700000D01*
X68561928Y-112845674D01*
X68525724Y-112865026D01*
X68506954Y-112880430D01*
X68486306Y-112893213D01*
X68449209Y-112927820D01*
X68409999Y-112959999D01*
X68394595Y-112978769D01*
X68391007Y-112982116D01*
X68332182Y-112788192D01*
X68198932Y-112538899D01*
X68019608Y-112320392D01*
X67801101Y-112141068D01*
X67551808Y-112007818D01*
X67281309Y-111925764D01*
X67070492Y-111905000D01*
X66929508Y-111905000D01*
X66718691Y-111925764D01*
X66448192Y-112007818D01*
X66198899Y-112141068D01*
X65980392Y-112320392D01*
X65801068Y-112538899D01*
X65745009Y-112643778D01*
X65745009Y-108204704D01*
X65885363Y-108414759D01*
X66085241Y-108614637D01*
X66320273Y-108771680D01*
X66581426Y-108879853D01*
X66858665Y-108935000D01*
X67141335Y-108935000D01*
X67418574Y-108879853D01*
X67679727Y-108771680D01*
X67914759Y-108614637D01*
X68114637Y-108414759D01*
X68271680Y-108179727D01*
X68379853Y-107918574D01*
X68435000Y-107641335D01*
X68435000Y-107358665D01*
X68379853Y-107081426D01*
X68271680Y-106820273D01*
X68114637Y-106585241D01*
X67914759Y-106385363D01*
X67760000Y-106281957D01*
X67760000Y-105537322D01*
X67763676Y-105499999D01*
X67760000Y-105462676D01*
X67760000Y-105462667D01*
X67749003Y-105351014D01*
X67705546Y-105207753D01*
X67654727Y-105112678D01*
X67634974Y-105075723D01*
X67563799Y-104988997D01*
X67540001Y-104959999D01*
X67511003Y-104936201D01*
X66398688Y-103823886D01*
X66435000Y-103641335D01*
X66435000Y-103358665D01*
X66379853Y-103081426D01*
X66271680Y-102820273D01*
X66114637Y-102585241D01*
X65914759Y-102385363D01*
X65760000Y-102281957D01*
X65760000Y-101203711D01*
X65803937Y-101159774D01*
X65917205Y-100990256D01*
X65995226Y-100801898D01*
X66035000Y-100601939D01*
X66035000Y-100398061D01*
X65995226Y-100198102D01*
X65917205Y-100009744D01*
X65803937Y-99840226D01*
X65714709Y-99750998D01*
X65741514Y-99736671D01*
X65813097Y-99492702D01*
X65000000Y-98679605D01*
X64985858Y-98693748D01*
X64806253Y-98514143D01*
X64820395Y-98500000D01*
X65179605Y-98500000D01*
X65992702Y-99313097D01*
X66236671Y-99241514D01*
X66357571Y-98986004D01*
X66426300Y-98711816D01*
X66440217Y-98429488D01*
X66398787Y-98149870D01*
X66303603Y-97883708D01*
X66236671Y-97758486D01*
X65992702Y-97686903D01*
X65179605Y-98500000D01*
X64820395Y-98500000D01*
X64806253Y-98485858D01*
X64985858Y-98306253D01*
X65000000Y-98320395D01*
X65813097Y-97507298D01*
X65741514Y-97263329D01*
X65486004Y-97142429D01*
X65211816Y-97073700D01*
X64929488Y-97059783D01*
X64649870Y-97101213D01*
X64383708Y-97196397D01*
X64260000Y-97262520D01*
X64260000Y-94703711D01*
X64303937Y-94659774D01*
X64417205Y-94490256D01*
X64495226Y-94301898D01*
X64535000Y-94101939D01*
X64535000Y-93898061D01*
X64495226Y-93698102D01*
X64417205Y-93509744D01*
X64303937Y-93340226D01*
X64159774Y-93196063D01*
X63990256Y-93082795D01*
X63801898Y-93004774D01*
X63601939Y-92965000D01*
X63398061Y-92965000D01*
X63198102Y-93004774D01*
X63009744Y-93082795D01*
X62840226Y-93196063D01*
X62696063Y-93340226D01*
X62582795Y-93509744D01*
X62534999Y-93625133D01*
X62534999Y-87428712D01*
X62578936Y-87384775D01*
X62692204Y-87215257D01*
X62770225Y-87026899D01*
X62809999Y-86826940D01*
X62809999Y-86623062D01*
X62770225Y-86423103D01*
X62692204Y-86234745D01*
X62578936Y-86065227D01*
X62434773Y-85921064D01*
X62265255Y-85807796D01*
X62076897Y-85729775D01*
X61876938Y-85690001D01*
X61673060Y-85690001D01*
X61473101Y-85729775D01*
X61284743Y-85807796D01*
X61115225Y-85921064D01*
X60971062Y-86065227D01*
X60857794Y-86234745D01*
X60779773Y-86423103D01*
X60739999Y-86623062D01*
X60739999Y-86826940D01*
X60779773Y-87026899D01*
X60857794Y-87215257D01*
X60971062Y-87384775D01*
X61014999Y-87428712D01*
X61014999Y-88099328D01*
X60990256Y-88082795D01*
X60801898Y-88004774D01*
X60601939Y-87965000D01*
X60398061Y-87965000D01*
X60198102Y-88004774D01*
X60009744Y-88082795D01*
X59840226Y-88196063D01*
X59696063Y-88340226D01*
X59582795Y-88509744D01*
X59504774Y-88698102D01*
X59465000Y-88898061D01*
X59465000Y-89101939D01*
X59504774Y-89301898D01*
X59582795Y-89490256D01*
X59696063Y-89659774D01*
X59740001Y-89703712D01*
X59740000Y-91962677D01*
X59736324Y-92000000D01*
X59740000Y-92037322D01*
X59740000Y-92037332D01*
X59750997Y-92148985D01*
X59794454Y-92292246D01*
X59865026Y-92424276D01*
X59895431Y-92461324D01*
X59959999Y-92540001D01*
X59989003Y-92563804D01*
X60240001Y-92814802D01*
X60240001Y-98289487D01*
X60110256Y-98202795D01*
X59921898Y-98124774D01*
X59721939Y-98085000D01*
X59518061Y-98085000D01*
X59318102Y-98124774D01*
X59129744Y-98202795D01*
X58960226Y-98316063D01*
X58816063Y-98460226D01*
X58702795Y-98629744D01*
X58624774Y-98818102D01*
X58585000Y-99018061D01*
X58585000Y-99221939D01*
X58624774Y-99421898D01*
X58702795Y-99610256D01*
X58816063Y-99779774D01*
X58960226Y-99923937D01*
X59129744Y-100037205D01*
X59318102Y-100115226D01*
X59518061Y-100155000D01*
X59580198Y-100155000D01*
X59789990Y-100364793D01*
X59789991Y-129574800D01*
X59690492Y-129565000D01*
X59549508Y-129565000D01*
X59338691Y-129585764D01*
X59068192Y-129667818D01*
X58818899Y-129801068D01*
X58600392Y-129980392D01*
X58421068Y-130198899D01*
X58287818Y-130448192D01*
X58205764Y-130718691D01*
X58178057Y-131000000D01*
X58205764Y-131281309D01*
X58287818Y-131551808D01*
X58421068Y-131801101D01*
X58600392Y-132019608D01*
X58740001Y-132134182D01*
X58740000Y-133561928D01*
X58700000Y-133561928D01*
X58575518Y-133574188D01*
X58455820Y-133610498D01*
X58345506Y-133669463D01*
X58248815Y-133748815D01*
X58169463Y-133845506D01*
X58110498Y-133955820D01*
X58074188Y-134075518D01*
X58061928Y-134200000D01*
X58061928Y-135800000D01*
X58074188Y-135924482D01*
X58110498Y-136044180D01*
X58169463Y-136154494D01*
X58248815Y-136251185D01*
X58345506Y-136330537D01*
X58455820Y-136389502D01*
X58575518Y-136425812D01*
X58700000Y-136438072D01*
X60240000Y-136438072D01*
X60240000Y-137704268D01*
X60171808Y-137667818D01*
X59901309Y-137585764D01*
X59690492Y-137565000D01*
X59549508Y-137565000D01*
X59338691Y-137585764D01*
X59068192Y-137667818D01*
X58818899Y-137801068D01*
X58600392Y-137980392D01*
X58421068Y-138198899D01*
X58287818Y-138448192D01*
X58205764Y-138718691D01*
X58178057Y-139000000D01*
X58205764Y-139281309D01*
X58287818Y-139551808D01*
X58421068Y-139801101D01*
X58600392Y-140019608D01*
X58818899Y-140198932D01*
X58860000Y-140220901D01*
X58860001Y-141561928D01*
X58700000Y-141561928D01*
X58575518Y-141574188D01*
X58455820Y-141610498D01*
X58345506Y-141669463D01*
X58248815Y-141748815D01*
X58169463Y-141845506D01*
X58110498Y-141955820D01*
X58074188Y-142075518D01*
X58061928Y-142200000D01*
X58061928Y-143800000D01*
X58074188Y-143924482D01*
X58110498Y-144044180D01*
X58169463Y-144154494D01*
X58248815Y-144251185D01*
X58345506Y-144330537D01*
X58455820Y-144389502D01*
X58575518Y-144425812D01*
X58700000Y-144438072D01*
X60240000Y-144438072D01*
X60240000Y-145704268D01*
X60171808Y-145667818D01*
X59901309Y-145585764D01*
X59690492Y-145565000D01*
X59549508Y-145565000D01*
X59338691Y-145585764D01*
X59068192Y-145667818D01*
X58818899Y-145801068D01*
X58600392Y-145980392D01*
X58421068Y-146198899D01*
X58287818Y-146448192D01*
X58205764Y-146718691D01*
X58178057Y-147000000D01*
X58205764Y-147281309D01*
X58287818Y-147551808D01*
X58421068Y-147801101D01*
X58600392Y-148019608D01*
X58818899Y-148198932D01*
X58860000Y-148220901D01*
X58860001Y-149561928D01*
X58700000Y-149561928D01*
X58575518Y-149574188D01*
X58455820Y-149610498D01*
X58345506Y-149669463D01*
X58248815Y-149748815D01*
X58169463Y-149845506D01*
X58110498Y-149955820D01*
X58074188Y-150075518D01*
X58061928Y-150200000D01*
X58061928Y-151800000D01*
X58074188Y-151924482D01*
X58110498Y-152044180D01*
X58169463Y-152154494D01*
X58248815Y-152251185D01*
X58345506Y-152330537D01*
X58455820Y-152389502D01*
X58575518Y-152425812D01*
X58700000Y-152438072D01*
X60240000Y-152438072D01*
X60240000Y-154796289D01*
X60196063Y-154840226D01*
X60082795Y-155009744D01*
X60004774Y-155198102D01*
X59965000Y-155398061D01*
X59965000Y-155601939D01*
X60004774Y-155801898D01*
X60082795Y-155990256D01*
X60196063Y-156159774D01*
X60340226Y-156303937D01*
X60389447Y-156336825D01*
X60298691Y-156345764D01*
X60028192Y-156427818D01*
X59778899Y-156561068D01*
X59560392Y-156740392D01*
X59381068Y-156958899D01*
X59307421Y-157096682D01*
X59192385Y-156904869D01*
X59003414Y-156696481D01*
X58777420Y-156528963D01*
X58523087Y-156408754D01*
X58389039Y-156368096D01*
X58167000Y-156490085D01*
X58167000Y-157633000D01*
X58187000Y-157633000D01*
X58187000Y-157887000D01*
X58167000Y-157887000D01*
X58167000Y-159029915D01*
X58389039Y-159151904D01*
X58523087Y-159111246D01*
X58777420Y-158991037D01*
X59003414Y-158823519D01*
X59192385Y-158615131D01*
X59307421Y-158423318D01*
X59381068Y-158561101D01*
X59560392Y-158779608D01*
X59778899Y-158958932D01*
X60028192Y-159092182D01*
X60298691Y-159174236D01*
X60509508Y-159195000D01*
X60650492Y-159195000D01*
X60861309Y-159174236D01*
X61015000Y-159127615D01*
X61015000Y-164237666D01*
X61011323Y-164274999D01*
X61015000Y-164312332D01*
X61025997Y-164423985D01*
X61039179Y-164467441D01*
X61069453Y-164567245D01*
X61140025Y-164699275D01*
X61192879Y-164763677D01*
X61234999Y-164815000D01*
X61263997Y-164838798D01*
X61465000Y-165039801D01*
X61465000Y-165101939D01*
X61504774Y-165301898D01*
X61582795Y-165490256D01*
X61696063Y-165659774D01*
X61840226Y-165803937D01*
X62009744Y-165917205D01*
X62198102Y-165995226D01*
X62398061Y-166035000D01*
X62601939Y-166035000D01*
X62801898Y-165995226D01*
X62990256Y-165917205D01*
X63159774Y-165803937D01*
X63303937Y-165659774D01*
X63417205Y-165490256D01*
X63495226Y-165301898D01*
X63535000Y-165101939D01*
X63535000Y-164898061D01*
X63495226Y-164698102D01*
X63417205Y-164509744D01*
X63303937Y-164340226D01*
X63159774Y-164196063D01*
X62990256Y-164082795D01*
X62801898Y-164004774D01*
X62601939Y-163965000D01*
X62539801Y-163965000D01*
X62534999Y-163960198D01*
X62534999Y-159074440D01*
X62568192Y-159092182D01*
X62838691Y-159174236D01*
X63049508Y-159195000D01*
X63190492Y-159195000D01*
X63401309Y-159174236D01*
X63671808Y-159092182D01*
X63774999Y-159037025D01*
X63774999Y-171730007D01*
X63603087Y-171648754D01*
X63469039Y-171608096D01*
X63247000Y-171730085D01*
X63247000Y-172873000D01*
X63267000Y-172873000D01*
X63267000Y-173127000D01*
X63247000Y-173127000D01*
X63247000Y-173147000D01*
X62993000Y-173147000D01*
X62993000Y-173127000D01*
X62973000Y-173127000D01*
X62973000Y-172873000D01*
X62993000Y-172873000D01*
X62993000Y-171730085D01*
X62770961Y-171608096D01*
X62636913Y-171648754D01*
X62382580Y-171768963D01*
X62156586Y-171936481D01*
X61967615Y-172144869D01*
X61852579Y-172336682D01*
X61778932Y-172198899D01*
X61599608Y-171980392D01*
X61381101Y-171801068D01*
X61131808Y-171667818D01*
X60861309Y-171585764D01*
X60650492Y-171565000D01*
X60509508Y-171565000D01*
X60298691Y-171585764D01*
X60028192Y-171667818D01*
X59778899Y-171801068D01*
X59560392Y-171980392D01*
X59381068Y-172198899D01*
X59310000Y-172331858D01*
X59238932Y-172198899D01*
X59059608Y-171980392D01*
X58841101Y-171801068D01*
X58591808Y-171667818D01*
X58321309Y-171585764D01*
X58110492Y-171565000D01*
X57969508Y-171565000D01*
X57758691Y-171585764D01*
X57488192Y-171667818D01*
X57238899Y-171801068D01*
X57020392Y-171980392D01*
X56927581Y-172093482D01*
X56925812Y-172075518D01*
X56889502Y-171955820D01*
X56830537Y-171845506D01*
X56751185Y-171748815D01*
X56654494Y-171669463D01*
X56544180Y-171610498D01*
X56424482Y-171574188D01*
X56300000Y-171561928D01*
X54700000Y-171561928D01*
X54575518Y-171574188D01*
X54455820Y-171610498D01*
X54345506Y-171669463D01*
X54248815Y-171748815D01*
X54169463Y-171845506D01*
X54110498Y-171955820D01*
X54074188Y-172075518D01*
X54061928Y-172200000D01*
X54061928Y-173800000D01*
X54074188Y-173924482D01*
X54110498Y-174044180D01*
X54169463Y-174154494D01*
X54248815Y-174251185D01*
X54326574Y-174315000D01*
X49685000Y-174315000D01*
X49685000Y-169643217D01*
X49696063Y-169659774D01*
X49840226Y-169803937D01*
X50009744Y-169917205D01*
X50198102Y-169995226D01*
X50398061Y-170035000D01*
X50601939Y-170035000D01*
X50801898Y-169995226D01*
X50990256Y-169917205D01*
X51159774Y-169803937D01*
X51303937Y-169659774D01*
X51417205Y-169490256D01*
X51495226Y-169301898D01*
X51535000Y-169101939D01*
X51535000Y-168898061D01*
X51495226Y-168698102D01*
X51427217Y-168533915D01*
X51460545Y-168471563D01*
X51504002Y-168328302D01*
X51514999Y-168216649D01*
X51514999Y-168216640D01*
X51518675Y-168179317D01*
X51514999Y-168141994D01*
X51514999Y-157760000D01*
X54058057Y-157760000D01*
X54085764Y-158041309D01*
X54167818Y-158311808D01*
X54301068Y-158561101D01*
X54480392Y-158779608D01*
X54698899Y-158958932D01*
X54948192Y-159092182D01*
X55218691Y-159174236D01*
X55429508Y-159195000D01*
X55570492Y-159195000D01*
X55781309Y-159174236D01*
X56051808Y-159092182D01*
X56301101Y-158958932D01*
X56519608Y-158779608D01*
X56698932Y-158561101D01*
X56772579Y-158423318D01*
X56887615Y-158615131D01*
X57076586Y-158823519D01*
X57302580Y-158991037D01*
X57556913Y-159111246D01*
X57690961Y-159151904D01*
X57913000Y-159029915D01*
X57913000Y-157887000D01*
X57893000Y-157887000D01*
X57893000Y-157633000D01*
X57913000Y-157633000D01*
X57913000Y-156490085D01*
X57690961Y-156368096D01*
X57556913Y-156408754D01*
X57302580Y-156528963D01*
X57076586Y-156696481D01*
X56887615Y-156904869D01*
X56772579Y-157096682D01*
X56698932Y-156958899D01*
X56519608Y-156740392D01*
X56301101Y-156561068D01*
X56051808Y-156427818D01*
X55781309Y-156345764D01*
X55570492Y-156325000D01*
X55429508Y-156325000D01*
X55218691Y-156345764D01*
X54948192Y-156427818D01*
X54698899Y-156561068D01*
X54480392Y-156740392D01*
X54301068Y-156958899D01*
X54167818Y-157208192D01*
X54085764Y-157478691D01*
X54058057Y-157760000D01*
X51514999Y-157760000D01*
X51514999Y-152386193D01*
X51530960Y-152391909D01*
X51753000Y-152270624D01*
X51753000Y-151127000D01*
X52007000Y-151127000D01*
X52007000Y-152270624D01*
X52229040Y-152391909D01*
X52493881Y-152297070D01*
X52735131Y-152152385D01*
X52943519Y-151963414D01*
X53111037Y-151737420D01*
X53231246Y-151483087D01*
X53271904Y-151349039D01*
X53149915Y-151127000D01*
X52007000Y-151127000D01*
X51753000Y-151127000D01*
X51733000Y-151127000D01*
X51733000Y-150873000D01*
X51753000Y-150873000D01*
X51753000Y-149729376D01*
X52007000Y-149729376D01*
X52007000Y-150873000D01*
X53149915Y-150873000D01*
X53271904Y-150650961D01*
X53231246Y-150516913D01*
X53111037Y-150262580D01*
X52943519Y-150036586D01*
X52735131Y-149847615D01*
X52493881Y-149702930D01*
X52229040Y-149608091D01*
X52007000Y-149729376D01*
X51753000Y-149729376D01*
X51530960Y-149608091D01*
X51514999Y-149613807D01*
X51514999Y-148438072D01*
X52800000Y-148438072D01*
X52924482Y-148425812D01*
X53044180Y-148389502D01*
X53154494Y-148330537D01*
X53251185Y-148251185D01*
X53330537Y-148154494D01*
X53389502Y-148044180D01*
X53425812Y-147924482D01*
X53438072Y-147800000D01*
X53438072Y-146200000D01*
X53425812Y-146075518D01*
X53389502Y-145955820D01*
X53330537Y-145845506D01*
X53251185Y-145748815D01*
X53154494Y-145669463D01*
X53044180Y-145610498D01*
X52924482Y-145574188D01*
X52800000Y-145561928D01*
X51514999Y-145561928D01*
X51514999Y-144386193D01*
X51530960Y-144391909D01*
X51753000Y-144270624D01*
X51753000Y-143127000D01*
X52007000Y-143127000D01*
X52007000Y-144270624D01*
X52229040Y-144391909D01*
X52493881Y-144297070D01*
X52735131Y-144152385D01*
X52943519Y-143963414D01*
X53111037Y-143737420D01*
X53231246Y-143483087D01*
X53271904Y-143349039D01*
X53149915Y-143127000D01*
X52007000Y-143127000D01*
X51753000Y-143127000D01*
X51733000Y-143127000D01*
X51733000Y-142873000D01*
X51753000Y-142873000D01*
X51753000Y-141729376D01*
X52007000Y-141729376D01*
X52007000Y-142873000D01*
X53149915Y-142873000D01*
X53271904Y-142650961D01*
X53231246Y-142516913D01*
X53111037Y-142262580D01*
X52943519Y-142036586D01*
X52735131Y-141847615D01*
X52493881Y-141702930D01*
X52229040Y-141608091D01*
X52007000Y-141729376D01*
X51753000Y-141729376D01*
X51530960Y-141608091D01*
X51514999Y-141613807D01*
X51514999Y-140438072D01*
X52800000Y-140438072D01*
X52924482Y-140425812D01*
X53044180Y-140389502D01*
X53154494Y-140330537D01*
X53251185Y-140251185D01*
X53330537Y-140154494D01*
X53389502Y-140044180D01*
X53425812Y-139924482D01*
X53438072Y-139800000D01*
X53438072Y-138200000D01*
X53425812Y-138075518D01*
X53389502Y-137955820D01*
X53330537Y-137845506D01*
X53251185Y-137748815D01*
X53154494Y-137669463D01*
X53044180Y-137610498D01*
X52924482Y-137574188D01*
X52800000Y-137561928D01*
X51514999Y-137561928D01*
X51514999Y-136386193D01*
X51530960Y-136391909D01*
X51753000Y-136270624D01*
X51753000Y-135127000D01*
X52007000Y-135127000D01*
X52007000Y-136270624D01*
X52229040Y-136391909D01*
X52493881Y-136297070D01*
X52735131Y-136152385D01*
X52943519Y-135963414D01*
X53111037Y-135737420D01*
X53231246Y-135483087D01*
X53271904Y-135349039D01*
X53149915Y-135127000D01*
X52007000Y-135127000D01*
X51753000Y-135127000D01*
X51733000Y-135127000D01*
X51733000Y-134873000D01*
X51753000Y-134873000D01*
X51753000Y-133729376D01*
X52007000Y-133729376D01*
X52007000Y-134873000D01*
X53149915Y-134873000D01*
X53271904Y-134650961D01*
X53231246Y-134516913D01*
X53111037Y-134262580D01*
X52943519Y-134036586D01*
X52735131Y-133847615D01*
X52493881Y-133702930D01*
X52229040Y-133608091D01*
X52007000Y-133729376D01*
X51753000Y-133729376D01*
X51530960Y-133608091D01*
X51514999Y-133613807D01*
X51514999Y-132438072D01*
X52800000Y-132438072D01*
X52924482Y-132425812D01*
X53044180Y-132389502D01*
X53154494Y-132330537D01*
X53251185Y-132251185D01*
X53330537Y-132154494D01*
X53389502Y-132044180D01*
X53425812Y-131924482D01*
X53438072Y-131800000D01*
X53438072Y-130200000D01*
X53425812Y-130075518D01*
X53389502Y-129955820D01*
X53330537Y-129845506D01*
X53251185Y-129748815D01*
X53154494Y-129669463D01*
X53044180Y-129610498D01*
X52924482Y-129574188D01*
X52800000Y-129561928D01*
X51514999Y-129561928D01*
X51514999Y-128509804D01*
X51735998Y-128288805D01*
X51765002Y-128265002D01*
X51859975Y-128149277D01*
X51930547Y-128017248D01*
X51974004Y-127873987D01*
X51985001Y-127762334D01*
X51985001Y-127762325D01*
X51988677Y-127725002D01*
X51985001Y-127687679D01*
X51985001Y-115660000D01*
X52007815Y-115660000D01*
X52036487Y-115951111D01*
X52121401Y-116231034D01*
X52259294Y-116489014D01*
X52444866Y-116715134D01*
X52670986Y-116900706D01*
X52725791Y-116930000D01*
X52670986Y-116959294D01*
X52444866Y-117144866D01*
X52259294Y-117370986D01*
X52121401Y-117628966D01*
X52036487Y-117908889D01*
X52007815Y-118200000D01*
X52036487Y-118491111D01*
X52121401Y-118771034D01*
X52259294Y-119029014D01*
X52444866Y-119255134D01*
X52670986Y-119440706D01*
X52725791Y-119470000D01*
X52670986Y-119499294D01*
X52444866Y-119684866D01*
X52259294Y-119910986D01*
X52121401Y-120168966D01*
X52036487Y-120448889D01*
X52007815Y-120740000D01*
X52036487Y-121031111D01*
X52121401Y-121311034D01*
X52259294Y-121569014D01*
X52444866Y-121795134D01*
X52670986Y-121980706D01*
X52725791Y-122010000D01*
X52670986Y-122039294D01*
X52444866Y-122224866D01*
X52259294Y-122450986D01*
X52121401Y-122708966D01*
X52036487Y-122988889D01*
X52007815Y-123280000D01*
X52036487Y-123571111D01*
X52121401Y-123851034D01*
X52259294Y-124109014D01*
X52444866Y-124335134D01*
X52670986Y-124520706D01*
X52928966Y-124658599D01*
X53208889Y-124743513D01*
X53427050Y-124765000D01*
X53572950Y-124765000D01*
X53791111Y-124743513D01*
X54071034Y-124658599D01*
X54329014Y-124520706D01*
X54555134Y-124335134D01*
X54740706Y-124109014D01*
X54770000Y-124054209D01*
X54799294Y-124109014D01*
X54984866Y-124335134D01*
X55210986Y-124520706D01*
X55237589Y-124534926D01*
X55240000Y-124559403D01*
X55240001Y-138796288D01*
X55196063Y-138840226D01*
X55082795Y-139009744D01*
X55004774Y-139198102D01*
X54965000Y-139398061D01*
X54965000Y-139601939D01*
X55004774Y-139801898D01*
X55082795Y-139990256D01*
X55196063Y-140159774D01*
X55340226Y-140303937D01*
X55509744Y-140417205D01*
X55698102Y-140495226D01*
X55898061Y-140535000D01*
X56101939Y-140535000D01*
X56301898Y-140495226D01*
X56490256Y-140417205D01*
X56659774Y-140303937D01*
X56803937Y-140159774D01*
X56917205Y-139990256D01*
X56995226Y-139801898D01*
X57035000Y-139601939D01*
X57035000Y-139398061D01*
X56995226Y-139198102D01*
X56917205Y-139009744D01*
X56803937Y-138840226D01*
X56760000Y-138796289D01*
X56760000Y-131785000D01*
X56851939Y-131785000D01*
X57051898Y-131745226D01*
X57240256Y-131667205D01*
X57409774Y-131553937D01*
X57553937Y-131409774D01*
X57667205Y-131240256D01*
X57745226Y-131051898D01*
X57785000Y-130851939D01*
X57785000Y-130648061D01*
X57745226Y-130448102D01*
X57667205Y-130259744D01*
X57553937Y-130090226D01*
X57510000Y-130046289D01*
X57510000Y-125123803D01*
X57725999Y-124907804D01*
X57755002Y-124884002D01*
X57849975Y-124768277D01*
X57920547Y-124636248D01*
X57964004Y-124492987D01*
X57975001Y-124381334D01*
X57975001Y-124381326D01*
X57978677Y-124344001D01*
X57975001Y-124306676D01*
X57975001Y-122452323D01*
X57978677Y-122415000D01*
X57975001Y-122377677D01*
X57975001Y-122377668D01*
X57964004Y-122266015D01*
X57920547Y-122122754D01*
X57849975Y-121990725D01*
X57755002Y-121875000D01*
X57725998Y-121851197D01*
X57453803Y-121579002D01*
X57453798Y-121578996D01*
X57337521Y-121462720D01*
X57418599Y-121311034D01*
X57503513Y-121031111D01*
X57532185Y-120740000D01*
X57503513Y-120448889D01*
X57418599Y-120168966D01*
X57280706Y-119910986D01*
X57095134Y-119684866D01*
X56869014Y-119499294D01*
X56814209Y-119470000D01*
X56869014Y-119440706D01*
X57095134Y-119255134D01*
X57280706Y-119029014D01*
X57418599Y-118771034D01*
X57503513Y-118491111D01*
X57532185Y-118200000D01*
X57503513Y-117908889D01*
X57418599Y-117628966D01*
X57280706Y-117370986D01*
X57095134Y-117144866D01*
X56869014Y-116959294D01*
X56814209Y-116930000D01*
X56869014Y-116900706D01*
X57095134Y-116715134D01*
X57280706Y-116489014D01*
X57418599Y-116231034D01*
X57503513Y-115951111D01*
X57532185Y-115660000D01*
X57503513Y-115368889D01*
X57418599Y-115088966D01*
X57280706Y-114830986D01*
X57095134Y-114604866D01*
X56869014Y-114419294D01*
X56804477Y-114384799D01*
X56921355Y-114315178D01*
X57137588Y-114120269D01*
X57311641Y-113886920D01*
X57436825Y-113624099D01*
X57481476Y-113476890D01*
X57360155Y-113247000D01*
X56167000Y-113247000D01*
X56167000Y-113267000D01*
X55913000Y-113267000D01*
X55913000Y-113247000D01*
X53627000Y-113247000D01*
X53627000Y-113267000D01*
X53373000Y-113267000D01*
X53373000Y-113247000D01*
X52179845Y-113247000D01*
X52058524Y-113476890D01*
X52103175Y-113624099D01*
X52228359Y-113886920D01*
X52402412Y-114120269D01*
X52618645Y-114315178D01*
X52735523Y-114384799D01*
X52670986Y-114419294D01*
X52444866Y-114604866D01*
X52259294Y-114830986D01*
X52121401Y-115088966D01*
X52036487Y-115368889D01*
X52007815Y-115660000D01*
X51985001Y-115660000D01*
X51985001Y-110936890D01*
X52058524Y-110936890D01*
X52103175Y-111084099D01*
X52228359Y-111346920D01*
X52402412Y-111580269D01*
X52618645Y-111775178D01*
X52744255Y-111850000D01*
X52618645Y-111924822D01*
X52402412Y-112119731D01*
X52228359Y-112353080D01*
X52103175Y-112615901D01*
X52058524Y-112763110D01*
X52179845Y-112993000D01*
X53373000Y-112993000D01*
X53373000Y-110707000D01*
X53627000Y-110707000D01*
X53627000Y-112993000D01*
X55913000Y-112993000D01*
X55913000Y-110707000D01*
X56167000Y-110707000D01*
X56167000Y-112993000D01*
X57360155Y-112993000D01*
X57481476Y-112763110D01*
X57436825Y-112615901D01*
X57311641Y-112353080D01*
X57137588Y-112119731D01*
X56921355Y-111924822D01*
X56795745Y-111850000D01*
X56921355Y-111775178D01*
X57137588Y-111580269D01*
X57311641Y-111346920D01*
X57436825Y-111084099D01*
X57481476Y-110936890D01*
X57360155Y-110707000D01*
X56167000Y-110707000D01*
X55913000Y-110707000D01*
X53627000Y-110707000D01*
X53373000Y-110707000D01*
X52179845Y-110707000D01*
X52058524Y-110936890D01*
X51985001Y-110936890D01*
X51985001Y-108396890D01*
X52058524Y-108396890D01*
X52103175Y-108544099D01*
X52228359Y-108806920D01*
X52402412Y-109040269D01*
X52618645Y-109235178D01*
X52744255Y-109310000D01*
X52618645Y-109384822D01*
X52402412Y-109579731D01*
X52228359Y-109813080D01*
X52103175Y-110075901D01*
X52058524Y-110223110D01*
X52179845Y-110453000D01*
X53373000Y-110453000D01*
X53373000Y-108167000D01*
X53627000Y-108167000D01*
X53627000Y-110453000D01*
X55913000Y-110453000D01*
X55913000Y-108167000D01*
X56167000Y-108167000D01*
X56167000Y-110453000D01*
X57360155Y-110453000D01*
X57481476Y-110223110D01*
X57436825Y-110075901D01*
X57311641Y-109813080D01*
X57137588Y-109579731D01*
X56921355Y-109384822D01*
X56795745Y-109310000D01*
X56921355Y-109235178D01*
X57137588Y-109040269D01*
X57311641Y-108806920D01*
X57436825Y-108544099D01*
X57481476Y-108396890D01*
X57360155Y-108167000D01*
X56167000Y-108167000D01*
X55913000Y-108167000D01*
X53627000Y-108167000D01*
X53373000Y-108167000D01*
X52179845Y-108167000D01*
X52058524Y-108396890D01*
X51985001Y-108396890D01*
X51985001Y-104650000D01*
X52011928Y-104650000D01*
X52011928Y-106350000D01*
X52024188Y-106474482D01*
X52060498Y-106594180D01*
X52119463Y-106704494D01*
X52198815Y-106801185D01*
X52295506Y-106880537D01*
X52405820Y-106939502D01*
X52486466Y-106963966D01*
X52402412Y-107039731D01*
X52228359Y-107273080D01*
X52103175Y-107535901D01*
X52058524Y-107683110D01*
X52179845Y-107913000D01*
X53373000Y-107913000D01*
X53373000Y-107893000D01*
X53627000Y-107893000D01*
X53627000Y-107913000D01*
X55913000Y-107913000D01*
X55913000Y-107893000D01*
X56167000Y-107893000D01*
X56167000Y-107913000D01*
X57360155Y-107913000D01*
X57481476Y-107683110D01*
X57436825Y-107535901D01*
X57311641Y-107273080D01*
X57137588Y-107039731D01*
X56921355Y-106844822D01*
X56804477Y-106775201D01*
X56869014Y-106740706D01*
X57095134Y-106555134D01*
X57280706Y-106329014D01*
X57418599Y-106071034D01*
X57503513Y-105791111D01*
X57532185Y-105500000D01*
X57503513Y-105208889D01*
X57418599Y-104928966D01*
X57280706Y-104670986D01*
X57095134Y-104444866D01*
X56869014Y-104259294D01*
X56611034Y-104121401D01*
X56331111Y-104036487D01*
X56112950Y-104015000D01*
X55967050Y-104015000D01*
X55748889Y-104036487D01*
X55468966Y-104121401D01*
X55210986Y-104259294D01*
X54984866Y-104444866D01*
X54960393Y-104474687D01*
X54939502Y-104405820D01*
X54880537Y-104295506D01*
X54801185Y-104198815D01*
X54704494Y-104119463D01*
X54594180Y-104060498D01*
X54474482Y-104024188D01*
X54350000Y-104011928D01*
X52650000Y-104011928D01*
X52525518Y-104024188D01*
X52405820Y-104060498D01*
X52295506Y-104119463D01*
X52198815Y-104198815D01*
X52119463Y-104295506D01*
X52060498Y-104405820D01*
X52024188Y-104525518D01*
X52011928Y-104650000D01*
X51985001Y-104650000D01*
X51985001Y-94169800D01*
X52010235Y-94144567D01*
X52036487Y-94411111D01*
X52121401Y-94691034D01*
X52259294Y-94949014D01*
X52444866Y-95175134D01*
X52670986Y-95360706D01*
X52725791Y-95390000D01*
X52670986Y-95419294D01*
X52444866Y-95604866D01*
X52259294Y-95830986D01*
X52121401Y-96088966D01*
X52036487Y-96368889D01*
X52007815Y-96660000D01*
X52036487Y-96951111D01*
X52121401Y-97231034D01*
X52259294Y-97489014D01*
X52444866Y-97715134D01*
X52670986Y-97900706D01*
X52928966Y-98038599D01*
X53208889Y-98123513D01*
X53427050Y-98145000D01*
X53572950Y-98145000D01*
X53791111Y-98123513D01*
X54071034Y-98038599D01*
X54329014Y-97900706D01*
X54555134Y-97715134D01*
X54740706Y-97489014D01*
X54771584Y-97431244D01*
X54942412Y-97660269D01*
X55158645Y-97855178D01*
X55408748Y-98004157D01*
X55683109Y-98101481D01*
X55913000Y-97980814D01*
X55913000Y-96787000D01*
X56167000Y-96787000D01*
X56167000Y-97980814D01*
X56396891Y-98101481D01*
X56671252Y-98004157D01*
X56921355Y-97855178D01*
X57137588Y-97660269D01*
X57311641Y-97426920D01*
X57436825Y-97164099D01*
X57481476Y-97016890D01*
X57360155Y-96787000D01*
X56167000Y-96787000D01*
X55913000Y-96787000D01*
X55893000Y-96787000D01*
X55893000Y-96533000D01*
X55913000Y-96533000D01*
X55913000Y-96513000D01*
X56167000Y-96513000D01*
X56167000Y-96533000D01*
X57360155Y-96533000D01*
X57481476Y-96303110D01*
X57436825Y-96155901D01*
X57311641Y-95893080D01*
X57137588Y-95659731D01*
X56921355Y-95464822D01*
X56804477Y-95395201D01*
X56869014Y-95360706D01*
X57095134Y-95175134D01*
X57280706Y-94949014D01*
X57418599Y-94691034D01*
X57503513Y-94411111D01*
X57532185Y-94120000D01*
X57503513Y-93828889D01*
X57418599Y-93548966D01*
X57280706Y-93290986D01*
X57095134Y-93064866D01*
X56869014Y-92879294D01*
X56814209Y-92850000D01*
X56869014Y-92820706D01*
X57095134Y-92635134D01*
X57280706Y-92409014D01*
X57418599Y-92151034D01*
X57503513Y-91871111D01*
X57532185Y-91580000D01*
X57503513Y-91288889D01*
X57418599Y-91008966D01*
X57280706Y-90750986D01*
X57095134Y-90524866D01*
X56869014Y-90339294D01*
X56814209Y-90310000D01*
X56869014Y-90280706D01*
X57095134Y-90095134D01*
X57280706Y-89869014D01*
X57418599Y-89611034D01*
X57503513Y-89331111D01*
X57532185Y-89040000D01*
X57503513Y-88748889D01*
X57418599Y-88468966D01*
X57280706Y-88210986D01*
X57095134Y-87984866D01*
X56869014Y-87799294D01*
X56814209Y-87770000D01*
X56869014Y-87740706D01*
X57095134Y-87555134D01*
X57280706Y-87329014D01*
X57418599Y-87071034D01*
X57503513Y-86791111D01*
X57532185Y-86500000D01*
X57503513Y-86208889D01*
X57418599Y-85928966D01*
X57280706Y-85670986D01*
X57095134Y-85444866D01*
X56869014Y-85259294D01*
X56611034Y-85121401D01*
X56331111Y-85036487D01*
X56112950Y-85015000D01*
X55967050Y-85015000D01*
X55748889Y-85036487D01*
X55468966Y-85121401D01*
X55210986Y-85259294D01*
X54984866Y-85444866D01*
X54960393Y-85474687D01*
X54939502Y-85405820D01*
X54880537Y-85295506D01*
X54801185Y-85198815D01*
X54704494Y-85119463D01*
X54594180Y-85060498D01*
X54474482Y-85024188D01*
X54350000Y-85011928D01*
X52650000Y-85011928D01*
X52525518Y-85024188D01*
X52405820Y-85060498D01*
X52295506Y-85119463D01*
X52198815Y-85198815D01*
X52119463Y-85295506D01*
X52060498Y-85405820D01*
X52024188Y-85525518D01*
X52011928Y-85650000D01*
X52011928Y-87350000D01*
X52024188Y-87474482D01*
X52060498Y-87594180D01*
X52119463Y-87704494D01*
X52198815Y-87801185D01*
X52295506Y-87880537D01*
X52405820Y-87939502D01*
X52474687Y-87960393D01*
X52444866Y-87984866D01*
X52259294Y-88210986D01*
X52121401Y-88468966D01*
X52036487Y-88748889D01*
X52007815Y-89040000D01*
X52036487Y-89331111D01*
X52121401Y-89611034D01*
X52259294Y-89869014D01*
X52444866Y-90095134D01*
X52670986Y-90280706D01*
X52725791Y-90310000D01*
X52670986Y-90339294D01*
X52444866Y-90524866D01*
X52259294Y-90750986D01*
X52121401Y-91008966D01*
X52036487Y-91288889D01*
X52007815Y-91580000D01*
X52036487Y-91871111D01*
X52059203Y-91945995D01*
X50714003Y-93291195D01*
X50685000Y-93314998D01*
X50636590Y-93373986D01*
X50590027Y-93430723D01*
X50532188Y-93538932D01*
X50519455Y-93562753D01*
X50475998Y-93706014D01*
X50465001Y-93817667D01*
X50465001Y-93817677D01*
X50461325Y-93854999D01*
X50465001Y-93892321D01*
X50465001Y-94072334D01*
X50301898Y-94004774D01*
X50101939Y-93965000D01*
X49898061Y-93965000D01*
X49698102Y-94004774D01*
X49685000Y-94010201D01*
X49685000Y-78920447D01*
X50259158Y-78920447D01*
X50403135Y-79225770D01*
X50760892Y-79406597D01*
X51147053Y-79514155D01*
X51546777Y-79544310D01*
X51944704Y-79495904D01*
X52325540Y-79370795D01*
X52596865Y-79225770D01*
X52740842Y-78920447D01*
X51500000Y-77679605D01*
X50259158Y-78920447D01*
X49685000Y-78920447D01*
X49685000Y-78429926D01*
X49774230Y-78596865D01*
X50079553Y-78740842D01*
X51320395Y-77500000D01*
X51679605Y-77500000D01*
X52920447Y-78740842D01*
X53225770Y-78596865D01*
X53406597Y-78239108D01*
X53514155Y-77852947D01*
X53544310Y-77453223D01*
X53495904Y-77055296D01*
X53370795Y-76674460D01*
X53225770Y-76403135D01*
X52920447Y-76259158D01*
X51679605Y-77500000D01*
X51320395Y-77500000D01*
X50079553Y-76259158D01*
X49774230Y-76403135D01*
X49685000Y-76579672D01*
X49685000Y-76079553D01*
X50259158Y-76079553D01*
X51500000Y-77320395D01*
X52740842Y-76079553D01*
X52596865Y-75774230D01*
X52239108Y-75593403D01*
X51852947Y-75485845D01*
X51453223Y-75455690D01*
X51055296Y-75504096D01*
X50674460Y-75629205D01*
X50403135Y-75774230D01*
X50259158Y-76079553D01*
X49685000Y-76079553D01*
X49685000Y-72800000D01*
X52061928Y-72800000D01*
X52074188Y-72924482D01*
X52110498Y-73044180D01*
X52169463Y-73154494D01*
X52248815Y-73251185D01*
X52345506Y-73330537D01*
X52455820Y-73389502D01*
X52575518Y-73425812D01*
X52700000Y-73438072D01*
X53214250Y-73435000D01*
X53373000Y-73276250D01*
X53373000Y-72127000D01*
X53627000Y-72127000D01*
X53627000Y-73276250D01*
X53785750Y-73435000D01*
X54300000Y-73438072D01*
X54424482Y-73425812D01*
X54544180Y-73389502D01*
X54654494Y-73330537D01*
X54751185Y-73251185D01*
X54830537Y-73154494D01*
X54889502Y-73044180D01*
X54925812Y-72924482D01*
X54938072Y-72800000D01*
X54935000Y-72285750D01*
X54776250Y-72127000D01*
X53627000Y-72127000D01*
X53373000Y-72127000D01*
X52223750Y-72127000D01*
X52065000Y-72285750D01*
X52061928Y-72800000D01*
X49685000Y-72800000D01*
X49685000Y-71200000D01*
X52061928Y-71200000D01*
X52065000Y-71714250D01*
X52223750Y-71873000D01*
X53373000Y-71873000D01*
X53373000Y-70723750D01*
X53627000Y-70723750D01*
X53627000Y-71873000D01*
X54776250Y-71873000D01*
X54935000Y-71714250D01*
X54938072Y-71200000D01*
X54925812Y-71075518D01*
X54889502Y-70955820D01*
X54830537Y-70845506D01*
X54751185Y-70748815D01*
X54654494Y-70669463D01*
X54544180Y-70610498D01*
X54424482Y-70574188D01*
X54300000Y-70561928D01*
X53785750Y-70565000D01*
X53627000Y-70723750D01*
X53373000Y-70723750D01*
X53214250Y-70565000D01*
X52700000Y-70561928D01*
X52575518Y-70574188D01*
X52455820Y-70610498D01*
X52345506Y-70669463D01*
X52248815Y-70748815D01*
X52169463Y-70845506D01*
X52110498Y-70955820D01*
X52074188Y-71075518D01*
X52061928Y-71200000D01*
X49685000Y-71200000D01*
X49685000Y-65685000D01*
X94315000Y-65685000D01*
X94315001Y-120005391D01*
X94315001Y-120005391D01*
G37*
X94315001Y-120005391D02*
X94240841Y-120079551D01*
X94096865Y-119774230D01*
X93739108Y-119593403D01*
X93352947Y-119485845D01*
X92953223Y-119455690D01*
X92555296Y-119504096D01*
X92174460Y-119629205D01*
X91903135Y-119774230D01*
X91759158Y-120079553D01*
X93000000Y-121320395D01*
X93014143Y-121306253D01*
X93193748Y-121485858D01*
X93179605Y-121500000D01*
X93193748Y-121514143D01*
X93014143Y-121693748D01*
X93000000Y-121679605D01*
X92985858Y-121693748D01*
X92806253Y-121514143D01*
X92820395Y-121500000D01*
X91579553Y-120259158D01*
X91274230Y-120403135D01*
X91093403Y-120760892D01*
X90985845Y-121147053D01*
X90959473Y-121496636D01*
X90800430Y-121465000D01*
X90399570Y-121465000D01*
X90006413Y-121543204D01*
X89636066Y-121696607D01*
X89302763Y-121919313D01*
X89019313Y-122202763D01*
X88796607Y-122536066D01*
X88643204Y-122906413D01*
X88565000Y-123299570D01*
X88565000Y-123700430D01*
X88643204Y-124093587D01*
X88796607Y-124463934D01*
X89019313Y-124797237D01*
X89302763Y-125080687D01*
X89636066Y-125303393D01*
X90006413Y-125456796D01*
X90399570Y-125535000D01*
X90800430Y-125535000D01*
X91193587Y-125456796D01*
X91563934Y-125303393D01*
X91897237Y-125080687D01*
X92180687Y-124797237D01*
X92403393Y-124463934D01*
X92556796Y-124093587D01*
X92635000Y-123700430D01*
X92635000Y-123510798D01*
X92647053Y-123514155D01*
X93046777Y-123544310D01*
X93444704Y-123495904D01*
X93825540Y-123370795D01*
X94096865Y-123225770D01*
X94240841Y-122920449D01*
X94315001Y-122994609D01*
X94315001Y-131005391D01*
X94240841Y-131079551D01*
X94096865Y-130774230D01*
X93739108Y-130593403D01*
X93352947Y-130485845D01*
X92953223Y-130455690D01*
X92555296Y-130504096D01*
X92174460Y-130629205D01*
X91903135Y-130774230D01*
X91759158Y-131079553D01*
X93000000Y-132320395D01*
X93014143Y-132306253D01*
X93193748Y-132485858D01*
X93179605Y-132500000D01*
X93193748Y-132514143D01*
X93014143Y-132693748D01*
X93000000Y-132679605D01*
X92985858Y-132693748D01*
X92806253Y-132514143D01*
X92820395Y-132500000D01*
X91579553Y-131259158D01*
X91274230Y-131403135D01*
X91093403Y-131760892D01*
X90985845Y-132147053D01*
X90959473Y-132496636D01*
X90800430Y-132465000D01*
X90399570Y-132465000D01*
X90006413Y-132543204D01*
X89636066Y-132696607D01*
X89302763Y-132919313D01*
X89019313Y-133202763D01*
X88796607Y-133536066D01*
X88643204Y-133906413D01*
X88565000Y-134299570D01*
X88565000Y-134700430D01*
X88643204Y-135093587D01*
X88796607Y-135463934D01*
X89019313Y-135797237D01*
X89302763Y-136080687D01*
X89636066Y-136303393D01*
X90006413Y-136456796D01*
X90399570Y-136535000D01*
X90800430Y-136535000D01*
X91193587Y-136456796D01*
X91563934Y-136303393D01*
X91897237Y-136080687D01*
X92180687Y-135797237D01*
X92403393Y-135463934D01*
X92556796Y-135093587D01*
X92635000Y-134700430D01*
X92635000Y-134510798D01*
X92647053Y-134514155D01*
X93046777Y-134544310D01*
X93444704Y-134495904D01*
X93825540Y-134370795D01*
X94096865Y-134225770D01*
X94240841Y-133920449D01*
X94315001Y-133994609D01*
X94315001Y-141505391D01*
X94240841Y-141579551D01*
X94096865Y-141274230D01*
X93739108Y-141093403D01*
X93352947Y-140985845D01*
X92953223Y-140955690D01*
X92555296Y-141004096D01*
X92174460Y-141129205D01*
X91903135Y-141274230D01*
X91759158Y-141579553D01*
X93000000Y-142820395D01*
X93014143Y-142806253D01*
X93193748Y-142985858D01*
X93179605Y-143000000D01*
X93193748Y-143014143D01*
X93014143Y-143193748D01*
X93000000Y-143179605D01*
X92985858Y-143193748D01*
X92806253Y-143014143D01*
X92820395Y-143000000D01*
X91579553Y-141759158D01*
X91274230Y-141903135D01*
X91093403Y-142260892D01*
X90985845Y-142647053D01*
X90959473Y-142996636D01*
X90800430Y-142965000D01*
X90399570Y-142965000D01*
X90006413Y-143043204D01*
X89636066Y-143196607D01*
X89302763Y-143419313D01*
X89019313Y-143702763D01*
X88796607Y-144036066D01*
X88643204Y-144406413D01*
X88565000Y-144799570D01*
X88565000Y-145200430D01*
X88643204Y-145593587D01*
X88796607Y-145963934D01*
X89019313Y-146297237D01*
X89302763Y-146580687D01*
X89636066Y-146803393D01*
X90006413Y-146956796D01*
X90399570Y-147035000D01*
X90800430Y-147035000D01*
X91193587Y-146956796D01*
X91563934Y-146803393D01*
X91897237Y-146580687D01*
X92180687Y-146297237D01*
X92403393Y-145963934D01*
X92556796Y-145593587D01*
X92635000Y-145200430D01*
X92635000Y-145010798D01*
X92647053Y-145014155D01*
X93046777Y-145044310D01*
X93444704Y-144995904D01*
X93825540Y-144870795D01*
X94096865Y-144725770D01*
X94240841Y-144420449D01*
X94315001Y-144494609D01*
X94315001Y-174315000D01*
X91643953Y-174315000D01*
X91861101Y-174198932D01*
X92079608Y-174019608D01*
X92258932Y-173801101D01*
X92392182Y-173551808D01*
X92474236Y-173281309D01*
X92501943Y-173000000D01*
X92474236Y-172718691D01*
X92392182Y-172448192D01*
X92258932Y-172198899D01*
X92079608Y-171980392D01*
X91861101Y-171801068D01*
X91611808Y-171667818D01*
X91341309Y-171585764D01*
X91130492Y-171565000D01*
X90989508Y-171565000D01*
X90778691Y-171585764D01*
X90508192Y-171667818D01*
X90258899Y-171801068D01*
X90040392Y-171980392D01*
X89861068Y-172198899D01*
X89790000Y-172331858D01*
X89718932Y-172198899D01*
X89539608Y-171980392D01*
X89321101Y-171801068D01*
X89071808Y-171667818D01*
X88801309Y-171585764D01*
X88590492Y-171565000D01*
X88449508Y-171565000D01*
X88238691Y-171585764D01*
X88194094Y-171599292D01*
X85484999Y-168890198D01*
X85484999Y-159109414D01*
X85698691Y-159174236D01*
X85909508Y-159195000D01*
X86006059Y-159195000D01*
X86004774Y-159198102D01*
X85965000Y-159398061D01*
X85965000Y-159601939D01*
X86004774Y-159801898D01*
X86082795Y-159990256D01*
X86196063Y-160159774D01*
X86340226Y-160303937D01*
X86509744Y-160417205D01*
X86698102Y-160495226D01*
X86898061Y-160535000D01*
X87101939Y-160535000D01*
X87301898Y-160495226D01*
X87490256Y-160417205D01*
X87659774Y-160303937D01*
X87803937Y-160159774D01*
X87917205Y-159990256D01*
X87995226Y-159801898D01*
X88035000Y-159601939D01*
X88035000Y-159398061D01*
X87995226Y-159198102D01*
X87946564Y-159080621D01*
X87968192Y-159092182D01*
X88238691Y-159174236D01*
X88449508Y-159195000D01*
X88590492Y-159195000D01*
X88801309Y-159174236D01*
X89071808Y-159092182D01*
X89321101Y-158958932D01*
X89539608Y-158779608D01*
X89718932Y-158561101D01*
X89790000Y-158428142D01*
X89861068Y-158561101D01*
X90040392Y-158779608D01*
X90258899Y-158958932D01*
X90508192Y-159092182D01*
X90778691Y-159174236D01*
X90989508Y-159195000D01*
X91130492Y-159195000D01*
X91341309Y-159174236D01*
X91611808Y-159092182D01*
X91861101Y-158958932D01*
X92079608Y-158779608D01*
X92258932Y-158561101D01*
X92392182Y-158311808D01*
X92474236Y-158041309D01*
X92501943Y-157760000D01*
X92474236Y-157478691D01*
X92392182Y-157208192D01*
X92258932Y-156958899D01*
X92079608Y-156740392D01*
X91861101Y-156561068D01*
X91611808Y-156427818D01*
X91341309Y-156345764D01*
X91130492Y-156325000D01*
X90989508Y-156325000D01*
X90778691Y-156345764D01*
X90508192Y-156427818D01*
X90258899Y-156561068D01*
X90040392Y-156740392D01*
X89861068Y-156958899D01*
X89790000Y-157091858D01*
X89718932Y-156958899D01*
X89539608Y-156740392D01*
X89321101Y-156561068D01*
X89071808Y-156427818D01*
X88801309Y-156345764D01*
X88590492Y-156325000D01*
X88449508Y-156325000D01*
X88260000Y-156343665D01*
X88260000Y-153431523D01*
X88518297Y-153538513D01*
X88827414Y-153600000D01*
X89142586Y-153600000D01*
X89451703Y-153538513D01*
X89742884Y-153417902D01*
X90004941Y-153242801D01*
X90227801Y-153019941D01*
X90402902Y-152757884D01*
X90523513Y-152466703D01*
X90585000Y-152157586D01*
X90585000Y-151842414D01*
X90523513Y-151533297D01*
X90402902Y-151242116D01*
X90227801Y-150980059D01*
X90004941Y-150757199D01*
X89742884Y-150582098D01*
X89451703Y-150461487D01*
X89142586Y-150400000D01*
X88827414Y-150400000D01*
X88518297Y-150461487D01*
X88260000Y-150568477D01*
X88260000Y-122814801D01*
X91736004Y-119338798D01*
X91765002Y-119315000D01*
X91829571Y-119236323D01*
X91859975Y-119199276D01*
X91930547Y-119067246D01*
X91949648Y-119004276D01*
X91974004Y-118923985D01*
X91985001Y-118812332D01*
X91985001Y-118812322D01*
X91988677Y-118774999D01*
X91985001Y-118737676D01*
X91985001Y-93262323D01*
X91988677Y-93225000D01*
X91985001Y-93187677D01*
X91985001Y-93187668D01*
X91974004Y-93076015D01*
X91930547Y-92932754D01*
X91901972Y-92879294D01*
X91859975Y-92800724D01*
X91788800Y-92713998D01*
X91765002Y-92685000D01*
X91736005Y-92661203D01*
X91483731Y-92408930D01*
X91535000Y-92151184D01*
X91535000Y-91848816D01*
X91476011Y-91552257D01*
X91360299Y-91272905D01*
X91192312Y-91021495D01*
X90978505Y-90807688D01*
X90892169Y-90750000D01*
X90978505Y-90692312D01*
X91192312Y-90478505D01*
X91360299Y-90227095D01*
X91476011Y-89947743D01*
X91535000Y-89651184D01*
X91535000Y-89348816D01*
X91476011Y-89052257D01*
X91360299Y-88772905D01*
X91192312Y-88521495D01*
X90978505Y-88307688D01*
X90727095Y-88139701D01*
X90447743Y-88023989D01*
X90151184Y-87965000D01*
X89848816Y-87965000D01*
X89552257Y-88023989D01*
X89432045Y-88073783D01*
X89522209Y-87856108D01*
X89635000Y-87289072D01*
X89635000Y-86710928D01*
X89522209Y-86143892D01*
X89300963Y-85609756D01*
X88979763Y-85129047D01*
X88570953Y-84720237D01*
X88090244Y-84399037D01*
X87556108Y-84177791D01*
X86989072Y-84065000D01*
X86410928Y-84065000D01*
X85843892Y-84177791D01*
X85309756Y-84399037D01*
X84829047Y-84720237D01*
X84420237Y-85129047D01*
X84099037Y-85609756D01*
X83877791Y-86143892D01*
X83765000Y-86710928D01*
X83765000Y-87289072D01*
X83877791Y-87856108D01*
X84099037Y-88390244D01*
X84420237Y-88870953D01*
X84829047Y-89279763D01*
X85309756Y-89600963D01*
X85843892Y-89822209D01*
X86410928Y-89935000D01*
X86989072Y-89935000D01*
X87556108Y-89822209D01*
X88090244Y-89600963D01*
X88465000Y-89350559D01*
X88465000Y-89651184D01*
X88523989Y-89947743D01*
X88639701Y-90227095D01*
X88807688Y-90478505D01*
X89021495Y-90692312D01*
X89107831Y-90750000D01*
X89021495Y-90807688D01*
X88807688Y-91021495D01*
X88639701Y-91272905D01*
X88523989Y-91552257D01*
X88465000Y-91848816D01*
X88465000Y-92151184D01*
X88523989Y-92447743D01*
X88639701Y-92727095D01*
X88807688Y-92978505D01*
X89021495Y-93192312D01*
X89164310Y-93287738D01*
X89115525Y-93435920D01*
X90000000Y-94320395D01*
X90014143Y-94306253D01*
X90193748Y-94485858D01*
X90179605Y-94500000D01*
X90193748Y-94514143D01*
X90014143Y-94693748D01*
X90000000Y-94679605D01*
X89985858Y-94693748D01*
X89806253Y-94514143D01*
X89820395Y-94500000D01*
X88935920Y-93615525D01*
X88681739Y-93699208D01*
X88550842Y-93971775D01*
X88475635Y-94264642D01*
X88459009Y-94566553D01*
X88471413Y-94653726D01*
X88090244Y-94399037D01*
X87556108Y-94177791D01*
X86989072Y-94065000D01*
X86410928Y-94065000D01*
X85843892Y-94177791D01*
X85309756Y-94399037D01*
X84829047Y-94720237D01*
X84420237Y-95129047D01*
X84099037Y-95609756D01*
X83877791Y-96143892D01*
X83765000Y-96710928D01*
X83765000Y-97289072D01*
X83877791Y-97856108D01*
X84099037Y-98390244D01*
X84420237Y-98870953D01*
X84829047Y-99279763D01*
X85309756Y-99600963D01*
X85843892Y-99822209D01*
X86410928Y-99935000D01*
X86989072Y-99935000D01*
X87556108Y-99822209D01*
X88090244Y-99600963D01*
X88570953Y-99279763D01*
X88979763Y-98870953D01*
X89300963Y-98390244D01*
X89522209Y-97856108D01*
X89635000Y-97289072D01*
X89635000Y-96710928D01*
X89522209Y-96143892D01*
X89434042Y-95931037D01*
X89471775Y-95949158D01*
X89764642Y-96024365D01*
X90066553Y-96040991D01*
X90365907Y-95998397D01*
X90465001Y-95963602D01*
X90465001Y-105031138D01*
X90447743Y-105023989D01*
X90151184Y-104965000D01*
X89848816Y-104965000D01*
X89552257Y-105023989D01*
X89432045Y-105073783D01*
X89522209Y-104856108D01*
X89635000Y-104289072D01*
X89635000Y-103710928D01*
X89522209Y-103143892D01*
X89300963Y-102609756D01*
X88979763Y-102129047D01*
X88570953Y-101720237D01*
X88090244Y-101399037D01*
X87556108Y-101177791D01*
X86989072Y-101065000D01*
X86410928Y-101065000D01*
X85843892Y-101177791D01*
X85309756Y-101399037D01*
X84829047Y-101720237D01*
X84420237Y-102129047D01*
X84099037Y-102609756D01*
X83877791Y-103143892D01*
X83765000Y-103710928D01*
X83765000Y-104289072D01*
X83877791Y-104856108D01*
X84099037Y-105390244D01*
X84420237Y-105870953D01*
X84829047Y-106279763D01*
X85309756Y-106600963D01*
X85843892Y-106822209D01*
X86410928Y-106935000D01*
X86989072Y-106935000D01*
X87556108Y-106822209D01*
X88090244Y-106600963D01*
X88465000Y-106350559D01*
X88465000Y-106651184D01*
X88523989Y-106947743D01*
X88639701Y-107227095D01*
X88807688Y-107478505D01*
X89021495Y-107692312D01*
X89107831Y-107750000D01*
X89021495Y-107807688D01*
X88807688Y-108021495D01*
X88639701Y-108272905D01*
X88523989Y-108552257D01*
X88465000Y-108848816D01*
X88465000Y-109151184D01*
X88523989Y-109447743D01*
X88639701Y-109727095D01*
X88807688Y-109978505D01*
X89021495Y-110192312D01*
X89164310Y-110287738D01*
X89115525Y-110435920D01*
X90000000Y-111320395D01*
X90014143Y-111306253D01*
X90193748Y-111485858D01*
X90179605Y-111500000D01*
X90193748Y-111514143D01*
X90014143Y-111693748D01*
X90000000Y-111679605D01*
X89985858Y-111693748D01*
X89806253Y-111514143D01*
X89820395Y-111500000D01*
X88935920Y-110615525D01*
X88681739Y-110699208D01*
X88550842Y-110971775D01*
X88475635Y-111264642D01*
X88459009Y-111566553D01*
X88471413Y-111653726D01*
X88090244Y-111399037D01*
X87556108Y-111177791D01*
X86989072Y-111065000D01*
X86410928Y-111065000D01*
X85843892Y-111177791D01*
X85309756Y-111399037D01*
X84829047Y-111720237D01*
X84420237Y-112129047D01*
X84099037Y-112609756D01*
X83877791Y-113143892D01*
X83765000Y-113710928D01*
X83765000Y-114289072D01*
X83877791Y-114856108D01*
X84099037Y-115390244D01*
X84420237Y-115870953D01*
X84829047Y-116279763D01*
X85309756Y-116600963D01*
X85843892Y-116822209D01*
X86410928Y-116935000D01*
X86989072Y-116935000D01*
X87556108Y-116822209D01*
X88090244Y-116600963D01*
X88570953Y-116279763D01*
X88979763Y-115870953D01*
X89300963Y-115390244D01*
X89522209Y-114856108D01*
X89635000Y-114289072D01*
X89635000Y-113710928D01*
X89522209Y-113143892D01*
X89434042Y-112931037D01*
X89471775Y-112949158D01*
X89764642Y-113024365D01*
X90066553Y-113040991D01*
X90365907Y-112998397D01*
X90465002Y-112963602D01*
X90465002Y-118460196D01*
X86989003Y-121936196D01*
X86959999Y-121959999D01*
X86930648Y-121995764D01*
X86865026Y-122075724D01*
X86839888Y-122122754D01*
X86794454Y-122207754D01*
X86759973Y-122321423D01*
X86680687Y-122202763D01*
X86397237Y-121919313D01*
X86063934Y-121696607D01*
X85693587Y-121543204D01*
X85300430Y-121465000D01*
X84899570Y-121465000D01*
X84506413Y-121543204D01*
X84136066Y-121696607D01*
X83802763Y-121919313D01*
X83760000Y-121962076D01*
X83760000Y-79210928D01*
X83765000Y-79210928D01*
X83765000Y-79789072D01*
X83877791Y-80356108D01*
X84099037Y-80890244D01*
X84420237Y-81370953D01*
X84829047Y-81779763D01*
X85309756Y-82100963D01*
X85843892Y-82322209D01*
X86410928Y-82435000D01*
X86989072Y-82435000D01*
X87556108Y-82322209D01*
X88090244Y-82100963D01*
X88570953Y-81779763D01*
X88979763Y-81370953D01*
X89300963Y-80890244D01*
X89522209Y-80356108D01*
X89635000Y-79789072D01*
X89635000Y-79210928D01*
X89522209Y-78643892D01*
X89434042Y-78431037D01*
X89471775Y-78449158D01*
X89764642Y-78524365D01*
X90066553Y-78540991D01*
X90365907Y-78498397D01*
X90651199Y-78398222D01*
X90800792Y-78318261D01*
X90884475Y-78064080D01*
X90000000Y-77179605D01*
X89985858Y-77193748D01*
X89806253Y-77014143D01*
X89820395Y-77000000D01*
X90179605Y-77000000D01*
X91064080Y-77884475D01*
X91318261Y-77800792D01*
X91449158Y-77528225D01*
X91524365Y-77235358D01*
X91540991Y-76933447D01*
X91498397Y-76634093D01*
X91398222Y-76348801D01*
X91318261Y-76199208D01*
X91064080Y-76115525D01*
X90179605Y-77000000D01*
X89820395Y-77000000D01*
X88935920Y-76115525D01*
X88681739Y-76199208D01*
X88550842Y-76471775D01*
X88475635Y-76764642D01*
X88459009Y-77066553D01*
X88471413Y-77153726D01*
X88090244Y-76899037D01*
X87556108Y-76677791D01*
X86989072Y-76565000D01*
X86410928Y-76565000D01*
X85843892Y-76677791D01*
X85309756Y-76899037D01*
X84829047Y-77220237D01*
X84420237Y-77629047D01*
X84099037Y-78109756D01*
X83877791Y-78643892D01*
X83765000Y-79210928D01*
X83760000Y-79210928D01*
X83760000Y-77814801D01*
X86314802Y-75260000D01*
X88661687Y-75260000D01*
X88807688Y-75478505D01*
X89021495Y-75692312D01*
X89164310Y-75787738D01*
X89115525Y-75935920D01*
X90000000Y-76820395D01*
X90884475Y-75935920D01*
X90835690Y-75787738D01*
X90978505Y-75692312D01*
X91192312Y-75478505D01*
X91360299Y-75227095D01*
X91476011Y-74947743D01*
X91535000Y-74651184D01*
X91535000Y-74348816D01*
X91476011Y-74052257D01*
X91360299Y-73772905D01*
X91192312Y-73521495D01*
X90978505Y-73307688D01*
X90892169Y-73250000D01*
X90978505Y-73192312D01*
X91192312Y-72978505D01*
X91360299Y-72727095D01*
X91476011Y-72447743D01*
X91535000Y-72151184D01*
X91535000Y-71848816D01*
X91476011Y-71552257D01*
X91360299Y-71272905D01*
X91192312Y-71021495D01*
X90978505Y-70807688D01*
X90727095Y-70639701D01*
X90447743Y-70523989D01*
X90151184Y-70465000D01*
X89848816Y-70465000D01*
X89552257Y-70523989D01*
X89432045Y-70573783D01*
X89522209Y-70356108D01*
X89635000Y-69789072D01*
X89635000Y-69210928D01*
X89522209Y-68643892D01*
X89300963Y-68109756D01*
X88979763Y-67629047D01*
X88570953Y-67220237D01*
X88090244Y-66899037D01*
X87556108Y-66677791D01*
X86989072Y-66565000D01*
X86410928Y-66565000D01*
X85843892Y-66677791D01*
X85309756Y-66899037D01*
X84829047Y-67220237D01*
X84420237Y-67629047D01*
X84099037Y-68109756D01*
X83877791Y-68643892D01*
X83765000Y-69210928D01*
X83765000Y-69789072D01*
X83877791Y-70356108D01*
X84099037Y-70890244D01*
X84420237Y-71370953D01*
X84829047Y-71779763D01*
X85309756Y-72100963D01*
X85843892Y-72322209D01*
X86410928Y-72435000D01*
X86989072Y-72435000D01*
X87556108Y-72322209D01*
X88090244Y-72100963D01*
X88465000Y-71850559D01*
X88465000Y-72151184D01*
X88523989Y-72447743D01*
X88639701Y-72727095D01*
X88807688Y-72978505D01*
X89021495Y-73192312D01*
X89107831Y-73250000D01*
X89021495Y-73307688D01*
X88807688Y-73521495D01*
X88661687Y-73740000D01*
X86037325Y-73740000D01*
X86000000Y-73736324D01*
X85962675Y-73740000D01*
X85962667Y-73740000D01*
X85851014Y-73750997D01*
X85707753Y-73794454D01*
X85575724Y-73865026D01*
X85459999Y-73959999D01*
X85436201Y-73988997D01*
X82489003Y-76936196D01*
X82459999Y-76959999D01*
X82404871Y-77027174D01*
X82365026Y-77075724D01*
X82326900Y-77147053D01*
X82294454Y-77207754D01*
X82250997Y-77351015D01*
X82240000Y-77462668D01*
X82240000Y-77462678D01*
X82236324Y-77500000D01*
X82240000Y-77537322D01*
X82240000Y-86772861D01*
X82114637Y-86585241D01*
X81914759Y-86385363D01*
X81679727Y-86228320D01*
X81418574Y-86120147D01*
X81141335Y-86065000D01*
X80858665Y-86065000D01*
X80581426Y-86120147D01*
X80320273Y-86228320D01*
X80085241Y-86385363D01*
X79885363Y-86585241D01*
X79728320Y-86820273D01*
X79620147Y-87081426D01*
X79565000Y-87358665D01*
X79565000Y-87641335D01*
X79620147Y-87918574D01*
X79728320Y-88179727D01*
X79885363Y-88414759D01*
X80085241Y-88614637D01*
X80240000Y-88718044D01*
X80240001Y-91119099D01*
X80198899Y-91141068D01*
X79980392Y-91320392D01*
X79801068Y-91538899D01*
X79667818Y-91788192D01*
X79585764Y-92058691D01*
X79558057Y-92340000D01*
X79585764Y-92621309D01*
X79667818Y-92891808D01*
X79801068Y-93141101D01*
X79980392Y-93359608D01*
X80198899Y-93538932D01*
X80448192Y-93672182D01*
X80718691Y-93754236D01*
X80929508Y-93775000D01*
X81070492Y-93775000D01*
X81281309Y-93754236D01*
X81551808Y-93672182D01*
X81801101Y-93538932D01*
X82019608Y-93359608D01*
X82198932Y-93141101D01*
X82240000Y-93064268D01*
X82240000Y-101772861D01*
X82114637Y-101585241D01*
X81914759Y-101385363D01*
X81679727Y-101228320D01*
X81418574Y-101120147D01*
X81141335Y-101065000D01*
X80858665Y-101065000D01*
X80581426Y-101120147D01*
X80320273Y-101228320D01*
X80085241Y-101385363D01*
X79885363Y-101585241D01*
X79728320Y-101820273D01*
X79620147Y-102081426D01*
X79565000Y-102358665D01*
X79565000Y-102641335D01*
X79620147Y-102918574D01*
X79728320Y-103179727D01*
X79885363Y-103414759D01*
X80085241Y-103614637D01*
X80320273Y-103771680D01*
X80581426Y-103879853D01*
X80858665Y-103935000D01*
X81141335Y-103935000D01*
X81418574Y-103879853D01*
X81679727Y-103771680D01*
X81914759Y-103614637D01*
X82114637Y-103414759D01*
X82240001Y-103227139D01*
X82240001Y-105772861D01*
X82114637Y-105585241D01*
X81914759Y-105385363D01*
X81679727Y-105228320D01*
X81418574Y-105120147D01*
X81141335Y-105065000D01*
X80858665Y-105065000D01*
X80581426Y-105120147D01*
X80320273Y-105228320D01*
X80085241Y-105385363D01*
X79885363Y-105585241D01*
X79728320Y-105820273D01*
X79620147Y-106081426D01*
X79565000Y-106358665D01*
X79565000Y-106641335D01*
X79620147Y-106918574D01*
X79728320Y-107179727D01*
X79885363Y-107414759D01*
X80085241Y-107614637D01*
X80320273Y-107771680D01*
X80581426Y-107879853D01*
X80858665Y-107935000D01*
X81141335Y-107935000D01*
X81418574Y-107879853D01*
X81679727Y-107771680D01*
X81914759Y-107614637D01*
X82114637Y-107414759D01*
X82240001Y-107227139D01*
X82240001Y-110764715D01*
X82236671Y-110758486D01*
X81992702Y-110686903D01*
X81179605Y-111500000D01*
X81992702Y-112313097D01*
X82236671Y-112241514D01*
X82240001Y-112234477D01*
X82240001Y-126962657D01*
X82240000Y-126962667D01*
X82240000Y-127185198D01*
X80988998Y-128436201D01*
X80960000Y-128459999D01*
X80936202Y-128488997D01*
X80936201Y-128488998D01*
X80865026Y-128575724D01*
X80794454Y-128707754D01*
X80768155Y-128794454D01*
X80754271Y-128840226D01*
X80750998Y-128851015D01*
X80736324Y-129000000D01*
X80740001Y-129037332D01*
X80740000Y-129962677D01*
X80736324Y-130000000D01*
X80740000Y-130037322D01*
X80740000Y-130037332D01*
X80750997Y-130148985D01*
X80781976Y-130251111D01*
X80794454Y-130292246D01*
X80865026Y-130424276D01*
X80897461Y-130463798D01*
X80959999Y-130540001D01*
X80989002Y-130563804D01*
X81740001Y-131314803D01*
X81740000Y-150469737D01*
X81467257Y-150523989D01*
X81187905Y-150639701D01*
X80936495Y-150807688D01*
X80870056Y-150874127D01*
X80864502Y-150855820D01*
X80805537Y-150745506D01*
X80726185Y-150648815D01*
X80629494Y-150569463D01*
X80519180Y-150510498D01*
X80399482Y-150474188D01*
X80275000Y-150461928D01*
X78475000Y-150461928D01*
X78350518Y-150474188D01*
X78230820Y-150510498D01*
X78120506Y-150569463D01*
X78023815Y-150648815D01*
X77944463Y-150745506D01*
X77885498Y-150855820D01*
X77849188Y-150975518D01*
X77836928Y-151100000D01*
X77836928Y-152900000D01*
X77849188Y-153024482D01*
X77885498Y-153144180D01*
X77944463Y-153254494D01*
X78023815Y-153351185D01*
X78120506Y-153430537D01*
X78230820Y-153489502D01*
X78350518Y-153525812D01*
X78475000Y-153538072D01*
X80275000Y-153538072D01*
X80399482Y-153525812D01*
X80519180Y-153489502D01*
X80629494Y-153430537D01*
X80726185Y-153351185D01*
X80805537Y-153254494D01*
X80864502Y-153144180D01*
X80870056Y-153125873D01*
X80936495Y-153192312D01*
X81187905Y-153360299D01*
X81467257Y-153476011D01*
X81763816Y-153535000D01*
X82066184Y-153535000D01*
X82362743Y-153476011D01*
X82642095Y-153360299D01*
X82680001Y-153334971D01*
X82680000Y-156539099D01*
X82638899Y-156561068D01*
X82420392Y-156740392D01*
X82241068Y-156958899D01*
X82170000Y-157091858D01*
X82098932Y-156958899D01*
X81919608Y-156740392D01*
X81701101Y-156561068D01*
X81451808Y-156427818D01*
X81181309Y-156345764D01*
X80970492Y-156325000D01*
X80829508Y-156325000D01*
X80618691Y-156345764D01*
X80348192Y-156427818D01*
X80098899Y-156561068D01*
X79880392Y-156740392D01*
X79701068Y-156958899D01*
X79630000Y-157091858D01*
X79558932Y-156958899D01*
X79379608Y-156740392D01*
X79161101Y-156561068D01*
X78911808Y-156427818D01*
X78641309Y-156345764D01*
X78430492Y-156325000D01*
X78289508Y-156325000D01*
X78078691Y-156345764D01*
X77808192Y-156427818D01*
X77558899Y-156561068D01*
X77340392Y-156740392D01*
X77161068Y-156958899D01*
X77090000Y-157091858D01*
X77018932Y-156958899D01*
X76839608Y-156740392D01*
X76621101Y-156561068D01*
X76371808Y-156427818D01*
X76101309Y-156345764D01*
X75890492Y-156325000D01*
X75749508Y-156325000D01*
X75538691Y-156345764D01*
X75268192Y-156427818D01*
X75260000Y-156432197D01*
X75260000Y-156203711D01*
X75303937Y-156159774D01*
X75417205Y-155990256D01*
X75495226Y-155801898D01*
X75535000Y-155601939D01*
X75535000Y-155398061D01*
X75495226Y-155198102D01*
X75417205Y-155009744D01*
X75303937Y-154840226D01*
X75159774Y-154696063D01*
X74990256Y-154582795D01*
X74801898Y-154504774D01*
X74601939Y-154465000D01*
X74398061Y-154465000D01*
X74198102Y-154504774D01*
X74009744Y-154582795D01*
X73840226Y-154696063D01*
X73696063Y-154840226D01*
X73582795Y-155009744D01*
X73504774Y-155198102D01*
X73465000Y-155398061D01*
X73465000Y-155601939D01*
X73504774Y-155801898D01*
X73582795Y-155990256D01*
X73696063Y-156159774D01*
X73740001Y-156203712D01*
X73740001Y-156399969D01*
X73561309Y-156345764D01*
X73350492Y-156325000D01*
X73209508Y-156325000D01*
X72998691Y-156345764D01*
X72728192Y-156427818D01*
X72625001Y-156482975D01*
X72625001Y-153035816D01*
X72695742Y-153110184D01*
X72883118Y-153242275D01*
X73092663Y-153335272D01*
X73154190Y-153343964D01*
X73333000Y-153218163D01*
X73333000Y-152127000D01*
X73313000Y-152127000D01*
X73313000Y-151873000D01*
X73333000Y-151873000D01*
X73333000Y-151718021D01*
X73570000Y-151718021D01*
X73570000Y-152281978D01*
X73586785Y-152452399D01*
X73587000Y-152453108D01*
X73587000Y-153218163D01*
X73765810Y-153343964D01*
X73827337Y-153335272D01*
X74036882Y-153242275D01*
X74095331Y-153201071D01*
X74283940Y-153301885D01*
X74502600Y-153368215D01*
X74730000Y-153390612D01*
X74957399Y-153368215D01*
X75166098Y-153304907D01*
X75230820Y-153339502D01*
X75350518Y-153375812D01*
X75475000Y-153388072D01*
X76525000Y-153388072D01*
X76649482Y-153375812D01*
X76769180Y-153339502D01*
X76879494Y-153280537D01*
X76976185Y-153201185D01*
X77055537Y-153104494D01*
X77114502Y-152994180D01*
X77150812Y-152874482D01*
X77163072Y-152750000D01*
X77163072Y-151250000D01*
X77150812Y-151125518D01*
X77114502Y-151005820D01*
X77055537Y-150895506D01*
X76976185Y-150798815D01*
X76879494Y-150719463D01*
X76769180Y-150660498D01*
X76649482Y-150624188D01*
X76525000Y-150611928D01*
X75475000Y-150611928D01*
X75350518Y-150624188D01*
X75230820Y-150660498D01*
X75166098Y-150695093D01*
X74957400Y-150631785D01*
X74730000Y-150609388D01*
X74502601Y-150631785D01*
X74283941Y-150698115D01*
X74095331Y-150798929D01*
X74036882Y-150757725D01*
X73827337Y-150664728D01*
X73765810Y-150656036D01*
X73587000Y-150781837D01*
X73587000Y-151546891D01*
X73586785Y-151547600D01*
X73570000Y-151718021D01*
X73333000Y-151718021D01*
X73333000Y-150781837D01*
X73154190Y-150656036D01*
X73092663Y-150664728D01*
X72883118Y-150757725D01*
X72695742Y-150889816D01*
X72625001Y-150964184D01*
X72625001Y-130053422D01*
X72696063Y-130159774D01*
X72840226Y-130303937D01*
X73009744Y-130417205D01*
X73198102Y-130495226D01*
X73398061Y-130535000D01*
X73601939Y-130535000D01*
X73801898Y-130495226D01*
X73990256Y-130417205D01*
X74159774Y-130303937D01*
X74303937Y-130159774D01*
X74417205Y-129990256D01*
X74495226Y-129801898D01*
X74535000Y-129601939D01*
X74535000Y-129398061D01*
X74495226Y-129198102D01*
X74417205Y-129009744D01*
X74303937Y-128840226D01*
X74260000Y-128796289D01*
X74260000Y-114223711D01*
X74340226Y-114303937D01*
X74509744Y-114417205D01*
X74698102Y-114495226D01*
X74898061Y-114535000D01*
X75101939Y-114535000D01*
X75114999Y-114532402D01*
X75115000Y-144810198D01*
X73960199Y-145965000D01*
X73898061Y-145965000D01*
X73698102Y-146004774D01*
X73509744Y-146082795D01*
X73340226Y-146196063D01*
X73196063Y-146340226D01*
X73082795Y-146509744D01*
X73004774Y-146698102D01*
X72965000Y-146898061D01*
X72965000Y-147101939D01*
X73004774Y-147301898D01*
X73082795Y-147490256D01*
X73196063Y-147659774D01*
X73340226Y-147803937D01*
X73509744Y-147917205D01*
X73698102Y-147995226D01*
X73898061Y-148035000D01*
X74101939Y-148035000D01*
X74301898Y-147995226D01*
X74490256Y-147917205D01*
X74659774Y-147803937D01*
X74803937Y-147659774D01*
X74917205Y-147490256D01*
X74995226Y-147301898D01*
X75035000Y-147101939D01*
X75035000Y-147039801D01*
X75709788Y-146365014D01*
X75620147Y-146581426D01*
X75565000Y-146858665D01*
X75565000Y-147141335D01*
X75620147Y-147418574D01*
X75728320Y-147679727D01*
X75885363Y-147914759D01*
X76085241Y-148114637D01*
X76320273Y-148271680D01*
X76581426Y-148379853D01*
X76858665Y-148435000D01*
X77141335Y-148435000D01*
X77418574Y-148379853D01*
X77679727Y-148271680D01*
X77914759Y-148114637D01*
X78114637Y-147914759D01*
X78271680Y-147679727D01*
X78379853Y-147418574D01*
X78435000Y-147141335D01*
X78435000Y-146858665D01*
X78379853Y-146581426D01*
X78271680Y-146320273D01*
X78114637Y-146085241D01*
X77914759Y-145885363D01*
X77679727Y-145728320D01*
X77418574Y-145620147D01*
X77141335Y-145565000D01*
X76858665Y-145565000D01*
X76581426Y-145620147D01*
X76365014Y-145709787D01*
X76386002Y-145688800D01*
X76415000Y-145665002D01*
X76480029Y-145585764D01*
X76509973Y-145549278D01*
X76580545Y-145417248D01*
X76624002Y-145273987D01*
X76634999Y-145162334D01*
X76634999Y-145162324D01*
X76638675Y-145125002D01*
X76634999Y-145087679D01*
X76634999Y-143890509D01*
X76858665Y-143935000D01*
X77141335Y-143935000D01*
X77418574Y-143879853D01*
X77679727Y-143771680D01*
X77914759Y-143614637D01*
X78114637Y-143414759D01*
X78271680Y-143179727D01*
X78379853Y-142918574D01*
X78435000Y-142641335D01*
X78435000Y-142358665D01*
X78379853Y-142081426D01*
X78271680Y-141820273D01*
X78114637Y-141585241D01*
X77914759Y-141385363D01*
X77679727Y-141228320D01*
X77418574Y-141120147D01*
X77141335Y-141065000D01*
X76858665Y-141065000D01*
X76634999Y-141109491D01*
X76634999Y-138390509D01*
X76858665Y-138435000D01*
X77141335Y-138435000D01*
X77418574Y-138379853D01*
X77679727Y-138271680D01*
X77914759Y-138114637D01*
X78114637Y-137914759D01*
X78271680Y-137679727D01*
X78379853Y-137418574D01*
X78435000Y-137141335D01*
X78435000Y-136858665D01*
X78379853Y-136581426D01*
X78271680Y-136320273D01*
X78114637Y-136085241D01*
X77914759Y-135885363D01*
X77679727Y-135728320D01*
X77418574Y-135620147D01*
X77141335Y-135565000D01*
X76858665Y-135565000D01*
X76634999Y-135609491D01*
X76634999Y-132887902D01*
X76788184Y-132926300D01*
X77070512Y-132940217D01*
X77350130Y-132898787D01*
X77616292Y-132803603D01*
X77741514Y-132736671D01*
X77813097Y-132492702D01*
X77000000Y-131679605D01*
X76985858Y-131693748D01*
X76806253Y-131514143D01*
X76820395Y-131500000D01*
X77179605Y-131500000D01*
X77992702Y-132313097D01*
X78236671Y-132241514D01*
X78357571Y-131986004D01*
X78426300Y-131711816D01*
X78440217Y-131429488D01*
X78398787Y-131149870D01*
X78303603Y-130883708D01*
X78236671Y-130758486D01*
X77992702Y-130686903D01*
X77179605Y-131500000D01*
X76820395Y-131500000D01*
X76806253Y-131485858D01*
X76985858Y-131306253D01*
X77000000Y-131320395D01*
X77813097Y-130507298D01*
X77741514Y-130263329D01*
X77486004Y-130142429D01*
X77211816Y-130073700D01*
X76929488Y-130059783D01*
X76649870Y-130101213D01*
X76634999Y-130106531D01*
X76634999Y-127840314D01*
X76878691Y-127914236D01*
X77089508Y-127935000D01*
X77230492Y-127935000D01*
X77441309Y-127914236D01*
X77711808Y-127832182D01*
X77961101Y-127698932D01*
X78179608Y-127519608D01*
X78358932Y-127301101D01*
X78492182Y-127051808D01*
X78574236Y-126781309D01*
X78601943Y-126500000D01*
X78574236Y-126218691D01*
X78492182Y-125948192D01*
X78358932Y-125698899D01*
X78179608Y-125480392D01*
X77961101Y-125301068D01*
X77711808Y-125167818D01*
X77441309Y-125085764D01*
X77230492Y-125065000D01*
X77089508Y-125065000D01*
X76878691Y-125085764D01*
X76634999Y-125159686D01*
X76634999Y-122154616D01*
X76764869Y-122272385D01*
X77006119Y-122417070D01*
X77270960Y-122511909D01*
X77493000Y-122390624D01*
X77493000Y-121247000D01*
X77747000Y-121247000D01*
X77747000Y-122390624D01*
X77969040Y-122511909D01*
X78233881Y-122417070D01*
X78475131Y-122272385D01*
X78683519Y-122083414D01*
X78851037Y-121857420D01*
X78971246Y-121603087D01*
X79011904Y-121469039D01*
X78889915Y-121247000D01*
X77747000Y-121247000D01*
X77493000Y-121247000D01*
X77473000Y-121247000D01*
X77473000Y-120993000D01*
X77493000Y-120993000D01*
X77493000Y-120973000D01*
X77747000Y-120973000D01*
X77747000Y-120993000D01*
X78889915Y-120993000D01*
X79011904Y-120770961D01*
X78971246Y-120636913D01*
X78851037Y-120382580D01*
X78683519Y-120156586D01*
X78475131Y-119967615D01*
X78283318Y-119852579D01*
X78421101Y-119778932D01*
X78639608Y-119599608D01*
X78818932Y-119381101D01*
X78952182Y-119131808D01*
X79034236Y-118861309D01*
X79061943Y-118580000D01*
X79034236Y-118298691D01*
X78952182Y-118028192D01*
X78818932Y-117778899D01*
X78639608Y-117560392D01*
X78421101Y-117381068D01*
X78380000Y-117359099D01*
X78380000Y-117260901D01*
X78421101Y-117238932D01*
X78639608Y-117059608D01*
X78818932Y-116841101D01*
X78952182Y-116591808D01*
X79034236Y-116321309D01*
X79061943Y-116040000D01*
X79034236Y-115758691D01*
X78952182Y-115488192D01*
X78818932Y-115238899D01*
X78639608Y-115020392D01*
X78421101Y-114841068D01*
X78288142Y-114770000D01*
X78421101Y-114698932D01*
X78639608Y-114519608D01*
X78818932Y-114301101D01*
X78952182Y-114051808D01*
X79034236Y-113781309D01*
X79061943Y-113500000D01*
X79034236Y-113218691D01*
X78952182Y-112948192D01*
X78818932Y-112698899D01*
X78649711Y-112492702D01*
X80186903Y-112492702D01*
X80258486Y-112736671D01*
X80513996Y-112857571D01*
X80788184Y-112926300D01*
X81070512Y-112940217D01*
X81350130Y-112898787D01*
X81616292Y-112803603D01*
X81741514Y-112736671D01*
X81813097Y-112492702D01*
X81000000Y-111679605D01*
X80186903Y-112492702D01*
X78649711Y-112492702D01*
X78639608Y-112480392D01*
X78421101Y-112301068D01*
X78171808Y-112167818D01*
X77901309Y-112085764D01*
X77856348Y-112081336D01*
X77917205Y-111990256D01*
X77995226Y-111801898D01*
X78035000Y-111601939D01*
X78035000Y-111570512D01*
X79559783Y-111570512D01*
X79601213Y-111850130D01*
X79696397Y-112116292D01*
X79763329Y-112241514D01*
X80007298Y-112313097D01*
X80820395Y-111500000D01*
X80007298Y-110686903D01*
X79763329Y-110758486D01*
X79642429Y-111013996D01*
X79573700Y-111288184D01*
X79559783Y-111570512D01*
X78035000Y-111570512D01*
X78035000Y-111398061D01*
X77995226Y-111198102D01*
X77917205Y-111009744D01*
X77803937Y-110840226D01*
X77659774Y-110696063D01*
X77490256Y-110582795D01*
X77307992Y-110507298D01*
X80186903Y-110507298D01*
X81000000Y-111320395D01*
X81813097Y-110507298D01*
X81741514Y-110263329D01*
X81486004Y-110142429D01*
X81211816Y-110073700D01*
X80929488Y-110059783D01*
X80649870Y-110101213D01*
X80383708Y-110196397D01*
X80258486Y-110263329D01*
X80186903Y-110507298D01*
X77307992Y-110507298D01*
X77301898Y-110504774D01*
X77101939Y-110465000D01*
X76898061Y-110465000D01*
X76698102Y-110504774D01*
X76509744Y-110582795D01*
X76340226Y-110696063D01*
X76196063Y-110840226D01*
X76082795Y-111009744D01*
X76004774Y-111198102D01*
X75965000Y-111398061D01*
X75965000Y-111460198D01*
X75760000Y-111665199D01*
X75760000Y-107828239D01*
X75827818Y-108051808D01*
X75961068Y-108301101D01*
X76140392Y-108519608D01*
X76358899Y-108698932D01*
X76608192Y-108832182D01*
X76878691Y-108914236D01*
X77089508Y-108935000D01*
X77230492Y-108935000D01*
X77441309Y-108914236D01*
X77711808Y-108832182D01*
X77961101Y-108698932D01*
X78179608Y-108519608D01*
X78358932Y-108301101D01*
X78492182Y-108051808D01*
X78574236Y-107781309D01*
X78601943Y-107500000D01*
X78574236Y-107218691D01*
X78492182Y-106948192D01*
X78358932Y-106698899D01*
X78179608Y-106480392D01*
X77961101Y-106301068D01*
X77711808Y-106167818D01*
X77441309Y-106085764D01*
X77230492Y-106065000D01*
X77089508Y-106065000D01*
X76878691Y-106085764D01*
X76834093Y-106099292D01*
X76754999Y-106020198D01*
X76754999Y-104008849D01*
X76838691Y-104034236D01*
X77049508Y-104055000D01*
X77190492Y-104055000D01*
X77401309Y-104034236D01*
X77671808Y-103952182D01*
X77921101Y-103818932D01*
X78139608Y-103639608D01*
X78318932Y-103421101D01*
X78452182Y-103171808D01*
X78534236Y-102901309D01*
X78561943Y-102620000D01*
X78534236Y-102338691D01*
X78452182Y-102068192D01*
X78318932Y-101818899D01*
X78139608Y-101600392D01*
X77921101Y-101421068D01*
X77788142Y-101350000D01*
X77921101Y-101278932D01*
X78139608Y-101099608D01*
X78318932Y-100881101D01*
X78452182Y-100631808D01*
X78534236Y-100361309D01*
X78561943Y-100080000D01*
X78534236Y-99798691D01*
X78452182Y-99528192D01*
X78318932Y-99278899D01*
X78139608Y-99060392D01*
X77921101Y-98881068D01*
X77880000Y-98859099D01*
X77880000Y-98760901D01*
X77921101Y-98738932D01*
X78139608Y-98559608D01*
X78318932Y-98341101D01*
X78452182Y-98091808D01*
X78534236Y-97821309D01*
X78561943Y-97540000D01*
X78534236Y-97258691D01*
X78452182Y-96988192D01*
X78318932Y-96738899D01*
X78139608Y-96520392D01*
X77921101Y-96341068D01*
X77788142Y-96270000D01*
X77921101Y-96198932D01*
X78139608Y-96019608D01*
X78318932Y-95801101D01*
X78452182Y-95551808D01*
X78534236Y-95281309D01*
X78561943Y-95000000D01*
X78534236Y-94718691D01*
X78452182Y-94448192D01*
X78318932Y-94198899D01*
X78139608Y-93980392D01*
X77921101Y-93801068D01*
X77671808Y-93667818D01*
X77401309Y-93585764D01*
X77190492Y-93565000D01*
X77049508Y-93565000D01*
X76838691Y-93585764D01*
X76568192Y-93667818D01*
X76318899Y-93801068D01*
X76100392Y-93980392D01*
X75921068Y-94198899D01*
X75827043Y-94374807D01*
X75803937Y-94340226D01*
X75760000Y-94296289D01*
X75760000Y-91727140D01*
X75885363Y-91914759D01*
X76085241Y-92114637D01*
X76320273Y-92271680D01*
X76581426Y-92379853D01*
X76858665Y-92435000D01*
X77141335Y-92435000D01*
X77418574Y-92379853D01*
X77679727Y-92271680D01*
X77914759Y-92114637D01*
X78114637Y-91914759D01*
X78271680Y-91679727D01*
X78379853Y-91418574D01*
X78435000Y-91141335D01*
X78435000Y-90858665D01*
X78379853Y-90581426D01*
X78271680Y-90320273D01*
X78114637Y-90085241D01*
X77914759Y-89885363D01*
X77679727Y-89728320D01*
X77418574Y-89620147D01*
X77141335Y-89565000D01*
X76858665Y-89565000D01*
X76581426Y-89620147D01*
X76320273Y-89728320D01*
X76085241Y-89885363D01*
X75885363Y-90085241D01*
X75760000Y-90272860D01*
X75760000Y-84718043D01*
X75914759Y-84614637D01*
X76036694Y-84492702D01*
X79186903Y-84492702D01*
X79258486Y-84736671D01*
X79513996Y-84857571D01*
X79788184Y-84926300D01*
X80070512Y-84940217D01*
X80350130Y-84898787D01*
X80616292Y-84803603D01*
X80741514Y-84736671D01*
X80813097Y-84492702D01*
X80000000Y-83679605D01*
X79186903Y-84492702D01*
X76036694Y-84492702D01*
X76114637Y-84414759D01*
X76271680Y-84179727D01*
X76379853Y-83918574D01*
X76435000Y-83641335D01*
X76435000Y-83570512D01*
X78559783Y-83570512D01*
X78601213Y-83850130D01*
X78696397Y-84116292D01*
X78763329Y-84241514D01*
X79007298Y-84313097D01*
X79820395Y-83500000D01*
X80179605Y-83500000D01*
X80992702Y-84313097D01*
X81236671Y-84241514D01*
X81357571Y-83986004D01*
X81426300Y-83711816D01*
X81440217Y-83429488D01*
X81398787Y-83149870D01*
X81303603Y-82883708D01*
X81236671Y-82758486D01*
X80992702Y-82686903D01*
X80179605Y-83500000D01*
X79820395Y-83500000D01*
X79007298Y-82686903D01*
X78763329Y-82758486D01*
X78642429Y-83013996D01*
X78573700Y-83288184D01*
X78559783Y-83570512D01*
X76435000Y-83570512D01*
X76435000Y-83358665D01*
X76379853Y-83081426D01*
X76271680Y-82820273D01*
X76114637Y-82585241D01*
X76036694Y-82507298D01*
X79186903Y-82507298D01*
X80000000Y-83320395D01*
X80813097Y-82507298D01*
X80741514Y-82263329D01*
X80486004Y-82142429D01*
X80211816Y-82073700D01*
X79929488Y-82059783D01*
X79649870Y-82101213D01*
X79383708Y-82196397D01*
X79258486Y-82263329D01*
X79186903Y-82507298D01*
X76036694Y-82507298D01*
X75914759Y-82385363D01*
X75760000Y-82281957D01*
X75760000Y-80314801D01*
X76511003Y-79563799D01*
X76540001Y-79540001D01*
X76634974Y-79424276D01*
X76705546Y-79292247D01*
X76749003Y-79148986D01*
X76760000Y-79037333D01*
X76763677Y-79000000D01*
X76760000Y-78962667D01*
X76760000Y-73438072D01*
X76800000Y-73438072D01*
X76924482Y-73425812D01*
X77044180Y-73389502D01*
X77154494Y-73330537D01*
X77251185Y-73251185D01*
X77330537Y-73154494D01*
X77389502Y-73044180D01*
X77405117Y-72992702D01*
X78686903Y-72992702D01*
X78758486Y-73236671D01*
X79013996Y-73357571D01*
X79288184Y-73426300D01*
X79570512Y-73440217D01*
X79850130Y-73398787D01*
X80116292Y-73303603D01*
X80241514Y-73236671D01*
X80313097Y-72992702D01*
X79500000Y-72179605D01*
X78686903Y-72992702D01*
X77405117Y-72992702D01*
X77425812Y-72924482D01*
X77438072Y-72800000D01*
X77438072Y-72070512D01*
X78059783Y-72070512D01*
X78101213Y-72350130D01*
X78196397Y-72616292D01*
X78263329Y-72741514D01*
X78507298Y-72813097D01*
X79320395Y-72000000D01*
X79679605Y-72000000D01*
X80492702Y-72813097D01*
X80736671Y-72741514D01*
X80857571Y-72486004D01*
X80926300Y-72211816D01*
X80940217Y-71929488D01*
X80898787Y-71649870D01*
X80803603Y-71383708D01*
X80736671Y-71258486D01*
X80492702Y-71186903D01*
X79679605Y-72000000D01*
X79320395Y-72000000D01*
X78507298Y-71186903D01*
X78263329Y-71258486D01*
X78142429Y-71513996D01*
X78073700Y-71788184D01*
X78059783Y-72070512D01*
X77438072Y-72070512D01*
X77438072Y-71200000D01*
X77425812Y-71075518D01*
X77405118Y-71007298D01*
X78686903Y-71007298D01*
X79500000Y-71820395D01*
X80313097Y-71007298D01*
X80241514Y-70763329D01*
X79986004Y-70642429D01*
X79711816Y-70573700D01*
X79429488Y-70559783D01*
X79149870Y-70601213D01*
X78883708Y-70696397D01*
X78758486Y-70763329D01*
X78686903Y-71007298D01*
X77405118Y-71007298D01*
X77389502Y-70955820D01*
X77330537Y-70845506D01*
X77251185Y-70748815D01*
X77154494Y-70669463D01*
X77044180Y-70610498D01*
X76924482Y-70574188D01*
X76800000Y-70561928D01*
X75200000Y-70561928D01*
X75075518Y-70574188D01*
X74955820Y-70610498D01*
X74845506Y-70669463D01*
X74748815Y-70748815D01*
X74669463Y-70845506D01*
X74610498Y-70955820D01*
X74574188Y-71075518D01*
X74561928Y-71200000D01*
X74561928Y-72800000D01*
X74574188Y-72924482D01*
X74610498Y-73044180D01*
X74669463Y-73154494D01*
X74748815Y-73251185D01*
X74845506Y-73330537D01*
X74955820Y-73389502D01*
X75075518Y-73425812D01*
X75200000Y-73438072D01*
X75240000Y-73438072D01*
X75240001Y-78685197D01*
X74489002Y-79436196D01*
X74459999Y-79459999D01*
X74415555Y-79514155D01*
X74365026Y-79575724D01*
X74333356Y-79634974D01*
X74294454Y-79707754D01*
X74250997Y-79851015D01*
X74240000Y-79962668D01*
X74240000Y-79962678D01*
X74236324Y-80000000D01*
X74240000Y-80037322D01*
X74240000Y-82281956D01*
X74085241Y-82385363D01*
X73885363Y-82585241D01*
X73728320Y-82820273D01*
X73620147Y-83081426D01*
X73565000Y-83358665D01*
X73565000Y-83641335D01*
X73620147Y-83918574D01*
X73728320Y-84179727D01*
X73885363Y-84414759D01*
X74085241Y-84614637D01*
X74240000Y-84718044D01*
X74240001Y-88821337D01*
X74205546Y-88707753D01*
X74134974Y-88575724D01*
X74040001Y-88459999D01*
X74011004Y-88436202D01*
X72563804Y-86989003D01*
X72540001Y-86959999D01*
X72424276Y-86865026D01*
X72292247Y-86794454D01*
X72148986Y-86750997D01*
X72062211Y-86742450D01*
X72038932Y-86698899D01*
X71859608Y-86480392D01*
X71641101Y-86301068D01*
X71391808Y-86167818D01*
X71121309Y-86085764D01*
X70910492Y-86065000D01*
X70769508Y-86065000D01*
X70558691Y-86085764D01*
X70288192Y-86167818D01*
X70038899Y-86301068D01*
X69820392Y-86480392D01*
X69641068Y-86698899D01*
X69507818Y-86948192D01*
X69425764Y-87218691D01*
X69398057Y-87500000D01*
X69425764Y-87781309D01*
X69507818Y-88051808D01*
X69641068Y-88301101D01*
X69820392Y-88519608D01*
X70038899Y-88698932D01*
X70288192Y-88832182D01*
X70558691Y-88914236D01*
X70769508Y-88935000D01*
X70910492Y-88935000D01*
X71121309Y-88914236D01*
X71391808Y-88832182D01*
X71641101Y-88698932D01*
X71859608Y-88519608D01*
X71898012Y-88472813D01*
X72740000Y-89314802D01*
X72740000Y-89768593D01*
X72679727Y-89728320D01*
X72418574Y-89620147D01*
X72141335Y-89565000D01*
X71858665Y-89565000D01*
X71581426Y-89620147D01*
X71320273Y-89728320D01*
X71085241Y-89885363D01*
X70885363Y-90085241D01*
X70728320Y-90320273D01*
X70620147Y-90581426D01*
X70565000Y-90858665D01*
X70565000Y-91141335D01*
X70620147Y-91418574D01*
X70728320Y-91679727D01*
X70885363Y-91914759D01*
X71085241Y-92114637D01*
X71320273Y-92271680D01*
X71581426Y-92379853D01*
X71858665Y-92435000D01*
X72141335Y-92435000D01*
X72418574Y-92379853D01*
X72679727Y-92271680D01*
X72740000Y-92231407D01*
X72740000Y-94165198D01*
X68278805Y-89704004D01*
X68255002Y-89675000D01*
X68139277Y-89580027D01*
X68007248Y-89509455D01*
X67863987Y-89465998D01*
X67752334Y-89455001D01*
X67752323Y-89455001D01*
X67715001Y-89451325D01*
X67677679Y-89455001D01*
X67603714Y-89455001D01*
X67559777Y-89411064D01*
X67390259Y-89297796D01*
X67201901Y-89219775D01*
X67001942Y-89180001D01*
X66798064Y-89180001D01*
X66598105Y-89219775D01*
X66409747Y-89297796D01*
X66260000Y-89397853D01*
X66260000Y-87992702D01*
X66686903Y-87992702D01*
X66758486Y-88236671D01*
X67013996Y-88357571D01*
X67288184Y-88426300D01*
X67570512Y-88440217D01*
X67850130Y-88398787D01*
X68116292Y-88303603D01*
X68241514Y-88236671D01*
X68313097Y-87992702D01*
X67500000Y-87179605D01*
X66686903Y-87992702D01*
X66260000Y-87992702D01*
X66260000Y-87735286D01*
X66263329Y-87741514D01*
X66507298Y-87813097D01*
X67320395Y-87000000D01*
X67679605Y-87000000D01*
X68492702Y-87813097D01*
X68736671Y-87741514D01*
X68857571Y-87486004D01*
X68926300Y-87211816D01*
X68940217Y-86929488D01*
X68898787Y-86649870D01*
X68803603Y-86383708D01*
X68736671Y-86258486D01*
X68492702Y-86186903D01*
X67679605Y-87000000D01*
X67320395Y-87000000D01*
X66507298Y-86186903D01*
X66263329Y-86258486D01*
X66142429Y-86513996D01*
X66073700Y-86788184D01*
X66063801Y-86988999D01*
X66040001Y-86959999D01*
X66011003Y-86936201D01*
X65082100Y-86007298D01*
X66686903Y-86007298D01*
X67500000Y-86820395D01*
X68313097Y-86007298D01*
X68241514Y-85763329D01*
X67986004Y-85642429D01*
X67711816Y-85573700D01*
X67429488Y-85559783D01*
X67149870Y-85601213D01*
X66883708Y-85696397D01*
X66758486Y-85763329D01*
X66686903Y-86007298D01*
X65082100Y-86007298D01*
X58760000Y-79685199D01*
X58760000Y-73037333D01*
X58763677Y-73000000D01*
X58749003Y-72851014D01*
X58705546Y-72707753D01*
X58634974Y-72575724D01*
X58563799Y-72488997D01*
X58540001Y-72459999D01*
X58511003Y-72436201D01*
X58398688Y-72323886D01*
X58435000Y-72141335D01*
X58435000Y-71858665D01*
X58379853Y-71581426D01*
X58271680Y-71320273D01*
X58191317Y-71200000D01*
X63561928Y-71200000D01*
X63561928Y-72800000D01*
X63574188Y-72924482D01*
X63610498Y-73044180D01*
X63669463Y-73154494D01*
X63748815Y-73251185D01*
X63845506Y-73330537D01*
X63955820Y-73389502D01*
X64075518Y-73425812D01*
X64200000Y-73438072D01*
X65800000Y-73438072D01*
X65924482Y-73425812D01*
X66044180Y-73389502D01*
X66154494Y-73330537D01*
X66251185Y-73251185D01*
X66330537Y-73154494D01*
X66389502Y-73044180D01*
X66405117Y-72992702D01*
X67686903Y-72992702D01*
X67758486Y-73236671D01*
X68013996Y-73357571D01*
X68288184Y-73426300D01*
X68570512Y-73440217D01*
X68850130Y-73398787D01*
X69116292Y-73303603D01*
X69241514Y-73236671D01*
X69313097Y-72992702D01*
X68500000Y-72179605D01*
X67686903Y-72992702D01*
X66405117Y-72992702D01*
X66425812Y-72924482D01*
X66438072Y-72800000D01*
X66438072Y-72070512D01*
X67059783Y-72070512D01*
X67101213Y-72350130D01*
X67196397Y-72616292D01*
X67263329Y-72741514D01*
X67507298Y-72813097D01*
X68320395Y-72000000D01*
X68679605Y-72000000D01*
X69492702Y-72813097D01*
X69736671Y-72741514D01*
X69857571Y-72486004D01*
X69926300Y-72211816D01*
X69940217Y-71929488D01*
X69898787Y-71649870D01*
X69803603Y-71383708D01*
X69736671Y-71258486D01*
X69492702Y-71186903D01*
X68679605Y-72000000D01*
X68320395Y-72000000D01*
X67507298Y-71186903D01*
X67263329Y-71258486D01*
X67142429Y-71513996D01*
X67073700Y-71788184D01*
X67059783Y-72070512D01*
X66438072Y-72070512D01*
X66438072Y-71200000D01*
X66425812Y-71075518D01*
X66405118Y-71007298D01*
X67686903Y-71007298D01*
X68500000Y-71820395D01*
X69313097Y-71007298D01*
X69241514Y-70763329D01*
X68986004Y-70642429D01*
X68711816Y-70573700D01*
X68429488Y-70559783D01*
X68149870Y-70601213D01*
X67883708Y-70696397D01*
X67758486Y-70763329D01*
X67686903Y-71007298D01*
X66405118Y-71007298D01*
X66389502Y-70955820D01*
X66330537Y-70845506D01*
X66251185Y-70748815D01*
X66154494Y-70669463D01*
X66044180Y-70610498D01*
X65924482Y-70574188D01*
X65800000Y-70561928D01*
X64200000Y-70561928D01*
X64075518Y-70574188D01*
X63955820Y-70610498D01*
X63845506Y-70669463D01*
X63748815Y-70748815D01*
X63669463Y-70845506D01*
X63610498Y-70955820D01*
X63574188Y-71075518D01*
X63561928Y-71200000D01*
X58191317Y-71200000D01*
X58114637Y-71085241D01*
X57914759Y-70885363D01*
X57679727Y-70728320D01*
X57418574Y-70620147D01*
X57141335Y-70565000D01*
X56858665Y-70565000D01*
X56581426Y-70620147D01*
X56320273Y-70728320D01*
X56085241Y-70885363D01*
X55885363Y-71085241D01*
X55728320Y-71320273D01*
X55620147Y-71581426D01*
X55565000Y-71858665D01*
X55565000Y-72141335D01*
X55620147Y-72418574D01*
X55728320Y-72679727D01*
X55885363Y-72914759D01*
X56085241Y-73114637D01*
X56320273Y-73271680D01*
X56581426Y-73379853D01*
X56858665Y-73435000D01*
X57141335Y-73435000D01*
X57240001Y-73415374D01*
X57240000Y-79962677D01*
X57236324Y-80000000D01*
X57240000Y-80037322D01*
X57240000Y-80037332D01*
X57250997Y-80148985D01*
X57294454Y-80292246D01*
X57365026Y-80424276D01*
X57404871Y-80472826D01*
X57459999Y-80540001D01*
X57489003Y-80563804D01*
X64740000Y-87814802D01*
X64740001Y-91296288D01*
X64696063Y-91340226D01*
X64582795Y-91509744D01*
X64504774Y-91698102D01*
X64465000Y-91898061D01*
X64465000Y-92101939D01*
X64504774Y-92301898D01*
X64582795Y-92490256D01*
X64696063Y-92659774D01*
X64740000Y-92703711D01*
X64740001Y-95462667D01*
X64736324Y-95500000D01*
X64740001Y-95537333D01*
X64750998Y-95648986D01*
X64764180Y-95692442D01*
X64794454Y-95792246D01*
X64865026Y-95924276D01*
X64919175Y-95990256D01*
X64960000Y-96040001D01*
X64988998Y-96063799D01*
X66740001Y-97814803D01*
X66740000Y-101714047D01*
X66736324Y-101751370D01*
X66740000Y-101788692D01*
X66740000Y-101788702D01*
X66750997Y-101900355D01*
X66794454Y-102043616D01*
X66865026Y-102175646D01*
X66881503Y-102195723D01*
X66959999Y-102291371D01*
X66989002Y-102315173D01*
X67804830Y-103131002D01*
X67828629Y-103160001D01*
X67944354Y-103254974D01*
X68076383Y-103325546D01*
X68219644Y-103369003D01*
X68276198Y-103374573D01*
X68301068Y-103421101D01*
X68480392Y-103639608D01*
X68698899Y-103818932D01*
X68948192Y-103952182D01*
X69218691Y-104034236D01*
X69429508Y-104055000D01*
X69570492Y-104055000D01*
X69781309Y-104034236D01*
X69825906Y-104020708D01*
X70740000Y-104934802D01*
X70740000Y-112061928D01*
X69200000Y-112061928D01*
X69075518Y-112074188D01*
X68955820Y-112110498D01*
X68845506Y-112169463D01*
X68748815Y-112248815D01*
X68669463Y-112345506D01*
X68610498Y-112455820D01*
X68574188Y-112575518D01*
X68561928Y-112700000D01*
X68561928Y-112845674D01*
X68525724Y-112865026D01*
X68506954Y-112880430D01*
X68486306Y-112893213D01*
X68449209Y-112927820D01*
X68409999Y-112959999D01*
X68394595Y-112978769D01*
X68391007Y-112982116D01*
X68332182Y-112788192D01*
X68198932Y-112538899D01*
X68019608Y-112320392D01*
X67801101Y-112141068D01*
X67551808Y-112007818D01*
X67281309Y-111925764D01*
X67070492Y-111905000D01*
X66929508Y-111905000D01*
X66718691Y-111925764D01*
X66448192Y-112007818D01*
X66198899Y-112141068D01*
X65980392Y-112320392D01*
X65801068Y-112538899D01*
X65745009Y-112643778D01*
X65745009Y-108204704D01*
X65885363Y-108414759D01*
X66085241Y-108614637D01*
X66320273Y-108771680D01*
X66581426Y-108879853D01*
X66858665Y-108935000D01*
X67141335Y-108935000D01*
X67418574Y-108879853D01*
X67679727Y-108771680D01*
X67914759Y-108614637D01*
X68114637Y-108414759D01*
X68271680Y-108179727D01*
X68379853Y-107918574D01*
X68435000Y-107641335D01*
X68435000Y-107358665D01*
X68379853Y-107081426D01*
X68271680Y-106820273D01*
X68114637Y-106585241D01*
X67914759Y-106385363D01*
X67760000Y-106281957D01*
X67760000Y-105537322D01*
X67763676Y-105499999D01*
X67760000Y-105462676D01*
X67760000Y-105462667D01*
X67749003Y-105351014D01*
X67705546Y-105207753D01*
X67654727Y-105112678D01*
X67634974Y-105075723D01*
X67563799Y-104988997D01*
X67540001Y-104959999D01*
X67511003Y-104936201D01*
X66398688Y-103823886D01*
X66435000Y-103641335D01*
X66435000Y-103358665D01*
X66379853Y-103081426D01*
X66271680Y-102820273D01*
X66114637Y-102585241D01*
X65914759Y-102385363D01*
X65760000Y-102281957D01*
X65760000Y-101203711D01*
X65803937Y-101159774D01*
X65917205Y-100990256D01*
X65995226Y-100801898D01*
X66035000Y-100601939D01*
X66035000Y-100398061D01*
X65995226Y-100198102D01*
X65917205Y-100009744D01*
X65803937Y-99840226D01*
X65714709Y-99750998D01*
X65741514Y-99736671D01*
X65813097Y-99492702D01*
X65000000Y-98679605D01*
X64985858Y-98693748D01*
X64806253Y-98514143D01*
X64820395Y-98500000D01*
X65179605Y-98500000D01*
X65992702Y-99313097D01*
X66236671Y-99241514D01*
X66357571Y-98986004D01*
X66426300Y-98711816D01*
X66440217Y-98429488D01*
X66398787Y-98149870D01*
X66303603Y-97883708D01*
X66236671Y-97758486D01*
X65992702Y-97686903D01*
X65179605Y-98500000D01*
X64820395Y-98500000D01*
X64806253Y-98485858D01*
X64985858Y-98306253D01*
X65000000Y-98320395D01*
X65813097Y-97507298D01*
X65741514Y-97263329D01*
X65486004Y-97142429D01*
X65211816Y-97073700D01*
X64929488Y-97059783D01*
X64649870Y-97101213D01*
X64383708Y-97196397D01*
X64260000Y-97262520D01*
X64260000Y-94703711D01*
X64303937Y-94659774D01*
X64417205Y-94490256D01*
X64495226Y-94301898D01*
X64535000Y-94101939D01*
X64535000Y-93898061D01*
X64495226Y-93698102D01*
X64417205Y-93509744D01*
X64303937Y-93340226D01*
X64159774Y-93196063D01*
X63990256Y-93082795D01*
X63801898Y-93004774D01*
X63601939Y-92965000D01*
X63398061Y-92965000D01*
X63198102Y-93004774D01*
X63009744Y-93082795D01*
X62840226Y-93196063D01*
X62696063Y-93340226D01*
X62582795Y-93509744D01*
X62534999Y-93625133D01*
X62534999Y-87428712D01*
X62578936Y-87384775D01*
X62692204Y-87215257D01*
X62770225Y-87026899D01*
X62809999Y-86826940D01*
X62809999Y-86623062D01*
X62770225Y-86423103D01*
X62692204Y-86234745D01*
X62578936Y-86065227D01*
X62434773Y-85921064D01*
X62265255Y-85807796D01*
X62076897Y-85729775D01*
X61876938Y-85690001D01*
X61673060Y-85690001D01*
X61473101Y-85729775D01*
X61284743Y-85807796D01*
X61115225Y-85921064D01*
X60971062Y-86065227D01*
X60857794Y-86234745D01*
X60779773Y-86423103D01*
X60739999Y-86623062D01*
X60739999Y-86826940D01*
X60779773Y-87026899D01*
X60857794Y-87215257D01*
X60971062Y-87384775D01*
X61014999Y-87428712D01*
X61014999Y-88099328D01*
X60990256Y-88082795D01*
X60801898Y-88004774D01*
X60601939Y-87965000D01*
X60398061Y-87965000D01*
X60198102Y-88004774D01*
X60009744Y-88082795D01*
X59840226Y-88196063D01*
X59696063Y-88340226D01*
X59582795Y-88509744D01*
X59504774Y-88698102D01*
X59465000Y-88898061D01*
X59465000Y-89101939D01*
X59504774Y-89301898D01*
X59582795Y-89490256D01*
X59696063Y-89659774D01*
X59740001Y-89703712D01*
X59740000Y-91962677D01*
X59736324Y-92000000D01*
X59740000Y-92037322D01*
X59740000Y-92037332D01*
X59750997Y-92148985D01*
X59794454Y-92292246D01*
X59865026Y-92424276D01*
X59895431Y-92461324D01*
X59959999Y-92540001D01*
X59989003Y-92563804D01*
X60240001Y-92814802D01*
X60240001Y-98289487D01*
X60110256Y-98202795D01*
X59921898Y-98124774D01*
X59721939Y-98085000D01*
X59518061Y-98085000D01*
X59318102Y-98124774D01*
X59129744Y-98202795D01*
X58960226Y-98316063D01*
X58816063Y-98460226D01*
X58702795Y-98629744D01*
X58624774Y-98818102D01*
X58585000Y-99018061D01*
X58585000Y-99221939D01*
X58624774Y-99421898D01*
X58702795Y-99610256D01*
X58816063Y-99779774D01*
X58960226Y-99923937D01*
X59129744Y-100037205D01*
X59318102Y-100115226D01*
X59518061Y-100155000D01*
X59580198Y-100155000D01*
X59789990Y-100364793D01*
X59789991Y-129574800D01*
X59690492Y-129565000D01*
X59549508Y-129565000D01*
X59338691Y-129585764D01*
X59068192Y-129667818D01*
X58818899Y-129801068D01*
X58600392Y-129980392D01*
X58421068Y-130198899D01*
X58287818Y-130448192D01*
X58205764Y-130718691D01*
X58178057Y-131000000D01*
X58205764Y-131281309D01*
X58287818Y-131551808D01*
X58421068Y-131801101D01*
X58600392Y-132019608D01*
X58740001Y-132134182D01*
X58740000Y-133561928D01*
X58700000Y-133561928D01*
X58575518Y-133574188D01*
X58455820Y-133610498D01*
X58345506Y-133669463D01*
X58248815Y-133748815D01*
X58169463Y-133845506D01*
X58110498Y-133955820D01*
X58074188Y-134075518D01*
X58061928Y-134200000D01*
X58061928Y-135800000D01*
X58074188Y-135924482D01*
X58110498Y-136044180D01*
X58169463Y-136154494D01*
X58248815Y-136251185D01*
X58345506Y-136330537D01*
X58455820Y-136389502D01*
X58575518Y-136425812D01*
X58700000Y-136438072D01*
X60240000Y-136438072D01*
X60240000Y-137704268D01*
X60171808Y-137667818D01*
X59901309Y-137585764D01*
X59690492Y-137565000D01*
X59549508Y-137565000D01*
X59338691Y-137585764D01*
X59068192Y-137667818D01*
X58818899Y-137801068D01*
X58600392Y-137980392D01*
X58421068Y-138198899D01*
X58287818Y-138448192D01*
X58205764Y-138718691D01*
X58178057Y-139000000D01*
X58205764Y-139281309D01*
X58287818Y-139551808D01*
X58421068Y-139801101D01*
X58600392Y-140019608D01*
X58818899Y-140198932D01*
X58860000Y-140220901D01*
X58860001Y-141561928D01*
X58700000Y-141561928D01*
X58575518Y-141574188D01*
X58455820Y-141610498D01*
X58345506Y-141669463D01*
X58248815Y-141748815D01*
X58169463Y-141845506D01*
X58110498Y-141955820D01*
X58074188Y-142075518D01*
X58061928Y-142200000D01*
X58061928Y-143800000D01*
X58074188Y-143924482D01*
X58110498Y-144044180D01*
X58169463Y-144154494D01*
X58248815Y-144251185D01*
X58345506Y-144330537D01*
X58455820Y-144389502D01*
X58575518Y-144425812D01*
X58700000Y-144438072D01*
X60240000Y-144438072D01*
X60240000Y-145704268D01*
X60171808Y-145667818D01*
X59901309Y-145585764D01*
X59690492Y-145565000D01*
X59549508Y-145565000D01*
X59338691Y-145585764D01*
X59068192Y-145667818D01*
X58818899Y-145801068D01*
X58600392Y-145980392D01*
X58421068Y-146198899D01*
X58287818Y-146448192D01*
X58205764Y-146718691D01*
X58178057Y-147000000D01*
X58205764Y-147281309D01*
X58287818Y-147551808D01*
X58421068Y-147801101D01*
X58600392Y-148019608D01*
X58818899Y-148198932D01*
X58860000Y-148220901D01*
X58860001Y-149561928D01*
X58700000Y-149561928D01*
X58575518Y-149574188D01*
X58455820Y-149610498D01*
X58345506Y-149669463D01*
X58248815Y-149748815D01*
X58169463Y-149845506D01*
X58110498Y-149955820D01*
X58074188Y-150075518D01*
X58061928Y-150200000D01*
X58061928Y-151800000D01*
X58074188Y-151924482D01*
X58110498Y-152044180D01*
X58169463Y-152154494D01*
X58248815Y-152251185D01*
X58345506Y-152330537D01*
X58455820Y-152389502D01*
X58575518Y-152425812D01*
X58700000Y-152438072D01*
X60240000Y-152438072D01*
X60240000Y-154796289D01*
X60196063Y-154840226D01*
X60082795Y-155009744D01*
X60004774Y-155198102D01*
X59965000Y-155398061D01*
X59965000Y-155601939D01*
X60004774Y-155801898D01*
X60082795Y-155990256D01*
X60196063Y-156159774D01*
X60340226Y-156303937D01*
X60389447Y-156336825D01*
X60298691Y-156345764D01*
X60028192Y-156427818D01*
X59778899Y-156561068D01*
X59560392Y-156740392D01*
X59381068Y-156958899D01*
X59307421Y-157096682D01*
X59192385Y-156904869D01*
X59003414Y-156696481D01*
X58777420Y-156528963D01*
X58523087Y-156408754D01*
X58389039Y-156368096D01*
X58167000Y-156490085D01*
X58167000Y-157633000D01*
X58187000Y-157633000D01*
X58187000Y-157887000D01*
X58167000Y-157887000D01*
X58167000Y-159029915D01*
X58389039Y-159151904D01*
X58523087Y-159111246D01*
X58777420Y-158991037D01*
X59003414Y-158823519D01*
X59192385Y-158615131D01*
X59307421Y-158423318D01*
X59381068Y-158561101D01*
X59560392Y-158779608D01*
X59778899Y-158958932D01*
X60028192Y-159092182D01*
X60298691Y-159174236D01*
X60509508Y-159195000D01*
X60650492Y-159195000D01*
X60861309Y-159174236D01*
X61015000Y-159127615D01*
X61015000Y-164237666D01*
X61011323Y-164274999D01*
X61015000Y-164312332D01*
X61025997Y-164423985D01*
X61039179Y-164467441D01*
X61069453Y-164567245D01*
X61140025Y-164699275D01*
X61192879Y-164763677D01*
X61234999Y-164815000D01*
X61263997Y-164838798D01*
X61465000Y-165039801D01*
X61465000Y-165101939D01*
X61504774Y-165301898D01*
X61582795Y-165490256D01*
X61696063Y-165659774D01*
X61840226Y-165803937D01*
X62009744Y-165917205D01*
X62198102Y-165995226D01*
X62398061Y-166035000D01*
X62601939Y-166035000D01*
X62801898Y-165995226D01*
X62990256Y-165917205D01*
X63159774Y-165803937D01*
X63303937Y-165659774D01*
X63417205Y-165490256D01*
X63495226Y-165301898D01*
X63535000Y-165101939D01*
X63535000Y-164898061D01*
X63495226Y-164698102D01*
X63417205Y-164509744D01*
X63303937Y-164340226D01*
X63159774Y-164196063D01*
X62990256Y-164082795D01*
X62801898Y-164004774D01*
X62601939Y-163965000D01*
X62539801Y-163965000D01*
X62534999Y-163960198D01*
X62534999Y-159074440D01*
X62568192Y-159092182D01*
X62838691Y-159174236D01*
X63049508Y-159195000D01*
X63190492Y-159195000D01*
X63401309Y-159174236D01*
X63671808Y-159092182D01*
X63774999Y-159037025D01*
X63774999Y-171730007D01*
X63603087Y-171648754D01*
X63469039Y-171608096D01*
X63247000Y-171730085D01*
X63247000Y-172873000D01*
X63267000Y-172873000D01*
X63267000Y-173127000D01*
X63247000Y-173127000D01*
X63247000Y-173147000D01*
X62993000Y-173147000D01*
X62993000Y-173127000D01*
X62973000Y-173127000D01*
X62973000Y-172873000D01*
X62993000Y-172873000D01*
X62993000Y-171730085D01*
X62770961Y-171608096D01*
X62636913Y-171648754D01*
X62382580Y-171768963D01*
X62156586Y-171936481D01*
X61967615Y-172144869D01*
X61852579Y-172336682D01*
X61778932Y-172198899D01*
X61599608Y-171980392D01*
X61381101Y-171801068D01*
X61131808Y-171667818D01*
X60861309Y-171585764D01*
X60650492Y-171565000D01*
X60509508Y-171565000D01*
X60298691Y-171585764D01*
X60028192Y-171667818D01*
X59778899Y-171801068D01*
X59560392Y-171980392D01*
X59381068Y-172198899D01*
X59310000Y-172331858D01*
X59238932Y-172198899D01*
X59059608Y-171980392D01*
X58841101Y-171801068D01*
X58591808Y-171667818D01*
X58321309Y-171585764D01*
X58110492Y-171565000D01*
X57969508Y-171565000D01*
X57758691Y-171585764D01*
X57488192Y-171667818D01*
X57238899Y-171801068D01*
X57020392Y-171980392D01*
X56927581Y-172093482D01*
X56925812Y-172075518D01*
X56889502Y-171955820D01*
X56830537Y-171845506D01*
X56751185Y-171748815D01*
X56654494Y-171669463D01*
X56544180Y-171610498D01*
X56424482Y-171574188D01*
X56300000Y-171561928D01*
X54700000Y-171561928D01*
X54575518Y-171574188D01*
X54455820Y-171610498D01*
X54345506Y-171669463D01*
X54248815Y-171748815D01*
X54169463Y-171845506D01*
X54110498Y-171955820D01*
X54074188Y-172075518D01*
X54061928Y-172200000D01*
X54061928Y-173800000D01*
X54074188Y-173924482D01*
X54110498Y-174044180D01*
X54169463Y-174154494D01*
X54248815Y-174251185D01*
X54326574Y-174315000D01*
X49685000Y-174315000D01*
X49685000Y-169643217D01*
X49696063Y-169659774D01*
X49840226Y-169803937D01*
X50009744Y-169917205D01*
X50198102Y-169995226D01*
X50398061Y-170035000D01*
X50601939Y-170035000D01*
X50801898Y-169995226D01*
X50990256Y-169917205D01*
X51159774Y-169803937D01*
X51303937Y-169659774D01*
X51417205Y-169490256D01*
X51495226Y-169301898D01*
X51535000Y-169101939D01*
X51535000Y-168898061D01*
X51495226Y-168698102D01*
X51427217Y-168533915D01*
X51460545Y-168471563D01*
X51504002Y-168328302D01*
X51514999Y-168216649D01*
X51514999Y-168216640D01*
X51518675Y-168179317D01*
X51514999Y-168141994D01*
X51514999Y-157760000D01*
X54058057Y-157760000D01*
X54085764Y-158041309D01*
X54167818Y-158311808D01*
X54301068Y-158561101D01*
X54480392Y-158779608D01*
X54698899Y-158958932D01*
X54948192Y-159092182D01*
X55218691Y-159174236D01*
X55429508Y-159195000D01*
X55570492Y-159195000D01*
X55781309Y-159174236D01*
X56051808Y-159092182D01*
X56301101Y-158958932D01*
X56519608Y-158779608D01*
X56698932Y-158561101D01*
X56772579Y-158423318D01*
X56887615Y-158615131D01*
X57076586Y-158823519D01*
X57302580Y-158991037D01*
X57556913Y-159111246D01*
X57690961Y-159151904D01*
X57913000Y-159029915D01*
X57913000Y-157887000D01*
X57893000Y-157887000D01*
X57893000Y-157633000D01*
X57913000Y-157633000D01*
X57913000Y-156490085D01*
X57690961Y-156368096D01*
X57556913Y-156408754D01*
X57302580Y-156528963D01*
X57076586Y-156696481D01*
X56887615Y-156904869D01*
X56772579Y-157096682D01*
X56698932Y-156958899D01*
X56519608Y-156740392D01*
X56301101Y-156561068D01*
X56051808Y-156427818D01*
X55781309Y-156345764D01*
X55570492Y-156325000D01*
X55429508Y-156325000D01*
X55218691Y-156345764D01*
X54948192Y-156427818D01*
X54698899Y-156561068D01*
X54480392Y-156740392D01*
X54301068Y-156958899D01*
X54167818Y-157208192D01*
X54085764Y-157478691D01*
X54058057Y-157760000D01*
X51514999Y-157760000D01*
X51514999Y-152386193D01*
X51530960Y-152391909D01*
X51753000Y-152270624D01*
X51753000Y-151127000D01*
X52007000Y-151127000D01*
X52007000Y-152270624D01*
X52229040Y-152391909D01*
X52493881Y-152297070D01*
X52735131Y-152152385D01*
X52943519Y-151963414D01*
X53111037Y-151737420D01*
X53231246Y-151483087D01*
X53271904Y-151349039D01*
X53149915Y-151127000D01*
X52007000Y-151127000D01*
X51753000Y-151127000D01*
X51733000Y-151127000D01*
X51733000Y-150873000D01*
X51753000Y-150873000D01*
X51753000Y-149729376D01*
X52007000Y-149729376D01*
X52007000Y-150873000D01*
X53149915Y-150873000D01*
X53271904Y-150650961D01*
X53231246Y-150516913D01*
X53111037Y-150262580D01*
X52943519Y-150036586D01*
X52735131Y-149847615D01*
X52493881Y-149702930D01*
X52229040Y-149608091D01*
X52007000Y-149729376D01*
X51753000Y-149729376D01*
X51530960Y-149608091D01*
X51514999Y-149613807D01*
X51514999Y-148438072D01*
X52800000Y-148438072D01*
X52924482Y-148425812D01*
X53044180Y-148389502D01*
X53154494Y-148330537D01*
X53251185Y-148251185D01*
X53330537Y-148154494D01*
X53389502Y-148044180D01*
X53425812Y-147924482D01*
X53438072Y-147800000D01*
X53438072Y-146200000D01*
X53425812Y-146075518D01*
X53389502Y-145955820D01*
X53330537Y-145845506D01*
X53251185Y-145748815D01*
X53154494Y-145669463D01*
X53044180Y-145610498D01*
X52924482Y-145574188D01*
X52800000Y-145561928D01*
X51514999Y-145561928D01*
X51514999Y-144386193D01*
X51530960Y-144391909D01*
X51753000Y-144270624D01*
X51753000Y-143127000D01*
X52007000Y-143127000D01*
X52007000Y-144270624D01*
X52229040Y-144391909D01*
X52493881Y-144297070D01*
X52735131Y-144152385D01*
X52943519Y-143963414D01*
X53111037Y-143737420D01*
X53231246Y-143483087D01*
X53271904Y-143349039D01*
X53149915Y-143127000D01*
X52007000Y-143127000D01*
X51753000Y-143127000D01*
X51733000Y-143127000D01*
X51733000Y-142873000D01*
X51753000Y-142873000D01*
X51753000Y-141729376D01*
X52007000Y-141729376D01*
X52007000Y-142873000D01*
X53149915Y-142873000D01*
X53271904Y-142650961D01*
X53231246Y-142516913D01*
X53111037Y-142262580D01*
X52943519Y-142036586D01*
X52735131Y-141847615D01*
X52493881Y-141702930D01*
X52229040Y-141608091D01*
X52007000Y-141729376D01*
X51753000Y-141729376D01*
X51530960Y-141608091D01*
X51514999Y-141613807D01*
X51514999Y-140438072D01*
X52800000Y-140438072D01*
X52924482Y-140425812D01*
X53044180Y-140389502D01*
X53154494Y-140330537D01*
X53251185Y-140251185D01*
X53330537Y-140154494D01*
X53389502Y-140044180D01*
X53425812Y-139924482D01*
X53438072Y-139800000D01*
X53438072Y-138200000D01*
X53425812Y-138075518D01*
X53389502Y-137955820D01*
X53330537Y-137845506D01*
X53251185Y-137748815D01*
X53154494Y-137669463D01*
X53044180Y-137610498D01*
X52924482Y-137574188D01*
X52800000Y-137561928D01*
X51514999Y-137561928D01*
X51514999Y-136386193D01*
X51530960Y-136391909D01*
X51753000Y-136270624D01*
X51753000Y-135127000D01*
X52007000Y-135127000D01*
X52007000Y-136270624D01*
X52229040Y-136391909D01*
X52493881Y-136297070D01*
X52735131Y-136152385D01*
X52943519Y-135963414D01*
X53111037Y-135737420D01*
X53231246Y-135483087D01*
X53271904Y-135349039D01*
X53149915Y-135127000D01*
X52007000Y-135127000D01*
X51753000Y-135127000D01*
X51733000Y-135127000D01*
X51733000Y-134873000D01*
X51753000Y-134873000D01*
X51753000Y-133729376D01*
X52007000Y-133729376D01*
X52007000Y-134873000D01*
X53149915Y-134873000D01*
X53271904Y-134650961D01*
X53231246Y-134516913D01*
X53111037Y-134262580D01*
X52943519Y-134036586D01*
X52735131Y-133847615D01*
X52493881Y-133702930D01*
X52229040Y-133608091D01*
X52007000Y-133729376D01*
X51753000Y-133729376D01*
X51530960Y-133608091D01*
X51514999Y-133613807D01*
X51514999Y-132438072D01*
X52800000Y-132438072D01*
X52924482Y-132425812D01*
X53044180Y-132389502D01*
X53154494Y-132330537D01*
X53251185Y-132251185D01*
X53330537Y-132154494D01*
X53389502Y-132044180D01*
X53425812Y-131924482D01*
X53438072Y-131800000D01*
X53438072Y-130200000D01*
X53425812Y-130075518D01*
X53389502Y-129955820D01*
X53330537Y-129845506D01*
X53251185Y-129748815D01*
X53154494Y-129669463D01*
X53044180Y-129610498D01*
X52924482Y-129574188D01*
X52800000Y-129561928D01*
X51514999Y-129561928D01*
X51514999Y-128509804D01*
X51735998Y-128288805D01*
X51765002Y-128265002D01*
X51859975Y-128149277D01*
X51930547Y-128017248D01*
X51974004Y-127873987D01*
X51985001Y-127762334D01*
X51985001Y-127762325D01*
X51988677Y-127725002D01*
X51985001Y-127687679D01*
X51985001Y-115660000D01*
X52007815Y-115660000D01*
X52036487Y-115951111D01*
X52121401Y-116231034D01*
X52259294Y-116489014D01*
X52444866Y-116715134D01*
X52670986Y-116900706D01*
X52725791Y-116930000D01*
X52670986Y-116959294D01*
X52444866Y-117144866D01*
X52259294Y-117370986D01*
X52121401Y-117628966D01*
X52036487Y-117908889D01*
X52007815Y-118200000D01*
X52036487Y-118491111D01*
X52121401Y-118771034D01*
X52259294Y-119029014D01*
X52444866Y-119255134D01*
X52670986Y-119440706D01*
X52725791Y-119470000D01*
X52670986Y-119499294D01*
X52444866Y-119684866D01*
X52259294Y-119910986D01*
X52121401Y-120168966D01*
X52036487Y-120448889D01*
X52007815Y-120740000D01*
X52036487Y-121031111D01*
X52121401Y-121311034D01*
X52259294Y-121569014D01*
X52444866Y-121795134D01*
X52670986Y-121980706D01*
X52725791Y-122010000D01*
X52670986Y-122039294D01*
X52444866Y-122224866D01*
X52259294Y-122450986D01*
X52121401Y-122708966D01*
X52036487Y-122988889D01*
X52007815Y-123280000D01*
X52036487Y-123571111D01*
X52121401Y-123851034D01*
X52259294Y-124109014D01*
X52444866Y-124335134D01*
X52670986Y-124520706D01*
X52928966Y-124658599D01*
X53208889Y-124743513D01*
X53427050Y-124765000D01*
X53572950Y-124765000D01*
X53791111Y-124743513D01*
X54071034Y-124658599D01*
X54329014Y-124520706D01*
X54555134Y-124335134D01*
X54740706Y-124109014D01*
X54770000Y-124054209D01*
X54799294Y-124109014D01*
X54984866Y-124335134D01*
X55210986Y-124520706D01*
X55237589Y-124534926D01*
X55240000Y-124559403D01*
X55240001Y-138796288D01*
X55196063Y-138840226D01*
X55082795Y-139009744D01*
X55004774Y-139198102D01*
X54965000Y-139398061D01*
X54965000Y-139601939D01*
X55004774Y-139801898D01*
X55082795Y-139990256D01*
X55196063Y-140159774D01*
X55340226Y-140303937D01*
X55509744Y-140417205D01*
X55698102Y-140495226D01*
X55898061Y-140535000D01*
X56101939Y-140535000D01*
X56301898Y-140495226D01*
X56490256Y-140417205D01*
X56659774Y-140303937D01*
X56803937Y-140159774D01*
X56917205Y-139990256D01*
X56995226Y-139801898D01*
X57035000Y-139601939D01*
X57035000Y-139398061D01*
X56995226Y-139198102D01*
X56917205Y-139009744D01*
X56803937Y-138840226D01*
X56760000Y-138796289D01*
X56760000Y-131785000D01*
X56851939Y-131785000D01*
X57051898Y-131745226D01*
X57240256Y-131667205D01*
X57409774Y-131553937D01*
X57553937Y-131409774D01*
X57667205Y-131240256D01*
X57745226Y-131051898D01*
X57785000Y-130851939D01*
X57785000Y-130648061D01*
X57745226Y-130448102D01*
X57667205Y-130259744D01*
X57553937Y-130090226D01*
X57510000Y-130046289D01*
X57510000Y-125123803D01*
X57725999Y-124907804D01*
X57755002Y-124884002D01*
X57849975Y-124768277D01*
X57920547Y-124636248D01*
X57964004Y-124492987D01*
X57975001Y-124381334D01*
X57975001Y-124381326D01*
X57978677Y-124344001D01*
X57975001Y-124306676D01*
X57975001Y-122452323D01*
X57978677Y-122415000D01*
X57975001Y-122377677D01*
X57975001Y-122377668D01*
X57964004Y-122266015D01*
X57920547Y-122122754D01*
X57849975Y-121990725D01*
X57755002Y-121875000D01*
X57725998Y-121851197D01*
X57453803Y-121579002D01*
X57453798Y-121578996D01*
X57337521Y-121462720D01*
X57418599Y-121311034D01*
X57503513Y-121031111D01*
X57532185Y-120740000D01*
X57503513Y-120448889D01*
X57418599Y-120168966D01*
X57280706Y-119910986D01*
X57095134Y-119684866D01*
X56869014Y-119499294D01*
X56814209Y-119470000D01*
X56869014Y-119440706D01*
X57095134Y-119255134D01*
X57280706Y-119029014D01*
X57418599Y-118771034D01*
X57503513Y-118491111D01*
X57532185Y-118200000D01*
X57503513Y-117908889D01*
X57418599Y-117628966D01*
X57280706Y-117370986D01*
X57095134Y-117144866D01*
X56869014Y-116959294D01*
X56814209Y-116930000D01*
X56869014Y-116900706D01*
X57095134Y-116715134D01*
X57280706Y-116489014D01*
X57418599Y-116231034D01*
X57503513Y-115951111D01*
X57532185Y-115660000D01*
X57503513Y-115368889D01*
X57418599Y-115088966D01*
X57280706Y-114830986D01*
X57095134Y-114604866D01*
X56869014Y-114419294D01*
X56804477Y-114384799D01*
X56921355Y-114315178D01*
X57137588Y-114120269D01*
X57311641Y-113886920D01*
X57436825Y-113624099D01*
X57481476Y-113476890D01*
X57360155Y-113247000D01*
X56167000Y-113247000D01*
X56167000Y-113267000D01*
X55913000Y-113267000D01*
X55913000Y-113247000D01*
X53627000Y-113247000D01*
X53627000Y-113267000D01*
X53373000Y-113267000D01*
X53373000Y-113247000D01*
X52179845Y-113247000D01*
X52058524Y-113476890D01*
X52103175Y-113624099D01*
X52228359Y-113886920D01*
X52402412Y-114120269D01*
X52618645Y-114315178D01*
X52735523Y-114384799D01*
X52670986Y-114419294D01*
X52444866Y-114604866D01*
X52259294Y-114830986D01*
X52121401Y-115088966D01*
X52036487Y-115368889D01*
X52007815Y-115660000D01*
X51985001Y-115660000D01*
X51985001Y-110936890D01*
X52058524Y-110936890D01*
X52103175Y-111084099D01*
X52228359Y-111346920D01*
X52402412Y-111580269D01*
X52618645Y-111775178D01*
X52744255Y-111850000D01*
X52618645Y-111924822D01*
X52402412Y-112119731D01*
X52228359Y-112353080D01*
X52103175Y-112615901D01*
X52058524Y-112763110D01*
X52179845Y-112993000D01*
X53373000Y-112993000D01*
X53373000Y-110707000D01*
X53627000Y-110707000D01*
X53627000Y-112993000D01*
X55913000Y-112993000D01*
X55913000Y-110707000D01*
X56167000Y-110707000D01*
X56167000Y-112993000D01*
X57360155Y-112993000D01*
X57481476Y-112763110D01*
X57436825Y-112615901D01*
X57311641Y-112353080D01*
X57137588Y-112119731D01*
X56921355Y-111924822D01*
X56795745Y-111850000D01*
X56921355Y-111775178D01*
X57137588Y-111580269D01*
X57311641Y-111346920D01*
X57436825Y-111084099D01*
X57481476Y-110936890D01*
X57360155Y-110707000D01*
X56167000Y-110707000D01*
X55913000Y-110707000D01*
X53627000Y-110707000D01*
X53373000Y-110707000D01*
X52179845Y-110707000D01*
X52058524Y-110936890D01*
X51985001Y-110936890D01*
X51985001Y-108396890D01*
X52058524Y-108396890D01*
X52103175Y-108544099D01*
X52228359Y-108806920D01*
X52402412Y-109040269D01*
X52618645Y-109235178D01*
X52744255Y-109310000D01*
X52618645Y-109384822D01*
X52402412Y-109579731D01*
X52228359Y-109813080D01*
X52103175Y-110075901D01*
X52058524Y-110223110D01*
X52179845Y-110453000D01*
X53373000Y-110453000D01*
X53373000Y-108167000D01*
X53627000Y-108167000D01*
X53627000Y-110453000D01*
X55913000Y-110453000D01*
X55913000Y-108167000D01*
X56167000Y-108167000D01*
X56167000Y-110453000D01*
X57360155Y-110453000D01*
X57481476Y-110223110D01*
X57436825Y-110075901D01*
X57311641Y-109813080D01*
X57137588Y-109579731D01*
X56921355Y-109384822D01*
X56795745Y-109310000D01*
X56921355Y-109235178D01*
X57137588Y-109040269D01*
X57311641Y-108806920D01*
X57436825Y-108544099D01*
X57481476Y-108396890D01*
X57360155Y-108167000D01*
X56167000Y-108167000D01*
X55913000Y-108167000D01*
X53627000Y-108167000D01*
X53373000Y-108167000D01*
X52179845Y-108167000D01*
X52058524Y-108396890D01*
X51985001Y-108396890D01*
X51985001Y-104650000D01*
X52011928Y-104650000D01*
X52011928Y-106350000D01*
X52024188Y-106474482D01*
X52060498Y-106594180D01*
X52119463Y-106704494D01*
X52198815Y-106801185D01*
X52295506Y-106880537D01*
X52405820Y-106939502D01*
X52486466Y-106963966D01*
X52402412Y-107039731D01*
X52228359Y-107273080D01*
X52103175Y-107535901D01*
X52058524Y-107683110D01*
X52179845Y-107913000D01*
X53373000Y-107913000D01*
X53373000Y-107893000D01*
X53627000Y-107893000D01*
X53627000Y-107913000D01*
X55913000Y-107913000D01*
X55913000Y-107893000D01*
X56167000Y-107893000D01*
X56167000Y-107913000D01*
X57360155Y-107913000D01*
X57481476Y-107683110D01*
X57436825Y-107535901D01*
X57311641Y-107273080D01*
X57137588Y-107039731D01*
X56921355Y-106844822D01*
X56804477Y-106775201D01*
X56869014Y-106740706D01*
X57095134Y-106555134D01*
X57280706Y-106329014D01*
X57418599Y-106071034D01*
X57503513Y-105791111D01*
X57532185Y-105500000D01*
X57503513Y-105208889D01*
X57418599Y-104928966D01*
X57280706Y-104670986D01*
X57095134Y-104444866D01*
X56869014Y-104259294D01*
X56611034Y-104121401D01*
X56331111Y-104036487D01*
X56112950Y-104015000D01*
X55967050Y-104015000D01*
X55748889Y-104036487D01*
X55468966Y-104121401D01*
X55210986Y-104259294D01*
X54984866Y-104444866D01*
X54960393Y-104474687D01*
X54939502Y-104405820D01*
X54880537Y-104295506D01*
X54801185Y-104198815D01*
X54704494Y-104119463D01*
X54594180Y-104060498D01*
X54474482Y-104024188D01*
X54350000Y-104011928D01*
X52650000Y-104011928D01*
X52525518Y-104024188D01*
X52405820Y-104060498D01*
X52295506Y-104119463D01*
X52198815Y-104198815D01*
X52119463Y-104295506D01*
X52060498Y-104405820D01*
X52024188Y-104525518D01*
X52011928Y-104650000D01*
X51985001Y-104650000D01*
X51985001Y-94169800D01*
X52010235Y-94144567D01*
X52036487Y-94411111D01*
X52121401Y-94691034D01*
X52259294Y-94949014D01*
X52444866Y-95175134D01*
X52670986Y-95360706D01*
X52725791Y-95390000D01*
X52670986Y-95419294D01*
X52444866Y-95604866D01*
X52259294Y-95830986D01*
X52121401Y-96088966D01*
X52036487Y-96368889D01*
X52007815Y-96660000D01*
X52036487Y-96951111D01*
X52121401Y-97231034D01*
X52259294Y-97489014D01*
X52444866Y-97715134D01*
X52670986Y-97900706D01*
X52928966Y-98038599D01*
X53208889Y-98123513D01*
X53427050Y-98145000D01*
X53572950Y-98145000D01*
X53791111Y-98123513D01*
X54071034Y-98038599D01*
X54329014Y-97900706D01*
X54555134Y-97715134D01*
X54740706Y-97489014D01*
X54771584Y-97431244D01*
X54942412Y-97660269D01*
X55158645Y-97855178D01*
X55408748Y-98004157D01*
X55683109Y-98101481D01*
X55913000Y-97980814D01*
X55913000Y-96787000D01*
X56167000Y-96787000D01*
X56167000Y-97980814D01*
X56396891Y-98101481D01*
X56671252Y-98004157D01*
X56921355Y-97855178D01*
X57137588Y-97660269D01*
X57311641Y-97426920D01*
X57436825Y-97164099D01*
X57481476Y-97016890D01*
X57360155Y-96787000D01*
X56167000Y-96787000D01*
X55913000Y-96787000D01*
X55893000Y-96787000D01*
X55893000Y-96533000D01*
X55913000Y-96533000D01*
X55913000Y-96513000D01*
X56167000Y-96513000D01*
X56167000Y-96533000D01*
X57360155Y-96533000D01*
X57481476Y-96303110D01*
X57436825Y-96155901D01*
X57311641Y-95893080D01*
X57137588Y-95659731D01*
X56921355Y-95464822D01*
X56804477Y-95395201D01*
X56869014Y-95360706D01*
X57095134Y-95175134D01*
X57280706Y-94949014D01*
X57418599Y-94691034D01*
X57503513Y-94411111D01*
X57532185Y-94120000D01*
X57503513Y-93828889D01*
X57418599Y-93548966D01*
X57280706Y-93290986D01*
X57095134Y-93064866D01*
X56869014Y-92879294D01*
X56814209Y-92850000D01*
X56869014Y-92820706D01*
X57095134Y-92635134D01*
X57280706Y-92409014D01*
X57418599Y-92151034D01*
X57503513Y-91871111D01*
X57532185Y-91580000D01*
X57503513Y-91288889D01*
X57418599Y-91008966D01*
X57280706Y-90750986D01*
X57095134Y-90524866D01*
X56869014Y-90339294D01*
X56814209Y-90310000D01*
X56869014Y-90280706D01*
X57095134Y-90095134D01*
X57280706Y-89869014D01*
X57418599Y-89611034D01*
X57503513Y-89331111D01*
X57532185Y-89040000D01*
X57503513Y-88748889D01*
X57418599Y-88468966D01*
X57280706Y-88210986D01*
X57095134Y-87984866D01*
X56869014Y-87799294D01*
X56814209Y-87770000D01*
X56869014Y-87740706D01*
X57095134Y-87555134D01*
X57280706Y-87329014D01*
X57418599Y-87071034D01*
X57503513Y-86791111D01*
X57532185Y-86500000D01*
X57503513Y-86208889D01*
X57418599Y-85928966D01*
X57280706Y-85670986D01*
X57095134Y-85444866D01*
X56869014Y-85259294D01*
X56611034Y-85121401D01*
X56331111Y-85036487D01*
X56112950Y-85015000D01*
X55967050Y-85015000D01*
X55748889Y-85036487D01*
X55468966Y-85121401D01*
X55210986Y-85259294D01*
X54984866Y-85444866D01*
X54960393Y-85474687D01*
X54939502Y-85405820D01*
X54880537Y-85295506D01*
X54801185Y-85198815D01*
X54704494Y-85119463D01*
X54594180Y-85060498D01*
X54474482Y-85024188D01*
X54350000Y-85011928D01*
X52650000Y-85011928D01*
X52525518Y-85024188D01*
X52405820Y-85060498D01*
X52295506Y-85119463D01*
X52198815Y-85198815D01*
X52119463Y-85295506D01*
X52060498Y-85405820D01*
X52024188Y-85525518D01*
X52011928Y-85650000D01*
X52011928Y-87350000D01*
X52024188Y-87474482D01*
X52060498Y-87594180D01*
X52119463Y-87704494D01*
X52198815Y-87801185D01*
X52295506Y-87880537D01*
X52405820Y-87939502D01*
X52474687Y-87960393D01*
X52444866Y-87984866D01*
X52259294Y-88210986D01*
X52121401Y-88468966D01*
X52036487Y-88748889D01*
X52007815Y-89040000D01*
X52036487Y-89331111D01*
X52121401Y-89611034D01*
X52259294Y-89869014D01*
X52444866Y-90095134D01*
X52670986Y-90280706D01*
X52725791Y-90310000D01*
X52670986Y-90339294D01*
X52444866Y-90524866D01*
X52259294Y-90750986D01*
X52121401Y-91008966D01*
X52036487Y-91288889D01*
X52007815Y-91580000D01*
X52036487Y-91871111D01*
X52059203Y-91945995D01*
X50714003Y-93291195D01*
X50685000Y-93314998D01*
X50636590Y-93373986D01*
X50590027Y-93430723D01*
X50532188Y-93538932D01*
X50519455Y-93562753D01*
X50475998Y-93706014D01*
X50465001Y-93817667D01*
X50465001Y-93817677D01*
X50461325Y-93854999D01*
X50465001Y-93892321D01*
X50465001Y-94072334D01*
X50301898Y-94004774D01*
X50101939Y-93965000D01*
X49898061Y-93965000D01*
X49698102Y-94004774D01*
X49685000Y-94010201D01*
X49685000Y-78920447D01*
X50259158Y-78920447D01*
X50403135Y-79225770D01*
X50760892Y-79406597D01*
X51147053Y-79514155D01*
X51546777Y-79544310D01*
X51944704Y-79495904D01*
X52325540Y-79370795D01*
X52596865Y-79225770D01*
X52740842Y-78920447D01*
X51500000Y-77679605D01*
X50259158Y-78920447D01*
X49685000Y-78920447D01*
X49685000Y-78429926D01*
X49774230Y-78596865D01*
X50079553Y-78740842D01*
X51320395Y-77500000D01*
X51679605Y-77500000D01*
X52920447Y-78740842D01*
X53225770Y-78596865D01*
X53406597Y-78239108D01*
X53514155Y-77852947D01*
X53544310Y-77453223D01*
X53495904Y-77055296D01*
X53370795Y-76674460D01*
X53225770Y-76403135D01*
X52920447Y-76259158D01*
X51679605Y-77500000D01*
X51320395Y-77500000D01*
X50079553Y-76259158D01*
X49774230Y-76403135D01*
X49685000Y-76579672D01*
X49685000Y-76079553D01*
X50259158Y-76079553D01*
X51500000Y-77320395D01*
X52740842Y-76079553D01*
X52596865Y-75774230D01*
X52239108Y-75593403D01*
X51852947Y-75485845D01*
X51453223Y-75455690D01*
X51055296Y-75504096D01*
X50674460Y-75629205D01*
X50403135Y-75774230D01*
X50259158Y-76079553D01*
X49685000Y-76079553D01*
X49685000Y-72800000D01*
X52061928Y-72800000D01*
X52074188Y-72924482D01*
X52110498Y-73044180D01*
X52169463Y-73154494D01*
X52248815Y-73251185D01*
X52345506Y-73330537D01*
X52455820Y-73389502D01*
X52575518Y-73425812D01*
X52700000Y-73438072D01*
X53214250Y-73435000D01*
X53373000Y-73276250D01*
X53373000Y-72127000D01*
X53627000Y-72127000D01*
X53627000Y-73276250D01*
X53785750Y-73435000D01*
X54300000Y-73438072D01*
X54424482Y-73425812D01*
X54544180Y-73389502D01*
X54654494Y-73330537D01*
X54751185Y-73251185D01*
X54830537Y-73154494D01*
X54889502Y-73044180D01*
X54925812Y-72924482D01*
X54938072Y-72800000D01*
X54935000Y-72285750D01*
X54776250Y-72127000D01*
X53627000Y-72127000D01*
X53373000Y-72127000D01*
X52223750Y-72127000D01*
X52065000Y-72285750D01*
X52061928Y-72800000D01*
X49685000Y-72800000D01*
X49685000Y-71200000D01*
X52061928Y-71200000D01*
X52065000Y-71714250D01*
X52223750Y-71873000D01*
X53373000Y-71873000D01*
X53373000Y-70723750D01*
X53627000Y-70723750D01*
X53627000Y-71873000D01*
X54776250Y-71873000D01*
X54935000Y-71714250D01*
X54938072Y-71200000D01*
X54925812Y-71075518D01*
X54889502Y-70955820D01*
X54830537Y-70845506D01*
X54751185Y-70748815D01*
X54654494Y-70669463D01*
X54544180Y-70610498D01*
X54424482Y-70574188D01*
X54300000Y-70561928D01*
X53785750Y-70565000D01*
X53627000Y-70723750D01*
X53373000Y-70723750D01*
X53214250Y-70565000D01*
X52700000Y-70561928D01*
X52575518Y-70574188D01*
X52455820Y-70610498D01*
X52345506Y-70669463D01*
X52248815Y-70748815D01*
X52169463Y-70845506D01*
X52110498Y-70955820D01*
X52074188Y-71075518D01*
X52061928Y-71200000D01*
X49685000Y-71200000D01*
X49685000Y-65685000D01*
X94315000Y-65685000D01*
X94315001Y-120005391D01*
G36*
X65820392Y-148019608D02*
G01*
X66038899Y-148198932D01*
X66288192Y-148332182D01*
X66558691Y-148414236D01*
X66769508Y-148435000D01*
X66910492Y-148435000D01*
X67121309Y-148414236D01*
X67391808Y-148332182D01*
X67641101Y-148198932D01*
X67740001Y-148117767D01*
X67740001Y-149296288D01*
X67696063Y-149340226D01*
X67582795Y-149509744D01*
X67504774Y-149698102D01*
X67465000Y-149898061D01*
X67465000Y-150101939D01*
X67504774Y-150301898D01*
X67582795Y-150490256D01*
X67696063Y-150659774D01*
X67840226Y-150803937D01*
X68009744Y-150917205D01*
X68198102Y-150995226D01*
X68398061Y-151035000D01*
X68601939Y-151035000D01*
X68740000Y-151007538D01*
X68740000Y-152262613D01*
X68486004Y-152142429D01*
X68211816Y-152073700D01*
X67929488Y-152059783D01*
X67649870Y-152101213D01*
X67383708Y-152196397D01*
X67258486Y-152263329D01*
X67186903Y-152507298D01*
X68000000Y-153320395D01*
X68014143Y-153306253D01*
X68193748Y-153485858D01*
X68179605Y-153500000D01*
X68193748Y-153514143D01*
X68014143Y-153693748D01*
X68000000Y-153679605D01*
X67985858Y-153693748D01*
X67806253Y-153514143D01*
X67820395Y-153500000D01*
X67007298Y-152686903D01*
X66763329Y-152758486D01*
X66642429Y-153013996D01*
X66631680Y-153056878D01*
X65745009Y-152170208D01*
X65745009Y-147927754D01*
X65820392Y-148019608D01*
X65820392Y-148019608D01*
G37*
X65820392Y-148019608D02*
X66038899Y-148198932D01*
X66288192Y-148332182D01*
X66558691Y-148414236D01*
X66769508Y-148435000D01*
X66910492Y-148435000D01*
X67121309Y-148414236D01*
X67391808Y-148332182D01*
X67641101Y-148198932D01*
X67740001Y-148117767D01*
X67740001Y-149296288D01*
X67696063Y-149340226D01*
X67582795Y-149509744D01*
X67504774Y-149698102D01*
X67465000Y-149898061D01*
X67465000Y-150101939D01*
X67504774Y-150301898D01*
X67582795Y-150490256D01*
X67696063Y-150659774D01*
X67840226Y-150803937D01*
X68009744Y-150917205D01*
X68198102Y-150995226D01*
X68398061Y-151035000D01*
X68601939Y-151035000D01*
X68740000Y-151007538D01*
X68740000Y-152262613D01*
X68486004Y-152142429D01*
X68211816Y-152073700D01*
X67929488Y-152059783D01*
X67649870Y-152101213D01*
X67383708Y-152196397D01*
X67258486Y-152263329D01*
X67186903Y-152507298D01*
X68000000Y-153320395D01*
X68014143Y-153306253D01*
X68193748Y-153485858D01*
X68179605Y-153500000D01*
X68193748Y-153514143D01*
X68014143Y-153693748D01*
X68000000Y-153679605D01*
X67985858Y-153693748D01*
X67806253Y-153514143D01*
X67820395Y-153500000D01*
X67007298Y-152686903D01*
X66763329Y-152758486D01*
X66642429Y-153013996D01*
X66631680Y-153056878D01*
X65745009Y-152170208D01*
X65745009Y-147927754D01*
X65820392Y-148019608D01*
M02*
