M48
; DRILL file {KiCad (5.1.2)-1} date 6/10/2019 2:28:02 PM
; FORMAT={-:-/ absolute / inch / decimal}
; #@! TF.CreationDate,2019-06-10T14:28:02-07:00
; #@! TF.GenerationSoftware,Kicad,Pcbnew,(5.1.2)-1
; #@! TF.FileFunction,Plated,1,2,PTH
FMAT,2
INCH
T1C0.0157
T2C0.0295
T3C0.0315
T4C0.0354
T5C0.0394
T6C0.0630
T7C0.0760
T8C0.0787
T9C0.0906
%
G90
G05
T1
X1.9685Y-3.7402
X1.9685Y-6.4567
X1.9882Y-6.6535
X2.2047Y-5.4921
X2.2343Y-5.1476
X2.3472Y-3.9024
X2.3819Y-3.5039
X2.4016Y-6.122
X2.4321Y-3.4144
X2.4606Y-3.7598
X2.4606Y-6.4961
X2.4803Y-4.7244
X2.5Y-3.7008
X2.5591Y-3.9567
X2.5787Y-3.622
X2.5984Y-5.0984
X2.6197Y-4.5685
X2.6339Y-3.5518
X2.6575Y-4.7244
X2.6969Y-5.9055
X2.7756Y-5.7874
X2.7805Y-5.6053
X2.8445Y-4.6555
X2.8937Y-5.0984
X2.9134Y-5.7874
X2.9331Y-6.122
X2.9528Y-3.7402
X2.9528Y-4.4685
X3.0315Y-4.3898
X3.2677Y-5.0984
X3.4252Y-6.2795
T2
X2.8921Y-5.9843
X2.9421Y-5.9843
X2.9921Y-5.9843
T3
X2.4803Y-6.0433
X2.6772Y-6.0433
X2.6378Y-4.9803
X3.0378Y-4.9803
X2.6315Y-5.7874
X3.0315Y-5.7874
X2.0472Y-5.7874
X2.3472Y-5.7874
X2.5591Y-3.878
X2.5591Y-4.0748
X2.7559Y-4.4685
X2.7559Y-4.5685
X2.7559Y-4.6685
X2.7559Y-4.7685
X3.0559Y-4.4685
X3.0559Y-4.5685
X3.0559Y-4.6685
X3.0559Y-4.7685
X2.1063Y-2.8346
X2.2441Y-2.8346
X2.5591Y-2.8346
X2.6969Y-2.8346
X3.189Y-3.6354
X3.189Y-4.0354
X2.6378Y-4.2323
X3.0378Y-4.2323
X2.6315Y-5.3937
X3.0315Y-5.3937
X2.0472Y-5.4724
X2.3472Y-5.4724
X2.8346Y-3.5827
X3.0315Y-3.5827
X2.9921Y-2.8346
X3.1299Y-2.8346
X2.4803Y-4.4587
X2.4803Y-4.8587
X2.6575Y-3.4252
X2.6575Y-3.622
X2.0425Y-5.9449
X2.3425Y-5.9449
X2.9528Y-3.2874
X3.1496Y-3.2874
X2.789Y-3.4449
X3.189Y-3.4449
X2.6315Y-5.1772
X3.0315Y-5.1772
X2.0425Y-5.315
X2.3425Y-5.315
X2.0425Y-5.6299
X2.3425Y-5.6299
X2.6315Y-5.6102
X3.0315Y-5.6102
X3.189Y-4.1929
X3.189Y-4.3898
X2.6378Y-4.4622
X2.6378Y-4.8622
X2.0472Y-5.1575
X2.3472Y-5.1575
X2.185Y-6.211
X2.185Y-6.811
X2.285Y-6.211
X2.285Y-6.811
X2.385Y-6.211
X2.385Y-6.811
X2.485Y-6.211
X2.485Y-6.811
X2.585Y-6.211
X2.585Y-6.811
X2.685Y-6.211
X2.685Y-6.811
X2.785Y-6.211
X2.785Y-6.811
X2.885Y-6.211
X2.885Y-6.811
X2.985Y-6.211
X2.985Y-6.811
X3.085Y-6.211
X3.085Y-6.811
X3.185Y-6.211
X3.185Y-6.811
X3.285Y-6.211
X3.285Y-6.811
X3.385Y-6.211
X3.385Y-6.811
X3.485Y-6.211
X3.485Y-6.811
X3.585Y-6.211
X3.585Y-6.811
X2.7362Y-3.7402
X2.7362Y-3.8402
X2.7362Y-3.9402
X2.7362Y-4.0402
X3.0362Y-3.7402
X3.0362Y-3.8402
X3.0362Y-3.9402
X3.0362Y-4.0402
T4
X3.125Y-5.9843
X3.225Y-5.9843
T5
X2.4803Y-5.1165
X2.4803Y-5.2165
X2.1063Y-3.4055
X2.1063Y-3.5055
X2.1063Y-3.6055
X2.1063Y-3.7055
X2.1063Y-3.8055
X2.2063Y-3.4055
X2.2063Y-3.5055
X2.2063Y-3.6055
X2.2063Y-3.7055
X2.2063Y-3.8055
X3.5433Y-4.1929
X3.5433Y-4.2913
X3.5433Y-4.3898
X3.5433Y-2.8346
X3.5433Y-2.9331
X3.5433Y-3.0315
X2.4803Y-5.3937
X2.4803Y-5.4937
X2.1063Y-4.1535
X2.1063Y-4.2535
X2.1063Y-4.3535
X2.1063Y-4.4535
X2.1063Y-4.5535
X2.1063Y-4.6535
X2.1063Y-4.7535
X2.1063Y-4.8535
X2.2063Y-4.1535
X2.2063Y-4.2535
X2.2063Y-4.3535
X2.2063Y-4.4535
X2.2063Y-4.5535
X2.2063Y-4.6535
X2.2063Y-4.7535
X2.2063Y-4.8535
X3.5433Y-3.5236
X3.5433Y-3.622
X3.5433Y-3.7205
T6
X2.0276Y-3.0512
T7
X3.3864Y-5.9843
X3.5033Y-5.9843
T8
X3.3504Y-5.2953
X3.5669Y-5.2953
X3.6614Y-5.2165
X3.3504Y-4.8622
X3.5669Y-4.8622
X3.6614Y-4.7835
X3.3504Y-5.7087
X3.5669Y-5.7087
X3.6614Y-5.6299
T9
X3.4134Y-3.4252
X3.4134Y-3.8189
X3.4134Y-4.0945
X3.4134Y-4.4882
X3.4134Y-2.7362
X3.4134Y-3.1299
T0
M30
