G04 #@! TF.GenerationSoftware,KiCad,Pcbnew,(5.1.2)-1*
G04 #@! TF.CreationDate,2019-06-24T10:33:01-07:00*
G04 #@! TF.ProjectId,panel,70616e65-6c2e-46b6-9963-61645f706362,rev?*
G04 #@! TF.SameCoordinates,Original*
G04 #@! TF.FileFunction,Soldermask,Top*
G04 #@! TF.FilePolarity,Negative*
%FSLAX46Y46*%
G04 Gerber Fmt 4.6, Leading zero omitted, Abs format (unit mm)*
G04 Created by KiCad (PCBNEW (5.1.2)-1) date 2019-06-24 10:33:01*
%MOMM*%
%LPD*%
G04 APERTURE LIST*
%ADD10C,0.100000*%
G04 APERTURE END LIST*
D10*
G36*
X108884098Y-183047033D02*
G01*
X109348350Y-183239332D01*
X109348352Y-183239333D01*
X109766168Y-183518509D01*
X110121491Y-183873832D01*
X110400667Y-184291648D01*
X110400668Y-184291650D01*
X110592967Y-184755902D01*
X110691000Y-185248747D01*
X110691000Y-185751253D01*
X110592967Y-186244098D01*
X110400668Y-186708350D01*
X110400667Y-186708352D01*
X110121491Y-187126168D01*
X109766168Y-187481491D01*
X109348352Y-187760667D01*
X109348351Y-187760668D01*
X109348350Y-187760668D01*
X108884098Y-187952967D01*
X108391253Y-188051000D01*
X107888747Y-188051000D01*
X107395902Y-187952967D01*
X106931650Y-187760668D01*
X106931649Y-187760668D01*
X106931648Y-187760667D01*
X106513832Y-187481491D01*
X106158509Y-187126168D01*
X105879333Y-186708352D01*
X105879332Y-186708350D01*
X105687033Y-186244098D01*
X105589000Y-185751253D01*
X105589000Y-185248747D01*
X105687033Y-184755902D01*
X105879332Y-184291650D01*
X105879333Y-184291648D01*
X106158509Y-183873832D01*
X106513832Y-183518509D01*
X106931648Y-183239333D01*
X106931650Y-183239332D01*
X107395902Y-183047033D01*
X107888747Y-182949000D01*
X108391253Y-182949000D01*
X108884098Y-183047033D01*
X108884098Y-183047033D01*
G37*
G36*
X68244098Y-183047033D02*
G01*
X68708350Y-183239332D01*
X68708352Y-183239333D01*
X69126168Y-183518509D01*
X69481491Y-183873832D01*
X69760667Y-184291648D01*
X69760668Y-184291650D01*
X69952967Y-184755902D01*
X70051000Y-185248747D01*
X70051000Y-185751253D01*
X69952967Y-186244098D01*
X69760668Y-186708350D01*
X69760667Y-186708352D01*
X69481491Y-187126168D01*
X69126168Y-187481491D01*
X68708352Y-187760667D01*
X68708351Y-187760668D01*
X68708350Y-187760668D01*
X68244098Y-187952967D01*
X67751253Y-188051000D01*
X67248747Y-188051000D01*
X66755902Y-187952967D01*
X66291650Y-187760668D01*
X66291649Y-187760668D01*
X66291648Y-187760667D01*
X65873832Y-187481491D01*
X65518509Y-187126168D01*
X65239333Y-186708352D01*
X65239332Y-186708350D01*
X65047033Y-186244098D01*
X64949000Y-185751253D01*
X64949000Y-185248747D01*
X65047033Y-184755902D01*
X65239332Y-184291650D01*
X65239333Y-184291648D01*
X65518509Y-183873832D01*
X65873832Y-183518509D01*
X66291648Y-183239333D01*
X66291650Y-183239332D01*
X66755902Y-183047033D01*
X67248747Y-182949000D01*
X67751253Y-182949000D01*
X68244098Y-183047033D01*
X68244098Y-183047033D01*
G37*
G36*
X91375256Y-173891298D02*
G01*
X91481579Y-173912447D01*
X91782042Y-174036903D01*
X92052451Y-174217585D01*
X92282415Y-174447549D01*
X92463097Y-174717958D01*
X92587553Y-175018421D01*
X92651000Y-175337391D01*
X92651000Y-175662609D01*
X92587553Y-175981579D01*
X92463097Y-176282042D01*
X92282415Y-176552451D01*
X92052451Y-176782415D01*
X91782042Y-176963097D01*
X91481579Y-177087553D01*
X91375256Y-177108702D01*
X91162611Y-177151000D01*
X90837389Y-177151000D01*
X90624744Y-177108702D01*
X90518421Y-177087553D01*
X90217958Y-176963097D01*
X89947549Y-176782415D01*
X89717585Y-176552451D01*
X89536903Y-176282042D01*
X89412447Y-175981579D01*
X89349000Y-175662609D01*
X89349000Y-175337391D01*
X89412447Y-175018421D01*
X89536903Y-174717958D01*
X89717585Y-174447549D01*
X89947549Y-174217585D01*
X90217958Y-174036903D01*
X90518421Y-173912447D01*
X90624744Y-173891298D01*
X90837389Y-173849000D01*
X91162611Y-173849000D01*
X91375256Y-173891298D01*
X91375256Y-173891298D01*
G37*
G36*
X64375256Y-173891298D02*
G01*
X64481579Y-173912447D01*
X64782042Y-174036903D01*
X65052451Y-174217585D01*
X65282415Y-174447549D01*
X65463097Y-174717958D01*
X65587553Y-175018421D01*
X65651000Y-175337391D01*
X65651000Y-175662609D01*
X65587553Y-175981579D01*
X65463097Y-176282042D01*
X65282415Y-176552451D01*
X65052451Y-176782415D01*
X64782042Y-176963097D01*
X64481579Y-177087553D01*
X64375256Y-177108702D01*
X64162611Y-177151000D01*
X63837389Y-177151000D01*
X63624744Y-177108702D01*
X63518421Y-177087553D01*
X63217958Y-176963097D01*
X62947549Y-176782415D01*
X62717585Y-176552451D01*
X62536903Y-176282042D01*
X62412447Y-175981579D01*
X62349000Y-175662609D01*
X62349000Y-175337391D01*
X62412447Y-175018421D01*
X62536903Y-174717958D01*
X62717585Y-174447549D01*
X62947549Y-174217585D01*
X63217958Y-174036903D01*
X63518421Y-173912447D01*
X63624744Y-173891298D01*
X63837389Y-173849000D01*
X64162611Y-173849000D01*
X64375256Y-173891298D01*
X64375256Y-173891298D01*
G37*
G36*
X78608710Y-164845070D02*
G01*
X79300447Y-165131597D01*
X79300448Y-165131598D01*
X79922996Y-165547571D01*
X80452429Y-166077004D01*
X80730374Y-166492978D01*
X80868403Y-166699553D01*
X81154930Y-167391290D01*
X81301000Y-168125633D01*
X81301000Y-168874367D01*
X81154930Y-169608710D01*
X80868403Y-170300447D01*
X80868402Y-170300448D01*
X80452429Y-170922996D01*
X79922996Y-171452429D01*
X79507022Y-171730374D01*
X79300447Y-171868403D01*
X78608710Y-172154930D01*
X77874367Y-172301000D01*
X77125633Y-172301000D01*
X76391290Y-172154930D01*
X75699553Y-171868403D01*
X75492978Y-171730374D01*
X75077004Y-171452429D01*
X74547571Y-170922996D01*
X74131598Y-170300448D01*
X74131597Y-170300447D01*
X73845070Y-169608710D01*
X73699000Y-168874367D01*
X73699000Y-168125633D01*
X73845070Y-167391290D01*
X74131597Y-166699553D01*
X74269626Y-166492978D01*
X74547571Y-166077004D01*
X75077004Y-165547571D01*
X75699552Y-165131598D01*
X75699553Y-165131597D01*
X76391290Y-164845070D01*
X77125633Y-164699000D01*
X77874367Y-164699000D01*
X78608710Y-164845070D01*
X78608710Y-164845070D01*
G37*
G36*
X64175256Y-157891298D02*
G01*
X64281579Y-157912447D01*
X64582042Y-158036903D01*
X64852451Y-158217585D01*
X65082415Y-158447549D01*
X65263097Y-158717958D01*
X65387553Y-159018421D01*
X65451000Y-159337391D01*
X65451000Y-159662609D01*
X65387553Y-159981579D01*
X65263097Y-160282042D01*
X65082415Y-160552451D01*
X64852451Y-160782415D01*
X64582042Y-160963097D01*
X64281579Y-161087553D01*
X64175256Y-161108702D01*
X63962611Y-161151000D01*
X63637389Y-161151000D01*
X63424744Y-161108702D01*
X63318421Y-161087553D01*
X63017958Y-160963097D01*
X62747549Y-160782415D01*
X62517585Y-160552451D01*
X62336903Y-160282042D01*
X62212447Y-159981579D01*
X62149000Y-159662609D01*
X62149000Y-159337391D01*
X62212447Y-159018421D01*
X62336903Y-158717958D01*
X62517585Y-158447549D01*
X62747549Y-158217585D01*
X63017958Y-158036903D01*
X63318421Y-157912447D01*
X63424744Y-157891298D01*
X63637389Y-157849000D01*
X63962611Y-157849000D01*
X64175256Y-157891298D01*
X64175256Y-157891298D01*
G37*
G36*
X109675256Y-154891298D02*
G01*
X109781579Y-154912447D01*
X110082042Y-155036903D01*
X110352451Y-155217585D01*
X110582415Y-155447549D01*
X110763097Y-155717958D01*
X110887553Y-156018421D01*
X110951000Y-156337391D01*
X110951000Y-156662609D01*
X110887553Y-156981579D01*
X110763097Y-157282042D01*
X110582415Y-157552451D01*
X110352451Y-157782415D01*
X110082042Y-157963097D01*
X109781579Y-158087553D01*
X109675256Y-158108702D01*
X109462611Y-158151000D01*
X109137389Y-158151000D01*
X108924744Y-158108702D01*
X108818421Y-158087553D01*
X108517958Y-157963097D01*
X108247549Y-157782415D01*
X108017585Y-157552451D01*
X107836903Y-157282042D01*
X107712447Y-156981579D01*
X107649000Y-156662609D01*
X107649000Y-156337391D01*
X107712447Y-156018421D01*
X107836903Y-155717958D01*
X108017585Y-155447549D01*
X108247549Y-155217585D01*
X108517958Y-155036903D01*
X108818421Y-154912447D01*
X108924744Y-154891298D01*
X109137389Y-154849000D01*
X109462611Y-154849000D01*
X109675256Y-154891298D01*
X109675256Y-154891298D01*
G37*
G36*
X64175256Y-150891298D02*
G01*
X64281579Y-150912447D01*
X64582042Y-151036903D01*
X64852451Y-151217585D01*
X65082415Y-151447549D01*
X65263097Y-151717958D01*
X65387553Y-152018421D01*
X65451000Y-152337391D01*
X65451000Y-152662609D01*
X65387553Y-152981579D01*
X65263097Y-153282042D01*
X65082415Y-153552451D01*
X64852451Y-153782415D01*
X64582042Y-153963097D01*
X64281579Y-154087553D01*
X64175256Y-154108702D01*
X63962611Y-154151000D01*
X63637389Y-154151000D01*
X63424744Y-154108702D01*
X63318421Y-154087553D01*
X63017958Y-153963097D01*
X62747549Y-153782415D01*
X62517585Y-153552451D01*
X62336903Y-153282042D01*
X62212447Y-152981579D01*
X62149000Y-152662609D01*
X62149000Y-152337391D01*
X62212447Y-152018421D01*
X62336903Y-151717958D01*
X62517585Y-151447549D01*
X62747549Y-151217585D01*
X63017958Y-151036903D01*
X63318421Y-150912447D01*
X63424744Y-150891298D01*
X63637389Y-150849000D01*
X63962611Y-150849000D01*
X64175256Y-150891298D01*
X64175256Y-150891298D01*
G37*
G36*
X105962865Y-145325855D02*
G01*
X106563608Y-145574691D01*
X106563610Y-145574692D01*
X107104265Y-145935946D01*
X107564054Y-146395735D01*
X107925308Y-146936390D01*
X107925309Y-146936392D01*
X108174145Y-147537135D01*
X108301000Y-148174879D01*
X108301000Y-148825121D01*
X108174145Y-149462865D01*
X107925309Y-150063608D01*
X107925308Y-150063610D01*
X107564054Y-150604265D01*
X107104265Y-151064054D01*
X106563610Y-151425308D01*
X106563609Y-151425309D01*
X106563608Y-151425309D01*
X105962865Y-151674145D01*
X105325121Y-151801000D01*
X104674879Y-151801000D01*
X104037135Y-151674145D01*
X103436392Y-151425309D01*
X103436391Y-151425309D01*
X103436390Y-151425308D01*
X102895735Y-151064054D01*
X102435946Y-150604265D01*
X102074692Y-150063610D01*
X102074691Y-150063608D01*
X101825855Y-149462865D01*
X101699000Y-148825121D01*
X101699000Y-148174879D01*
X101825855Y-147537135D01*
X102074691Y-146936392D01*
X102074692Y-146936390D01*
X102435946Y-146395735D01*
X102895735Y-145935946D01*
X103436390Y-145574692D01*
X103436392Y-145574691D01*
X104037135Y-145325855D01*
X104674879Y-145199000D01*
X105325121Y-145199000D01*
X105962865Y-145325855D01*
X105962865Y-145325855D01*
G37*
G36*
X64175256Y-143891298D02*
G01*
X64281579Y-143912447D01*
X64582042Y-144036903D01*
X64852451Y-144217585D01*
X65082415Y-144447549D01*
X65082416Y-144447551D01*
X65263098Y-144717960D01*
X65387553Y-145018422D01*
X65448706Y-145325855D01*
X65451000Y-145337391D01*
X65451000Y-145662609D01*
X65387553Y-145981579D01*
X65263097Y-146282042D01*
X65082415Y-146552451D01*
X64852451Y-146782415D01*
X64582042Y-146963097D01*
X64281579Y-147087553D01*
X64175256Y-147108702D01*
X63962611Y-147151000D01*
X63637389Y-147151000D01*
X63424744Y-147108702D01*
X63318421Y-147087553D01*
X63017958Y-146963097D01*
X62747549Y-146782415D01*
X62517585Y-146552451D01*
X62336903Y-146282042D01*
X62212447Y-145981579D01*
X62149000Y-145662609D01*
X62149000Y-145337391D01*
X62151295Y-145325855D01*
X62212447Y-145018422D01*
X62336902Y-144717960D01*
X62517584Y-144447551D01*
X62517585Y-144447549D01*
X62747549Y-144217585D01*
X63017958Y-144036903D01*
X63318421Y-143912447D01*
X63424744Y-143891298D01*
X63637389Y-143849000D01*
X63962611Y-143849000D01*
X64175256Y-143891298D01*
X64175256Y-143891298D01*
G37*
G36*
X105962865Y-134825855D02*
G01*
X106563608Y-135074691D01*
X106563610Y-135074692D01*
X107104265Y-135435946D01*
X107564054Y-135895735D01*
X107925308Y-136436390D01*
X107925309Y-136436392D01*
X108174145Y-137037135D01*
X108301000Y-137674879D01*
X108301000Y-138325121D01*
X108174145Y-138962865D01*
X107929931Y-139552449D01*
X107925308Y-139563610D01*
X107564054Y-140104265D01*
X107104265Y-140564054D01*
X106563610Y-140925308D01*
X106563609Y-140925309D01*
X106563608Y-140925309D01*
X105962865Y-141174145D01*
X105325121Y-141301000D01*
X104674879Y-141301000D01*
X104037135Y-141174145D01*
X103436392Y-140925309D01*
X103436391Y-140925309D01*
X103436390Y-140925308D01*
X102895735Y-140564054D01*
X102435946Y-140104265D01*
X102074692Y-139563610D01*
X102070069Y-139552449D01*
X101825855Y-138962865D01*
X101699000Y-138325121D01*
X101699000Y-137674879D01*
X101825855Y-137037135D01*
X102074691Y-136436392D01*
X102074692Y-136436390D01*
X102435946Y-135895735D01*
X102895735Y-135435946D01*
X103436390Y-135074692D01*
X103436392Y-135074691D01*
X104037135Y-134825855D01*
X104674879Y-134699000D01*
X105325121Y-134699000D01*
X105962865Y-134825855D01*
X105962865Y-134825855D01*
G37*
G36*
X64175256Y-136891298D02*
G01*
X64281579Y-136912447D01*
X64582042Y-137036903D01*
X64852451Y-137217585D01*
X65082415Y-137447549D01*
X65082416Y-137447551D01*
X65263098Y-137717960D01*
X65387553Y-138018422D01*
X65448560Y-138325121D01*
X65451000Y-138337391D01*
X65451000Y-138662609D01*
X65387553Y-138981579D01*
X65263097Y-139282042D01*
X65082415Y-139552451D01*
X64852451Y-139782415D01*
X64582042Y-139963097D01*
X64281579Y-140087553D01*
X64197567Y-140104264D01*
X63962611Y-140151000D01*
X63637389Y-140151000D01*
X63402433Y-140104264D01*
X63318421Y-140087553D01*
X63017958Y-139963097D01*
X62747549Y-139782415D01*
X62517585Y-139552451D01*
X62336903Y-139282042D01*
X62212447Y-138981579D01*
X62149000Y-138662609D01*
X62149000Y-138337391D01*
X62151441Y-138325121D01*
X62212447Y-138018422D01*
X62336902Y-137717960D01*
X62517584Y-137447551D01*
X62517585Y-137447549D01*
X62747549Y-137217585D01*
X63017958Y-137036903D01*
X63318421Y-136912447D01*
X63424744Y-136891298D01*
X63637389Y-136849000D01*
X63962611Y-136849000D01*
X64175256Y-136891298D01*
X64175256Y-136891298D01*
G37*
G36*
X64175256Y-129891298D02*
G01*
X64281579Y-129912447D01*
X64582042Y-130036903D01*
X64852451Y-130217585D01*
X65082415Y-130447549D01*
X65263097Y-130717958D01*
X65387553Y-131018421D01*
X65451000Y-131337391D01*
X65451000Y-131662609D01*
X65387553Y-131981579D01*
X65263097Y-132282042D01*
X65082415Y-132552451D01*
X64852451Y-132782415D01*
X64582042Y-132963097D01*
X64281579Y-133087553D01*
X64175256Y-133108702D01*
X63962611Y-133151000D01*
X63637389Y-133151000D01*
X63424744Y-133108702D01*
X63318421Y-133087553D01*
X63017958Y-132963097D01*
X62747549Y-132782415D01*
X62517585Y-132552451D01*
X62336903Y-132282042D01*
X62212447Y-131981579D01*
X62149000Y-131662609D01*
X62149000Y-131337391D01*
X62212447Y-131018421D01*
X62336903Y-130717958D01*
X62517585Y-130447549D01*
X62747549Y-130217585D01*
X63017958Y-130036903D01*
X63318421Y-129912447D01*
X63424744Y-129891298D01*
X63637389Y-129849000D01*
X63962611Y-129849000D01*
X64175256Y-129891298D01*
X64175256Y-129891298D01*
G37*
G36*
X105962865Y-123825855D02*
G01*
X106563608Y-124074691D01*
X106563610Y-124074692D01*
X107104265Y-124435946D01*
X107564054Y-124895735D01*
X107822176Y-125282042D01*
X107925309Y-125436392D01*
X108174145Y-126037135D01*
X108301000Y-126674879D01*
X108301000Y-127325121D01*
X108174145Y-127962865D01*
X107925309Y-128563608D01*
X107925308Y-128563610D01*
X107564054Y-129104265D01*
X107104265Y-129564054D01*
X106563610Y-129925308D01*
X106563609Y-129925309D01*
X106563608Y-129925309D01*
X105962865Y-130174145D01*
X105325121Y-130301000D01*
X104674879Y-130301000D01*
X104037135Y-130174145D01*
X103436392Y-129925309D01*
X103436391Y-129925309D01*
X103436390Y-129925308D01*
X102895735Y-129564054D01*
X102435946Y-129104265D01*
X102074692Y-128563610D01*
X102074691Y-128563608D01*
X101825855Y-127962865D01*
X101699000Y-127325121D01*
X101699000Y-126674879D01*
X101825855Y-126037135D01*
X102074691Y-125436392D01*
X102177824Y-125282042D01*
X102435946Y-124895735D01*
X102895735Y-124435946D01*
X103436390Y-124074692D01*
X103436392Y-124074691D01*
X104037135Y-123825855D01*
X104674879Y-123699000D01*
X105325121Y-123699000D01*
X105962865Y-123825855D01*
X105962865Y-123825855D01*
G37*
G36*
X64175256Y-122891298D02*
G01*
X64281579Y-122912447D01*
X64582042Y-123036903D01*
X64852451Y-123217585D01*
X65082415Y-123447549D01*
X65263097Y-123717958D01*
X65387553Y-124018421D01*
X65451000Y-124337391D01*
X65451000Y-124662609D01*
X65387553Y-124981579D01*
X65263097Y-125282042D01*
X65082415Y-125552451D01*
X64852451Y-125782415D01*
X64582042Y-125963097D01*
X64281579Y-126087553D01*
X64175256Y-126108702D01*
X63962611Y-126151000D01*
X63637389Y-126151000D01*
X63424744Y-126108702D01*
X63318421Y-126087553D01*
X63017958Y-125963097D01*
X62747549Y-125782415D01*
X62517585Y-125552451D01*
X62336903Y-125282042D01*
X62212447Y-124981579D01*
X62149000Y-124662609D01*
X62149000Y-124337391D01*
X62212447Y-124018421D01*
X62336903Y-123717958D01*
X62517585Y-123447549D01*
X62747549Y-123217585D01*
X63017958Y-123036903D01*
X63318421Y-122912447D01*
X63424744Y-122891298D01*
X63637389Y-122849000D01*
X63962611Y-122849000D01*
X64175256Y-122891298D01*
X64175256Y-122891298D01*
G37*
G36*
X64175256Y-115891298D02*
G01*
X64281579Y-115912447D01*
X64582042Y-116036903D01*
X64852451Y-116217585D01*
X65082415Y-116447549D01*
X65263097Y-116717958D01*
X65387553Y-117018421D01*
X65451000Y-117337391D01*
X65451000Y-117662609D01*
X65387553Y-117981579D01*
X65263097Y-118282042D01*
X65082415Y-118552451D01*
X64852451Y-118782415D01*
X64582042Y-118963097D01*
X64281579Y-119087553D01*
X64175256Y-119108702D01*
X63962611Y-119151000D01*
X63637389Y-119151000D01*
X63424744Y-119108702D01*
X63318421Y-119087553D01*
X63017958Y-118963097D01*
X62747549Y-118782415D01*
X62517585Y-118552451D01*
X62336903Y-118282042D01*
X62212447Y-117981579D01*
X62149000Y-117662609D01*
X62149000Y-117337391D01*
X62212447Y-117018421D01*
X62336903Y-116717958D01*
X62517585Y-116447549D01*
X62747549Y-116217585D01*
X63017958Y-116036903D01*
X63318421Y-115912447D01*
X63424744Y-115891298D01*
X63637389Y-115849000D01*
X63962611Y-115849000D01*
X64175256Y-115891298D01*
X64175256Y-115891298D01*
G37*
G36*
X106222030Y-109870114D02*
G01*
X106579542Y-109941227D01*
X107253081Y-110220216D01*
X107859250Y-110625245D01*
X108374755Y-111140750D01*
X108779784Y-111746919D01*
X109058773Y-112420458D01*
X109201000Y-113135483D01*
X109201000Y-113864517D01*
X109058773Y-114579542D01*
X108779784Y-115253081D01*
X108374755Y-115859250D01*
X107859250Y-116374755D01*
X107253081Y-116779784D01*
X106579542Y-117058773D01*
X106222029Y-117129887D01*
X105864518Y-117201000D01*
X105135482Y-117201000D01*
X104777971Y-117129887D01*
X104420458Y-117058773D01*
X103746919Y-116779784D01*
X103140750Y-116374755D01*
X102625245Y-115859250D01*
X102220216Y-115253081D01*
X101941227Y-114579542D01*
X101799000Y-113864517D01*
X101799000Y-113135483D01*
X101941227Y-112420458D01*
X102220216Y-111746919D01*
X102625245Y-111140750D01*
X103140750Y-110625245D01*
X103746919Y-110220216D01*
X104420458Y-109941227D01*
X104777970Y-109870114D01*
X105135482Y-109799000D01*
X105864518Y-109799000D01*
X106222030Y-109870114D01*
X106222030Y-109870114D01*
G37*
G36*
X64175256Y-108891298D02*
G01*
X64281579Y-108912447D01*
X64582042Y-109036903D01*
X64852451Y-109217585D01*
X65082415Y-109447549D01*
X65082416Y-109447551D01*
X65263098Y-109717960D01*
X65387553Y-110018422D01*
X65427693Y-110220216D01*
X65451000Y-110337391D01*
X65451000Y-110662609D01*
X65387553Y-110981579D01*
X65263097Y-111282042D01*
X65082415Y-111552451D01*
X64852451Y-111782415D01*
X64582042Y-111963097D01*
X64281579Y-112087553D01*
X64175256Y-112108702D01*
X63962611Y-112151000D01*
X63637389Y-112151000D01*
X63424744Y-112108702D01*
X63318421Y-112087553D01*
X63017958Y-111963097D01*
X62747549Y-111782415D01*
X62517585Y-111552451D01*
X62336903Y-111282042D01*
X62212447Y-110981579D01*
X62149000Y-110662609D01*
X62149000Y-110337391D01*
X62172308Y-110220216D01*
X62212447Y-110018422D01*
X62336902Y-109717960D01*
X62517584Y-109447551D01*
X62517585Y-109447549D01*
X62747549Y-109217585D01*
X63017958Y-109036903D01*
X63318421Y-108912447D01*
X63424744Y-108891298D01*
X63637389Y-108849000D01*
X63962611Y-108849000D01*
X64175256Y-108891298D01*
X64175256Y-108891298D01*
G37*
G36*
X64175256Y-101891298D02*
G01*
X64281579Y-101912447D01*
X64582042Y-102036903D01*
X64852451Y-102217585D01*
X65082415Y-102447549D01*
X65263097Y-102717958D01*
X65387553Y-103018421D01*
X65451000Y-103337391D01*
X65451000Y-103662609D01*
X65387553Y-103981579D01*
X65263097Y-104282042D01*
X65082415Y-104552451D01*
X64852451Y-104782415D01*
X64582042Y-104963097D01*
X64281579Y-105087553D01*
X64175256Y-105108702D01*
X63962611Y-105151000D01*
X63637389Y-105151000D01*
X63424744Y-105108702D01*
X63318421Y-105087553D01*
X63017958Y-104963097D01*
X62747549Y-104782415D01*
X62517585Y-104552451D01*
X62336903Y-104282042D01*
X62212447Y-103981579D01*
X62149000Y-103662609D01*
X62149000Y-103337391D01*
X62212447Y-103018421D01*
X62336903Y-102717958D01*
X62517585Y-102447549D01*
X62747549Y-102217585D01*
X63017958Y-102036903D01*
X63318421Y-101912447D01*
X63424744Y-101891298D01*
X63637389Y-101849000D01*
X63962611Y-101849000D01*
X64175256Y-101891298D01*
X64175256Y-101891298D01*
G37*
G36*
X106222030Y-92870114D02*
G01*
X106579542Y-92941227D01*
X107253081Y-93220216D01*
X107859250Y-93625245D01*
X108374755Y-94140750D01*
X108779784Y-94746919D01*
X109058773Y-95420458D01*
X109201000Y-96135483D01*
X109201000Y-96864517D01*
X109058773Y-97579542D01*
X108779784Y-98253081D01*
X108374755Y-98859250D01*
X107859250Y-99374755D01*
X107253081Y-99779784D01*
X106579542Y-100058773D01*
X106222030Y-100129886D01*
X105864518Y-100201000D01*
X105135482Y-100201000D01*
X104777970Y-100129886D01*
X104420458Y-100058773D01*
X103746919Y-99779784D01*
X103140750Y-99374755D01*
X102625245Y-98859250D01*
X102220216Y-98253081D01*
X101941227Y-97579542D01*
X101799000Y-96864517D01*
X101799000Y-96135483D01*
X101941227Y-95420458D01*
X102220216Y-94746919D01*
X102625245Y-94140750D01*
X103140750Y-93625245D01*
X103746919Y-93220216D01*
X104420458Y-92941227D01*
X104777970Y-92870114D01*
X105135482Y-92799000D01*
X105864518Y-92799000D01*
X106222030Y-92870114D01*
X106222030Y-92870114D01*
G37*
G36*
X64175256Y-94891298D02*
G01*
X64281579Y-94912447D01*
X64582042Y-95036903D01*
X64852451Y-95217585D01*
X65082415Y-95447549D01*
X65263097Y-95717958D01*
X65387553Y-96018421D01*
X65451000Y-96337391D01*
X65451000Y-96662609D01*
X65387553Y-96981579D01*
X65263097Y-97282042D01*
X65082415Y-97552451D01*
X64852451Y-97782415D01*
X64582042Y-97963097D01*
X64281579Y-98087553D01*
X64175256Y-98108702D01*
X63962611Y-98151000D01*
X63637389Y-98151000D01*
X63424744Y-98108702D01*
X63318421Y-98087553D01*
X63017958Y-97963097D01*
X62747549Y-97782415D01*
X62517585Y-97552451D01*
X62336903Y-97282042D01*
X62212447Y-96981579D01*
X62149000Y-96662609D01*
X62149000Y-96337391D01*
X62212447Y-96018421D01*
X62336903Y-95717958D01*
X62517585Y-95447549D01*
X62747549Y-95217585D01*
X63017958Y-95036903D01*
X63318421Y-94912447D01*
X63424744Y-94891298D01*
X63637389Y-94849000D01*
X63962611Y-94849000D01*
X64175256Y-94891298D01*
X64175256Y-94891298D01*
G37*
G36*
X64175256Y-87891298D02*
G01*
X64281579Y-87912447D01*
X64582042Y-88036903D01*
X64852451Y-88217585D01*
X65082415Y-88447549D01*
X65263097Y-88717958D01*
X65387553Y-89018421D01*
X65451000Y-89337391D01*
X65451000Y-89662609D01*
X65387553Y-89981579D01*
X65263097Y-90282042D01*
X65082415Y-90552451D01*
X64852451Y-90782415D01*
X64582042Y-90963097D01*
X64281579Y-91087553D01*
X64175256Y-91108702D01*
X63962611Y-91151000D01*
X63637389Y-91151000D01*
X63424744Y-91108702D01*
X63318421Y-91087553D01*
X63017958Y-90963097D01*
X62747549Y-90782415D01*
X62517585Y-90552451D01*
X62336903Y-90282042D01*
X62212447Y-89981579D01*
X62149000Y-89662609D01*
X62149000Y-89337391D01*
X62212447Y-89018421D01*
X62336903Y-88717958D01*
X62517585Y-88447549D01*
X62747549Y-88217585D01*
X63017958Y-88036903D01*
X63318421Y-87912447D01*
X63424744Y-87891298D01*
X63637389Y-87849000D01*
X63962611Y-87849000D01*
X64175256Y-87891298D01*
X64175256Y-87891298D01*
G37*
G36*
X64175256Y-80891298D02*
G01*
X64281579Y-80912447D01*
X64582042Y-81036903D01*
X64852451Y-81217585D01*
X65082415Y-81447549D01*
X65263097Y-81717958D01*
X65328045Y-81874755D01*
X65387553Y-82018422D01*
X65439542Y-82279784D01*
X65451000Y-82337391D01*
X65451000Y-82662609D01*
X65387553Y-82981579D01*
X65263097Y-83282042D01*
X65082415Y-83552451D01*
X64852451Y-83782415D01*
X64582042Y-83963097D01*
X64281579Y-84087553D01*
X64175256Y-84108702D01*
X63962611Y-84151000D01*
X63637389Y-84151000D01*
X63424744Y-84108702D01*
X63318421Y-84087553D01*
X63017958Y-83963097D01*
X62747549Y-83782415D01*
X62517585Y-83552451D01*
X62336903Y-83282042D01*
X62212447Y-82981579D01*
X62149000Y-82662609D01*
X62149000Y-82337391D01*
X62160459Y-82279784D01*
X62212447Y-82018422D01*
X62271956Y-81874755D01*
X62336903Y-81717958D01*
X62517585Y-81447549D01*
X62747549Y-81217585D01*
X63017958Y-81036903D01*
X63318421Y-80912447D01*
X63424744Y-80891298D01*
X63637389Y-80849000D01*
X63962611Y-80849000D01*
X64175256Y-80891298D01*
X64175256Y-80891298D01*
G37*
G36*
X106222029Y-75370113D02*
G01*
X106579542Y-75441227D01*
X107253081Y-75720216D01*
X107859250Y-76125245D01*
X108374755Y-76640750D01*
X108779784Y-77246919D01*
X109058773Y-77920458D01*
X109201000Y-78635483D01*
X109201000Y-79364517D01*
X109058773Y-80079542D01*
X108779784Y-80753081D01*
X108374755Y-81359250D01*
X107859250Y-81874755D01*
X107253081Y-82279784D01*
X106579542Y-82558773D01*
X106222029Y-82629887D01*
X105864518Y-82701000D01*
X105135482Y-82701000D01*
X104777971Y-82629887D01*
X104420458Y-82558773D01*
X103746919Y-82279784D01*
X103140750Y-81874755D01*
X102625245Y-81359250D01*
X102220216Y-80753081D01*
X101941227Y-80079542D01*
X101799000Y-79364517D01*
X101799000Y-78635483D01*
X101941227Y-77920458D01*
X102220216Y-77246919D01*
X102625245Y-76640750D01*
X103140750Y-76125245D01*
X103746919Y-75720216D01*
X104420458Y-75441227D01*
X104777971Y-75370113D01*
X105135482Y-75299000D01*
X105864518Y-75299000D01*
X106222029Y-75370113D01*
X106222029Y-75370113D01*
G37*
G36*
X64375256Y-71891298D02*
G01*
X64481579Y-71912447D01*
X64782042Y-72036903D01*
X65052451Y-72217585D01*
X65282415Y-72447549D01*
X65463097Y-72717958D01*
X65587553Y-73018421D01*
X65651000Y-73337391D01*
X65651000Y-73662609D01*
X65587553Y-73981579D01*
X65463097Y-74282042D01*
X65282415Y-74552451D01*
X65052451Y-74782415D01*
X64782042Y-74963097D01*
X64481579Y-75087553D01*
X64375256Y-75108702D01*
X64162611Y-75151000D01*
X63837389Y-75151000D01*
X63624744Y-75108702D01*
X63518421Y-75087553D01*
X63217958Y-74963097D01*
X62947549Y-74782415D01*
X62717585Y-74552451D01*
X62536903Y-74282042D01*
X62412447Y-73981579D01*
X62349000Y-73662609D01*
X62349000Y-73337391D01*
X62412447Y-73018421D01*
X62536903Y-72717958D01*
X62717585Y-72447549D01*
X62947549Y-72217585D01*
X63217958Y-72036903D01*
X63518421Y-71912447D01*
X63624744Y-71891298D01*
X63837389Y-71849000D01*
X64162611Y-71849000D01*
X64375256Y-71891298D01*
X64375256Y-71891298D01*
G37*
G36*
X91375256Y-71891298D02*
G01*
X91481579Y-71912447D01*
X91782042Y-72036903D01*
X92052451Y-72217585D01*
X92282415Y-72447549D01*
X92463097Y-72717958D01*
X92587553Y-73018421D01*
X92651000Y-73337391D01*
X92651000Y-73662609D01*
X92587553Y-73981579D01*
X92463097Y-74282042D01*
X92282415Y-74552451D01*
X92052451Y-74782415D01*
X91782042Y-74963097D01*
X91481579Y-75087553D01*
X91375256Y-75108702D01*
X91162611Y-75151000D01*
X90837389Y-75151000D01*
X90624744Y-75108702D01*
X90518421Y-75087553D01*
X90217958Y-74963097D01*
X89947549Y-74782415D01*
X89717585Y-74552451D01*
X89536903Y-74282042D01*
X89412447Y-73981579D01*
X89349000Y-73662609D01*
X89349000Y-73337391D01*
X89412447Y-73018421D01*
X89536903Y-72717958D01*
X89717585Y-72447549D01*
X89947549Y-72217585D01*
X90217958Y-72036903D01*
X90518421Y-71912447D01*
X90624744Y-71891298D01*
X90837389Y-71849000D01*
X91162611Y-71849000D01*
X91375256Y-71891298D01*
X91375256Y-71891298D01*
G37*
G36*
X68244098Y-60547033D02*
G01*
X68708350Y-60739332D01*
X68708352Y-60739333D01*
X69126168Y-61018509D01*
X69481491Y-61373832D01*
X69760667Y-61791648D01*
X69760668Y-61791650D01*
X69952967Y-62255902D01*
X70051000Y-62748747D01*
X70051000Y-63251253D01*
X69952967Y-63744098D01*
X69760668Y-64208350D01*
X69760667Y-64208352D01*
X69481491Y-64626168D01*
X69126168Y-64981491D01*
X68708352Y-65260667D01*
X68708351Y-65260668D01*
X68708350Y-65260668D01*
X68244098Y-65452967D01*
X67751253Y-65551000D01*
X67248747Y-65551000D01*
X66755902Y-65452967D01*
X66291650Y-65260668D01*
X66291649Y-65260668D01*
X66291648Y-65260667D01*
X65873832Y-64981491D01*
X65518509Y-64626168D01*
X65239333Y-64208352D01*
X65239332Y-64208350D01*
X65047033Y-63744098D01*
X64949000Y-63251253D01*
X64949000Y-62748747D01*
X65047033Y-62255902D01*
X65239332Y-61791650D01*
X65239333Y-61791648D01*
X65518509Y-61373832D01*
X65873832Y-61018509D01*
X66291648Y-60739333D01*
X66291650Y-60739332D01*
X66755902Y-60547033D01*
X67248747Y-60449000D01*
X67751253Y-60449000D01*
X68244098Y-60547033D01*
X68244098Y-60547033D01*
G37*
G36*
X108884098Y-60547033D02*
G01*
X109348350Y-60739332D01*
X109348352Y-60739333D01*
X109766168Y-61018509D01*
X110121491Y-61373832D01*
X110400667Y-61791648D01*
X110400668Y-61791650D01*
X110592967Y-62255902D01*
X110691000Y-62748747D01*
X110691000Y-63251253D01*
X110592967Y-63744098D01*
X110400668Y-64208350D01*
X110400667Y-64208352D01*
X110121491Y-64626168D01*
X109766168Y-64981491D01*
X109348352Y-65260667D01*
X109348351Y-65260668D01*
X109348350Y-65260668D01*
X108884098Y-65452967D01*
X108391253Y-65551000D01*
X107888747Y-65551000D01*
X107395902Y-65452967D01*
X106931650Y-65260668D01*
X106931649Y-65260668D01*
X106931648Y-65260667D01*
X106513832Y-64981491D01*
X106158509Y-64626168D01*
X105879333Y-64208352D01*
X105879332Y-64208350D01*
X105687033Y-63744098D01*
X105589000Y-63251253D01*
X105589000Y-62748747D01*
X105687033Y-62255902D01*
X105879332Y-61791650D01*
X105879333Y-61791648D01*
X106158509Y-61373832D01*
X106513832Y-61018509D01*
X106931648Y-60739333D01*
X106931650Y-60739332D01*
X107395902Y-60547033D01*
X107888747Y-60449000D01*
X108391253Y-60449000D01*
X108884098Y-60547033D01*
X108884098Y-60547033D01*
G37*
M02*
