G04 #@! TF.GenerationSoftware,KiCad,Pcbnew,(5.1.2)-1*
G04 #@! TF.CreationDate,2019-05-24T12:58:06-07:00*
G04 #@! TF.ProjectId,panel,70616e65-6c2e-46b6-9963-61645f706362,rev?*
G04 #@! TF.SameCoordinates,Original*
G04 #@! TF.FileFunction,Copper,L2,Bot*
G04 #@! TF.FilePolarity,Positive*
%FSLAX46Y46*%
G04 Gerber Fmt 4.6, Leading zero omitted, Abs format (unit mm)*
G04 Created by KiCad (PCBNEW (5.1.2)-1) date 2019-05-24 12:58:06*
%MOMM*%
%LPD*%
G04 APERTURE LIST*
%ADD10C,0.100000*%
%ADD11C,5.000000*%
%ADD12C,0.254000*%
G04 APERTURE END LIST*
D10*
G36*
X106872521Y-165506019D02*
G01*
X106993863Y-165524018D01*
X107112856Y-165553825D01*
X107228354Y-165595151D01*
X107339246Y-165647598D01*
X107444463Y-165710663D01*
X107542992Y-165783737D01*
X107633883Y-165866117D01*
X107716263Y-165957008D01*
X107789337Y-166055537D01*
X107852402Y-166160754D01*
X107904849Y-166271646D01*
X107946175Y-166387144D01*
X107975982Y-166506137D01*
X107993981Y-166627479D01*
X108000000Y-166750000D01*
X108000000Y-173250000D01*
X107993981Y-173372521D01*
X107975982Y-173493863D01*
X107946175Y-173612856D01*
X107904849Y-173728354D01*
X107852402Y-173839246D01*
X107789337Y-173944463D01*
X107716263Y-174042992D01*
X107633883Y-174133883D01*
X107542992Y-174216263D01*
X107444463Y-174289337D01*
X107339246Y-174352402D01*
X107228354Y-174404849D01*
X107112856Y-174446175D01*
X106993863Y-174475982D01*
X106872521Y-174493981D01*
X106750000Y-174500000D01*
X104250000Y-174500000D01*
X104127479Y-174493981D01*
X104006137Y-174475982D01*
X103887144Y-174446175D01*
X103771646Y-174404849D01*
X103660754Y-174352402D01*
X103555537Y-174289337D01*
X103457008Y-174216263D01*
X103366117Y-174133883D01*
X103283737Y-174042992D01*
X103210663Y-173944463D01*
X103147598Y-173839246D01*
X103095151Y-173728354D01*
X103053825Y-173612856D01*
X103024018Y-173493863D01*
X103006019Y-173372521D01*
X103000000Y-173250000D01*
X103000000Y-166750000D01*
X103006019Y-166627479D01*
X103024018Y-166506137D01*
X103053825Y-166387144D01*
X103095151Y-166271646D01*
X103147598Y-166160754D01*
X103210663Y-166055537D01*
X103283737Y-165957008D01*
X103366117Y-165866117D01*
X103457008Y-165783737D01*
X103555537Y-165710663D01*
X103660754Y-165647598D01*
X103771646Y-165595151D01*
X103887144Y-165553825D01*
X104006137Y-165524018D01*
X104127479Y-165506019D01*
X104250000Y-165500000D01*
X106750000Y-165500000D01*
X106872521Y-165506019D01*
X106872521Y-165506019D01*
G37*
D11*
X105500000Y-170000000D03*
X67500000Y-63000000D03*
X67500000Y-185500000D03*
X108140000Y-185500000D03*
X108140000Y-63000000D03*
D12*
G36*
X65476457Y-60796852D02*
G01*
X67500000Y-62820395D01*
X69523543Y-60796852D01*
X69449638Y-60685000D01*
X106190362Y-60685000D01*
X106116457Y-60796852D01*
X108140000Y-62820395D01*
X110163543Y-60796852D01*
X110089638Y-60685000D01*
X114315001Y-60685000D01*
X114315000Y-187815000D01*
X110089638Y-187815000D01*
X110163543Y-187703148D01*
X108140000Y-185679605D01*
X106116457Y-187703148D01*
X106190362Y-187815000D01*
X69449638Y-187815000D01*
X69523543Y-187703148D01*
X67500000Y-185679605D01*
X65476457Y-187703148D01*
X65550362Y-187815000D01*
X60685000Y-187815000D01*
X60685000Y-185503328D01*
X64349832Y-185503328D01*
X64411010Y-186117831D01*
X64590897Y-186708592D01*
X64878882Y-187247373D01*
X65296852Y-187523543D01*
X67320395Y-185500000D01*
X67679605Y-185500000D01*
X69703148Y-187523543D01*
X70121118Y-187247373D01*
X70411649Y-186702443D01*
X70590287Y-186111304D01*
X70649519Y-185503328D01*
X104989832Y-185503328D01*
X105051010Y-186117831D01*
X105230897Y-186708592D01*
X105518882Y-187247373D01*
X105936852Y-187523543D01*
X107960395Y-185500000D01*
X108319605Y-185500000D01*
X110343148Y-187523543D01*
X110761118Y-187247373D01*
X111051649Y-186702443D01*
X111230287Y-186111304D01*
X111290168Y-185496672D01*
X111228990Y-184882169D01*
X111049103Y-184291408D01*
X110761118Y-183752627D01*
X110343148Y-183476457D01*
X108319605Y-185500000D01*
X107960395Y-185500000D01*
X105936852Y-183476457D01*
X105518882Y-183752627D01*
X105228351Y-184297557D01*
X105049713Y-184888696D01*
X104989832Y-185503328D01*
X70649519Y-185503328D01*
X70650168Y-185496672D01*
X70588990Y-184882169D01*
X70409103Y-184291408D01*
X70121118Y-183752627D01*
X69703148Y-183476457D01*
X67679605Y-185500000D01*
X67320395Y-185500000D01*
X65296852Y-183476457D01*
X64878882Y-183752627D01*
X64588351Y-184297557D01*
X64409713Y-184888696D01*
X64349832Y-185503328D01*
X60685000Y-185503328D01*
X60685000Y-183296852D01*
X65476457Y-183296852D01*
X67500000Y-185320395D01*
X69523543Y-183296852D01*
X106116457Y-183296852D01*
X108140000Y-185320395D01*
X110163543Y-183296852D01*
X109887373Y-182878882D01*
X109342443Y-182588351D01*
X108751304Y-182409713D01*
X108136672Y-182349832D01*
X107522169Y-182411010D01*
X106931408Y-182590897D01*
X106392627Y-182878882D01*
X106116457Y-183296852D01*
X69523543Y-183296852D01*
X69247373Y-182878882D01*
X68702443Y-182588351D01*
X68111304Y-182409713D01*
X67496672Y-182349832D01*
X66882169Y-182411010D01*
X66291408Y-182590897D01*
X65752627Y-182878882D01*
X65476457Y-183296852D01*
X60685000Y-183296852D01*
X60685000Y-174500000D01*
X102361928Y-174500000D01*
X102374188Y-174624482D01*
X102410498Y-174744180D01*
X102469463Y-174854494D01*
X102548815Y-174951185D01*
X102645506Y-175030537D01*
X102755820Y-175089502D01*
X102875518Y-175125812D01*
X103000000Y-175138072D01*
X105214250Y-175135000D01*
X105373000Y-174976250D01*
X105373000Y-170127000D01*
X105627000Y-170127000D01*
X105627000Y-174976250D01*
X105785750Y-175135000D01*
X108000000Y-175138072D01*
X108124482Y-175125812D01*
X108244180Y-175089502D01*
X108354494Y-175030537D01*
X108451185Y-174951185D01*
X108530537Y-174854494D01*
X108589502Y-174744180D01*
X108625812Y-174624482D01*
X108638072Y-174500000D01*
X108635000Y-170285750D01*
X108476250Y-170127000D01*
X105627000Y-170127000D01*
X105373000Y-170127000D01*
X102523750Y-170127000D01*
X102365000Y-170285750D01*
X102361928Y-174500000D01*
X60685000Y-174500000D01*
X60685000Y-168068115D01*
X73115000Y-168068115D01*
X73115000Y-168931885D01*
X73283513Y-169779057D01*
X73614064Y-170577076D01*
X74093948Y-171295274D01*
X74704726Y-171906052D01*
X75422924Y-172385936D01*
X76220943Y-172716487D01*
X77068115Y-172885000D01*
X77931885Y-172885000D01*
X78779057Y-172716487D01*
X79577076Y-172385936D01*
X80295274Y-171906052D01*
X80906052Y-171295274D01*
X81385936Y-170577076D01*
X81716487Y-169779057D01*
X81885000Y-168931885D01*
X81885000Y-168068115D01*
X81716487Y-167220943D01*
X81385936Y-166422924D01*
X80906052Y-165704726D01*
X80701326Y-165500000D01*
X102361928Y-165500000D01*
X102365000Y-169714250D01*
X102523750Y-169873000D01*
X105373000Y-169873000D01*
X105373000Y-165023750D01*
X105627000Y-165023750D01*
X105627000Y-169873000D01*
X108476250Y-169873000D01*
X108635000Y-169714250D01*
X108638072Y-165500000D01*
X108625812Y-165375518D01*
X108589502Y-165255820D01*
X108530537Y-165145506D01*
X108451185Y-165048815D01*
X108354494Y-164969463D01*
X108244180Y-164910498D01*
X108124482Y-164874188D01*
X108000000Y-164861928D01*
X105785750Y-164865000D01*
X105627000Y-165023750D01*
X105373000Y-165023750D01*
X105214250Y-164865000D01*
X103000000Y-164861928D01*
X102875518Y-164874188D01*
X102755820Y-164910498D01*
X102645506Y-164969463D01*
X102548815Y-165048815D01*
X102469463Y-165145506D01*
X102410498Y-165255820D01*
X102374188Y-165375518D01*
X102361928Y-165500000D01*
X80701326Y-165500000D01*
X80295274Y-165093948D01*
X79577076Y-164614064D01*
X78779057Y-164283513D01*
X77931885Y-164115000D01*
X77068115Y-164115000D01*
X76220943Y-164283513D01*
X75422924Y-164614064D01*
X74704726Y-165093948D01*
X74093948Y-165704726D01*
X73614064Y-166422924D01*
X73283513Y-167220943D01*
X73115000Y-168068115D01*
X60685000Y-168068115D01*
X60685000Y-159279872D01*
X63015000Y-159279872D01*
X63015000Y-159720128D01*
X63100890Y-160151925D01*
X63269369Y-160558669D01*
X63513962Y-160924729D01*
X63825271Y-161236038D01*
X64191331Y-161480631D01*
X64598075Y-161649110D01*
X65029872Y-161735000D01*
X65470128Y-161735000D01*
X65901925Y-161649110D01*
X66308669Y-161480631D01*
X66674729Y-161236038D01*
X66986038Y-160924729D01*
X67230631Y-160558669D01*
X67399110Y-160151925D01*
X67485000Y-159720128D01*
X67485000Y-159279872D01*
X67399110Y-158848075D01*
X67230631Y-158441331D01*
X66986038Y-158075271D01*
X66674729Y-157763962D01*
X66308669Y-157519369D01*
X65901925Y-157350890D01*
X65470128Y-157265000D01*
X65029872Y-157265000D01*
X64598075Y-157350890D01*
X64191331Y-157519369D01*
X63825271Y-157763962D01*
X63513962Y-158075271D01*
X63269369Y-158441331D01*
X63100890Y-158848075D01*
X63015000Y-159279872D01*
X60685000Y-159279872D01*
X60685000Y-156279872D01*
X107065000Y-156279872D01*
X107065000Y-156720128D01*
X107150890Y-157151925D01*
X107319369Y-157558669D01*
X107563962Y-157924729D01*
X107875271Y-158236038D01*
X108241331Y-158480631D01*
X108648075Y-158649110D01*
X109079872Y-158735000D01*
X109520128Y-158735000D01*
X109951925Y-158649110D01*
X110358669Y-158480631D01*
X110724729Y-158236038D01*
X111036038Y-157924729D01*
X111280631Y-157558669D01*
X111449110Y-157151925D01*
X111535000Y-156720128D01*
X111535000Y-156279872D01*
X111449110Y-155848075D01*
X111280631Y-155441331D01*
X111036038Y-155075271D01*
X110724729Y-154763962D01*
X110358669Y-154519369D01*
X109951925Y-154350890D01*
X109520128Y-154265000D01*
X109079872Y-154265000D01*
X108648075Y-154350890D01*
X108241331Y-154519369D01*
X107875271Y-154763962D01*
X107563962Y-155075271D01*
X107319369Y-155441331D01*
X107150890Y-155848075D01*
X107065000Y-156279872D01*
X60685000Y-156279872D01*
X60685000Y-152279872D01*
X63015000Y-152279872D01*
X63015000Y-152720128D01*
X63100890Y-153151925D01*
X63269369Y-153558669D01*
X63513962Y-153924729D01*
X63825271Y-154236038D01*
X64191331Y-154480631D01*
X64598075Y-154649110D01*
X65029872Y-154735000D01*
X65470128Y-154735000D01*
X65901925Y-154649110D01*
X66308669Y-154480631D01*
X66674729Y-154236038D01*
X66986038Y-153924729D01*
X67230631Y-153558669D01*
X67399110Y-153151925D01*
X67485000Y-152720128D01*
X67485000Y-152279872D01*
X67399110Y-151848075D01*
X67230631Y-151441331D01*
X66986038Y-151075271D01*
X66674729Y-150763962D01*
X66308669Y-150519369D01*
X65901925Y-150350890D01*
X65470128Y-150265000D01*
X65029872Y-150265000D01*
X64598075Y-150350890D01*
X64191331Y-150519369D01*
X63825271Y-150763962D01*
X63513962Y-151075271D01*
X63269369Y-151441331D01*
X63100890Y-151848075D01*
X63015000Y-152279872D01*
X60685000Y-152279872D01*
X60685000Y-148117361D01*
X101115000Y-148117361D01*
X101115000Y-148882639D01*
X101264298Y-149633213D01*
X101557158Y-150340238D01*
X101982323Y-150976543D01*
X102523457Y-151517677D01*
X103159762Y-151942842D01*
X103866787Y-152235702D01*
X104617361Y-152385000D01*
X105382639Y-152385000D01*
X106133213Y-152235702D01*
X106840238Y-151942842D01*
X107476543Y-151517677D01*
X108017677Y-150976543D01*
X108442842Y-150340238D01*
X108735702Y-149633213D01*
X108885000Y-148882639D01*
X108885000Y-148117361D01*
X108735702Y-147366787D01*
X108442842Y-146659762D01*
X108017677Y-146023457D01*
X107476543Y-145482323D01*
X106840238Y-145057158D01*
X106133213Y-144764298D01*
X105382639Y-144615000D01*
X104617361Y-144615000D01*
X103866787Y-144764298D01*
X103159762Y-145057158D01*
X102523457Y-145482323D01*
X101982323Y-146023457D01*
X101557158Y-146659762D01*
X101264298Y-147366787D01*
X101115000Y-148117361D01*
X60685000Y-148117361D01*
X60685000Y-145279872D01*
X63015000Y-145279872D01*
X63015000Y-145720128D01*
X63100890Y-146151925D01*
X63269369Y-146558669D01*
X63513962Y-146924729D01*
X63825271Y-147236038D01*
X64191331Y-147480631D01*
X64598075Y-147649110D01*
X65029872Y-147735000D01*
X65470128Y-147735000D01*
X65901925Y-147649110D01*
X66308669Y-147480631D01*
X66674729Y-147236038D01*
X66986038Y-146924729D01*
X67230631Y-146558669D01*
X67399110Y-146151925D01*
X67485000Y-145720128D01*
X67485000Y-145279872D01*
X67399110Y-144848075D01*
X67230631Y-144441331D01*
X66986038Y-144075271D01*
X66674729Y-143763962D01*
X66308669Y-143519369D01*
X65901925Y-143350890D01*
X65470128Y-143265000D01*
X65029872Y-143265000D01*
X64598075Y-143350890D01*
X64191331Y-143519369D01*
X63825271Y-143763962D01*
X63513962Y-144075271D01*
X63269369Y-144441331D01*
X63100890Y-144848075D01*
X63015000Y-145279872D01*
X60685000Y-145279872D01*
X60685000Y-138279872D01*
X63015000Y-138279872D01*
X63015000Y-138720128D01*
X63100890Y-139151925D01*
X63269369Y-139558669D01*
X63513962Y-139924729D01*
X63825271Y-140236038D01*
X64191331Y-140480631D01*
X64598075Y-140649110D01*
X65029872Y-140735000D01*
X65470128Y-140735000D01*
X65901925Y-140649110D01*
X66308669Y-140480631D01*
X66674729Y-140236038D01*
X66986038Y-139924729D01*
X67230631Y-139558669D01*
X67399110Y-139151925D01*
X67485000Y-138720128D01*
X67485000Y-138279872D01*
X67399110Y-137848075D01*
X67303546Y-137617361D01*
X101115000Y-137617361D01*
X101115000Y-138382639D01*
X101264298Y-139133213D01*
X101557158Y-139840238D01*
X101982323Y-140476543D01*
X102523457Y-141017677D01*
X103159762Y-141442842D01*
X103866787Y-141735702D01*
X104617361Y-141885000D01*
X105382639Y-141885000D01*
X106133213Y-141735702D01*
X106840238Y-141442842D01*
X107476543Y-141017677D01*
X108017677Y-140476543D01*
X108442842Y-139840238D01*
X108735702Y-139133213D01*
X108885000Y-138382639D01*
X108885000Y-137617361D01*
X108735702Y-136866787D01*
X108442842Y-136159762D01*
X108017677Y-135523457D01*
X107476543Y-134982323D01*
X106840238Y-134557158D01*
X106133213Y-134264298D01*
X105382639Y-134115000D01*
X104617361Y-134115000D01*
X103866787Y-134264298D01*
X103159762Y-134557158D01*
X102523457Y-134982323D01*
X101982323Y-135523457D01*
X101557158Y-136159762D01*
X101264298Y-136866787D01*
X101115000Y-137617361D01*
X67303546Y-137617361D01*
X67230631Y-137441331D01*
X66986038Y-137075271D01*
X66674729Y-136763962D01*
X66308669Y-136519369D01*
X65901925Y-136350890D01*
X65470128Y-136265000D01*
X65029872Y-136265000D01*
X64598075Y-136350890D01*
X64191331Y-136519369D01*
X63825271Y-136763962D01*
X63513962Y-137075271D01*
X63269369Y-137441331D01*
X63100890Y-137848075D01*
X63015000Y-138279872D01*
X60685000Y-138279872D01*
X60685000Y-131279872D01*
X63015000Y-131279872D01*
X63015000Y-131720128D01*
X63100890Y-132151925D01*
X63269369Y-132558669D01*
X63513962Y-132924729D01*
X63825271Y-133236038D01*
X64191331Y-133480631D01*
X64598075Y-133649110D01*
X65029872Y-133735000D01*
X65470128Y-133735000D01*
X65901925Y-133649110D01*
X66308669Y-133480631D01*
X66674729Y-133236038D01*
X66986038Y-132924729D01*
X67230631Y-132558669D01*
X67399110Y-132151925D01*
X67485000Y-131720128D01*
X67485000Y-131279872D01*
X67399110Y-130848075D01*
X67230631Y-130441331D01*
X66986038Y-130075271D01*
X66674729Y-129763962D01*
X66308669Y-129519369D01*
X65901925Y-129350890D01*
X65470128Y-129265000D01*
X65029872Y-129265000D01*
X64598075Y-129350890D01*
X64191331Y-129519369D01*
X63825271Y-129763962D01*
X63513962Y-130075271D01*
X63269369Y-130441331D01*
X63100890Y-130848075D01*
X63015000Y-131279872D01*
X60685000Y-131279872D01*
X60685000Y-124279872D01*
X63015000Y-124279872D01*
X63015000Y-124720128D01*
X63100890Y-125151925D01*
X63269369Y-125558669D01*
X63513962Y-125924729D01*
X63825271Y-126236038D01*
X64191331Y-126480631D01*
X64598075Y-126649110D01*
X65029872Y-126735000D01*
X65470128Y-126735000D01*
X65901925Y-126649110D01*
X65978573Y-126617361D01*
X101115000Y-126617361D01*
X101115000Y-127382639D01*
X101264298Y-128133213D01*
X101557158Y-128840238D01*
X101982323Y-129476543D01*
X102523457Y-130017677D01*
X103159762Y-130442842D01*
X103866787Y-130735702D01*
X104617361Y-130885000D01*
X105382639Y-130885000D01*
X106133213Y-130735702D01*
X106840238Y-130442842D01*
X107476543Y-130017677D01*
X108017677Y-129476543D01*
X108442842Y-128840238D01*
X108735702Y-128133213D01*
X108885000Y-127382639D01*
X108885000Y-126617361D01*
X108735702Y-125866787D01*
X108442842Y-125159762D01*
X108017677Y-124523457D01*
X107476543Y-123982323D01*
X106840238Y-123557158D01*
X106133213Y-123264298D01*
X105382639Y-123115000D01*
X104617361Y-123115000D01*
X103866787Y-123264298D01*
X103159762Y-123557158D01*
X102523457Y-123982323D01*
X101982323Y-124523457D01*
X101557158Y-125159762D01*
X101264298Y-125866787D01*
X101115000Y-126617361D01*
X65978573Y-126617361D01*
X66308669Y-126480631D01*
X66674729Y-126236038D01*
X66986038Y-125924729D01*
X67230631Y-125558669D01*
X67399110Y-125151925D01*
X67485000Y-124720128D01*
X67485000Y-124279872D01*
X67399110Y-123848075D01*
X67230631Y-123441331D01*
X66986038Y-123075271D01*
X66674729Y-122763962D01*
X66308669Y-122519369D01*
X65901925Y-122350890D01*
X65470128Y-122265000D01*
X65029872Y-122265000D01*
X64598075Y-122350890D01*
X64191331Y-122519369D01*
X63825271Y-122763962D01*
X63513962Y-123075271D01*
X63269369Y-123441331D01*
X63100890Y-123848075D01*
X63015000Y-124279872D01*
X60685000Y-124279872D01*
X60685000Y-117279872D01*
X63015000Y-117279872D01*
X63015000Y-117720128D01*
X63100890Y-118151925D01*
X63269369Y-118558669D01*
X63513962Y-118924729D01*
X63825271Y-119236038D01*
X64191331Y-119480631D01*
X64598075Y-119649110D01*
X65029872Y-119735000D01*
X65470128Y-119735000D01*
X65901925Y-119649110D01*
X66308669Y-119480631D01*
X66674729Y-119236038D01*
X66986038Y-118924729D01*
X67230631Y-118558669D01*
X67399110Y-118151925D01*
X67485000Y-117720128D01*
X67485000Y-117279872D01*
X67399110Y-116848075D01*
X67230631Y-116441331D01*
X66986038Y-116075271D01*
X66674729Y-115763962D01*
X66308669Y-115519369D01*
X65901925Y-115350890D01*
X65470128Y-115265000D01*
X65029872Y-115265000D01*
X64598075Y-115350890D01*
X64191331Y-115519369D01*
X63825271Y-115763962D01*
X63513962Y-116075271D01*
X63269369Y-116441331D01*
X63100890Y-116848075D01*
X63015000Y-117279872D01*
X60685000Y-117279872D01*
X60685000Y-113117361D01*
X98115000Y-113117361D01*
X98115000Y-113882639D01*
X98264298Y-114633213D01*
X98557158Y-115340238D01*
X98982323Y-115976543D01*
X99523457Y-116517677D01*
X100159762Y-116942842D01*
X100866787Y-117235702D01*
X101617361Y-117385000D01*
X102382639Y-117385000D01*
X103133213Y-117235702D01*
X103840238Y-116942842D01*
X104476543Y-116517677D01*
X105017677Y-115976543D01*
X105442842Y-115340238D01*
X105735702Y-114633213D01*
X105885000Y-113882639D01*
X105885000Y-113117361D01*
X105735702Y-112366787D01*
X105442842Y-111659762D01*
X105017677Y-111023457D01*
X104476543Y-110482323D01*
X103840238Y-110057158D01*
X103133213Y-109764298D01*
X102382639Y-109615000D01*
X101617361Y-109615000D01*
X100866787Y-109764298D01*
X100159762Y-110057158D01*
X99523457Y-110482323D01*
X98982323Y-111023457D01*
X98557158Y-111659762D01*
X98264298Y-112366787D01*
X98115000Y-113117361D01*
X60685000Y-113117361D01*
X60685000Y-110279872D01*
X63015000Y-110279872D01*
X63015000Y-110720128D01*
X63100890Y-111151925D01*
X63269369Y-111558669D01*
X63513962Y-111924729D01*
X63825271Y-112236038D01*
X64191331Y-112480631D01*
X64598075Y-112649110D01*
X65029872Y-112735000D01*
X65470128Y-112735000D01*
X65901925Y-112649110D01*
X66308669Y-112480631D01*
X66674729Y-112236038D01*
X66986038Y-111924729D01*
X67230631Y-111558669D01*
X67399110Y-111151925D01*
X67485000Y-110720128D01*
X67485000Y-110279872D01*
X67399110Y-109848075D01*
X67230631Y-109441331D01*
X66986038Y-109075271D01*
X66674729Y-108763962D01*
X66308669Y-108519369D01*
X65901925Y-108350890D01*
X65470128Y-108265000D01*
X65029872Y-108265000D01*
X64598075Y-108350890D01*
X64191331Y-108519369D01*
X63825271Y-108763962D01*
X63513962Y-109075271D01*
X63269369Y-109441331D01*
X63100890Y-109848075D01*
X63015000Y-110279872D01*
X60685000Y-110279872D01*
X60685000Y-103279872D01*
X63015000Y-103279872D01*
X63015000Y-103720128D01*
X63100890Y-104151925D01*
X63269369Y-104558669D01*
X63513962Y-104924729D01*
X63825271Y-105236038D01*
X64191331Y-105480631D01*
X64598075Y-105649110D01*
X65029872Y-105735000D01*
X65470128Y-105735000D01*
X65901925Y-105649110D01*
X66308669Y-105480631D01*
X66674729Y-105236038D01*
X66986038Y-104924729D01*
X67230631Y-104558669D01*
X67399110Y-104151925D01*
X67485000Y-103720128D01*
X67485000Y-103279872D01*
X67399110Y-102848075D01*
X67230631Y-102441331D01*
X66986038Y-102075271D01*
X66674729Y-101763962D01*
X66308669Y-101519369D01*
X65901925Y-101350890D01*
X65470128Y-101265000D01*
X65029872Y-101265000D01*
X64598075Y-101350890D01*
X64191331Y-101519369D01*
X63825271Y-101763962D01*
X63513962Y-102075271D01*
X63269369Y-102441331D01*
X63100890Y-102848075D01*
X63015000Y-103279872D01*
X60685000Y-103279872D01*
X60685000Y-96279872D01*
X63015000Y-96279872D01*
X63015000Y-96720128D01*
X63100890Y-97151925D01*
X63269369Y-97558669D01*
X63513962Y-97924729D01*
X63825271Y-98236038D01*
X64191331Y-98480631D01*
X64598075Y-98649110D01*
X65029872Y-98735000D01*
X65470128Y-98735000D01*
X65901925Y-98649110D01*
X66308669Y-98480631D01*
X66674729Y-98236038D01*
X66986038Y-97924729D01*
X67230631Y-97558669D01*
X67399110Y-97151925D01*
X67485000Y-96720128D01*
X67485000Y-96279872D01*
X67452675Y-96117361D01*
X98115000Y-96117361D01*
X98115000Y-96882639D01*
X98264298Y-97633213D01*
X98557158Y-98340238D01*
X98982323Y-98976543D01*
X99523457Y-99517677D01*
X100159762Y-99942842D01*
X100866787Y-100235702D01*
X101617361Y-100385000D01*
X102382639Y-100385000D01*
X103133213Y-100235702D01*
X103840238Y-99942842D01*
X104476543Y-99517677D01*
X105017677Y-98976543D01*
X105442842Y-98340238D01*
X105735702Y-97633213D01*
X105885000Y-96882639D01*
X105885000Y-96117361D01*
X105735702Y-95366787D01*
X105442842Y-94659762D01*
X105017677Y-94023457D01*
X104476543Y-93482323D01*
X103840238Y-93057158D01*
X103133213Y-92764298D01*
X102382639Y-92615000D01*
X101617361Y-92615000D01*
X100866787Y-92764298D01*
X100159762Y-93057158D01*
X99523457Y-93482323D01*
X98982323Y-94023457D01*
X98557158Y-94659762D01*
X98264298Y-95366787D01*
X98115000Y-96117361D01*
X67452675Y-96117361D01*
X67399110Y-95848075D01*
X67230631Y-95441331D01*
X66986038Y-95075271D01*
X66674729Y-94763962D01*
X66308669Y-94519369D01*
X65901925Y-94350890D01*
X65470128Y-94265000D01*
X65029872Y-94265000D01*
X64598075Y-94350890D01*
X64191331Y-94519369D01*
X63825271Y-94763962D01*
X63513962Y-95075271D01*
X63269369Y-95441331D01*
X63100890Y-95848075D01*
X63015000Y-96279872D01*
X60685000Y-96279872D01*
X60685000Y-89279872D01*
X63015000Y-89279872D01*
X63015000Y-89720128D01*
X63100890Y-90151925D01*
X63269369Y-90558669D01*
X63513962Y-90924729D01*
X63825271Y-91236038D01*
X64191331Y-91480631D01*
X64598075Y-91649110D01*
X65029872Y-91735000D01*
X65470128Y-91735000D01*
X65901925Y-91649110D01*
X66308669Y-91480631D01*
X66674729Y-91236038D01*
X66986038Y-90924729D01*
X67230631Y-90558669D01*
X67399110Y-90151925D01*
X67485000Y-89720128D01*
X67485000Y-89279872D01*
X67399110Y-88848075D01*
X67230631Y-88441331D01*
X66986038Y-88075271D01*
X66674729Y-87763962D01*
X66308669Y-87519369D01*
X65901925Y-87350890D01*
X65470128Y-87265000D01*
X65029872Y-87265000D01*
X64598075Y-87350890D01*
X64191331Y-87519369D01*
X63825271Y-87763962D01*
X63513962Y-88075271D01*
X63269369Y-88441331D01*
X63100890Y-88848075D01*
X63015000Y-89279872D01*
X60685000Y-89279872D01*
X60685000Y-82279872D01*
X63015000Y-82279872D01*
X63015000Y-82720128D01*
X63100890Y-83151925D01*
X63269369Y-83558669D01*
X63513962Y-83924729D01*
X63825271Y-84236038D01*
X64191331Y-84480631D01*
X64598075Y-84649110D01*
X65029872Y-84735000D01*
X65470128Y-84735000D01*
X65901925Y-84649110D01*
X66308669Y-84480631D01*
X66674729Y-84236038D01*
X66986038Y-83924729D01*
X67230631Y-83558669D01*
X67399110Y-83151925D01*
X67485000Y-82720128D01*
X67485000Y-82279872D01*
X67399110Y-81848075D01*
X67230631Y-81441331D01*
X66986038Y-81075271D01*
X66674729Y-80763962D01*
X66308669Y-80519369D01*
X65901925Y-80350890D01*
X65470128Y-80265000D01*
X65029872Y-80265000D01*
X64598075Y-80350890D01*
X64191331Y-80519369D01*
X63825271Y-80763962D01*
X63513962Y-81075271D01*
X63269369Y-81441331D01*
X63100890Y-81848075D01*
X63015000Y-82279872D01*
X60685000Y-82279872D01*
X60685000Y-78617361D01*
X98115000Y-78617361D01*
X98115000Y-79382639D01*
X98264298Y-80133213D01*
X98557158Y-80840238D01*
X98982323Y-81476543D01*
X99523457Y-82017677D01*
X100159762Y-82442842D01*
X100866787Y-82735702D01*
X101617361Y-82885000D01*
X102382639Y-82885000D01*
X103133213Y-82735702D01*
X103840238Y-82442842D01*
X104476543Y-82017677D01*
X105017677Y-81476543D01*
X105442842Y-80840238D01*
X105735702Y-80133213D01*
X105885000Y-79382639D01*
X105885000Y-78617361D01*
X105735702Y-77866787D01*
X105442842Y-77159762D01*
X105017677Y-76523457D01*
X104476543Y-75982323D01*
X103840238Y-75557158D01*
X103133213Y-75264298D01*
X102382639Y-75115000D01*
X101617361Y-75115000D01*
X100866787Y-75264298D01*
X100159762Y-75557158D01*
X99523457Y-75982323D01*
X98982323Y-76523457D01*
X98557158Y-77159762D01*
X98264298Y-77866787D01*
X98115000Y-78617361D01*
X60685000Y-78617361D01*
X60685000Y-65203148D01*
X65476457Y-65203148D01*
X65752627Y-65621118D01*
X66297557Y-65911649D01*
X66888696Y-66090287D01*
X67503328Y-66150168D01*
X68117831Y-66088990D01*
X68708592Y-65909103D01*
X69247373Y-65621118D01*
X69523543Y-65203148D01*
X106116457Y-65203148D01*
X106392627Y-65621118D01*
X106937557Y-65911649D01*
X107528696Y-66090287D01*
X108143328Y-66150168D01*
X108757831Y-66088990D01*
X109348592Y-65909103D01*
X109887373Y-65621118D01*
X110163543Y-65203148D01*
X108140000Y-63179605D01*
X106116457Y-65203148D01*
X69523543Y-65203148D01*
X67500000Y-63179605D01*
X65476457Y-65203148D01*
X60685000Y-65203148D01*
X60685000Y-63003328D01*
X64349832Y-63003328D01*
X64411010Y-63617831D01*
X64590897Y-64208592D01*
X64878882Y-64747373D01*
X65296852Y-65023543D01*
X67320395Y-63000000D01*
X67679605Y-63000000D01*
X69703148Y-65023543D01*
X70121118Y-64747373D01*
X70411649Y-64202443D01*
X70590287Y-63611304D01*
X70649519Y-63003328D01*
X104989832Y-63003328D01*
X105051010Y-63617831D01*
X105230897Y-64208592D01*
X105518882Y-64747373D01*
X105936852Y-65023543D01*
X107960395Y-63000000D01*
X108319605Y-63000000D01*
X110343148Y-65023543D01*
X110761118Y-64747373D01*
X111051649Y-64202443D01*
X111230287Y-63611304D01*
X111290168Y-62996672D01*
X111228990Y-62382169D01*
X111049103Y-61791408D01*
X110761118Y-61252627D01*
X110343148Y-60976457D01*
X108319605Y-63000000D01*
X107960395Y-63000000D01*
X105936852Y-60976457D01*
X105518882Y-61252627D01*
X105228351Y-61797557D01*
X105049713Y-62388696D01*
X104989832Y-63003328D01*
X70649519Y-63003328D01*
X70650168Y-62996672D01*
X70588990Y-62382169D01*
X70409103Y-61791408D01*
X70121118Y-61252627D01*
X69703148Y-60976457D01*
X67679605Y-63000000D01*
X67320395Y-63000000D01*
X65296852Y-60976457D01*
X64878882Y-61252627D01*
X64588351Y-61797557D01*
X64409713Y-62388696D01*
X64349832Y-63003328D01*
X60685000Y-63003328D01*
X60685000Y-60685000D01*
X65550362Y-60685000D01*
X65476457Y-60796852D01*
X65476457Y-60796852D01*
G37*
X65476457Y-60796852D02*
X67500000Y-62820395D01*
X69523543Y-60796852D01*
X69449638Y-60685000D01*
X106190362Y-60685000D01*
X106116457Y-60796852D01*
X108140000Y-62820395D01*
X110163543Y-60796852D01*
X110089638Y-60685000D01*
X114315001Y-60685000D01*
X114315000Y-187815000D01*
X110089638Y-187815000D01*
X110163543Y-187703148D01*
X108140000Y-185679605D01*
X106116457Y-187703148D01*
X106190362Y-187815000D01*
X69449638Y-187815000D01*
X69523543Y-187703148D01*
X67500000Y-185679605D01*
X65476457Y-187703148D01*
X65550362Y-187815000D01*
X60685000Y-187815000D01*
X60685000Y-185503328D01*
X64349832Y-185503328D01*
X64411010Y-186117831D01*
X64590897Y-186708592D01*
X64878882Y-187247373D01*
X65296852Y-187523543D01*
X67320395Y-185500000D01*
X67679605Y-185500000D01*
X69703148Y-187523543D01*
X70121118Y-187247373D01*
X70411649Y-186702443D01*
X70590287Y-186111304D01*
X70649519Y-185503328D01*
X104989832Y-185503328D01*
X105051010Y-186117831D01*
X105230897Y-186708592D01*
X105518882Y-187247373D01*
X105936852Y-187523543D01*
X107960395Y-185500000D01*
X108319605Y-185500000D01*
X110343148Y-187523543D01*
X110761118Y-187247373D01*
X111051649Y-186702443D01*
X111230287Y-186111304D01*
X111290168Y-185496672D01*
X111228990Y-184882169D01*
X111049103Y-184291408D01*
X110761118Y-183752627D01*
X110343148Y-183476457D01*
X108319605Y-185500000D01*
X107960395Y-185500000D01*
X105936852Y-183476457D01*
X105518882Y-183752627D01*
X105228351Y-184297557D01*
X105049713Y-184888696D01*
X104989832Y-185503328D01*
X70649519Y-185503328D01*
X70650168Y-185496672D01*
X70588990Y-184882169D01*
X70409103Y-184291408D01*
X70121118Y-183752627D01*
X69703148Y-183476457D01*
X67679605Y-185500000D01*
X67320395Y-185500000D01*
X65296852Y-183476457D01*
X64878882Y-183752627D01*
X64588351Y-184297557D01*
X64409713Y-184888696D01*
X64349832Y-185503328D01*
X60685000Y-185503328D01*
X60685000Y-183296852D01*
X65476457Y-183296852D01*
X67500000Y-185320395D01*
X69523543Y-183296852D01*
X106116457Y-183296852D01*
X108140000Y-185320395D01*
X110163543Y-183296852D01*
X109887373Y-182878882D01*
X109342443Y-182588351D01*
X108751304Y-182409713D01*
X108136672Y-182349832D01*
X107522169Y-182411010D01*
X106931408Y-182590897D01*
X106392627Y-182878882D01*
X106116457Y-183296852D01*
X69523543Y-183296852D01*
X69247373Y-182878882D01*
X68702443Y-182588351D01*
X68111304Y-182409713D01*
X67496672Y-182349832D01*
X66882169Y-182411010D01*
X66291408Y-182590897D01*
X65752627Y-182878882D01*
X65476457Y-183296852D01*
X60685000Y-183296852D01*
X60685000Y-174500000D01*
X102361928Y-174500000D01*
X102374188Y-174624482D01*
X102410498Y-174744180D01*
X102469463Y-174854494D01*
X102548815Y-174951185D01*
X102645506Y-175030537D01*
X102755820Y-175089502D01*
X102875518Y-175125812D01*
X103000000Y-175138072D01*
X105214250Y-175135000D01*
X105373000Y-174976250D01*
X105373000Y-170127000D01*
X105627000Y-170127000D01*
X105627000Y-174976250D01*
X105785750Y-175135000D01*
X108000000Y-175138072D01*
X108124482Y-175125812D01*
X108244180Y-175089502D01*
X108354494Y-175030537D01*
X108451185Y-174951185D01*
X108530537Y-174854494D01*
X108589502Y-174744180D01*
X108625812Y-174624482D01*
X108638072Y-174500000D01*
X108635000Y-170285750D01*
X108476250Y-170127000D01*
X105627000Y-170127000D01*
X105373000Y-170127000D01*
X102523750Y-170127000D01*
X102365000Y-170285750D01*
X102361928Y-174500000D01*
X60685000Y-174500000D01*
X60685000Y-168068115D01*
X73115000Y-168068115D01*
X73115000Y-168931885D01*
X73283513Y-169779057D01*
X73614064Y-170577076D01*
X74093948Y-171295274D01*
X74704726Y-171906052D01*
X75422924Y-172385936D01*
X76220943Y-172716487D01*
X77068115Y-172885000D01*
X77931885Y-172885000D01*
X78779057Y-172716487D01*
X79577076Y-172385936D01*
X80295274Y-171906052D01*
X80906052Y-171295274D01*
X81385936Y-170577076D01*
X81716487Y-169779057D01*
X81885000Y-168931885D01*
X81885000Y-168068115D01*
X81716487Y-167220943D01*
X81385936Y-166422924D01*
X80906052Y-165704726D01*
X80701326Y-165500000D01*
X102361928Y-165500000D01*
X102365000Y-169714250D01*
X102523750Y-169873000D01*
X105373000Y-169873000D01*
X105373000Y-165023750D01*
X105627000Y-165023750D01*
X105627000Y-169873000D01*
X108476250Y-169873000D01*
X108635000Y-169714250D01*
X108638072Y-165500000D01*
X108625812Y-165375518D01*
X108589502Y-165255820D01*
X108530537Y-165145506D01*
X108451185Y-165048815D01*
X108354494Y-164969463D01*
X108244180Y-164910498D01*
X108124482Y-164874188D01*
X108000000Y-164861928D01*
X105785750Y-164865000D01*
X105627000Y-165023750D01*
X105373000Y-165023750D01*
X105214250Y-164865000D01*
X103000000Y-164861928D01*
X102875518Y-164874188D01*
X102755820Y-164910498D01*
X102645506Y-164969463D01*
X102548815Y-165048815D01*
X102469463Y-165145506D01*
X102410498Y-165255820D01*
X102374188Y-165375518D01*
X102361928Y-165500000D01*
X80701326Y-165500000D01*
X80295274Y-165093948D01*
X79577076Y-164614064D01*
X78779057Y-164283513D01*
X77931885Y-164115000D01*
X77068115Y-164115000D01*
X76220943Y-164283513D01*
X75422924Y-164614064D01*
X74704726Y-165093948D01*
X74093948Y-165704726D01*
X73614064Y-166422924D01*
X73283513Y-167220943D01*
X73115000Y-168068115D01*
X60685000Y-168068115D01*
X60685000Y-159279872D01*
X63015000Y-159279872D01*
X63015000Y-159720128D01*
X63100890Y-160151925D01*
X63269369Y-160558669D01*
X63513962Y-160924729D01*
X63825271Y-161236038D01*
X64191331Y-161480631D01*
X64598075Y-161649110D01*
X65029872Y-161735000D01*
X65470128Y-161735000D01*
X65901925Y-161649110D01*
X66308669Y-161480631D01*
X66674729Y-161236038D01*
X66986038Y-160924729D01*
X67230631Y-160558669D01*
X67399110Y-160151925D01*
X67485000Y-159720128D01*
X67485000Y-159279872D01*
X67399110Y-158848075D01*
X67230631Y-158441331D01*
X66986038Y-158075271D01*
X66674729Y-157763962D01*
X66308669Y-157519369D01*
X65901925Y-157350890D01*
X65470128Y-157265000D01*
X65029872Y-157265000D01*
X64598075Y-157350890D01*
X64191331Y-157519369D01*
X63825271Y-157763962D01*
X63513962Y-158075271D01*
X63269369Y-158441331D01*
X63100890Y-158848075D01*
X63015000Y-159279872D01*
X60685000Y-159279872D01*
X60685000Y-156279872D01*
X107065000Y-156279872D01*
X107065000Y-156720128D01*
X107150890Y-157151925D01*
X107319369Y-157558669D01*
X107563962Y-157924729D01*
X107875271Y-158236038D01*
X108241331Y-158480631D01*
X108648075Y-158649110D01*
X109079872Y-158735000D01*
X109520128Y-158735000D01*
X109951925Y-158649110D01*
X110358669Y-158480631D01*
X110724729Y-158236038D01*
X111036038Y-157924729D01*
X111280631Y-157558669D01*
X111449110Y-157151925D01*
X111535000Y-156720128D01*
X111535000Y-156279872D01*
X111449110Y-155848075D01*
X111280631Y-155441331D01*
X111036038Y-155075271D01*
X110724729Y-154763962D01*
X110358669Y-154519369D01*
X109951925Y-154350890D01*
X109520128Y-154265000D01*
X109079872Y-154265000D01*
X108648075Y-154350890D01*
X108241331Y-154519369D01*
X107875271Y-154763962D01*
X107563962Y-155075271D01*
X107319369Y-155441331D01*
X107150890Y-155848075D01*
X107065000Y-156279872D01*
X60685000Y-156279872D01*
X60685000Y-152279872D01*
X63015000Y-152279872D01*
X63015000Y-152720128D01*
X63100890Y-153151925D01*
X63269369Y-153558669D01*
X63513962Y-153924729D01*
X63825271Y-154236038D01*
X64191331Y-154480631D01*
X64598075Y-154649110D01*
X65029872Y-154735000D01*
X65470128Y-154735000D01*
X65901925Y-154649110D01*
X66308669Y-154480631D01*
X66674729Y-154236038D01*
X66986038Y-153924729D01*
X67230631Y-153558669D01*
X67399110Y-153151925D01*
X67485000Y-152720128D01*
X67485000Y-152279872D01*
X67399110Y-151848075D01*
X67230631Y-151441331D01*
X66986038Y-151075271D01*
X66674729Y-150763962D01*
X66308669Y-150519369D01*
X65901925Y-150350890D01*
X65470128Y-150265000D01*
X65029872Y-150265000D01*
X64598075Y-150350890D01*
X64191331Y-150519369D01*
X63825271Y-150763962D01*
X63513962Y-151075271D01*
X63269369Y-151441331D01*
X63100890Y-151848075D01*
X63015000Y-152279872D01*
X60685000Y-152279872D01*
X60685000Y-148117361D01*
X101115000Y-148117361D01*
X101115000Y-148882639D01*
X101264298Y-149633213D01*
X101557158Y-150340238D01*
X101982323Y-150976543D01*
X102523457Y-151517677D01*
X103159762Y-151942842D01*
X103866787Y-152235702D01*
X104617361Y-152385000D01*
X105382639Y-152385000D01*
X106133213Y-152235702D01*
X106840238Y-151942842D01*
X107476543Y-151517677D01*
X108017677Y-150976543D01*
X108442842Y-150340238D01*
X108735702Y-149633213D01*
X108885000Y-148882639D01*
X108885000Y-148117361D01*
X108735702Y-147366787D01*
X108442842Y-146659762D01*
X108017677Y-146023457D01*
X107476543Y-145482323D01*
X106840238Y-145057158D01*
X106133213Y-144764298D01*
X105382639Y-144615000D01*
X104617361Y-144615000D01*
X103866787Y-144764298D01*
X103159762Y-145057158D01*
X102523457Y-145482323D01*
X101982323Y-146023457D01*
X101557158Y-146659762D01*
X101264298Y-147366787D01*
X101115000Y-148117361D01*
X60685000Y-148117361D01*
X60685000Y-145279872D01*
X63015000Y-145279872D01*
X63015000Y-145720128D01*
X63100890Y-146151925D01*
X63269369Y-146558669D01*
X63513962Y-146924729D01*
X63825271Y-147236038D01*
X64191331Y-147480631D01*
X64598075Y-147649110D01*
X65029872Y-147735000D01*
X65470128Y-147735000D01*
X65901925Y-147649110D01*
X66308669Y-147480631D01*
X66674729Y-147236038D01*
X66986038Y-146924729D01*
X67230631Y-146558669D01*
X67399110Y-146151925D01*
X67485000Y-145720128D01*
X67485000Y-145279872D01*
X67399110Y-144848075D01*
X67230631Y-144441331D01*
X66986038Y-144075271D01*
X66674729Y-143763962D01*
X66308669Y-143519369D01*
X65901925Y-143350890D01*
X65470128Y-143265000D01*
X65029872Y-143265000D01*
X64598075Y-143350890D01*
X64191331Y-143519369D01*
X63825271Y-143763962D01*
X63513962Y-144075271D01*
X63269369Y-144441331D01*
X63100890Y-144848075D01*
X63015000Y-145279872D01*
X60685000Y-145279872D01*
X60685000Y-138279872D01*
X63015000Y-138279872D01*
X63015000Y-138720128D01*
X63100890Y-139151925D01*
X63269369Y-139558669D01*
X63513962Y-139924729D01*
X63825271Y-140236038D01*
X64191331Y-140480631D01*
X64598075Y-140649110D01*
X65029872Y-140735000D01*
X65470128Y-140735000D01*
X65901925Y-140649110D01*
X66308669Y-140480631D01*
X66674729Y-140236038D01*
X66986038Y-139924729D01*
X67230631Y-139558669D01*
X67399110Y-139151925D01*
X67485000Y-138720128D01*
X67485000Y-138279872D01*
X67399110Y-137848075D01*
X67303546Y-137617361D01*
X101115000Y-137617361D01*
X101115000Y-138382639D01*
X101264298Y-139133213D01*
X101557158Y-139840238D01*
X101982323Y-140476543D01*
X102523457Y-141017677D01*
X103159762Y-141442842D01*
X103866787Y-141735702D01*
X104617361Y-141885000D01*
X105382639Y-141885000D01*
X106133213Y-141735702D01*
X106840238Y-141442842D01*
X107476543Y-141017677D01*
X108017677Y-140476543D01*
X108442842Y-139840238D01*
X108735702Y-139133213D01*
X108885000Y-138382639D01*
X108885000Y-137617361D01*
X108735702Y-136866787D01*
X108442842Y-136159762D01*
X108017677Y-135523457D01*
X107476543Y-134982323D01*
X106840238Y-134557158D01*
X106133213Y-134264298D01*
X105382639Y-134115000D01*
X104617361Y-134115000D01*
X103866787Y-134264298D01*
X103159762Y-134557158D01*
X102523457Y-134982323D01*
X101982323Y-135523457D01*
X101557158Y-136159762D01*
X101264298Y-136866787D01*
X101115000Y-137617361D01*
X67303546Y-137617361D01*
X67230631Y-137441331D01*
X66986038Y-137075271D01*
X66674729Y-136763962D01*
X66308669Y-136519369D01*
X65901925Y-136350890D01*
X65470128Y-136265000D01*
X65029872Y-136265000D01*
X64598075Y-136350890D01*
X64191331Y-136519369D01*
X63825271Y-136763962D01*
X63513962Y-137075271D01*
X63269369Y-137441331D01*
X63100890Y-137848075D01*
X63015000Y-138279872D01*
X60685000Y-138279872D01*
X60685000Y-131279872D01*
X63015000Y-131279872D01*
X63015000Y-131720128D01*
X63100890Y-132151925D01*
X63269369Y-132558669D01*
X63513962Y-132924729D01*
X63825271Y-133236038D01*
X64191331Y-133480631D01*
X64598075Y-133649110D01*
X65029872Y-133735000D01*
X65470128Y-133735000D01*
X65901925Y-133649110D01*
X66308669Y-133480631D01*
X66674729Y-133236038D01*
X66986038Y-132924729D01*
X67230631Y-132558669D01*
X67399110Y-132151925D01*
X67485000Y-131720128D01*
X67485000Y-131279872D01*
X67399110Y-130848075D01*
X67230631Y-130441331D01*
X66986038Y-130075271D01*
X66674729Y-129763962D01*
X66308669Y-129519369D01*
X65901925Y-129350890D01*
X65470128Y-129265000D01*
X65029872Y-129265000D01*
X64598075Y-129350890D01*
X64191331Y-129519369D01*
X63825271Y-129763962D01*
X63513962Y-130075271D01*
X63269369Y-130441331D01*
X63100890Y-130848075D01*
X63015000Y-131279872D01*
X60685000Y-131279872D01*
X60685000Y-124279872D01*
X63015000Y-124279872D01*
X63015000Y-124720128D01*
X63100890Y-125151925D01*
X63269369Y-125558669D01*
X63513962Y-125924729D01*
X63825271Y-126236038D01*
X64191331Y-126480631D01*
X64598075Y-126649110D01*
X65029872Y-126735000D01*
X65470128Y-126735000D01*
X65901925Y-126649110D01*
X65978573Y-126617361D01*
X101115000Y-126617361D01*
X101115000Y-127382639D01*
X101264298Y-128133213D01*
X101557158Y-128840238D01*
X101982323Y-129476543D01*
X102523457Y-130017677D01*
X103159762Y-130442842D01*
X103866787Y-130735702D01*
X104617361Y-130885000D01*
X105382639Y-130885000D01*
X106133213Y-130735702D01*
X106840238Y-130442842D01*
X107476543Y-130017677D01*
X108017677Y-129476543D01*
X108442842Y-128840238D01*
X108735702Y-128133213D01*
X108885000Y-127382639D01*
X108885000Y-126617361D01*
X108735702Y-125866787D01*
X108442842Y-125159762D01*
X108017677Y-124523457D01*
X107476543Y-123982323D01*
X106840238Y-123557158D01*
X106133213Y-123264298D01*
X105382639Y-123115000D01*
X104617361Y-123115000D01*
X103866787Y-123264298D01*
X103159762Y-123557158D01*
X102523457Y-123982323D01*
X101982323Y-124523457D01*
X101557158Y-125159762D01*
X101264298Y-125866787D01*
X101115000Y-126617361D01*
X65978573Y-126617361D01*
X66308669Y-126480631D01*
X66674729Y-126236038D01*
X66986038Y-125924729D01*
X67230631Y-125558669D01*
X67399110Y-125151925D01*
X67485000Y-124720128D01*
X67485000Y-124279872D01*
X67399110Y-123848075D01*
X67230631Y-123441331D01*
X66986038Y-123075271D01*
X66674729Y-122763962D01*
X66308669Y-122519369D01*
X65901925Y-122350890D01*
X65470128Y-122265000D01*
X65029872Y-122265000D01*
X64598075Y-122350890D01*
X64191331Y-122519369D01*
X63825271Y-122763962D01*
X63513962Y-123075271D01*
X63269369Y-123441331D01*
X63100890Y-123848075D01*
X63015000Y-124279872D01*
X60685000Y-124279872D01*
X60685000Y-117279872D01*
X63015000Y-117279872D01*
X63015000Y-117720128D01*
X63100890Y-118151925D01*
X63269369Y-118558669D01*
X63513962Y-118924729D01*
X63825271Y-119236038D01*
X64191331Y-119480631D01*
X64598075Y-119649110D01*
X65029872Y-119735000D01*
X65470128Y-119735000D01*
X65901925Y-119649110D01*
X66308669Y-119480631D01*
X66674729Y-119236038D01*
X66986038Y-118924729D01*
X67230631Y-118558669D01*
X67399110Y-118151925D01*
X67485000Y-117720128D01*
X67485000Y-117279872D01*
X67399110Y-116848075D01*
X67230631Y-116441331D01*
X66986038Y-116075271D01*
X66674729Y-115763962D01*
X66308669Y-115519369D01*
X65901925Y-115350890D01*
X65470128Y-115265000D01*
X65029872Y-115265000D01*
X64598075Y-115350890D01*
X64191331Y-115519369D01*
X63825271Y-115763962D01*
X63513962Y-116075271D01*
X63269369Y-116441331D01*
X63100890Y-116848075D01*
X63015000Y-117279872D01*
X60685000Y-117279872D01*
X60685000Y-113117361D01*
X98115000Y-113117361D01*
X98115000Y-113882639D01*
X98264298Y-114633213D01*
X98557158Y-115340238D01*
X98982323Y-115976543D01*
X99523457Y-116517677D01*
X100159762Y-116942842D01*
X100866787Y-117235702D01*
X101617361Y-117385000D01*
X102382639Y-117385000D01*
X103133213Y-117235702D01*
X103840238Y-116942842D01*
X104476543Y-116517677D01*
X105017677Y-115976543D01*
X105442842Y-115340238D01*
X105735702Y-114633213D01*
X105885000Y-113882639D01*
X105885000Y-113117361D01*
X105735702Y-112366787D01*
X105442842Y-111659762D01*
X105017677Y-111023457D01*
X104476543Y-110482323D01*
X103840238Y-110057158D01*
X103133213Y-109764298D01*
X102382639Y-109615000D01*
X101617361Y-109615000D01*
X100866787Y-109764298D01*
X100159762Y-110057158D01*
X99523457Y-110482323D01*
X98982323Y-111023457D01*
X98557158Y-111659762D01*
X98264298Y-112366787D01*
X98115000Y-113117361D01*
X60685000Y-113117361D01*
X60685000Y-110279872D01*
X63015000Y-110279872D01*
X63015000Y-110720128D01*
X63100890Y-111151925D01*
X63269369Y-111558669D01*
X63513962Y-111924729D01*
X63825271Y-112236038D01*
X64191331Y-112480631D01*
X64598075Y-112649110D01*
X65029872Y-112735000D01*
X65470128Y-112735000D01*
X65901925Y-112649110D01*
X66308669Y-112480631D01*
X66674729Y-112236038D01*
X66986038Y-111924729D01*
X67230631Y-111558669D01*
X67399110Y-111151925D01*
X67485000Y-110720128D01*
X67485000Y-110279872D01*
X67399110Y-109848075D01*
X67230631Y-109441331D01*
X66986038Y-109075271D01*
X66674729Y-108763962D01*
X66308669Y-108519369D01*
X65901925Y-108350890D01*
X65470128Y-108265000D01*
X65029872Y-108265000D01*
X64598075Y-108350890D01*
X64191331Y-108519369D01*
X63825271Y-108763962D01*
X63513962Y-109075271D01*
X63269369Y-109441331D01*
X63100890Y-109848075D01*
X63015000Y-110279872D01*
X60685000Y-110279872D01*
X60685000Y-103279872D01*
X63015000Y-103279872D01*
X63015000Y-103720128D01*
X63100890Y-104151925D01*
X63269369Y-104558669D01*
X63513962Y-104924729D01*
X63825271Y-105236038D01*
X64191331Y-105480631D01*
X64598075Y-105649110D01*
X65029872Y-105735000D01*
X65470128Y-105735000D01*
X65901925Y-105649110D01*
X66308669Y-105480631D01*
X66674729Y-105236038D01*
X66986038Y-104924729D01*
X67230631Y-104558669D01*
X67399110Y-104151925D01*
X67485000Y-103720128D01*
X67485000Y-103279872D01*
X67399110Y-102848075D01*
X67230631Y-102441331D01*
X66986038Y-102075271D01*
X66674729Y-101763962D01*
X66308669Y-101519369D01*
X65901925Y-101350890D01*
X65470128Y-101265000D01*
X65029872Y-101265000D01*
X64598075Y-101350890D01*
X64191331Y-101519369D01*
X63825271Y-101763962D01*
X63513962Y-102075271D01*
X63269369Y-102441331D01*
X63100890Y-102848075D01*
X63015000Y-103279872D01*
X60685000Y-103279872D01*
X60685000Y-96279872D01*
X63015000Y-96279872D01*
X63015000Y-96720128D01*
X63100890Y-97151925D01*
X63269369Y-97558669D01*
X63513962Y-97924729D01*
X63825271Y-98236038D01*
X64191331Y-98480631D01*
X64598075Y-98649110D01*
X65029872Y-98735000D01*
X65470128Y-98735000D01*
X65901925Y-98649110D01*
X66308669Y-98480631D01*
X66674729Y-98236038D01*
X66986038Y-97924729D01*
X67230631Y-97558669D01*
X67399110Y-97151925D01*
X67485000Y-96720128D01*
X67485000Y-96279872D01*
X67452675Y-96117361D01*
X98115000Y-96117361D01*
X98115000Y-96882639D01*
X98264298Y-97633213D01*
X98557158Y-98340238D01*
X98982323Y-98976543D01*
X99523457Y-99517677D01*
X100159762Y-99942842D01*
X100866787Y-100235702D01*
X101617361Y-100385000D01*
X102382639Y-100385000D01*
X103133213Y-100235702D01*
X103840238Y-99942842D01*
X104476543Y-99517677D01*
X105017677Y-98976543D01*
X105442842Y-98340238D01*
X105735702Y-97633213D01*
X105885000Y-96882639D01*
X105885000Y-96117361D01*
X105735702Y-95366787D01*
X105442842Y-94659762D01*
X105017677Y-94023457D01*
X104476543Y-93482323D01*
X103840238Y-93057158D01*
X103133213Y-92764298D01*
X102382639Y-92615000D01*
X101617361Y-92615000D01*
X100866787Y-92764298D01*
X100159762Y-93057158D01*
X99523457Y-93482323D01*
X98982323Y-94023457D01*
X98557158Y-94659762D01*
X98264298Y-95366787D01*
X98115000Y-96117361D01*
X67452675Y-96117361D01*
X67399110Y-95848075D01*
X67230631Y-95441331D01*
X66986038Y-95075271D01*
X66674729Y-94763962D01*
X66308669Y-94519369D01*
X65901925Y-94350890D01*
X65470128Y-94265000D01*
X65029872Y-94265000D01*
X64598075Y-94350890D01*
X64191331Y-94519369D01*
X63825271Y-94763962D01*
X63513962Y-95075271D01*
X63269369Y-95441331D01*
X63100890Y-95848075D01*
X63015000Y-96279872D01*
X60685000Y-96279872D01*
X60685000Y-89279872D01*
X63015000Y-89279872D01*
X63015000Y-89720128D01*
X63100890Y-90151925D01*
X63269369Y-90558669D01*
X63513962Y-90924729D01*
X63825271Y-91236038D01*
X64191331Y-91480631D01*
X64598075Y-91649110D01*
X65029872Y-91735000D01*
X65470128Y-91735000D01*
X65901925Y-91649110D01*
X66308669Y-91480631D01*
X66674729Y-91236038D01*
X66986038Y-90924729D01*
X67230631Y-90558669D01*
X67399110Y-90151925D01*
X67485000Y-89720128D01*
X67485000Y-89279872D01*
X67399110Y-88848075D01*
X67230631Y-88441331D01*
X66986038Y-88075271D01*
X66674729Y-87763962D01*
X66308669Y-87519369D01*
X65901925Y-87350890D01*
X65470128Y-87265000D01*
X65029872Y-87265000D01*
X64598075Y-87350890D01*
X64191331Y-87519369D01*
X63825271Y-87763962D01*
X63513962Y-88075271D01*
X63269369Y-88441331D01*
X63100890Y-88848075D01*
X63015000Y-89279872D01*
X60685000Y-89279872D01*
X60685000Y-82279872D01*
X63015000Y-82279872D01*
X63015000Y-82720128D01*
X63100890Y-83151925D01*
X63269369Y-83558669D01*
X63513962Y-83924729D01*
X63825271Y-84236038D01*
X64191331Y-84480631D01*
X64598075Y-84649110D01*
X65029872Y-84735000D01*
X65470128Y-84735000D01*
X65901925Y-84649110D01*
X66308669Y-84480631D01*
X66674729Y-84236038D01*
X66986038Y-83924729D01*
X67230631Y-83558669D01*
X67399110Y-83151925D01*
X67485000Y-82720128D01*
X67485000Y-82279872D01*
X67399110Y-81848075D01*
X67230631Y-81441331D01*
X66986038Y-81075271D01*
X66674729Y-80763962D01*
X66308669Y-80519369D01*
X65901925Y-80350890D01*
X65470128Y-80265000D01*
X65029872Y-80265000D01*
X64598075Y-80350890D01*
X64191331Y-80519369D01*
X63825271Y-80763962D01*
X63513962Y-81075271D01*
X63269369Y-81441331D01*
X63100890Y-81848075D01*
X63015000Y-82279872D01*
X60685000Y-82279872D01*
X60685000Y-78617361D01*
X98115000Y-78617361D01*
X98115000Y-79382639D01*
X98264298Y-80133213D01*
X98557158Y-80840238D01*
X98982323Y-81476543D01*
X99523457Y-82017677D01*
X100159762Y-82442842D01*
X100866787Y-82735702D01*
X101617361Y-82885000D01*
X102382639Y-82885000D01*
X103133213Y-82735702D01*
X103840238Y-82442842D01*
X104476543Y-82017677D01*
X105017677Y-81476543D01*
X105442842Y-80840238D01*
X105735702Y-80133213D01*
X105885000Y-79382639D01*
X105885000Y-78617361D01*
X105735702Y-77866787D01*
X105442842Y-77159762D01*
X105017677Y-76523457D01*
X104476543Y-75982323D01*
X103840238Y-75557158D01*
X103133213Y-75264298D01*
X102382639Y-75115000D01*
X101617361Y-75115000D01*
X100866787Y-75264298D01*
X100159762Y-75557158D01*
X99523457Y-75982323D01*
X98982323Y-76523457D01*
X98557158Y-77159762D01*
X98264298Y-77866787D01*
X98115000Y-78617361D01*
X60685000Y-78617361D01*
X60685000Y-65203148D01*
X65476457Y-65203148D01*
X65752627Y-65621118D01*
X66297557Y-65911649D01*
X66888696Y-66090287D01*
X67503328Y-66150168D01*
X68117831Y-66088990D01*
X68708592Y-65909103D01*
X69247373Y-65621118D01*
X69523543Y-65203148D01*
X106116457Y-65203148D01*
X106392627Y-65621118D01*
X106937557Y-65911649D01*
X107528696Y-66090287D01*
X108143328Y-66150168D01*
X108757831Y-66088990D01*
X109348592Y-65909103D01*
X109887373Y-65621118D01*
X110163543Y-65203148D01*
X108140000Y-63179605D01*
X106116457Y-65203148D01*
X69523543Y-65203148D01*
X67500000Y-63179605D01*
X65476457Y-65203148D01*
X60685000Y-65203148D01*
X60685000Y-63003328D01*
X64349832Y-63003328D01*
X64411010Y-63617831D01*
X64590897Y-64208592D01*
X64878882Y-64747373D01*
X65296852Y-65023543D01*
X67320395Y-63000000D01*
X67679605Y-63000000D01*
X69703148Y-65023543D01*
X70121118Y-64747373D01*
X70411649Y-64202443D01*
X70590287Y-63611304D01*
X70649519Y-63003328D01*
X104989832Y-63003328D01*
X105051010Y-63617831D01*
X105230897Y-64208592D01*
X105518882Y-64747373D01*
X105936852Y-65023543D01*
X107960395Y-63000000D01*
X108319605Y-63000000D01*
X110343148Y-65023543D01*
X110761118Y-64747373D01*
X111051649Y-64202443D01*
X111230287Y-63611304D01*
X111290168Y-62996672D01*
X111228990Y-62382169D01*
X111049103Y-61791408D01*
X110761118Y-61252627D01*
X110343148Y-60976457D01*
X108319605Y-63000000D01*
X107960395Y-63000000D01*
X105936852Y-60976457D01*
X105518882Y-61252627D01*
X105228351Y-61797557D01*
X105049713Y-62388696D01*
X104989832Y-63003328D01*
X70649519Y-63003328D01*
X70650168Y-62996672D01*
X70588990Y-62382169D01*
X70409103Y-61791408D01*
X70121118Y-61252627D01*
X69703148Y-60976457D01*
X67679605Y-63000000D01*
X67320395Y-63000000D01*
X65296852Y-60976457D01*
X64878882Y-61252627D01*
X64588351Y-61797557D01*
X64409713Y-62388696D01*
X64349832Y-63003328D01*
X60685000Y-63003328D01*
X60685000Y-60685000D01*
X65550362Y-60685000D01*
X65476457Y-60796852D01*
M02*
