G04 #@! TF.GenerationSoftware,KiCad,Pcbnew,(5.1.2)-1*
G04 #@! TF.CreationDate,2019-06-03T10:04:51-07:00*
G04 #@! TF.ProjectId,panel,70616e65-6c2e-46b6-9963-61645f706362,rev?*
G04 #@! TF.SameCoordinates,Original*
G04 #@! TF.FileFunction,Legend,Top*
G04 #@! TF.FilePolarity,Positive*
%FSLAX46Y46*%
G04 Gerber Fmt 4.6, Leading zero omitted, Abs format (unit mm)*
G04 Created by KiCad (PCBNEW (5.1.2)-1) date 2019-06-03 10:04:51*
%MOMM*%
%LPD*%
G04 APERTURE LIST*
%ADD10C,0.250000*%
%ADD11C,0.500000*%
%ADD12C,0.150000*%
%ADD13C,0.160000*%
%ADD14C,0.120000*%
G04 APERTURE END LIST*
D10*
X76166666Y-62500000D02*
X75976190Y-62404761D01*
X75690476Y-62404761D01*
X75404761Y-62500000D01*
X75214285Y-62690476D01*
X75119047Y-62880952D01*
X75023809Y-63261904D01*
X75023809Y-63547619D01*
X75119047Y-63928571D01*
X75214285Y-64119047D01*
X75404761Y-64309523D01*
X75690476Y-64404761D01*
X75880952Y-64404761D01*
X76166666Y-64309523D01*
X76261904Y-64214285D01*
X76261904Y-63547619D01*
X75880952Y-63547619D01*
X78261904Y-64404761D02*
X77595238Y-63452380D01*
X77119047Y-64404761D02*
X77119047Y-62404761D01*
X77880952Y-62404761D01*
X78071428Y-62500000D01*
X78166666Y-62595238D01*
X78261904Y-62785714D01*
X78261904Y-63071428D01*
X78166666Y-63261904D01*
X78071428Y-63357142D01*
X77880952Y-63452380D01*
X77119047Y-63452380D01*
X79119047Y-63357142D02*
X79785714Y-63357142D01*
X80071428Y-64404761D02*
X79119047Y-64404761D01*
X79119047Y-62404761D01*
X80071428Y-62404761D01*
X80928571Y-63357142D02*
X81595238Y-63357142D01*
X81880952Y-64404761D02*
X80928571Y-64404761D01*
X80928571Y-62404761D01*
X81880952Y-62404761D01*
X82738095Y-64404761D02*
X82738095Y-62404761D01*
X83880952Y-64404761D01*
X83880952Y-62404761D01*
X85500000Y-63357142D02*
X84833333Y-63357142D01*
X84833333Y-64404761D02*
X84833333Y-62404761D01*
X85785714Y-62404761D01*
X86452380Y-63833333D02*
X87404761Y-63833333D01*
X86261904Y-64404761D02*
X86928571Y-62404761D01*
X87595238Y-64404761D01*
X89404761Y-64214285D02*
X89309523Y-64309523D01*
X89023809Y-64404761D01*
X88833333Y-64404761D01*
X88547619Y-64309523D01*
X88357142Y-64119047D01*
X88261904Y-63928571D01*
X88166666Y-63547619D01*
X88166666Y-63261904D01*
X88261904Y-62880952D01*
X88357142Y-62690476D01*
X88547619Y-62500000D01*
X88833333Y-62404761D01*
X89023809Y-62404761D01*
X89309523Y-62500000D01*
X89404761Y-62595238D01*
X90261904Y-63357142D02*
X90928571Y-63357142D01*
X91214285Y-64404761D02*
X90261904Y-64404761D01*
X90261904Y-62404761D01*
X91214285Y-62404761D01*
X94547619Y-64404761D02*
X93595238Y-64404761D01*
X93595238Y-62404761D01*
X95119047Y-63833333D02*
X96071428Y-63833333D01*
X94928571Y-64404761D02*
X95595238Y-62404761D01*
X96261904Y-64404761D01*
X97595238Y-63357142D02*
X97880952Y-63452380D01*
X97976190Y-63547619D01*
X98071428Y-63738095D01*
X98071428Y-64023809D01*
X97976190Y-64214285D01*
X97880952Y-64309523D01*
X97690476Y-64404761D01*
X96928571Y-64404761D01*
X96928571Y-62404761D01*
X97595238Y-62404761D01*
X97785714Y-62500000D01*
X97880952Y-62595238D01*
X97976190Y-62785714D01*
X97976190Y-62976190D01*
X97880952Y-63166666D01*
X97785714Y-63261904D01*
X97595238Y-63357142D01*
X96928571Y-63357142D01*
X98833333Y-64309523D02*
X99119047Y-64404761D01*
X99595238Y-64404761D01*
X99785714Y-64309523D01*
X99880952Y-64214285D01*
X99976190Y-64023809D01*
X99976190Y-63833333D01*
X99880952Y-63642857D01*
X99785714Y-63547619D01*
X99595238Y-63452380D01*
X99214285Y-63357142D01*
X99023809Y-63261904D01*
X98928571Y-63166666D01*
X98833333Y-62976190D01*
X98833333Y-62785714D01*
X98928571Y-62595238D01*
X99023809Y-62500000D01*
X99214285Y-62404761D01*
X99690476Y-62404761D01*
X99976190Y-62500000D01*
D11*
X62608184Y-75619047D02*
X63155803Y-75809523D01*
X64108184Y-75809523D01*
X64512946Y-75619047D01*
X64727232Y-75428571D01*
X64965327Y-75047619D01*
X65012946Y-74666666D01*
X64870089Y-74285714D01*
X64703422Y-74095238D01*
X64346279Y-73904761D01*
X63608184Y-73714285D01*
X63251041Y-73523809D01*
X63084375Y-73333333D01*
X62941517Y-72952380D01*
X62989136Y-72571428D01*
X63227232Y-72190476D01*
X63441517Y-72000000D01*
X63846279Y-71809523D01*
X64798660Y-71809523D01*
X65346279Y-72000000D01*
X66917708Y-73142857D02*
X66417708Y-77142857D01*
X66893898Y-73333333D02*
X67298660Y-73142857D01*
X68060565Y-73142857D01*
X68417708Y-73333333D01*
X68584375Y-73523809D01*
X68727232Y-73904761D01*
X68584375Y-75047619D01*
X68346279Y-75428571D01*
X68131994Y-75619047D01*
X67727232Y-75809523D01*
X66965327Y-75809523D01*
X66608184Y-75619047D01*
X72251041Y-73142857D02*
X71917708Y-75809523D01*
X70536755Y-73142857D02*
X70274851Y-75238095D01*
X70417708Y-75619047D01*
X70774851Y-75809523D01*
X71346279Y-75809523D01*
X71751041Y-75619047D01*
X71965327Y-75428571D01*
X73584375Y-73142857D02*
X75108184Y-73142857D01*
X74322470Y-71809523D02*
X73893898Y-75238095D01*
X74036755Y-75619047D01*
X74393898Y-75809523D01*
X74774851Y-75809523D01*
X75870089Y-73142857D02*
X77393898Y-73142857D01*
X76608184Y-71809523D02*
X76179613Y-75238095D01*
X76322470Y-75619047D01*
X76679613Y-75809523D01*
X77060565Y-75809523D01*
X79941517Y-75619047D02*
X79536755Y-75809523D01*
X78774851Y-75809523D01*
X78417708Y-75619047D01*
X78274851Y-75238095D01*
X78465327Y-73714285D01*
X78703422Y-73333333D01*
X79108184Y-73142857D01*
X79870089Y-73142857D01*
X80227232Y-73333333D01*
X80370089Y-73714285D01*
X80322470Y-74095238D01*
X78370089Y-74476190D01*
X81822470Y-75809523D02*
X82155803Y-73142857D01*
X82060565Y-73904761D02*
X82298660Y-73523809D01*
X82512946Y-73333333D01*
X82917708Y-73142857D01*
X83298660Y-73142857D01*
X84298660Y-75809523D02*
X84631994Y-73142857D01*
X84798660Y-71809523D02*
X84584375Y-72000000D01*
X84751041Y-72190476D01*
X84965327Y-72000000D01*
X84798660Y-71809523D01*
X84751041Y-72190476D01*
X86155803Y-73142857D02*
X88251041Y-73142857D01*
X85822470Y-75809523D01*
X87917708Y-75809523D01*
X90989136Y-75619047D02*
X90584375Y-75809523D01*
X89822470Y-75809523D01*
X89465327Y-75619047D01*
X89322470Y-75238095D01*
X89512946Y-73714285D01*
X89751041Y-73333333D01*
X90155803Y-73142857D01*
X90917708Y-73142857D01*
X91274851Y-73333333D01*
X91417708Y-73714285D01*
X91370089Y-74095238D01*
X89417708Y-74476190D01*
X92870089Y-75809523D02*
X93203422Y-73142857D01*
X93108184Y-73904761D02*
X93346279Y-73523809D01*
X93560565Y-73333333D01*
X93965327Y-73142857D01*
X94346279Y-73142857D01*
D10*
X72083333Y-185071428D02*
X70559523Y-185642857D01*
X72083333Y-186214285D01*
X73035714Y-185642857D02*
X74559523Y-185642857D01*
X75511904Y-185642857D02*
X77035714Y-185642857D01*
X77988095Y-185642857D02*
X79511904Y-185642857D01*
X84559523Y-186404761D02*
X83416666Y-186404761D01*
X83988095Y-186404761D02*
X83988095Y-184404761D01*
X83797619Y-184690476D01*
X83607142Y-184880952D01*
X83416666Y-184976190D01*
X86464285Y-186404761D02*
X85321428Y-186404761D01*
X85892857Y-186404761D02*
X85892857Y-184404761D01*
X85702380Y-184690476D01*
X85511904Y-184880952D01*
X85321428Y-184976190D01*
X88845238Y-186404761D02*
X88845238Y-184404761D01*
X88845238Y-185357142D02*
X89988095Y-185357142D01*
X89988095Y-186404761D02*
X89988095Y-184404761D01*
X90940476Y-186404761D02*
X90940476Y-184404761D01*
X91702380Y-184404761D01*
X91892857Y-184500000D01*
X91988095Y-184595238D01*
X92083333Y-184785714D01*
X92083333Y-185071428D01*
X91988095Y-185261904D01*
X91892857Y-185357142D01*
X91702380Y-185452380D01*
X90940476Y-185452380D01*
X95988095Y-185642857D02*
X97511904Y-185642857D01*
X98464285Y-185642857D02*
X99988095Y-185642857D01*
X100940476Y-185642857D02*
X102464285Y-185642857D01*
X103416666Y-185071428D02*
X104940476Y-185642857D01*
X103416666Y-186214285D01*
X101690476Y-155500000D02*
X101500000Y-155404761D01*
X101214285Y-155404761D01*
X100928571Y-155500000D01*
X100738095Y-155690476D01*
X100642857Y-155880952D01*
X100547619Y-156261904D01*
X100547619Y-156547619D01*
X100642857Y-156928571D01*
X100738095Y-157119047D01*
X100928571Y-157309523D01*
X101214285Y-157404761D01*
X101404761Y-157404761D01*
X101690476Y-157309523D01*
X101785714Y-157214285D01*
X101785714Y-156547619D01*
X101404761Y-156547619D01*
X103500000Y-157404761D02*
X103500000Y-156357142D01*
X103404761Y-156166666D01*
X103214285Y-156071428D01*
X102833333Y-156071428D01*
X102642857Y-156166666D01*
X103500000Y-157309523D02*
X103309523Y-157404761D01*
X102833333Y-157404761D01*
X102642857Y-157309523D01*
X102547619Y-157119047D01*
X102547619Y-156928571D01*
X102642857Y-156738095D01*
X102833333Y-156642857D01*
X103309523Y-156642857D01*
X103500000Y-156547619D01*
X104166666Y-156071428D02*
X104928571Y-156071428D01*
X104452380Y-155404761D02*
X104452380Y-157119047D01*
X104547619Y-157309523D01*
X104738095Y-157404761D01*
X104928571Y-157404761D01*
X106357142Y-157309523D02*
X106166666Y-157404761D01*
X105785714Y-157404761D01*
X105595238Y-157309523D01*
X105500000Y-157119047D01*
X105500000Y-156357142D01*
X105595238Y-156166666D01*
X105785714Y-156071428D01*
X106166666Y-156071428D01*
X106357142Y-156166666D01*
X106452380Y-156357142D01*
X106452380Y-156547619D01*
X105500000Y-156738095D01*
X85095238Y-148833333D02*
X86047619Y-148833333D01*
X84904761Y-149404761D02*
X85571428Y-147404761D01*
X86238095Y-149404761D01*
X86904761Y-148071428D02*
X86904761Y-149404761D01*
X86904761Y-148261904D02*
X87000000Y-148166666D01*
X87190476Y-148071428D01*
X87476190Y-148071428D01*
X87666666Y-148166666D01*
X87761904Y-148357142D01*
X87761904Y-149404761D01*
X89571428Y-149404761D02*
X89571428Y-148357142D01*
X89476190Y-148166666D01*
X89285714Y-148071428D01*
X88904761Y-148071428D01*
X88714285Y-148166666D01*
X89571428Y-149309523D02*
X89380952Y-149404761D01*
X88904761Y-149404761D01*
X88714285Y-149309523D01*
X88619047Y-149119047D01*
X88619047Y-148928571D01*
X88714285Y-148738095D01*
X88904761Y-148642857D01*
X89380952Y-148642857D01*
X89571428Y-148547619D01*
X90809523Y-149404761D02*
X90619047Y-149309523D01*
X90523809Y-149119047D01*
X90523809Y-147404761D01*
X91857142Y-149404761D02*
X91666666Y-149309523D01*
X91571428Y-149214285D01*
X91476190Y-149023809D01*
X91476190Y-148452380D01*
X91571428Y-148261904D01*
X91666666Y-148166666D01*
X91857142Y-148071428D01*
X92142857Y-148071428D01*
X92333333Y-148166666D01*
X92428571Y-148261904D01*
X92523809Y-148452380D01*
X92523809Y-149023809D01*
X92428571Y-149214285D01*
X92333333Y-149309523D01*
X92142857Y-149404761D01*
X91857142Y-149404761D01*
X94238095Y-148071428D02*
X94238095Y-149690476D01*
X94142857Y-149880952D01*
X94047619Y-149976190D01*
X93857142Y-150071428D01*
X93571428Y-150071428D01*
X93380952Y-149976190D01*
X94238095Y-149309523D02*
X94047619Y-149404761D01*
X93666666Y-149404761D01*
X93476190Y-149309523D01*
X93380952Y-149214285D01*
X93285714Y-149023809D01*
X93285714Y-148452380D01*
X93380952Y-148261904D01*
X93476190Y-148166666D01*
X93666666Y-148071428D01*
X94047619Y-148071428D01*
X94238095Y-148166666D01*
X97095238Y-147404761D02*
X97476190Y-147404761D01*
X97666666Y-147500000D01*
X97857142Y-147690476D01*
X97952380Y-148071428D01*
X97952380Y-148738095D01*
X97857142Y-149119047D01*
X97666666Y-149309523D01*
X97476190Y-149404761D01*
X97095238Y-149404761D01*
X96904761Y-149309523D01*
X96714285Y-149119047D01*
X96619047Y-148738095D01*
X96619047Y-148071428D01*
X96714285Y-147690476D01*
X96904761Y-147500000D01*
X97095238Y-147404761D01*
X99666666Y-148071428D02*
X99666666Y-149404761D01*
X98809523Y-148071428D02*
X98809523Y-149119047D01*
X98904761Y-149309523D01*
X99095238Y-149404761D01*
X99380952Y-149404761D01*
X99571428Y-149309523D01*
X99666666Y-149214285D01*
X100333333Y-148071428D02*
X101095238Y-148071428D01*
X100619047Y-147404761D02*
X100619047Y-149119047D01*
X100714285Y-149309523D01*
X100904761Y-149404761D01*
X101095238Y-149404761D01*
X89404761Y-137000000D02*
X89214285Y-136904761D01*
X88928571Y-136904761D01*
X88642857Y-137000000D01*
X88452380Y-137190476D01*
X88357142Y-137380952D01*
X88261904Y-137761904D01*
X88261904Y-138047619D01*
X88357142Y-138428571D01*
X88452380Y-138619047D01*
X88642857Y-138809523D01*
X88928571Y-138904761D01*
X89119047Y-138904761D01*
X89404761Y-138809523D01*
X89500000Y-138714285D01*
X89500000Y-138047619D01*
X89119047Y-138047619D01*
X91214285Y-138904761D02*
X91214285Y-137857142D01*
X91119047Y-137666666D01*
X90928571Y-137571428D01*
X90547619Y-137571428D01*
X90357142Y-137666666D01*
X91214285Y-138809523D02*
X91023809Y-138904761D01*
X90547619Y-138904761D01*
X90357142Y-138809523D01*
X90261904Y-138619047D01*
X90261904Y-138428571D01*
X90357142Y-138238095D01*
X90547619Y-138142857D01*
X91023809Y-138142857D01*
X91214285Y-138047619D01*
X91880952Y-137571428D02*
X92642857Y-137571428D01*
X92166666Y-136904761D02*
X92166666Y-138619047D01*
X92261904Y-138809523D01*
X92452380Y-138904761D01*
X92642857Y-138904761D01*
X94071428Y-138809523D02*
X93880952Y-138904761D01*
X93500000Y-138904761D01*
X93309523Y-138809523D01*
X93214285Y-138619047D01*
X93214285Y-137857142D01*
X93309523Y-137666666D01*
X93500000Y-137571428D01*
X93880952Y-137571428D01*
X94071428Y-137666666D01*
X94166666Y-137857142D01*
X94166666Y-138047619D01*
X93214285Y-138238095D01*
X96928571Y-136904761D02*
X97309523Y-136904761D01*
X97500000Y-137000000D01*
X97690476Y-137190476D01*
X97785714Y-137571428D01*
X97785714Y-138238095D01*
X97690476Y-138619047D01*
X97500000Y-138809523D01*
X97309523Y-138904761D01*
X96928571Y-138904761D01*
X96738095Y-138809523D01*
X96547619Y-138619047D01*
X96452380Y-138238095D01*
X96452380Y-137571428D01*
X96547619Y-137190476D01*
X96738095Y-137000000D01*
X96928571Y-136904761D01*
X99500000Y-137571428D02*
X99500000Y-138904761D01*
X98642857Y-137571428D02*
X98642857Y-138619047D01*
X98738095Y-138809523D01*
X98928571Y-138904761D01*
X99214285Y-138904761D01*
X99404761Y-138809523D01*
X99500000Y-138714285D01*
X100166666Y-137571428D02*
X100928571Y-137571428D01*
X100452380Y-136904761D02*
X100452380Y-138619047D01*
X100547619Y-138809523D01*
X100738095Y-138904761D01*
X100928571Y-138904761D01*
X91785714Y-125904761D02*
X92928571Y-125904761D01*
X92357142Y-127904761D02*
X92357142Y-125904761D01*
X93595238Y-127904761D02*
X93595238Y-126571428D01*
X93595238Y-126952380D02*
X93690476Y-126761904D01*
X93785714Y-126666666D01*
X93976190Y-126571428D01*
X94166666Y-126571428D01*
X94833333Y-127904761D02*
X94833333Y-126571428D01*
X94833333Y-125904761D02*
X94738095Y-126000000D01*
X94833333Y-126095238D01*
X94928571Y-126000000D01*
X94833333Y-125904761D01*
X94833333Y-126095238D01*
X96642857Y-126571428D02*
X96642857Y-128190476D01*
X96547619Y-128380952D01*
X96452380Y-128476190D01*
X96261904Y-128571428D01*
X95976190Y-128571428D01*
X95785714Y-128476190D01*
X96642857Y-127809523D02*
X96452380Y-127904761D01*
X96071428Y-127904761D01*
X95880952Y-127809523D01*
X95785714Y-127714285D01*
X95690476Y-127523809D01*
X95690476Y-126952380D01*
X95785714Y-126761904D01*
X95880952Y-126666666D01*
X96071428Y-126571428D01*
X96452380Y-126571428D01*
X96642857Y-126666666D01*
X99119047Y-127904761D02*
X99119047Y-125904761D01*
X100071428Y-126571428D02*
X100071428Y-127904761D01*
X100071428Y-126761904D02*
X100166666Y-126666666D01*
X100357142Y-126571428D01*
X100642857Y-126571428D01*
X100833333Y-126666666D01*
X100928571Y-126857142D01*
X100928571Y-127904761D01*
D12*
X102166666Y-172595238D02*
X102166666Y-172119047D01*
X102452380Y-172690476D02*
X101452380Y-172357142D01*
X102452380Y-172023809D01*
X102452380Y-171690476D02*
X101785714Y-171690476D01*
X101976190Y-171690476D02*
X101880952Y-171642857D01*
X101833333Y-171595238D01*
X101785714Y-171500000D01*
X101785714Y-171404761D01*
X102452380Y-170642857D02*
X101452380Y-170642857D01*
X102404761Y-170642857D02*
X102452380Y-170738095D01*
X102452380Y-170928571D01*
X102404761Y-171023809D01*
X102357142Y-171071428D01*
X102261904Y-171119047D01*
X101976190Y-171119047D01*
X101880952Y-171071428D01*
X101833333Y-171023809D01*
X101785714Y-170928571D01*
X101785714Y-170738095D01*
X101833333Y-170642857D01*
X101785714Y-169738095D02*
X102452380Y-169738095D01*
X101785714Y-170166666D02*
X102309523Y-170166666D01*
X102404761Y-170119047D01*
X102452380Y-170023809D01*
X102452380Y-169880952D01*
X102404761Y-169785714D01*
X102357142Y-169738095D01*
X102452380Y-169261904D02*
X101785714Y-169261904D01*
X101452380Y-169261904D02*
X101500000Y-169309523D01*
X101547619Y-169261904D01*
X101500000Y-169214285D01*
X101452380Y-169261904D01*
X101547619Y-169261904D01*
X101785714Y-168785714D02*
X102452380Y-168785714D01*
X101880952Y-168785714D02*
X101833333Y-168738095D01*
X101785714Y-168642857D01*
X101785714Y-168500000D01*
X101833333Y-168404761D01*
X101928571Y-168357142D01*
X102452380Y-168357142D01*
X102452380Y-167738095D02*
X102404761Y-167833333D01*
X102357142Y-167880952D01*
X102261904Y-167928571D01*
X101976190Y-167928571D01*
X101880952Y-167880952D01*
X101833333Y-167833333D01*
X101785714Y-167738095D01*
X101785714Y-167595238D01*
X101833333Y-167500000D01*
X101880952Y-167452380D01*
X101976190Y-167404761D01*
X102261904Y-167404761D01*
X102357142Y-167452380D01*
X102404761Y-167500000D01*
X102452380Y-167595238D01*
X102452380Y-167738095D01*
D13*
X84464285Y-168473571D02*
X84464285Y-166973571D01*
X85035714Y-166973571D01*
X85178571Y-167045000D01*
X85250000Y-167116428D01*
X85321428Y-167259285D01*
X85321428Y-167473571D01*
X85250000Y-167616428D01*
X85178571Y-167687857D01*
X85035714Y-167759285D01*
X84464285Y-167759285D01*
X86607142Y-167473571D02*
X86607142Y-168473571D01*
X85964285Y-167473571D02*
X85964285Y-168259285D01*
X86035714Y-168402142D01*
X86178571Y-168473571D01*
X86392857Y-168473571D01*
X86535714Y-168402142D01*
X86607142Y-168330714D01*
X87250000Y-168402142D02*
X87392857Y-168473571D01*
X87678571Y-168473571D01*
X87821428Y-168402142D01*
X87892857Y-168259285D01*
X87892857Y-168187857D01*
X87821428Y-168045000D01*
X87678571Y-167973571D01*
X87464285Y-167973571D01*
X87321428Y-167902142D01*
X87250000Y-167759285D01*
X87250000Y-167687857D01*
X87321428Y-167545000D01*
X87464285Y-167473571D01*
X87678571Y-167473571D01*
X87821428Y-167545000D01*
X88535714Y-168473571D02*
X88535714Y-166973571D01*
X89178571Y-168473571D02*
X89178571Y-167687857D01*
X89107142Y-167545000D01*
X88964285Y-167473571D01*
X88750000Y-167473571D01*
X88607142Y-167545000D01*
X88535714Y-167616428D01*
X90821428Y-167473571D02*
X91392857Y-167473571D01*
X91035714Y-166973571D02*
X91035714Y-168259285D01*
X91107142Y-168402142D01*
X91250000Y-168473571D01*
X91392857Y-168473571D01*
X92107142Y-168473571D02*
X91964285Y-168402142D01*
X91892857Y-168330714D01*
X91821428Y-168187857D01*
X91821428Y-167759285D01*
X91892857Y-167616428D01*
X91964285Y-167545000D01*
X92107142Y-167473571D01*
X92321428Y-167473571D01*
X92464285Y-167545000D01*
X92535714Y-167616428D01*
X92607142Y-167759285D01*
X92607142Y-168187857D01*
X92535714Y-168330714D01*
X92464285Y-168402142D01*
X92321428Y-168473571D01*
X92107142Y-168473571D01*
X84785714Y-169383571D02*
X85642857Y-169383571D01*
X85214285Y-170883571D02*
X85214285Y-169383571D01*
X86142857Y-170883571D02*
X86142857Y-169883571D01*
X86142857Y-170169285D02*
X86214285Y-170026428D01*
X86285714Y-169955000D01*
X86428571Y-169883571D01*
X86571428Y-169883571D01*
X87071428Y-170883571D02*
X87071428Y-169883571D01*
X87071428Y-169383571D02*
X87000000Y-169455000D01*
X87071428Y-169526428D01*
X87142857Y-169455000D01*
X87071428Y-169383571D01*
X87071428Y-169526428D01*
X88428571Y-169883571D02*
X88428571Y-171097857D01*
X88357142Y-171240714D01*
X88285714Y-171312142D01*
X88142857Y-171383571D01*
X87928571Y-171383571D01*
X87785714Y-171312142D01*
X88428571Y-170812142D02*
X88285714Y-170883571D01*
X88000000Y-170883571D01*
X87857142Y-170812142D01*
X87785714Y-170740714D01*
X87714285Y-170597857D01*
X87714285Y-170169285D01*
X87785714Y-170026428D01*
X87857142Y-169955000D01*
X88000000Y-169883571D01*
X88285714Y-169883571D01*
X88428571Y-169955000D01*
X89785714Y-169883571D02*
X89785714Y-171097857D01*
X89714285Y-171240714D01*
X89642857Y-171312142D01*
X89500000Y-171383571D01*
X89285714Y-171383571D01*
X89142857Y-171312142D01*
X89785714Y-170812142D02*
X89642857Y-170883571D01*
X89357142Y-170883571D01*
X89214285Y-170812142D01*
X89142857Y-170740714D01*
X89071428Y-170597857D01*
X89071428Y-170169285D01*
X89142857Y-170026428D01*
X89214285Y-169955000D01*
X89357142Y-169883571D01*
X89642857Y-169883571D01*
X89785714Y-169955000D01*
X91071428Y-170812142D02*
X90928571Y-170883571D01*
X90642857Y-170883571D01*
X90500000Y-170812142D01*
X90428571Y-170669285D01*
X90428571Y-170097857D01*
X90500000Y-169955000D01*
X90642857Y-169883571D01*
X90928571Y-169883571D01*
X91071428Y-169955000D01*
X91142857Y-170097857D01*
X91142857Y-170240714D01*
X90428571Y-170383571D01*
X91785714Y-170883571D02*
X91785714Y-169883571D01*
X91785714Y-170169285D02*
X91857142Y-170026428D01*
X91928571Y-169955000D01*
X92071428Y-169883571D01*
X92214285Y-169883571D01*
D10*
X73261904Y-177309523D02*
X73547619Y-177404761D01*
X74023809Y-177404761D01*
X74214285Y-177309523D01*
X74309523Y-177214285D01*
X74404761Y-177023809D01*
X74404761Y-176833333D01*
X74309523Y-176642857D01*
X74214285Y-176547619D01*
X74023809Y-176452380D01*
X73642857Y-176357142D01*
X73452380Y-176261904D01*
X73357142Y-176166666D01*
X73261904Y-175976190D01*
X73261904Y-175785714D01*
X73357142Y-175595238D01*
X73452380Y-175500000D01*
X73642857Y-175404761D01*
X74119047Y-175404761D01*
X74404761Y-175500000D01*
X76023809Y-177309523D02*
X75833333Y-177404761D01*
X75452380Y-177404761D01*
X75261904Y-177309523D01*
X75166666Y-177119047D01*
X75166666Y-176357142D01*
X75261904Y-176166666D01*
X75452380Y-176071428D01*
X75833333Y-176071428D01*
X76023809Y-176166666D01*
X76119047Y-176357142D01*
X76119047Y-176547619D01*
X75166666Y-176738095D01*
X77261904Y-177404761D02*
X77071428Y-177309523D01*
X76976190Y-177119047D01*
X76976190Y-175404761D01*
X78785714Y-177309523D02*
X78595238Y-177404761D01*
X78214285Y-177404761D01*
X78023809Y-177309523D01*
X77928571Y-177119047D01*
X77928571Y-176357142D01*
X78023809Y-176166666D01*
X78214285Y-176071428D01*
X78595238Y-176071428D01*
X78785714Y-176166666D01*
X78880952Y-176357142D01*
X78880952Y-176547619D01*
X77928571Y-176738095D01*
X80595238Y-177309523D02*
X80404761Y-177404761D01*
X80023809Y-177404761D01*
X79833333Y-177309523D01*
X79738095Y-177214285D01*
X79642857Y-177023809D01*
X79642857Y-176452380D01*
X79738095Y-176261904D01*
X79833333Y-176166666D01*
X80023809Y-176071428D01*
X80404761Y-176071428D01*
X80595238Y-176166666D01*
X81166666Y-176071428D02*
X81928571Y-176071428D01*
X81452380Y-175404761D02*
X81452380Y-177119047D01*
X81547619Y-177309523D01*
X81738095Y-177404761D01*
X81928571Y-177404761D01*
X97285714Y-122404761D02*
X96619047Y-121452380D01*
X96142857Y-122404761D02*
X96142857Y-120404761D01*
X96904761Y-120404761D01*
X97095238Y-120500000D01*
X97190476Y-120595238D01*
X97285714Y-120785714D01*
X97285714Y-121071428D01*
X97190476Y-121261904D01*
X97095238Y-121357142D01*
X96904761Y-121452380D01*
X96142857Y-121452380D01*
X98142857Y-121071428D02*
X98142857Y-122404761D01*
X98142857Y-121261904D02*
X98238095Y-121166666D01*
X98428571Y-121071428D01*
X98714285Y-121071428D01*
X98904761Y-121166666D01*
X99000000Y-121357142D01*
X99000000Y-122404761D01*
X100809523Y-122404761D02*
X100809523Y-120404761D01*
X100809523Y-122309523D02*
X100619047Y-122404761D01*
X100238095Y-122404761D01*
X100047619Y-122309523D01*
X99952380Y-122214285D01*
X99857142Y-122023809D01*
X99857142Y-121452380D01*
X99952380Y-121261904D01*
X100047619Y-121166666D01*
X100238095Y-121071428D01*
X100619047Y-121071428D01*
X100809523Y-121166666D01*
X103190476Y-120309523D02*
X101476190Y-122880952D01*
X105000000Y-122404761D02*
X104333333Y-121452380D01*
X103857142Y-122404761D02*
X103857142Y-120404761D01*
X104619047Y-120404761D01*
X104809523Y-120500000D01*
X104904761Y-120595238D01*
X105000000Y-120785714D01*
X105000000Y-121071428D01*
X104904761Y-121261904D01*
X104809523Y-121357142D01*
X104619047Y-121452380D01*
X103857142Y-121452380D01*
X105857142Y-121071428D02*
X105857142Y-123071428D01*
X105857142Y-121166666D02*
X106047619Y-121071428D01*
X106428571Y-121071428D01*
X106619047Y-121166666D01*
X106714285Y-121261904D01*
X106809523Y-121452380D01*
X106809523Y-122023809D01*
X106714285Y-122214285D01*
X106619047Y-122309523D01*
X106428571Y-122404761D01*
X106047619Y-122404761D01*
X105857142Y-122309523D01*
X107380952Y-121071428D02*
X108142857Y-121071428D01*
X107666666Y-120404761D02*
X107666666Y-122119047D01*
X107761904Y-122309523D01*
X107952380Y-122404761D01*
X108142857Y-122404761D01*
X93000000Y-105404761D02*
X93000000Y-103404761D01*
X93476190Y-103404761D01*
X93761904Y-103500000D01*
X93952380Y-103690476D01*
X94047619Y-103880952D01*
X94142857Y-104261904D01*
X94142857Y-104547619D01*
X94047619Y-104928571D01*
X93952380Y-105119047D01*
X93761904Y-105309523D01*
X93476190Y-105404761D01*
X93000000Y-105404761D01*
X95761904Y-105309523D02*
X95571428Y-105404761D01*
X95190476Y-105404761D01*
X95000000Y-105309523D01*
X94904761Y-105119047D01*
X94904761Y-104357142D01*
X95000000Y-104166666D01*
X95190476Y-104071428D01*
X95571428Y-104071428D01*
X95761904Y-104166666D01*
X95857142Y-104357142D01*
X95857142Y-104547619D01*
X94904761Y-104738095D01*
X97571428Y-105309523D02*
X97380952Y-105404761D01*
X97000000Y-105404761D01*
X96809523Y-105309523D01*
X96714285Y-105214285D01*
X96619047Y-105023809D01*
X96619047Y-104452380D01*
X96714285Y-104261904D01*
X96809523Y-104166666D01*
X97000000Y-104071428D01*
X97380952Y-104071428D01*
X97571428Y-104166666D01*
X99285714Y-105404761D02*
X99285714Y-104357142D01*
X99190476Y-104166666D01*
X99000000Y-104071428D01*
X98619047Y-104071428D01*
X98428571Y-104166666D01*
X99285714Y-105309523D02*
X99095238Y-105404761D01*
X98619047Y-105404761D01*
X98428571Y-105309523D01*
X98333333Y-105119047D01*
X98333333Y-104928571D01*
X98428571Y-104738095D01*
X98619047Y-104642857D01*
X99095238Y-104642857D01*
X99285714Y-104547619D01*
X100047619Y-104071428D02*
X100523809Y-105404761D01*
X101000000Y-104071428D02*
X100523809Y-105404761D01*
X100333333Y-105880952D01*
X100238095Y-105976190D01*
X100047619Y-106071428D01*
X103190476Y-103309523D02*
X101476190Y-105880952D01*
X103857142Y-105404761D02*
X103857142Y-103404761D01*
X104333333Y-103404761D01*
X104619047Y-103500000D01*
X104809523Y-103690476D01*
X104904761Y-103880952D01*
X105000000Y-104261904D01*
X105000000Y-104547619D01*
X104904761Y-104928571D01*
X104809523Y-105119047D01*
X104619047Y-105309523D01*
X104333333Y-105404761D01*
X103857142Y-105404761D01*
X106619047Y-105309523D02*
X106428571Y-105404761D01*
X106047619Y-105404761D01*
X105857142Y-105309523D01*
X105761904Y-105119047D01*
X105761904Y-104357142D01*
X105857142Y-104166666D01*
X106047619Y-104071428D01*
X106428571Y-104071428D01*
X106619047Y-104166666D01*
X106714285Y-104357142D01*
X106714285Y-104547619D01*
X105761904Y-104738095D01*
X107857142Y-105404761D02*
X107666666Y-105309523D01*
X107571428Y-105119047D01*
X107571428Y-103404761D01*
X109476190Y-105404761D02*
X109476190Y-104357142D01*
X109380952Y-104166666D01*
X109190476Y-104071428D01*
X108809523Y-104071428D01*
X108619047Y-104166666D01*
X109476190Y-105309523D02*
X109285714Y-105404761D01*
X108809523Y-105404761D01*
X108619047Y-105309523D01*
X108523809Y-105119047D01*
X108523809Y-104928571D01*
X108619047Y-104738095D01*
X108809523Y-104642857D01*
X109285714Y-104642857D01*
X109476190Y-104547619D01*
X110238095Y-104071428D02*
X110714285Y-105404761D01*
X111190476Y-104071428D02*
X110714285Y-105404761D01*
X110523809Y-105880952D01*
X110428571Y-105976190D01*
X110238095Y-106071428D01*
X98476190Y-87404761D02*
X97523809Y-87404761D01*
X97523809Y-85404761D01*
X99904761Y-87309523D02*
X99714285Y-87404761D01*
X99333333Y-87404761D01*
X99142857Y-87309523D01*
X99047619Y-87119047D01*
X99047619Y-86357142D01*
X99142857Y-86166666D01*
X99333333Y-86071428D01*
X99714285Y-86071428D01*
X99904761Y-86166666D01*
X100000000Y-86357142D01*
X100000000Y-86547619D01*
X99047619Y-86738095D01*
X100857142Y-86071428D02*
X100857142Y-87404761D01*
X100857142Y-86261904D02*
X100952380Y-86166666D01*
X101142857Y-86071428D01*
X101428571Y-86071428D01*
X101619047Y-86166666D01*
X101714285Y-86357142D01*
X101714285Y-87404761D01*
X103523809Y-86071428D02*
X103523809Y-87690476D01*
X103428571Y-87880952D01*
X103333333Y-87976190D01*
X103142857Y-88071428D01*
X102857142Y-88071428D01*
X102666666Y-87976190D01*
X103523809Y-87309523D02*
X103333333Y-87404761D01*
X102952380Y-87404761D01*
X102761904Y-87309523D01*
X102666666Y-87214285D01*
X102571428Y-87023809D01*
X102571428Y-86452380D01*
X102666666Y-86261904D01*
X102761904Y-86166666D01*
X102952380Y-86071428D01*
X103333333Y-86071428D01*
X103523809Y-86166666D01*
X104190476Y-86071428D02*
X104952380Y-86071428D01*
X104476190Y-85404761D02*
X104476190Y-87119047D01*
X104571428Y-87309523D01*
X104761904Y-87404761D01*
X104952380Y-87404761D01*
X105619047Y-87404761D02*
X105619047Y-85404761D01*
X106476190Y-87404761D02*
X106476190Y-86357142D01*
X106380952Y-86166666D01*
X106190476Y-86071428D01*
X105904761Y-86071428D01*
X105714285Y-86166666D01*
X105619047Y-86261904D01*
X69642857Y-158404761D02*
X69642857Y-160023809D01*
X69738095Y-160214285D01*
X69833333Y-160309523D01*
X70023809Y-160404761D01*
X70404761Y-160404761D01*
X70595238Y-160309523D01*
X70690476Y-160214285D01*
X70785714Y-160023809D01*
X70785714Y-158404761D01*
X71642857Y-160309523D02*
X71833333Y-160404761D01*
X72214285Y-160404761D01*
X72404761Y-160309523D01*
X72500000Y-160119047D01*
X72500000Y-160023809D01*
X72404761Y-159833333D01*
X72214285Y-159738095D01*
X71928571Y-159738095D01*
X71738095Y-159642857D01*
X71642857Y-159452380D01*
X71642857Y-159357142D01*
X71738095Y-159166666D01*
X71928571Y-159071428D01*
X72214285Y-159071428D01*
X72404761Y-159166666D01*
X74119047Y-160309523D02*
X73928571Y-160404761D01*
X73547619Y-160404761D01*
X73357142Y-160309523D01*
X73261904Y-160119047D01*
X73261904Y-159357142D01*
X73357142Y-159166666D01*
X73547619Y-159071428D01*
X73928571Y-159071428D01*
X74119047Y-159166666D01*
X74214285Y-159357142D01*
X74214285Y-159547619D01*
X73261904Y-159738095D01*
X75071428Y-160404761D02*
X75071428Y-159071428D01*
X75071428Y-159452380D02*
X75166666Y-159261904D01*
X75261904Y-159166666D01*
X75452380Y-159071428D01*
X75642857Y-159071428D01*
X69785714Y-153404761D02*
X69785714Y-151404761D01*
X70452380Y-152833333D01*
X71119047Y-151404761D01*
X71119047Y-153404761D01*
X72928571Y-153404761D02*
X72928571Y-152357142D01*
X72833333Y-152166666D01*
X72642857Y-152071428D01*
X72261904Y-152071428D01*
X72071428Y-152166666D01*
X72928571Y-153309523D02*
X72738095Y-153404761D01*
X72261904Y-153404761D01*
X72071428Y-153309523D01*
X71976190Y-153119047D01*
X71976190Y-152928571D01*
X72071428Y-152738095D01*
X72261904Y-152642857D01*
X72738095Y-152642857D01*
X72928571Y-152547619D01*
X73690476Y-152071428D02*
X74166666Y-153404761D01*
X74642857Y-152071428D02*
X74166666Y-153404761D01*
X73976190Y-153880952D01*
X73880952Y-153976190D01*
X73690476Y-154071428D01*
X75119047Y-152071428D02*
X75880952Y-152071428D01*
X75404761Y-151404761D02*
X75404761Y-153119047D01*
X75500000Y-153309523D01*
X75690476Y-153404761D01*
X75880952Y-153404761D01*
X77404761Y-153404761D02*
X77404761Y-152357142D01*
X77309523Y-152166666D01*
X77119047Y-152071428D01*
X76738095Y-152071428D01*
X76547619Y-152166666D01*
X77404761Y-153309523D02*
X77214285Y-153404761D01*
X76738095Y-153404761D01*
X76547619Y-153309523D01*
X76452380Y-153119047D01*
X76452380Y-152928571D01*
X76547619Y-152738095D01*
X76738095Y-152642857D01*
X77214285Y-152642857D01*
X77404761Y-152547619D01*
X79214285Y-152071428D02*
X79214285Y-153690476D01*
X79119047Y-153880952D01*
X79023809Y-153976190D01*
X78833333Y-154071428D01*
X78547619Y-154071428D01*
X78357142Y-153976190D01*
X79214285Y-153309523D02*
X79023809Y-153404761D01*
X78642857Y-153404761D01*
X78452380Y-153309523D01*
X78357142Y-153214285D01*
X78261904Y-153023809D01*
X78261904Y-152452380D01*
X78357142Y-152261904D01*
X78452380Y-152166666D01*
X78642857Y-152071428D01*
X79023809Y-152071428D01*
X79214285Y-152166666D01*
X69833333Y-144404761D02*
X70976190Y-144404761D01*
X70404761Y-146404761D02*
X70404761Y-144404761D01*
X71928571Y-146404761D02*
X71738095Y-146309523D01*
X71642857Y-146214285D01*
X71547619Y-146023809D01*
X71547619Y-145452380D01*
X71642857Y-145261904D01*
X71738095Y-145166666D01*
X71928571Y-145071428D01*
X72214285Y-145071428D01*
X72404761Y-145166666D01*
X72500000Y-145261904D01*
X72595238Y-145452380D01*
X72595238Y-146023809D01*
X72500000Y-146214285D01*
X72404761Y-146309523D01*
X72214285Y-146404761D01*
X71928571Y-146404761D01*
X74309523Y-145071428D02*
X74309523Y-146690476D01*
X74214285Y-146880952D01*
X74119047Y-146976190D01*
X73928571Y-147071428D01*
X73642857Y-147071428D01*
X73452380Y-146976190D01*
X74309523Y-146309523D02*
X74119047Y-146404761D01*
X73738095Y-146404761D01*
X73547619Y-146309523D01*
X73452380Y-146214285D01*
X73357142Y-146023809D01*
X73357142Y-145452380D01*
X73452380Y-145261904D01*
X73547619Y-145166666D01*
X73738095Y-145071428D01*
X74119047Y-145071428D01*
X74309523Y-145166666D01*
X76119047Y-145071428D02*
X76119047Y-146690476D01*
X76023809Y-146880952D01*
X75928571Y-146976190D01*
X75738095Y-147071428D01*
X75452380Y-147071428D01*
X75261904Y-146976190D01*
X76119047Y-146309523D02*
X75928571Y-146404761D01*
X75547619Y-146404761D01*
X75357142Y-146309523D01*
X75261904Y-146214285D01*
X75166666Y-146023809D01*
X75166666Y-145452380D01*
X75261904Y-145261904D01*
X75357142Y-145166666D01*
X75547619Y-145071428D01*
X75928571Y-145071428D01*
X76119047Y-145166666D01*
X77357142Y-146404761D02*
X77166666Y-146309523D01*
X77071428Y-146119047D01*
X77071428Y-144404761D01*
X78880952Y-146309523D02*
X78690476Y-146404761D01*
X78309523Y-146404761D01*
X78119047Y-146309523D01*
X78023809Y-146119047D01*
X78023809Y-145357142D01*
X78119047Y-145166666D01*
X78309523Y-145071428D01*
X78690476Y-145071428D01*
X78880952Y-145166666D01*
X78976190Y-145357142D01*
X78976190Y-145547619D01*
X78023809Y-145738095D01*
X69547619Y-139309523D02*
X69833333Y-139404761D01*
X70309523Y-139404761D01*
X70500000Y-139309523D01*
X70595238Y-139214285D01*
X70690476Y-139023809D01*
X70690476Y-138833333D01*
X70595238Y-138642857D01*
X70500000Y-138547619D01*
X70309523Y-138452380D01*
X69928571Y-138357142D01*
X69738095Y-138261904D01*
X69642857Y-138166666D01*
X69547619Y-137976190D01*
X69547619Y-137785714D01*
X69642857Y-137595238D01*
X69738095Y-137500000D01*
X69928571Y-137404761D01*
X70404761Y-137404761D01*
X70690476Y-137500000D01*
X71261904Y-138071428D02*
X72023809Y-138071428D01*
X71547619Y-137404761D02*
X71547619Y-139119047D01*
X71642857Y-139309523D01*
X71833333Y-139404761D01*
X72023809Y-139404761D01*
X72690476Y-139404761D02*
X72690476Y-138071428D01*
X72690476Y-138452380D02*
X72785714Y-138261904D01*
X72880952Y-138166666D01*
X73071428Y-138071428D01*
X73261904Y-138071428D01*
X74690476Y-139309523D02*
X74500000Y-139404761D01*
X74119047Y-139404761D01*
X73928571Y-139309523D01*
X73833333Y-139119047D01*
X73833333Y-138357142D01*
X73928571Y-138166666D01*
X74119047Y-138071428D01*
X74500000Y-138071428D01*
X74690476Y-138166666D01*
X74785714Y-138357142D01*
X74785714Y-138547619D01*
X73833333Y-138738095D01*
X75357142Y-138071428D02*
X76119047Y-138071428D01*
X75642857Y-137404761D02*
X75642857Y-139119047D01*
X75738095Y-139309523D01*
X75928571Y-139404761D01*
X76119047Y-139404761D01*
X77642857Y-139309523D02*
X77452380Y-139404761D01*
X77071428Y-139404761D01*
X76880952Y-139309523D01*
X76785714Y-139214285D01*
X76690476Y-139023809D01*
X76690476Y-138452380D01*
X76785714Y-138261904D01*
X76880952Y-138166666D01*
X77071428Y-138071428D01*
X77452380Y-138071428D01*
X77642857Y-138166666D01*
X78500000Y-139404761D02*
X78500000Y-137404761D01*
X79357142Y-139404761D02*
X79357142Y-138357142D01*
X79261904Y-138166666D01*
X79071428Y-138071428D01*
X78785714Y-138071428D01*
X78595238Y-138166666D01*
X78500000Y-138261904D01*
X69690476Y-132404761D02*
X69690476Y-130404761D01*
X70166666Y-130404761D01*
X70452380Y-130500000D01*
X70642857Y-130690476D01*
X70738095Y-130880952D01*
X70833333Y-131261904D01*
X70833333Y-131547619D01*
X70738095Y-131928571D01*
X70642857Y-132119047D01*
X70452380Y-132309523D01*
X70166666Y-132404761D01*
X69690476Y-132404761D01*
X71976190Y-132404761D02*
X71785714Y-132309523D01*
X71690476Y-132214285D01*
X71595238Y-132023809D01*
X71595238Y-131452380D01*
X71690476Y-131261904D01*
X71785714Y-131166666D01*
X71976190Y-131071428D01*
X72261904Y-131071428D01*
X72452380Y-131166666D01*
X72547619Y-131261904D01*
X72642857Y-131452380D01*
X72642857Y-132023809D01*
X72547619Y-132214285D01*
X72452380Y-132309523D01*
X72261904Y-132404761D01*
X71976190Y-132404761D01*
X73309523Y-131071428D02*
X73690476Y-132404761D01*
X74071428Y-131452380D01*
X74452380Y-132404761D01*
X74833333Y-131071428D01*
X75595238Y-131071428D02*
X75595238Y-132404761D01*
X75595238Y-131261904D02*
X75690476Y-131166666D01*
X75880952Y-131071428D01*
X76166666Y-131071428D01*
X76357142Y-131166666D01*
X76452380Y-131357142D01*
X76452380Y-132404761D01*
X78833333Y-130309523D02*
X77119047Y-132880952D01*
X79500000Y-130404761D02*
X79500000Y-132023809D01*
X79595238Y-132214285D01*
X79690476Y-132309523D01*
X79880952Y-132404761D01*
X80261904Y-132404761D01*
X80452380Y-132309523D01*
X80547619Y-132214285D01*
X80642857Y-132023809D01*
X80642857Y-130404761D01*
X81595238Y-131071428D02*
X81595238Y-133071428D01*
X81595238Y-131166666D02*
X81785714Y-131071428D01*
X82166666Y-131071428D01*
X82357142Y-131166666D01*
X82452380Y-131261904D01*
X82547619Y-131452380D01*
X82547619Y-132023809D01*
X82452380Y-132214285D01*
X82357142Y-132309523D01*
X82166666Y-132404761D01*
X81785714Y-132404761D01*
X81595238Y-132309523D01*
X83404761Y-132214285D02*
X83500000Y-132309523D01*
X83404761Y-132404761D01*
X83309523Y-132309523D01*
X83404761Y-132214285D01*
X83404761Y-132404761D01*
X84357142Y-132214285D02*
X84452380Y-132309523D01*
X84357142Y-132404761D01*
X84261904Y-132309523D01*
X84357142Y-132214285D01*
X84357142Y-132404761D01*
X85309523Y-132214285D02*
X85404761Y-132309523D01*
X85309523Y-132404761D01*
X85214285Y-132309523D01*
X85309523Y-132214285D01*
X85309523Y-132404761D01*
X69690476Y-123404761D02*
X69690476Y-125023809D01*
X69785714Y-125214285D01*
X69880952Y-125309523D01*
X70071428Y-125404761D01*
X70452380Y-125404761D01*
X70642857Y-125309523D01*
X70738095Y-125214285D01*
X70833333Y-125023809D01*
X70833333Y-123404761D01*
X71785714Y-124071428D02*
X71785714Y-126071428D01*
X71785714Y-124166666D02*
X71976190Y-124071428D01*
X72357142Y-124071428D01*
X72547619Y-124166666D01*
X72642857Y-124261904D01*
X72738095Y-124452380D01*
X72738095Y-125023809D01*
X72642857Y-125214285D01*
X72547619Y-125309523D01*
X72357142Y-125404761D01*
X71976190Y-125404761D01*
X71785714Y-125309523D01*
X75023809Y-123309523D02*
X73309523Y-125880952D01*
X75690476Y-125404761D02*
X75690476Y-123404761D01*
X76166666Y-123404761D01*
X76452380Y-123500000D01*
X76642857Y-123690476D01*
X76738095Y-123880952D01*
X76833333Y-124261904D01*
X76833333Y-124547619D01*
X76738095Y-124928571D01*
X76642857Y-125119047D01*
X76452380Y-125309523D01*
X76166666Y-125404761D01*
X75690476Y-125404761D01*
X77976190Y-125404761D02*
X77785714Y-125309523D01*
X77690476Y-125214285D01*
X77595238Y-125023809D01*
X77595238Y-124452380D01*
X77690476Y-124261904D01*
X77785714Y-124166666D01*
X77976190Y-124071428D01*
X78261904Y-124071428D01*
X78452380Y-124166666D01*
X78547619Y-124261904D01*
X78642857Y-124452380D01*
X78642857Y-125023809D01*
X78547619Y-125214285D01*
X78452380Y-125309523D01*
X78261904Y-125404761D01*
X77976190Y-125404761D01*
X79309523Y-124071428D02*
X79690476Y-125404761D01*
X80071428Y-124452380D01*
X80452380Y-125404761D01*
X80833333Y-124071428D01*
X81595238Y-124071428D02*
X81595238Y-125404761D01*
X81595238Y-124261904D02*
X81690476Y-124166666D01*
X81880952Y-124071428D01*
X82166666Y-124071428D01*
X82357142Y-124166666D01*
X82452380Y-124357142D01*
X82452380Y-125404761D01*
X83404761Y-125214285D02*
X83500000Y-125309523D01*
X83404761Y-125404761D01*
X83309523Y-125309523D01*
X83404761Y-125214285D01*
X83404761Y-125404761D01*
X84357142Y-125214285D02*
X84452380Y-125309523D01*
X84357142Y-125404761D01*
X84261904Y-125309523D01*
X84357142Y-125214285D01*
X84357142Y-125404761D01*
X85309523Y-125214285D02*
X85404761Y-125309523D01*
X85309523Y-125404761D01*
X85214285Y-125309523D01*
X85309523Y-125214285D01*
X85309523Y-125404761D01*
X69690476Y-118404761D02*
X69690476Y-116404761D01*
X70166666Y-116404761D01*
X70452380Y-116500000D01*
X70642857Y-116690476D01*
X70738095Y-116880952D01*
X70833333Y-117261904D01*
X70833333Y-117547619D01*
X70738095Y-117928571D01*
X70642857Y-118119047D01*
X70452380Y-118309523D01*
X70166666Y-118404761D01*
X69690476Y-118404761D01*
X71976190Y-118404761D02*
X71785714Y-118309523D01*
X71690476Y-118214285D01*
X71595238Y-118023809D01*
X71595238Y-117452380D01*
X71690476Y-117261904D01*
X71785714Y-117166666D01*
X71976190Y-117071428D01*
X72261904Y-117071428D01*
X72452380Y-117166666D01*
X72547619Y-117261904D01*
X72642857Y-117452380D01*
X72642857Y-118023809D01*
X72547619Y-118214285D01*
X72452380Y-118309523D01*
X72261904Y-118404761D01*
X71976190Y-118404761D01*
X73309523Y-117071428D02*
X73690476Y-118404761D01*
X74071428Y-117452380D01*
X74452380Y-118404761D01*
X74833333Y-117071428D01*
X75595238Y-117071428D02*
X75595238Y-118404761D01*
X75595238Y-117261904D02*
X75690476Y-117166666D01*
X75880952Y-117071428D01*
X76166666Y-117071428D01*
X76357142Y-117166666D01*
X76452380Y-117357142D01*
X76452380Y-118404761D01*
X77404761Y-118214285D02*
X77500000Y-118309523D01*
X77404761Y-118404761D01*
X77309523Y-118309523D01*
X77404761Y-118214285D01*
X77404761Y-118404761D01*
X78357142Y-118214285D02*
X78452380Y-118309523D01*
X78357142Y-118404761D01*
X78261904Y-118309523D01*
X78357142Y-118214285D01*
X78357142Y-118404761D01*
X79309523Y-118214285D02*
X79404761Y-118309523D01*
X79309523Y-118404761D01*
X79214285Y-118309523D01*
X79309523Y-118214285D01*
X79309523Y-118404761D01*
X69595238Y-109404761D02*
X69595238Y-111023809D01*
X69690476Y-111214285D01*
X69785714Y-111309523D01*
X69976190Y-111404761D01*
X70357142Y-111404761D01*
X70547619Y-111309523D01*
X70642857Y-111214285D01*
X70738095Y-111023809D01*
X70738095Y-109404761D01*
X71690476Y-110071428D02*
X71690476Y-112071428D01*
X71690476Y-110166666D02*
X71880952Y-110071428D01*
X72261904Y-110071428D01*
X72452380Y-110166666D01*
X72547619Y-110261904D01*
X72642857Y-110452380D01*
X72642857Y-111023809D01*
X72547619Y-111214285D01*
X72452380Y-111309523D01*
X72261904Y-111404761D01*
X71880952Y-111404761D01*
X71690476Y-111309523D01*
X73499999Y-111214285D02*
X73595238Y-111309523D01*
X73499999Y-111404761D01*
X73404761Y-111309523D01*
X73499999Y-111214285D01*
X73499999Y-111404761D01*
X74452380Y-111214285D02*
X74547619Y-111309523D01*
X74452380Y-111404761D01*
X74357142Y-111309523D01*
X74452380Y-111214285D01*
X74452380Y-111404761D01*
X75404761Y-111214285D02*
X75500000Y-111309523D01*
X75404761Y-111404761D01*
X75309523Y-111309523D01*
X75404761Y-111214285D01*
X75404761Y-111404761D01*
X69619047Y-104404761D02*
X69619047Y-102404761D01*
X70095238Y-102404761D01*
X70380952Y-102500000D01*
X70571428Y-102690476D01*
X70666666Y-102880952D01*
X70761904Y-103261904D01*
X70761904Y-103547619D01*
X70666666Y-103928571D01*
X70571428Y-104119047D01*
X70380952Y-104309523D01*
X70095238Y-104404761D01*
X69619047Y-104404761D01*
X71904761Y-104404761D02*
X71714285Y-104309523D01*
X71619047Y-104214285D01*
X71523809Y-104023809D01*
X71523809Y-103452380D01*
X71619047Y-103261904D01*
X71714285Y-103166666D01*
X71904761Y-103071428D01*
X72190476Y-103071428D01*
X72380952Y-103166666D01*
X72476190Y-103261904D01*
X72571428Y-103452380D01*
X72571428Y-104023809D01*
X72476190Y-104214285D01*
X72380952Y-104309523D01*
X72190476Y-104404761D01*
X71904761Y-104404761D01*
X73238095Y-103071428D02*
X73619047Y-104404761D01*
X74000000Y-103452380D01*
X74380952Y-104404761D01*
X74761904Y-103071428D01*
X75523809Y-103071428D02*
X75523809Y-104404761D01*
X75523809Y-103261904D02*
X75619047Y-103166666D01*
X75809523Y-103071428D01*
X76095238Y-103071428D01*
X76285714Y-103166666D01*
X76380952Y-103357142D01*
X76380952Y-104404761D01*
X78761904Y-102309523D02*
X77047619Y-104880952D01*
X79428571Y-102404761D02*
X79428571Y-104023809D01*
X79523809Y-104214285D01*
X79619047Y-104309523D01*
X79809523Y-104404761D01*
X80190476Y-104404761D01*
X80380952Y-104309523D01*
X80476190Y-104214285D01*
X80571428Y-104023809D01*
X80571428Y-102404761D01*
X81523809Y-103071428D02*
X81523809Y-105071428D01*
X81523809Y-103166666D02*
X81714285Y-103071428D01*
X82095238Y-103071428D01*
X82285714Y-103166666D01*
X82380952Y-103261904D01*
X82476190Y-103452380D01*
X82476190Y-104023809D01*
X82380952Y-104214285D01*
X82285714Y-104309523D01*
X82095238Y-104404761D01*
X81714285Y-104404761D01*
X81523809Y-104309523D01*
X69619047Y-95404761D02*
X69619047Y-97023809D01*
X69714285Y-97214285D01*
X69809523Y-97309523D01*
X70000000Y-97404761D01*
X70380952Y-97404761D01*
X70571428Y-97309523D01*
X70666666Y-97214285D01*
X70761904Y-97023809D01*
X70761904Y-95404761D01*
X71714285Y-96071428D02*
X71714285Y-98071428D01*
X71714285Y-96166666D02*
X71904761Y-96071428D01*
X72285714Y-96071428D01*
X72476190Y-96166666D01*
X72571428Y-96261904D01*
X72666666Y-96452380D01*
X72666666Y-97023809D01*
X72571428Y-97214285D01*
X72476190Y-97309523D01*
X72285714Y-97404761D01*
X71904761Y-97404761D01*
X71714285Y-97309523D01*
X74952380Y-95309523D02*
X73238095Y-97880952D01*
X75619047Y-97404761D02*
X75619047Y-95404761D01*
X76095238Y-95404761D01*
X76380952Y-95500000D01*
X76571428Y-95690476D01*
X76666666Y-95880952D01*
X76761904Y-96261904D01*
X76761904Y-96547619D01*
X76666666Y-96928571D01*
X76571428Y-97119047D01*
X76380952Y-97309523D01*
X76095238Y-97404761D01*
X75619047Y-97404761D01*
X77904761Y-97404761D02*
X77714285Y-97309523D01*
X77619047Y-97214285D01*
X77523809Y-97023809D01*
X77523809Y-96452380D01*
X77619047Y-96261904D01*
X77714285Y-96166666D01*
X77904761Y-96071428D01*
X78190476Y-96071428D01*
X78380952Y-96166666D01*
X78476190Y-96261904D01*
X78571428Y-96452380D01*
X78571428Y-97023809D01*
X78476190Y-97214285D01*
X78380952Y-97309523D01*
X78190476Y-97404761D01*
X77904761Y-97404761D01*
X79238095Y-96071428D02*
X79619047Y-97404761D01*
X80000000Y-96452380D01*
X80380952Y-97404761D01*
X80761904Y-96071428D01*
X81523809Y-96071428D02*
X81523809Y-97404761D01*
X81523809Y-96261904D02*
X81619047Y-96166666D01*
X81809523Y-96071428D01*
X82095238Y-96071428D01*
X82285714Y-96166666D01*
X82380952Y-96357142D01*
X82380952Y-97404761D01*
X69619047Y-90404761D02*
X69619047Y-88404761D01*
X70095238Y-88404761D01*
X70380952Y-88500000D01*
X70571428Y-88690476D01*
X70666666Y-88880952D01*
X70761904Y-89261904D01*
X70761904Y-89547619D01*
X70666666Y-89928571D01*
X70571428Y-90119047D01*
X70380952Y-90309523D01*
X70095238Y-90404761D01*
X69619047Y-90404761D01*
X71904761Y-90404761D02*
X71714285Y-90309523D01*
X71619047Y-90214285D01*
X71523809Y-90023809D01*
X71523809Y-89452380D01*
X71619047Y-89261904D01*
X71714285Y-89166666D01*
X71904761Y-89071428D01*
X72190476Y-89071428D01*
X72380952Y-89166666D01*
X72476190Y-89261904D01*
X72571428Y-89452380D01*
X72571428Y-90023809D01*
X72476190Y-90214285D01*
X72380952Y-90309523D01*
X72190476Y-90404761D01*
X71904761Y-90404761D01*
X73238095Y-89071428D02*
X73619047Y-90404761D01*
X74000000Y-89452380D01*
X74380952Y-90404761D01*
X74761904Y-89071428D01*
X75523809Y-89071428D02*
X75523809Y-90404761D01*
X75523809Y-89261904D02*
X75619047Y-89166666D01*
X75809523Y-89071428D01*
X76095238Y-89071428D01*
X76285714Y-89166666D01*
X76380952Y-89357142D01*
X76380952Y-90404761D01*
X70023809Y-81404761D02*
X70023809Y-83023809D01*
X70119047Y-83214285D01*
X70214285Y-83309523D01*
X70404761Y-83404761D01*
X70785714Y-83404761D01*
X70976190Y-83309523D01*
X71071428Y-83214285D01*
X71166666Y-83023809D01*
X71166666Y-81404761D01*
X72119047Y-82071428D02*
X72119047Y-84071428D01*
X72119047Y-82166666D02*
X72309523Y-82071428D01*
X72690476Y-82071428D01*
X72880952Y-82166666D01*
X72976190Y-82261904D01*
X73071428Y-82452380D01*
X73071428Y-83023809D01*
X72976190Y-83214285D01*
X72880952Y-83309523D01*
X72690476Y-83404761D01*
X72309523Y-83404761D01*
X72119047Y-83309523D01*
D14*
X106770000Y-165500000D02*
X106770000Y-174500000D01*
X103000000Y-174500000D02*
X103000000Y-165500000D01*
X108000000Y-174500000D02*
X103000000Y-174500000D01*
X108000000Y-165500000D02*
X108000000Y-174500000D01*
X103000000Y-165500000D02*
X108000000Y-165500000D01*
D12*
X104261904Y-169952380D02*
X104261904Y-168952380D01*
X104261904Y-169428571D02*
X104833333Y-169428571D01*
X104833333Y-169952380D02*
X104833333Y-168952380D01*
X105261904Y-169047619D02*
X105309523Y-169000000D01*
X105404761Y-168952380D01*
X105642857Y-168952380D01*
X105738095Y-169000000D01*
X105785714Y-169047619D01*
X105833333Y-169142857D01*
X105833333Y-169238095D01*
X105785714Y-169380952D01*
X105214285Y-169952380D01*
X105833333Y-169952380D01*
X106738095Y-168952380D02*
X106261904Y-168952380D01*
X106214285Y-169428571D01*
X106261904Y-169380952D01*
X106357142Y-169333333D01*
X106595238Y-169333333D01*
X106690476Y-169380952D01*
X106738095Y-169428571D01*
X106785714Y-169523809D01*
X106785714Y-169761904D01*
X106738095Y-169857142D01*
X106690476Y-169904761D01*
X106595238Y-169952380D01*
X106357142Y-169952380D01*
X106261904Y-169904761D01*
X106214285Y-169857142D01*
X108538095Y-156952380D02*
X108538095Y-155952380D01*
X108538095Y-156428571D02*
X109109523Y-156428571D01*
X109109523Y-156952380D02*
X109109523Y-155952380D01*
X109490476Y-155952380D02*
X110157142Y-155952380D01*
X109728571Y-156952380D01*
X101238095Y-79452380D02*
X101238095Y-78452380D01*
X101238095Y-78928571D02*
X101809523Y-78928571D01*
X101809523Y-79452380D02*
X101809523Y-78452380D01*
X102809523Y-79452380D02*
X102238095Y-79452380D01*
X102523809Y-79452380D02*
X102523809Y-78452380D01*
X102428571Y-78595238D01*
X102333333Y-78690476D01*
X102238095Y-78738095D01*
X101238095Y-96952380D02*
X101238095Y-95952380D01*
X101238095Y-96428571D02*
X101809523Y-96428571D01*
X101809523Y-96952380D02*
X101809523Y-95952380D01*
X102238095Y-96047619D02*
X102285714Y-96000000D01*
X102380952Y-95952380D01*
X102619047Y-95952380D01*
X102714285Y-96000000D01*
X102761904Y-96047619D01*
X102809523Y-96142857D01*
X102809523Y-96238095D01*
X102761904Y-96380952D01*
X102190476Y-96952380D01*
X102809523Y-96952380D01*
X101238095Y-113952380D02*
X101238095Y-112952380D01*
X101238095Y-113428571D02*
X101809523Y-113428571D01*
X101809523Y-113952380D02*
X101809523Y-112952380D01*
X102190476Y-112952380D02*
X102809523Y-112952380D01*
X102476190Y-113333333D01*
X102619047Y-113333333D01*
X102714285Y-113380952D01*
X102761904Y-113428571D01*
X102809523Y-113523809D01*
X102809523Y-113761904D01*
X102761904Y-113857142D01*
X102714285Y-113904761D01*
X102619047Y-113952380D01*
X102333333Y-113952380D01*
X102238095Y-113904761D01*
X102190476Y-113857142D01*
X76738095Y-168952380D02*
X76738095Y-167952380D01*
X76738095Y-168428571D02*
X77309523Y-168428571D01*
X77309523Y-168952380D02*
X77309523Y-167952380D01*
X77928571Y-168380952D02*
X77833333Y-168333333D01*
X77785714Y-168285714D01*
X77738095Y-168190476D01*
X77738095Y-168142857D01*
X77785714Y-168047619D01*
X77833333Y-168000000D01*
X77928571Y-167952380D01*
X78119047Y-167952380D01*
X78214285Y-168000000D01*
X78261904Y-168047619D01*
X78309523Y-168142857D01*
X78309523Y-168190476D01*
X78261904Y-168285714D01*
X78214285Y-168333333D01*
X78119047Y-168380952D01*
X77928571Y-168380952D01*
X77833333Y-168428571D01*
X77785714Y-168476190D01*
X77738095Y-168571428D01*
X77738095Y-168761904D01*
X77785714Y-168857142D01*
X77833333Y-168904761D01*
X77928571Y-168952380D01*
X78119047Y-168952380D01*
X78214285Y-168904761D01*
X78261904Y-168857142D01*
X78309523Y-168761904D01*
X78309523Y-168571428D01*
X78261904Y-168476190D01*
X78214285Y-168428571D01*
X78119047Y-168380952D01*
X64488095Y-82952380D02*
X64488095Y-81952380D01*
X64488095Y-82428571D02*
X65059523Y-82428571D01*
X65059523Y-82952380D02*
X65059523Y-81952380D01*
X65583333Y-82952380D02*
X65773809Y-82952380D01*
X65869047Y-82904761D01*
X65916666Y-82857142D01*
X66011904Y-82714285D01*
X66059523Y-82523809D01*
X66059523Y-82142857D01*
X66011904Y-82047619D01*
X65964285Y-82000000D01*
X65869047Y-81952380D01*
X65678571Y-81952380D01*
X65583333Y-82000000D01*
X65535714Y-82047619D01*
X65488095Y-82142857D01*
X65488095Y-82380952D01*
X65535714Y-82476190D01*
X65583333Y-82523809D01*
X65678571Y-82571428D01*
X65869047Y-82571428D01*
X65964285Y-82523809D01*
X66011904Y-82476190D01*
X66059523Y-82380952D01*
X64011904Y-90452380D02*
X64011904Y-89452380D01*
X64011904Y-89928571D02*
X64583333Y-89928571D01*
X64583333Y-90452380D02*
X64583333Y-89452380D01*
X65583333Y-90452380D02*
X65011904Y-90452380D01*
X65297619Y-90452380D02*
X65297619Y-89452380D01*
X65202380Y-89595238D01*
X65107142Y-89690476D01*
X65011904Y-89738095D01*
X66202380Y-89452380D02*
X66297619Y-89452380D01*
X66392857Y-89500000D01*
X66440476Y-89547619D01*
X66488095Y-89642857D01*
X66535714Y-89833333D01*
X66535714Y-90071428D01*
X66488095Y-90261904D01*
X66440476Y-90357142D01*
X66392857Y-90404761D01*
X66297619Y-90452380D01*
X66202380Y-90452380D01*
X66107142Y-90404761D01*
X66059523Y-90357142D01*
X66011904Y-90261904D01*
X65964285Y-90071428D01*
X65964285Y-89833333D01*
X66011904Y-89642857D01*
X66059523Y-89547619D01*
X66107142Y-89500000D01*
X66202380Y-89452380D01*
X64261904Y-96952380D02*
X64261904Y-95952380D01*
X64261904Y-96428571D02*
X64833333Y-96428571D01*
X64833333Y-96952380D02*
X64833333Y-95952380D01*
X65833333Y-96952380D02*
X65261904Y-96952380D01*
X65547619Y-96952380D02*
X65547619Y-95952380D01*
X65452380Y-96095238D01*
X65357142Y-96190476D01*
X65261904Y-96238095D01*
X66785714Y-96952380D02*
X66214285Y-96952380D01*
X66500000Y-96952380D02*
X66500000Y-95952380D01*
X66404761Y-96095238D01*
X66309523Y-96190476D01*
X66214285Y-96238095D01*
X64261904Y-103952380D02*
X64261904Y-102952380D01*
X64261904Y-103428571D02*
X64833333Y-103428571D01*
X64833333Y-103952380D02*
X64833333Y-102952380D01*
X65833333Y-103952380D02*
X65261904Y-103952380D01*
X65547619Y-103952380D02*
X65547619Y-102952380D01*
X65452380Y-103095238D01*
X65357142Y-103190476D01*
X65261904Y-103238095D01*
X66214285Y-103047619D02*
X66261904Y-103000000D01*
X66357142Y-102952380D01*
X66595238Y-102952380D01*
X66690476Y-103000000D01*
X66738095Y-103047619D01*
X66785714Y-103142857D01*
X66785714Y-103238095D01*
X66738095Y-103380952D01*
X66166666Y-103952380D01*
X66785714Y-103952380D01*
X63761904Y-110952380D02*
X63761904Y-109952380D01*
X63761904Y-110428571D02*
X64333333Y-110428571D01*
X64333333Y-110952380D02*
X64333333Y-109952380D01*
X65333333Y-110952380D02*
X64761904Y-110952380D01*
X65047619Y-110952380D02*
X65047619Y-109952380D01*
X64952380Y-110095238D01*
X64857142Y-110190476D01*
X64761904Y-110238095D01*
X65666666Y-109952380D02*
X66285714Y-109952380D01*
X65952380Y-110333333D01*
X66095238Y-110333333D01*
X66190476Y-110380952D01*
X66238095Y-110428571D01*
X66285714Y-110523809D01*
X66285714Y-110761904D01*
X66238095Y-110857142D01*
X66190476Y-110904761D01*
X66095238Y-110952380D01*
X65809523Y-110952380D01*
X65714285Y-110904761D01*
X65666666Y-110857142D01*
X64011904Y-117952380D02*
X64011904Y-116952380D01*
X64011904Y-117428571D02*
X64583333Y-117428571D01*
X64583333Y-117952380D02*
X64583333Y-116952380D01*
X65583333Y-117952380D02*
X65011904Y-117952380D01*
X65297619Y-117952380D02*
X65297619Y-116952380D01*
X65202380Y-117095238D01*
X65107142Y-117190476D01*
X65011904Y-117238095D01*
X66440476Y-117285714D02*
X66440476Y-117952380D01*
X66202380Y-116904761D02*
X65964285Y-117619047D01*
X66583333Y-117619047D01*
X64011904Y-124952380D02*
X64011904Y-123952380D01*
X64011904Y-124428571D02*
X64583333Y-124428571D01*
X64583333Y-124952380D02*
X64583333Y-123952380D01*
X65583333Y-124952380D02*
X65011904Y-124952380D01*
X65297619Y-124952380D02*
X65297619Y-123952380D01*
X65202380Y-124095238D01*
X65107142Y-124190476D01*
X65011904Y-124238095D01*
X66488095Y-123952380D02*
X66011904Y-123952380D01*
X65964285Y-124428571D01*
X66011904Y-124380952D01*
X66107142Y-124333333D01*
X66345238Y-124333333D01*
X66440476Y-124380952D01*
X66488095Y-124428571D01*
X66535714Y-124523809D01*
X66535714Y-124761904D01*
X66488095Y-124857142D01*
X66440476Y-124904761D01*
X66345238Y-124952380D01*
X66107142Y-124952380D01*
X66011904Y-124904761D01*
X65964285Y-124857142D01*
X64011904Y-131952380D02*
X64011904Y-130952380D01*
X64011904Y-131428571D02*
X64583333Y-131428571D01*
X64583333Y-131952380D02*
X64583333Y-130952380D01*
X65583333Y-131952380D02*
X65011904Y-131952380D01*
X65297619Y-131952380D02*
X65297619Y-130952380D01*
X65202380Y-131095238D01*
X65107142Y-131190476D01*
X65011904Y-131238095D01*
X66440476Y-130952380D02*
X66250000Y-130952380D01*
X66154761Y-131000000D01*
X66107142Y-131047619D01*
X66011904Y-131190476D01*
X65964285Y-131380952D01*
X65964285Y-131761904D01*
X66011904Y-131857142D01*
X66059523Y-131904761D01*
X66154761Y-131952380D01*
X66345238Y-131952380D01*
X66440476Y-131904761D01*
X66488095Y-131857142D01*
X66535714Y-131761904D01*
X66535714Y-131523809D01*
X66488095Y-131428571D01*
X66440476Y-131380952D01*
X66345238Y-131333333D01*
X66154761Y-131333333D01*
X66059523Y-131380952D01*
X66011904Y-131428571D01*
X65964285Y-131523809D01*
X64011904Y-138952380D02*
X64011904Y-137952380D01*
X64011904Y-138428571D02*
X64583333Y-138428571D01*
X64583333Y-138952380D02*
X64583333Y-137952380D01*
X65583333Y-138952380D02*
X65011904Y-138952380D01*
X65297619Y-138952380D02*
X65297619Y-137952380D01*
X65202380Y-138095238D01*
X65107142Y-138190476D01*
X65011904Y-138238095D01*
X65916666Y-137952380D02*
X66583333Y-137952380D01*
X66154761Y-138952380D01*
X64011904Y-145952380D02*
X64011904Y-144952380D01*
X64011904Y-145428571D02*
X64583333Y-145428571D01*
X64583333Y-145952380D02*
X64583333Y-144952380D01*
X65583333Y-145952380D02*
X65011904Y-145952380D01*
X65297619Y-145952380D02*
X65297619Y-144952380D01*
X65202380Y-145095238D01*
X65107142Y-145190476D01*
X65011904Y-145238095D01*
X66154761Y-145380952D02*
X66059523Y-145333333D01*
X66011904Y-145285714D01*
X65964285Y-145190476D01*
X65964285Y-145142857D01*
X66011904Y-145047619D01*
X66059523Y-145000000D01*
X66154761Y-144952380D01*
X66345238Y-144952380D01*
X66440476Y-145000000D01*
X66488095Y-145047619D01*
X66535714Y-145142857D01*
X66535714Y-145190476D01*
X66488095Y-145285714D01*
X66440476Y-145333333D01*
X66345238Y-145380952D01*
X66154761Y-145380952D01*
X66059523Y-145428571D01*
X66011904Y-145476190D01*
X65964285Y-145571428D01*
X65964285Y-145761904D01*
X66011904Y-145857142D01*
X66059523Y-145904761D01*
X66154761Y-145952380D01*
X66345238Y-145952380D01*
X66440476Y-145904761D01*
X66488095Y-145857142D01*
X66535714Y-145761904D01*
X66535714Y-145571428D01*
X66488095Y-145476190D01*
X66440476Y-145428571D01*
X66345238Y-145380952D01*
X64011904Y-152952380D02*
X64011904Y-151952380D01*
X64011904Y-152428571D02*
X64583333Y-152428571D01*
X64583333Y-152952380D02*
X64583333Y-151952380D01*
X65583333Y-152952380D02*
X65011904Y-152952380D01*
X65297619Y-152952380D02*
X65297619Y-151952380D01*
X65202380Y-152095238D01*
X65107142Y-152190476D01*
X65011904Y-152238095D01*
X66059523Y-152952380D02*
X66250000Y-152952380D01*
X66345238Y-152904761D01*
X66392857Y-152857142D01*
X66488095Y-152714285D01*
X66535714Y-152523809D01*
X66535714Y-152142857D01*
X66488095Y-152047619D01*
X66440476Y-152000000D01*
X66345238Y-151952380D01*
X66154761Y-151952380D01*
X66059523Y-152000000D01*
X66011904Y-152047619D01*
X65964285Y-152142857D01*
X65964285Y-152380952D01*
X66011904Y-152476190D01*
X66059523Y-152523809D01*
X66154761Y-152571428D01*
X66345238Y-152571428D01*
X66440476Y-152523809D01*
X66488095Y-152476190D01*
X66535714Y-152380952D01*
X64011904Y-159952380D02*
X64011904Y-158952380D01*
X64011904Y-159428571D02*
X64583333Y-159428571D01*
X64583333Y-159952380D02*
X64583333Y-158952380D01*
X65011904Y-159047619D02*
X65059523Y-159000000D01*
X65154761Y-158952380D01*
X65392857Y-158952380D01*
X65488095Y-159000000D01*
X65535714Y-159047619D01*
X65583333Y-159142857D01*
X65583333Y-159238095D01*
X65535714Y-159380952D01*
X64964285Y-159952380D01*
X65583333Y-159952380D01*
X66202380Y-158952380D02*
X66297619Y-158952380D01*
X66392857Y-159000000D01*
X66440476Y-159047619D01*
X66488095Y-159142857D01*
X66535714Y-159333333D01*
X66535714Y-159571428D01*
X66488095Y-159761904D01*
X66440476Y-159857142D01*
X66392857Y-159904761D01*
X66297619Y-159952380D01*
X66202380Y-159952380D01*
X66107142Y-159904761D01*
X66059523Y-159857142D01*
X66011904Y-159761904D01*
X65964285Y-159571428D01*
X65964285Y-159333333D01*
X66011904Y-159142857D01*
X66059523Y-159047619D01*
X66107142Y-159000000D01*
X66202380Y-158952380D01*
X104238095Y-126952380D02*
X104238095Y-125952380D01*
X104238095Y-126428571D02*
X104809523Y-126428571D01*
X104809523Y-126952380D02*
X104809523Y-125952380D01*
X105714285Y-126285714D02*
X105714285Y-126952380D01*
X105476190Y-125904761D02*
X105238095Y-126619047D01*
X105857142Y-126619047D01*
X104238095Y-138452380D02*
X104238095Y-137452380D01*
X104238095Y-137928571D02*
X104809523Y-137928571D01*
X104809523Y-138452380D02*
X104809523Y-137452380D01*
X105761904Y-137452380D02*
X105285714Y-137452380D01*
X105238095Y-137928571D01*
X105285714Y-137880952D01*
X105380952Y-137833333D01*
X105619047Y-137833333D01*
X105714285Y-137880952D01*
X105761904Y-137928571D01*
X105809523Y-138023809D01*
X105809523Y-138261904D01*
X105761904Y-138357142D01*
X105714285Y-138404761D01*
X105619047Y-138452380D01*
X105380952Y-138452380D01*
X105285714Y-138404761D01*
X105238095Y-138357142D01*
X104238095Y-148952380D02*
X104238095Y-147952380D01*
X104238095Y-148428571D02*
X104809523Y-148428571D01*
X104809523Y-148952380D02*
X104809523Y-147952380D01*
X105714285Y-147952380D02*
X105523809Y-147952380D01*
X105428571Y-148000000D01*
X105380952Y-148047619D01*
X105285714Y-148190476D01*
X105238095Y-148380952D01*
X105238095Y-148761904D01*
X105285714Y-148857142D01*
X105333333Y-148904761D01*
X105428571Y-148952380D01*
X105619047Y-148952380D01*
X105714285Y-148904761D01*
X105761904Y-148857142D01*
X105809523Y-148761904D01*
X105809523Y-148523809D01*
X105761904Y-148428571D01*
X105714285Y-148380952D01*
X105619047Y-148333333D01*
X105428571Y-148333333D01*
X105333333Y-148380952D01*
X105285714Y-148428571D01*
X105238095Y-148523809D01*
X66261904Y-63452380D02*
X66261904Y-62452380D01*
X66261904Y-62928571D02*
X66833333Y-62928571D01*
X66833333Y-63452380D02*
X66833333Y-62452380D01*
X67261904Y-62547619D02*
X67309523Y-62500000D01*
X67404761Y-62452380D01*
X67642857Y-62452380D01*
X67738095Y-62500000D01*
X67785714Y-62547619D01*
X67833333Y-62642857D01*
X67833333Y-62738095D01*
X67785714Y-62880952D01*
X67214285Y-63452380D01*
X67833333Y-63452380D01*
X68785714Y-63452380D02*
X68214285Y-63452380D01*
X68500000Y-63452380D02*
X68500000Y-62452380D01*
X68404761Y-62595238D01*
X68309523Y-62690476D01*
X68214285Y-62738095D01*
X66261904Y-185952380D02*
X66261904Y-184952380D01*
X66261904Y-185428571D02*
X66833333Y-185428571D01*
X66833333Y-185952380D02*
X66833333Y-184952380D01*
X67261904Y-185047619D02*
X67309523Y-185000000D01*
X67404761Y-184952380D01*
X67642857Y-184952380D01*
X67738095Y-185000000D01*
X67785714Y-185047619D01*
X67833333Y-185142857D01*
X67833333Y-185238095D01*
X67785714Y-185380952D01*
X67214285Y-185952380D01*
X67833333Y-185952380D01*
X68214285Y-185047619D02*
X68261904Y-185000000D01*
X68357142Y-184952380D01*
X68595238Y-184952380D01*
X68690476Y-185000000D01*
X68738095Y-185047619D01*
X68785714Y-185142857D01*
X68785714Y-185238095D01*
X68738095Y-185380952D01*
X68166666Y-185952380D01*
X68785714Y-185952380D01*
X106761904Y-185952380D02*
X106761904Y-184952380D01*
X106761904Y-185428571D02*
X107333333Y-185428571D01*
X107333333Y-185952380D02*
X107333333Y-184952380D01*
X107761904Y-185047619D02*
X107809523Y-185000000D01*
X107904761Y-184952380D01*
X108142857Y-184952380D01*
X108238095Y-185000000D01*
X108285714Y-185047619D01*
X108333333Y-185142857D01*
X108333333Y-185238095D01*
X108285714Y-185380952D01*
X107714285Y-185952380D01*
X108333333Y-185952380D01*
X108666666Y-184952380D02*
X109285714Y-184952380D01*
X108952380Y-185333333D01*
X109095238Y-185333333D01*
X109190476Y-185380952D01*
X109238095Y-185428571D01*
X109285714Y-185523809D01*
X109285714Y-185761904D01*
X109238095Y-185857142D01*
X109190476Y-185904761D01*
X109095238Y-185952380D01*
X108809523Y-185952380D01*
X108714285Y-185904761D01*
X108666666Y-185857142D01*
X106761904Y-63452380D02*
X106761904Y-62452380D01*
X106761904Y-62928571D02*
X107333333Y-62928571D01*
X107333333Y-63452380D02*
X107333333Y-62452380D01*
X107761904Y-62547619D02*
X107809523Y-62500000D01*
X107904761Y-62452380D01*
X108142857Y-62452380D01*
X108238095Y-62500000D01*
X108285714Y-62547619D01*
X108333333Y-62642857D01*
X108333333Y-62738095D01*
X108285714Y-62880952D01*
X107714285Y-63452380D01*
X108333333Y-63452380D01*
X109190476Y-62785714D02*
X109190476Y-63452380D01*
X108952380Y-62404761D02*
X108714285Y-63119047D01*
X109333333Y-63119047D01*
M02*
