G04 #@! TF.GenerationSoftware,KiCad,Pcbnew,(5.1.2)-1*
G04 #@! TF.CreationDate,2019-10-15T11:08:16-07:00*
G04 #@! TF.ProjectId,panel,70616e65-6c2e-46b6-9963-61645f706362,rev?*
G04 #@! TF.SameCoordinates,Original*
G04 #@! TF.FileFunction,Legend,Top*
G04 #@! TF.FilePolarity,Positive*
%FSLAX46Y46*%
G04 Gerber Fmt 4.6, Leading zero omitted, Abs format (unit mm)*
G04 Created by KiCad (PCBNEW (5.1.2)-1) date 2019-10-15 11:08:16*
%MOMM*%
%LPD*%
G04 APERTURE LIST*
%ADD10C,0.250000*%
%ADD11C,0.500000*%
%ADD12C,0.150000*%
%ADD13C,0.160000*%
%ADD14C,0.400000*%
%ADD15C,0.120000*%
G04 APERTURE END LIST*
D10*
X76166666Y-62500000D02*
X75976190Y-62404761D01*
X75690476Y-62404761D01*
X75404761Y-62500000D01*
X75214285Y-62690476D01*
X75119047Y-62880952D01*
X75023809Y-63261904D01*
X75023809Y-63547619D01*
X75119047Y-63928571D01*
X75214285Y-64119047D01*
X75404761Y-64309523D01*
X75690476Y-64404761D01*
X75880952Y-64404761D01*
X76166666Y-64309523D01*
X76261904Y-64214285D01*
X76261904Y-63547619D01*
X75880952Y-63547619D01*
X78261904Y-64404761D02*
X77595238Y-63452380D01*
X77119047Y-64404761D02*
X77119047Y-62404761D01*
X77880952Y-62404761D01*
X78071428Y-62500000D01*
X78166666Y-62595238D01*
X78261904Y-62785714D01*
X78261904Y-63071428D01*
X78166666Y-63261904D01*
X78071428Y-63357142D01*
X77880952Y-63452380D01*
X77119047Y-63452380D01*
X79119047Y-63357142D02*
X79785714Y-63357142D01*
X80071428Y-64404761D02*
X79119047Y-64404761D01*
X79119047Y-62404761D01*
X80071428Y-62404761D01*
X80928571Y-63357142D02*
X81595238Y-63357142D01*
X81880952Y-64404761D02*
X80928571Y-64404761D01*
X80928571Y-62404761D01*
X81880952Y-62404761D01*
X82738095Y-64404761D02*
X82738095Y-62404761D01*
X83880952Y-64404761D01*
X83880952Y-62404761D01*
X85500000Y-63357142D02*
X84833333Y-63357142D01*
X84833333Y-64404761D02*
X84833333Y-62404761D01*
X85785714Y-62404761D01*
X86452380Y-63833333D02*
X87404761Y-63833333D01*
X86261904Y-64404761D02*
X86928571Y-62404761D01*
X87595238Y-64404761D01*
X89404761Y-64214285D02*
X89309523Y-64309523D01*
X89023809Y-64404761D01*
X88833333Y-64404761D01*
X88547619Y-64309523D01*
X88357142Y-64119047D01*
X88261904Y-63928571D01*
X88166666Y-63547619D01*
X88166666Y-63261904D01*
X88261904Y-62880952D01*
X88357142Y-62690476D01*
X88547619Y-62500000D01*
X88833333Y-62404761D01*
X89023809Y-62404761D01*
X89309523Y-62500000D01*
X89404761Y-62595238D01*
X90261904Y-63357142D02*
X90928571Y-63357142D01*
X91214285Y-64404761D02*
X90261904Y-64404761D01*
X90261904Y-62404761D01*
X91214285Y-62404761D01*
X94547619Y-64404761D02*
X93595238Y-64404761D01*
X93595238Y-62404761D01*
X95119047Y-63833333D02*
X96071428Y-63833333D01*
X94928571Y-64404761D02*
X95595238Y-62404761D01*
X96261904Y-64404761D01*
X97595238Y-63357142D02*
X97880952Y-63452380D01*
X97976190Y-63547619D01*
X98071428Y-63738095D01*
X98071428Y-64023809D01*
X97976190Y-64214285D01*
X97880952Y-64309523D01*
X97690476Y-64404761D01*
X96928571Y-64404761D01*
X96928571Y-62404761D01*
X97595238Y-62404761D01*
X97785714Y-62500000D01*
X97880952Y-62595238D01*
X97976190Y-62785714D01*
X97976190Y-62976190D01*
X97880952Y-63166666D01*
X97785714Y-63261904D01*
X97595238Y-63357142D01*
X96928571Y-63357142D01*
X98833333Y-64309523D02*
X99119047Y-64404761D01*
X99595238Y-64404761D01*
X99785714Y-64309523D01*
X99880952Y-64214285D01*
X99976190Y-64023809D01*
X99976190Y-63833333D01*
X99880952Y-63642857D01*
X99785714Y-63547619D01*
X99595238Y-63452380D01*
X99214285Y-63357142D01*
X99023809Y-63261904D01*
X98928571Y-63166666D01*
X98833333Y-62976190D01*
X98833333Y-62785714D01*
X98928571Y-62595238D01*
X99023809Y-62500000D01*
X99214285Y-62404761D01*
X99690476Y-62404761D01*
X99976190Y-62500000D01*
D11*
X71608184Y-69619047D02*
X72155803Y-69809523D01*
X73108184Y-69809523D01*
X73512946Y-69619047D01*
X73727232Y-69428571D01*
X73965327Y-69047619D01*
X74012946Y-68666666D01*
X73870089Y-68285714D01*
X73703422Y-68095238D01*
X73346279Y-67904761D01*
X72608184Y-67714285D01*
X72251041Y-67523809D01*
X72084375Y-67333333D01*
X71941517Y-66952380D01*
X71989136Y-66571428D01*
X72227232Y-66190476D01*
X72441517Y-66000000D01*
X72846279Y-65809523D01*
X73798660Y-65809523D01*
X74346279Y-66000000D01*
X75917708Y-67142857D02*
X75417708Y-71142857D01*
X75893898Y-67333333D02*
X76298660Y-67142857D01*
X77060565Y-67142857D01*
X77417708Y-67333333D01*
X77584375Y-67523809D01*
X77727232Y-67904761D01*
X77584375Y-69047619D01*
X77346279Y-69428571D01*
X77131994Y-69619047D01*
X76727232Y-69809523D01*
X75965327Y-69809523D01*
X75608184Y-69619047D01*
X81251041Y-67142857D02*
X80917708Y-69809523D01*
X79536755Y-67142857D02*
X79274851Y-69238095D01*
X79417708Y-69619047D01*
X79774851Y-69809523D01*
X80346279Y-69809523D01*
X80751041Y-69619047D01*
X80965327Y-69428571D01*
X82584375Y-67142857D02*
X84108184Y-67142857D01*
X83322470Y-65809523D02*
X82893898Y-69238095D01*
X83036755Y-69619047D01*
X83393898Y-69809523D01*
X83774851Y-69809523D01*
X84870089Y-67142857D02*
X86393898Y-67142857D01*
X85608184Y-65809523D02*
X85179613Y-69238095D01*
X85322470Y-69619047D01*
X85679613Y-69809523D01*
X86060565Y-69809523D01*
X88941517Y-69619047D02*
X88536755Y-69809523D01*
X87774851Y-69809523D01*
X87417708Y-69619047D01*
X87274851Y-69238095D01*
X87465327Y-67714285D01*
X87703422Y-67333333D01*
X88108184Y-67142857D01*
X88870089Y-67142857D01*
X89227232Y-67333333D01*
X89370089Y-67714285D01*
X89322470Y-68095238D01*
X87370089Y-68476190D01*
X90822470Y-69809523D02*
X91155803Y-67142857D01*
X91060565Y-67904761D02*
X91298660Y-67523809D01*
X91512946Y-67333333D01*
X91917708Y-67142857D01*
X92298660Y-67142857D01*
X93298660Y-69809523D02*
X93631994Y-67142857D01*
X93798660Y-65809523D02*
X93584375Y-66000000D01*
X93751041Y-66190476D01*
X93965327Y-66000000D01*
X93798660Y-65809523D01*
X93751041Y-66190476D01*
X95155803Y-67142857D02*
X97251041Y-67142857D01*
X94822470Y-69809523D01*
X96917708Y-69809523D01*
X99989136Y-69619047D02*
X99584375Y-69809523D01*
X98822470Y-69809523D01*
X98465327Y-69619047D01*
X98322470Y-69238095D01*
X98512946Y-67714285D01*
X98751041Y-67333333D01*
X99155803Y-67142857D01*
X99917708Y-67142857D01*
X100274851Y-67333333D01*
X100417708Y-67714285D01*
X100370089Y-68095238D01*
X98417708Y-68476190D01*
X101870089Y-69809523D02*
X102203422Y-67142857D01*
X102108184Y-67904761D02*
X102346279Y-67523809D01*
X102560565Y-67333333D01*
X102965327Y-67142857D01*
X103346279Y-67142857D01*
D10*
X72083333Y-185071428D02*
X70559523Y-185642857D01*
X72083333Y-186214285D01*
X73035714Y-185642857D02*
X74559523Y-185642857D01*
X75511904Y-185642857D02*
X77035714Y-185642857D01*
X77988095Y-185642857D02*
X79511904Y-185642857D01*
X84559523Y-186404761D02*
X83416666Y-186404761D01*
X83988095Y-186404761D02*
X83988095Y-184404761D01*
X83797619Y-184690476D01*
X83607142Y-184880952D01*
X83416666Y-184976190D01*
X86464285Y-186404761D02*
X85321428Y-186404761D01*
X85892857Y-186404761D02*
X85892857Y-184404761D01*
X85702380Y-184690476D01*
X85511904Y-184880952D01*
X85321428Y-184976190D01*
X88845238Y-186404761D02*
X88845238Y-184404761D01*
X88845238Y-185357142D02*
X89988095Y-185357142D01*
X89988095Y-186404761D02*
X89988095Y-184404761D01*
X90940476Y-186404761D02*
X90940476Y-184404761D01*
X91702380Y-184404761D01*
X91892857Y-184500000D01*
X91988095Y-184595238D01*
X92083333Y-184785714D01*
X92083333Y-185071428D01*
X91988095Y-185261904D01*
X91892857Y-185357142D01*
X91702380Y-185452380D01*
X90940476Y-185452380D01*
X95988095Y-185642857D02*
X97511904Y-185642857D01*
X98464285Y-185642857D02*
X99988095Y-185642857D01*
X100940476Y-185642857D02*
X102464285Y-185642857D01*
X103416666Y-185071428D02*
X104940476Y-185642857D01*
X103416666Y-186214285D01*
X101690476Y-155500000D02*
X101500000Y-155404761D01*
X101214285Y-155404761D01*
X100928571Y-155500000D01*
X100738095Y-155690476D01*
X100642857Y-155880952D01*
X100547619Y-156261904D01*
X100547619Y-156547619D01*
X100642857Y-156928571D01*
X100738095Y-157119047D01*
X100928571Y-157309523D01*
X101214285Y-157404761D01*
X101404761Y-157404761D01*
X101690476Y-157309523D01*
X101785714Y-157214285D01*
X101785714Y-156547619D01*
X101404761Y-156547619D01*
X103500000Y-157404761D02*
X103500000Y-156357142D01*
X103404761Y-156166666D01*
X103214285Y-156071428D01*
X102833333Y-156071428D01*
X102642857Y-156166666D01*
X103500000Y-157309523D02*
X103309523Y-157404761D01*
X102833333Y-157404761D01*
X102642857Y-157309523D01*
X102547619Y-157119047D01*
X102547619Y-156928571D01*
X102642857Y-156738095D01*
X102833333Y-156642857D01*
X103309523Y-156642857D01*
X103500000Y-156547619D01*
X104166666Y-156071428D02*
X104928571Y-156071428D01*
X104452380Y-155404761D02*
X104452380Y-157119047D01*
X104547619Y-157309523D01*
X104738095Y-157404761D01*
X104928571Y-157404761D01*
X106357142Y-157309523D02*
X106166666Y-157404761D01*
X105785714Y-157404761D01*
X105595238Y-157309523D01*
X105500000Y-157119047D01*
X105500000Y-156357142D01*
X105595238Y-156166666D01*
X105785714Y-156071428D01*
X106166666Y-156071428D01*
X106357142Y-156166666D01*
X106452380Y-156357142D01*
X106452380Y-156547619D01*
X105500000Y-156738095D01*
X84147023Y-148833333D02*
X85099404Y-148833333D01*
X83956547Y-149404761D02*
X84623214Y-147404761D01*
X85289880Y-149404761D01*
X85956547Y-148071428D02*
X85956547Y-149404761D01*
X85956547Y-148261904D02*
X86051785Y-148166666D01*
X86242261Y-148071428D01*
X86527976Y-148071428D01*
X86718452Y-148166666D01*
X86813690Y-148357142D01*
X86813690Y-149404761D01*
X88623214Y-149404761D02*
X88623214Y-148357142D01*
X88527976Y-148166666D01*
X88337500Y-148071428D01*
X87956547Y-148071428D01*
X87766071Y-148166666D01*
X88623214Y-149309523D02*
X88432738Y-149404761D01*
X87956547Y-149404761D01*
X87766071Y-149309523D01*
X87670833Y-149119047D01*
X87670833Y-148928571D01*
X87766071Y-148738095D01*
X87956547Y-148642857D01*
X88432738Y-148642857D01*
X88623214Y-148547619D01*
X89861309Y-149404761D02*
X89670833Y-149309523D01*
X89575595Y-149119047D01*
X89575595Y-147404761D01*
X90908928Y-149404761D02*
X90718452Y-149309523D01*
X90623214Y-149214285D01*
X90527976Y-149023809D01*
X90527976Y-148452380D01*
X90623214Y-148261904D01*
X90718452Y-148166666D01*
X90908928Y-148071428D01*
X91194642Y-148071428D01*
X91385119Y-148166666D01*
X91480357Y-148261904D01*
X91575595Y-148452380D01*
X91575595Y-149023809D01*
X91480357Y-149214285D01*
X91385119Y-149309523D01*
X91194642Y-149404761D01*
X90908928Y-149404761D01*
X93289880Y-148071428D02*
X93289880Y-149690476D01*
X93194642Y-149880952D01*
X93099404Y-149976190D01*
X92908928Y-150071428D01*
X92623214Y-150071428D01*
X92432738Y-149976190D01*
X93289880Y-149309523D02*
X93099404Y-149404761D01*
X92718452Y-149404761D01*
X92527976Y-149309523D01*
X92432738Y-149214285D01*
X92337500Y-149023809D01*
X92337500Y-148452380D01*
X92432738Y-148261904D01*
X92527976Y-148166666D01*
X92718452Y-148071428D01*
X93099404Y-148071428D01*
X93289880Y-148166666D01*
X96147023Y-147404761D02*
X96527976Y-147404761D01*
X96718452Y-147500000D01*
X96908928Y-147690476D01*
X97004166Y-148071428D01*
X97004166Y-148738095D01*
X96908928Y-149119047D01*
X96718452Y-149309523D01*
X96527976Y-149404761D01*
X96147023Y-149404761D01*
X95956547Y-149309523D01*
X95766071Y-149119047D01*
X95670833Y-148738095D01*
X95670833Y-148071428D01*
X95766071Y-147690476D01*
X95956547Y-147500000D01*
X96147023Y-147404761D01*
X98718452Y-148071428D02*
X98718452Y-149404761D01*
X97861309Y-148071428D02*
X97861309Y-149119047D01*
X97956547Y-149309523D01*
X98147023Y-149404761D01*
X98432738Y-149404761D01*
X98623214Y-149309523D01*
X98718452Y-149214285D01*
X99385119Y-148071428D02*
X100147023Y-148071428D01*
X99670833Y-147404761D02*
X99670833Y-149119047D01*
X99766071Y-149309523D01*
X99956547Y-149404761D01*
X100147023Y-149404761D01*
X88623214Y-137000000D02*
X88432738Y-136904761D01*
X88147023Y-136904761D01*
X87861309Y-137000000D01*
X87670833Y-137190476D01*
X87575595Y-137380952D01*
X87480357Y-137761904D01*
X87480357Y-138047619D01*
X87575595Y-138428571D01*
X87670833Y-138619047D01*
X87861309Y-138809523D01*
X88147023Y-138904761D01*
X88337500Y-138904761D01*
X88623214Y-138809523D01*
X88718452Y-138714285D01*
X88718452Y-138047619D01*
X88337500Y-138047619D01*
X90432738Y-138904761D02*
X90432738Y-137857142D01*
X90337500Y-137666666D01*
X90147023Y-137571428D01*
X89766071Y-137571428D01*
X89575595Y-137666666D01*
X90432738Y-138809523D02*
X90242261Y-138904761D01*
X89766071Y-138904761D01*
X89575595Y-138809523D01*
X89480357Y-138619047D01*
X89480357Y-138428571D01*
X89575595Y-138238095D01*
X89766071Y-138142857D01*
X90242261Y-138142857D01*
X90432738Y-138047619D01*
X91099404Y-137571428D02*
X91861309Y-137571428D01*
X91385119Y-136904761D02*
X91385119Y-138619047D01*
X91480357Y-138809523D01*
X91670833Y-138904761D01*
X91861309Y-138904761D01*
X93289880Y-138809523D02*
X93099404Y-138904761D01*
X92718452Y-138904761D01*
X92527976Y-138809523D01*
X92432738Y-138619047D01*
X92432738Y-137857142D01*
X92527976Y-137666666D01*
X92718452Y-137571428D01*
X93099404Y-137571428D01*
X93289880Y-137666666D01*
X93385119Y-137857142D01*
X93385119Y-138047619D01*
X92432738Y-138238095D01*
X96147023Y-136904761D02*
X96527976Y-136904761D01*
X96718452Y-137000000D01*
X96908928Y-137190476D01*
X97004166Y-137571428D01*
X97004166Y-138238095D01*
X96908928Y-138619047D01*
X96718452Y-138809523D01*
X96527976Y-138904761D01*
X96147023Y-138904761D01*
X95956547Y-138809523D01*
X95766071Y-138619047D01*
X95670833Y-138238095D01*
X95670833Y-137571428D01*
X95766071Y-137190476D01*
X95956547Y-137000000D01*
X96147023Y-136904761D01*
X98718452Y-137571428D02*
X98718452Y-138904761D01*
X97861309Y-137571428D02*
X97861309Y-138619047D01*
X97956547Y-138809523D01*
X98147023Y-138904761D01*
X98432738Y-138904761D01*
X98623214Y-138809523D01*
X98718452Y-138714285D01*
X99385119Y-137571428D02*
X100147023Y-137571428D01*
X99670833Y-136904761D02*
X99670833Y-138619047D01*
X99766071Y-138809523D01*
X99956547Y-138904761D01*
X100147023Y-138904761D01*
X90718452Y-125904761D02*
X91861309Y-125904761D01*
X91289880Y-127904761D02*
X91289880Y-125904761D01*
X92527976Y-127904761D02*
X92527976Y-126571428D01*
X92527976Y-126952380D02*
X92623214Y-126761904D01*
X92718452Y-126666666D01*
X92908928Y-126571428D01*
X93099404Y-126571428D01*
X93766071Y-127904761D02*
X93766071Y-126571428D01*
X93766071Y-125904761D02*
X93670833Y-126000000D01*
X93766071Y-126095238D01*
X93861309Y-126000000D01*
X93766071Y-125904761D01*
X93766071Y-126095238D01*
X95575595Y-126571428D02*
X95575595Y-128190476D01*
X95480357Y-128380952D01*
X95385119Y-128476190D01*
X95194642Y-128571428D01*
X94908928Y-128571428D01*
X94718452Y-128476190D01*
X95575595Y-127809523D02*
X95385119Y-127904761D01*
X95004166Y-127904761D01*
X94813690Y-127809523D01*
X94718452Y-127714285D01*
X94623214Y-127523809D01*
X94623214Y-126952380D01*
X94718452Y-126761904D01*
X94813690Y-126666666D01*
X95004166Y-126571428D01*
X95385119Y-126571428D01*
X95575595Y-126666666D01*
X98051785Y-127904761D02*
X98051785Y-125904761D01*
X99004166Y-126571428D02*
X99004166Y-127904761D01*
X99004166Y-126761904D02*
X99099404Y-126666666D01*
X99289880Y-126571428D01*
X99575595Y-126571428D01*
X99766071Y-126666666D01*
X99861309Y-126857142D01*
X99861309Y-127904761D01*
D12*
X102166666Y-172595238D02*
X102166666Y-172119047D01*
X102452380Y-172690476D02*
X101452380Y-172357142D01*
X102452380Y-172023809D01*
X102452380Y-171690476D02*
X101785714Y-171690476D01*
X101976190Y-171690476D02*
X101880952Y-171642857D01*
X101833333Y-171595238D01*
X101785714Y-171500000D01*
X101785714Y-171404761D01*
X102452380Y-170642857D02*
X101452380Y-170642857D01*
X102404761Y-170642857D02*
X102452380Y-170738095D01*
X102452380Y-170928571D01*
X102404761Y-171023809D01*
X102357142Y-171071428D01*
X102261904Y-171119047D01*
X101976190Y-171119047D01*
X101880952Y-171071428D01*
X101833333Y-171023809D01*
X101785714Y-170928571D01*
X101785714Y-170738095D01*
X101833333Y-170642857D01*
X101785714Y-169738095D02*
X102452380Y-169738095D01*
X101785714Y-170166666D02*
X102309523Y-170166666D01*
X102404761Y-170119047D01*
X102452380Y-170023809D01*
X102452380Y-169880952D01*
X102404761Y-169785714D01*
X102357142Y-169738095D01*
X102452380Y-169261904D02*
X101785714Y-169261904D01*
X101452380Y-169261904D02*
X101500000Y-169309523D01*
X101547619Y-169261904D01*
X101500000Y-169214285D01*
X101452380Y-169261904D01*
X101547619Y-169261904D01*
X101785714Y-168785714D02*
X102452380Y-168785714D01*
X101880952Y-168785714D02*
X101833333Y-168738095D01*
X101785714Y-168642857D01*
X101785714Y-168500000D01*
X101833333Y-168404761D01*
X101928571Y-168357142D01*
X102452380Y-168357142D01*
X102452380Y-167738095D02*
X102404761Y-167833333D01*
X102357142Y-167880952D01*
X102261904Y-167928571D01*
X101976190Y-167928571D01*
X101880952Y-167880952D01*
X101833333Y-167833333D01*
X101785714Y-167738095D01*
X101785714Y-167595238D01*
X101833333Y-167500000D01*
X101880952Y-167452380D01*
X101976190Y-167404761D01*
X102261904Y-167404761D01*
X102357142Y-167452380D01*
X102404761Y-167500000D01*
X102452380Y-167595238D01*
X102452380Y-167738095D01*
D13*
X87464285Y-168473571D02*
X87464285Y-166973571D01*
X88035714Y-166973571D01*
X88178571Y-167045000D01*
X88250000Y-167116428D01*
X88321428Y-167259285D01*
X88321428Y-167473571D01*
X88250000Y-167616428D01*
X88178571Y-167687857D01*
X88035714Y-167759285D01*
X87464285Y-167759285D01*
X89607142Y-167473571D02*
X89607142Y-168473571D01*
X88964285Y-167473571D02*
X88964285Y-168259285D01*
X89035714Y-168402142D01*
X89178571Y-168473571D01*
X89392857Y-168473571D01*
X89535714Y-168402142D01*
X89607142Y-168330714D01*
X90250000Y-168402142D02*
X90392857Y-168473571D01*
X90678571Y-168473571D01*
X90821428Y-168402142D01*
X90892857Y-168259285D01*
X90892857Y-168187857D01*
X90821428Y-168045000D01*
X90678571Y-167973571D01*
X90464285Y-167973571D01*
X90321428Y-167902142D01*
X90250000Y-167759285D01*
X90250000Y-167687857D01*
X90321428Y-167545000D01*
X90464285Y-167473571D01*
X90678571Y-167473571D01*
X90821428Y-167545000D01*
X91535714Y-168473571D02*
X91535714Y-166973571D01*
X92178571Y-168473571D02*
X92178571Y-167687857D01*
X92107142Y-167545000D01*
X91964285Y-167473571D01*
X91750000Y-167473571D01*
X91607142Y-167545000D01*
X91535714Y-167616428D01*
X93821428Y-167473571D02*
X94392857Y-167473571D01*
X94035714Y-166973571D02*
X94035714Y-168259285D01*
X94107142Y-168402142D01*
X94250000Y-168473571D01*
X94392857Y-168473571D01*
X95107142Y-168473571D02*
X94964285Y-168402142D01*
X94892857Y-168330714D01*
X94821428Y-168187857D01*
X94821428Y-167759285D01*
X94892857Y-167616428D01*
X94964285Y-167545000D01*
X95107142Y-167473571D01*
X95321428Y-167473571D01*
X95464285Y-167545000D01*
X95535714Y-167616428D01*
X95607142Y-167759285D01*
X95607142Y-168187857D01*
X95535714Y-168330714D01*
X95464285Y-168402142D01*
X95321428Y-168473571D01*
X95107142Y-168473571D01*
X87785714Y-169383571D02*
X88642857Y-169383571D01*
X88214285Y-170883571D02*
X88214285Y-169383571D01*
X89142857Y-170883571D02*
X89142857Y-169883571D01*
X89142857Y-170169285D02*
X89214285Y-170026428D01*
X89285714Y-169955000D01*
X89428571Y-169883571D01*
X89571428Y-169883571D01*
X90071428Y-170883571D02*
X90071428Y-169883571D01*
X90071428Y-169383571D02*
X90000000Y-169455000D01*
X90071428Y-169526428D01*
X90142857Y-169455000D01*
X90071428Y-169383571D01*
X90071428Y-169526428D01*
X91428571Y-169883571D02*
X91428571Y-171097857D01*
X91357142Y-171240714D01*
X91285714Y-171312142D01*
X91142857Y-171383571D01*
X90928571Y-171383571D01*
X90785714Y-171312142D01*
X91428571Y-170812142D02*
X91285714Y-170883571D01*
X91000000Y-170883571D01*
X90857142Y-170812142D01*
X90785714Y-170740714D01*
X90714285Y-170597857D01*
X90714285Y-170169285D01*
X90785714Y-170026428D01*
X90857142Y-169955000D01*
X91000000Y-169883571D01*
X91285714Y-169883571D01*
X91428571Y-169955000D01*
X92785714Y-169883571D02*
X92785714Y-171097857D01*
X92714285Y-171240714D01*
X92642857Y-171312142D01*
X92500000Y-171383571D01*
X92285714Y-171383571D01*
X92142857Y-171312142D01*
X92785714Y-170812142D02*
X92642857Y-170883571D01*
X92357142Y-170883571D01*
X92214285Y-170812142D01*
X92142857Y-170740714D01*
X92071428Y-170597857D01*
X92071428Y-170169285D01*
X92142857Y-170026428D01*
X92214285Y-169955000D01*
X92357142Y-169883571D01*
X92642857Y-169883571D01*
X92785714Y-169955000D01*
X94071428Y-170812142D02*
X93928571Y-170883571D01*
X93642857Y-170883571D01*
X93500000Y-170812142D01*
X93428571Y-170669285D01*
X93428571Y-170097857D01*
X93500000Y-169955000D01*
X93642857Y-169883571D01*
X93928571Y-169883571D01*
X94071428Y-169955000D01*
X94142857Y-170097857D01*
X94142857Y-170240714D01*
X93428571Y-170383571D01*
X94785714Y-170883571D02*
X94785714Y-169883571D01*
X94785714Y-170169285D02*
X94857142Y-170026428D01*
X94928571Y-169955000D01*
X95071428Y-169883571D01*
X95214285Y-169883571D01*
D14*
X72547619Y-180809523D02*
X72833333Y-180904761D01*
X73309523Y-180904761D01*
X73500000Y-180809523D01*
X73595238Y-180714285D01*
X73690476Y-180523809D01*
X73690476Y-180333333D01*
X73595238Y-180142857D01*
X73500000Y-180047619D01*
X73309523Y-179952380D01*
X72928571Y-179857142D01*
X72738095Y-179761904D01*
X72642857Y-179666666D01*
X72547619Y-179476190D01*
X72547619Y-179285714D01*
X72642857Y-179095238D01*
X72738095Y-179000000D01*
X72928571Y-178904761D01*
X73404761Y-178904761D01*
X73690476Y-179000000D01*
X74547619Y-179857142D02*
X75214285Y-179857142D01*
X75500000Y-180904761D02*
X74547619Y-180904761D01*
X74547619Y-178904761D01*
X75500000Y-178904761D01*
X77309523Y-180904761D02*
X76357142Y-180904761D01*
X76357142Y-178904761D01*
X77976190Y-179857142D02*
X78642857Y-179857142D01*
X78928571Y-180904761D02*
X77976190Y-180904761D01*
X77976190Y-178904761D01*
X78928571Y-178904761D01*
X80928571Y-180714285D02*
X80833333Y-180809523D01*
X80547619Y-180904761D01*
X80357142Y-180904761D01*
X80071428Y-180809523D01*
X79880952Y-180619047D01*
X79785714Y-180428571D01*
X79690476Y-180047619D01*
X79690476Y-179761904D01*
X79785714Y-179380952D01*
X79880952Y-179190476D01*
X80071428Y-179000000D01*
X80357142Y-178904761D01*
X80547619Y-178904761D01*
X80833333Y-179000000D01*
X80928571Y-179095238D01*
X81500000Y-178904761D02*
X82642857Y-178904761D01*
X82071428Y-180904761D02*
X82071428Y-178904761D01*
D10*
X100785714Y-122404761D02*
X100119047Y-121452380D01*
X99642857Y-122404761D02*
X99642857Y-120404761D01*
X100404761Y-120404761D01*
X100595238Y-120500000D01*
X100690476Y-120595238D01*
X100785714Y-120785714D01*
X100785714Y-121071428D01*
X100690476Y-121261904D01*
X100595238Y-121357142D01*
X100404761Y-121452380D01*
X99642857Y-121452380D01*
X101642857Y-121071428D02*
X101642857Y-122404761D01*
X101642857Y-121261904D02*
X101738095Y-121166666D01*
X101928571Y-121071428D01*
X102214285Y-121071428D01*
X102404761Y-121166666D01*
X102500000Y-121357142D01*
X102500000Y-122404761D01*
X104309523Y-122404761D02*
X104309523Y-120404761D01*
X104309523Y-122309523D02*
X104119047Y-122404761D01*
X103738095Y-122404761D01*
X103547619Y-122309523D01*
X103452380Y-122214285D01*
X103357142Y-122023809D01*
X103357142Y-121452380D01*
X103452380Y-121261904D01*
X103547619Y-121166666D01*
X103738095Y-121071428D01*
X104119047Y-121071428D01*
X104309523Y-121166666D01*
X106690476Y-120309523D02*
X104976190Y-122880952D01*
X108500000Y-122404761D02*
X107833333Y-121452380D01*
X107357142Y-122404761D02*
X107357142Y-120404761D01*
X108119047Y-120404761D01*
X108309523Y-120500000D01*
X108404761Y-120595238D01*
X108500000Y-120785714D01*
X108500000Y-121071428D01*
X108404761Y-121261904D01*
X108309523Y-121357142D01*
X108119047Y-121452380D01*
X107357142Y-121452380D01*
X109357142Y-121071428D02*
X109357142Y-123071428D01*
X109357142Y-121166666D02*
X109547619Y-121071428D01*
X109928571Y-121071428D01*
X110119047Y-121166666D01*
X110214285Y-121261904D01*
X110309523Y-121452380D01*
X110309523Y-122023809D01*
X110214285Y-122214285D01*
X110119047Y-122309523D01*
X109928571Y-122404761D01*
X109547619Y-122404761D01*
X109357142Y-122309523D01*
X110880952Y-121071428D02*
X111642857Y-121071428D01*
X111166666Y-120404761D02*
X111166666Y-122119047D01*
X111261904Y-122309523D01*
X111452380Y-122404761D01*
X111642857Y-122404761D01*
X96500000Y-105404761D02*
X96500000Y-103404761D01*
X96976190Y-103404761D01*
X97261904Y-103500000D01*
X97452380Y-103690476D01*
X97547619Y-103880952D01*
X97642857Y-104261904D01*
X97642857Y-104547619D01*
X97547619Y-104928571D01*
X97452380Y-105119047D01*
X97261904Y-105309523D01*
X96976190Y-105404761D01*
X96500000Y-105404761D01*
X99261904Y-105309523D02*
X99071428Y-105404761D01*
X98690476Y-105404761D01*
X98500000Y-105309523D01*
X98404761Y-105119047D01*
X98404761Y-104357142D01*
X98500000Y-104166666D01*
X98690476Y-104071428D01*
X99071428Y-104071428D01*
X99261904Y-104166666D01*
X99357142Y-104357142D01*
X99357142Y-104547619D01*
X98404761Y-104738095D01*
X101071428Y-105309523D02*
X100880952Y-105404761D01*
X100500000Y-105404761D01*
X100309523Y-105309523D01*
X100214285Y-105214285D01*
X100119047Y-105023809D01*
X100119047Y-104452380D01*
X100214285Y-104261904D01*
X100309523Y-104166666D01*
X100500000Y-104071428D01*
X100880952Y-104071428D01*
X101071428Y-104166666D01*
X102785714Y-105404761D02*
X102785714Y-104357142D01*
X102690476Y-104166666D01*
X102500000Y-104071428D01*
X102119047Y-104071428D01*
X101928571Y-104166666D01*
X102785714Y-105309523D02*
X102595238Y-105404761D01*
X102119047Y-105404761D01*
X101928571Y-105309523D01*
X101833333Y-105119047D01*
X101833333Y-104928571D01*
X101928571Y-104738095D01*
X102119047Y-104642857D01*
X102595238Y-104642857D01*
X102785714Y-104547619D01*
X103547619Y-104071428D02*
X104023809Y-105404761D01*
X104500000Y-104071428D02*
X104023809Y-105404761D01*
X103833333Y-105880952D01*
X103738095Y-105976190D01*
X103547619Y-106071428D01*
X106690476Y-103309523D02*
X104976190Y-105880952D01*
X107357142Y-105404761D02*
X107357142Y-103404761D01*
X107833333Y-103404761D01*
X108119047Y-103500000D01*
X108309523Y-103690476D01*
X108404761Y-103880952D01*
X108500000Y-104261904D01*
X108500000Y-104547619D01*
X108404761Y-104928571D01*
X108309523Y-105119047D01*
X108119047Y-105309523D01*
X107833333Y-105404761D01*
X107357142Y-105404761D01*
X110119047Y-105309523D02*
X109928571Y-105404761D01*
X109547619Y-105404761D01*
X109357142Y-105309523D01*
X109261904Y-105119047D01*
X109261904Y-104357142D01*
X109357142Y-104166666D01*
X109547619Y-104071428D01*
X109928571Y-104071428D01*
X110119047Y-104166666D01*
X110214285Y-104357142D01*
X110214285Y-104547619D01*
X109261904Y-104738095D01*
X111357142Y-105404761D02*
X111166666Y-105309523D01*
X111071428Y-105119047D01*
X111071428Y-103404761D01*
X112976190Y-105404761D02*
X112976190Y-104357142D01*
X112880952Y-104166666D01*
X112690476Y-104071428D01*
X112309523Y-104071428D01*
X112119047Y-104166666D01*
X112976190Y-105309523D02*
X112785714Y-105404761D01*
X112309523Y-105404761D01*
X112119047Y-105309523D01*
X112023809Y-105119047D01*
X112023809Y-104928571D01*
X112119047Y-104738095D01*
X112309523Y-104642857D01*
X112785714Y-104642857D01*
X112976190Y-104547619D01*
X113738095Y-104071428D02*
X114214285Y-105404761D01*
X114690476Y-104071428D02*
X114214285Y-105404761D01*
X114023809Y-105880952D01*
X113928571Y-105976190D01*
X113738095Y-106071428D01*
X101976190Y-87404761D02*
X101023809Y-87404761D01*
X101023809Y-85404761D01*
X103404761Y-87309523D02*
X103214285Y-87404761D01*
X102833333Y-87404761D01*
X102642857Y-87309523D01*
X102547619Y-87119047D01*
X102547619Y-86357142D01*
X102642857Y-86166666D01*
X102833333Y-86071428D01*
X103214285Y-86071428D01*
X103404761Y-86166666D01*
X103500000Y-86357142D01*
X103500000Y-86547619D01*
X102547619Y-86738095D01*
X104357142Y-86071428D02*
X104357142Y-87404761D01*
X104357142Y-86261904D02*
X104452380Y-86166666D01*
X104642857Y-86071428D01*
X104928571Y-86071428D01*
X105119047Y-86166666D01*
X105214285Y-86357142D01*
X105214285Y-87404761D01*
X107023809Y-86071428D02*
X107023809Y-87690476D01*
X106928571Y-87880952D01*
X106833333Y-87976190D01*
X106642857Y-88071428D01*
X106357142Y-88071428D01*
X106166666Y-87976190D01*
X107023809Y-87309523D02*
X106833333Y-87404761D01*
X106452380Y-87404761D01*
X106261904Y-87309523D01*
X106166666Y-87214285D01*
X106071428Y-87023809D01*
X106071428Y-86452380D01*
X106166666Y-86261904D01*
X106261904Y-86166666D01*
X106452380Y-86071428D01*
X106833333Y-86071428D01*
X107023809Y-86166666D01*
X107690476Y-86071428D02*
X108452380Y-86071428D01*
X107976190Y-85404761D02*
X107976190Y-87119047D01*
X108071428Y-87309523D01*
X108261904Y-87404761D01*
X108452380Y-87404761D01*
X109119047Y-87404761D02*
X109119047Y-85404761D01*
X109976190Y-87404761D02*
X109976190Y-86357142D01*
X109880952Y-86166666D01*
X109690476Y-86071428D01*
X109404761Y-86071428D01*
X109214285Y-86166666D01*
X109119047Y-86261904D01*
X67138690Y-158404761D02*
X67138690Y-160023809D01*
X67233928Y-160214285D01*
X67329166Y-160309523D01*
X67519642Y-160404761D01*
X67900595Y-160404761D01*
X68091071Y-160309523D01*
X68186309Y-160214285D01*
X68281547Y-160023809D01*
X68281547Y-158404761D01*
X69138690Y-160309523D02*
X69329166Y-160404761D01*
X69710119Y-160404761D01*
X69900595Y-160309523D01*
X69995833Y-160119047D01*
X69995833Y-160023809D01*
X69900595Y-159833333D01*
X69710119Y-159738095D01*
X69424404Y-159738095D01*
X69233928Y-159642857D01*
X69138690Y-159452380D01*
X69138690Y-159357142D01*
X69233928Y-159166666D01*
X69424404Y-159071428D01*
X69710119Y-159071428D01*
X69900595Y-159166666D01*
X71614880Y-160309523D02*
X71424404Y-160404761D01*
X71043452Y-160404761D01*
X70852976Y-160309523D01*
X70757738Y-160119047D01*
X70757738Y-159357142D01*
X70852976Y-159166666D01*
X71043452Y-159071428D01*
X71424404Y-159071428D01*
X71614880Y-159166666D01*
X71710119Y-159357142D01*
X71710119Y-159547619D01*
X70757738Y-159738095D01*
X72567261Y-160404761D02*
X72567261Y-159071428D01*
X72567261Y-159452380D02*
X72662500Y-159261904D01*
X72757738Y-159166666D01*
X72948214Y-159071428D01*
X73138690Y-159071428D01*
X67138690Y-153404761D02*
X67138690Y-151404761D01*
X67805357Y-152833333D01*
X68472023Y-151404761D01*
X68472023Y-153404761D01*
X70281547Y-153404761D02*
X70281547Y-152357142D01*
X70186309Y-152166666D01*
X69995833Y-152071428D01*
X69614880Y-152071428D01*
X69424404Y-152166666D01*
X70281547Y-153309523D02*
X70091071Y-153404761D01*
X69614880Y-153404761D01*
X69424404Y-153309523D01*
X69329166Y-153119047D01*
X69329166Y-152928571D01*
X69424404Y-152738095D01*
X69614880Y-152642857D01*
X70091071Y-152642857D01*
X70281547Y-152547619D01*
X71043452Y-152071428D02*
X71519642Y-153404761D01*
X71995833Y-152071428D02*
X71519642Y-153404761D01*
X71329166Y-153880952D01*
X71233928Y-153976190D01*
X71043452Y-154071428D01*
X72472023Y-152071428D02*
X73233928Y-152071428D01*
X72757738Y-151404761D02*
X72757738Y-153119047D01*
X72852976Y-153309523D01*
X73043452Y-153404761D01*
X73233928Y-153404761D01*
X74757738Y-153404761D02*
X74757738Y-152357142D01*
X74662500Y-152166666D01*
X74472023Y-152071428D01*
X74091071Y-152071428D01*
X73900595Y-152166666D01*
X74757738Y-153309523D02*
X74567261Y-153404761D01*
X74091071Y-153404761D01*
X73900595Y-153309523D01*
X73805357Y-153119047D01*
X73805357Y-152928571D01*
X73900595Y-152738095D01*
X74091071Y-152642857D01*
X74567261Y-152642857D01*
X74757738Y-152547619D01*
X76567261Y-152071428D02*
X76567261Y-153690476D01*
X76472023Y-153880952D01*
X76376785Y-153976190D01*
X76186309Y-154071428D01*
X75900595Y-154071428D01*
X75710119Y-153976190D01*
X76567261Y-153309523D02*
X76376785Y-153404761D01*
X75995833Y-153404761D01*
X75805357Y-153309523D01*
X75710119Y-153214285D01*
X75614880Y-153023809D01*
X75614880Y-152452380D01*
X75710119Y-152261904D01*
X75805357Y-152166666D01*
X75995833Y-152071428D01*
X76376785Y-152071428D01*
X76567261Y-152166666D01*
X66852976Y-144404761D02*
X67995833Y-144404761D01*
X67424404Y-146404761D02*
X67424404Y-144404761D01*
X68948214Y-146404761D02*
X68757738Y-146309523D01*
X68662500Y-146214285D01*
X68567261Y-146023809D01*
X68567261Y-145452380D01*
X68662500Y-145261904D01*
X68757738Y-145166666D01*
X68948214Y-145071428D01*
X69233928Y-145071428D01*
X69424404Y-145166666D01*
X69519642Y-145261904D01*
X69614880Y-145452380D01*
X69614880Y-146023809D01*
X69519642Y-146214285D01*
X69424404Y-146309523D01*
X69233928Y-146404761D01*
X68948214Y-146404761D01*
X71329166Y-145071428D02*
X71329166Y-146690476D01*
X71233928Y-146880952D01*
X71138690Y-146976190D01*
X70948214Y-147071428D01*
X70662500Y-147071428D01*
X70472023Y-146976190D01*
X71329166Y-146309523D02*
X71138690Y-146404761D01*
X70757738Y-146404761D01*
X70567261Y-146309523D01*
X70472023Y-146214285D01*
X70376785Y-146023809D01*
X70376785Y-145452380D01*
X70472023Y-145261904D01*
X70567261Y-145166666D01*
X70757738Y-145071428D01*
X71138690Y-145071428D01*
X71329166Y-145166666D01*
X73138690Y-145071428D02*
X73138690Y-146690476D01*
X73043452Y-146880952D01*
X72948214Y-146976190D01*
X72757738Y-147071428D01*
X72472023Y-147071428D01*
X72281547Y-146976190D01*
X73138690Y-146309523D02*
X72948214Y-146404761D01*
X72567261Y-146404761D01*
X72376785Y-146309523D01*
X72281547Y-146214285D01*
X72186309Y-146023809D01*
X72186309Y-145452380D01*
X72281547Y-145261904D01*
X72376785Y-145166666D01*
X72567261Y-145071428D01*
X72948214Y-145071428D01*
X73138690Y-145166666D01*
X74376785Y-146404761D02*
X74186309Y-146309523D01*
X74091071Y-146119047D01*
X74091071Y-144404761D01*
X75900595Y-146309523D02*
X75710119Y-146404761D01*
X75329166Y-146404761D01*
X75138690Y-146309523D01*
X75043452Y-146119047D01*
X75043452Y-145357142D01*
X75138690Y-145166666D01*
X75329166Y-145071428D01*
X75710119Y-145071428D01*
X75900595Y-145166666D01*
X75995833Y-145357142D01*
X75995833Y-145547619D01*
X75043452Y-145738095D01*
X67043452Y-139309523D02*
X67329166Y-139404761D01*
X67805357Y-139404761D01*
X67995833Y-139309523D01*
X68091071Y-139214285D01*
X68186309Y-139023809D01*
X68186309Y-138833333D01*
X68091071Y-138642857D01*
X67995833Y-138547619D01*
X67805357Y-138452380D01*
X67424404Y-138357142D01*
X67233928Y-138261904D01*
X67138690Y-138166666D01*
X67043452Y-137976190D01*
X67043452Y-137785714D01*
X67138690Y-137595238D01*
X67233928Y-137500000D01*
X67424404Y-137404761D01*
X67900595Y-137404761D01*
X68186309Y-137500000D01*
X68757738Y-138071428D02*
X69519642Y-138071428D01*
X69043452Y-137404761D02*
X69043452Y-139119047D01*
X69138690Y-139309523D01*
X69329166Y-139404761D01*
X69519642Y-139404761D01*
X70186309Y-139404761D02*
X70186309Y-138071428D01*
X70186309Y-138452380D02*
X70281547Y-138261904D01*
X70376785Y-138166666D01*
X70567261Y-138071428D01*
X70757738Y-138071428D01*
X72186309Y-139309523D02*
X71995833Y-139404761D01*
X71614880Y-139404761D01*
X71424404Y-139309523D01*
X71329166Y-139119047D01*
X71329166Y-138357142D01*
X71424404Y-138166666D01*
X71614880Y-138071428D01*
X71995833Y-138071428D01*
X72186309Y-138166666D01*
X72281547Y-138357142D01*
X72281547Y-138547619D01*
X71329166Y-138738095D01*
X72852976Y-138071428D02*
X73614880Y-138071428D01*
X73138690Y-137404761D02*
X73138690Y-139119047D01*
X73233928Y-139309523D01*
X73424404Y-139404761D01*
X73614880Y-139404761D01*
X75138690Y-139309523D02*
X74948214Y-139404761D01*
X74567261Y-139404761D01*
X74376785Y-139309523D01*
X74281547Y-139214285D01*
X74186309Y-139023809D01*
X74186309Y-138452380D01*
X74281547Y-138261904D01*
X74376785Y-138166666D01*
X74567261Y-138071428D01*
X74948214Y-138071428D01*
X75138690Y-138166666D01*
X75995833Y-139404761D02*
X75995833Y-137404761D01*
X76852976Y-139404761D02*
X76852976Y-138357142D01*
X76757738Y-138166666D01*
X76567261Y-138071428D01*
X76281547Y-138071428D01*
X76091071Y-138166666D01*
X75995833Y-138261904D01*
X67138690Y-132404761D02*
X67138690Y-130404761D01*
X67614880Y-130404761D01*
X67900595Y-130500000D01*
X68091071Y-130690476D01*
X68186309Y-130880952D01*
X68281547Y-131261904D01*
X68281547Y-131547619D01*
X68186309Y-131928571D01*
X68091071Y-132119047D01*
X67900595Y-132309523D01*
X67614880Y-132404761D01*
X67138690Y-132404761D01*
X69424404Y-132404761D02*
X69233928Y-132309523D01*
X69138690Y-132214285D01*
X69043452Y-132023809D01*
X69043452Y-131452380D01*
X69138690Y-131261904D01*
X69233928Y-131166666D01*
X69424404Y-131071428D01*
X69710119Y-131071428D01*
X69900595Y-131166666D01*
X69995833Y-131261904D01*
X70091071Y-131452380D01*
X70091071Y-132023809D01*
X69995833Y-132214285D01*
X69900595Y-132309523D01*
X69710119Y-132404761D01*
X69424404Y-132404761D01*
X70757738Y-131071428D02*
X71138690Y-132404761D01*
X71519642Y-131452380D01*
X71900595Y-132404761D01*
X72281547Y-131071428D01*
X73043452Y-131071428D02*
X73043452Y-132404761D01*
X73043452Y-131261904D02*
X73138690Y-131166666D01*
X73329166Y-131071428D01*
X73614880Y-131071428D01*
X73805357Y-131166666D01*
X73900595Y-131357142D01*
X73900595Y-132404761D01*
X76281547Y-130309523D02*
X74567261Y-132880952D01*
X76948214Y-130404761D02*
X76948214Y-132023809D01*
X77043452Y-132214285D01*
X77138690Y-132309523D01*
X77329166Y-132404761D01*
X77710119Y-132404761D01*
X77900595Y-132309523D01*
X77995833Y-132214285D01*
X78091071Y-132023809D01*
X78091071Y-130404761D01*
X79043452Y-131071428D02*
X79043452Y-133071428D01*
X79043452Y-131166666D02*
X79233928Y-131071428D01*
X79614880Y-131071428D01*
X79805357Y-131166666D01*
X79900595Y-131261904D01*
X79995833Y-131452380D01*
X79995833Y-132023809D01*
X79900595Y-132214285D01*
X79805357Y-132309523D01*
X79614880Y-132404761D01*
X79233928Y-132404761D01*
X79043452Y-132309523D01*
X80852976Y-132214285D02*
X80948214Y-132309523D01*
X80852976Y-132404761D01*
X80757738Y-132309523D01*
X80852976Y-132214285D01*
X80852976Y-132404761D01*
X81805357Y-132214285D02*
X81900595Y-132309523D01*
X81805357Y-132404761D01*
X81710119Y-132309523D01*
X81805357Y-132214285D01*
X81805357Y-132404761D01*
X82757738Y-132214285D02*
X82852976Y-132309523D01*
X82757738Y-132404761D01*
X82662500Y-132309523D01*
X82757738Y-132214285D01*
X82757738Y-132404761D01*
X67138690Y-123404761D02*
X67138690Y-125023809D01*
X67233928Y-125214285D01*
X67329166Y-125309523D01*
X67519642Y-125404761D01*
X67900595Y-125404761D01*
X68091071Y-125309523D01*
X68186309Y-125214285D01*
X68281547Y-125023809D01*
X68281547Y-123404761D01*
X69233928Y-124071428D02*
X69233928Y-126071428D01*
X69233928Y-124166666D02*
X69424404Y-124071428D01*
X69805357Y-124071428D01*
X69995833Y-124166666D01*
X70091071Y-124261904D01*
X70186309Y-124452380D01*
X70186309Y-125023809D01*
X70091071Y-125214285D01*
X69995833Y-125309523D01*
X69805357Y-125404761D01*
X69424404Y-125404761D01*
X69233928Y-125309523D01*
X72472023Y-123309523D02*
X70757738Y-125880952D01*
X73138690Y-125404761D02*
X73138690Y-123404761D01*
X73614880Y-123404761D01*
X73900595Y-123500000D01*
X74091071Y-123690476D01*
X74186309Y-123880952D01*
X74281547Y-124261904D01*
X74281547Y-124547619D01*
X74186309Y-124928571D01*
X74091071Y-125119047D01*
X73900595Y-125309523D01*
X73614880Y-125404761D01*
X73138690Y-125404761D01*
X75424404Y-125404761D02*
X75233928Y-125309523D01*
X75138690Y-125214285D01*
X75043452Y-125023809D01*
X75043452Y-124452380D01*
X75138690Y-124261904D01*
X75233928Y-124166666D01*
X75424404Y-124071428D01*
X75710119Y-124071428D01*
X75900595Y-124166666D01*
X75995833Y-124261904D01*
X76091071Y-124452380D01*
X76091071Y-125023809D01*
X75995833Y-125214285D01*
X75900595Y-125309523D01*
X75710119Y-125404761D01*
X75424404Y-125404761D01*
X76757738Y-124071428D02*
X77138690Y-125404761D01*
X77519642Y-124452380D01*
X77900595Y-125404761D01*
X78281547Y-124071428D01*
X79043452Y-124071428D02*
X79043452Y-125404761D01*
X79043452Y-124261904D02*
X79138690Y-124166666D01*
X79329166Y-124071428D01*
X79614880Y-124071428D01*
X79805357Y-124166666D01*
X79900595Y-124357142D01*
X79900595Y-125404761D01*
X80852976Y-125214285D02*
X80948214Y-125309523D01*
X80852976Y-125404761D01*
X80757738Y-125309523D01*
X80852976Y-125214285D01*
X80852976Y-125404761D01*
X81805357Y-125214285D02*
X81900595Y-125309523D01*
X81805357Y-125404761D01*
X81710119Y-125309523D01*
X81805357Y-125214285D01*
X81805357Y-125404761D01*
X82757738Y-125214285D02*
X82852976Y-125309523D01*
X82757738Y-125404761D01*
X82662500Y-125309523D01*
X82757738Y-125214285D01*
X82757738Y-125404761D01*
X67138690Y-118404761D02*
X67138690Y-116404761D01*
X67614880Y-116404761D01*
X67900595Y-116500000D01*
X68091071Y-116690476D01*
X68186309Y-116880952D01*
X68281547Y-117261904D01*
X68281547Y-117547619D01*
X68186309Y-117928571D01*
X68091071Y-118119047D01*
X67900595Y-118309523D01*
X67614880Y-118404761D01*
X67138690Y-118404761D01*
X69424404Y-118404761D02*
X69233928Y-118309523D01*
X69138690Y-118214285D01*
X69043452Y-118023809D01*
X69043452Y-117452380D01*
X69138690Y-117261904D01*
X69233928Y-117166666D01*
X69424404Y-117071428D01*
X69710119Y-117071428D01*
X69900595Y-117166666D01*
X69995833Y-117261904D01*
X70091071Y-117452380D01*
X70091071Y-118023809D01*
X69995833Y-118214285D01*
X69900595Y-118309523D01*
X69710119Y-118404761D01*
X69424404Y-118404761D01*
X70757738Y-117071428D02*
X71138690Y-118404761D01*
X71519642Y-117452380D01*
X71900595Y-118404761D01*
X72281547Y-117071428D01*
X73043452Y-117071428D02*
X73043452Y-118404761D01*
X73043452Y-117261904D02*
X73138690Y-117166666D01*
X73329166Y-117071428D01*
X73614880Y-117071428D01*
X73805357Y-117166666D01*
X73900595Y-117357142D01*
X73900595Y-118404761D01*
X74852976Y-118214285D02*
X74948214Y-118309523D01*
X74852976Y-118404761D01*
X74757738Y-118309523D01*
X74852976Y-118214285D01*
X74852976Y-118404761D01*
X75805357Y-118214285D02*
X75900595Y-118309523D01*
X75805357Y-118404761D01*
X75710119Y-118309523D01*
X75805357Y-118214285D01*
X75805357Y-118404761D01*
X76757738Y-118214285D02*
X76852976Y-118309523D01*
X76757738Y-118404761D01*
X76662500Y-118309523D01*
X76757738Y-118214285D01*
X76757738Y-118404761D01*
X67138690Y-109404761D02*
X67138690Y-111023809D01*
X67233928Y-111214285D01*
X67329166Y-111309523D01*
X67519642Y-111404761D01*
X67900595Y-111404761D01*
X68091071Y-111309523D01*
X68186309Y-111214285D01*
X68281547Y-111023809D01*
X68281547Y-109404761D01*
X69233928Y-110071428D02*
X69233928Y-112071428D01*
X69233928Y-110166666D02*
X69424404Y-110071428D01*
X69805357Y-110071428D01*
X69995833Y-110166666D01*
X70091071Y-110261904D01*
X70186309Y-110452380D01*
X70186309Y-111023809D01*
X70091071Y-111214285D01*
X69995833Y-111309523D01*
X69805357Y-111404761D01*
X69424404Y-111404761D01*
X69233928Y-111309523D01*
X71043452Y-111214285D02*
X71138690Y-111309523D01*
X71043452Y-111404761D01*
X70948214Y-111309523D01*
X71043452Y-111214285D01*
X71043452Y-111404761D01*
X71995833Y-111214285D02*
X72091071Y-111309523D01*
X71995833Y-111404761D01*
X71900595Y-111309523D01*
X71995833Y-111214285D01*
X71995833Y-111404761D01*
X72948214Y-111214285D02*
X73043452Y-111309523D01*
X72948214Y-111404761D01*
X72852976Y-111309523D01*
X72948214Y-111214285D01*
X72948214Y-111404761D01*
X67138690Y-104404761D02*
X67138690Y-102404761D01*
X67614880Y-102404761D01*
X67900595Y-102500000D01*
X68091071Y-102690476D01*
X68186309Y-102880952D01*
X68281547Y-103261904D01*
X68281547Y-103547619D01*
X68186309Y-103928571D01*
X68091071Y-104119047D01*
X67900595Y-104309523D01*
X67614880Y-104404761D01*
X67138690Y-104404761D01*
X69424404Y-104404761D02*
X69233928Y-104309523D01*
X69138690Y-104214285D01*
X69043452Y-104023809D01*
X69043452Y-103452380D01*
X69138690Y-103261904D01*
X69233928Y-103166666D01*
X69424404Y-103071428D01*
X69710119Y-103071428D01*
X69900595Y-103166666D01*
X69995833Y-103261904D01*
X70091071Y-103452380D01*
X70091071Y-104023809D01*
X69995833Y-104214285D01*
X69900595Y-104309523D01*
X69710119Y-104404761D01*
X69424404Y-104404761D01*
X70757738Y-103071428D02*
X71138690Y-104404761D01*
X71519642Y-103452380D01*
X71900595Y-104404761D01*
X72281547Y-103071428D01*
X73043452Y-103071428D02*
X73043452Y-104404761D01*
X73043452Y-103261904D02*
X73138690Y-103166666D01*
X73329166Y-103071428D01*
X73614880Y-103071428D01*
X73805357Y-103166666D01*
X73900595Y-103357142D01*
X73900595Y-104404761D01*
X76281547Y-102309523D02*
X74567261Y-104880952D01*
X76948214Y-102404761D02*
X76948214Y-104023809D01*
X77043452Y-104214285D01*
X77138690Y-104309523D01*
X77329166Y-104404761D01*
X77710119Y-104404761D01*
X77900595Y-104309523D01*
X77995833Y-104214285D01*
X78091071Y-104023809D01*
X78091071Y-102404761D01*
X79043452Y-103071428D02*
X79043452Y-105071428D01*
X79043452Y-103166666D02*
X79233928Y-103071428D01*
X79614880Y-103071428D01*
X79805357Y-103166666D01*
X79900595Y-103261904D01*
X79995833Y-103452380D01*
X79995833Y-104023809D01*
X79900595Y-104214285D01*
X79805357Y-104309523D01*
X79614880Y-104404761D01*
X79233928Y-104404761D01*
X79043452Y-104309523D01*
X67138690Y-95404761D02*
X67138690Y-97023809D01*
X67233928Y-97214285D01*
X67329166Y-97309523D01*
X67519642Y-97404761D01*
X67900595Y-97404761D01*
X68091071Y-97309523D01*
X68186309Y-97214285D01*
X68281547Y-97023809D01*
X68281547Y-95404761D01*
X69233928Y-96071428D02*
X69233928Y-98071428D01*
X69233928Y-96166666D02*
X69424404Y-96071428D01*
X69805357Y-96071428D01*
X69995833Y-96166666D01*
X70091071Y-96261904D01*
X70186309Y-96452380D01*
X70186309Y-97023809D01*
X70091071Y-97214285D01*
X69995833Y-97309523D01*
X69805357Y-97404761D01*
X69424404Y-97404761D01*
X69233928Y-97309523D01*
X72472023Y-95309523D02*
X70757738Y-97880952D01*
X73138690Y-97404761D02*
X73138690Y-95404761D01*
X73614880Y-95404761D01*
X73900595Y-95500000D01*
X74091071Y-95690476D01*
X74186309Y-95880952D01*
X74281547Y-96261904D01*
X74281547Y-96547619D01*
X74186309Y-96928571D01*
X74091071Y-97119047D01*
X73900595Y-97309523D01*
X73614880Y-97404761D01*
X73138690Y-97404761D01*
X75424404Y-97404761D02*
X75233928Y-97309523D01*
X75138690Y-97214285D01*
X75043452Y-97023809D01*
X75043452Y-96452380D01*
X75138690Y-96261904D01*
X75233928Y-96166666D01*
X75424404Y-96071428D01*
X75710119Y-96071428D01*
X75900595Y-96166666D01*
X75995833Y-96261904D01*
X76091071Y-96452380D01*
X76091071Y-97023809D01*
X75995833Y-97214285D01*
X75900595Y-97309523D01*
X75710119Y-97404761D01*
X75424404Y-97404761D01*
X76757738Y-96071428D02*
X77138690Y-97404761D01*
X77519642Y-96452380D01*
X77900595Y-97404761D01*
X78281547Y-96071428D01*
X79043452Y-96071428D02*
X79043452Y-97404761D01*
X79043452Y-96261904D02*
X79138690Y-96166666D01*
X79329166Y-96071428D01*
X79614880Y-96071428D01*
X79805357Y-96166666D01*
X79900595Y-96357142D01*
X79900595Y-97404761D01*
X67138690Y-90404761D02*
X67138690Y-88404761D01*
X67614880Y-88404761D01*
X67900595Y-88500000D01*
X68091071Y-88690476D01*
X68186309Y-88880952D01*
X68281547Y-89261904D01*
X68281547Y-89547619D01*
X68186309Y-89928571D01*
X68091071Y-90119047D01*
X67900595Y-90309523D01*
X67614880Y-90404761D01*
X67138690Y-90404761D01*
X69424404Y-90404761D02*
X69233928Y-90309523D01*
X69138690Y-90214285D01*
X69043452Y-90023809D01*
X69043452Y-89452380D01*
X69138690Y-89261904D01*
X69233928Y-89166666D01*
X69424404Y-89071428D01*
X69710119Y-89071428D01*
X69900595Y-89166666D01*
X69995833Y-89261904D01*
X70091071Y-89452380D01*
X70091071Y-90023809D01*
X69995833Y-90214285D01*
X69900595Y-90309523D01*
X69710119Y-90404761D01*
X69424404Y-90404761D01*
X70757738Y-89071428D02*
X71138690Y-90404761D01*
X71519642Y-89452380D01*
X71900595Y-90404761D01*
X72281547Y-89071428D01*
X73043452Y-89071428D02*
X73043452Y-90404761D01*
X73043452Y-89261904D02*
X73138690Y-89166666D01*
X73329166Y-89071428D01*
X73614880Y-89071428D01*
X73805357Y-89166666D01*
X73900595Y-89357142D01*
X73900595Y-90404761D01*
X67138690Y-81404761D02*
X67138690Y-83023809D01*
X67233928Y-83214285D01*
X67329166Y-83309523D01*
X67519642Y-83404761D01*
X67900595Y-83404761D01*
X68091071Y-83309523D01*
X68186309Y-83214285D01*
X68281547Y-83023809D01*
X68281547Y-81404761D01*
X69233928Y-82071428D02*
X69233928Y-84071428D01*
X69233928Y-82166666D02*
X69424404Y-82071428D01*
X69805357Y-82071428D01*
X69995833Y-82166666D01*
X70091071Y-82261904D01*
X70186309Y-82452380D01*
X70186309Y-83023809D01*
X70091071Y-83214285D01*
X69995833Y-83309523D01*
X69805357Y-83404761D01*
X69424404Y-83404761D01*
X69233928Y-83309523D01*
D15*
X106770000Y-165500000D02*
X106770000Y-174500000D01*
X103000000Y-174500000D02*
X103000000Y-165500000D01*
X108000000Y-174500000D02*
X103000000Y-174500000D01*
X108000000Y-165500000D02*
X108000000Y-174500000D01*
X103000000Y-165500000D02*
X108000000Y-165500000D01*
D12*
X108238095Y-113952380D02*
X108238095Y-112952380D01*
X108238095Y-113428571D02*
X108809523Y-113428571D01*
X108809523Y-113952380D02*
X108809523Y-112952380D01*
X109190476Y-112952380D02*
X109809523Y-112952380D01*
X109476190Y-113333333D01*
X109619047Y-113333333D01*
X109714285Y-113380952D01*
X109761904Y-113428571D01*
X109809523Y-113523809D01*
X109809523Y-113761904D01*
X109761904Y-113857142D01*
X109714285Y-113904761D01*
X109619047Y-113952380D01*
X109333333Y-113952380D01*
X109238095Y-113904761D01*
X109190476Y-113857142D01*
X107738095Y-79452380D02*
X107738095Y-78452380D01*
X107738095Y-78928571D02*
X108309523Y-78928571D01*
X108309523Y-79452380D02*
X108309523Y-78452380D01*
X109309523Y-79452380D02*
X108738095Y-79452380D01*
X109023809Y-79452380D02*
X109023809Y-78452380D01*
X108928571Y-78595238D01*
X108833333Y-78690476D01*
X108738095Y-78738095D01*
X108238095Y-97452380D02*
X108238095Y-96452380D01*
X108238095Y-96928571D02*
X108809523Y-96928571D01*
X108809523Y-97452380D02*
X108809523Y-96452380D01*
X109238095Y-96547619D02*
X109285714Y-96500000D01*
X109380952Y-96452380D01*
X109619047Y-96452380D01*
X109714285Y-96500000D01*
X109761904Y-96547619D01*
X109809523Y-96642857D01*
X109809523Y-96738095D01*
X109761904Y-96880952D01*
X109190476Y-97452380D01*
X109809523Y-97452380D01*
X104261904Y-169952380D02*
X104261904Y-168952380D01*
X104261904Y-169428571D02*
X104833333Y-169428571D01*
X104833333Y-169952380D02*
X104833333Y-168952380D01*
X105261904Y-169047619D02*
X105309523Y-169000000D01*
X105404761Y-168952380D01*
X105642857Y-168952380D01*
X105738095Y-169000000D01*
X105785714Y-169047619D01*
X105833333Y-169142857D01*
X105833333Y-169238095D01*
X105785714Y-169380952D01*
X105214285Y-169952380D01*
X105833333Y-169952380D01*
X106738095Y-168952380D02*
X106261904Y-168952380D01*
X106214285Y-169428571D01*
X106261904Y-169380952D01*
X106357142Y-169333333D01*
X106595238Y-169333333D01*
X106690476Y-169380952D01*
X106738095Y-169428571D01*
X106785714Y-169523809D01*
X106785714Y-169761904D01*
X106738095Y-169857142D01*
X106690476Y-169904761D01*
X106595238Y-169952380D01*
X106357142Y-169952380D01*
X106261904Y-169904761D01*
X106214285Y-169857142D01*
X108538095Y-156952380D02*
X108538095Y-155952380D01*
X108538095Y-156428571D02*
X109109523Y-156428571D01*
X109109523Y-156952380D02*
X109109523Y-155952380D01*
X109490476Y-155952380D02*
X110157142Y-155952380D01*
X109728571Y-156952380D01*
X76738095Y-168952380D02*
X76738095Y-167952380D01*
X76738095Y-168428571D02*
X77309523Y-168428571D01*
X77309523Y-168952380D02*
X77309523Y-167952380D01*
X77928571Y-168380952D02*
X77833333Y-168333333D01*
X77785714Y-168285714D01*
X77738095Y-168190476D01*
X77738095Y-168142857D01*
X77785714Y-168047619D01*
X77833333Y-168000000D01*
X77928571Y-167952380D01*
X78119047Y-167952380D01*
X78214285Y-168000000D01*
X78261904Y-168047619D01*
X78309523Y-168142857D01*
X78309523Y-168190476D01*
X78261904Y-168285714D01*
X78214285Y-168333333D01*
X78119047Y-168380952D01*
X77928571Y-168380952D01*
X77833333Y-168428571D01*
X77785714Y-168476190D01*
X77738095Y-168571428D01*
X77738095Y-168761904D01*
X77785714Y-168857142D01*
X77833333Y-168904761D01*
X77928571Y-168952380D01*
X78119047Y-168952380D01*
X78214285Y-168904761D01*
X78261904Y-168857142D01*
X78309523Y-168761904D01*
X78309523Y-168571428D01*
X78261904Y-168476190D01*
X78214285Y-168428571D01*
X78119047Y-168380952D01*
X63038095Y-82952380D02*
X63038095Y-81952380D01*
X63038095Y-82428571D02*
X63609523Y-82428571D01*
X63609523Y-82952380D02*
X63609523Y-81952380D01*
X64133333Y-82952380D02*
X64323809Y-82952380D01*
X64419047Y-82904761D01*
X64466666Y-82857142D01*
X64561904Y-82714285D01*
X64609523Y-82523809D01*
X64609523Y-82142857D01*
X64561904Y-82047619D01*
X64514285Y-82000000D01*
X64419047Y-81952380D01*
X64228571Y-81952380D01*
X64133333Y-82000000D01*
X64085714Y-82047619D01*
X64038095Y-82142857D01*
X64038095Y-82380952D01*
X64085714Y-82476190D01*
X64133333Y-82523809D01*
X64228571Y-82571428D01*
X64419047Y-82571428D01*
X64514285Y-82523809D01*
X64561904Y-82476190D01*
X64609523Y-82380952D01*
X62561904Y-90452380D02*
X62561904Y-89452380D01*
X62561904Y-89928571D02*
X63133333Y-89928571D01*
X63133333Y-90452380D02*
X63133333Y-89452380D01*
X64133333Y-90452380D02*
X63561904Y-90452380D01*
X63847619Y-90452380D02*
X63847619Y-89452380D01*
X63752380Y-89595238D01*
X63657142Y-89690476D01*
X63561904Y-89738095D01*
X64752380Y-89452380D02*
X64847619Y-89452380D01*
X64942857Y-89500000D01*
X64990476Y-89547619D01*
X65038095Y-89642857D01*
X65085714Y-89833333D01*
X65085714Y-90071428D01*
X65038095Y-90261904D01*
X64990476Y-90357142D01*
X64942857Y-90404761D01*
X64847619Y-90452380D01*
X64752380Y-90452380D01*
X64657142Y-90404761D01*
X64609523Y-90357142D01*
X64561904Y-90261904D01*
X64514285Y-90071428D01*
X64514285Y-89833333D01*
X64561904Y-89642857D01*
X64609523Y-89547619D01*
X64657142Y-89500000D01*
X64752380Y-89452380D01*
X62811904Y-96952380D02*
X62811904Y-95952380D01*
X62811904Y-96428571D02*
X63383333Y-96428571D01*
X63383333Y-96952380D02*
X63383333Y-95952380D01*
X64383333Y-96952380D02*
X63811904Y-96952380D01*
X64097619Y-96952380D02*
X64097619Y-95952380D01*
X64002380Y-96095238D01*
X63907142Y-96190476D01*
X63811904Y-96238095D01*
X65335714Y-96952380D02*
X64764285Y-96952380D01*
X65050000Y-96952380D02*
X65050000Y-95952380D01*
X64954761Y-96095238D01*
X64859523Y-96190476D01*
X64764285Y-96238095D01*
X62811904Y-103952380D02*
X62811904Y-102952380D01*
X62811904Y-103428571D02*
X63383333Y-103428571D01*
X63383333Y-103952380D02*
X63383333Y-102952380D01*
X64383333Y-103952380D02*
X63811904Y-103952380D01*
X64097619Y-103952380D02*
X64097619Y-102952380D01*
X64002380Y-103095238D01*
X63907142Y-103190476D01*
X63811904Y-103238095D01*
X64764285Y-103047619D02*
X64811904Y-103000000D01*
X64907142Y-102952380D01*
X65145238Y-102952380D01*
X65240476Y-103000000D01*
X65288095Y-103047619D01*
X65335714Y-103142857D01*
X65335714Y-103238095D01*
X65288095Y-103380952D01*
X64716666Y-103952380D01*
X65335714Y-103952380D01*
X62311904Y-110952380D02*
X62311904Y-109952380D01*
X62311904Y-110428571D02*
X62883333Y-110428571D01*
X62883333Y-110952380D02*
X62883333Y-109952380D01*
X63883333Y-110952380D02*
X63311904Y-110952380D01*
X63597619Y-110952380D02*
X63597619Y-109952380D01*
X63502380Y-110095238D01*
X63407142Y-110190476D01*
X63311904Y-110238095D01*
X64216666Y-109952380D02*
X64835714Y-109952380D01*
X64502380Y-110333333D01*
X64645238Y-110333333D01*
X64740476Y-110380952D01*
X64788095Y-110428571D01*
X64835714Y-110523809D01*
X64835714Y-110761904D01*
X64788095Y-110857142D01*
X64740476Y-110904761D01*
X64645238Y-110952380D01*
X64359523Y-110952380D01*
X64264285Y-110904761D01*
X64216666Y-110857142D01*
X62561904Y-117952380D02*
X62561904Y-116952380D01*
X62561904Y-117428571D02*
X63133333Y-117428571D01*
X63133333Y-117952380D02*
X63133333Y-116952380D01*
X64133333Y-117952380D02*
X63561904Y-117952380D01*
X63847619Y-117952380D02*
X63847619Y-116952380D01*
X63752380Y-117095238D01*
X63657142Y-117190476D01*
X63561904Y-117238095D01*
X64990476Y-117285714D02*
X64990476Y-117952380D01*
X64752380Y-116904761D02*
X64514285Y-117619047D01*
X65133333Y-117619047D01*
X62561904Y-124952380D02*
X62561904Y-123952380D01*
X62561904Y-124428571D02*
X63133333Y-124428571D01*
X63133333Y-124952380D02*
X63133333Y-123952380D01*
X64133333Y-124952380D02*
X63561904Y-124952380D01*
X63847619Y-124952380D02*
X63847619Y-123952380D01*
X63752380Y-124095238D01*
X63657142Y-124190476D01*
X63561904Y-124238095D01*
X65038095Y-123952380D02*
X64561904Y-123952380D01*
X64514285Y-124428571D01*
X64561904Y-124380952D01*
X64657142Y-124333333D01*
X64895238Y-124333333D01*
X64990476Y-124380952D01*
X65038095Y-124428571D01*
X65085714Y-124523809D01*
X65085714Y-124761904D01*
X65038095Y-124857142D01*
X64990476Y-124904761D01*
X64895238Y-124952380D01*
X64657142Y-124952380D01*
X64561904Y-124904761D01*
X64514285Y-124857142D01*
X62561904Y-131952380D02*
X62561904Y-130952380D01*
X62561904Y-131428571D02*
X63133333Y-131428571D01*
X63133333Y-131952380D02*
X63133333Y-130952380D01*
X64133333Y-131952380D02*
X63561904Y-131952380D01*
X63847619Y-131952380D02*
X63847619Y-130952380D01*
X63752380Y-131095238D01*
X63657142Y-131190476D01*
X63561904Y-131238095D01*
X64990476Y-130952380D02*
X64800000Y-130952380D01*
X64704761Y-131000000D01*
X64657142Y-131047619D01*
X64561904Y-131190476D01*
X64514285Y-131380952D01*
X64514285Y-131761904D01*
X64561904Y-131857142D01*
X64609523Y-131904761D01*
X64704761Y-131952380D01*
X64895238Y-131952380D01*
X64990476Y-131904761D01*
X65038095Y-131857142D01*
X65085714Y-131761904D01*
X65085714Y-131523809D01*
X65038095Y-131428571D01*
X64990476Y-131380952D01*
X64895238Y-131333333D01*
X64704761Y-131333333D01*
X64609523Y-131380952D01*
X64561904Y-131428571D01*
X64514285Y-131523809D01*
X62561904Y-138952380D02*
X62561904Y-137952380D01*
X62561904Y-138428571D02*
X63133333Y-138428571D01*
X63133333Y-138952380D02*
X63133333Y-137952380D01*
X64133333Y-138952380D02*
X63561904Y-138952380D01*
X63847619Y-138952380D02*
X63847619Y-137952380D01*
X63752380Y-138095238D01*
X63657142Y-138190476D01*
X63561904Y-138238095D01*
X64466666Y-137952380D02*
X65133333Y-137952380D01*
X64704761Y-138952380D01*
X62561904Y-145952380D02*
X62561904Y-144952380D01*
X62561904Y-145428571D02*
X63133333Y-145428571D01*
X63133333Y-145952380D02*
X63133333Y-144952380D01*
X64133333Y-145952380D02*
X63561904Y-145952380D01*
X63847619Y-145952380D02*
X63847619Y-144952380D01*
X63752380Y-145095238D01*
X63657142Y-145190476D01*
X63561904Y-145238095D01*
X64704761Y-145380952D02*
X64609523Y-145333333D01*
X64561904Y-145285714D01*
X64514285Y-145190476D01*
X64514285Y-145142857D01*
X64561904Y-145047619D01*
X64609523Y-145000000D01*
X64704761Y-144952380D01*
X64895238Y-144952380D01*
X64990476Y-145000000D01*
X65038095Y-145047619D01*
X65085714Y-145142857D01*
X65085714Y-145190476D01*
X65038095Y-145285714D01*
X64990476Y-145333333D01*
X64895238Y-145380952D01*
X64704761Y-145380952D01*
X64609523Y-145428571D01*
X64561904Y-145476190D01*
X64514285Y-145571428D01*
X64514285Y-145761904D01*
X64561904Y-145857142D01*
X64609523Y-145904761D01*
X64704761Y-145952380D01*
X64895238Y-145952380D01*
X64990476Y-145904761D01*
X65038095Y-145857142D01*
X65085714Y-145761904D01*
X65085714Y-145571428D01*
X65038095Y-145476190D01*
X64990476Y-145428571D01*
X64895238Y-145380952D01*
X62561904Y-152952380D02*
X62561904Y-151952380D01*
X62561904Y-152428571D02*
X63133333Y-152428571D01*
X63133333Y-152952380D02*
X63133333Y-151952380D01*
X64133333Y-152952380D02*
X63561904Y-152952380D01*
X63847619Y-152952380D02*
X63847619Y-151952380D01*
X63752380Y-152095238D01*
X63657142Y-152190476D01*
X63561904Y-152238095D01*
X64609523Y-152952380D02*
X64800000Y-152952380D01*
X64895238Y-152904761D01*
X64942857Y-152857142D01*
X65038095Y-152714285D01*
X65085714Y-152523809D01*
X65085714Y-152142857D01*
X65038095Y-152047619D01*
X64990476Y-152000000D01*
X64895238Y-151952380D01*
X64704761Y-151952380D01*
X64609523Y-152000000D01*
X64561904Y-152047619D01*
X64514285Y-152142857D01*
X64514285Y-152380952D01*
X64561904Y-152476190D01*
X64609523Y-152523809D01*
X64704761Y-152571428D01*
X64895238Y-152571428D01*
X64990476Y-152523809D01*
X65038095Y-152476190D01*
X65085714Y-152380952D01*
X62561904Y-159952380D02*
X62561904Y-158952380D01*
X62561904Y-159428571D02*
X63133333Y-159428571D01*
X63133333Y-159952380D02*
X63133333Y-158952380D01*
X63561904Y-159047619D02*
X63609523Y-159000000D01*
X63704761Y-158952380D01*
X63942857Y-158952380D01*
X64038095Y-159000000D01*
X64085714Y-159047619D01*
X64133333Y-159142857D01*
X64133333Y-159238095D01*
X64085714Y-159380952D01*
X63514285Y-159952380D01*
X64133333Y-159952380D01*
X64752380Y-158952380D02*
X64847619Y-158952380D01*
X64942857Y-159000000D01*
X64990476Y-159047619D01*
X65038095Y-159142857D01*
X65085714Y-159333333D01*
X65085714Y-159571428D01*
X65038095Y-159761904D01*
X64990476Y-159857142D01*
X64942857Y-159904761D01*
X64847619Y-159952380D01*
X64752380Y-159952380D01*
X64657142Y-159904761D01*
X64609523Y-159857142D01*
X64561904Y-159761904D01*
X64514285Y-159571428D01*
X64514285Y-159333333D01*
X64561904Y-159142857D01*
X64609523Y-159047619D01*
X64657142Y-159000000D01*
X64752380Y-158952380D01*
X104238095Y-138452380D02*
X104238095Y-137452380D01*
X104238095Y-137928571D02*
X104809523Y-137928571D01*
X104809523Y-138452380D02*
X104809523Y-137452380D01*
X105761904Y-137452380D02*
X105285714Y-137452380D01*
X105238095Y-137928571D01*
X105285714Y-137880952D01*
X105380952Y-137833333D01*
X105619047Y-137833333D01*
X105714285Y-137880952D01*
X105761904Y-137928571D01*
X105809523Y-138023809D01*
X105809523Y-138261904D01*
X105761904Y-138357142D01*
X105714285Y-138404761D01*
X105619047Y-138452380D01*
X105380952Y-138452380D01*
X105285714Y-138404761D01*
X105238095Y-138357142D01*
X104238095Y-148952380D02*
X104238095Y-147952380D01*
X104238095Y-148428571D02*
X104809523Y-148428571D01*
X104809523Y-148952380D02*
X104809523Y-147952380D01*
X105714285Y-147952380D02*
X105523809Y-147952380D01*
X105428571Y-148000000D01*
X105380952Y-148047619D01*
X105285714Y-148190476D01*
X105238095Y-148380952D01*
X105238095Y-148761904D01*
X105285714Y-148857142D01*
X105333333Y-148904761D01*
X105428571Y-148952380D01*
X105619047Y-148952380D01*
X105714285Y-148904761D01*
X105761904Y-148857142D01*
X105809523Y-148761904D01*
X105809523Y-148523809D01*
X105761904Y-148428571D01*
X105714285Y-148380952D01*
X105619047Y-148333333D01*
X105428571Y-148333333D01*
X105333333Y-148380952D01*
X105285714Y-148428571D01*
X105238095Y-148523809D01*
X66261904Y-63452380D02*
X66261904Y-62452380D01*
X66261904Y-62928571D02*
X66833333Y-62928571D01*
X66833333Y-63452380D02*
X66833333Y-62452380D01*
X67261904Y-62547619D02*
X67309523Y-62500000D01*
X67404761Y-62452380D01*
X67642857Y-62452380D01*
X67738095Y-62500000D01*
X67785714Y-62547619D01*
X67833333Y-62642857D01*
X67833333Y-62738095D01*
X67785714Y-62880952D01*
X67214285Y-63452380D01*
X67833333Y-63452380D01*
X68785714Y-63452380D02*
X68214285Y-63452380D01*
X68500000Y-63452380D02*
X68500000Y-62452380D01*
X68404761Y-62595238D01*
X68309523Y-62690476D01*
X68214285Y-62738095D01*
X66261904Y-185952380D02*
X66261904Y-184952380D01*
X66261904Y-185428571D02*
X66833333Y-185428571D01*
X66833333Y-185952380D02*
X66833333Y-184952380D01*
X67261904Y-185047619D02*
X67309523Y-185000000D01*
X67404761Y-184952380D01*
X67642857Y-184952380D01*
X67738095Y-185000000D01*
X67785714Y-185047619D01*
X67833333Y-185142857D01*
X67833333Y-185238095D01*
X67785714Y-185380952D01*
X67214285Y-185952380D01*
X67833333Y-185952380D01*
X68214285Y-185047619D02*
X68261904Y-185000000D01*
X68357142Y-184952380D01*
X68595238Y-184952380D01*
X68690476Y-185000000D01*
X68738095Y-185047619D01*
X68785714Y-185142857D01*
X68785714Y-185238095D01*
X68738095Y-185380952D01*
X68166666Y-185952380D01*
X68785714Y-185952380D01*
X106761904Y-185952380D02*
X106761904Y-184952380D01*
X106761904Y-185428571D02*
X107333333Y-185428571D01*
X107333333Y-185952380D02*
X107333333Y-184952380D01*
X107761904Y-185047619D02*
X107809523Y-185000000D01*
X107904761Y-184952380D01*
X108142857Y-184952380D01*
X108238095Y-185000000D01*
X108285714Y-185047619D01*
X108333333Y-185142857D01*
X108333333Y-185238095D01*
X108285714Y-185380952D01*
X107714285Y-185952380D01*
X108333333Y-185952380D01*
X108666666Y-184952380D02*
X109285714Y-184952380D01*
X108952380Y-185333333D01*
X109095238Y-185333333D01*
X109190476Y-185380952D01*
X109238095Y-185428571D01*
X109285714Y-185523809D01*
X109285714Y-185761904D01*
X109238095Y-185857142D01*
X109190476Y-185904761D01*
X109095238Y-185952380D01*
X108809523Y-185952380D01*
X108714285Y-185904761D01*
X108666666Y-185857142D01*
X106761904Y-63452380D02*
X106761904Y-62452380D01*
X106761904Y-62928571D02*
X107333333Y-62928571D01*
X107333333Y-63452380D02*
X107333333Y-62452380D01*
X107761904Y-62547619D02*
X107809523Y-62500000D01*
X107904761Y-62452380D01*
X108142857Y-62452380D01*
X108238095Y-62500000D01*
X108285714Y-62547619D01*
X108333333Y-62642857D01*
X108333333Y-62738095D01*
X108285714Y-62880952D01*
X107714285Y-63452380D01*
X108333333Y-63452380D01*
X109190476Y-62785714D02*
X109190476Y-63452380D01*
X108952380Y-62404761D02*
X108714285Y-63119047D01*
X109333333Y-63119047D01*
X62761904Y-73952380D02*
X62761904Y-72952380D01*
X62761904Y-73428571D02*
X63333333Y-73428571D01*
X63333333Y-73952380D02*
X63333333Y-72952380D01*
X63761904Y-73047619D02*
X63809523Y-73000000D01*
X63904761Y-72952380D01*
X64142857Y-72952380D01*
X64238095Y-73000000D01*
X64285714Y-73047619D01*
X64333333Y-73142857D01*
X64333333Y-73238095D01*
X64285714Y-73380952D01*
X63714285Y-73952380D01*
X64333333Y-73952380D01*
X65190476Y-72952380D02*
X65000000Y-72952380D01*
X64904761Y-73000000D01*
X64857142Y-73047619D01*
X64761904Y-73190476D01*
X64714285Y-73380952D01*
X64714285Y-73761904D01*
X64761904Y-73857142D01*
X64809523Y-73904761D01*
X64904761Y-73952380D01*
X65095238Y-73952380D01*
X65190476Y-73904761D01*
X65238095Y-73857142D01*
X65285714Y-73761904D01*
X65285714Y-73523809D01*
X65238095Y-73428571D01*
X65190476Y-73380952D01*
X65095238Y-73333333D01*
X64904761Y-73333333D01*
X64809523Y-73380952D01*
X64761904Y-73428571D01*
X64714285Y-73523809D01*
X89761904Y-175952380D02*
X89761904Y-174952380D01*
X89761904Y-175428571D02*
X90333333Y-175428571D01*
X90333333Y-175952380D02*
X90333333Y-174952380D01*
X90761904Y-175047619D02*
X90809523Y-175000000D01*
X90904761Y-174952380D01*
X91142857Y-174952380D01*
X91238095Y-175000000D01*
X91285714Y-175047619D01*
X91333333Y-175142857D01*
X91333333Y-175238095D01*
X91285714Y-175380952D01*
X90714285Y-175952380D01*
X91333333Y-175952380D01*
X91666666Y-174952380D02*
X92333333Y-174952380D01*
X91904761Y-175952380D01*
X62761904Y-175952380D02*
X62761904Y-174952380D01*
X62761904Y-175428571D02*
X63333333Y-175428571D01*
X63333333Y-175952380D02*
X63333333Y-174952380D01*
X63761904Y-175047619D02*
X63809523Y-175000000D01*
X63904761Y-174952380D01*
X64142857Y-174952380D01*
X64238095Y-175000000D01*
X64285714Y-175047619D01*
X64333333Y-175142857D01*
X64333333Y-175238095D01*
X64285714Y-175380952D01*
X63714285Y-175952380D01*
X64333333Y-175952380D01*
X64904761Y-175380952D02*
X64809523Y-175333333D01*
X64761904Y-175285714D01*
X64714285Y-175190476D01*
X64714285Y-175142857D01*
X64761904Y-175047619D01*
X64809523Y-175000000D01*
X64904761Y-174952380D01*
X65095238Y-174952380D01*
X65190476Y-175000000D01*
X65238095Y-175047619D01*
X65285714Y-175142857D01*
X65285714Y-175190476D01*
X65238095Y-175285714D01*
X65190476Y-175333333D01*
X65095238Y-175380952D01*
X64904761Y-175380952D01*
X64809523Y-175428571D01*
X64761904Y-175476190D01*
X64714285Y-175571428D01*
X64714285Y-175761904D01*
X64761904Y-175857142D01*
X64809523Y-175904761D01*
X64904761Y-175952380D01*
X65095238Y-175952380D01*
X65190476Y-175904761D01*
X65238095Y-175857142D01*
X65285714Y-175761904D01*
X65285714Y-175571428D01*
X65238095Y-175476190D01*
X65190476Y-175428571D01*
X65095238Y-175380952D01*
X89761904Y-73952380D02*
X89761904Y-72952380D01*
X89761904Y-73428571D02*
X90333333Y-73428571D01*
X90333333Y-73952380D02*
X90333333Y-72952380D01*
X90761904Y-73047619D02*
X90809523Y-73000000D01*
X90904761Y-72952380D01*
X91142857Y-72952380D01*
X91238095Y-73000000D01*
X91285714Y-73047619D01*
X91333333Y-73142857D01*
X91333333Y-73238095D01*
X91285714Y-73380952D01*
X90714285Y-73952380D01*
X91333333Y-73952380D01*
X91809523Y-73952380D02*
X92000000Y-73952380D01*
X92095238Y-73904761D01*
X92142857Y-73857142D01*
X92238095Y-73714285D01*
X92285714Y-73523809D01*
X92285714Y-73142857D01*
X92238095Y-73047619D01*
X92190476Y-73000000D01*
X92095238Y-72952380D01*
X91904761Y-72952380D01*
X91809523Y-73000000D01*
X91761904Y-73047619D01*
X91714285Y-73142857D01*
X91714285Y-73380952D01*
X91761904Y-73476190D01*
X91809523Y-73523809D01*
X91904761Y-73571428D01*
X92095238Y-73571428D01*
X92190476Y-73523809D01*
X92238095Y-73476190D01*
X92285714Y-73380952D01*
X104238095Y-127452380D02*
X104238095Y-126452380D01*
X104238095Y-126928571D02*
X104809523Y-126928571D01*
X104809523Y-127452380D02*
X104809523Y-126452380D01*
X105714285Y-126785714D02*
X105714285Y-127452380D01*
X105476190Y-126404761D02*
X105238095Y-127119047D01*
X105857142Y-127119047D01*
M02*
