M48
; DRILL file {KiCad (5.1.2)-1} date 6/3/2019 10:04:50 AM
; FORMAT={-:-/ absolute / inch / decimal}
; #@! TF.CreationDate,2019-06-03T10:04:50-07:00
; #@! TF.GenerationSoftware,Kicad,Pcbnew,(5.1.2)-1
; #@! TF.FileFunction,NonPlated,1,2,NPTH
FMAT,2
INCH
T1C0.1260
T2C0.2559
T3C0.2953
%
G90
G05
T1
X2.5689Y-5.1772
X2.5689Y-4.3504
X2.5689Y-3.7992
X2.5689Y-3.5236
X4.3031Y-6.1614
X2.5689Y-6.0039
X2.5689Y-5.4528
X2.5689Y-5.7283
X2.5689Y-3.248
X2.5689Y-6.2795
X2.5689Y-4.626
X2.5689Y-4.0748
X2.5689Y-4.9016
T2
X4.1339Y-5.4331
X4.0157Y-3.1102
X4.0157Y-3.7992
X4.0157Y-4.4685
X4.1339Y-5.0
X4.1339Y-5.8465
T3
X3.0512Y-6.6339
T0
M30
